<svg xmlns="http://www.w3.org/2000/svg" viewBox="0 0 140 56"><defs><style>.cls-1{fill:#0ea1dc;}</style></defs><g id="Layer_2" data-name="Layer 2"><g id="Layer_1-2" data-name="Layer 1"><g id="Group_7655" data-name="Group 7655"><path id="Path_18523" data-name="Path 18523" class="cls-1" d="M28.8,37A25,25,0,0,1,18.67,39C6.89,39,0,32.71,0,22,0,9.05,10.12,0,24.57,0A26.26,26.26,0,0,1,35.69,2.25l-2.32,9.12a15.85,15.85,0,0,0-8.14-2.24C17.92,9.13,13,14,13,21c0,5.17,3.48,8.42,9.29,8.42a16.75,16.75,0,0,0,8.63-2.32Z"/><path id="Path_18524" data-name="Path 18524" class="cls-1" d="M49.91,28.92a8.14,8.14,0,0,0,3.48.62c6.15,0,10.3-4.87,10.3-12.3,0-5-2.58-7.73-7.23-7.73a6,6,0,0,0-2.23.31ZM43.68,1.32A76.51,76.51,0,0,1,55.39.39c13.28,0,20.66,6.18,20.66,17.32,0,12.52-9,20.95-22.49,20.95a30.63,30.63,0,0,1-5.73-.54L43.61,56,33.34,46.37Z"/><path id="Path_18525" data-name="Path 18525" class="cls-1" d="M85.46,2.24A60.74,60.74,0,0,1,101.15,0c4.73,0,8,.78,11.21,2.63A36.45,36.45,0,0,1,125.89,0C134.69,0,140,3.56,140,9.52a23.87,23.87,0,0,1-.66,5.18L134,38.2H121.4l5.48-24a19.43,19.43,0,0,0,.16-2c0-2-1.49-3.1-4.31-3.1a12.78,12.78,0,0,0-4.73.94v.85a19.7,19.7,0,0,1-.34,3.16L112.11,38.2H99.58l5.48-23.9v-2c0-2.09-1.5-3.17-4.49-3.17a13.42,13.42,0,0,0-4.31.7L89.78,38.2H77.24Z"/></g></g></g></svg>