<svg xmlns="http://www.w3.org/2000/svg" viewBox="0 0 80 30"><defs><style>.cls-1{fill:#aeb3ba;}</style></defs><g id="Layer_2" data-name="Layer 2"><g id="Layer_1-2" data-name="Layer 1"><g id="Group_7654" data-name="Group 7654"><path id="Path_18547" data-name="Path 18547" class="cls-1" d="M4.65,6.78v4H3.37v-4L0,.84H1.37L4,5.59H4L6.63.84H8Z"/><path id="Path_18548" data-name="Path 18548" class="cls-1" d="M11.54,4.1c-1.4,0-2.29,1-2.32,2.71l4.31-.58a1.88,1.88,0,0,0-1.61-2.12,1.63,1.63,0,0,0-.38,0m3.15,2.78-5.4.72A2.43,2.43,0,0,0,11.73,10L12,10a5,5,0,0,0,2.15-.45l.38.86a5.79,5.79,0,0,1-2.6.52A3.5,3.5,0,0,1,8.09,7.72a4.85,4.85,0,0,1,0-.66c0-2.28,1.3-3.84,3.45-3.84A2.92,2.92,0,0,1,14.7,5.88a4.17,4.17,0,0,1,0,.5,4.44,4.44,0,0,1,0,.5"/><path id="Path_18549" data-name="Path 18549" class="cls-1" d="M20,4.23a3.3,3.3,0,0,0-.7-.05,4.48,4.48,0,0,0-1.5.23v6.34H16.55v-7a7.91,7.91,0,0,1,2.89-.52,6.49,6.49,0,0,1,.77,0Z"/><rect id="Rectangle_3660" data-name="Rectangle 3660" class="cls-1" x="21.8" width="1.22" height="10.75"/><path id="Path_18550" data-name="Path 18550" class="cls-1" d="M25.28,3.37H26.5v7.38H25.28Zm.6-1.49a.75.75,0,0,1-.77-.7.78.78,0,0,1,1.55,0,.75.75,0,0,1-.78.7"/><path id="Path_18551" data-name="Path 18551" class="cls-1" d="M35.09,13.7H33.82L35,10.75,32,3.37h1.34l2,5.37a7.74,7.74,0,0,1,.28,1h0a7.74,7.74,0,0,1,.28-1l2-5.37h1.35Z"/><path id="Path_18552" data-name="Path 18552" class="cls-1" d="M43.68,4.1c-1.39,0-2.28,1-2.31,2.71l4.31-.58a1.88,1.88,0,0,0-1.61-2.12,1.7,1.7,0,0,0-.39,0m3.16,2.78-5.4.72A2.41,2.41,0,0,0,43.87,10l.22,0a5,5,0,0,0,2.16-.45l.38.86a5.85,5.85,0,0,1-2.6.52,3.5,3.5,0,0,1-3.79-3.18,3.64,3.64,0,0,1,0-.66c0-2.28,1.3-3.84,3.45-3.84a2.91,2.91,0,0,1,3.15,2.66,2.09,2.09,0,0,1,0,.5c0,.15,0,.32,0,.5"/><path id="Path_18553" data-name="Path 18553" class="cls-1" d="M52.13,4.23a3.3,3.3,0,0,0-.7-.05,4.48,4.48,0,0,0-1.5.23v6.34H48.7v-7a7.91,7.91,0,0,1,2.89-.52,6.49,6.49,0,0,1,.77,0Z"/><path id="Path_18554" data-name="Path 18554" class="cls-1" d="M54,3.37h1.21v7.38H54Zm.6-1.49a.75.75,0,0,1-.78-.7.78.78,0,0,1,.84-.71.77.77,0,0,1,.71.71.74.74,0,0,1-.77.7"/><path id="Path_18555" data-name="Path 18555" class="cls-1" d="M62.2,10.75v-5c0-1-.64-1.62-1.92-1.62a5,5,0,0,0-1.68.26v6.34H57.36v-7a7.79,7.79,0,0,1,2.9-.52c2.08,0,3.15.9,3.15,2.45v5.08Z"/><path id="Path_18556" data-name="Path 18556" class="cls-1" d="M70.34,4.39A4.38,4.38,0,0,0,69,4.21c-1.66,0-2.52,1.25-2.52,2.94S67.37,10,69,10a3.83,3.83,0,0,0,1.34-.24ZM69,10.91a3.47,3.47,0,0,1-3.76-3.13,3.31,3.31,0,0,1,0-.63c0-2.26,1.29-3.84,3.65-3.84a5,5,0,0,1,1.43.19V0h1.21V10.39a6.1,6.1,0,0,1-2.53.52"/><path id="Path_18557" data-name="Path 18557" class="cls-1" d="M76.83,4.1c-1.39,0-2.29,1-2.32,2.71l4.31-.58a1.87,1.87,0,0,0-1.6-2.12,1.7,1.7,0,0,0-.39,0M80,6.88l-5.39.72A2.41,2.41,0,0,0,77,10l.22,0a5,5,0,0,0,2.16-.45l.38.86a5.85,5.85,0,0,1-2.6.52,3.5,3.5,0,0,1-3.79-3.18,2.91,2.91,0,0,1,0-.66c0-2.28,1.3-3.84,3.44-3.84A2.91,2.91,0,0,1,80,5.88a2.09,2.09,0,0,1,0,.5c0,.15,0,.32,0,.5"/><path id="Path_18558" data-name="Path 18558" class="cls-1" d="M2.43,30a11.05,11.05,0,0,1-1.11-.06l.32-.56a6.45,6.45,0,0,0,.76,0c.84,0,1.42-.16,1.42-.52s-.3-.41-.9-.41a7.91,7.91,0,0,0-.8,0l.3-.53a6.83,6.83,0,0,1,.74,0c1.22,0,1.63.41,1.63.94,0,.73-.86,1.1-2.36,1.1m1.39-2.66C2.14,27.34.44,26.2.44,23.49s1.7-3.83,3.38-3.83a3.78,3.78,0,0,1,2,.5L5.36,21A2.57,2.57,0,0,0,4,20.62c-1.13,0-2.26.79-2.26,2.86S2.84,26.37,4,26.37a2.68,2.68,0,0,0,1.4-.4l.43.86a3.7,3.7,0,0,1-2,.51"/><path id="Path_18559" data-name="Path 18559" class="cls-1" d="M11.62,18.65a.62.62,0,0,1-.56-.69.65.65,0,0,1,.7-.57.64.64,0,0,1,.56.63.66.66,0,0,1-.7.63m-2.7,0A.62.62,0,0,1,8.36,18a.65.65,0,0,1,.7-.57.64.64,0,0,1,.56.63.66.66,0,0,1-.7.63m1.35,1.94c-1.43,0-2.14,1.19-2.14,2.89s.7,2.91,2.14,2.91,2.14-1.22,2.14-2.91-.7-2.89-2.14-2.89m0,6.75c-2.18,0-3.35-1.66-3.35-3.85s1.17-3.84,3.35-3.84,3.36,1.65,3.36,3.84-1.17,3.85-3.36,3.85"/><path id="Path_18560" data-name="Path 18560" class="cls-1" d="M14.72,27.19l3.81-6.45H15v-.93h5.34l-3.8,6.45H20.4v.93Z"/><path id="Path_18561" data-name="Path 18561" class="cls-1" d="M26.43,18.65a.62.62,0,0,1-.56-.69.63.63,0,0,1,.69-.57.64.64,0,0,1,.57.63.67.67,0,0,1-.7.63m-2.71,0a.63.63,0,0,1-.57-.69.64.64,0,0,1,1.27.06.67.67,0,0,1-.7.63m1.43,8.69c-2,0-3-.81-3-2.59V19.81h1.24v5c0,1.1.6,1.62,1.81,1.62a5,5,0,0,0,1.68-.25V19.81H28v7a7.51,7.51,0,0,1-2.89.52"/><path id="Path_18562" data-name="Path 18562" class="cls-1" d="M39.48,27.19V22.11A1.52,1.52,0,0,0,38,20.58h-.2a2.35,2.35,0,0,0-1.71.63v6H34.83V21.93c0-.84-.75-1.34-1.85-1.34a4.46,4.46,0,0,0-1.57.26v6.34H30.18v-7a7.53,7.53,0,0,1,2.73-.53,3.4,3.4,0,0,1,2.51.85A4,4,0,0,1,38,19.65c1.62,0,2.7.92,2.7,2.36v5.18Z"/><rect id="Rectangle_3661" data-name="Rectangle 3661" class="cls-1" x="42.91" y="16.44" width="1.22" height="10.75"/><path id="Path_18563" data-name="Path 18563" class="cls-1" d="M49.46,20.53c-1.39,0-2.28,1-2.31,2.71l4.3-.57a1.87,1.87,0,0,0-1.6-2.12,1.7,1.7,0,0,0-.39,0m3.15,2.78L47.22,24a2.4,2.4,0,0,0,2.43,2.38h.22A5,5,0,0,0,52,26l.38.86a6,6,0,0,1-2.6.52A3.5,3.5,0,0,1,46,24.16a3,3,0,0,1,0-.67c0-2.27,1.3-3.83,3.44-3.83a2.9,2.9,0,0,1,3.15,2.66,2.09,2.09,0,0,1,0,.5c0,.15,0,.32,0,.49"/><path id="Path_18564" data-name="Path 18564" class="cls-1" d="M57.91,20.67a3.35,3.35,0,0,0-.7-.05,4,4,0,0,0-1.5.23v6.34H54.48v-7a7.89,7.89,0,0,1,2.88-.52,6.81,6.81,0,0,1,.78.05Z"/></g></g></g></svg>