<svg xmlns="http://www.w3.org/2000/svg" xmlns:xlink="http://www.w3.org/1999/xlink" viewBox="0 0 600 346.01"><defs><style>.cls-1,.cls-10,.cls-11,.cls-8,.cls-9{fill:#3c75a1;}.cls-1,.cls-17{opacity:0.1;}.cls-1,.cls-10,.cls-16,.cls-17,.cls-8,.cls-9{isolation:isolate;}.cls-2{fill:#5387af;}.cls-3,.cls-7{fill:none;stroke:#41434f;stroke-miterlimit:10;}.cls-4{fill:#72a9d2;}.cls-5{fill:#41434f;}.cls-6{fill:#fff;}.cls-7{stroke-width:2px;}.cls-8{opacity:0.5;}.cls-9{opacity:0.7;}.cls-10{opacity:0.8;}.cls-12{fill:url(#linear-gradient);}.cls-13{fill:#f9b4b0;}.cls-14{fill:#9f6e65;}.cls-15{fill:#34396f;}.cls-16,.cls-17{fill:#050706;}.cls-16{opacity:0.05;}.cls-18{fill:#ee7c7b;}.cls-19{fill:#ce5e5e;}</style><linearGradient id="linear-gradient" x1="-87.19" y1="717.44" x2="-87.19" y2="717.43" gradientTransform="matrix(145.61, 0, 0, -294.99, 13169.92, 212309.1)" gradientUnits="userSpaceOnUse"><stop offset="0" stop-color="#6d6d6d" stop-opacity="0.25"/><stop offset="0.54" stop-color="#6d6d6d" stop-opacity="0.12"/><stop offset="1" stop-color="#6d6d6d" stop-opacity="0.1"/></linearGradient></defs><g id="Layer_2" data-name="Layer 2"><g id="Layer_1-2" data-name="Layer 1"><g id="undraw_finance_0bdk-2" data-name="undraw finance 0bdk-2"><path id="Path_19705" data-name="Path 19705" class="cls-1" d="M565.22,242.23c-10.21-9-23.27-13.89-36-18.62-3.15-1.16-6.5-2.34-9.73-1.46a13.39,13.39,0,0,0-5.47,3.5c-9,8.71-16.68,23.45-29,21.08-4.4-.84-8-3.91-11.49-6.74-9.91-8.05-21.65-15.12-33.85-18.71v15H384.09c-6.67,5.08-13.43,10-21.32,12.61-11.84,3.94-24.7,2.24-37.15,3-18.11,1.11-35.74,7.52-53.88,7.13-23.32-.5-44.67-12-66-22.74H122.18V218.33c-28.95-7.69-59.14-10.57-84.94,3.15-4.3,2.28-8.53,5.16-10.84,9.44-6.11,11.26,3.6,25.86-1.13,37.76S2.71,286.57,4.17,299.29a17.71,17.71,0,0,0,4.3,8.92c13.27,16.23,37.61,17.87,58.18,13.85s40.7-12.38,61.64-11.33c20.12,1,38.64,10.7,57.08,18.83,31.09,13.74,67.4,23.61,98.46,9.79,14.23-6.33,26-17.11,39.62-24.64a97.5,97.5,0,0,1,60.19-11c13.83,1.95,27,6.86,40.58,10.24,30.76,7.69,62.86,7.44,94.55,7.14,5.9-.06,11.89-.13,17.54-1.82,8.38-2.52,15.28-8.31,21.93-14,8.73-7.45,17.93-15.63,20.75-26.76C582.32,265.26,575.43,251.21,565.22,242.23Z"/><path id="Path_19556" data-name="Path 19556" class="cls-2" d="M576.82,165.17c7.78,28.49-25.43,109.66-25.43,109.66s-69.89-52.95-77.68-81.44a53.46,53.46,0,0,1,102.44-30.66c.24.81.46,1.62.66,2.44Z"/><path id="Path_19558" data-name="Path 19558" class="cls-3" d="M511.44,127.86s43.5,65.72,40.25,147.13"/><path id="Path_19559" data-name="Path 19559" class="cls-4" d="M587.91,217.24s-39.44-21.47-34.45,57.8c0,0,32.91-1.17,44.59-28a23.31,23.31,0,0,0-9.56-29.43Z"/><path id="Path_19560" data-name="Path 19560" class="cls-3" d="M588.56,217.38s-5.09,41.15-35.1,57.66"/><path id="Path_19561" data-name="Path 19561" class="cls-2" d="M10.41,208.41s-38.45,23.21,32.43,59c0,0,15.62-29-1.65-52.68A23.28,23.28,0,0,0,11,208.07Z"/><path id="Path_19562" data-name="Path 19562" class="cls-3" d="M10.85,207.92s32.9,25.18,32,59.45"/><path id="Path_19706" data-name="Path 19706" class="cls-4" d="M122.18,236.27V192c-.27-.4-.53-.81-.83-1.21a23.24,23.24,0,0,0-30.18-6.62l-.6.31s-38.44,23.22,32.44,59a53.64,53.64,0,0,0,3-7.22Z"/><path id="Path_19707" data-name="Path 19707" class="cls-5" d="M424.07,37.54H138.45A23.27,23.27,0,0,0,115.19,60.8h0V220.71A23.27,23.27,0,0,0,138.45,244H424.07a23.26,23.26,0,0,0,23.26-23.26h0V60.8A23.26,23.26,0,0,0,424.07,37.54Zm15.57,198.73H122.18V67.63H439.65Z"/><path id="Path_19555" data-name="Path 19555" class="cls-3" d="M91,184s32.9,25.17,32,59.44"/><circle id="Ellipse_2102" data-name="Ellipse 2102" class="cls-6" cx="280.92" cy="52.94" r="2.8"/><path id="Path_19564" data-name="Path 19564" class="cls-5" d="M329.93,236.62,319,247.81H242.13l-9.85-11.2H75.67a3.5,3.5,0,0,0-3.5,3.5v2.82a19.57,19.57,0,0,0,19.56,19.58H469.39A19.57,19.57,0,0,0,489,242.94h0v-2.82a3.5,3.5,0,0,0-3.5-3.5Z"/><path id="Path_19565" data-name="Path 19565" class="cls-7" d="M162.74,78.13V221.58h237"/><rect id="Rectangle_4282" data-name="Rectangle 4282" class="cls-8" x="183.72" y="178.19" width="24.47" height="37.79"/><rect id="Rectangle_4283" data-name="Rectangle 4283" class="cls-9" x="225.67" y="144.6" width="24.47" height="71.38"/><rect id="Rectangle_4284" data-name="Rectangle 4284" class="cls-8" x="267.63" y="164.9" width="24.47" height="51.08"/><rect id="Rectangle_4285" data-name="Rectangle 4285" class="cls-10" x="309.58" y="133.41" width="24.47" height="82.57"/><rect id="Rectangle_4286" data-name="Rectangle 4286" class="cls-2" x="351.54" y="104.02" width="24.47" height="111.96"/><path id="Path_19566" data-name="Path 19566" class="cls-7" d="M195.61,155.1l42.65-38.49L280.21,153l41.26-44.09,42-17.5"/><circle id="Ellipse_2103" data-name="Ellipse 2103" class="cls-11" cx="195.6" cy="155.1" r="4.89"/><circle id="Ellipse_2104" data-name="Ellipse 2104" class="cls-11" cx="279.52" cy="152.3" r="4.89"/><circle id="Ellipse_2105" data-name="Ellipse 2105" class="cls-11" cx="322.17" cy="108.92" r="4.89"/><circle id="Ellipse_2106" data-name="Ellipse 2106" class="cls-11" cx="238.26" cy="115.91" r="4.89"/><circle id="Ellipse_2107" data-name="Ellipse 2107" class="cls-11" cx="363.43" cy="91.42" r="4.89"/><path id="Path_19567" data-name="Path 19567" class="cls-12" d="M545.47,242.75c-2.58-.85-6.4-1.83-9.44-1.49-2.88-1-9.67-3.77-14.3-7.88a104,104,0,0,0-.31-12.1c-2.37-27,3-44.76,3-44.76s4.19-13.57,3.73-24.83c.27.51.42.81.42.81.36-9.71,3.67-19.76,6.15-26l.28-.1,2.76-6.58a5.42,5.42,0,0,0,.53-1.21l.44-1-.13-.06c.05-.17.09-.35.13-.53h0c1.77-7.48,3.15-25.23,3.15-25.23,4.74-18.68-6.52-30.21-6.52-30.21l-19.1-16.45a2.22,2.22,0,0,1,.18.67l-.15-.14c-.27-.77-.57-1.7-.86-2.76a16.09,16.09,0,0,0,6.17-9.26,29.16,29.16,0,0,0,.29-6.92l-.32-7.94a24.71,24.71,0,0,0-.47-4.62c-1.44-6.3-7.89-10.7-14.36-11a50.74,50.74,0,0,0-6.16.32,40.19,40.19,0,0,1-5,.11A.93.93,0,0,1,495,3.4a.84.84,0,0,1-.24-.55,2.77,2.77,0,0,1,.67-2,2.6,2.6,0,0,1,.87-.5l-.46.11a2.43,2.43,0,0,1,.76-.41,14.69,14.69,0,0,0-4.77,1.73,6.33,6.33,0,0,0-1.12,1,4.87,4.87,0,0,0-1.61,3,5.66,5.66,0,0,1-1.7-2.52,2.52,2.52,0,0,1,0-1.22c-.11.14-.22.28-.32.43V2.24a12.61,12.61,0,0,0-2.52,5.12,2,2,0,0,1-.45-1.48c-.09.29-.18.59-.26.88a1.94,1.94,0,0,1,0-.59,20.25,20.25,0,0,0-1,7c0,2.38,1.06,6.08,3.6,6.92a3,3,0,0,0,.4.11,16,16,0,0,0,10.79,24.44c0,.29.08.6.12.92h.1c.07.63.12,1.32.16,2a13.18,13.18,0,0,1-2.1,1.69,17.22,17.22,0,0,1-7,2.32,20.89,20.89,0,0,0-8.41,2.51c-3.05,1.71-6.42,4.2-7.47,7.22-1.76,5-11.46,12.87-18,13.84l-2.31-.13-.17,0v0L452,75h-.18v0l-.58,0s-.06.27-.14.75c-3.27-1.12-10.22-4.25-19.26-12.46-10.07-9.14-23.68-7.34-28.93-6.19a.9.9,0,0,0-.69,1.07.94.94,0,0,0,.45.6c2.12,1.16,5.4,2.85,6.92,3,0,0-3.15,3.29.2,5a2.42,2.42,0,0,0,2.51-.25c1.62-1.19,6.13,1.5,12.67,2.91,0,0,18.44,19.1,27.6,22a12.23,12.23,0,0,0,.7,1.21l.56,0v0h.24l.07.63s14.24-.75,18.87-5.92a7.42,7.42,0,0,0,.9-1L469,148.83h0l0,.6h3.64a137.39,137.39,0,0,1-1,22.94V213s-.18,3.58,7.24,8.81a276.18,276.18,0,0,1,22.46,17.43l.9.78c-1.36,12.43-4.22,35.6-6.6,36.46l1.47.26c-2.51,3.19-9.65,12-11.83,12.19-2.67.3-4.45,4.45,0,5.34a49.87,49.87,0,0,0,26.41-2.61,4,4,0,0,0,2.52-4.29l-.86-6.55a.9.9,0,0,1,.37.4c.6,1.78,0-2.37,0-2.37a183.74,183.74,0,0,0,5.73-23.92l8.8,7.62s.18-.22.49-.63c2.15,4.9,6,14.92,5.14,22.25-1.18,10.07,10.07,1.19,8.89-4.74-1-4.8,3.32-25.13,5-32.73a3.39,3.39,0,0,0-2.27-3.94Z"/><path id="Path_19568" data-name="Path 19568" class="cls-13" d="M453.45,78.28s-8.39-1.45-20.83-12.74c-9.84-8.93-23.12-7.18-28.24-6.05a.88.88,0,0,0-.67,1,.87.87,0,0,0,.44.58c2.07,1.14,5.28,2.79,6.78,3,0,0-3.1,3.21.2,4.93a2.39,2.39,0,0,0,2.48-.24c1.58-1.16,6,1.47,12.37,2.84,0,0,24.88,25.76,30.66,21.4Z"/><path id="Path_19569" data-name="Path 19569" class="cls-13" d="M496.29,43.25s2.31,9.84,0,16.79l10.41,1.45L516,56.85V50.77a41.77,41.77,0,0,1-3.18-20Z"/><path id="Path_19570" data-name="Path 19570" class="cls-14" d="M525.77,256.6s7.55,14.77,6.37,24.61,9.84,1.16,8.68-4.63c-.94-4.69,3.24-24.55,4.87-31.94a3.3,3.3,0,0,0-2.19-3.84c-3.48-1.15-9.3-2.55-12.23-.4C527,243.57,525.77,256.6,525.77,256.6Z"/><path id="Path_19571" data-name="Path 19571" class="cls-14" d="M497.15,272.81s-9.83,12.74-12.44,13-4.34,4.34,0,5.21a48.58,48.58,0,0,0,25.79-2.52,3.94,3.94,0,0,0,2.47-4.19l-1.66-12.4Z"/><path id="Path_19572" data-name="Path 19572" class="cls-15" d="M481,137.61l-9.44,1.26a138,138,0,0,1-.11,33.19v39.65s-.18,3.5,7.06,8.58a268.66,268.66,0,0,1,21.94,17L526.66,260s10.41-12.74,9-20.27c0,0-17.35-5.5-19.67-14.47-1.33-5.14-8.05-9.44-13.56-12.15a16.89,16.89,0,0,1-9-19.16,14.75,14.75,0,0,1,1.48-3.72c4.63-8.1,11.28-26.34,11.28-26.34l-12.73-24.28Z"/><path id="Path_19573" data-name="Path 19573" class="cls-16" d="M481,137.61l-9.44,1.26a138,138,0,0,1-.11,33.19v39.65s-.18,3.5,7.06,8.58a268.66,268.66,0,0,1,21.94,17L526.66,260s10.41-12.74,9-20.27c0,0-17.35-5.5-19.67-14.47-1.33-5.14-8.05-9.44-13.56-12.15a16.89,16.89,0,0,1-9-19.16,14.75,14.75,0,0,1,1.48-3.72c4.63-8.1,11.28-26.34,11.28-26.34l-12.73-24.28Z"/><path id="Path_19574" data-name="Path 19574" class="cls-15" d="M494.84,273.7s17.07,2.9,17.65,4.63,0-2.31,0-2.31,9.83-29.82,7.55-56.16,2.89-43.72,2.89-43.72,6.07-19.68,2.6-31-39.93-6.37-39.93-6.37,12.73,29.82,12.44,44c0,0,1.45,42.85,4,47.77C502.07,230.54,498,272.52,494.84,273.7Z"/><path id="Path_19575" data-name="Path 19575" class="cls-6" d="M496.85,50.77s1.73,10.7,19.09,6.08l-11.55,88S470.83,146,471.12,142L478,88.69Z"/><path id="Path_19576" data-name="Path 19576" class="cls-17" d="M497.3,50.19a14.06,14.06,0,0,1-8.36,4,20.27,20.27,0,0,0-8.21,2.45c-3,1.66-6.29,4.09-7.3,7C471.4,69.44,458.67,79,452.89,77l2,17.37s16.49-.87,19.38-7.24l-4.91,62h4.34s2.32-16.79,4-20.26,5.21-22.58,5.5-27.21,4.63-31.27,8.39-35.88L497.32,52Z"/><path id="Path_19577" data-name="Path 19577" class="cls-17" d="M497.3,51.06a17.92,17.92,0,0,1-8.94,3.68,20.48,20.48,0,0,0-8.21,2.46c-3,1.67-6.28,4.09-7.3,7-2,5.79-14.75,15.34-20.54,13.32l2,17.37s16.49-.87,19.38-7.24l-4.92,61.95h4.34s2.32-16.79,4.05-20.27,5.21-22.58,5.5-27.21,4.63-31.27,8.39-35.87l6.22-13.5Z"/><path id="Path_19578" data-name="Path 19578" class="cls-18" d="M497.3,50.48a17.83,17.83,0,0,1-8.94,3.68,20.27,20.27,0,0,0-8.21,2.45c-3,1.66-6.29,4.09-7.3,7-2,5.79-14.76,15.34-20.54,13.32l2,17.37s16.49-.87,19.39-7.24l-4.92,62h4.34s2.32-16.79,4.05-20.26,5.21-22.58,5.5-27.21,4.63-31.27,8.39-35.88l6.22-13.46Z"/><path id="Path_19579" data-name="Path 19579" class="cls-17" d="M512.05,39.33c-.37-2.74.38-4.45.73-7.67L496.29,44.11c.3,1.37.53,2.75.7,4.14a15.08,15.08,0,0,0,2.51.2C505.22,48.46,509.34,44,512.05,39.33Z"/><ellipse id="Ellipse_2108" data-name="Ellipse 2108" class="cls-13" cx="499.47" cy="31.96" rx="15.62" ry="15.63"/><path id="Path_19580" data-name="Path 19580" class="cls-17" d="M482.42,16.64a19.83,19.83,0,0,1,1.26-7.74,1.93,1.93,0,0,0,.32,2.52,12.43,12.43,0,0,1,3.93-7,2.12,2.12,0,0,0-1.41,2.65,6.06,6.06,0,0,0,1.93,2.72,4.88,4.88,0,0,1,2.38-4.11A14.42,14.42,0,0,1,495.49,4,2.7,2.7,0,0,0,493.7,6.8a.79.79,0,0,0,.24.54.87.87,0,0,0,.52.14,42,42,0,0,0,4.89-.11,50.48,50.48,0,0,1,6-.32c6.29.26,12.61,4.56,14,10.7a25.38,25.38,0,0,1,.46,4.52l.31,7.74a29,29,0,0,1-.28,6.78,14.34,14.34,0,0,1-7.37,9.74c-2.27-3.29-2.47-7.52-3.25-11.44a5.75,5.75,0,0,0-1-2.52,2.2,2.2,0,0,0-2.42-.82,1.39,1.39,0,0,0-.75,1.82,1.47,1.47,0,0,0,.24.4c-.63.74-1.8.19-2.51-.47a13.55,13.55,0,0,1-3.92-7c-.28-1.35-.57-3-1.89-3.47a3.47,3.47,0,0,0-1.4-.1c-2.75.19-7.06,1.33-9.73.46C483.45,22.58,482.42,19,482.42,16.64Z"/><path id="Path_19581" data-name="Path 19581" class="cls-14" d="M482.71,16.35A19.83,19.83,0,0,1,484,8.61a1.93,1.93,0,0,0,.32,2.52,12.43,12.43,0,0,1,3.93-7,2.12,2.12,0,0,0-1.41,2.65,6,6,0,0,0,1.93,2.72,4.86,4.86,0,0,1,2.38-4.11,14.42,14.42,0,0,1,4.66-1.69A2.7,2.7,0,0,0,494,6.51a.83.83,0,0,0,.23.54.92.92,0,0,0,.53.14,42,42,0,0,0,4.89-.11,50.48,50.48,0,0,1,6-.32c6.29.26,12.61,4.56,14,10.7a25.38,25.38,0,0,1,.46,4.52l.3,7.75a28.42,28.42,0,0,1-.27,6.77,14.34,14.34,0,0,1-7.37,9.74c-2.27-3.29-2.47-7.52-3.26-11.44a5.74,5.74,0,0,0-1-2.52,2.2,2.2,0,0,0-2.42-.82,1.39,1.39,0,0,0-.75,1.82,1.47,1.47,0,0,0,.24.4c-.63.74-1.8.19-2.51-.47a13.55,13.55,0,0,1-3.92-7c-.28-1.35-.57-3-1.89-3.47a3.47,3.47,0,0,0-1.4-.1c-2.75.19-7.06,1.33-9.73.46C483.74,22.29,482.71,18.67,482.71,16.35Z"/><path id="Path_19582" data-name="Path 19582" class="cls-17" d="M451.56,77s-2.31,10.7,2,17.37l2.46-.2-1.34-17Z"/><path id="Path_19583" data-name="Path 19583" class="cls-19" d="M452.19,77s-2.31,10.7,2,17.37l2.46-.2-1.34-17Z"/><path id="Path_19584" data-name="Path 19584" class="cls-17" d="M514.37,47.76,533,63.83s11,11.29,6.36,29.53c0,0-2,26.63-4.34,27.79,0,0-8.1,16.21-8.68,31.55,0,0-10.85-21.85-15.76-8.54s-16.36,15.2-16.36,15.2l6.37-78.77S516.68,52.66,514.37,47.76Z"/><path id="Path_19585" data-name="Path 19585" class="cls-18" d="M515,47.76l18.66,16.07s11,11.28,6.36,29.53c0,0-2,26.63-4.34,27.79,0,0-8.1,16.21-8.67,31.55,0,0-11.43-23-16.36-9.7s-15.76,16.37-15.76,16.37l6.36-78.74S517.26,52.66,515,47.76Z"/><path id="Path_19586" data-name="Path 19586" class="cls-13" d="M523.48,115.62s4.63-3.18,12.15,5.5l-18.51,33.59-6.22-9.4S524.06,119.39,523.48,115.62Z"/><path id="Path_19587" data-name="Path 19587" class="cls-17" d="M519,117.5s10.24,11.5,14.23,9.67l3.7-8.62-13.88-6Z"/><path id="Path_19588" data-name="Path 19588" class="cls-19" d="M519,116.92s10.24,11.5,14.23,9.66l3.7-8.61-13.88-6Z"/><path id="Path_19589" data-name="Path 19589" class="cls-17" d="M511.53,143.11s4.87,10,7.47,10.58L515.22,158l-5.5-10.43Z"/><path id="Path_19590" data-name="Path 19590" class="cls-15" d="M511.24,143.42s4.87,10,7.47,10.57l-3.78,4.35-5.51-10.44Z"/><path id="Path_19591" data-name="Path 19591" class="cls-17" d="M520.45,81.6s.58,20.85-1.74,28.67"/><path id="Path_19592" data-name="Path 19592" class="cls-17" d="M473.57,85.66s3.48-1.16,3.48-4.06"/><path id="Path_19593" data-name="Path 19593" class="cls-7" d="M52,89.14s-16.49,34.14-5.66,74.54,7.39,88.74-3.41,100.7"/><circle id="Ellipse_2109" data-name="Ellipse 2109" class="cls-11" cx="52" cy="89.15" r="4.55"/><path id="Path_19594" data-name="Path 19594" class="cls-7" d="M45.15,111.11s17.09,3.08,21.64-3.15"/><path id="Path_19595" data-name="Path 19595" class="cls-7" d="M43.53,121s-10.29-11.38-9.72-18.21"/><path id="Path_19596" data-name="Path 19596" class="cls-7" d="M42.65,141.87s9.35,2.47,17.89-15.73"/><path id="Path_19597" data-name="Path 19597" class="cls-7" d="M45.15,157s-23.27-15-20.44-24.65"/><path id="Path_19598" data-name="Path 19598" class="cls-7" d="M48.78,174.19s16.3-14.47,14.6-28.72"/><path id="Path_19599" data-name="Path 19599" class="cls-7" d="M50.56,184.27s-20.76-5.8-20.13-14.9"/><path id="Path_19600" data-name="Path 19600" class="cls-7" d="M52,196.29s13.08-12.13,14.78-19.51"/><path id="Path_19601" data-name="Path 19601" class="cls-7" d="M52.91,216.9s-13.41-15.67-14-23.63"/><path id="Path_19602" data-name="Path 19602" class="cls-7" d="M52.92,229.87s15-16.69,16.14-24.65"/><circle id="Ellipse_2110" data-name="Ellipse 2110" class="cls-4" cx="33.81" cy="103.94" r="4.55"/><circle id="Ellipse_2111" data-name="Ellipse 2111" class="cls-4" cx="28.7" cy="169.37" r="4.55"/><circle id="Ellipse_2112" data-name="Ellipse 2112" class="cls-11" cx="24.71" cy="132.39" r="4.55"/><circle id="Ellipse_2113" data-name="Ellipse 2113" class="cls-11" cx="66.79" cy="107.92" r="4.55"/><circle id="Ellipse_2114" data-name="Ellipse 2114" class="cls-11" cx="66.79" cy="177.9" r="4.55"/><circle id="Ellipse_2115" data-name="Ellipse 2115" class="cls-11" cx="59.4" cy="126.13" r="4.55"/><circle id="Ellipse_2116" data-name="Ellipse 2116" class="cls-11" cx="68.49" cy="208.06" r="4.55"/><circle id="Ellipse_2117" data-name="Ellipse 2117" class="cls-11" cx="37.79" cy="196.11" r="4.55"/><circle id="Ellipse_2118" data-name="Ellipse 2118" class="cls-4" cx="63.95" cy="145.47" r="4.55"/></g></g></g></svg>