<svg xmlns="http://www.w3.org/2000/svg" xmlns:xlink="http://www.w3.org/1999/xlink" width="250" height="90" viewBox="0 0 600 483">
  <defs>
    <linearGradient id="linear-gradient" x1="0.5" y1="1" x2="0.5" gradientUnits="objectBoundingBox">
      <stop offset="0" stop-color="gray" stop-opacity="0.251"/>
      <stop offset="0.54" stop-color="gray" stop-opacity="0.122"/>
      <stop offset="1" stop-color="gray" stop-opacity="0.102"/>
    </linearGradient>
    <linearGradient id="linear-gradient-2" x1="9.926" x2="9.926" y2="0" xlink:href="#linear-gradient"/>
  </defs>
  <g id="Group_11858" data-name="Group 11858" transform="translate(-1010 -466)">
    <text id="Yetkilendirme_yapmak_istediğiniz_banka_hesabını_sol_taraftan_seçiniz." data-name="Yetkilendirme yapmak istediğiniz banka hesabını sol taraftan seçiniz." transform="translate(1011 945)" fill="#9f6e65" font-size="20" font-family="Ubuntu-Italic, Ubuntu" font-style="italic"><tspan x="0" y="0">Yetkilendirme yapmak istediğiniz banka hesabını sol taraftan seçiniz.</tspan></text>
    <g id="undraw_make_it_rain_iwk4" transform="translate(1010 466.001)">
      <path id="Path_19463" data-name="Path 19463" d="M211.044,353.692c-7.891,2.383-15.277,8.153-17.249,16.158-2.255,9.2,2.945,18.473,3.7,27.919,2.427,30.949-41.618,52.784-35.335,83.184,2.495,12.088,12.579,20.979,22.515,28.325,15.918,11.73,33.579,22.094,53.138,25.019,29.686,4.446,60.7-8.621,89.557-.363,23.273,6.663,41.082,26.189,64.2,33.393,17.593,5.486,36.548,3.325,54.826,1.1,9.856-1.195,20.181-2.574,28.134-8.485,14.784-11,15.715-32.734,25.614-48.307,15.29-24.015,48.813-28.732,76.922-24.064s55.4,16.158,83.883,15.222c6.086-.2,12.32-1.028,17.63-4.015,6.456-3.627,10.817-10.019,14.673-16.343a264.363,264.363,0,0,0,38.359-131.4c.166-7.974-.117-16.293-3.869-23.332-4.743-8.9-14.224-14.23-23.661-17.814-22.663-8.621-47.7-10.031-69.906-19.754-21.419-9.378-38.766-25.825-57.419-39.92A305.906,305.906,0,0,0,450.78,194.14c-10.713-2.069-21.832-3.547-32.477-1.158-12.265,2.752-22.836,10.394-32.341,18.621-25.288,21.884-45.555,48.886-68.858,72.87a391.984,391.984,0,0,1-52.312,45.093c-8.624,6.213-17.791,13.59-27.4,18.184C228.595,351.95,220.346,350.891,211.044,353.692Z" transform="translate(-131.64 -130.784)" fill="#9f6e65" opacity="0.2"/>
      <path id="Path_19464" data-name="Path 19464" d="M402.152,138.88s-23.809,31.607-6.776,68.449-29.686,96.036-29.686,96.036" transform="translate(-210.028 -110.469)" fill="none" stroke="#535461" stroke-miterlimit="10" stroke-width="2"/>
      <path id="Path_19465" data-name="Path 19465" d="M432.614,109.322c-1.891,8.134-10.94,12.98-10.94,12.98s-5.975-8.344-4.084-16.478,6.776-13.947,10.94-12.98S434.505,101.188,432.614,109.322Z" transform="translate(-229.815 -92.74)" fill="#8ed16f"/>
      <ellipse id="Ellipse_2022" data-name="Ellipse 2022" cx="4.748" cy="1.781" rx="4.748" ry="1.781" transform="translate(192.177 18.981) rotate(-76.9)" fill="#8ed16f"/>
      <ellipse id="Ellipse_2023" data-name="Ellipse 2023" cx="4.748" cy="1.781" rx="4.748" ry="1.781" transform="translate(192.177 18.981) rotate(-76.9)" opacity="0.3"/>
      <path id="Path_19466" data-name="Path 19466" d="M425.028,168.3c-7.86,2.833-16.848-2.131-16.848-2.131s3.758-9.551,11.624-12.377,15.4-1.847,16.848,2.131S432.888,165.465,425.028,168.3Z" transform="translate(-226.344 -115.576)" fill="#8ed16f"/>
      <ellipse id="Ellipse_2024" data-name="Ellipse 2024" cx="4.75" cy="1.78" rx="4.75" ry="1.78" transform="matrix(0.94, -0.34, 0.34, 0.94, 190.801, 44.719)" fill="#8ed16f"/>
      <ellipse id="Ellipse_2025" data-name="Ellipse 2025" cx="4.75" cy="1.78" rx="4.75" ry="1.78" transform="matrix(0.94, -0.34, 0.34, 0.94, 190.801, 44.719)" opacity="0.3"/>
      <path id="Path_19467" data-name="Path 19467" d="M422.058,215.068c-7.86,2.833-16.848-2.131-16.848-2.131s3.758-9.551,11.624-12.377,15.4-1.847,16.848,2.131S429.918,212.241,422.058,215.068Z" transform="translate(-225.203 -133.546)" fill="#8ed16f"/>
      <ellipse id="Ellipse_2026" data-name="Ellipse 2026" cx="4.75" cy="1.78" rx="4.75" ry="1.78" transform="translate(189.064 73.944) rotate(-19.8)" fill="#8ed16f"/>
      <ellipse id="Ellipse_2027" data-name="Ellipse 2027" cx="4.75" cy="1.78" rx="4.75" ry="1.78" transform="translate(189.064 73.944) rotate(-19.8)" opacity="0.3"/>
      <path id="Path_19468" data-name="Path 19468" d="M436.968,269.938c-7.86,2.833-16.848-2.131-16.848-2.131s3.758-9.551,11.624-12.377,15.4-1.847,16.848,2.131S444.828,267.124,436.968,269.938Z" transform="translate(-230.929 -154.629)" fill="#8ed16f"/>
      <ellipse id="Ellipse_2028" data-name="Ellipse 2028" cx="4.75" cy="1.78" rx="4.75" ry="1.78" transform="translate(198.25 107.746) rotate(-19.8)" fill="#8ed16f"/>
      <ellipse id="Ellipse_2029" data-name="Ellipse 2029" cx="4.75" cy="1.78" rx="4.75" ry="1.78" transform="translate(198.25 107.746) rotate(-19.8)" opacity="0.3"/>
      <path id="Path_19469" data-name="Path 19469" d="M427.268,320.118c-7.86,2.833-16.848-2.131-16.848-2.131s3.758-9.551,11.624-12.377,15.4-1.847,16.848,2.131S435.135,317.291,427.268,320.118Z" transform="translate(-227.204 -173.909)" fill="#8ed16f"/>
      <ellipse id="Ellipse_2030" data-name="Ellipse 2030" cx="4.75" cy="1.78" rx="4.75" ry="1.78" transform="matrix(0.94, -0.34, 0.34, 0.94, 192.291, 138.131)" fill="#8ed16f"/>
      <ellipse id="Ellipse_2031" data-name="Ellipse 2031" cx="4.75" cy="1.78" rx="4.75" ry="1.78" transform="matrix(0.94, -0.34, 0.34, 0.94, 192.291, 138.131)" opacity="0.3"/>
      <path id="Path_19470" data-name="Path 19470" d="M373.969,180.744c5.8,6.01,16.06,5.542,16.06,5.542s.844-10.228-4.959-16.238-12.992-8.485-16.06-5.542S368.167,174.734,373.969,180.744Z" transform="translate(-210.774 -119.839)" fill="#8ed16f"/>
      <ellipse id="Ellipse_2032" data-name="Ellipse 2032" cx="1.781" cy="4.749" rx="1.781" ry="4.749" transform="matrix(0.719, -0.695, 0.695, 0.719, 164.387, 53.178)" fill="#8ed16f"/>
      <ellipse id="Ellipse_2033" data-name="Ellipse 2033" cx="1.781" cy="4.749" rx="1.781" ry="4.749" transform="matrix(0.719, -0.695, 0.695, 0.719, 164.387, 53.178)" opacity="0.3"/>
      <path id="Path_19471" data-name="Path 19471" d="M368.559,335.734c5.8,6.01,16.06,5.542,16.06,5.542s.844-10.228-4.959-16.238-12.992-8.485-16.06-5.542S362.757,329.724,368.559,335.734Z" transform="translate(-208.697 -179.39)" fill="#8ed16f"/>
      <ellipse id="Ellipse_2034" data-name="Ellipse 2034" cx="1.781" cy="4.749" rx="1.781" ry="4.749" transform="matrix(0.719, -0.695, 0.695, 0.719, 161.045, 148.624)" fill="#8ed16f"/>
      <ellipse id="Ellipse_2035" data-name="Ellipse 2035" cx="1.781" cy="4.749" rx="1.781" ry="4.749" transform="matrix(0.719, -0.695, 0.695, 0.719, 161.045, 148.624)" opacity="0.3"/>
      <path id="Path_19472" data-name="Path 19472" d="M378.439,236.093c7.478,3.732,16.984-.148,16.984-.148s-2.618-9.92-10.09-13.652-15.08-3.695-16.984.148S370.961,232.361,378.439,236.093Z" transform="translate(-210.882 -141.455)" fill="#8ed16f"/>
      <ellipse id="Ellipse_2036" data-name="Ellipse 2036" cx="1.78" cy="4.749" rx="1.78" ry="4.749" transform="translate(166.079 86.937) rotate(-63.48)" fill="#8ed16f"/>
      <ellipse id="Ellipse_2037" data-name="Ellipse 2037" cx="1.78" cy="4.749" rx="1.78" ry="4.749" transform="translate(166.079 86.937) rotate(-63.48)" opacity="0.3"/>
      <path id="Path_19473" data-name="Path 19473" d="M383.53,290.663c7.478,3.732,16.984-.148,16.984-.148s-2.618-9.92-10.09-13.652-15.08-3.695-16.984.148S376.083,286.968,383.53,290.663Z" transform="translate(-212.838 -162.423)" fill="#8ed16f"/>
      <ellipse id="Ellipse_2038" data-name="Ellipse 2038" cx="1.78" cy="4.749" rx="1.78" ry="4.749" transform="translate(169.217 120.544) rotate(-63.48)" fill="#8ed16f"/>
      <ellipse id="Ellipse_2039" data-name="Ellipse 2039" cx="1.78" cy="4.749" rx="1.78" ry="4.749" transform="translate(169.217 120.544) rotate(-63.48)" opacity="0.3"/>
      <path id="Path_19474" data-name="Path 19474" d="M210.227,249.21s43.485,43.467,18.936,107.969,42.08,171.763,42.08,171.763-.715-.1-2.039-.339c-89.323-15.758-133.676-117.865-84.025-193.715C203.617,306.686,218.8,273.607,210.227,249.21Z" transform="translate(-132.775 -152.861)" fill="#8ed16f"/>
      <path id="Path_19475" data-name="Path 19475" d="M113,534.381s49.62-7.9,54.142,36.552,95.415,50.616,95.415,50.616-.616.406-1.706,1.133C185.8,671.944,114.06,654.05,124.871,588.661,128.9,564.344,128.567,539.929,113,534.381Z" transform="translate(-113 -262.223)" fill="#8ed16f"/>
      <g id="Group_7890" data-name="Group 7890" transform="translate(0 271.615)" opacity="0.3">
        <path id="Path_19476" data-name="Path 19476" d="M113,534.381s49.62-7.9,54.142,36.552,95.415,50.616,95.415,50.616-.616.406-1.706,1.133C185.8,671.944,114.06,654.05,124.871,588.661,128.9,564.344,128.567,539.929,113,534.381Z" transform="translate(-113 -533.838)" fill="#fff"/>
      </g>
      <ellipse id="Ellipse_2040" data-name="Ellipse 2040" cx="13.645" cy="35.585" rx="13.645" ry="35.585" transform="translate(51.247 200.439)" fill="#8ed16f"/>
      <ellipse id="Ellipse_2041" data-name="Ellipse 2041" cx="13.645" cy="35.585" rx="13.645" ry="35.585" transform="translate(51.247 200.439)" opacity="0.3"/>
      <ellipse id="Ellipse_2042" data-name="Ellipse 2042" cx="9.199" cy="20.468" rx="9.199" ry="20.468" transform="translate(28.193 342.827) rotate(-45)" fill="#8ed16f"/>
      <ellipse id="Ellipse_2043" data-name="Ellipse 2043" cx="9.199" cy="20.468" rx="9.199" ry="20.468" transform="translate(28.193 342.827) rotate(-45)" opacity="0.3"/>
      <path id="Path_19477" data-name="Path 19477" d="M626.38,358.2h-323a14.714,14.714,0,0,0-14.717,14.711V562.155a14.714,14.714,0,0,0,14.717,14.711h323A14.714,14.714,0,0,0,641.1,562.155V372.911A14.714,14.714,0,0,0,626.38,358.2Z" transform="translate(-180.45 -194.738)" fill="url(#linear-gradient)"/>
      <rect id="Rectangle_4204" data-name="Rectangle 4204" width="344.138" height="213.518" rx="24.81" transform="translate(112.356 166.036)" fill="#9f6e65"/>
      <rect id="Rectangle_4205" data-name="Rectangle 4205" width="344.138" height="39.145" transform="translate(112.356 203.401)" fill="#9f6e65"/>
      <rect id="Rectangle_4206" data-name="Rectangle 4206" width="344.138" height="39.145" transform="translate(112.356 203.401)" opacity="0.3"/>
      <rect id="Rectangle_4207" data-name="Rectangle 4207" width="278.871" height="18.978" transform="translate(144.992 271.61)" fill="#d6d6e3"/>
      <ellipse id="Ellipse_2044" data-name="Ellipse 2044" cx="27.296" cy="27.285" rx="27.296" ry="27.285" transform="translate(140.834 310.754)" fill="#9f6e65"/>
      <ellipse id="Ellipse_2045" data-name="Ellipse 2045" cx="27.296" cy="27.285" rx="27.296" ry="27.285" transform="translate(140.834 310.754)" opacity="0.3"/>
      <path id="Path_19478" data-name="Path 19478" d="M822.218,249.476a5.973,5.973,0,0,0,2.63,3.325c5.661,3.738,17.969,2.943,19.448,2.943.314,0,.727.56,1.183,1.5,2.175,4.483,5.544,17.623,5.772,20.579.3,3.578,3.628,20.32,9.074,26.558.166.191.333.369.493.536,5.341,5.363,11.606-.536,11.606-.536l.9-3.122c-.253,1.232-.536,2.666-.819,4.273-.142.807-.283,1.663-.419,2.543a97.424,97.424,0,0,0-1.275,15.006,54.407,54.407,0,0,0,.234,5.468c.049.5.1,1,.173,1.49a52.211,52.211,0,0,1,.406,6.675c-.049,13.251-3.431,29.736-3.431,29.736l.129-.043c-.08.413-.129.616-.129.616l.2-.062q-.142.917-.271,1.878c-1.146,8.313-1.8,18.658-2.119,24.631a49.314,49.314,0,0,0,.419,9.434l6.012,42.31v19.7a34.773,34.773,0,0,0,1.084,8.855c1.959,7.445.345,33.43-.561,45.758-.252,3.362-.45,5.714-.505,6.392v.2l.172-.068v.216a3.486,3.486,0,0,1,.8-.234c-2.384,3.695-6.7,9.8-10.023,10.831a10.517,10.517,0,0,0-5.008,3.319l-.086.117-.123.172a3.694,3.694,0,0,0-.721,1.884,2.085,2.085,0,0,1-.111-.363c-.253,1.373.573,2.629,3.166,3.239a21.334,21.334,0,0,0,4.589.369c8.994,0,24.955-2.765,26.717-5.739V529.615l.29.092v.092l1.1.363,3.025-10.148c3.628-2.685.616-50.733,0-61.774-.554-10.062,5.674-50.087,6.776-57.137l-.148-.179.166-1.028a4.378,4.378,0,0,1,.616.542,8.047,8.047,0,0,1,.943,1.392,18.614,18.614,0,0,1,1.337,2.759c6.086,15.173,8.828,58.56,8.828,62.451v40.8a42.472,42.472,0,0,0,1.663,11.9,51.028,51.028,0,0,1,1.294,6.195c.129.819.24,1.632.345,2.408s.209,1.663.29,2.389a4.979,4.979,0,0,0,.062.548,1.08,1.08,0,0,1,0,.252c.166,1.607.253,2.66.253,2.66a.617.617,0,0,1,.123-.24l.031.388a.831.831,0,0,1,.24-.382,5.828,5.828,0,0,1,.813-.665v5.185l-.148-.111v.893c6.271,4.729,16.479,6.158,24.314,6.1,5.082,0,9.2-.616,10.626-1.33,2.045-1,.924-3.344-.936-5.136-1.441-1.392-3.32-2.463-4.509-2.328-1.984.216-8.766-7.463-12.32-11.669l.4-.179.567-.246v-68.03s.912-26.86,3.628-53.424a94.475,94.475,0,0,0-4.651-39.631l-.086-.252.825.129c.875.135,1.343.216,1.343.216a5.118,5.118,0,0,0-.055-.616h.055s-1.06-11.521-1.072-25.992c0-16.4,1.386-36.4,7.121-47.722,3.3-6.515,4.4-11.7,4.312-15.788a16.51,16.51,0,0,0-2.951-10.1,8.007,8.007,0,0,0-3.394-2.685l-.117-.068h-.062a8.442,8.442,0,0,0-3.117-.616H927.255a8.275,8.275,0,0,1-4.09-1.078l-4.848-2.746c-1.614-3.528-1.848-7.9-1.5-12,0-.326.062-.653.092-.973l.351-.369c.271-.289.524-.616.77-.893a6.89,6.89,0,0,1-.055.727c-.062.388-.166.616-.333.665,2.649-.345,5.606-.868,7.232-2.913.068-.08.129-.166.191-.252a13.2,13.2,0,0,0,1.189-2.463,7.154,7.154,0,0,1,.906-1.65c.407-.53.936-.961,1.374-1.466l.074-.086c1.559-1.847,1.645-4.5,1.663-6.909.031-5.862-.142-12.315-4.066-16.712-3.259-3.658-8.458-5.043-13.392-5.2s-9.856.727-14.784.751c-3.351,0-7.392-.055-9.24,2.716-.906,1.361-1.016,3.14-2,4.446-.567.751-1.435,1.4-1.485,2.334a2.4,2.4,0,0,0,.32,1.232v.043a8.715,8.715,0,0,0,6.382,4.28,15.888,15.888,0,0,0-1.232,1.7A16.177,16.177,0,0,0,888.3,231.7a10.077,10.077,0,0,0,.037,1.059A16.272,16.272,0,0,0,893.5,243.6c-.049.345-.1.69-.154,1.028l.111.1q.524.474,1.09.9l.135.1v.616a10.312,10.312,0,0,1-.037,1.071c-.037.351,0,.567-.037.85l-.08-.068-6.019-5.025-9.678-8.953s-24.2-17.6-25.411-9.237a6.027,6.027,0,0,0,1.152,4.175c4.442,6.773,19.713,12.537,19.713,12.537a129.019,129.019,0,0,1,15.2,20c-.216.117-.431.228-.659.333-5.421,2.518-13.331,1.453-13.331,1.453-9.135,1.422-9.961,11.429-9.912,15.474v.837l-12.123-28.455-.037-.086a5.994,5.994,0,0,0-4.534-3.559C840.784,246.336,820.524,243.5,822.218,249.476Zm50.754,276.481a5.289,5.289,0,0,1,.536-.1l-.055.086Z" transform="translate(-385.288 -136.089)" fill="url(#linear-gradient-2)"/>
      <path id="Path_19479" data-name="Path 19479" d="M994,716.43s11.483,14.427,14.138,14.132,8.834,5.591,5.3,7.389-23.852,2.943-33.881-4.711V721.707Z" transform="translate(-445.743 -332.38)" fill="#aca9c9"/>
      <path id="Path_19480" data-name="Path 19480" d="M898.054,717.86s-6.776,12.069-11.483,13.547-8.834,6.773-2.649,8.245,28.275-1.767,30.333-5.3V718.74Z" transform="translate(-407.821 -332.93)" fill="#aca9c9"/>
      <path id="Path_19481" data-name="Path 19481" d="M894.7,496.4l5.852,41.737v19.4a34.764,34.764,0,0,0,1.06,8.732c1.91,7.346.339,32.974-.548,45.136-.289,3.966-.511,6.5-.511,6.5,3.825-1.767,20.027,3.824,20.027,3.824l1.639-5.573,1.306-4.434c3.536-2.648.616-50.044,0-60.961-.4-7.457,2.926-31.632,5.057-46.121.616-4.095,1.115-7.389,1.417-9.372.191-1.232.3-1.915.3-1.915a6.449,6.449,0,0,1,1.589,1.915,18.425,18.425,0,0,1,1.3,2.722c5.926,14.969,8.624,57.765,8.624,61.577v40.247a42.428,42.428,0,0,0,1.62,11.743,61.546,61.546,0,0,1,1.6,8.479c.419,3.2.616,5.77.616,5.77.3-1.767,18.554-9.717,18.554-9.717V548.971s.881-26.478,3.536-52.7a93.98,93.98,0,0,0-3.388-35.456c-.733-2.506-1.466-4.631-2.1-6.312-1.078-2.863-1.848-4.446-1.848-4.446H900.241c-1.01.191-1.848,2.223-2.606,5.308-.493,2.069-.924,4.606-1.3,7.389-1.115,8.2-1.756,18.4-2.064,24.3A49.17,49.17,0,0,0,894.7,496.4Z" transform="translate(-412.971 -230.033)" fill="#618fd8"/>
      <g id="Group_7891" data-name="Group 7891" transform="translate(487.726 220.211)" opacity="0.1">
        <path id="Path_19482" data-name="Path 19482" d="M995.2,616.4V549.277s.881-26.478,3.536-52.7a91.77,91.77,0,0,0-7.392-46.22h1.177a92.3,92.3,0,0,1,7.392,46.22c-2.618,26.2-3.536,52.7-3.536,52.7V616.4s-18.259,7.95-18.555,9.717a8.814,8.814,0,0,0-.092-1.071C981.709,622.277,995.2,616.4,995.2,616.4Z" transform="translate(-932.767 -450.36)"/>
        <path id="Path_19483" data-name="Path 19483" d="M906.36,722.33a4.574,4.574,0,0,0-1.62.333v-.3a10.52,10.52,0,0,1,1.62-.037Z" transform="translate(-904.74 -554.853)"/>
        <path id="Path_19484" data-name="Path 19484" d="M938.354,638.983c3.536-2.648.616-50.044,0-60.961s6.776-57.4,6.776-57.4a5.134,5.134,0,0,1,1.016,1.047c-1.084,6.946-7.146,46.435-6.61,56.355.616,10.893,3.536,58.289,0,60.961l-2.945,10.006-1.072-.357Z" transform="translate(-916.559 -477.356)"/>
      </g>
      <path id="Path_19485" data-name="Path 19485" d="M880.136,309.612l-6.16,21.786s-6.481,6.158-11.778,0-8.563-22.667-8.883-26.2-5.008-21.786-6.776-21.786-19.435,1.176-21.5-6.158c-1.651-5.9,18.074-3.079,25.971-1.755a5.852,5.852,0,0,1,4.417,3.51l12.111,28.91S873.951,300.486,880.136,309.612Z" transform="translate(-386.373 -162.252)" fill="#f7c4a7"/>
      <path id="Path_19486" data-name="Path 19486" d="M958.7,249.82s-7.657,21.49,2.064,29.144S926,288.681,926,288.681l6.037-5.739s4.269-16.928,1.324-31.059Z" transform="translate(-425.177 -153.095)" fill="#f7c4a7"/>
      <path id="Path_19487" data-name="Path 19487" d="M936.835,294.672s7.8-1.915,7.8-3.972l6.918,3.972h17.378S981.6,301.735,971,322.936s-5.889,73.277-5.889,73.277-37.694-6.773-68.914,3.535c0,0,4.713-23.258,2.945-36.5s2.945-31.792,2.945-31.792l2.649-11.189s-.148-10.468-11.045-5.154c0,0-1.62-15.16,9.573-16.928,0,0,12.936,1.767,16.786-4.711C920.049,293.5,928.593,298.5,936.835,294.672Z" transform="translate(-412.739 -168.802)" opacity="0.1"/>
      <path id="Path_19488" data-name="Path 19488" d="M936.835,293.722s7.8-1.915,7.8-3.972l5.07,2.913a8.011,8.011,0,0,0,3.979,1.059h12.154a8.009,8.009,0,0,1,6.511,3.313c2.791,3.922,5.292,11.657-1.355,24.951-10.6,21.195-5.889,73.277-5.889,73.277s-37.694-6.773-68.914,3.535c0,0,4.713-23.258,2.945-36.5s2.945-31.749,2.945-31.749l2.649-11.189s-.148-10.468-11.045-5.154c0,0-1.577-14.742,9.111-16.848a3.019,3.019,0,0,1,.906-.062c2.285.24,12.936,1.01,16.349-4.76C920.048,292.539,928.593,297.546,936.835,293.722Z" transform="translate(-412.739 -168.437)" fill="#e14b5a"/>
      <path id="Path_19489" data-name="Path 19489" d="M982.511,325.262s-9.425,5.887-24.739,0c0,0-16.786-6.158-22.09-18.251s26.8,2.063,26.8,2.063,6.776,0,8.834-1.472S987.809,318.784,982.511,325.262Z" transform="translate(-428.668 -173.191)" opacity="0.1"/>
      <path id="Path_19490" data-name="Path 19490" d="M959.167,298.92s-9.425,5.887-24.739,0c0,0-16.786-6.158-22.09-18.251S894.67,255.33,894.67,255.33s-21.5-8.245-20.329-16.484,24.739,9.126,24.739,9.126l9.425,8.83,30.628,25.905s6.776,0,8.834-1.472S964.465,292.443,959.167,298.92Z" transform="translate(-405.324 -148.026)" fill="#f7c4a7"/>
      <path id="Path_19491" data-name="Path 19491" d="M937.49,253.313l25.325-2.063a58.087,58.087,0,0,0-2.643,11.989,16.187,16.187,0,0,1-22.669.616,28.761,28.761,0,0,0-.012-10.542Z" transform="translate(-429.589 -153.645)" opacity="0.1"/>
      <ellipse id="Ellipse_2046" data-name="Ellipse 2046" cx="16.195" cy="16.189" rx="16.195" ry="16.189" transform="translate(503.046 81.275)" fill="#f7c4a7"/>
      <path id="Path_19492" data-name="Path 19492" d="M952.855,238.825c-.949-1.564.979-3.6.345-5.314-.585-1.576-2.914-1.847-3.7-3.319-.616-1.188,0-2.648-.246-3.959-.351-1.693-2.175-2.746-3.906-2.833a13.94,13.94,0,0,0-5.045,1.115,19.377,19.377,0,0,1-8.31,1.281,8.714,8.714,0,0,1-6.862-4.354,2.464,2.464,0,0,1-.314-1.195c.049-.924.9-1.558,1.448-2.3.961-1.287,1.072-3.042,1.947-4.384,1.786-2.734,5.71-2.666,8.975-2.679,4.8,0,9.585-.9,14.39-.739s9.856,1.521,13.041,5.129c3.819,4.341,3.992,10.7,3.961,16.484,0,2.383-.1,4.975-1.62,6.817-.443.536-.986.979-1.411,1.527-.924,1.232-1.17,2.808-2.039,4.058-1.54,2.223-4.546,2.765-7.226,3.122.789-.1.135-5.382,0-5.868C955.769,238.991,955.208,239.04,952.855,238.825Z" transform="translate(-424.724 -137.845)" opacity="0.1"/>
      <path id="Path_19493" data-name="Path 19493" d="M952.855,237.874c-.949-1.564.979-3.6.345-5.314-.585-1.576-2.914-1.847-3.7-3.319-.616-1.188,0-2.648-.246-3.959-.351-1.693-2.175-2.746-3.906-2.833a13.94,13.94,0,0,0-5.045,1.115,19.377,19.377,0,0,1-8.31,1.281,8.714,8.714,0,0,1-6.862-4.354,2.464,2.464,0,0,1-.314-1.195c.049-.924.9-1.558,1.448-2.3.961-1.287,1.072-3.042,1.947-4.384,1.786-2.734,5.71-2.666,8.975-2.679,4.8,0,9.585-.9,14.39-.739s9.856,1.521,13.041,5.129c3.819,4.341,3.992,10.7,3.961,16.484,0,2.383-.1,4.975-1.62,6.817-.443.536-.986.979-1.411,1.527-.924,1.232-1.17,2.808-2.039,4.058-1.54,2.223-4.546,2.765-7.226,3.122.789-.1.135-5.382,0-5.868C955.769,238.01,955.208,238.084,952.855,237.874Z" transform="translate(-424.724 -137.48)" fill="#281c1c"/>
      <path id="Path_19494" data-name="Path 19494" d="M1002.21,327.513s-7.953-20.61-14.138-21.195,11.778,0,11.778,0l5.889,10.6Z" transform="translate(-448.514 -174.703)" opacity="0.1"/>
      <path id="Path_19495" data-name="Path 19495" d="M1003.17,327.513s-7.953-20.61-14.138-21.195,11.778,0,11.778,0l5.889,10.6Z" transform="translate(-448.883 -174.703)" fill="#e14b5a"/>
      <path id="Path_19496" data-name="Path 19496" d="M976.65,720.728c.419,3.2.616,5.77.616,5.77.3-1.767,18.554-9.717,18.554-9.717V712a8.136,8.136,0,0,0-1.392.068c-3.542.474-6.825,2.192-9.856,4.027a89.92,89.92,0,0,1-7.922,4.637Z" transform="translate(-444.626 -330.675)" fill="#618fd8"/>
      <path id="Path_19497" data-name="Path 19497" d="M976.65,720.728c.419,3.2.616,5.77.616,5.77.3-1.767,18.554-9.717,18.554-9.717V712a8.136,8.136,0,0,0-1.392.068c-3.542.474-6.825,2.192-9.856,4.027a89.92,89.92,0,0,1-7.922,4.637Z" transform="translate(-444.626 -330.675)" opacity="0.3"/>
      <path id="Path_19498" data-name="Path 19498" d="M904.5,718.342c3.825-1.767,20.027,3.824,20.027,3.824l1.639-5.573c-2.828-.573-5.637-1.287-8.4-2.137a27.937,27.937,0,0,1-3.77-1.392,25.268,25.268,0,0,0-2.513-1.17,13.045,13.045,0,0,0-6.48-.055C904.722,715.8,904.5,718.342,904.5,718.342Z" transform="translate(-416.922 -330.468)" fill="#618fd8"/>
      <path id="Path_19499" data-name="Path 19499" d="M904.5,718.342c3.825-1.767,20.027,3.824,20.027,3.824l1.639-5.573c-2.828-.573-5.637-1.287-8.4-2.137a27.937,27.937,0,0,1-3.77-1.392,25.268,25.268,0,0,0-2.513-1.17,13.045,13.045,0,0,0-6.48-.055C904.722,715.8,904.5,718.342,904.5,718.342Z" transform="translate(-416.922 -330.468)" opacity="0.3"/>
      <path id="Path_19500" data-name="Path 19500" d="M1013.181,746.951a1.761,1.761,0,0,0,1.01-1.17,1.73,1.73,0,0,1-1.01,2.05c-3.536,1.767-23.852,2.943-33.881-4.711v-.881C989.329,749.894,1009.645,748.718,1013.181,746.951Z" transform="translate(-445.644 -342.297)" fill="#fff" opacity="0.4"/>
      <path id="Path_19501" data-name="Path 19501" d="M883.673,748.492c6.16,1.472,28.275-1.767,30.333-5.3v.881c-2.064,3.534-24.148,6.773-30.333,5.3-2.526-.616-3.333-1.847-3.08-3.2C880.79,747.174,881.714,748,883.673,748.492Z" transform="translate(-407.725 -342.663)" fill="#fff" opacity="0.4"/>
      <path id="Path_19502" data-name="Path 19502" d="M928.277,402.958s-6.481-2.063-8.248,0-16.879,6.9-16.879,6.9" transform="translate(-416.403 -211.583)" opacity="0.1"/>
      <rect id="Rectangle_4208" data-name="Rectangle 4208" width="31.509" height="0.665" transform="translate(470.059 110.487) rotate(180)" fill="#8ed16f"/>
      <rect id="Rectangle_4209" data-name="Rectangle 4209" width="31.509" height="0.665" transform="translate(470.059 111.152) rotate(180)" fill="#8ed16f"/>
      <rect id="Rectangle_4210" data-name="Rectangle 4210" width="31.509" height="0.665" transform="translate(470.059 111.152) rotate(180)" opacity="0.1"/>
      <rect id="Rectangle_4211" data-name="Rectangle 4211" width="31.509" height="0.665" transform="translate(470.059 111.817) rotate(180)" fill="#8ed16f"/>
      <rect id="Rectangle_4212" data-name="Rectangle 4212" width="31.509" height="0.665" transform="translate(470.059 112.476) rotate(180)" fill="#8ed16f"/>
      <rect id="Rectangle_4213" data-name="Rectangle 4213" width="31.509" height="0.665" transform="translate(470.059 112.476) rotate(180)" opacity="0.1"/>
      <rect id="Rectangle_4214" data-name="Rectangle 4214" width="31.509" height="0.665" transform="translate(470.059 113.141) rotate(180)" fill="#8ed16f"/>
      <rect id="Rectangle_4215" data-name="Rectangle 4215" width="31.509" height="0.665" transform="translate(470.059 113.8) rotate(180)" fill="#8ed16f"/>
      <rect id="Rectangle_4216" data-name="Rectangle 4216" width="31.509" height="0.665" transform="translate(470.059 113.8) rotate(180)" opacity="0.1"/>
      <rect id="Rectangle_4217" data-name="Rectangle 4217" width="31.509" height="0.665" transform="translate(470.059 114.465) rotate(180)" fill="#8ed16f"/>
      <rect id="Rectangle_4218" data-name="Rectangle 4218" width="31.509" height="0.665" transform="translate(470.059 115.124) rotate(180)" fill="#8ed16f"/>
      <rect id="Rectangle_4219" data-name="Rectangle 4219" width="31.509" height="0.665" transform="translate(470.059 115.124) rotate(180)" opacity="0.1"/>
      <rect id="Rectangle_4220" data-name="Rectangle 4220" width="31.509" height="0.665" transform="translate(470.059 105.192) rotate(180)" fill="#8ed16f"/>
      <rect id="Rectangle_4221" data-name="Rectangle 4221" width="31.504" height="0.659" transform="matrix(-0.769, -0.639, 0.639, -0.769, 485.064, 109.587)" fill="#8ed16f"/>
      <rect id="Rectangle_4222" data-name="Rectangle 4222" width="31.504" height="0.659" transform="matrix(-0.769, -0.639, 0.639, -0.769, 462.977, 98.991)" fill="#8ed16f"/>
      <rect id="Rectangle_4223" data-name="Rectangle 4223" width="31.509" height="0.665" transform="translate(470.059 105.851) rotate(180)" fill="#8ed16f"/>
      <rect id="Rectangle_4224" data-name="Rectangle 4224" width="31.509" height="0.665" transform="translate(470.059 105.851) rotate(180)" opacity="0.1"/>
      <rect id="Rectangle_4225" data-name="Rectangle 4225" width="31.509" height="0.665" transform="translate(470.059 106.522) rotate(180)" fill="#8ed16f"/>
      <rect id="Rectangle_4226" data-name="Rectangle 4226" width="31.509" height="0.665" transform="translate(470.059 107.181) rotate(180)" fill="#8ed16f"/>
      <rect id="Rectangle_4227" data-name="Rectangle 4227" width="31.509" height="0.665" transform="translate(470.059 107.181) rotate(180)" opacity="0.1"/>
      <rect id="Rectangle_4228" data-name="Rectangle 4228" width="31.509" height="0.665" transform="translate(470.059 107.84) rotate(180)" fill="#8ed16f"/>
      <rect id="Rectangle_4229" data-name="Rectangle 4229" width="31.509" height="0.665" transform="translate(470.059 108.505) rotate(180)" fill="#8ed16f"/>
      <rect id="Rectangle_4230" data-name="Rectangle 4230" width="31.509" height="0.665" transform="translate(470.059 108.505) rotate(180)" opacity="0.1"/>
      <rect id="Rectangle_4231" data-name="Rectangle 4231" width="31.509" height="0.665" transform="translate(470.059 109.163) rotate(180)" fill="#8ed16f"/>
      <rect id="Rectangle_4232" data-name="Rectangle 4232" width="31.509" height="0.665" transform="translate(470.059 109.829) rotate(180)" fill="#8ed16f"/>
      <rect id="Rectangle_4233" data-name="Rectangle 4233" width="31.509" height="0.665" transform="translate(470.059 109.829) rotate(180)" opacity="0.1"/>
      <rect id="Rectangle_4234" data-name="Rectangle 4234" width="11.481" height="22.37" transform="translate(445.846 137.745) rotate(-169.48)" fill="#8ed16f"/>
      <ellipse id="Ellipse_2047" data-name="Ellipse 2047" cx="4.711" cy="2.353" rx="4.711" ry="2.353" transform="translate(439.227 129.973) rotate(-79.48)" fill="#8ed16f"/>
      <ellipse id="Ellipse_2048" data-name="Ellipse 2048" cx="4.711" cy="2.353" rx="4.711" ry="2.353" transform="translate(439.227 129.973) rotate(-79.48)" opacity="0.1"/>
      <rect id="Rectangle_4235" data-name="Rectangle 4235" width="11.481" height="22.37" transform="translate(447.777 184.17) rotate(-169.48)" fill="#8ed16f"/>
      <ellipse id="Ellipse_2049" data-name="Ellipse 2049" cx="4.711" cy="2.353" rx="4.711" ry="2.353" transform="translate(441.153 176.393) rotate(-79.48)" fill="#8ed16f"/>
      <ellipse id="Ellipse_2050" data-name="Ellipse 2050" cx="4.711" cy="2.353" rx="4.711" ry="2.353" transform="translate(441.153 176.393) rotate(-79.48)" opacity="0.1"/>
      <rect id="Rectangle_4236" data-name="Rectangle 4236" width="11.483" height="22.38" transform="matrix(0.476, -0.879, 0.879, 0.476, 390.188, 78.058)" fill="#8ed16f"/>
      <ellipse id="Ellipse_2051" data-name="Ellipse 2051" cx="2.359" cy="4.724" rx="2.359" ry="4.724" transform="translate(399.403 78.575) rotate(-61.39)" fill="#8ed16f"/>
      <ellipse id="Ellipse_2052" data-name="Ellipse 2052" cx="2.359" cy="4.724" rx="2.359" ry="4.724" transform="translate(399.403 78.575) rotate(-61.39)" opacity="0.1"/>
      <rect id="Rectangle_4237" data-name="Rectangle 4237" width="11.483" height="22.38" transform="matrix(0.476, -0.879, 0.879, 0.476, 346.969, 277.274)" fill="#8ed16f"/>
      <ellipse id="Ellipse_2053" data-name="Ellipse 2053" cx="2.353" cy="4.713" rx="2.353" ry="4.713" transform="matrix(0.476, -0.879, 0.879, 0.476, 354.215, 277.512)" fill="#8ed16f"/>
      <ellipse id="Ellipse_2054" data-name="Ellipse 2054" cx="2.353" cy="4.713" rx="2.353" ry="4.713" transform="matrix(0.476, -0.879, 0.879, 0.476, 354.215, 277.512)" opacity="0.1"/>
      <rect id="Rectangle_4238" data-name="Rectangle 4238" width="11.483" height="22.38" transform="matrix(0.476, -0.879, 0.879, 0.476, 320.527, 112.874)" fill="#8ed16f"/>
      <ellipse id="Ellipse_2055" data-name="Ellipse 2055" cx="2.353" cy="4.713" rx="2.353" ry="4.713" transform="matrix(0.476, -0.879, 0.879, 0.476, 327.768, 113.103)" fill="#8ed16f"/>
      <ellipse id="Ellipse_2056" data-name="Ellipse 2056" cx="2.353" cy="4.713" rx="2.353" ry="4.713" transform="matrix(0.476, -0.879, 0.879, 0.476, 327.768, 113.103)" opacity="0.1"/>
      <rect id="Rectangle_4239" data-name="Rectangle 4239" width="11.483" height="22.38" transform="matrix(0.476, -0.879, 0.879, 0.476, 353.669, 78.056)" fill="#8ed16f"/>
      <ellipse id="Ellipse_2057" data-name="Ellipse 2057" cx="2.353" cy="4.713" rx="2.353" ry="4.713" transform="matrix(0.476, -0.879, 0.879, 0.476, 360.909, 78.284)" fill="#8ed16f"/>
      <ellipse id="Ellipse_2058" data-name="Ellipse 2058" cx="2.353" cy="4.713" rx="2.353" ry="4.713" transform="matrix(0.476, -0.879, 0.879, 0.476, 360.909, 78.284)" opacity="0.1"/>
      <rect id="Rectangle_4240" data-name="Rectangle 4240" width="11.483" height="22.372" transform="matrix(0.994, -0.109, 0.109, 0.994, 380.81, 110.294)" fill="#8ed16f"/>
      <ellipse id="Ellipse_2059" data-name="Ellipse 2059" cx="2.353" cy="4.711" rx="2.353" ry="4.711" transform="matrix(0.994, -0.109, 0.109, 0.994, 384.731, 116.381)" fill="#8ed16f"/>
      <ellipse id="Ellipse_2060" data-name="Ellipse 2060" cx="2.353" cy="4.711" rx="2.353" ry="4.711" transform="matrix(0.994, -0.109, 0.109, 0.994, 384.731, 116.381)" opacity="0.1"/>
      <rect id="Rectangle_4241" data-name="Rectangle 4241" width="11.483" height="22.372" transform="matrix(0.994, -0.109, 0.109, 0.994, 459.069, 232.068)" fill="#8ed16f"/>
      <ellipse id="Ellipse_2061" data-name="Ellipse 2061" cx="2.353" cy="4.711" rx="2.353" ry="4.711" transform="matrix(0.994, -0.109, 0.109, 0.994, 462.996, 238.156)" fill="#8ed16f"/>
      <ellipse id="Ellipse_2062" data-name="Ellipse 2062" cx="2.353" cy="4.711" rx="2.353" ry="4.711" transform="matrix(0.994, -0.109, 0.109, 0.994, 462.996, 238.156)" opacity="0.1"/>
      <rect id="Rectangle_4242" data-name="Rectangle 4242" width="11.483" height="22.38" transform="matrix(0.476, -0.879, 0.879, 0.476, 342.06, 166.38)" fill="#8ed16f"/>
      <ellipse id="Ellipse_2063" data-name="Ellipse 2063" cx="2.353" cy="4.713" rx="2.353" ry="4.713" transform="matrix(0.476, -0.879, 0.879, 0.476, 349.297, 166.617)" fill="#8ed16f"/>
      <ellipse id="Ellipse_2064" data-name="Ellipse 2064" cx="2.353" cy="4.713" rx="2.353" ry="4.713" transform="matrix(0.476, -0.879, 0.879, 0.476, 349.297, 166.617)" opacity="0.1"/>
      <rect id="Rectangle_4243" data-name="Rectangle 4243" width="11.483" height="22.38" transform="matrix(0.476, -0.879, 0.879, 0.476, 292.392, 152.2)" fill="#8ed16f"/>
      <ellipse id="Ellipse_2065" data-name="Ellipse 2065" cx="2.359" cy="4.724" rx="2.359" ry="4.724" transform="translate(301.253 153.069) rotate(-61.39)" fill="#8ed16f"/>
      <ellipse id="Ellipse_2066" data-name="Ellipse 2066" cx="2.359" cy="4.724" rx="2.359" ry="4.724" transform="translate(301.253 153.069) rotate(-61.39)" opacity="0.1"/>
      <rect id="Rectangle_4244" data-name="Rectangle 4244" width="11.483" height="22.38" transform="matrix(0.476, -0.879, 0.879, 0.476, 276.484, 390.938)" fill="#8ed16f"/>
      <ellipse id="Ellipse_2067" data-name="Ellipse 2067" cx="2.353" cy="4.713" rx="2.353" ry="4.713" transform="matrix(0.476, -0.879, 0.879, 0.476, 283.723, 391.169)" fill="#8ed16f"/>
      <ellipse id="Ellipse_2068" data-name="Ellipse 2068" cx="2.353" cy="4.713" rx="2.353" ry="4.713" transform="matrix(0.476, -0.879, 0.879, 0.476, 283.723, 391.169)" opacity="0.1"/>
      <rect id="Rectangle_4245" data-name="Rectangle 4245" width="11.48" height="22.38" transform="translate(265.535 396.021) rotate(-79.49)" fill="#8ed16f"/>
      <rect id="Rectangle_4246" data-name="Rectangle 4246" width="11.48" height="22.38" transform="translate(265.535 396.021) rotate(-79.49)" opacity="0.05"/>
      <ellipse id="Ellipse_2069" data-name="Ellipse 2069" cx="2.353" cy="4.713" rx="2.353" ry="4.713" transform="translate(272.499 394.015) rotate(-79.49)" fill="#8ed16f"/>
      <ellipse id="Ellipse_2070" data-name="Ellipse 2070" cx="2.353" cy="4.713" rx="2.353" ry="4.713" transform="translate(272.499 394.015) rotate(-79.49)" opacity="0.1"/>
      <rect id="Rectangle_4247" data-name="Rectangle 4247" width="11.48" height="22.38" transform="translate(267.596 402.789) rotate(-79.49)" fill="#8ed16f"/>
      <ellipse id="Ellipse_2071" data-name="Ellipse 2071" cx="2.353" cy="4.713" rx="2.353" ry="4.713" transform="translate(274.555 400.783) rotate(-79.49)" fill="#8ed16f"/>
      <ellipse id="Ellipse_2072" data-name="Ellipse 2072" cx="2.353" cy="4.713" rx="2.353" ry="4.713" transform="translate(274.555 400.783) rotate(-79.49)" opacity="0.1"/>
      <rect id="Rectangle_4248" data-name="Rectangle 4248" width="11.483" height="22.38" transform="matrix(0.476, -0.879, 0.879, 0.476, 299.701, 419.952)" fill="#8ed16f"/>
      <ellipse id="Ellipse_2073" data-name="Ellipse 2073" cx="2.353" cy="4.713" rx="2.353" ry="4.713" transform="matrix(0.476, -0.879, 0.879, 0.476, 306.946, 420.183)" fill="#8ed16f"/>
      <ellipse id="Ellipse_2074" data-name="Ellipse 2074" cx="2.353" cy="4.713" rx="2.353" ry="4.713" transform="matrix(0.476, -0.879, 0.879, 0.476, 306.946, 420.183)" opacity="0.1"/>
      <rect id="Rectangle_4249" data-name="Rectangle 4249" width="11.48" height="22.38" transform="translate(288.756 425.028) rotate(-79.49)" fill="#8ed16f"/>
      <rect id="Rectangle_4250" data-name="Rectangle 4250" width="11.48" height="22.38" transform="translate(288.756 425.028) rotate(-79.49)" opacity="0.05"/>
      <ellipse id="Ellipse_2075" data-name="Ellipse 2075" cx="2.353" cy="4.713" rx="2.353" ry="4.713" transform="translate(295.715 423.022) rotate(-79.49)" fill="#8ed16f"/>
      <ellipse id="Ellipse_2076" data-name="Ellipse 2076" cx="2.353" cy="4.713" rx="2.353" ry="4.713" transform="translate(295.715 423.022) rotate(-79.49)" opacity="0.1"/>
      <rect id="Rectangle_4251" data-name="Rectangle 4251" width="11.48" height="22.38" transform="translate(290.817 431.803) rotate(-79.49)" fill="#8ed16f"/>
      <ellipse id="Ellipse_2077" data-name="Ellipse 2077" cx="2.353" cy="4.713" rx="2.353" ry="4.713" transform="translate(297.781 429.797) rotate(-79.49)" fill="#8ed16f"/>
      <ellipse id="Ellipse_2078" data-name="Ellipse 2078" cx="2.353" cy="4.713" rx="2.353" ry="4.713" transform="translate(297.781 429.797) rotate(-79.49)" opacity="0.1"/>
      <rect id="Rectangle_4252" data-name="Rectangle 4252" width="11.483" height="22.38" transform="matrix(0.476, -0.879, 0.879, 0.476, 334.535, 401.254)" fill="#8ed16f"/>
      <ellipse id="Ellipse_2079" data-name="Ellipse 2079" cx="2.353" cy="4.713" rx="2.353" ry="4.713" transform="matrix(0.476, -0.879, 0.879, 0.476, 341.769, 401.483)" fill="#8ed16f"/>
      <ellipse id="Ellipse_2080" data-name="Ellipse 2080" cx="2.353" cy="4.713" rx="2.353" ry="4.713" transform="matrix(0.476, -0.879, 0.879, 0.476, 341.769, 401.483)" opacity="0.1"/>
      <rect id="Rectangle_4253" data-name="Rectangle 4253" width="11.48" height="22.38" transform="translate(323.588 406.333) rotate(-79.49)" fill="#8ed16f"/>
      <rect id="Rectangle_4254" data-name="Rectangle 4254" width="11.48" height="22.38" transform="translate(323.588 406.333) rotate(-79.49)" opacity="0.05"/>
      <ellipse id="Ellipse_2081" data-name="Ellipse 2081" cx="2.353" cy="4.713" rx="2.353" ry="4.713" transform="translate(330.546 404.328) rotate(-79.49)" fill="#8ed16f"/>
      <ellipse id="Ellipse_2082" data-name="Ellipse 2082" cx="2.353" cy="4.713" rx="2.353" ry="4.713" transform="translate(330.546 404.328) rotate(-79.49)" opacity="0.1"/>
      <rect id="Rectangle_4255" data-name="Rectangle 4255" width="11.48" height="22.38" transform="translate(325.648 413.107) rotate(-79.49)" fill="#8ed16f"/>
      <ellipse id="Ellipse_2083" data-name="Ellipse 2083" cx="2.353" cy="4.713" rx="2.353" ry="4.713" transform="translate(332.613 411.103) rotate(-79.49)" fill="#8ed16f"/>
      <ellipse id="Ellipse_2084" data-name="Ellipse 2084" cx="2.353" cy="4.713" rx="2.353" ry="4.713" transform="translate(332.613 411.103) rotate(-79.49)" opacity="0.1"/>
    </g>
  </g>
</svg>
 