<svg width="105" height="48" viewBox="0 0 105 48" fill="none" xmlns="http://www.w3.org/2000/svg">
<rect width="105" height="48" rx="6" fill="#F8285A"/>
<path fill-rule="evenodd" clip-rule="evenodd" d="M32.1938 19.0839C32.5466 18.7311 32.5466 18.1591 32.1938 17.8063C31.841 17.4535 31.269 17.4535 30.9162 17.8063L26.0001 22.7224L21.084 17.8063C20.7312 17.4535 20.1592 17.4535 19.8064 17.8063C19.4535 18.1591 19.4535 18.7311 19.8064 19.0839L24.7225 24L19.8064 28.9161C19.4535 29.2689 19.4535 29.8409 19.8064 30.1937C20.1592 30.5465 20.7312 30.5465 21.084 30.1937L26.0001 25.2776L30.9162 30.1937C31.269 30.5465 31.841 30.5465 32.1938 30.1937C32.5466 29.8409 32.5466 29.2689 32.1938 28.9161L27.2777 24L32.1938 19.0839Z" fill="white"/>
<path d="M43.246 29V19.2H46.55C47.2033 19.2 47.7773 19.3307 48.272 19.592C48.776 19.844 49.168 20.1987 49.448 20.656C49.7373 21.104 49.882 21.6267 49.882 22.224C49.882 22.812 49.728 23.3347 49.42 23.792C49.1213 24.2493 48.7107 24.6087 48.188 24.87C47.6653 25.122 47.0773 25.248 46.424 25.248H44.618V29H43.246ZM48.72 29L46.396 24.996L47.488 24.268L50.274 29H48.72ZM44.618 23.988H46.676C47.012 23.988 47.3107 23.9133 47.572 23.764C47.8427 23.6053 48.0573 23.3953 48.216 23.134C48.384 22.8633 48.468 22.56 48.468 22.224C48.468 21.7013 48.286 21.2767 47.922 20.95C47.558 20.6233 47.0867 20.46 46.508 20.46H44.618V23.988ZM54.85 29.168C54.1687 29.168 53.5667 29.014 53.044 28.706C52.5214 28.3887 52.1107 27.9547 51.812 27.404C51.5134 26.8533 51.364 26.2187 51.364 25.5C51.364 24.7813 51.5134 24.1467 51.812 23.596C52.1107 23.0453 52.5214 22.616 53.044 22.308C53.576 21.9907 54.1827 21.832 54.864 21.832C55.508 21.832 56.0727 21.9953 56.558 22.322C57.0434 22.6393 57.4214 23.0967 57.692 23.694C57.972 24.282 58.112 24.9773 58.112 25.78H52.456L52.708 25.57C52.708 26.0647 52.806 26.494 53.002 26.858C53.198 27.222 53.464 27.502 53.8 27.698C54.136 27.8847 54.5187 27.978 54.948 27.978C55.4147 27.978 55.802 27.8707 56.11 27.656C56.4274 27.432 56.6747 27.152 56.852 26.816L58 27.348C57.8134 27.712 57.5707 28.034 57.272 28.314C56.9734 28.5847 56.6187 28.7947 56.208 28.944C55.8067 29.0933 55.354 29.168 54.85 29.168ZM52.792 24.94L52.526 24.73H56.95L56.698 24.94C56.698 24.5293 56.614 24.1793 56.446 23.89C56.278 23.5913 56.054 23.3673 55.774 23.218C55.494 23.0593 55.1814 22.98 54.836 22.98C54.5 22.98 54.1734 23.0593 53.856 23.218C53.548 23.3673 53.2914 23.5867 53.086 23.876C52.89 24.1653 52.792 24.52 52.792 24.94ZM64.55 29L64.494 27.698V19.2H65.81V29H64.55ZM62.198 29.168C61.5633 29.168 61.008 29.014 60.532 28.706C60.0653 28.398 59.6966 27.9687 59.426 27.418C59.1646 26.8673 59.034 26.228 59.034 25.5C59.034 24.7627 59.1646 24.1233 59.426 23.582C59.6966 23.0313 60.0653 22.602 60.532 22.294C61.008 21.986 61.5633 21.832 62.198 21.832C62.786 21.832 63.2946 21.986 63.724 22.294C64.1626 22.602 64.4986 23.0313 64.732 23.582C64.9653 24.1233 65.082 24.7627 65.082 25.5C65.082 26.228 64.9653 26.8673 64.732 27.418C64.4986 27.9687 64.1626 28.398 63.724 28.706C63.2946 29.014 62.786 29.168 62.198 29.168ZM62.506 27.964C62.898 27.964 63.2433 27.8613 63.542 27.656C63.8406 27.4413 64.074 27.152 64.242 26.788C64.41 26.4147 64.494 25.9853 64.494 25.5C64.494 25.0147 64.41 24.59 64.242 24.226C64.074 23.8527 63.8406 23.5633 63.542 23.358C63.2433 23.1433 62.8933 23.036 62.492 23.036C62.0813 23.036 61.7173 23.1433 61.4 23.358C61.0826 23.5633 60.8353 23.8527 60.658 24.226C60.4806 24.59 60.392 25.0147 60.392 25.5C60.392 25.9853 60.4806 26.4147 60.658 26.788C60.8446 27.152 61.0966 27.4413 61.414 27.656C61.7313 27.8613 62.0953 27.964 62.506 27.964ZM72.7804 29L72.7244 27.698V19.2H74.0404V29H72.7804ZM70.4284 29.168C69.7938 29.168 69.2384 29.014 68.7624 28.706C68.2958 28.398 67.9271 27.9687 67.6564 27.418C67.3951 26.8673 67.2644 26.228 67.2644 25.5C67.2644 24.7627 67.3951 24.1233 67.6564 23.582C67.9271 23.0313 68.2958 22.602 68.7624 22.294C69.2384 21.986 69.7938 21.832 70.4284 21.832C71.0164 21.832 71.5251 21.986 71.9544 22.294C72.3931 22.602 72.7291 23.0313 72.9624 23.582C73.1958 24.1233 73.3124 24.7627 73.3124 25.5C73.3124 26.228 73.1958 26.8673 72.9624 27.418C72.7291 27.9687 72.3931 28.398 71.9544 28.706C71.5251 29.014 71.0164 29.168 70.4284 29.168ZM70.7364 27.964C71.1284 27.964 71.4738 27.8613 71.7724 27.656C72.0711 27.4413 72.3044 27.152 72.4724 26.788C72.6404 26.4147 72.7244 25.9853 72.7244 25.5C72.7244 25.0147 72.6404 24.59 72.4724 24.226C72.3044 23.8527 72.0711 23.5633 71.7724 23.358C71.4738 23.1433 71.1238 23.036 70.7224 23.036C70.3118 23.036 69.9478 23.1433 69.6304 23.358C69.3131 23.5633 69.0658 23.8527 68.8884 24.226C68.7111 24.59 68.6224 25.0147 68.6224 25.5C68.6224 25.9853 68.7111 26.4147 68.8884 26.788C69.0751 27.152 69.3271 27.4413 69.6444 27.656C69.9618 27.8613 70.3258 27.964 70.7364 27.964ZM78.9809 29.168C78.2996 29.168 77.6976 29.014 77.1749 28.706C76.6522 28.3887 76.2416 27.9547 75.9429 27.404C75.6442 26.8533 75.4949 26.2187 75.4949 25.5C75.4949 24.7813 75.6442 24.1467 75.9429 23.596C76.2416 23.0453 76.6522 22.616 77.1749 22.308C77.7069 21.9907 78.3136 21.832 78.9949 21.832C79.6389 21.832 80.2036 21.9953 80.6889 22.322C81.1742 22.6393 81.5522 23.0967 81.8229 23.694C82.1029 24.282 82.2429 24.9773 82.2429 25.78H76.5869L76.8389 25.57C76.8389 26.0647 76.9369 26.494 77.1329 26.858C77.3289 27.222 77.5949 27.502 77.9309 27.698C78.2669 27.8847 78.6496 27.978 79.0789 27.978C79.5456 27.978 79.9329 27.8707 80.2409 27.656C80.5582 27.432 80.8056 27.152 80.9829 26.816L82.1309 27.348C81.9442 27.712 81.7016 28.034 81.4029 28.314C81.1042 28.5847 80.7496 28.7947 80.3389 28.944C79.9376 29.0933 79.4849 29.168 78.9809 29.168ZM76.9229 24.94L76.6569 24.73H81.0809L80.8289 24.94C80.8289 24.5293 80.7449 24.1793 80.5769 23.89C80.4089 23.5913 80.1849 23.3673 79.9049 23.218C79.6249 23.0593 79.3122 22.98 78.9669 22.98C78.6309 22.98 78.3042 23.0593 77.9869 23.218C77.6789 23.3673 77.4222 23.5867 77.2169 23.876C77.0209 24.1653 76.9229 24.52 76.9229 24.94ZM86.2588 29.168C85.5588 29.168 85.0175 28.9907 84.6348 28.636C84.2521 28.272 84.0608 27.754 84.0608 27.082V19.816H85.3908V26.886C85.3908 27.2313 85.4748 27.4973 85.6428 27.684C85.8201 27.8613 86.0721 27.95 86.3988 27.95C86.4921 27.95 86.5948 27.9313 86.7068 27.894C86.8188 27.8567 86.9541 27.782 87.1128 27.67L87.6168 28.706C87.3741 28.8647 87.1408 28.9813 86.9168 29.056C86.7021 29.1307 86.4828 29.168 86.2588 29.168ZM82.8708 23.148V22H87.3788V23.148H82.8708Z" fill="white"/>
</svg>
