<svg width="102" height="48" viewBox="0 0 102 48" fill="none" xmlns="http://www.w3.org/2000/svg">
<rect width="102" height="48" rx="6" fill="#17C653"/>
<path fill-rule="evenodd" clip-rule="evenodd" d="M34.0531 18.9386C34.4268 19.3123 34.4268 19.9182 34.0531 20.2919L25.2812 29.0639C24.9075 29.4376 24.3016 29.4376 23.9279 29.0639L17.947 23.083C17.5733 22.7093 17.5733 22.1034 17.947 21.7297C18.3207 21.356 18.9266 21.356 19.3003 21.7297L24.6045 27.0339L32.6998 18.9386C33.0735 18.5649 33.6794 18.5649 34.0531 18.9386Z" fill="white"/>
<path d="M47.488 29.168C46.536 29.168 45.6913 28.9533 44.954 28.524C44.2167 28.0947 43.638 27.4973 43.218 26.732C42.8073 25.9667 42.602 25.0893 42.602 24.1C42.602 23.1107 42.8073 22.238 43.218 21.482C43.638 20.7167 44.212 20.1193 44.94 19.69C45.668 19.2513 46.508 19.032 47.46 19.032C48.412 19.032 49.252 19.2513 49.98 19.69C50.708 20.1193 51.2773 20.7167 51.688 21.482C52.0987 22.238 52.304 23.1107 52.304 24.1C52.304 25.0893 52.0987 25.9667 51.688 26.732C51.2773 27.4973 50.708 28.0947 49.98 28.524C49.2613 28.9533 48.4307 29.168 47.488 29.168ZM47.488 27.908C48.16 27.908 48.7527 27.7447 49.266 27.418C49.7793 27.0913 50.1807 26.6433 50.47 26.074C50.7593 25.5047 50.904 24.8467 50.904 24.1C50.904 23.3627 50.7547 22.7093 50.456 22.14C50.1667 21.5613 49.7607 21.1087 49.238 20.782C48.7247 20.4553 48.132 20.292 47.46 20.292C46.788 20.292 46.1907 20.4553 45.668 20.782C45.1453 21.1087 44.7347 21.5613 44.436 22.14C44.1467 22.7093 44.002 23.3627 44.002 24.1C44.002 24.8467 44.1513 25.5047 44.45 26.074C44.7487 26.6433 45.1593 27.0913 45.682 27.418C46.214 27.7447 46.816 27.908 47.488 27.908ZM53.8342 29V22H55.0802L55.1642 23.288V29H53.8342ZM58.6782 29V25.416H60.0082V29H58.6782ZM58.6782 25.416C58.6782 24.7813 58.6035 24.3007 58.4542 23.974C58.3142 23.638 58.1135 23.4047 57.8522 23.274C57.6002 23.1433 57.3062 23.0733 56.9702 23.064C56.4008 23.064 55.9575 23.2647 55.6402 23.666C55.3228 24.0673 55.1642 24.632 55.1642 25.36H54.5902C54.5902 24.6227 54.6975 23.9927 54.9122 23.47C55.1362 22.938 55.4488 22.532 55.8502 22.252C56.2608 21.972 56.7462 21.832 57.3062 21.832C57.8568 21.832 58.3328 21.944 58.7342 22.168C59.1448 22.392 59.4575 22.742 59.6722 23.218C59.8962 23.6847 60.0082 24.3007 60.0082 25.066V25.416H58.6782ZM65.9798 29L65.9238 27.782V25.346C65.9238 24.8327 65.8631 24.4033 65.7418 24.058C65.6298 23.7127 65.4525 23.4513 65.2098 23.274C64.9765 23.0967 64.6638 23.008 64.2718 23.008C63.9078 23.008 63.5905 23.0827 63.3198 23.232C63.0585 23.3813 62.8391 23.6147 62.6618 23.932L61.4858 23.484C61.6538 23.1667 61.8638 22.8867 62.1158 22.644C62.3678 22.392 62.6711 22.196 63.0258 22.056C63.3805 21.9067 63.7958 21.832 64.2718 21.832C64.9345 21.832 65.4851 21.9627 65.9238 22.224C66.3625 22.4853 66.6891 22.8633 66.9038 23.358C67.1278 23.8527 67.2351 24.464 67.2258 25.192L67.2118 29H65.9798ZM63.9218 29.168C63.0911 29.168 62.4425 28.9813 61.9758 28.608C61.5185 28.2253 61.2898 27.698 61.2898 27.026C61.2898 26.3073 61.5278 25.7613 62.0038 25.388C62.4891 25.0053 63.1611 24.814 64.0198 24.814H65.9658V25.864H64.3838C63.7398 25.864 63.2871 25.9667 63.0258 26.172C62.7645 26.368 62.6338 26.6433 62.6338 26.998C62.6338 27.3247 62.7551 27.5813 62.9978 27.768C63.2498 27.9453 63.5951 28.034 64.0338 28.034C64.4165 28.034 64.7478 27.9547 65.0278 27.796C65.3078 27.628 65.5271 27.3947 65.6858 27.096C65.8445 26.7973 65.9238 26.4567 65.9238 26.074H66.3858C66.3858 27.026 66.1805 27.782 65.7698 28.342C65.3685 28.8927 64.7525 29.168 63.9218 29.168ZM69.6315 31.968C69.4262 31.968 69.1975 31.9307 68.9455 31.856C68.7028 31.7813 68.4508 31.6833 68.1895 31.562L68.6795 30.47C68.8848 30.5633 69.0622 30.6333 69.2115 30.68C69.3702 30.7267 69.4962 30.75 69.5895 30.75C69.8228 30.75 70.0188 30.6847 70.1775 30.554C70.3455 30.4233 70.4808 30.2413 70.5835 30.008L71.3955 28.09L73.8875 22H75.3155L71.9975 29.868C71.8202 30.2973 71.6335 30.6707 71.4375 30.988C71.2415 31.3053 70.9988 31.548 70.7095 31.716C70.4295 31.884 70.0702 31.968 69.6315 31.968ZM71.0315 29L67.9655 22H69.3795L71.9135 28.076L72.3195 29H71.0315ZM76.3381 29V19.2H77.6681V29H76.3381ZM83.8079 29L83.7519 27.782V25.346C83.7519 24.8327 83.6913 24.4033 83.5699 24.058C83.4579 23.7127 83.2806 23.4513 83.0379 23.274C82.8046 23.0967 82.4919 23.008 82.0999 23.008C81.7359 23.008 81.4186 23.0827 81.1479 23.232C80.8866 23.3813 80.6673 23.6147 80.4899 23.932L79.3139 23.484C79.4819 23.1667 79.6919 22.8867 79.9439 22.644C80.1959 22.392 80.4993 22.196 80.8539 22.056C81.2086 21.9067 81.6239 21.832 82.0999 21.832C82.7626 21.832 83.3133 21.9627 83.7519 22.224C84.1906 22.4853 84.5173 22.8633 84.7319 23.358C84.9559 23.8527 85.0633 24.464 85.0539 25.192L85.0399 29H83.8079ZM81.7499 29.168C80.9193 29.168 80.2706 28.9813 79.8039 28.608C79.3466 28.2253 79.1179 27.698 79.1179 27.026C79.1179 26.3073 79.3559 25.7613 79.8319 25.388C80.3173 25.0053 80.9893 24.814 81.8479 24.814H83.7939V25.864H82.2119C81.5679 25.864 81.1153 25.9667 80.8539 26.172C80.5926 26.368 80.4619 26.6433 80.4619 26.998C80.4619 27.3247 80.5833 27.5813 80.8259 27.768C81.0779 27.9453 81.4233 28.034 81.8619 28.034C82.2446 28.034 82.5759 27.9547 82.8559 27.796C83.1359 27.628 83.3553 27.3947 83.5139 27.096C83.6726 26.7973 83.7519 26.4567 83.7519 26.074H84.2139C84.2139 27.026 84.0086 27.782 83.5979 28.342C83.1966 28.8927 82.5806 29.168 81.7499 29.168Z" fill="white"/>
</svg>
