<svg width="214" height="255" viewBox="0 0 214 255" fill="none" xmlns="http://www.w3.org/2000/svg">
<g clip-path="url(#clip0_1193_23418)">
<path d="M82.8841 209.294C78.626 204.903 72.4554 202.385 65.9544 202.385L65.7036 202.386C61.4216 202.387 57.216 201.252 53.517 199.095L53.1321 198.871L53.4421 198.551C55.1205 196.815 56.522 194.831 57.5974 192.669C56.8336 193.381 55.9226 193.916 54.9289 194.237C53.9352 194.558 52.8831 194.657 51.8471 194.526C50.7532 194.396 49.7031 194.02 48.7755 193.426C47.8479 192.831 47.0669 192.035 46.4911 191.096C44.2189 187.41 41.5105 182.179 41.5105 178.195C41.514 174.827 42.2193 171.497 43.5814 168.416C44.9434 165.336 46.9324 162.573 49.4214 160.304C50.9972 158.883 52.2559 157.146 53.1154 155.207C53.9748 153.267 54.4158 151.168 54.4095 149.046L54.4082 148.744C54.4078 145.951 54.7492 143.169 55.4247 140.458L55.4933 140.185L55.7749 140.194C57.591 140.256 59.408 140.104 61.1884 139.741C59.5184 139.536 57.8846 139.102 56.3334 138.45L56.0305 138.327L56.1333 138.017C63.2208 133.629 79.2193 135.901 88.5054 114.658C96.0351 97.4322 122.602 129.949 122.602 148.744C122.602 150.662 120.704 153.197 122.125 154.464C137.486 168.167 126.887 176.966 123.546 185.82C122.753 187.921 124.472 190.227 124.472 192.5C124.472 192.886 124.462 193.284 124.443 193.683L124.413 194.297L123.901 193.957C122.888 193.293 121.948 192.523 121.099 191.659C121.98 193.686 122.395 195.885 122.314 198.093C122.233 200.302 121.658 202.464 120.63 204.421C119.021 207.459 117.463 209.634 116.001 210.885C111.319 214.892 105.283 216.959 99.127 216.663C92.9712 216.367 87.1609 213.731 82.8841 209.294H82.8841Z" fill="#406C80" fill-opacity="0.2"/>
<path d="M108.602 255C108.707 255 108.808 254.962 108.887 254.893C108.966 254.825 109.018 254.73 109.032 254.626C109.051 254.496 110.861 241.44 109.235 224.087C107.733 208.061 102.911 184.978 88.4641 166.02C88.4295 165.975 88.3862 165.936 88.3368 165.908C88.2874 165.879 88.2329 165.86 88.1762 165.852C88.1195 165.845 88.0619 165.848 88.0066 165.863C87.9514 165.877 87.8995 165.903 87.854 165.937C87.8085 165.972 87.7703 166.015 87.7416 166.065C87.7128 166.114 87.6941 166.169 87.6865 166.225C87.6789 166.282 87.6825 166.34 87.6972 166.395C87.7118 166.45 87.7372 166.502 87.7719 166.548C102.094 185.341 106.878 208.255 108.369 224.168C109.985 241.42 108.189 254.375 108.171 254.504C108.162 254.565 108.167 254.628 108.184 254.688C108.202 254.748 108.232 254.803 108.273 254.85C108.314 254.897 108.365 254.935 108.421 254.961C108.478 254.987 108.54 255 108.602 255V255Z" fill="#406C80"/>
<path d="M96.8126 192.761C96.9045 192.761 96.9941 192.732 97.0685 192.678C97.1429 192.624 97.1983 192.548 97.2267 192.46C97.2551 192.373 97.2552 192.279 97.2268 192.192C97.1984 192.104 97.1431 192.028 97.0688 191.974C92.9523 189.188 88.5054 186.924 83.8303 185.236C76.5263 182.562 65.4196 180.138 53.9855 183.777C53.9309 183.794 53.8803 183.822 53.8365 183.858C53.7927 183.895 53.7566 183.94 53.7302 183.991C53.7039 184.042 53.6878 184.097 53.683 184.154C53.6781 184.211 53.6845 184.269 53.7019 184.323C53.7192 184.378 53.7472 184.428 53.7841 184.472C53.821 184.516 53.8662 184.552 53.917 184.578C53.9679 184.604 54.0234 184.62 54.0804 184.625C54.1374 184.63 54.1948 184.623 54.2493 184.606C65.4492 181.042 76.3546 183.426 83.5311 186.053C88.131 187.713 92.5066 189.938 96.5572 192.678C96.6314 192.732 96.7208 192.761 96.8126 192.761Z" fill="#406C80"/>
<path d="M116.726 143.17C116.733 143.078 116.71 142.987 116.662 142.908C116.613 142.83 116.541 142.77 116.456 142.735C116.371 142.7 116.277 142.694 116.188 142.716C116.099 142.738 116.019 142.787 115.959 142.857C112.884 146.762 110.306 151.034 108.284 155.575C105.091 162.667 101.874 173.569 104.68 185.234C104.693 185.289 104.717 185.342 104.751 185.388C104.784 185.434 104.827 185.474 104.876 185.504C104.924 185.533 104.978 185.553 105.035 185.562C105.091 185.571 105.149 185.569 105.205 185.556C105.26 185.542 105.313 185.518 105.359 185.484C105.405 185.451 105.444 185.408 105.474 185.36C105.504 185.311 105.524 185.257 105.533 185.2C105.542 185.144 105.539 185.086 105.526 185.03C102.777 173.604 105.941 162.9 109.078 155.932C111.065 151.464 113.6 147.261 116.625 143.418C116.684 143.348 116.719 143.261 116.726 143.17Z" fill="#406C80"/>
<path d="M200.648 254.539H166.012L165.863 254.269C165.421 253.466 164.993 252.615 164.593 251.741C161.026 244.104 159.518 235.369 158.187 227.662L157.185 221.853C157.064 221.15 157.155 220.426 157.448 219.775C157.74 219.124 158.22 218.574 158.827 218.198C159.433 217.821 160.138 217.633 160.852 217.66C161.565 217.686 162.255 217.924 162.832 218.345C168.095 222.174 173.361 226 178.629 229.823C180.624 231.274 182.902 232.954 185.083 234.769C185.294 233.746 185.514 232.721 185.734 231.71C185.886 231.012 186.243 230.375 186.758 229.881C187.274 229.387 187.926 229.058 188.63 228.936C189.334 228.815 190.058 228.906 190.71 229.198C191.362 229.49 191.912 229.97 192.289 230.577L196.342 237.087C199.297 241.841 201.906 246.526 201.375 251.579C201.377 251.64 201.372 251.702 201.361 251.762C201.254 252.592 201.057 253.408 200.773 254.195L200.648 254.539Z" fill="#406C80" fill-opacity="0.2"/>
<path d="M172.973 106.137C174.113 102.943 175.044 99.34 173.758 97.33L177.76 93.427C177.785 93.4996 177.807 93.573 177.827 93.6471L184.512 118.386L186.295 137.351C186.842 137.851 187.221 138.508 187.382 139.231C187.542 139.955 187.476 140.711 187.192 141.395C186.908 142.08 186.42 142.661 185.795 143.058C185.17 143.456 184.437 143.652 183.696 143.619C182.956 143.586 182.243 143.326 181.656 142.874C181.069 142.422 180.634 141.8 180.413 141.093C180.191 140.385 180.192 139.627 180.417 138.921C180.641 138.214 181.077 137.594 181.667 137.144L177.621 121.461L172.973 106.137Z" fill="#FFB8B8"/>
<path d="M144.779 117.48L169.234 121.586C169.47 122.813 169.915 124.111 170.491 125.791C170.937 127.093 171.462 128.626 172.031 130.534L143.921 136.643L144.779 117.48Z" fill="#FFB8B8"/>
<path d="M139.718 93.9922L141.871 97.33C141.871 97.33 140.079 100.454 140.512 103.632L128.262 113.058L111.416 121.952C111.162 122.648 110.7 123.25 110.093 123.675C109.485 124.099 108.762 124.327 108.021 124.326C107.279 124.325 106.556 124.097 105.95 123.671C105.343 123.245 104.882 122.643 104.63 121.946C104.377 121.249 104.346 120.491 104.539 119.776C104.732 119.06 105.141 118.421 105.71 117.946C106.279 117.471 106.98 117.183 107.719 117.12C108.457 117.058 109.197 117.224 109.838 117.596L122.788 107.866L139.718 93.9922Z" fill="#FFB8B8"/>
<path d="M162.101 80H152.734L148.712 86.8823L146.795 86.7765C145.858 86.7247 144.92 86.8647 144.038 87.1877C143.157 87.5108 142.351 88.0102 141.669 88.6554C140.987 89.3007 140.444 90.0782 140.072 90.9404C139.701 91.8027 139.51 92.7316 139.51 93.6703V93.6703L141.871 97.3301C141.871 97.3301 137.648 104.69 143.732 108.31C143.732 108.31 142.647 115.132 143.732 115.059C144.817 114.985 147.316 113.597 144.817 114.985C142.317 116.374 142.504 116.56 142.827 116.883L143.15 117.207L169.431 121.619C169.431 121.619 170.199 116.525 170.282 115.616C170.365 114.708 169.81 116.929 170.365 114.708C170.92 112.486 171.754 113.319 170.92 112.486C170.087 111.653 176.318 101.333 173.758 97.3301L177.863 93.327C177.863 89.4871 171.695 86.3743 167.855 86.3743H167.363L162.101 80Z" fill="#CC52A3"/>
<path d="M139.534 246.832H135.742L133.939 232.211L139.534 232.211L139.534 246.832Z" fill="#FFB8B8"/>
<path d="M128.091 252.425C128.093 252.85 128.262 253.256 128.562 253.557C128.862 253.857 129.269 254.027 129.694 254.03H136.83L137.051 253.572L138.061 251.489L138.451 253.572L138.538 254.03H141.23L141.191 253.569L140.474 244.962L139.535 244.905L135.478 244.664L134.481 244.604V247.173C133.725 247.978 127.79 251.018 128.091 252.425Z" fill="#335766"/>
<path d="M195.875 236.903L192.686 238.954L183.258 227.633L187.964 224.607L195.875 236.903Z" fill="#FFB8B8"/>
<path d="M189.278 247.797C189.509 248.153 189.872 248.403 190.287 248.494C190.701 248.584 191.135 248.508 191.494 248.28L197.496 244.42L197.434 243.915L197.156 241.617L198.612 243.157L198.932 243.496L201.196 242.039L200.914 241.672L195.653 234.823L194.833 235.282L191.291 237.274L190.42 237.762L191.81 239.924C191.609 241.009 188.263 246.777 189.278 247.797Z" fill="#335766"/>
<path d="M213.559 254.807L96.1716 254.921C96.0544 254.92 95.9423 254.873 95.8596 254.79C95.777 254.707 95.7306 254.595 95.7306 254.478C95.7306 254.361 95.777 254.248 95.8596 254.165C95.9423 254.082 96.0544 254.035 96.1716 254.035L213.559 253.92C213.676 253.921 213.789 253.968 213.871 254.051C213.954 254.134 214 254.246 214 254.363C214 254.481 213.954 254.593 213.871 254.676C213.789 254.759 213.676 254.806 213.559 254.807Z" fill="#406C80" fill-opacity="0.2"/>
<path d="M171.591 128.276C171.591 128.276 153.622 137.78 144.118 131.296C144.118 131.296 142.039 141.364 141.206 142.197C140.373 143.03 139.046 143.393 139.987 144.322C140.929 145.251 141.453 146.506 139.663 148.1C137.874 149.694 136.09 149.188 137.815 150.829C139.54 152.47 132.598 192.732 132.598 192.732C132.598 192.732 133.708 230.174 132.598 231.307C131.487 232.439 130.002 232.693 131.439 234.093C132.875 235.494 132.875 234.407 132.875 236.339V238.27L133.533 240.19H142.549C142.549 240.19 144.725 237.662 142.549 235.467C140.373 233.272 143.211 232.672 143.875 230.612C144.539 228.552 145.65 230.773 144.539 228.552C143.428 226.33 142.894 226.753 142.884 225.292C142.873 223.831 159.257 166.632 159.257 166.632L161.241 198.291L185.111 232.963L192.137 227.694C192.137 227.694 187.022 220.494 188.218 219.504C189.414 218.514 184.692 217.273 186.181 216.156C187.67 215.04 184.086 213.915 185.437 212.434C186.788 210.954 183.576 207.224 181.714 207.224C179.853 207.224 177.241 201.005 177.241 201.005L181.14 151.878L171.591 128.276Z" fill="#335766"/>
<path d="M152.546 59.7914C152.419 59.9583 151.406 59.8685 150.187 59.6906C147.779 59.3389 147.45 59.7568 145.65 61.3946C143.041 63.7671 144.524 78.2375 143.242 81.3729L142.828 81.678C143.65 81.5211 144.456 81.2954 145.24 81.0032C145.682 79.6069 146.126 78.2061 146.573 76.8109C146.995 77.8965 147.26 79.0365 147.36 80.1967C147.981 79.9522 148.597 79.3545 151.188 78.5529C152.493 77.6679 161.931 76.7781 163.145 76.3888C166.224 65.912 161.261 61.6751 152.546 59.7914Z" fill="#335766"/>
<path d="M155.733 75.9469C160.714 75.9469 164.752 71.9091 164.752 66.9282C164.752 61.9473 160.714 57.9094 155.733 57.9094C150.751 57.9094 146.713 61.9473 146.713 66.9282C146.713 71.9091 150.751 75.9469 155.733 75.9469Z" fill="#FFB8B8"/>
<path d="M161.411 58.9967C160.903 58.9217 160.414 58.7502 159.97 58.4914C159.75 58.3585 159.572 58.1665 159.456 57.9372C159.34 57.7078 159.29 57.4505 159.314 57.1945C159.425 56.5537 160.149 56.1711 160.799 56.2101C161.445 56.3032 162.059 56.5518 162.588 56.9343C162.53 56.3151 162.266 55.7333 161.837 55.2825C161.409 54.8316 160.841 54.5379 160.225 54.4485C161.079 54.4025 161.967 54.3619 162.757 54.6903C163.546 55.0187 164.204 55.8318 164.062 56.675C165.389 56.504 166.698 57.4289 167.247 58.6499C167.795 59.8709 167.686 61.3048 167.248 62.5695C167.205 62.7632 167.121 62.9453 167.001 63.1036C166.881 63.2618 166.729 63.3925 166.554 63.4867C166.107 63.6562 165.627 63.3719 165.239 63.0917C163.217 61.6277 161.377 59.928 159.757 58.0287" fill="#335766"/>
<path d="M165.344 76.5166C164.962 76.6966 165.161 77.3662 164.864 77.6661C164.735 77.7931 164.579 77.8899 164.408 77.9494C164.364 77.3904 164.233 76.8417 164.022 76.3222C163.983 76.2278 163.92 76.1223 163.82 76.1306C163.703 76.1445 163.672 76.2972 163.67 76.4111C163.646 76.9758 163.521 77.5317 163.3 78.0521C163.297 78.0577 163.295 78.066 163.292 78.0715C163.206 78.0687 163.117 78.066 163.034 78.0632C162.389 78.0382 160.962 76.3833 160.645 76.9442C161.762 74.9644 163.123 71.9878 163.331 69.7248C163.403 69.251 163.368 68.7671 163.228 68.3087C163.155 68.0806 163.018 67.8783 162.834 67.7257C162.649 67.5731 162.424 67.4767 162.187 67.4479C162.069 67.4425 161.952 67.4632 161.844 67.5083C161.736 67.5535 161.639 67.622 161.56 67.709C161.481 67.796 161.422 67.8994 161.388 68.0117C161.354 68.124 161.345 68.2425 161.362 68.3587L161.201 68.3365C159.707 67.1203 160.995 65.0072 159.257 64.1714C158.668 63.8882 155.064 64.835 154.428 64.6684C154.414 63.9986 154.278 63.337 154.025 62.7164C153.986 62.622 153.922 62.5165 153.822 62.5248C153.706 62.5387 153.675 62.6914 153.672 62.8053C153.649 63.37 153.524 63.9259 153.303 64.4463C152.422 64.3213 151.525 64.3685 150.662 64.5851C149.901 64.785 149.179 65.1294 148.416 65.3126C148.038 65.4283 147.641 65.4658 147.248 65.4228C146.856 65.3798 146.476 65.2573 146.133 65.0627C145.164 64.413 144.994 62.9746 145.477 61.9139C145.827 61.2333 146.3 60.6233 146.872 60.1146C147.308 59.6926 147.76 59.2872 148.213 58.8818C148.618 58.518 149.024 58.1543 149.429 57.7905C149.94 57.3102 150.483 56.8667 151.056 56.4633C151.972 55.8636 152.999 55.4571 154.077 55.269C155.155 55.0809 156.26 55.115 157.324 55.3693C158.602 55.6747 160.309 55.2443 161.479 55.8413C162.089 56.1551 163.442 57.3574 163.978 57.785C165.35 58.8762 164.421 57.9871 165.922 58.618C169.5 60.1224 167.917 75.3053 165.344 76.5166Z" fill="#335766"/>
<path d="M65.4753 142.343C96.3684 142.343 121.412 117.302 121.412 86.4127C121.412 55.523 96.3684 30.4819 65.4753 30.4819C34.5821 30.4819 9.53833 55.523 9.53833 86.4127C9.53833 117.302 34.5821 142.343 65.4753 142.343Z" fill="#17996E"/>
<path d="M65.4753 142.902C34.3237 142.902 8.97998 117.561 8.97998 86.4126C8.97998 55.2645 34.3237 29.9236 65.4753 29.9236C96.6268 29.9236 121.971 55.2645 121.971 86.4126C121.971 117.561 96.6268 142.902 65.4753 142.902ZM65.4753 31.0402C34.9395 31.0402 10.0967 55.8802 10.0967 86.4126C10.0967 116.945 34.9395 141.785 65.4753 141.785C96.0111 141.785 120.854 116.945 120.854 86.4126C120.854 55.8802 96.011 31.0402 65.4753 31.0402Z" fill="#17996E"/>
<path d="M57.8442 115.522C56.8782 115.522 55.9255 115.297 55.0616 114.865C54.1977 114.433 53.4463 113.806 52.8669 113.033L37.6065 92.6875C37.1162 92.0339 36.7596 91.2901 36.5568 90.4987C36.354 89.7072 36.3092 88.8836 36.4247 88.0748C36.5403 87.266 36.8141 86.4879 37.2304 85.7849C37.6468 85.0819 38.1975 84.4678 38.8512 83.9776C39.5049 83.4874 40.2487 83.1308 41.0403 82.9281C41.8318 82.7253 42.6555 82.6804 43.4644 82.796C44.2733 82.9116 45.0515 83.1853 45.7545 83.6016C46.4576 84.0179 47.0718 84.5686 47.562 85.2222L57.5459 98.5316L83.1883 60.0728C84.1042 58.7009 85.5274 57.7489 87.145 57.4259C88.7627 57.1029 90.4424 57.4354 91.815 58.3504C93.1875 59.2653 94.1405 60.6878 94.4646 62.3051C94.7886 63.9223 94.457 65.6021 93.5429 66.975L63.022 112.751C62.4699 113.579 61.7273 114.263 60.8565 114.744C59.9857 115.226 59.0121 115.492 58.0174 115.52C57.9596 115.521 57.9019 115.522 57.8442 115.522Z" fill="white"/>
<path d="M123.107 33.9763C123.262 32.9069 122.142 31.8586 120.605 31.635C119.067 31.4113 117.695 32.097 117.539 33.1664C117.384 34.2358 118.504 35.2841 120.041 35.5077C121.579 35.7314 122.951 35.0457 123.107 33.9763Z" fill="#F2F6F7"/>
<path d="M141.41 32.1904C141.565 31.121 140.445 30.0728 138.908 29.8491C137.371 29.6255 135.998 30.3111 135.843 31.3805C135.687 32.45 136.807 33.4982 138.344 33.7218C139.882 33.9455 141.254 33.2599 141.41 32.1904Z" fill="#406C80"/>
<path d="M118.094 19.1599C118.25 18.0904 117.13 17.0422 115.593 16.8186C114.055 16.5949 112.683 17.2805 112.527 18.35C112.372 19.4194 113.492 20.4677 115.029 20.6913C116.566 20.915 117.939 20.2293 118.094 19.1599Z" fill="#D95757"/>
<path d="M110.141 13.0909C110.149 12.1091 109.601 11.309 108.918 11.3038C108.235 11.2987 107.675 12.0904 107.668 13.0722C107.66 14.054 108.208 14.854 108.891 14.8592C109.574 14.8644 110.134 14.0727 110.141 13.0909Z" fill="#F2F6F7"/>
<path d="M107.444 1.78667C107.451 0.804886 106.904 0.00480239 106.221 -0.000361592C105.538 -0.00552558 104.978 0.786186 104.971 1.76797C104.963 2.74976 105.511 3.54984 106.194 3.555C106.877 3.56017 107.437 2.76846 107.444 1.78667Z" fill="#406C80"/>
<path d="M128.418 21.6812C128.425 20.6994 127.878 19.8993 127.195 19.8942C126.512 19.889 125.952 20.6807 125.944 21.6625C125.937 22.6443 126.485 23.4444 127.168 23.4495C127.851 23.4547 128.41 22.663 128.418 21.6812Z" fill="#F2F6F7"/>
<path d="M119.573 26.097C119.58 25.1152 119.033 24.3151 118.35 24.31C117.667 24.3048 117.107 25.0965 117.1 26.0783C117.092 27.0601 117.64 27.8601 118.323 27.8653C119.006 27.8705 119.565 27.0788 119.573 26.097Z" fill="#D95757"/>
<path d="M131.885 34.2584C131.893 33.2766 131.345 32.4765 130.662 32.4713C129.979 32.4662 129.419 33.2579 129.412 34.2397C129.405 35.2215 129.952 36.0215 130.635 36.0267C131.318 36.0318 131.878 35.2402 131.885 34.2584Z" fill="#406C80"/>
<path d="M18.1358 166.478C18.2914 165.409 17.1713 164.36 15.634 164.137C14.0966 163.913 12.7243 164.599 12.5686 165.668C12.413 166.738 13.5331 167.786 15.0704 168.009C16.6077 168.233 17.9802 167.547 18.1358 166.478Z" fill="#F2F6F7"/>
<path d="M36.4393 164.692C36.5949 163.623 35.4749 162.574 33.9375 162.351C32.4002 162.127 31.0278 162.813 30.8722 163.882C30.7166 164.952 31.8367 166 33.374 166.224C34.9113 166.447 36.2837 165.762 36.4393 164.692Z" fill="#406C80"/>
<path d="M13.1238 151.662C13.2794 150.592 12.1593 149.544 10.622 149.32C9.08469 149.097 7.71229 149.782 7.55667 150.852C7.40105 151.921 8.52115 152.969 10.0585 153.193C11.5958 153.417 12.9682 152.731 13.1238 151.662Z" fill="#D95757"/>
<path d="M5.17058 145.593C5.17801 144.611 4.63036 143.811 3.94738 143.805C3.2644 143.8 2.70471 144.592 2.69728 145.574C2.68986 146.556 3.23751 147.356 3.92049 147.361C4.60348 147.366 5.16316 146.574 5.17058 145.593Z" fill="#F2F6F7"/>
<path d="M2.4733 134.288C2.48073 133.307 1.93308 132.507 1.2501 132.501C0.567124 132.496 0.00744108 133.288 1.62042e-05 134.27C-0.00740867 135.251 0.540236 136.052 1.22322 136.057C1.9062 136.062 2.46588 135.27 2.4733 134.288Z" fill="#406C80"/>
<path d="M23.4471 154.183C23.4545 153.201 22.9068 152.401 22.2238 152.396C21.5409 152.391 20.9812 153.182 20.9738 154.164C20.9663 155.146 21.514 155.946 22.197 155.951C22.8799 155.956 23.4396 155.165 23.4471 154.183Z" fill="#F2F6F7"/>
<path d="M14.602 158.599C14.6094 157.617 14.0618 156.817 13.3788 156.812C12.6958 156.807 12.1361 157.598 12.1287 158.58C12.1213 159.562 12.6689 160.362 13.3519 160.367C14.0349 160.372 14.5946 159.58 14.602 158.599Z" fill="#D95757"/>
<path d="M26.9147 166.76C26.9221 165.778 26.3745 164.978 25.6915 164.973C25.0085 164.968 24.4488 165.76 24.4414 166.741C24.434 167.723 24.9816 168.523 25.6646 168.528C26.3476 168.534 26.9073 167.742 26.9147 166.76Z" fill="#406C80"/>
</g>
<defs>
<clipPath id="clip0_1193_23418">
<rect width="214" height="255" fill="white"/>
</clipPath>
</defs>
</svg>
