<svg xmlns="http://www.w3.org/2000/svg" viewBox="0 0 760 235.45"><defs><style>.cls-1,.cls-2{fill:#fff;}.cls-2{fill-opacity:0;}</style></defs><g id="Layer_2" data-name="Layer 2"><g id="Layer_1-2" data-name="Layer 1"><g id="LOGO"><path id="Path_21283" data-name="Path 21283" class="cls-1" d="M87.34,172.52c-11.83,4.57-19.13,6-30.7,6C20.89,178.54,0,159,0,125.56c0-40.22,30.7-68.4,74.5-68.4a77.67,77.67,0,0,1,33.73,7l-7,28.41a47.22,47.22,0,0,0-24.67-7c-22.16,0-37.25,15.18-37.25,37.1,0,16.12,10.56,26.24,28.19,26.24,9.32,0,17.35-2.16,26.17-7.22Z"/><path id="Path_21284" data-name="Path 21284" class="cls-1" d="M152,147.22a24.12,24.12,0,0,0,10.57,1.94c18.63,0,31.22-15.17,31.22-38.3,0-15.66-7.81-24.08-21.91-24.08a17.82,17.82,0,0,0-6.79,1Zm-18.88-86a228.19,228.19,0,0,1,35.5-2.9c40.27,0,62.67,19.27,62.67,53.94,0,39-27.44,65.28-68.21,65.28a93.06,93.06,0,0,1-17.38-1.69l-12.8,55.69-31.14-30Z"/><path id="Path_21285" data-name="Path 21285" class="cls-1" d="M261.16,64.14c17.86-4.8,32.72-7,47.56-7,14.35,0,24.17,2.41,34,8.19,15.1-5.78,26.93-8.19,41-8.19,26.69,0,42.79,11.08,42.79,29.63a75.12,75.12,0,0,1-2,16.14l-16.11,73.2H370.15l16.63-74.65c.24-2.18.49-4.59.49-6.28,0-6.26-4.53-9.63-13.08-9.63a38,38,0,0,0-14.35,2.9v2.65a65.14,65.14,0,0,1-1,9.86L342,176.12H304l16.62-74.41V95.46c0-6.51-4.53-9.89-13.61-9.89a40.36,40.36,0,0,0-13.07,2.18l-19.64,88.38h-38Z"/><g id="Group_8053" data-name="Group 8053"><path id="Path_21286" data-name="Path 21286" class="cls-1" d="M510.84,97.91v13.38h-4.2V97.91l-11.1-20h4.54l8.63,16h.1l8.59-16h4.53Z"/><path id="Path_21287" data-name="Path 21287" class="cls-1" d="M533.63,88.86c-4.58,0-7.52,3.51-7.62,9.14l14.19-1.94c-.05-4.89-2.66-7.2-6.57-7.2M544,98.23l-17.75,2.45c.44,5.31,3.76,8,8.73,8a16.36,16.36,0,0,0,7.09-1.52l1.26,2.9a19.36,19.36,0,0,1-8.54,1.76c-7.77,0-12.45-4.8-12.45-13,0-7.66,4.3-12.93,11.34-12.93,6.41,0,10.37,4,10.37,10.67,0,.5,0,1.06,0,1.66"/><path id="Path_21288" data-name="Path 21288" class="cls-1" d="M561.54,89.33a12.11,12.11,0,0,0-2.32-.19,14.26,14.26,0,0,0-4.93.78v21.37h-4V87.66a25.72,25.72,0,0,1,9.5-1.75,21.87,21.87,0,0,1,2.56.18Z"/><rect id="Rectangle_5454" data-name="Rectangle 5454" class="cls-1" x="567.57" y="75.06" width="4" height="36.23"/><path id="Path_21289" data-name="Path 21289" class="cls-1" d="M579.11,86.41h4v24.88h-4Zm2-5A2.46,2.46,0,0,1,578.53,79a2.56,2.56,0,0,1,5.11,0,2.47,2.47,0,0,1-2.56,2.35"/><path id="Path_21290" data-name="Path 21290" class="cls-1" d="M611.55,121.22h-4.2l3.91-9.92-9.75-24.88h4.39l6.46,18.09a24.19,24.19,0,0,1,.93,3.56h.08a27,27,0,0,1,.93-3.56l6.41-18.09h4.44Z"/><path id="Path_21291" data-name="Path 21291" class="cls-1" d="M639.94,88.86c-4.58,0-7.52,3.51-7.62,9.14l14.18-1.94c0-4.89-2.65-7.2-6.56-7.2m10.37,9.37-17.75,2.45c.43,5.31,3.76,8,8.73,8a16.36,16.36,0,0,0,7.09-1.52l1.25,2.9a19.29,19.29,0,0,1-8.53,1.76c-7.77,0-12.45-4.8-12.45-13,0-7.66,4.3-12.93,11.34-12.93,6.41,0,10.37,4,10.37,10.67,0,.5,0,1.06,0,1.66"/><path id="Path_21292" data-name="Path 21292" class="cls-1" d="M667.83,89.33a12,12,0,0,0-2.32-.19,14.2,14.2,0,0,0-4.92.78v21.37h-4.05V87.66a25.69,25.69,0,0,1,9.5-1.75,22,22,0,0,1,2.56.18Z"/><path id="Path_21293" data-name="Path 21293" class="cls-1" d="M673.86,86.41h4v24.88h-4Zm2-5A2.47,2.47,0,0,1,673.28,79a2.56,2.56,0,0,1,5.11,0,2.47,2.47,0,0,1-2.56,2.35"/><path id="Path_21294" data-name="Path 21294" class="cls-1" d="M701.45,111.3V94.5c0-3.33-2.13-5.45-6.33-5.45a17.12,17.12,0,0,0-5.54.87V111.3h-4.05V87.67a25.55,25.55,0,0,1,9.55-1.76c6.85,0,10.37,3,10.37,8.26V111.3Z"/><path id="Path_21295" data-name="Path 21295" class="cls-1" d="M728.22,89.83a15.22,15.22,0,0,0-4.4-.6c-5.45,0-8.29,4.2-8.29,9.93s2.94,9.5,8.29,9.5a12.48,12.48,0,0,0,4.4-.78Zm-4.34,22c-7.92,0-12.35-4.94-12.35-12.64s4.24-13,12-13a17.22,17.22,0,0,1,4.68.65V75.07h4v35a19.23,19.23,0,0,1-8.34,1.75"/><path id="Path_21296" data-name="Path 21296" class="cls-1" d="M749.58,88.86c-4.58,0-7.52,3.51-7.62,9.14l14.18-1.94c0-4.89-2.65-7.2-6.55-7.2M760,98.23l-17.76,2.45c.44,5.31,3.77,8,8.74,8a16.36,16.36,0,0,0,7.09-1.52l1.25,2.9a19.34,19.34,0,0,1-8.54,1.76c-7.77,0-12.44-4.8-12.44-13,0-7.66,4.29-12.93,11.33-12.93,6.42,0,10.37,4,10.37,10.67,0,.5,0,1.06,0,1.66"/><path id="Path_21297" data-name="Path 21297" class="cls-1" d="M503.55,176.14a34.56,34.56,0,0,1-3.67-.19l1.06-1.89a23.61,23.61,0,0,0,2.51.14c2.75,0,4.68-.56,4.68-1.76,0-1-1-1.38-3-1.38a25.15,25.15,0,0,0-2.6.14l1-1.8q1.23-.14,2.46-.15c4,0,5.36,1.39,5.36,3.19,0,2.45-2.85,3.7-7.77,3.7m4.58-9c-5.54,0-11.14-3.83-11.14-13s5.6-12.92,11.14-12.92A12,12,0,0,1,514.6,143l-1.4,2.82a8.51,8.51,0,0,0-4.63-1.3c-3.71,0-7.43,2.67-7.43,9.64s3.77,9.74,7.43,9.74a8.53,8.53,0,0,0,4.63-1.34l1.4,2.91a11.87,11.87,0,0,1-6.47,1.71"/><path id="Path_21298" data-name="Path 21298" class="cls-1" d="M533.91,137.92a2.13,2.13,0,1,1,2.31-2.12,2.24,2.24,0,0,1-2.31,2.12m-8.88,0a2.13,2.13,0,1,1,.37-4.24,2.11,2.11,0,0,1,1.94,2.12,2.23,2.23,0,0,1-2.31,2.12m4.44,6.51c-4.73,0-7,4-7,9.74s2.31,9.83,7,9.83,7-4.11,7-9.83-2.32-9.74-7-9.74m0,22.76c-7.19,0-11.05-5.59-11.05-13s3.86-12.93,11.05-12.93,11,5.55,11,12.93-3.85,13-11,13"/><path id="Path_21299" data-name="Path 21299" class="cls-1" d="M544.2,166.67l12.54-21.74H545V141.8h17.56L550,163.54h12.88v3.13Z"/><path id="Path_21300" data-name="Path 21300" class="cls-1" d="M582.87,137.92a2.13,2.13,0,1,1,2.31-2.12,2.26,2.26,0,0,1-2.31,2.12m-8.93,0a2.13,2.13,0,1,1,2.32-2.12,2.25,2.25,0,0,1-2.32,2.12m4.73,29.27c-6.47,0-10-2.73-10-8.73V141.8h4.06v16.7c0,3.7,2,5.45,6,5.45a16.88,16.88,0,0,0,5.5-.83V141.8h4v23.63a24.17,24.17,0,0,1-9.5,1.76"/><path id="Path_21301" data-name="Path 21301" class="cls-1" d="M626,166.67V149.55c0-3.23-2.37-5.12-5.65-5.12a7.72,7.72,0,0,0-5.64,2.12v20.12h-4V149c0-2.81-2.46-4.52-6.07-4.52a14.39,14.39,0,0,0-5.16.87v21.37h-4.06V143a24.25,24.25,0,0,1,9-1.75c4,0,6.85,1.29,8.25,2.86a13.11,13.11,0,0,1,8.48-2.86c5.36,0,8.88,3.09,8.88,7.94v17.45Z"/><rect id="Rectangle_5455" data-name="Rectangle 5455" class="cls-1" x="637.37" y="130.44" width="4.01" height="36.23"/><path id="Path_21302" data-name="Path 21302" class="cls-1" d="M659,144.24c-4.58,0-7.52,3.51-7.62,9.14l14.18-1.93c0-4.9-2.65-7.2-6.56-7.2m10.37,9.37-17.75,2.44c.43,5.31,3.77,8,8.73,8a16.36,16.36,0,0,0,7.09-1.52l1.26,2.9a19.36,19.36,0,0,1-8.54,1.76c-7.77,0-12.45-4.8-12.45-13,0-7.66,4.3-12.93,11.34-12.93,6.42,0,10.37,4,10.37,10.67,0,.5,0,1.06-.05,1.66"/><path id="Path_21303" data-name="Path 21303" class="cls-1" d="M687.31,144.71a11.24,11.24,0,0,0-2.32-.18,14,14,0,0,0-4.92.78v21.37H676V143.05a25.52,25.52,0,0,1,9.5-1.75,19.9,19.9,0,0,1,2.56.18Z"/></g><rect id="Rectangle_5478" data-name="Rectangle 5478" class="cls-2" width="756.67" height="235.45"/></g></g></g></svg>