<svg xmlns="http://www.w3.org/2000/svg" viewBox="0 0 440 382"><defs><style>.cls-1,.cls-2{fill:#fff;}.cls-1{fill-opacity:0;}</style></defs><g id="Layer_2" data-name="Layer 2"><g id="Layer_1-2" data-name="Layer 1"><g id="Group_8087" data-name="Group 8087"><rect id="Rectangle_5478" data-name="Rectangle 5478" class="cls-1" width="440" height="382"/><path id="Path_21283" data-name="Path 21283" class="cls-2" d="M90,246.42c-12.19,4.71-19.71,6.21-31.65,6.21C21.53,252.63,0,232.51,0,198c0-41.46,31.66-70.51,76.81-70.51a80.07,80.07,0,0,1,34.79,7.2L104.33,164a48.74,48.74,0,0,0-25.44-7.2c-22.85,0-38.4,15.65-38.4,38.25,0,16.62,10.88,27.05,29.05,27.05,9.62,0,17.9-2.22,27-7.44Z"/><path id="Path_21284" data-name="Path 21284" class="cls-2" d="M156.74,220.34a24.87,24.87,0,0,0,10.9,2c19.21,0,32.18-15.65,32.18-39.48,0-16.15-8-24.83-22.59-24.83a18.47,18.47,0,0,0-7,1Zm-19.46-88.63a234.88,234.88,0,0,1,36.6-3c41.52,0,64.61,19.87,64.61,55.61,0,40.24-28.29,67.3-70.32,67.3a95.45,95.45,0,0,1-17.92-1.73l-13.2,57.41L105,276.37Z"/><path id="Path_21285" data-name="Path 21285" class="cls-2" d="M269.25,134.69c18.42-4.95,33.74-7.2,49-7.2,14.8,0,24.91,2.48,35,8.45,15.57-6,27.77-8.45,42.3-8.45,27.52,0,44.12,11.42,44.12,30.54a76.4,76.4,0,0,1-2.07,16.64l-16.61,75.47H381.62l17.15-77c.25-2.25.5-4.74.5-6.47,0-6.45-4.67-9.93-13.49-9.93a38.91,38.91,0,0,0-14.79,3v2.73a66.8,66.8,0,0,1-1.05,10.17l-17.38,77.47h-39.2l17.15-76.72V167c0-6.71-4.67-10.19-14-10.19A41.81,41.81,0,0,0,303,159l-20.24,91.12h-39.2Z"/><g id="Group_8053" data-name="Group 8053"><path id="Path_21286" data-name="Path 21286" class="cls-2" d="M198.53,306.14v12.64h-4V306.14L184.1,287.23h4.28l8.15,15.12h.09l8.11-15.12H209Z"/><path id="Path_21287" data-name="Path 21287" class="cls-2" d="M220.05,297.6c-4.33,0-7.1,3.31-7.2,8.63l13.39-1.83c-.05-4.62-2.51-6.8-6.2-6.8m9.79,8.84-16.75,2.31c.41,5,3.55,7.54,8.24,7.54a15.3,15.3,0,0,0,6.69-1.44l1.19,2.75a18.39,18.39,0,0,1-8.07,1.65c-7.33,0-11.74-4.53-11.74-12.24,0-7.23,4.05-12.2,10.7-12.2,6,0,9.79,3.79,9.79,10.07,0,.47,0,1,0,1.56"/><path id="Path_21288" data-name="Path 21288" class="cls-2" d="M246.38,298a10.63,10.63,0,0,0-2.18-.17,13.09,13.09,0,0,0-4.65.73v20.18h-3.83v-22.3a24.18,24.18,0,0,1,9-1.66,19.55,19.55,0,0,1,2.42.17Z"/><rect id="Rectangle_5454" data-name="Rectangle 5454" class="cls-2" x="252.09" y="284.58" width="3.78" height="34.2"/><path id="Path_21289" data-name="Path 21289" class="cls-2" d="M263,295.29h3.78v23.48H263Zm1.87-4.75a2.32,2.32,0,0,1-2.41-2.22,2.41,2.41,0,0,1,4.82,0,2.33,2.33,0,0,1-2.41,2.22"/><path id="Path_21290" data-name="Path 21290" class="cls-2" d="M293.59,328.14h-4l3.69-9.36-9.2-23.49h4.15l6.09,17.08a23.07,23.07,0,0,1,.88,3.36h.08a24.38,24.38,0,0,1,.87-3.36l6.06-17.08h4.18Z"/><path id="Path_21291" data-name="Path 21291" class="cls-2" d="M320.4,297.6c-4.33,0-7.1,3.31-7.2,8.63l13.39-1.83c0-4.62-2.5-6.8-6.2-6.8m9.79,8.84-16.75,2.31c.4,5,3.55,7.54,8.24,7.54a15.3,15.3,0,0,0,6.69-1.44l1.18,2.74a18.19,18.19,0,0,1-8.06,1.66c-7.33,0-11.74-4.52-11.74-12.24,0-7.23,4.05-12.2,10.7-12.2,6.06,0,9.79,3.79,9.79,10.07,0,.47,0,1,0,1.57"/><path id="Path_21292" data-name="Path 21292" class="cls-2" d="M346.72,298a10.67,10.67,0,0,0-2.19-.17,13.07,13.07,0,0,0-4.64.73v20.18h-3.83v-22.3a24.15,24.15,0,0,1,9-1.66,19.55,19.55,0,0,1,2.42.17Z"/><path id="Path_21293" data-name="Path 21293" class="cls-2" d="M352.41,295.29h3.78v23.48h-3.78Zm1.87-4.75a2.33,2.33,0,0,1-2.41-2.22,2.41,2.41,0,0,1,4.82,0,2.32,2.32,0,0,1-2.41,2.22"/><path id="Path_21294" data-name="Path 21294" class="cls-2" d="M378.45,318.78V302.92c0-3.14-2-5.14-6-5.14a16.09,16.09,0,0,0-5.24.82v20.18h-3.82V296.47a24.14,24.14,0,0,1,9-1.65c6.47,0,9.79,2.87,9.79,7.8v16.16Z"/><path id="Path_21295" data-name="Path 21295" class="cls-2" d="M403.73,298.52a13.91,13.91,0,0,0-4.15-.57c-5.15,0-7.83,4-7.83,9.37s2.78,9,7.83,9a11.57,11.57,0,0,0,4.15-.74Zm-4.1,20.74c-7.47,0-11.66-4.67-11.66-11.94s4-12.25,11.33-12.25a16.48,16.48,0,0,1,4.42.61v-11.1h3.78v33a18.25,18.25,0,0,1-7.87,1.66"/><path id="Path_21296" data-name="Path 21296" class="cls-2" d="M423.89,297.6c-4.32,0-7.1,3.31-7.2,8.63l13.39-1.83c0-4.62-2.5-6.8-6.19-6.8m9.79,8.84-16.76,2.31c.41,5,3.56,7.54,8.25,7.54a15.3,15.3,0,0,0,6.69-1.44l1.18,2.74a18.19,18.19,0,0,1-8.06,1.66c-7.33,0-11.74-4.53-11.74-12.24,0-7.23,4.05-12.2,10.7-12.2,6.05,0,9.78,3.79,9.78,10.07,0,.47,0,1,0,1.56"/><path id="Path_21297" data-name="Path 21297" class="cls-2" d="M191.64,380a30.65,30.65,0,0,1-3.45-.17l1-1.78a23.36,23.36,0,0,0,2.37.13c2.59,0,4.41-.53,4.41-1.66,0-1-.95-1.3-2.82-1.3q-1.1,0-2.46.12l.91-1.7c.77-.08,1.55-.12,2.32-.13,3.78,0,5.06,1.31,5.06,3,0,2.31-2.69,3.49-7.34,3.49m4.33-8.45c-5.23,0-10.52-3.62-10.52-12.24s5.29-12.2,10.52-12.2a11.36,11.36,0,0,1,6.1,1.61l-1.32,2.66a8,8,0,0,0-4.37-1.22c-3.51,0-7,2.52-7,9.1s3.55,9.2,7,9.2a8.15,8.15,0,0,0,4.37-1.27l1.32,2.74a11.09,11.09,0,0,1-6.1,1.62"/><path id="Path_21298" data-name="Path 21298" class="cls-2" d="M220.31,343.91a2,2,0,1,1,2.18-2,2.11,2.11,0,0,1-2.18,2m-8.39,0a2,2,0,1,1,2.19-2,2.12,2.12,0,0,1-2.19,2m4.19,6.14c-4.46,0-6.64,3.8-6.64,9.2s2.18,9.28,6.64,9.28,6.65-3.88,6.65-9.28-2.18-9.2-6.65-9.2m0,21.49c-6.78,0-10.42-5.28-10.42-12.25s3.64-12.2,10.42-12.2,10.43,5.24,10.43,12.2-3.64,12.25-10.43,12.25"/><path id="Path_21299" data-name="Path 21299" class="cls-2" d="M230,371.05l11.84-20.52h-11.1v-3h16.57l-11.8,20.52h12.16v3Z"/><path id="Path_21300" data-name="Path 21300" class="cls-2" d="M266.52,343.91a2,2,0,1,1,2.19-2,2.13,2.13,0,0,1-2.19,2m-8.43,0a2,2,0,1,1,2.19-2,2.11,2.11,0,0,1-2.19,2m4.47,27.63c-6.1,0-9.47-2.57-9.47-8.24V347.58h3.82v15.76c0,3.49,1.87,5.14,5.65,5.14a15.35,15.35,0,0,0,5.2-.79V347.58h3.77v22.3a22.79,22.79,0,0,1-9,1.66"/><path id="Path_21301" data-name="Path 21301" class="cls-2" d="M307.22,371.05V354.89c0-3.05-2.24-4.83-5.33-4.83a7.33,7.33,0,0,0-5.33,2v19h-3.78V354.32c0-2.65-2.32-4.26-5.73-4.26a13.5,13.5,0,0,0-4.88.82v20.17h-3.83v-22.3a22.61,22.61,0,0,1,8.47-1.65c3.83,0,6.47,1.21,7.79,2.7a12.34,12.34,0,0,1,8-2.7c5.05,0,8.37,2.92,8.37,7.49v16.46Z"/><rect id="Rectangle_5455" data-name="Rectangle 5455" class="cls-2" x="317.97" y="336.85" width="3.78" height="34.2"/><path id="Path_21302" data-name="Path 21302" class="cls-2" d="M338.43,349.88c-4.33,0-7.1,3.31-7.2,8.63l13.39-1.83c0-4.62-2.5-6.8-6.19-6.8m9.79,8.85L331.46,361c.41,5,3.56,7.54,8.24,7.54a15.5,15.5,0,0,0,6.7-1.43l1.18,2.74a18.38,18.38,0,0,1-8.06,1.65c-7.34,0-11.75-4.52-11.75-12.24,0-7.23,4.05-12.2,10.7-12.2,6.06,0,9.79,3.8,9.79,10.07,0,.47,0,1,0,1.57"/><path id="Path_21303" data-name="Path 21303" class="cls-2" d="M365.11,350.32a10.63,10.63,0,0,0-2.18-.17,13.1,13.1,0,0,0-4.65.74v20.16h-3.83v-22.3a24.17,24.17,0,0,1,9-1.65,17.79,17.79,0,0,1,2.42.17Z"/></g></g></g></g></svg>