<svg xmlns="http://www.w3.org/2000/svg" xmlns:xlink="http://www.w3.org/1999/xlink" width="350" height="360" viewBox="0 0 500 388">
	<defs>
		<linearGradient id="linear-gradient" x1="0.5" y1="1" x2="0.5" gradientUnits="objectBoundingBox">
			<stop offset="0" stop-color="gray" stop-opacity="0.251"/>
			<stop offset="0.54" stop-color="gray" stop-opacity="0.122"/>
			<stop offset="1" stop-color="gray" stop-opacity="0.102"/>
		</linearGradient>
		<linearGradient id="linear-gradient-2" x1="0.5" y1="1" x2="0.5" y2="0" xlink:href="#linear-gradient"/>
	</defs>
	<g id="undraw_report_mx0a" transform="translate(0 0.021)">
		<path id="Path_20929" data-name="Path 20929" d="M167.947,31.931c-16.078-.594-32.872-1.011-47.41,5.9s-25.777,23.649-20.9,39.039c1.591,5.017,4.69,9.39,7.3,13.957a80.66,80.66,0,0,1,1.559,75.731c-9.325,17.987-25.129,31.675-36.508,48.433s-17.845,39.985-6.651,56.868C73,283.418,87.226,289.043,101,290.406s27.636-.784,41.475-1.335a178.259,178.259,0,0,1,78.436,14.871c33.992,14.94,63.274,40.5,99.065,50.362,4.3,1.182,8.788,2.138,13.182,1.335,7.794-1.424,13.46-7.883,19.56-12.984,19.477-16.169,46.443-19.188,71.725-19.939s51.614-.172,74.468-11.055c19.954-9.5,35.314-27.177,44.866-47.144s13.7-42.155,15.264-64.25c.925-13.15.893-26.728-3.8-39.039-5.278-13.841-15.981-24.863-27.206-34.5-11.73-10.072-24.514-19.2-39-24.632-17.3-6.492-36.078-7.419-54.5-8.959a746.877,746.877,0,0,1-112.1-18.047c-34.981-8.384-73.39-17.542-105.249-34.62C201.208,31.9,185.972,32.58,167.947,31.931Z" transform="translate(-59.52 -31.65)" fill="#e6a744" opacity="0.1"/>
		<g id="Group_11746" data-name="Group 11746" transform="translate(321.727 211.569)" opacity="0.1">
			<path id="Path_20930" data-name="Path 20930" d="M773.4,585.2s1.637-23,14.551-35.547a34.962,34.962,0,0,0,10.3-19.545,59.2,59.2,0,0,0,.694-10.725" transform="translate(-764.934 -504.8)" fill="#e6a744"/>
			<path id="Path_20931" data-name="Path 20931" d="M835.132,494.565c-.947,2.541-8.279,8.188-8.279,8.188s-1.85-9.083-.893-11.624a4.9,4.9,0,1,1,9.172,3.436Z" transform="translate(-793.036 -487.938)" fill="#e6a744"/>
			<path id="Path_20932" data-name="Path 20932" d="M837.938,528.548c-2.174,1.613-11.388,2.36-11.388,2.36s3.377-8.629,5.551-10.248a4.906,4.906,0,0,1,5.837,7.883Z" transform="translate(-793.5 -505.009)" fill="#e6a744"/>
			<path id="Path_20933" data-name="Path 20933" d="M818.272,579c-2.691.3-11.022-3.709-11.022-3.709s7.262-5.74,9.95-6.028A4.906,4.906,0,0,1,818.272,579Z" transform="translate(-783.127 -531.548)" fill="#e6a744"/>
			<path id="Path_20934" data-name="Path 20934" d="M793.739,614.689c-2.6.746-11.489-1.8-11.489-1.8s6.189-6.886,8.789-7.633a4.91,4.91,0,1,1,2.7,9.437Z" transform="translate(-769.69 -550.729)" fill="#e6a744"/>
			<path id="Path_20935" data-name="Path 20935" d="M804.847,529.1c1.157,2.448,8.937,7.452,8.937,7.452s1.073-9.2-.088-11.658a4.9,4.9,0,0,0-8.849,4.206Z" transform="translate(-781.613 -506.322)" fill="#e6a744"/>
			<path id="Path_20936" data-name="Path 20936" d="M776.287,569.525c1.851,1.989,10.754,4.433,10.754,4.433s-1.725-9.107-3.562-11.1a4.9,4.9,0,1,0-7.192,6.668Z" transform="translate(-765.786 -527.271)" fill="#e6a744"/>
			<path id="Path_20937" data-name="Path 20937" d="M755.815,614.9c1.471,2.272,9.852,6.19,9.852,6.19s-.166-9.274-1.642-11.541a4.9,4.9,0,0,0-8.21,5.351Z" transform="translate(-755.097 -552.022)" fill="#e6a744"/>
			<path id="Path_20938" data-name="Path 20938" d="M835.132,494.565c-.947,2.541-8.279,8.188-8.279,8.188s-1.85-9.083-.893-11.624a4.9,4.9,0,1,1,9.172,3.436Z" transform="translate(-793.036 -487.938)" fill="#e6a744"/>
			<path id="Path_20939" data-name="Path 20939" d="M837.938,528.548c-2.174,1.613-11.388,2.36-11.388,2.36s3.377-8.629,5.551-10.248a4.906,4.906,0,0,1,5.837,7.883Z" transform="translate(-793.5 -505.009)" fill="#e6a744"/>
			<path id="Path_20940" data-name="Path 20940" d="M818.272,579c-2.691.3-11.022-3.709-11.022-3.709s7.262-5.74,9.95-6.028A4.906,4.906,0,0,1,818.272,579Z" transform="translate(-783.127 -531.548)" fill="#e6a744"/>
			<path id="Path_20941" data-name="Path 20941" d="M793.739,614.689c-2.6.746-11.489-1.8-11.489-1.8s6.189-6.886,8.789-7.633a4.91,4.91,0,1,1,2.7,9.437Z" transform="translate(-769.69 -550.729)" fill="#e6a744"/>
			<path id="Path_20942" data-name="Path 20942" d="M804.847,529.1c1.157,2.448,8.937,7.452,8.937,7.452s1.073-9.2-.088-11.658a4.9,4.9,0,0,0-8.849,4.206Z" transform="translate(-781.613 -506.322)" fill="#e6a744"/>
			<path id="Path_20943" data-name="Path 20943" d="M776.287,569.525c1.851,1.989,10.754,4.433,10.754,4.433s-1.725-9.107-3.562-11.1a4.9,4.9,0,1,0-7.192,6.668Z" transform="translate(-765.786 -527.271)" fill="#e6a744"/>
			<path id="Path_20944" data-name="Path 20944" d="M755.815,614.9c1.471,2.272,9.852,6.19,9.852,6.19s-.166-9.274-1.642-11.541a4.9,4.9,0,0,0-8.21,5.351Z" transform="translate(-755.097 -552.022)" fill="#e6a744"/>
		</g>
		<g id="Group_11747" data-name="Group 11747" transform="translate(326.11 124.496)" opacity="0.1">
			<path id="Path_20945" data-name="Path 20945" d="M783.2,397.417s1.638-23,14.551-35.547a34.991,34.991,0,0,0,10.3-19.545,58.413,58.413,0,0,0,.694-10.725" transform="translate(-774.583 -317.02)" fill="#e6a744"/>
			<path id="Path_20946" data-name="Path 20946" d="M844.935,306.785c-.925,2.537-8.274,8.184-8.274,8.184s-1.85-9.084-.9-11.62a4.9,4.9,0,1,1,9.172,3.436Z" transform="translate(-802.688 -300.157)" fill="#e6a744"/>
			<path id="Path_20947" data-name="Path 20947" d="M847.767,340.58c-2.169,1.618-11.388,2.36-11.388,2.36s3.377-8.625,5.551-10.243a4.906,4.906,0,1,1,5.837,7.883Z" transform="translate(-803.166 -317.046)" fill="#e6a744"/>
			<path id="Path_20948" data-name="Path 20948" d="M828.077,391.193c-2.687.3-11.018-3.71-11.018-3.71s7.262-5.736,9.949-6.028a4.91,4.91,0,0,1,1.068,9.762Z" transform="translate(-792.782 -343.742)" fill="#e6a744"/>
			<path id="Path_20949" data-name="Path 20949" d="M803.539,426.95c-2.6.747-11.489-1.8-11.489-1.8s6.193-6.885,8.789-7.637a4.909,4.909,0,0,1,2.7,9.441Z" transform="translate(-779.34 -362.99)" fill="#e6a744"/>
			<path id="Path_20950" data-name="Path 20950" d="M814.58,341.169c1.156,2.453,8.941,7.456,8.941,7.456s1.068-9.209-.089-11.658a4.9,4.9,0,1,0-8.853,4.2Z" transform="translate(-791.195 -318.391)" fill="#e6a744"/>
			<path id="Path_20951" data-name="Path 20951" d="M786.187,381.844c1.85,1.994,10.759,4.433,10.759,4.433s-1.73-9.107-3.566-11.1a4.9,4.9,0,0,0-7.192,6.663Z" transform="translate(-775.535 -339.595)" fill="#e6a744"/>
			<path id="Path_20952" data-name="Path 20952" d="M765.441,426.851c1.475,2.272,9.852,6.191,9.852,6.191s-.167-9.274-1.642-11.542a4.9,4.9,0,1,0-8.209,5.351Z" transform="translate(-764.572 -363.973)" fill="#e6a744"/>
			<path id="Path_20953" data-name="Path 20953" d="M844.935,306.785c-.925,2.537-8.274,8.184-8.274,8.184s-1.85-9.084-.9-11.62a4.9,4.9,0,1,1,9.172,3.436Z" transform="translate(-802.688 -300.157)" fill="#e6a744"/>
			<path id="Path_20954" data-name="Path 20954" d="M847.767,340.58c-2.169,1.618-11.388,2.36-11.388,2.36s3.377-8.625,5.551-10.243a4.906,4.906,0,1,1,5.837,7.883Z" transform="translate(-803.166 -317.046)" fill="#e6a744"/>
			<path id="Path_20955" data-name="Path 20955" d="M828.077,391.193c-2.687.3-11.018-3.71-11.018-3.71s7.262-5.736,9.949-6.028a4.91,4.91,0,0,1,1.068,9.762Z" transform="translate(-792.782 -343.742)" fill="#e6a744"/>
			<path id="Path_20956" data-name="Path 20956" d="M803.539,426.95c-2.6.747-11.489-1.8-11.489-1.8s6.193-6.885,8.789-7.637a4.909,4.909,0,0,1,2.7,9.441Z" transform="translate(-779.34 -362.99)" fill="#e6a744"/>
			<path id="Path_20957" data-name="Path 20957" d="M814.58,341.169c1.156,2.453,8.941,7.456,8.941,7.456s1.068-9.209-.089-11.658a4.9,4.9,0,1,0-8.853,4.2Z" transform="translate(-791.195 -318.391)" fill="#e6a744"/>
			<path id="Path_20958" data-name="Path 20958" d="M786.187,381.844c1.85,1.994,10.759,4.433,10.759,4.433s-1.73-9.107-3.566-11.1a4.9,4.9,0,0,0-7.192,6.663Z" transform="translate(-775.535 -339.595)" fill="#e6a744"/>
			<path id="Path_20959" data-name="Path 20959" d="M765.441,426.851c1.475,2.272,9.852,6.191,9.852,6.191s-.167-9.274-1.642-11.542a4.9,4.9,0,1,0-8.209,5.351Z" transform="translate(-764.572 -363.973)" fill="#e6a744"/>
		</g>
		<g id="Group_11748" data-name="Group 11748" transform="translate(30.344 170.277)" opacity="0.1">
			<path id="Path_20960" data-name="Path 20960" d="M197.9,477.879s-19.755-11.806-25.134-29a34.9,34.9,0,0,0-12.784-18.006,58.307,58.307,0,0,0-9.251-5.444" transform="translate(-138.886 -413.123)" fill="#e6a744"/>
			<path id="Path_20961" data-name="Path 20961" d="M133.521,400.364c1.85,1.989,3.575,11.1,3.575,11.1s-8.922-2.435-10.759-4.424a4.9,4.9,0,0,1,7.183-6.672Z" transform="translate(-125.123 -398.889)" fill="#e6a744"/>
			<path id="Path_20962" data-name="Path 20962" d="M166.808,409.155c.462,2.671-3.016,11.258-3.016,11.258s-6.17-6.9-6.633-9.575a4.9,4.9,0,1,1,9.648-1.683Z" transform="translate(-142.291 -402.148)" fill="#e6a744"/>
			<path id="Path_20963" data-name="Path 20963" d="M204.192,447.269c-.925,2.54-8.275,8.193-8.275,8.193s-1.85-9.084-.9-11.62a4.9,4.9,0,1,1,9.177,3.427Z" transform="translate(-162.543 -421.213)" fill="#e6a744"/>
			<path id="Path_20964" data-name="Path 20964" d="M224.941,485.806c-.5,2.666-6.772,9.5-6.772,9.5s-3.353-8.639-2.849-11.3a4.9,4.9,0,1,1,9.621,1.822Z" transform="translate(-173.573 -442.393)" fill="#e6a744"/>
			<path id="Path_20965" data-name="Path 20965" d="M150.512,442.821c2.7.065,10.661-4.637,10.661-4.637s-7.724-5.1-10.43-5.165a4.91,4.91,0,0,0-.231,9.817Z" transform="translate(-136.198 -417.192)" fill="#e6a744"/>
			<path id="Path_20966" data-name="Path 20966" d="M174.069,486.556c2.6-.751,8.788-7.642,8.788-7.642s-8.89-2.545-11.489-1.794a4.91,4.91,0,0,0,2.706,9.436Z" transform="translate(-148.131 -440.77)" fill="#e6a744"/>
			<path id="Path_20967" data-name="Path 20967" d="M204.8,525.238c2.692-.3,9.949-6.028,9.949-6.028s-8.326-4.015-11.022-3.71a4.906,4.906,0,1,0,1.073,9.738Z" transform="translate(-164.883 -461.418)" fill="#e6a744"/>
			<path id="Path_20968" data-name="Path 20968" d="M133.521,400.364c1.85,1.989,3.575,11.1,3.575,11.1s-8.922-2.435-10.759-4.424a4.9,4.9,0,0,1,7.183-6.672Z" transform="translate(-125.123 -398.889)" fill="#e6a744"/>
			<path id="Path_20969" data-name="Path 20969" d="M166.808,409.155c.462,2.671-3.016,11.258-3.016,11.258s-6.17-6.9-6.633-9.575a4.9,4.9,0,1,1,9.648-1.683Z" transform="translate(-142.291 -402.148)" fill="#e6a744"/>
			<path id="Path_20970" data-name="Path 20970" d="M204.192,447.269c-.925,2.54-8.275,8.193-8.275,8.193s-1.85-9.084-.9-11.62a4.9,4.9,0,1,1,9.177,3.427Z" transform="translate(-162.543 -421.213)" fill="#e6a744"/>
			<path id="Path_20971" data-name="Path 20971" d="M224.941,485.806c-.5,2.666-6.772,9.5-6.772,9.5s-3.353-8.639-2.849-11.3a4.9,4.9,0,1,1,9.621,1.822Z" transform="translate(-173.573 -442.393)" fill="#e6a744"/>
			<path id="Path_20972" data-name="Path 20972" d="M150.512,442.821c2.7.065,10.661-4.637,10.661-4.637s-7.724-5.1-10.43-5.165a4.91,4.91,0,0,0-.231,9.817Z" transform="translate(-136.198 -417.192)" fill="#e6a744"/>
			<path id="Path_20973" data-name="Path 20973" d="M174.069,486.556c2.6-.751,8.788-7.642,8.788-7.642s-8.89-2.545-11.489-1.794a4.91,4.91,0,0,0,2.706,9.436Z" transform="translate(-148.131 -440.77)" fill="#e6a744"/>
			<path id="Path_20974" data-name="Path 20974" d="M204.8,525.238c2.692-.3,9.949-6.028,9.949-6.028s-8.326-4.015-11.022-3.71a4.906,4.906,0,1,0,1.073,9.738Z" transform="translate(-164.883 -461.418)" fill="#e6a744"/>
		</g>
		<path id="Path_20975" data-name="Path 20975" d="M776.25,817.468c13.28,5.792,29.482,2.267,44.552,2.675a12.165,12.165,0,0,1,5.9,1.229c1.651,1,2.47,2.62,3.6,4.011,4.223,5.165,12.877,6.826,20.439,5.949s14.5-3.779,21.633-5.987c12.335-3.821,26.434-5.564,38.6-1.391a7.947,7.947,0,0,0,3.488.667c2.669-.338,3.464-3.111,5.328-4.692,3.368-2.861,10.685-2.082,12.165-5.852.865-2.207-1.128-4.471-3.3-5.977-8.326-5.768-20.213-6.719-31.1-5.828s-21.582,3.343-32.521,3.352c-13.631,0-26.8-3.765-40.3-5.31-9.348-1.066-19.552-.927-28.316,2.212C786.925,805.922,784.834,813.568,776.25,817.468Z" transform="translate(-444.738 -443.576)" fill="#e6a744" opacity="0.1"/>
		<path id="Path_20976" data-name="Path 20976" d="M232.93,776.492c22.664,6.543,50.323,2.559,76.04,3.023,3.52.065,7.248.255,10.074,1.391s4.214,2.968,6.152,4.535c7.206,5.838,21.975,7.716,34.88,6.724S384.821,787.894,397,785.4c21.054-4.317,45.125-6.283,65.892-1.577a19.645,19.645,0,0,0,5.957.756c4.552-.385,5.907-3.515,9.094-5.3,5.749-3.246,18.233-2.351,20.758-6.608,1.48-2.494-1.924-5.054-5.634-6.756-14.19-6.515-34.5-7.591-53.075-6.584s-36.841,3.774-55.5,3.789c-23.265,0-45.745-4.253-68.783-6-15.958-1.206-33.372-1.057-48.335,2.5C251.154,763.462,247.578,772.1,232.93,776.492Z" transform="translate(-152.722 -420.364)" fill="#e6a744" opacity="0.1"/>
		<path id="Path_20977" data-name="Path 20977" d="M101.77,820.4c6.476,3.9,14.339,1.53,21.674,1.8a4.6,4.6,0,0,1,2.872.826,9.779,9.779,0,0,1,1.753,2.708c2.054,3.482,6.263,4.605,9.94,4.012s7.054-2.546,10.527-4.039c6.013-2.574,12.863-3.747,18.779-.928a2.944,2.944,0,0,0,1.7.464c1.3-.232,1.684-2.1,2.59-3.167,1.637-1.929,5.2-1.391,5.916-3.946.421-1.489-.55-3.014-1.6-4.029-4.043-3.891-9.833-4.531-15.129-3.933s-10.5,2.222-15.823,2.222c-6.628,0-13.034-2.537-19.6-3.58-4.551-.724-9.514-.631-13.779,1.493C106.964,812.621,105.947,817.777,101.77,820.4Z" transform="translate(-82.228 -448.234)" fill="#e6a744" opacity="0.1"/>
		<path id="Path_20978" data-name="Path 20978" d="M482.375,67.32h-214.9a19.7,19.7,0,0,0-19.713,19.7v298.5a19.706,19.706,0,0,0,19.713,19.689h214.9a19.706,19.706,0,0,0,19.713-19.7V87.022A19.706,19.706,0,0,0,482.375,67.32Z" transform="translate(-160.693 -50.791)" fill="url(#linear-gradient)"/>
		<rect id="Rectangle_5225" data-name="Rectangle 5225" width="248.251" height="330.821" rx="20" transform="translate(90.097 20.577)" fill="#535461"/>
		<rect id="Rectangle_5226" data-name="Rectangle 5226" width="223.024" height="268.236" transform="translate(102.71 51.868)" fill="#f6f7f9"/>
		<ellipse id="Ellipse_2143" data-name="Ellipse 2143" cx="3.03" cy="3.037" rx="3.03" ry="3.037" transform="translate(210.184 32.712)" fill="#f6f7f9"/>
		<ellipse id="Ellipse_2144" data-name="Ellipse 2144" cx="9.084" cy="9.107" rx="9.084" ry="9.107" transform="translate(204.13 326.104)" fill="#f6f7f9"/>
		<g id="Group_11749" data-name="Group 11749" transform="translate(102.71 51.868)" opacity="0.2">
			<rect id="Rectangle_5227" data-name="Rectangle 5227" width="223.024" height="13.368" fill="#e6a744"/>
		</g>
		<ellipse id="Ellipse_2145" data-name="Ellipse 2145" cx="2.845" cy="2.852" rx="2.845" ry="2.852" transform="translate(106.841 55.702)" fill="#f6f7f9"/>
		<ellipse id="Ellipse_2146" data-name="Ellipse 2146" cx="2.845" cy="2.852" rx="2.845" ry="2.852" transform="translate(114.089 55.702)" fill="#f6f7f9"/>
		<ellipse id="Ellipse_2147" data-name="Ellipse 2147" cx="2.845" cy="2.852" rx="2.845" ry="2.852" transform="translate(121.332 55.702)" fill="#f6f7f9"/>
		<rect id="Rectangle_5228" data-name="Rectangle 5228" width="207.682" height="0.696" transform="translate(109.371 130.72)" fill="#dce0ed"/>
		<rect id="Rectangle_5229" data-name="Rectangle 5229" width="207.682" height="0.696" transform="translate(109.371 146.87)" fill="#dce0ed"/>
		<rect id="Rectangle_5230" data-name="Rectangle 5230" width="207.682" height="0.696" transform="translate(109.371 163.025)" fill="#dce0ed"/>
		<rect id="Rectangle_5231" data-name="Rectangle 5231" width="207.682" height="0.696" transform="translate(109.371 179.176)" fill="#dce0ed"/>
		<rect id="Rectangle_5232" data-name="Rectangle 5232" width="207.682" height="0.696" transform="translate(109.371 195.327)" fill="#dce0ed"/>
		<g id="Group_11750" data-name="Group 11750" transform="translate(109.116 140.573)" opacity="0.2">
			<path id="Path_20979" data-name="Path 20979" d="M443.846,358.629H235.91V326.866l19.07,9.422,19.736,2.685,17.317-5.235,20.893-16.243,10.509-6.084,7.683-1.484,7.349.394,12.086,5.986L366.987,326.8l12.9,1.66,10.222-3.533,21.674-17.792,11.064-3.956,11.577,1.795,9.426,5.458Z" transform="translate(-235.91 -303.18)" fill="#e6a744"/>
		</g>
		<path id="Path_20980" data-name="Path 20980" d="M331.668,370.477c-18.728,0-36.031-11.481-36.248-11.63l.518-.77c.268.181,26.9,17.843,49.533,9,8.252-3.246,14.126-8.245,19.81-13.1,5.934-5.068,11.536-9.853,19.177-11.931a28.629,28.629,0,0,1,25.61,5.768c6.221,5.124,18.608,13.35,31.693,10.892,6.67-1.257,12.289-6.139,18.242-11.31,11.411-9.914,23.214-20.166,43.631-5.458l-.541.751c-19.824-14.282-31.341-4.271-42.484,5.407-6.05,5.254-11.762,10.2-18.677,11.518-13.46,2.532-26.105-5.861-32.451-11.087a27.729,27.729,0,0,0-24.782-5.588c-7.437,2.022-12.951,6.742-18.82,11.741-5.74,4.906-11.675,9.974-20.07,13.257A38.643,38.643,0,0,1,331.668,370.477Z" transform="translate(-186.308 -194.12)" fill="#e6a744"/>
		<ellipse id="Ellipse_2148" data-name="Ellipse 2148" cx="5.148" cy="5.161" rx="5.148" ry="5.161" transform="translate(204.158 142.113)" fill="#e6a744"/>
		<g id="Group_11751" data-name="Group 11751" transform="translate(210.462 78.98)" opacity="0.2">
			<path id="Path_20981" data-name="Path 20981" d="M580.534,202H515.595a1.056,1.056,0,0,0-1.055,1.057v44.028a1.054,1.054,0,0,0,1.822.723l11.254-12.033a1.047,1.047,0,0,1,.768-.334h52.15a1.056,1.056,0,0,0,1.055-1.057V203.048A1.056,1.056,0,0,0,580.534,202Z" transform="translate(-514.54 -202)" fill="#e6a744"/>
		</g>
		<rect id="Rectangle_5233" data-name="Rectangle 5233" width="36.979" height="4.637" transform="translate(225.494 87.132)" fill="#f6f7f9"/>
		<rect id="Rectangle_5234" data-name="Rectangle 5234" width="10.153" height="4.637" transform="translate(225.494 97.407)" fill="#f6f7f9"/>
		<g id="Group_11752" data-name="Group 11752" transform="translate(126.91 229.204)" opacity="0.2">
			<rect id="Rectangle_5235" data-name="Rectangle 5235" width="10.153" height="4.637" fill="#e6a744"/>
		</g>
		<g id="Group_11753" data-name="Group 11753" transform="translate(126.91 238.168)" opacity="0.2">
			<rect id="Rectangle_5236" data-name="Rectangle 5236" width="10.153" height="4.637" fill="#e6a744"/>
		</g>
		<g id="Group_11754" data-name="Group 11754" transform="translate(126.91 247.131)" opacity="0.2">
			<rect id="Rectangle_5237" data-name="Rectangle 5237" width="10.153" height="4.637" fill="#e6a744"/>
		</g>
		<g id="Group_11755" data-name="Group 11755" transform="translate(126.91 256.099)" opacity="0.2">
			<rect id="Rectangle_5238" data-name="Rectangle 5238" width="10.153" height="4.637" fill="#e6a744"/>
		</g>
		<g id="Group_11756" data-name="Group 11756" transform="translate(126.91 265.062)" opacity="0.2">
			<rect id="Rectangle_5239" data-name="Rectangle 5239" width="10.153" height="4.637" fill="#e6a744"/>
		</g>
		<g id="Group_11757" data-name="Group 11757" transform="translate(126.91 274.026)" opacity="0.2">
			<rect id="Rectangle_5240" data-name="Rectangle 5240" width="10.153" height="4.637" fill="#e6a744"/>
		</g>
		<g id="Group_11758" data-name="Group 11758" transform="translate(126.91 282.994)" opacity="0.2">
			<rect id="Rectangle_5241" data-name="Rectangle 5241" width="10.153" height="4.637" fill="#e6a744"/>
		</g>
		<g id="Group_11759" data-name="Group 11759" transform="translate(126.91 291.957)" opacity="0.2">
			<rect id="Rectangle_5242" data-name="Rectangle 5242" width="10.153" height="4.637" fill="#e6a744"/>
		</g>
		<g id="Group_11760" data-name="Group 11760" transform="translate(146.026 296.594)" opacity="0.2">
			<rect id="Rectangle_5243" data-name="Rectangle 5243" width="10.153" height="4.637" fill="#e6a744"/>
		</g>
		<g id="Group_11761" data-name="Group 11761" transform="translate(163.913 296.594)" opacity="0.2">
			<rect id="Rectangle_5244" data-name="Rectangle 5244" width="10.153" height="4.637" fill="#e6a744"/>
		</g>
		<g id="Group_11762" data-name="Group 11762" transform="translate(181.799 296.594)" opacity="0.2">
			<rect id="Rectangle_5245" data-name="Rectangle 5245" width="10.153" height="4.637" fill="#e6a744"/>
		</g>
		<g id="Group_11763" data-name="Group 11763" transform="translate(199.68 296.594)" opacity="0.2">
			<rect id="Rectangle_5246" data-name="Rectangle 5246" width="10.153" height="4.637" fill="#e6a744"/>
		</g>
		<g id="Group_11764" data-name="Group 11764" transform="translate(217.566 296.594)" opacity="0.2">
			<rect id="Rectangle_5247" data-name="Rectangle 5247" width="10.153" height="4.637" fill="#e6a744"/>
		</g>
		<g id="Group_11765" data-name="Group 11765" transform="translate(235.452 296.594)" opacity="0.2">
			<rect id="Rectangle_5248" data-name="Rectangle 5248" width="10.153" height="4.637" fill="#e6a744"/>
		</g>
		<g id="Group_11766" data-name="Group 11766" transform="translate(253.334 296.594)" opacity="0.2">
			<rect id="Rectangle_5249" data-name="Rectangle 5249" width="10.153" height="4.637" fill="#e6a744"/>
		</g>
		<g id="Group_11767" data-name="Group 11767" transform="translate(271.22 296.594)" opacity="0.2">
			<rect id="Rectangle_5250" data-name="Rectangle 5250" width="10.153" height="4.637" fill="#e6a744"/>
		</g>
		<g id="Group_11768" data-name="Group 11768" transform="translate(289.106 296.594)" opacity="0.2">
			<rect id="Rectangle_5251" data-name="Rectangle 5251" width="10.153" height="4.637" fill="#e6a744"/>
		</g>
		<rect id="Rectangle_5252" data-name="Rectangle 5252" width="15.416" height="4.637" transform="translate(247.057 97.407)" fill="#f6f7f9"/>
		<rect id="Rectangle_5253" data-name="Rectangle 5253" width="10.153" height="29.06" transform="translate(146.026 262.897)" fill="#e6a744"/>
		<rect id="Rectangle_5254" data-name="Rectangle 5254" width="10.153" height="42.507" transform="translate(163.913 249.45)" fill="#e6a744"/>
		<rect id="Rectangle_5255" data-name="Rectangle 5255" width="10.153" height="53.789" transform="translate(181.799 238.168)" fill="#e6a744"/>
		<rect id="Rectangle_5256" data-name="Rectangle 5256" width="10.153" height="47.937" transform="translate(199.68 244.015)" fill="#e6a744"/>
		<rect id="Rectangle_5257" data-name="Rectangle 5257" width="10.153" height="58.115" transform="translate(217.566 233.841)" fill="#e6a744"/>
		<g id="Group_11769" data-name="Group 11769" transform="translate(235.452 256.099)" opacity="0.2">
			<rect id="Rectangle_5258" data-name="Rectangle 5258" width="10.153" height="35.858" fill="#e6a744"/>
		</g>
		<g id="Group_11770" data-name="Group 11770" transform="translate(253.334 256.099)" opacity="0.2">
			<rect id="Rectangle_5259" data-name="Rectangle 5259" width="10.153" height="35.858" fill="#e6a744"/>
		</g>
		<g id="Group_11771" data-name="Group 11771" transform="translate(271.22 256.099)" opacity="0.2">
			<rect id="Rectangle_5260" data-name="Rectangle 5260" width="10.153" height="35.858" fill="#e6a744"/>
		</g>
		<g id="Group_11772" data-name="Group 11772" transform="translate(289.106 256.099)" opacity="0.2">
			<rect id="Rectangle_5261" data-name="Rectangle 5261" width="10.153" height="35.858" fill="#e6a744"/>
		</g>
		<path id="Path_20982" data-name="Path 20982" d="M933.412,236.426c-11-6.339-15.147-7.911-15.171-7.92l-.223-.162a9.2,9.2,0,0,1-2.774-3.51v-.682c.176-3.357,2.558-6.413,4.819-9.079l5.776-6.817a6.623,6.623,0,0,0,1.49-2.365,5.3,5.3,0,0,0,.156-1.451v-.594c-.027-1.693-.078-3.39-.138-5.1-.056-1.479-.436-3.343-1.911-3.649-.768-.158-1.78.121-2.187-.542a1.267,1.267,0,0,1-.1-.876.33.33,0,0,0,0,.069v-.083a19.712,19.712,0,0,0,.55-3.482,4.859,4.859,0,0,0-.24-1.762c-.855-2.458-3.8-3.464-6.4-3.928s-5.519-.863-7.151-2.9a21.589,21.589,0,0,0-1.419-1.962,5.636,5.636,0,0,0-2.66-1.317,14.991,14.991,0,0,0-9.676.844c-1.259.561-2.521,1.322-3.9,1.238s-2.66-1.08-4.075-1.321c-2.284-.39-4.473,1.294-5.6,3.283a8.048,8.048,0,0,0-1.036,3.877v.227h0a5.66,5.66,0,0,0,1.485,3.955c.985,1.025,2.456,1.73,2.863,3.079.166.547.124,1.141.272,1.7a.673.673,0,0,0,.064.2l-.073.1a17.212,17.212,0,0,0-3.627,10.609,17.57,17.57,0,0,0,12.317,16.665v.519a7.47,7.47,0,0,1-2.392,5.833L876.891,235.4s-9.385-1.118-12.771,12.636a23.3,23.3,0,0,0-.583,6.979,20.5,20.5,0,0,1-2.567,10.452c-3.853,7.558-2.974,24.91,4.9,26.63,7.433,1.623,10.343.927,10.639.867v.3c-.12,3.246-1.3,31.341-5.588,34.74-1.184.927-.962,1.576,0,2,0,0,0,.181-.027.505-.13,2.054-.791,9.877-3.659,14.328-3.325,5.152-2.979,34.879-2.979,34.879L862.02,397.26s1.389,10.823,0,12.715c-1.248,1.683-2.913,41.733-3.237,50.408h-.148a4.2,4.2,0,0,0-3.362,2.054c-1.85,3-8.279,8.528-8.279,8.528-1.388,1.989-6.563,3.891-9.3,4.79a5.644,5.644,0,0,0-1.055.463A5.564,5.564,0,0,0,834.3,478.7a2.69,2.69,0,0,0-.255,2.068c.7,1.716,15.227,2.917,18.9,1.2,2.891-1.354,14.339-3.13,19.089-3.826a3.931,3.931,0,0,0,3.4-3.4,2.249,2.249,0,0,0-.463-1.706h0c-.925-1.131-1.387-4.215-1.586-6.227a4.113,4.113,0,0,0,1.068-.635,45.814,45.814,0,0,1,2.622-18.381c3.5-9.274,4.552-26.463,3.7-37.629,0,0,10.675-46.045,19.074-50.344h0c.13.162,4.205,5.411,4.723,21.646.527,16.494,6.476,27.316,6.476,27.316s-2.627,28.008,0,38.487L907.607,463.8c-.25-.218-.412-.385-.412-.385s.1.464.246,1.2l-.074.348.147.037a32.647,32.647,0,0,1,.73,7.785c-.139,1.2-.462,2.852-.7,4.47-.36,2.546-.462,5.012.875,5.564,2.188.881,15.051,2.086,17.238-.747a4.08,4.08,0,0,0,.639-4.248,4.371,4.371,0,0,0-.639-1.08s-3.413-5.6-2.451-9.543a2.888,2.888,0,0,0-.407-2.267,115.593,115.593,0,0,1,2.946-18.516c2.188-8.268,6.809-26.394,3.408-38.315h0c-.129-.464-.276-.927-.435-1.391a51.509,51.509,0,0,1-1.924-20.1,41.057,41.057,0,0,1,0-17.528c2.1-9.622,3.566-19.072,3.566-19.072s1.16-12.71.148-20.5l-.07-.5.555-.125s-2.974-13.229-4.023-21.645c-.25-1.989-.573-4.507-.925-7.2a17.37,17.37,0,0,0,2.854-.709c9.418-3.278,12.378-32.825,12.378-32.825v-9.367S944.438,242.784,933.412,236.426ZM863.015,464.6c-.292-.148-.463-.246-.463-.246h0Z" transform="translate(-475.745 -110.08)" fill="url(#linear-gradient-2)"/>
		<path id="Path_20983" data-name="Path 20983" d="M957.3,574.789c4.1,11.815-.685,30.989-2.9,39.549a119.968,119.968,0,0,0-2.905,18.84,39.436,39.436,0,0,1-15.027-.348l3.584-17.621c-2.562-10.442,0-38.352,0-38.352s-5.8-10.786-6.317-27.224c-.5-16.183-4.482-21.409-4.626-21.571h0c-8.2,4.28-18.616,50.173-18.616,50.173.854,11.129-.172,28.248-3.585,37.495a46.583,46.583,0,0,0-2.562,18.32,5.622,5.622,0,0,1-4.648.895c-4.861-.811-10.694-5.022-10.694-5.022s1.851-49.991,3.238-51.878,0-12.673,0-12.673l2.216-17.463s-.338-29.626,2.9-34.777c2.8-4.437,3.446-12.233,3.57-14.278a3.623,3.623,0,0,1,.028-.505l4.939-5.935s47.826-3.594,51.41,0c.884.885,1.425,2.888,1.749,5.416.985,7.767-.144,20.435-.144,20.435s-1.434,9.418-3.482,19.012a41.638,41.638,0,0,0,0,17.463A52.318,52.318,0,0,0,957.3,574.789Z" transform="translate(-505.338 -277.912)" fill="#65617d"/>
		<path id="Path_20984" data-name="Path 20984" d="M1009.27,809.345c-2.137,2.824-14.69,1.623-16.827.747-1.3-.543-1.2-3-.851-5.537.222-1.613.55-3.245.685-4.455.342-3.084-1.027-9.335-1.027-9.335s2.821,3,3.5,0a3.265,3.265,0,0,1,2.438-2.318,6.39,6.39,0,0,1,4.436.277c2.215.965,5.921,3.024,5.254,5.806-.925,3.932,2.392,9.511,2.392,9.511a4.363,4.363,0,0,1,.62,1.076A4.125,4.125,0,0,1,1009.27,809.345Z" transform="translate(-560.293 -437.386)" fill="#a27772"/>
		<path id="Path_20985" data-name="Path 20985" d="M1009.4,828.29c-2.137,2.824-14.689,1.623-16.826.747-1.306-.543-1.2-3-.852-5.537,1.346.631,3.64,1.16,7.461.8a21.444,21.444,0,0,1,2.688-.084,61.933,61.933,0,0,0,8.149-.161A4.124,4.124,0,0,1,1009.4,828.29Z" transform="translate(-560.425 -456.331)" opacity="0.1"/>
		<path id="Path_20986" data-name="Path 20986" d="M922.945,617.464c.855,11.129-.171,28.248-3.585,37.495A46.567,46.567,0,0,0,916.8,673.28a5.625,5.625,0,0,1-4.648.895c1.031-7.234,5.421-38.338,8.256-62.919A102.886,102.886,0,0,1,938.574,564l2.988,3.3C933.357,571.572,922.945,617.464,922.945,617.464Z" transform="translate(-517.781 -317.161)" opacity="0.1"/>
		<path id="Path_20987" data-name="Path 20987" d="M978.689,267.42,976.6,277.691,966.39,294.9,953.8,289.506s-17.114-17.978-6.36-20.546a9.413,9.413,0,0,0,3.57-1.6,7.363,7.363,0,0,0,2.775-6.19,19.4,19.4,0,0,0-1.748-7.368l22.03-6.956a35.329,35.329,0,0,0-1.581,8.95c-.167,6.028,2.063,8.977,3.89,10.392A6.675,6.675,0,0,0,978.689,267.42Z" transform="translate(-534.838 -147.073)" fill="#fbbebe"/>
		<path id="Path_20988" data-name="Path 20988" d="M983.561,246.9a35.332,35.332,0,0,0-1.582,8.95,16.125,16.125,0,0,1-1.281,1.363,17.392,17.392,0,0,1-17.419,3.988,19.391,19.391,0,0,0-1.749-7.368Z" transform="translate(-544.32 -147.1)" opacity="0.1"/>
		<path id="Path_20989" data-name="Path 20989" d="M974.137,220.608a17.366,17.366,0,1,1-5.071-12.367A17.44,17.44,0,0,1,974.137,220.608Z" transform="translate(-532.372 -123.631)" fill="#fbbebe"/>
		<path id="Path_20990" data-name="Path 20990" d="M978.689,289.815,976.6,300.086,966.39,317.294,953.8,311.9s-17.114-17.978-6.36-20.547a9.42,9.42,0,0,0,3.57-1.6c-1.941,5.356,6.078,16.494,6.078,16.494.926,1.391,3.076.51,3.076.51,5.162-.779,14.676-15.677,16.226-18.154A6.667,6.667,0,0,0,978.689,289.815Z" transform="translate(-534.838 -169.469)" opacity="0.1"/>
		<path id="Path_20991" data-name="Path 20991" d="M972.906,497.888c-3.03.691-19.811,4.419-26.175,3.487-7-1.03-20.615-1.711-20.615-1.711s-8.668.464-11.336-.751a3.754,3.754,0,0,1,.027-.506l4.94-5.935s47.825-3.594,51.409,0C972.041,493.349,972.583,495.352,972.906,497.888Z" transform="translate(-519.195 -277.944)" opacity="0.1"/>
		<path id="Path_20992" data-name="Path 20992" d="M927.6,306.973s-9.011-12.52-5.615-17.384l-15.222,6.255s-9.163-1.113-12.488,12.594a23.762,23.762,0,0,0-.569,6.955,20.773,20.773,0,0,1-2.507,10.415c-3.76,7.535-2.905,24.827,4.782,26.542s10.416.853,10.416.853-1.021,31.337-5.462,34.931,11.318,2.74,11.318,2.74,13.616.686,20.62,1.711,26.642-3.594,26.642-3.594-2.9-13.187-3.927-21.576-3.418-26.255-3.418-26.255L969.6,317.513s3.071-14.3-7.687-20.63-14.8-7.883-14.8-7.883-10.8,17.62-16.429,18.487C930.681,307.487,928.539,308.35,927.6,306.973Z" transform="translate(-505.358 -169.678)" fill="#e6a744"/>
		<path id="Path_20993" data-name="Path 20993" d="M925.845,338.47s-.172,5.652.851,7.883,4.783,14.555,4.783,14.555H922.94s4.625-4.966,4.27-7.363S925.845,338.47,925.845,338.47Z" transform="translate(-523.58 -196.209)" opacity="0.1"/>
		<path id="Path_20994" data-name="Path 20994" d="M952.229,402.661s-18.862-4.637-20.619-8.565S925,381.35,925,381.35l1.989-2.69,9.177,7.22s10.93,8.731,16.055,9.59S952.229,402.661,952.229,402.661Z" transform="translate(-524.687 -217.763)" fill="#fbbebe"/>
		<path id="Path_20995" data-name="Path 20995" d="M952.229,402.661s-18.862-4.637-20.619-8.565S925,381.35,925,381.35l1.989-2.69,9.177,7.22s10.93,8.731,16.055,9.59S952.229,402.661,952.229,402.661Z" transform="translate(-524.687 -217.763)" opacity="0.05"/>
		<path id="Path_20996" data-name="Path 20996" d="M979.535,382.318v10.257h-1.647a47.786,47.786,0,0,0-23.215,6.024l-3.089,1.72-.828.464-5.3-11.954,4.954-4.452h.254c1.212.116,6.453.557,8.673-.195,2.109-.719,4.727-3,10.938-1.391,3.063.784,5.676,4.224,8.646,3.149Z" transform="translate(-535.684 -219.678)" fill="#fbbebe"/>
		<path id="Path_20997" data-name="Path 20997" d="M1011.545,328.7l3.418,3.849v9.334s-2.9,29.45-12.127,32.7-25.685-1.887-25.685-1.887-4.256-11.3-2.267-11.982,17.576-4.813,17.576-4.813-.218-17.277,3.2-22.415c0,0-2.22-16.091,5.467-16.434S1011.545,328.7,1011.545,328.7Z" transform="translate(-551.214 -184.719)" opacity="0.1"/>
		<path id="Path_20998" data-name="Path 20998" d="M1012.633,328.7l3.418,3.849v9.334s-2.9,29.45-12.146,32.7-25.688-1.887-25.688-1.887-4.251-11.3-2.262-11.982S993.53,355.9,993.53,355.9s-.223-17.277,3.2-22.415c0,0-2.22-16.091,5.468-16.434S1012.633,328.7,1012.633,328.7Z" transform="translate(-551.788 -184.719)" fill="#e6a744"/>
		<path id="Path_20999" data-name="Path 20999" d="M973.5,228.03a6.812,6.812,0,0,0-.389-3.334,2.575,2.575,0,0,0-2.71-1.567c-1.462.343-2.091,2.249-3.524,2.708a2.773,2.773,0,0,1-3.1-1.6,8.238,8.238,0,0,1-.6-3.71v-4.289c0-1.558-.051-3.246-1.008-4.461-1.189-1.526-3.987-2.189-5.856-2.128A4.953,4.953,0,0,0,952.971,211a4.307,4.307,0,0,1-3.52,1.252A3.04,3.04,0,0,1,947,210.127v-.056a17.437,17.437,0,1,1,25.9,23.185A46.722,46.722,0,0,0,973.5,228.03Z" transform="translate(-536.511 -123.635)" opacity="0.1"/>
		<path id="Path_21000" data-name="Path 21000" d="M944.206,199.388a3.046,3.046,0,0,1-2.451-2.128c-.144-.552-.106-1.141-.268-1.693-.4-1.345-1.851-2.045-2.775-3.065-1.925-2.05-1.8-5.416-.436-7.883,1.1-1.984,3.238-3.658,5.463-3.273,1.388.241,2.576,1.229,3.978,1.317s2.576-.672,3.807-1.233a14.306,14.306,0,0,1,9.44-.839,5.485,5.485,0,0,1,2.6,1.312,23.367,23.367,0,0,1,1.388,1.952c1.6,2.036,4.444,2.435,6.983,2.893s5.407,1.465,6.245,3.914c.551,1.623,0,3.385-.3,5.073a1.464,1.464,0,0,0,.065,1.043c.4.658,1.387.385,2.136.542,1.443.3,1.813,2.161,1.851,3.635q.092,2.532.139,5.064a4.982,4.982,0,0,1-1.6,4.234l-5.639,6.793c-2.5,3.014-5.157,6.524-4.653,10.41-1.184.533-2.59-.5-2.979-1.739a7.809,7.809,0,0,1,.185-3.853,47.286,47.286,0,0,0,.894-6.686,6.828,6.828,0,0,0-.389-3.334,2.55,2.55,0,0,0-2.711-1.572c-1.461.343-2.091,2.249-3.524,2.708a2.775,2.775,0,0,1-3.1-1.6,8.212,8.212,0,0,1-.6-3.71v-4.294c0-1.553-.052-3.246-1.009-4.461-1.188-1.526-3.987-2.189-5.855-2.128a4.959,4.959,0,0,0-3.344,1.354A4.385,4.385,0,0,1,944.206,199.388Z" transform="translate(-531.276 -111.301)" fill="#7c5c5c"/>
		<path id="Path_21001" data-name="Path 21001" d="M960.789,337.55l5.347,22.026S970.354,359.553,960.789,337.55Z" transform="translate(-543.922 -195.715)" opacity="0.1"/>
		<path id="Path_21002" data-name="Path 21002" d="M994.6,329.61s-7,11.5-4.269,23.384l1.3.1S989.307,347.587,994.6,329.61Z" transform="translate(-559.462 -191.457)" opacity="0.1"/>
		<path id="Path_21003" data-name="Path 21003" d="M1009.9,469.223s8.6-2.851,9.223,3.765C1019.123,472.988,1017.5,468.453,1009.9,469.223Z" transform="translate(-570.318 -266.004)" opacity="0.1"/>
		<path id="Path_21004" data-name="Path 21004" d="M939.1,388s-1.706,11.987,1.388,16.781a37.407,37.407,0,0,1-15.032,2.054L924.42,388Z" transform="translate(-524.375 -222.772)" opacity="0.1"/>
		<path id="Path_21005" data-name="Path 21005" d="M951.584,402.792l-.828.464-5.3-11.955,4.954-4.452h.254C950.59,387.425,949.211,397.719,951.584,402.792Z" transform="translate(-535.684 -222.155)" opacity="0.1"/>
		<path id="Path_21006" data-name="Path 21006" d="M933.371,386.85s-1.707,11.982,1.388,16.777a37.417,37.417,0,0,1-15.032,2.054L913.75,386.85Z" transform="translate(-518.64 -222.155)" fill="#e6a744"/>
		<path id="Path_21007" data-name="Path 21007" d="M877.176,801.555a3.867,3.867,0,0,1-3.316,3.389c-4.625.7-15.81,2.467-18.631,3.812-3.584,1.711-17.761.515-18.445-1.2a2.718,2.718,0,0,1,.245-2.059,5.517,5.517,0,0,1,2.313-2.471,5.7,5.7,0,0,1,1.026-.464c2.669-.895,7.711-2.782,9.075-4.776,0,0,6.286-5.513,8.076-8.495a4.111,4.111,0,0,1,3.283-2.049c1.5-.07,3.164.686,3.845,3.974,0,0,8.2,4.688,10.411.574,0,0,.342,6.316,1.7,8.041h0A2.291,2.291,0,0,1,877.176,801.555Z" transform="translate(-477.219 -436.885)" fill="#a27772"/>
		<path id="Path_21008" data-name="Path 21008" d="M877.176,816.131a3.868,3.868,0,0,1-3.316,3.39c-4.625.7-15.81,2.467-18.631,3.812-3.584,1.711-17.761.515-18.445-1.2a2.72,2.72,0,0,1,.245-2.059,5.522,5.522,0,0,1,2.313-2.471c2.313,1.54,7.442,3.043,18.729,1.276,10.763-1.683,16.091-3.334,18.69-4.461h0A2.3,2.3,0,0,1,877.176,816.131Z" transform="translate(-477.219 -451.461)" opacity="0.1"/>
		<g id="Group_11773" data-name="Group 11773" transform="translate(405.983 76.981)" opacity="0.1">
			<path id="Path_21009" data-name="Path 21009" d="M1024.943,209.7v-.084a15.937,15.937,0,0,0,.527-3.891,25.175,25.175,0,0,1-.527,3.121A1.906,1.906,0,0,0,1024.943,209.7Z" transform="translate(-984.36 -202.002)"/>
			<path id="Path_21010" data-name="Path 21010" d="M967.87,221.417a5.074,5.074,0,0,1,.421,1.957,5.851,5.851,0,0,0-.421-2.727,2.549,2.549,0,0,0-2.706-1.572c-1.462.343-2.09,2.249-3.524,2.708a2.781,2.781,0,0,1-3.1-1.6,8.156,8.156,0,0,1-.592-3.71v-4.294c0-1.553-.051-3.246-1.009-4.461-1.188-1.526-3.992-2.189-5.855-2.128a4.953,4.953,0,0,0-3.345,1.354,4.314,4.314,0,0,1-3.519,1.257,3.046,3.046,0,0,1-2.452-2.128c-.144-.552-.106-1.141-.268-1.692-.4-1.345-1.851-2.045-2.775-3.065a5.562,5.562,0,0,1-1.438-3.621,5.839,5.839,0,0,0,1.438,4.391c.962,1.02,2.391,1.725,2.775,3.07.161.547.124,1.136.268,1.688a3.046,3.046,0,0,0,2.452,2.128,4.288,4.288,0,0,0,3.519-1.257,4.954,4.954,0,0,1,3.345-1.354c1.851-.06,4.667.607,5.855,2.128.958,1.224,1,2.907,1.009,4.461v4.294a7.843,7.843,0,0,0,.592,3.71,2.818,2.818,0,0,0,3.1,1.6c1.435-.464,2.063-2.365,3.524-2.708A2.554,2.554,0,0,1,967.87,221.417Z" transform="translate(-937.259 -197.69)"/>
			<path id="Path_21011" data-name="Path 21011" d="M1020.073,237.435a6.569,6.569,0,0,1-1.452,2.356q-2.817,3.4-5.638,6.793c-2.373,2.861-4.89,6.172-4.705,9.821.172-3.348,2.5-6.394,4.705-9.051l5.638-6.789a6.618,6.618,0,0,0,1.452-2.36,6.368,6.368,0,0,0,.148-1.855A4.474,4.474,0,0,1,1020.073,237.435Z" transform="translate(-975.424 -218.423)"/>
			<path id="Path_21012" data-name="Path 21012" d="M1001.787,276.047a4.048,4.048,0,0,1-.167-.927,4.649,4.649,0,0,0,.167,1.688c.389,1.243,1.8,2.267,2.983,1.734-.033-.25-.051-.5-.061-.751C1003.517,278.282,1002.147,277.271,1001.787,276.047Z" transform="translate(-971.842 -239.216)"/>
		</g>
		<path id="Path_21013" data-name="Path 21013" d="M879.26,795s1.785,3.149,8.252.376" transform="translate(-500.103 -441.046)" opacity="0.1"/>
		<path id="Path_21014" data-name="Path 21014" d="M997.5,796.67s5.578,6.584,12.608,2.157" transform="translate(-563.653 -441.943)" opacity="0.1"/>
		<path id="Path_21015" data-name="Path 21015" d="M1027.873,628.7s-3.944,2.472-4.07,3.886,2.036-1.03,2.036-1.03Z" transform="translate(-577.787 -351.86)" opacity="0.1"/>
		<path id="Path_21016" data-name="Path 21016" d="M1027.776,669.53a8.22,8.22,0,0,1-4.856,1.9c-2.946.13-2.7,3.983-.776,2.823A49.172,49.172,0,0,0,1027.776,669.53Z" transform="translate(-576.122 -373.757)" opacity="0.1"/>
		<path id="Path_21017" data-name="Path 21017" d="M1033.607,674.86s-1.892,9.321-3.428,7.521" transform="translate(-581.217 -376.615)" opacity="0.1"/>
		<path id="Path_21018" data-name="Path 21018" d="M188.146,768.359s2.539,3.329-1.175,8.347-6.776,9.274-5.55,12.409c0,0,5.6-9.339,10.176-9.469S193.165,773.975,188.146,768.359Z" transform="translate(-124.89 -426.759)" fill="#e6a744"/>
		<path id="Path_21019" data-name="Path 21019" d="M188.325,768.359a4.01,4.01,0,0,1,.518,1.044c4.449,5.24,6.822,10.132,2.544,10.257-3.982.112-8.788,7.257-9.907,9.061a4.266,4.266,0,0,0,.134.408s5.6-9.339,10.176-9.469S193.344,773.975,188.325,768.359Z" transform="translate(-125.069 -426.759)" opacity="0.1"/>
		<path id="Path_21020" data-name="Path 21020" d="M205.807,776.644c0,1.173-.13,2.124-.292,2.124s-.3-.951-.3-2.124.167-.617.328-.617S205.807,775.48,205.807,776.644Z" transform="translate(-137.829 -430.801)" fill="#ffd037"/>
		<path id="Path_21021" data-name="Path 21021" d="M207.666,779.6c-1.027.561-1.924.9-2,.761s.694-.714,1.721-1.275.62-.154.7,0S208.693,779.042,207.666,779.6Z" transform="translate(-138.064 -432.359)" fill="#ffd037"/>
		<path id="Path_21022" data-name="Path 21022" d="M160.63,768.359s-2.539,3.329,1.175,8.347,6.776,9.274,5.55,12.409c0,0-5.6-9.339-10.176-9.469S155.616,773.975,160.63,768.359Z" transform="translate(-110.796 -426.759)" fill="#e6a744"/>
		<path id="Path_21023" data-name="Path 21023" d="M160.618,768.359a4.193,4.193,0,0,0-.518,1.044c-4.45,5.24-6.822,10.132-2.544,10.257,3.987.112,8.788,7.257,9.908,9.061a3.292,3.292,0,0,1-.134.408s-5.6-9.339-10.176-9.469S155.6,773.975,160.618,768.359Z" transform="translate(-110.785 -426.759)" opacity="0.1"/>
		<path id="Path_21024" data-name="Path 21024" d="M157.05,776.644c0,1.173.13,2.124.291,2.124s.3-.951.3-2.124-.166-.617-.328-.617S157.05,775.48,157.05,776.644Z" transform="translate(-111.939 -430.801)" fill="#ffd037"/>
		<path id="Path_21025" data-name="Path 21025" d="M152.823,779.6c1.027.561,1.92.9,2,.761s-.694-.714-1.721-1.275-.62-.154-.7,0S151.8,779.042,152.823,779.6Z" transform="translate(-109.331 -432.359)" fill="#ffd037"/>
		<path id="Path_21026" data-name="Path 21026" d="M158.8,807.759s7.1-.218,9.251-1.748,10.925-3.352,11.457-.9,10.675,12.191,2.655,12.256-18.635-1.253-20.772-2.56S158.8,807.759,158.8,807.759Z" transform="translate(-112.88 -445.826)" fill="#a8a8a8"/>
		<path id="Path_21027" data-name="Path 21027" d="M182.3,820.953c-8.02.065-18.635-1.252-20.772-2.559-1.628-.992-2.276-4.558-2.493-6.2H158.8s.463,5.746,2.586,7.049,12.752,2.624,20.772,2.559c2.313,0,3.118-.844,3.071-2.068C184.91,820.476,184.026,820.94,182.3,820.953Z" transform="translate(-112.88 -450.265)" opacity="0.2"/>
	</g>
</svg>
