<svg xmlns="http://www.w3.org/2000/svg" viewBox="0 0 24 24"><defs><style>.cls-1{fill:none;opacity:0;}.cls-2{fill:#727b89;}</style></defs><g id="Layer_2" data-name="Layer 2"><g id="ic_phone"><rect class="cls-1" width="24" height="24"/><path class="cls-2" d="M21.44,17.51l-5.82-2.89a1,1,0,0,0-.77,0,1,1,0,0,0-.58.51L13.34,17a10.65,10.65,0,0,1-3.45-3.66,10.53,10.53,0,0,1-1.43-5l3-.17a1,1,0,0,0,.94-1.06L12.09,1.1a1,1,0,0,0-.74-.91A7.85,7.85,0,0,0,5.89,1L5.78,1C2,3.17.91,8.8,3.16,14.38A1,1,0,1,0,5,13.63C3.16,9,3.88,4.46,6.73,2.75l.07,0A5.78,5.78,0,0,1,10.14,2l.25,4.26-3,.16a.74.74,0,0,0-.14,0l-.18,0a1.08,1.08,0,0,0-.18.11.71.71,0,0,0-.14.1,1,1,0,0,0-.12.16A.6.6,0,0,0,6.57,7a1.52,1.52,0,0,0-.06.2s0,.08,0,.13a12.58,12.58,0,0,0,1.68,7,12.35,12.35,0,0,0,5.19,4.95h0a1.06,1.06,0,0,0,.42.09h0a.81.81,0,0,0,.31-.06s.05,0,.08,0l.22-.13a.27.27,0,0,0,.08-.07.83.83,0,0,0,.21-.28h0l1-2,4.09,2a5.75,5.75,0,0,1-2.2,2.45l-.05,0c-2.91,1.68-7.25,0-10.31-4a1,1,0,0,0-1.41-.19,1,1,0,0,0-.18,1.41C8.23,22.06,11.78,24,15,24a6.91,6.91,0,0,0,3.29-.81,1,1,0,0,0,.22-.09A8,8,0,0,0,22,18.67,1,1,0,0,0,21.44,17.51Z"/></g></g></svg>