<svg xmlns="http://www.w3.org/2000/svg" width="30" height="40" viewBox="0 0 34 50">
  <g id="Group_1114" data-name="Group 1114" transform="translate(-25.3 -34.95)">
    <rect id="Rectangle_1779" data-name="Rectangle 1779" width="34" height="50" rx="4" transform="translate(25.3 34.95)" fill="#e6e6e6"/>
    <path id="Path_1731" data-name="Path 1731" d="M353.749,151.819h.442a.472.472,0,0,0,.38-.151.686.686,0,0,0,.127-.449.625.625,0,0,0-.131-.416.441.441,0,0,0-.356-.156h-.462Zm-.268,1.535v-3.015h.752a.7.7,0,0,1,.568.237,1.051,1.051,0,0,1,.2.687.913.913,0,0,1-.212.631.722.722,0,0,1-.565.239h-.472v1.22Zm2.775,0a1.818,1.818,0,0,1-.028-.2c-.007-.071-.01-.146-.01-.223a.816.816,0,0,1-.236.349.527.527,0,0,1-.747-.064.686.686,0,0,1-.119-.218.86.86,0,0,1-.039-.27.673.673,0,0,1,.252-.569,1.2,1.2,0,0,1,.744-.194h.143l0-.14a.571.571,0,0,0-.1-.374.382.382,0,0,0-.311-.122.446.446,0,0,0-.3.094.474.474,0,0,0-.144.292l-.236-.049a.662.662,0,0,1,.721-.607.527.527,0,0,1,.466.212,1.184,1.184,0,0,1,.148.669v.957c0,.1,0,.188.01.26a1.191,1.191,0,0,0,.035.2Zm-.037-1.131-.078-.008h-.116a.831.831,0,0,0-.5.128.509.509,0,0,0-.079.675.314.314,0,0,0,.253.11.441.441,0,0,0,.369-.231.981.981,0,0,0,.154-.558Zm.67-1.884h.246v3.014h-.246Zm1.768,3.015a1.871,1.871,0,0,1-.028-.2c-.006-.071-.01-.146-.01-.223a.811.811,0,0,1-.236.349.527.527,0,0,1-.747-.064.7.7,0,0,1-.119-.218.86.86,0,0,1-.039-.27.673.673,0,0,1,.252-.569,1.2,1.2,0,0,1,.744-.194h.142v-.14a.573.573,0,0,0-.1-.374.383.383,0,0,0-.311-.122.445.445,0,0,0-.3.094.472.472,0,0,0-.144.292l-.236-.049a.662.662,0,0,1,.721-.607.526.526,0,0,1,.465.212,1.181,1.181,0,0,1,.147.669v.957c0,.1,0,.188.01.26a1.143,1.143,0,0,0,.036.2Zm-.038-1.131-.077-.008h-.117a.832.832,0,0,0-.5.128.51.51,0,0,0-.079.675.314.314,0,0,0,.253.11.442.442,0,0,0,.369-.231.98.98,0,0,0,.154-.558Zm1.867-.668a1.08,1.08,0,0,1,.233-.362.419.419,0,0,1,.664.1,1.291,1.291,0,0,1,.131.644v1.413h-.238v-1.443a.857.857,0,0,0-.081-.414.252.252,0,0,0-.229-.145.372.372,0,0,0-.315.219,1.064,1.064,0,0,0-.13.548v1.235h-.239v-1.443a.862.862,0,0,0-.082-.412.251.251,0,0,0-.227-.148.373.373,0,0,0-.318.219,1.068,1.068,0,0,0-.129.548v1.235h-.243V151.12h.227v.413a.964.964,0,0,1,.219-.344.4.4,0,0,1,.281-.116.416.416,0,0,1,.3.125.692.692,0,0,1,.174.356m2.746-.435v2.234h-.225v-.414a.939.939,0,0,1-.233.359.465.465,0,0,1-.705-.107,1.272,1.272,0,0,1-.137-.659V151.12h.24v1.442a.845.845,0,0,0,.088.425.28.28,0,0,0,.255.15.4.4,0,0,0,.343-.223,1.041,1.041,0,0,0,.139-.56V151.12Zm.52,1.4v-1.161h-.29v-.244h.29v-.53l.25-.034v.564h.394v.244H364v1.169a1.224,1.224,0,0,0,.06.485.228.228,0,0,0,.221.111l.093-.007a.329.329,0,0,0,.079-.021v.278l-.106.025a.678.678,0,0,1-.07.01h-.031a.476.476,0,0,1-.255-.064.481.481,0,0,1-.173-.2.606.606,0,0,1-.052-.193,4.136,4.136,0,0,1-.016-.432m3.394.859-.078-.36a.705.705,0,0,1-.25.285.649.649,0,0,1-.362.1.752.752,0,0,1-.672-.42,2.272,2.272,0,0,1-.248-1.154,2.77,2.77,0,0,1,.076-.678,1.612,1.612,0,0,1,.229-.524.872.872,0,0,1,.279-.265.663.663,0,0,1,.335-.091.7.7,0,0,1,.529.223,1.358,1.358,0,0,1,.312.65l-.262.087a1.111,1.111,0,0,0-.224-.486.457.457,0,0,0-.355-.167.511.511,0,0,0-.454.336,2.587,2.587,0,0,0,0,1.844.524.524,0,0,0,.477.332.494.494,0,0,0,.412-.2.86.86,0,0,0,.156-.539v-.2h-.577v-.314h.849v1.542Zm.565-.03V151.12h.236v.5a1.074,1.074,0,0,1,.193-.424.367.367,0,0,1,.291-.14l.08.009h.009v.333h-.041a.431.431,0,0,0-.379.225,1.139,1.139,0,0,0-.141.611v1.12Zm1.623-.217a.389.389,0,0,0,.347-.244,1.4,1.4,0,0,0,.13-.655,1.413,1.413,0,0,0-.128-.659.389.389,0,0,0-.349-.241.385.385,0,0,0-.349.24,1.769,1.769,0,0,0,0,1.315.386.386,0,0,0,.347.244m0,.278a.616.616,0,0,1-.539-.324,1.895,1.895,0,0,1,0-1.709.615.615,0,0,1,.54-.322.621.621,0,0,1,.542.322,1.568,1.568,0,0,1,.206.855,2.048,2.048,0,0,1-.051.479,1.223,1.223,0,0,1-.156.376.622.622,0,0,1-.542.322m2.366-2.3v2.234h-.225v-.414a.941.941,0,0,1-.232.359.45.45,0,0,1-.3.117.443.443,0,0,1-.4-.224,1.274,1.274,0,0,1-.138-.659V151.12h.24v1.442a.84.84,0,0,0,.088.425.279.279,0,0,0,.254.15.4.4,0,0,0,.342-.223,1.036,1.036,0,0,0,.139-.56V151.12Zm.447,3.008V151.12h.227v.435a.927.927,0,0,1,.213-.366.412.412,0,0,1,.3-.128.525.525,0,0,1,.462.32,1.712,1.712,0,0,1,.179.838,1.732,1.732,0,0,1-.183.851.541.541,0,0,1-.473.327.416.416,0,0,1-.27-.1.783.783,0,0,1-.209-.3v1.13Zm.243-1.712a.963.963,0,0,0,.116.5.35.35,0,0,0,.307.189.362.362,0,0,0,.325-.234,1.446,1.446,0,0,0,.119-.646,1.463,1.463,0,0,0-.115-.641.353.353,0,0,0-.319-.233.363.363,0,0,0-.306.2.893.893,0,0,0-.126.49Z" transform="translate(-316.341 -111.047)" fill="#7f8a40"/>
    <g id="logo" transform="translate(27.26 35.89)">
      <g id="acikmavi" transform="translate(0 2.477)">
        <path id="acikmavialt" d="M123.083,143.123a.4.4,0,0,0-.32-.026.786.786,0,0,0-.3.214.913.913,0,0,1-.4.272.748.748,0,0,1-.216.018.427.427,0,0,1-.427-.31l1-1.885a.392.392,0,0,1,.285.047.676.676,0,0,1,.166.191.744.744,0,0,1,.126.4c.009.193-.077.455-.071.628a.518.518,0,0,0,.028.163c.005.016.013.033.021.052a.529.529,0,0,0,.145.179l-.01.034Z" transform="translate(-119.909 -140.863)" fill="#7f8a40"/>
        <path id="acikmaviust" d="M79.806,127.916a2.03,2.03,0,0,1-.031-.355.539.539,0,0,0-.031-.157c-.048-.122-.133-.173-.126-.189h0c.007-.011.075.029.159.03a.3.3,0,0,0,.055,0,.53.53,0,0,0,.141-.053,1.434,1.434,0,0,1,.33-.154.715.715,0,0,1,.227-.038,3.313,3.313,0,0,1,1.445.557l-.908,1.72C80.315,128.788,79.9,128.407,79.806,127.916Z" transform="translate(-79.617 -126.995)" fill="#7f8a40"/>
      </g>
      <g id="turuncu" transform="translate(0.002 5.571)">
        <path id="turuncualt" d="M123.168,210.9a.476.476,0,0,0-.18.289.94.94,0,0,0,.019.392,1.1,1.1,0,0,1,.015.516.926.926,0,0,1-.094.213.419.419,0,0,1-.46.249l-1-1.885a.457.457,0,0,1,.18-.246.689.689,0,0,1,.613.018c.157.088.322.3.463.381a.416.416,0,0,0,.143.056.5.5,0,0,0,.051.006.46.46,0,0,0,.215-.047l.022.026Z" transform="translate(-119.963 -210.359)" fill="#7f8a40"/>
        <path id="turuncuust" d="M80.311,225.014a1.641,1.641,0,0,1-.3-.148.43.43,0,0,0-.14-.049c-.121-.016-.2.039-.213.025h0c-.005-.012.061-.057.1-.135a.369.369,0,0,0,.024-.054.658.658,0,0,0,.029-.16,1.776,1.776,0,0,1,.043-.389.893.893,0,0,1,.084-.233c.258-.566,1.122-1.032,1.164-1.087l.911,1.718C81.258,224.97,80.75,225.167,80.311,225.014Z" transform="translate(-79.66 -222.323)" fill="#7f8a40"/>
      </g>
      <g id="sarı" transform="translate(3.179 6.759)">
        <path id="sarialt" d="M168.861,242.361a.489.489,0,0,0,.139.315.771.771,0,0,0,.32.178.906.906,0,0,1,.417.243.9.9,0,0,1,.122.2.5.5,0,0,1-.032.559h-1.995a.485.485,0,0,1-.105-.293.746.746,0,0,1,.069-.252.7.7,0,0,1,.252-.318c.149-.1.4-.155.534-.247a.45.45,0,0,0,.116-.108c.01-.013.02-.029.031-.046a.575.575,0,0,0,.07-.226l.032-.008Z" transform="translate(-167.727 -242.353)" fill="#7f8a40"/>
        <path id="sariust" d="M174.456,288.1a1.713,1.713,0,0,1-.266.207.474.474,0,0,0-.109.108,1.156,1.156,0,0,0-.087.214h0c-.012,0-.014-.086-.056-.165a.353.353,0,0,0-.031-.049.58.58,0,0,0-.113-.107,1.517,1.517,0,0,1-.287-.235.837.837,0,0,1-.143-.2,4.118,4.118,0,0,1-.28-1.644l1.819,0C174.895,287.179,174.8,287.757,174.456,288.1Z" transform="translate(-172.892 -284.598)" fill="#7f8a40"/>
      </g>
      <g id="acikyesil" transform="translate(5.356 5.568)">
        <path id="acikyesilalt" d="M228.092,210.77a.4.4,0,0,0,.32.026.786.786,0,0,0,.3-.214.913.913,0,0,1,.4-.272.749.749,0,0,1,.216-.018.427.427,0,0,1,.427.31l-1,1.885a.392.392,0,0,1-.285-.047.676.676,0,0,1-.166-.191.744.744,0,0,1-.126-.4c-.009-.193.077-.455.071-.628a.519.519,0,0,0-.028-.163c-.005-.016-.013-.033-.021-.052a.529.529,0,0,0-.145-.179l.01-.034Z" transform="translate(-228.06 -210.29)" fill="#7f8a40"/>
        <path id="acikyesilust" d="M253.756,224.055a2.028,2.028,0,0,1,.031.355.539.539,0,0,0,.031.157c.048.122.133.173.126.189h0c-.007.011-.075-.029-.159-.03a.293.293,0,0,0-.055,0,.53.53,0,0,0-.141.053,1.433,1.433,0,0,1-.33.154.716.716,0,0,1-.227.038,3.314,3.314,0,0,1-1.445-.557l.908-1.72C253.247,223.182,253.658,223.563,253.756,224.055Z" transform="translate(-250.739 -222.236)" fill="#7f8a40"/>
      </g>
      <g id="fıstık" transform="translate(3.179 0)">
        <path id="fıstıkalt" d="M168.8,129.868a.488.488,0,0,0-.139-.315.771.771,0,0,0-.32-.178.746.746,0,0,1-.539-.438.5.5,0,0,1,.032-.559h1.995a.485.485,0,0,1,.105.293.747.747,0,0,1-.069.252.7.7,0,0,1-.252.318c-.149.1-.4.155-.534.247a.45.45,0,0,0-.116.108c-.01.013-.02.029-.031.046a.574.574,0,0,0-.07.226l-.032.008Z" transform="translate(-167.727 -125.85)" fill="#7f8a40"/>
        <path id="fıstıkust" d="M173.468,60.792a1.711,1.711,0,0,1,.266-.207.476.476,0,0,0,.109-.108,1.159,1.159,0,0,0,.087-.214h0c.012,0,.014.086.056.165a.361.361,0,0,0,.031.049.579.579,0,0,0,.113.107,1.516,1.516,0,0,1,.287.235.837.837,0,0,1,.143.2,4.118,4.118,0,0,1,.28,1.644l-1.819,0C173.029,61.709,173.126,61.13,173.468,60.792Z" transform="translate(-172.829 -60.264)" fill="#7f8a40"/>
      </g>
      <g id="pembe" transform="translate(5.354 2.472)">
        <path id="pembealt" d="M228.028,142.975a.476.476,0,0,0,.18-.289.941.941,0,0,0-.019-.391,1.1,1.1,0,0,1-.015-.516.926.926,0,0,1,.094-.213.419.419,0,0,1,.46-.249l1,1.885a.457.457,0,0,1-.18.246.689.689,0,0,1-.613-.018c-.157-.088-.322-.3-.463-.381a.416.416,0,0,0-.143-.056.492.492,0,0,0-.051-.006.461.461,0,0,0-.215.047l-.022-.026Z" transform="translate(-228.028 -140.772)" fill="#7f8a40"/>
        <path id="pembeust" d="M253.22,126.9a1.643,1.643,0,0,1,.3.148.432.432,0,0,0,.14.049c.121.016.2-.039.213-.025h0c.005.012-.061.057-.1.135a.37.37,0,0,0-.024.054.662.662,0,0,0-.029.16,1.777,1.777,0,0,1-.043.389.891.891,0,0,1-.084.233c-.258.566-1.122,1.032-1.164,1.087l-.911-1.718C252.274,126.948,252.781,126.75,253.22,126.9Z" transform="translate(-250.666 -126.852)" fill="#7f8a40"/>
      </g>
    </g>
    <line id="Line_94" data-name="Line 94" x2="29.889" transform="translate(27.493 48.648)" fill="none" stroke="#333" stroke-miterlimit="10" stroke-width="0.5"/>
    <line id="Line_95" data-name="Line 95" x2="29.889" transform="translate(27.371 79.358)" fill="none" stroke="#333" stroke-miterlimit="10" stroke-width="0.5"/>
    <line id="Line_96" data-name="Line 96" x2="4.849" transform="translate(44.037 81.312)" fill="none" stroke="#4d4d4d" stroke-miterlimit="10" stroke-width="0.5"/>
    <line id="Line_97" data-name="Line 97" x2="5.388" transform="translate(51.871 81.296)" fill="none" stroke="#ee7c7b" stroke-miterlimit="10" stroke-width="0.5"/>
    <line id="Line_98" data-name="Line 98" x2="13.607" transform="translate(27.493 50.888)" fill="none" stroke="#999" stroke-miterlimit="10" stroke-width="0.5"/>
    <line id="Line_99" data-name="Line 99" x2="4.849" transform="translate(44.037 50.888)" fill="none" stroke="#4d4d4d" stroke-miterlimit="10" stroke-width="0.5"/>
    <line id="Line_100" data-name="Line 100" x2="5.388" transform="translate(51.994 50.888)" fill="none" stroke="#ee7c7b" stroke-miterlimit="10" stroke-width="0.5"/>
    <line id="Line_101" data-name="Line 101" x2="13.607" transform="translate(27.493 53.125)" fill="none" stroke="#999" stroke-miterlimit="10" stroke-width="0.5"/>
    <line id="Line_102" data-name="Line 102" x2="4.849" transform="translate(44.037 53.125)" fill="none" stroke="#4d4d4d" stroke-miterlimit="10" stroke-width="0.5"/>
    <line id="Line_103" data-name="Line 103" x2="5.388" transform="translate(51.994 53.125)" fill="none" stroke="#ee7c7b" stroke-miterlimit="10" stroke-width="0.5"/>
    <path id="Path_1732" data-name="Path 1732" d="M346.83,648.913c-.026,4.915-2.455,8.418-8.5,8.418a10.239,10.239,0,0,1-1.267-.081v-8.038l-2.323.869v-1.439l2.323-.869v-1.385l-2.323.869v-1.439l2.323-.869V639.6h2.191v4.535l4.646-1.711v1.439l-4.646,1.711v1.385l4.619-1.711v1.439l-4.619,1.711v6.979c2.9-.136,5.385-1.9,5.49-6.463Z" transform="translate(-298.277 -582.206)" fill="#ee7c7b"/>
    <path id="Path_1733" data-name="Path 1733" d="M763.168,754.273v-1.592a4.372,4.372,0,0,1-2.344-.694l.368-1.056a4,4,0,0,0,2.206.678,1.625,1.625,0,0,0,1.823-1.545c0-.867-.6-1.4-1.731-1.876-1.563-.63-2.528-1.356-2.528-2.727a2.558,2.558,0,0,1,2.314-2.538v-1.592h.95v1.529a4,4,0,0,1,1.992.552l-.383,1.04a3.628,3.628,0,0,0-1.931-.536c-1.18,0-1.624.725-1.624,1.356,0,.82.567,1.23,1.9,1.8,1.578.662,2.375,1.482,2.375,2.885a2.714,2.714,0,0,1-2.421,2.68v1.639Z" transform="translate(-708.988 -680.162)" fill="#72aad3"/>
    <path id="Path_1734" data-name="Path 1734" d="M59.569,782.9a4.05,4.05,0,0,1-2.283.662,3.965,3.965,0,0,1-3.11-1.4,4.931,4.931,0,0,1-1.1-2.711h-.95v-.772H53v-.236c0-.252.015-.489.031-.709h-.9v-.788h1.011a5.053,5.053,0,0,1,1.256-2.664,3.986,3.986,0,0,1,3.034-1.308,4.254,4.254,0,0,1,2.038.5l-.306,1.04a3.452,3.452,0,0,0-1.716-.441,2.632,2.632,0,0,0-2.023.867,3.77,3.77,0,0,0-.919,2h4.275v.788H54.359c-.015.2-.031.441-.031.662v.284h4.443v.772H54.436a3.846,3.846,0,0,0,.843,2.065,2.873,2.873,0,0,0,2.16.914,3.888,3.888,0,0,0,1.869-.52Z" transform="translate(-25.854 -710.628)" fill="#72aad3"/>
  </g>
</svg>
