<svg xmlns="http://www.w3.org/2000/svg" xmlns:xlink="http://www.w3.org/1999/xlink" width="350" height="250" viewBox="0 0 700 430">
	<defs>
		<linearGradient id="linear-gradient" x1="9.046" y1="1" x2="9.046" gradientUnits="objectBoundingBox">
			<stop offset="0" stop-color="gray" stop-opacity="0.251"/>
			<stop offset="0.54" stop-color="gray" stop-opacity="0.122"/>
			<stop offset="1" stop-color="gray" stop-opacity="0.102"/>
		</linearGradient>
	</defs>
	<g id="undraw_personal_settings_kihd" transform="translate(0)">
		<path id="Path_18630" data-name="Path 18630" d="M728,364.179a111.8,111.8,0,0,1-15.982,57.835c0,21.328-9.876,40.66-25.9,54.749a88.593,88.593,0,0,1-12.9,9.413c-.184.117-.373.228-.563.339-.343.2-.685.407-1.034.616l-.324.191h0a100.187,100.187,0,0,1-49.624,12.814H160.883q-5.507,0-10.916-.443a128.472,128.472,0,0,1-37.362-8.711q-3.5-1.392-6.865-2.994-1.6-.758-3.176-1.559c-.655-.333-1.309-.678-1.958-1.023A114.647,114.647,0,0,1,79.521,471c-20.8-18.007-33.7-42.884-33.7-70.36A111.748,111.748,0,0,1,28,339.851c0-61.076,48.486-110.588,108.3-110.588,1.836,0,3.671.055,5.507.154a5.554,5.554,0,0,1,.783.037,187.555,187.555,0,0,1,39.773-47.2c44.2-38.134,108.806-62.172,180.77-62.172,60.467,0,115.739,16.972,158.075,45.015A106.018,106.018,0,0,1,573.8,151.2c59.806,0,108.3,49.512,108.3,110.588a114.735,114.735,0,0,1-.612,11.569A111.122,111.122,0,0,1,728,364.179Z" transform="translate(-28 -108.326)" fill="#72aad3" opacity="0.2"/>
		<g id="Group_7734" data-name="Group 7734" transform="translate(48.608 216.073)" opacity="0.2">
			<path id="Path_18631" data-name="Path 18631" d="M158.72,715.279a7.391,7.391,0,0,1-.061.832q-3.5-1.392-6.865-2.994a5.553,5.553,0,0,1-3.176-1.559c-.655-.333-1.309-.678-1.958-1.023a8.464,8.464,0,0,1,.5-.9,5.677,5.677,0,0,1,10.359.32,10.451,10.451,0,0,1,1.205,5.323Z" transform="translate(-122.662 -549.527)" fill="#3f3d56"/>
			<path id="Path_18632" data-name="Path 18632" d="M158.6,698.159a10.451,10.451,0,0,1-1.536,5.224,6.154,6.154,0,0,1-5.287,3.191l-.434-.031a5.554,5.554,0,0,1-3.176-1.559,7.709,7.709,0,0,1-1.462-1.922,10.876,10.876,0,0,1,.33-10.547,5.677,5.677,0,0,1,10.359.32A10.45,10.45,0,0,1,158.6,698.159Z" transform="translate(-122.212 -542.954)" fill="#3f3d56"/>
			<ellipse id="Ellipse_1861" data-name="Ellipse 1861" cx="8.629" cy="6.545" rx="8.629" ry="6.545" transform="translate(23.362 152.889) rotate(-88.19)" fill="#3f3d56"/>
			<ellipse id="Ellipse_1862" data-name="Ellipse 1862" cx="8.629" cy="6.545" rx="8.629" ry="6.545" transform="translate(23.69 142.341) rotate(-88.19)" fill="#3f3d56"/>
			<ellipse id="Ellipse_1863" data-name="Ellipse 1863" cx="8.63" cy="6.545" rx="8.63" ry="6.545" transform="translate(24.08 131.122) rotate(-88.282)" fill="#3f3d56"/>
			<path id="Path_18633" data-name="Path 18633" d="M116.025,502.138a30.633,30.633,0,0,1-2.325-3.7l17.292-2.3-18.614-.45a31.851,31.851,0,0,1,.19-25.036l24.549,13.83L114.63,466.715a31.284,31.284,0,0,1,55.638,4.428,31.762,31.762,0,0,1-4.949,32.535,31.548,31.548,0,0,1,3.4,5.871L146.02,520.521l24.066-7.288a31.794,31.794,0,0,1-6.009,29.515,31.743,31.743,0,0,1-4.7,42.612,31.222,31.222,0,0,1-42.563-1.351,31.748,31.748,0,0,1-2.028-42.826,31.76,31.76,0,0,1,1.224-39.046Z" transform="translate(-107.44 -451.737)" fill="#72aad3"/>
			<path id="Path_18634" data-name="Path 18634" d="M171.419,567.81a31.58,31.58,0,0,1-7.343,19.307,31.743,31.743,0,0,1-4.7,42.612,31.222,31.222,0,0,1-42.563-1.351,31.748,31.748,0,0,1-2.027-42.826C110.763,580.051,171.529,564.261,171.419,567.81Z" transform="translate(-107.44 -496.105)" opacity="0.1"/>
		</g>
		<path id="Path_18635" data-name="Path 18635" d="M686.377,232.342v295.2a11.3,11.3,0,0,1-11.265,11.342H225.265a11.029,11.029,0,0,1-3.108-.443,11.313,11.313,0,0,1-8.156-10.9V268.165a5.554,5.554,0,0,1,.783.037A187.555,187.555,0,0,1,254.556,221H675.112A11.3,11.3,0,0,1,686.377,232.342Z" transform="translate(-100.189 -147.073)" fill="#fff"/>
		<rect id="Rectangle_3828" data-name="Rectangle 3828" width="84.336" height="22.153" rx="11.077" transform="translate(435.768 112.264)" fill="#3f3d56"/>
		<rect id="Rectangle_3829" data-name="Rectangle 3829" width="73.341" height="14.742" rx="7.371" transform="translate(441.263 115.966)" opacity="0.1"/>
		<rect id="Rectangle_3830" data-name="Rectangle 3830" width="26.482" height="13.128" rx="6.564" transform="translate(486.285 116.773)" fill="#72aad3"/>
		<ellipse id="Ellipse_1864" data-name="Ellipse 1864" cx="4.075" cy="4.103" rx="4.075" ry="4.103" transform="translate(495.249 119.237)" fill="#fff"/>
		<rect id="Rectangle_3831" data-name="Rectangle 3831" width="84.336" height="22.153" rx="11.077" transform="translate(435.768 258.299)" fill="#3f3d56"/>
		<rect id="Rectangle_3832" data-name="Rectangle 3832" width="73.341" height="14.742" rx="7.371" transform="translate(441.263 262.002)" opacity="0.1"/>
		<rect id="Rectangle_3833" data-name="Rectangle 3833" width="26.482" height="13.128" rx="6.564" transform="translate(486.285 262.809)" fill="#72aad3"/>
		<ellipse id="Ellipse_1865" data-name="Ellipse 1865" cx="4.075" cy="4.103" rx="4.075" ry="4.103" transform="translate(495.249 265.273)" fill="#fff"/>
		<rect id="Rectangle_3834" data-name="Rectangle 3834" width="84.336" height="22.153" rx="11.077" transform="translate(435.768 331.314)" fill="#3f3d56"/>
		<rect id="Rectangle_3835" data-name="Rectangle 3835" width="73.341" height="14.742" rx="7.371" transform="translate(441.263 335.023)" opacity="0.1"/>
		<rect id="Rectangle_3836" data-name="Rectangle 3836" width="26.482" height="13.128" rx="6.564" transform="translate(486.285 335.83)" fill="#72aad3"/>
		<ellipse id="Ellipse_1866" data-name="Ellipse 1866" cx="4.075" cy="4.103" rx="4.075" ry="4.103" transform="translate(495.249 338.288)" fill="#fff"/>
		<rect id="Rectangle_3837" data-name="Rectangle 3837" width="49.3" height="13.128" rx="6.564" transform="translate(179.895 98.316)" fill="#72aad3"/>
		<rect id="Rectangle_3838" data-name="Rectangle 3838" width="136.898" height="13.128" rx="6.564" transform="translate(179.895 116.773)" fill="#72aad3"/>
		<rect id="Rectangle_3839" data-name="Rectangle 3839" width="136.898" height="13.128" rx="6.564" transform="translate(179.895 135.236)" fill="#72aad3"/>
		<g id="Group_7735" data-name="Group 7735" transform="translate(179.895 171.331)" opacity="0.5">
			<rect id="Rectangle_3840" data-name="Rectangle 3840" width="49.3" height="13.128" rx="6.564" fill="#72aad3"/>
			<rect id="Rectangle_3841" data-name="Rectangle 3841" width="102.185" height="13.128" rx="6.564" transform="translate(0 18.463)" fill="#72aad3"/>
			<rect id="Rectangle_3842" data-name="Rectangle 3842" width="136.898" height="13.128" rx="6.564" transform="translate(0 36.92)" fill="#72aad3"/>
		</g>
		<rect id="Rectangle_3843" data-name="Rectangle 3843" width="49.3" height="13.128" rx="6.564" transform="translate(179.895 244.352)" fill="#72aad3"/>
		<rect id="Rectangle_3844" data-name="Rectangle 3844" width="136.898" height="13.128" rx="6.564" transform="translate(179.895 262.809)" fill="#72aad3"/>
		<rect id="Rectangle_3845" data-name="Rectangle 3845" width="85.052" height="13.128" rx="6.564" transform="translate(179.895 281.272)" fill="#72aad3"/>
		<rect id="Rectangle_3846" data-name="Rectangle 3846" width="49.3" height="13.128" rx="6.564" transform="translate(179.895 317.367)" fill="#72aad3"/>
		<rect id="Rectangle_3847" data-name="Rectangle 3847" width="136.898" height="13.128" rx="6.564" transform="translate(179.895 335.83)" fill="#72aad3"/>
		<rect id="Rectangle_3848" data-name="Rectangle 3848" width="110.14" height="13.128" rx="6.564" transform="translate(179.895 354.287)" fill="#72aad3"/>
		<line id="Line_5986" data-name="Line 5986" x2="399.848" transform="translate(158.805 159.886)" fill="none" stroke="#3f3d56" stroke-linecap="round" stroke-miterlimit="10" stroke-width="1" opacity="0.7"/>
		<line id="Line_5987" data-name="Line 5987" x2="398.951" transform="translate(159.091 234.403)" fill="none" stroke="#3f3d56" stroke-linecap="round" stroke-miterlimit="10" stroke-width="1" opacity="0.7"/>
		<line id="Line_5988" data-name="Line 5988" x2="399.848" transform="translate(158.805 309.304)" fill="none" stroke="#3f3d56" stroke-linecap="round" stroke-miterlimit="10" stroke-width="1" opacity="0.7"/>
		<line id="Line_5989" data-name="Line 5989" x2="398.951" transform="translate(159.091 384.72)" fill="none" stroke="#3f3d56" stroke-linecap="round" stroke-miterlimit="10" stroke-width="1" opacity="0.7"/>
		<ellipse id="Ellipse_1867" data-name="Ellipse 1867" cx="90.364" cy="6.469" rx="90.364" ry="6.469" transform="translate(396.087 417.063)" fill="#72aad3" opacity="0.1"/>
		<ellipse id="Ellipse_1868" data-name="Ellipse 1868" cx="13.235" cy="13.325" rx="13.235" ry="13.325" transform="translate(29.915 73.649)" fill="#72aad3" opacity="0.1"/>
		<ellipse id="Ellipse_1869" data-name="Ellipse 1869" cx="13.235" cy="13.325" rx="13.235" ry="13.325" transform="translate(85.077 0)" fill="#72aad3" opacity="0.1"/>
		<ellipse id="Ellipse_1870" data-name="Ellipse 1870" cx="22.181" cy="22.332" rx="22.181" ry="22.332" transform="translate(71.646 41.59)" fill="#72aad3" opacity="0.1"/>
		<rect id="Rectangle_3849" data-name="Rectangle 3849" width="84.336" height="22.153" rx="11.077" transform="translate(435.768 185.278)" fill="#3f3d56"/>
		<rect id="Rectangle_3850" data-name="Rectangle 3850" width="73.341" height="14.742" rx="7.371" transform="translate(441.263 188.987)" opacity="0.1"/>
		<path id="Path_18636" data-name="Path 18636" d="M740.075,622.778c.961-.142,1.921-.339,2.864-.56a9.046,9.046,0,0,1-.808,2.735c-.936,1.787-2.766,2.865-4.448,3.961a1.369,1.369,0,0,0-1.738-.117c-2.026,1.232-3.641,2.969-5.788,4.029-.753.37-1.536.665-2.27,1.078a12.284,12.284,0,0,0-4.283,4.454c-.612.955-1.108,2.212-.508,3.16a2.724,2.724,0,0,0,.869.782,4.918,4.918,0,0,0,2.98.893c.612-.055,1.224-.289,1.891-.394.838-.148,1.695-.074,2.539-.148a14.774,14.774,0,0,0,3.573-.93l4.2-1.479a24.18,24.18,0,0,0,3.457-1.429c.667-.364,1.3-.789,1.976-1.121a15.829,15.829,0,0,1,2.362-.838l2.386-.7a2.309,2.309,0,0,1,1.077-.142c.33.062.612.271.948.357a2.846,2.846,0,0,0,1.53-.148l2.766-.788a5.2,5.2,0,0,0,1.646-.69c1.267-.906,1.493-2.7,1.487-4.275a32.594,32.594,0,0,0-.8-7.072,2.185,2.185,0,0,0-.9.684,13.186,13.186,0,0,0-.912-1.152,13.772,13.772,0,0,1-2.76-5.132,9.011,9.011,0,0,0,2.448-2.785c-1.463-5.612-2.962-11.311-5.936-16.264-.973-1.614-2.086-3.13-3.059-4.719-2.894-4.621-3.488-10.473-6.8-14.786a2.577,2.577,0,0,1,0-3.006c.379-.505.991-.98.875-1.608-.086-.45-.551-.863-.373-1.282.086-.2.294-.314.453-.462.563-.53.49-1.423.545-2.2.122-1.959,1.279-3.7,2.392-5.273a3.236,3.236,0,0,1,.881-.961c.3-.185.655-.271.954-.456,1.052-.672.979-2.23,1.481-3.388.661-1.528,2.325-2.3,3.414-3.536,1.389-1.577,1.744-3.77,3.206-5.144a3.765,3.765,0,0,1,.483-.394,24.955,24.955,0,0,0-.863,7.177c-.141,8.335,1.915,16.96.955,25.258-.759,6.567,3.225,13.116,8.872,16.4a42.25,42.25,0,0,0,6.908,2.951c3.537,1.275,7.061,2.587,10.531,4.054q3.671,1.552,7.245,3.333a90.016,90.016,0,0,1,8.566,4.811c3.4,2.2,6.81,4.429,9.227,7.713a7.278,7.278,0,0,0,4.075-1.51c.93.739,2.056,1.3,2.931,2.119a8.929,8.929,0,0,1,2.325,4.6h-.367c.043.819.079,1.639.122,2.464a1.055,1.055,0,0,1-.092.616,1.113,1.113,0,0,1-.331.3l-1.884,1.288c-1.371.93-2.882,2.107-2.955,3.776a1.931,1.931,0,0,0,.41,1.349,2.879,2.879,0,0,0,1.677.764c3.28.7,6.639,1.374,9.962.924a6.533,6.533,0,0,0,4.24-1.971,8.491,8.491,0,0,0,1.481-4.091c.41-2.464.753-4.984,1.022-7.485a16.649,16.649,0,0,1,1.016-4.971.615.615,0,0,1,.263-.333c.141-.062.306,0,.453-.062s.245-.29.294-.474a29.579,29.579,0,0,0,.875-7.442,5.045,5.045,0,0,0-.288-1.916,3.846,3.846,0,0,0-2.619-2.033,20.748,20.748,0,0,0-3.384-.407,16.69,16.69,0,0,1-2.809-.517,2.554,2.554,0,0,0-1.169-.154.824.824,0,0,0-.71.819,1.058,1.058,0,0,0,.147.4l-.954-.191c-.771-.142-1.836-.481-2.992-.764a5.357,5.357,0,0,1,.037-.616,1.165,1.165,0,0,0-.649-1.06l-16.166-8.7-3.023-1.626c-6.621-3.567-13.462-6.863-20.1-10.43-.441.135-.808-.376-.936-.832s-.22-1-.642-1.2c-.208-.1-.483-.092-.612-.271a.738.738,0,0,1-.116-.548c.214-3.247,2.521-6.241,2.062-9.456-.2-1.374-.9-2.729-.612-4.078a19.379,19.379,0,0,1,1.224-2.575c.8-1.984,0-4.368.869-6.308a14.678,14.678,0,0,0,1.169-4.017,27.736,27.736,0,0,1,2.448-7.972,14.393,14.393,0,0,1,2.276-3.493c.483-.53,1.028-1,1.493-1.552a13.031,13.031,0,0,0,2.325-6.16c.722-3.949,1.224-8.046.318-11.964a17.216,17.216,0,0,1-.753-4.023c0-1.639.655-3.518-.135-4.83a4.257,4.257,0,0,0,1.523-2.631,3.414,3.414,0,0,1,.214-1.09,3.152,3.152,0,0,1,1.022-.924,4.272,4.272,0,0,0,1.579-4.232c.838.382,1.719-.475,2.117-1.318s.7-1.848,1.548-2.23a12.65,12.65,0,0,1,1.836-.259c.973-.253,1.566-1.232,2.252-1.953,1.4-1.516,3.371-2.3,5.2-3.228,5.421-2.778,9.839-7.171,14.165-11.5a48.179,48.179,0,0,0,6.119-6.937c.483-.721.924-1.466,1.34-2.23l.11-.056.037.136c.067.271.147.542.226.807.2.616.416,1.275.612,1.9a14.309,14.309,0,0,0,2.723,5.218,6.411,6.411,0,0,0,1.4,1.09,9.315,9.315,0,0,0,3.592,1.084c.477.062.961.1,1.444.123s.967.043,1.444.055l9.9.265c-3.4-4.965-3.671-11.422-3.445-17.465.569-15.525,3.573-31.191.783-46.469a11.964,11.964,0,0,0-1.9-5.181c-1.469-1.941-3.879-2.877-6.229-3.425s-4.791-.813-6.988-1.805c-1.836-.844-3.524-2.2-5.507-2.643a12.047,12.047,0,0,0-4.406.074q-2.68.4-5.33.949l-.428.092h.018l-.294.068h-.079l-.263.062h-.1l-.245.068-.11.031-.226.074-.128.043-.208.068-.135.056-.2.074-.147.062-.177.08-.147.074-.165.08-.147.086-.153.086-.147.1-.141.092-.147.1-.122.1-.141.123-.116.1a1.5,1.5,0,0,0-.135.142l-.1.1a1.865,1.865,0,0,0-.135.173c0,.031-.055.062-.08.1s-.11.16-.165.253v.037a3.757,3.757,0,0,0-.337.733c-.043.129-.086.259-.116.388a5.934,5.934,0,0,0-.135.8,1.886,1.886,0,0,1-.03.413v.819a12.191,12.191,0,0,0,.153,1.38,15.068,15.068,0,0,0-.71,25.4,6.8,6.8,0,0,1,.049.733v.16a20.452,20.452,0,0,1-.269,2.6,35.652,35.652,0,0,0-7.343-.659c-1.469,0-2.949.135-4.43.252a67.151,67.151,0,0,1-4.43-6.037l-3.268-4.824a46.022,46.022,0,0,1-3.059-4.928c-.8-1.565-1.426-3.228-2.319-4.744-1.836-3.124-4.834-5.779-5.207-9.395l-.863.179c-.471-.776-1.065-1.6-1.285-2.045a40.583,40.583,0,0,1-2.717-8.009,12.365,12.365,0,0,0-1.3-4.152,9.332,9.332,0,0,0-1.9-2.033,12.576,12.576,0,0,0-4.075-2.587,5.236,5.236,0,0,0-4.167.246,6.112,6.112,0,0,0-.612-.246,5.02,5.02,0,0,0-4.626.542,6.279,6.279,0,0,0-2.031,4.312,10.708,10.708,0,0,0,1.089,6.542c1.224,2.205,3.414,3.7,5.225,5.446a21.283,21.283,0,0,1,3.286,4.115,45.387,45.387,0,0,1-.251,9.986c-.233,1.417-.612,2.809-.722,4.238-.447,5.163,2.221,10.325,1.266,15.4a3.768,3.768,0,0,0,1.732,3.986,18.981,18.981,0,0,0,4.479,1.232c2.956.764,5.507,2.668,8.493,3.376,1.377.333,2.809.394,4.179.764l.214.068a10.048,10.048,0,0,0-2.2,4.2c-.612,2.587-.037,5.354-.649,7.941a17.744,17.744,0,0,1-3,5.8q-3.586,5.224-7.183,10.473a64.131,64.131,0,0,1-5.293,7c-3.3,3.629-8.989,6.506-10.665,10.867-.037-.1-.086-.209-.122-.314-2.374,1.756-3.261,5.027-5.152,7.3-.924,1.1-2.062,2-3.059,3.019a34.79,34.79,0,0,0-3.384,4.232,75.207,75.207,0,0,0-7.661,12.284c-1.052,2.292-1.866,4.676-2.7,7.048-3.292,9.345-8.664,18.211-10.9,27.876-.545,2.359-1.97,4.491-2.184,6.906-.239,2.575.93,5.052,2.141,7.325,1.836,3.474,3.879,6.85,5.507,10.423.96,2.082,1.793,4.233,2.864,6.265,1.169,2.218,2.6,4.275,3.824,6.462C736.777,610.457,738.49,616.661,740.075,622.778Zm40.483-176.53-.294-.148a10.135,10.135,0,0,1-2.968-1.978c-2.637-2.834-3.769-7.1-4.6-10.917-.1-.456-.184-.906-.263-1.361a65.648,65.648,0,0,1,8.12,14.416Z" transform="translate(-296.352 -215.566)" fill="url(#linear-gradient)"/>
		<path id="Path_18637" data-name="Path 18637" d="M790.751,409.767a12.147,12.147,0,0,0-1.3-4.121,9.31,9.31,0,0,0-1.909-2.021,12.677,12.677,0,0,0-4.087-2.569,5.073,5.073,0,0,0-4.626.536,6.235,6.235,0,0,0-2.038,4.312,10.578,10.578,0,0,0,1.089,6.5c1.254,2.193,3.42,3.659,5.238,5.409a21.161,21.161,0,0,1,3.414,4.312,12.431,12.431,0,0,0,1.554,2.292,2.951,2.951,0,0,0,2.447.992,4.278,4.278,0,0,0,2-1.189c.747-.659,2.753-1.848,2.815-2.877.049-.844-1.517-2.754-1.9-3.548A40.49,40.49,0,0,1,790.751,409.767Z" transform="translate(-318.57 -216.079)" fill="#fbbebe"/>
		<path id="Path_18638" data-name="Path 18638" d="M790.751,409.767a12.147,12.147,0,0,0-1.3-4.121,9.31,9.31,0,0,0-1.909-2.021,12.677,12.677,0,0,0-4.087-2.569,5.073,5.073,0,0,0-4.626.536,6.235,6.235,0,0,0-2.038,4.312,10.578,10.578,0,0,0,1.089,6.5c1.254,2.193,3.42,3.659,5.238,5.409a21.161,21.161,0,0,1,3.414,4.312,12.431,12.431,0,0,0,1.554,2.292,2.951,2.951,0,0,0,2.447.992,4.278,4.278,0,0,0,2-1.189c.747-.659,2.753-1.848,2.815-2.877.049-.844-1.517-2.754-1.9-3.548A40.49,40.49,0,0,1,790.751,409.767Z" transform="translate(-318.57 -216.079)" opacity="0.1"/>
		<path id="Path_18639" data-name="Path 18639" d="M838.591,463a35.8,35.8,0,0,0-9.9-1.232c-5.574.08-11.314,1.442-16.625-.283a28.922,28.922,0,0,1-3.977-1.706,10.139,10.139,0,0,1-2.974-1.965c-2.643-2.815-3.781-7.06-4.6-10.843a72.808,72.808,0,0,1-1.254-11.539,8.726,8.726,0,0,1-4.344,1.152c-1.511-.129-3.059-1.3-3.059-2.828a47.12,47.12,0,0,1-.2,10.75c-.233,1.4-.612,2.791-.716,4.208-.453,5.132,2.221,10.257,1.266,15.315a3.706,3.706,0,0,0,1.732,3.955,19.334,19.334,0,0,0,4.485,1.232c2.955.758,5.507,2.649,8.505,3.358,1.377.327,2.815.388,4.185.758,1.952.524,3.732,1.651,5.727,2,1.493.271,3.059.086,4.546.216,1.316.111,2.6.456,3.922.493,3.231.08,6.278-1.756,8.42-4.2S837.232,465.943,838.591,463Z" transform="translate(-324.085 -228.762)" fill="#f86d70"/>
		<path id="Path_18640" data-name="Path 18640" d="M838.591,463a35.8,35.8,0,0,0-9.9-1.232c-5.574.08-11.314,1.442-16.625-.283a28.922,28.922,0,0,1-3.977-1.706,10.139,10.139,0,0,1-2.974-1.965c-2.643-2.815-3.781-7.06-4.6-10.843a72.808,72.808,0,0,1-1.254-11.539,8.726,8.726,0,0,1-4.344,1.152c-1.511-.129-3.059-1.3-3.059-2.828a47.12,47.12,0,0,1-.2,10.75c-.233,1.4-.612,2.791-.716,4.208-.453,5.132,2.221,10.257,1.266,15.315a3.706,3.706,0,0,0,1.732,3.955,19.334,19.334,0,0,0,4.485,1.232c2.955.758,5.507,2.649,8.505,3.358,1.377.327,2.815.388,4.185.758,1.952.524,3.732,1.651,5.727,2,1.493.271,3.059.086,4.546.216,1.316.111,2.6.456,3.922.493,3.231.08,6.278-1.756,8.42-4.2S837.232,465.943,838.591,463Z" transform="translate(-324.085 -228.762)" opacity="0.1"/>
		<path id="Path_18641" data-name="Path 18641" d="M876.038,737.919a8.334,8.334,0,0,1,2.857.9,6.772,6.772,0,0,1,2.484,3.376,29.486,29.486,0,0,1,1.67,10.541,22.835,22.835,0,0,1-1.077,8.545,5.447,5.447,0,0,1-1.413,2.237,5.087,5.087,0,0,1-1.946.949,5.184,5.184,0,0,1-4.565-.567c-1.4-1.1-1.744-3.037-2.038-4.793-.4-2.366-.961-4.885-2.711-6.518-1.3-1.232-3.157-1.848-4.1-3.339-1.126-1.793-.532-4.134.184-6.13.612-1.731,1.536-5.236,3.335-6.124S874.172,737.581,876.038,737.919Z" transform="translate(-352.685 -345.08)" fill="#fbbebe"/>
		<path id="Path_18642" data-name="Path 18642" d="M762.458,750.354a13.673,13.673,0,0,0,2.8,5.242c.8.924,1.793,2.045,1.377,3.191a2.967,2.967,0,0,1-.753,1.016c-5.911,5.816-14.177,8.625-22.377,9.684a.783.783,0,0,1-.4,0c-.239-.1-.3-.413-.324-.678a8.377,8.377,0,0,1,0-2.594c.4-2.014,2.154-3.438,3.873-4.553s3.6-2.187,4.552-4c1.193-2.255.692-5.193,2.111-7.306,1.15-1.719,3.292-2.464,5.329-2.772.7-.111,2.2-.887,2.8-.53S762.25,749.645,762.458,750.354Z" transform="translate(-305.378 -349.013)" fill="#fbbebe"/>
		<path id="Path_18643" data-name="Path 18643" d="M877.819,737.815a.817.817,0,0,1,.71-.813,2.645,2.645,0,0,1,1.169.148,16.1,16.1,0,0,0,2.809.524,20.728,20.728,0,0,1,3.39.4,3.84,3.84,0,0,1,2.625,2.015,5.036,5.036,0,0,1,.288,1.91,29.2,29.2,0,0,1-.875,7.393c-.049.185-.122.4-.3.468s-.306,0-.447.068a.553.553,0,0,0-.263.333,16.369,16.369,0,0,0-1.022,4.928c-.269,2.464-.612,4.965-1.022,7.43a8.2,8.2,0,0,1-1.481,4.066,6.548,6.548,0,0,1-4.246,1.959c-3.328.444-6.688-.228-9.974-.918a2.909,2.909,0,0,1-1.683-.758,1.911,1.911,0,0,1-.41-1.343c.073-1.657,1.591-2.828,2.955-3.752l1.891-1.275a.985.985,0,0,0,.33-.3,1.034,1.034,0,0,0,.092-.616l-.122-2.464A6.928,6.928,0,0,1,878.272,761c.257.524.508,1.134,1.046,1.337a1.382,1.382,0,0,0,1.646-1,4.3,4.3,0,0,0-.055-2.138c-1.107-5.957-.844-12.081-1.517-18.1a4.1,4.1,0,0,0-.612-1.91C878.492,738.77,877.886,738.37,877.819,737.815Z" transform="translate(-353.658 -345.185)" fill="#f86d70"/>
		<rect id="Rectangle_3851" data-name="Rectangle 3851" width="26.482" height="13.128" rx="6.564" transform="translate(469.581 202.922) rotate(180)" fill="#72aad3"/>
		<ellipse id="Ellipse_1871" data-name="Ellipse 1871" cx="4.075" cy="4.103" rx="4.075" ry="4.103" transform="translate(452.466 192.252)" fill="#fff"/>
		<path id="Path_18644" data-name="Path 18644" d="M740.355,770.41c-.275.462-.71.819-.967,1.294a1.114,1.114,0,0,0,.208,1.448,1.412,1.412,0,0,0,.875.086,29.346,29.346,0,0,0,15.909-7.257,11.187,11.187,0,0,0,1.952-2.15c.52-.795.961-1.768,1.836-2.1a32.185,32.185,0,0,1,.82,7.054c0,1.565-.22,3.345-1.487,4.251a5.263,5.263,0,0,1-1.652.678l-2.766.788a2.92,2.92,0,0,1-1.536.148c-.324-.086-.612-.3-.948-.357a2.312,2.312,0,0,0-1.077.142l-2.392.7a15.173,15.173,0,0,0-2.362.832c-.685.327-1.315.746-1.982,1.109a23.6,23.6,0,0,1-3.463,1.417l-4.2,1.473a15.177,15.177,0,0,1-3.579.924c-.844.074-1.707,0-2.546.142a17.162,17.162,0,0,1-1.9.394,4.937,4.937,0,0,1-2.98-.887,2.775,2.775,0,0,1-.869-.776c-.612-.943-.08-2.187.508-3.142a12.381,12.381,0,0,1,4.283-4.423c.734-.407,1.524-.7,2.276-1.072,2.148-1.047,3.769-2.8,5.795-3.992C740.025,766.005,741.255,768.919,740.355,770.41Z" transform="translate(-298.505 -354.684)" fill="#f86d70"/>
		<path id="Path_18645" data-name="Path 18645" d="M846.69,486.386a17.411,17.411,0,0,0,7.44,2.914,30.083,30.083,0,0,0,4.21.228,106.282,106.282,0,0,0,17.518-1.472c-2.3-2.557-4.632-5.292-5.507-8.625a14.335,14.335,0,0,1-.269-5.4,40.874,40.874,0,0,1,1.64-6.777,47.191,47.191,0,0,1-7.4-.191c-1.4-.148-4.84-1.429-6.058-.456s-.281,4.109-.263,5.582a1.4,1.4,0,0,1,0,.16,17.92,17.92,0,0,1-1.413,6.518C854.834,482.844,851.04,486.121,846.69,486.386Z" transform="translate(-345.744 -241.233)" fill="#fbbebe"/>
		<path id="Path_18646" data-name="Path 18646" d="M864.951,472.14a14.638,14.638,0,0,0,12.085,1.848,40.874,40.874,0,0,1,1.64-6.777,47.18,47.18,0,0,1-7.4-.191c-1.4-.148-4.84-1.429-6.058-.456S864.933,470.667,864.951,472.14Z" transform="translate(-352.691 -241.218)" opacity="0.1"/>
		<ellipse id="Ellipse_1872" data-name="Ellipse 1872" cx="14.753" cy="14.853" rx="14.753" ry="14.853" transform="translate(505.584 202.947)" fill="#fbbebe"/>
		<path id="Path_18647" data-name="Path 18647" d="M776.09,542.758a6.928,6.928,0,0,0,3.329,5.957,13.213,13.213,0,0,0,3.61,1.281c6.731,1.639,13.657,2.957,20.59,2.557a11.248,11.248,0,0,0,4.369-.924,4.713,4.713,0,0,0,2.7-3.394,3.21,3.21,0,0,1,.208-1.078,3.133,3.133,0,0,1,1.022-.918,4.228,4.228,0,0,0,1.585-4.2c.838.382,1.719-.474,2.117-1.312s.7-1.848,1.548-2.212a12.68,12.68,0,0,1,1.836-.259c.973-.253,1.567-1.232,2.252-1.941,1.4-1.5,3.384-2.279,5.207-3.21,5.434-2.754,9.857-7.121,14.2-11.415a47.79,47.79,0,0,0,6.119-6.888,25.371,25.371,0,0,0,1.346-2.218,62.949,62.949,0,0,0,3.4-7.83,9.085,9.085,0,0,0,.881-4.485,2.048,2.048,0,0,0-.08-.413,8.651,8.651,0,0,0-1.34-2.723c-1.5-2.218-3.463-4.312-6.046-5s-5.152.142-7.777.7a19.365,19.365,0,0,1-2.637.407,24.625,24.625,0,0,1-8.212-1.3l-2.925-.813c-1.463-.407-2.2-2.187-3.671-2.5a4.935,4.935,0,0,0-1.989.1,27.279,27.279,0,0,0-8.689,2.858,13.049,13.049,0,0,0-1.689,1.158,10.766,10.766,0,0,0-3.928,5.834c-.612,2.569-.037,5.317-.648,7.886a17.6,17.6,0,0,1-3,5.754l-7.208,10.393a64.078,64.078,0,0,1-5.3,6.949C783.377,533.807,776.194,537,776.09,542.758Z" transform="translate(-318.343 -249.805)" fill="#f86d70"/>
		<path id="Path_18648" data-name="Path 18648" d="M798.6,409.767a12.145,12.145,0,0,0-1.3-4.121,9.312,9.312,0,0,0-1.909-2.021,12.677,12.677,0,0,0-4.087-2.569,5.074,5.074,0,0,0-4.626.536,6.236,6.236,0,0,0-2.037,4.312,10.578,10.578,0,0,0,1.089,6.5c1.224,2.193,3.42,3.659,5.238,5.409a21.168,21.168,0,0,1,3.414,4.312,12.448,12.448,0,0,0,1.554,2.292,2.951,2.951,0,0,0,2.448.992,4.278,4.278,0,0,0,2-1.189c.746-.659,2.753-1.848,2.814-2.877.049-.844-1.517-2.754-1.9-3.548A40.5,40.5,0,0,1,798.6,409.767Z" transform="translate(-321.617 -216.079)" fill="#fbbebe"/>
		<path id="Path_18649" data-name="Path 18649" d="M721.434,647.618c1.836,3.45,3.879,6.776,5.537,10.35.961,2.076,1.793,4.208,2.864,6.228,1.169,2.2,2.607,4.245,3.83,6.413,3.059,5.483,4.791,11.668,6.376,17.761a34.963,34.963,0,0,0,12.556-4.448,7.95,7.95,0,0,0,.753-.487,8.928,8.928,0,0,0,2.533-2.815c-1.462-5.545-2.962-11.231-5.942-16.153-.973-1.6-2.086-3.081-3.059-4.688-2.894-4.589-3.494-10.374-6.8-14.668a2.527,2.527,0,0,1,0-2.982c.379-.5.991-.973.875-1.6-.086-.45-.551-.857-.373-1.275.086-.2.294-.314.453-.462.563-.518.489-1.411.545-2.175.122-1.947,1.279-3.653,2.4-5.243a3.279,3.279,0,0,1,.881-.955c.3-.185.655-.271.954-.456,1.053-.659.979-2.212,1.487-3.364.661-1.516,2.325-2.286,3.421-3.512,1.389-1.565,1.738-3.74,3.206-5.107a4.355,4.355,0,0,1,.483-.394,24.615,24.615,0,0,0-.863,7.152c-.141,8.28,1.915,16.843.954,25.067-.759,6.518,3.231,13.024,8.885,16.289a42.85,42.85,0,0,0,6.92,2.932c3.537,1.263,7.073,2.563,10.543,4.023,2.448,1.023,4.895,2.132,7.257,3.308a89.13,89.13,0,0,1,8.566,4.781c3.408,2.181,6.822,4.4,9.239,7.658a8.276,8.276,0,0,0,5.972-3.308,23.252,23.252,0,0,0,3.267-6.228,17.394,17.394,0,0,0,1.554-5.871,1.172,1.172,0,0,0-.648-1.054l-16.191-8.625-3.059-1.614c-6.627-3.542-13.462-6.82-20.125-10.356-.447.129-.814-.382-.943-.826s-.22-1-.642-1.2c-.214-.1-.483-.1-.612-.271a.742.742,0,0,1-.11-.542c.214-3.228,2.527-6.2,2.062-9.395-.2-1.368-.9-2.711-.612-4.048a18.821,18.821,0,0,1,1.224-2.562c.789-1.971,0-4.313.869-6.266a14.447,14.447,0,0,0,1.169-3.992,27.167,27.167,0,0,1,2.478-7.91,14.29,14.29,0,0,1,2.276-3.475c.49-.524,1.034-1,1.493-1.54a12.913,12.913,0,0,0,2.331-6.087c.722-3.924,1.224-8.009.318-11.884a17.008,17.008,0,0,1-.753-4c0-1.793.8-3.893-.434-5.193a4.028,4.028,0,0,0-1.836-.936,54.974,54.974,0,0,0-8.781-1.633l-13.5-1.768a12.342,12.342,0,0,1-4.5-1.177,9.02,9.02,0,0,1-3.794-4.879c-2.374,1.743-3.268,4.99-5.158,7.245-.924,1.1-2.062,1.99-3.059,3a33.9,33.9,0,0,0-3.39,4.208,74.819,74.819,0,0,0-7.679,12.2c-1.046,2.273-1.836,4.645-2.7,7-3.3,9.284-8.677,18.093-10.91,27.685-.551,2.347-1.976,4.46-2.19,6.863C719.047,642.912,720.216,645.376,721.434,647.618Z" transform="translate(-296.288 -281.904)" fill="#434175"/>
		<path id="Path_18650" data-name="Path 18650" d="M837.259,568.072a4.237,4.237,0,0,1,.5,2.008c-.3-1.5-2.356-2.335-2.484-3.82-.061-.684.061-.653.483-.29C836.4,566.508,836.672,567.481,837.259,568.072Z" transform="translate(-341.306 -279.426)" opacity="0.1"/>
		<path id="Path_18651" data-name="Path 18651" d="M827.47,576.64a3.173,3.173,0,0,1,.936,1.392,3.564,3.564,0,0,1,.184,2.421c-.3-.142-.4-.511-.5-.838a5.79,5.79,0,0,0-.612-1.436c-.245-.388-1.364-1.312-1.352-1.737C826.111,575.8,827.17,576.412,827.47,576.64Z" transform="translate(-337.764 -283.435)" opacity="0.1"/>
		<path id="Path_18652" data-name="Path 18652" d="M827.14,492.712a15.422,15.422,0,0,0,3.108,2.082c2.925,1.491,6.162,2.273,9.1,3.7a44.074,44.074,0,0,1,4.222,2.464c2.919,1.848,5.831,3.7,8.744,5.575A9.649,9.649,0,0,1,854.247,508c1.052,1.134,1.046,3.08,2.007,4.312a5.736,5.736,0,0,0,4.24,1.971,13.684,13.684,0,0,0,4.73-.8,23.249,23.249,0,0,0,2.7-.992A12.5,12.5,0,0,0,870.523,511a7.516,7.516,0,0,0,3.06-4.861,9.663,9.663,0,0,0-.52-3.967,15.533,15.533,0,0,0-.93-2.409,9.379,9.379,0,0,0-.747-1.263c-2.007-2.865-5.544-4.214-8.964-4.885-1.805-.351-3.641-.567-5.452-.875a19.351,19.351,0,0,1-2.637.407,24.624,24.624,0,0,1-8.212-1.3l-2.925-.813c-1.463-.407-2.2-2.187-3.671-2.5a4.937,4.937,0,0,0-1.989.1,27.277,27.277,0,0,0-8.689,2.859A13.053,13.053,0,0,0,827.14,492.712Z" transform="translate(-338.156 -249.771)" opacity="0.1"/>
		<path id="Path_18653" data-name="Path 18653" d="M808.834,431.36c.373,3.592,3.384,6.228,5.219,9.327.894,1.509,1.518,3.16,2.319,4.719a46.287,46.287,0,0,0,3.06,4.929l3.274,4.787a49.477,49.477,0,0,0,6.333,8.009c4.283.733,7.893,3.943,11.962,5.5,3.261,1.232,6.81,1.417,10.231,2.088s6.957,2.015,8.964,4.885a12.877,12.877,0,0,1,1.677,3.7,9.632,9.632,0,0,1,.52,3.961,7.515,7.515,0,0,1-3.059,4.867,16.906,16.906,0,0,1-5.293,2.464,13.83,13.83,0,0,1-4.73.8,5.76,5.76,0,0,1-4.246-1.971c-.955-1.232-.948-3.2-2-4.312a9.648,9.648,0,0,0-1.927-1.472l-8.744-5.544a44.109,44.109,0,0,0-4.222-2.464c-2.943-1.448-6.18-2.23-9.1-3.7s-5.648-3.949-6.223-7.2c-1.78-9.974-8.64-18.383-14.5-26.62.19-.037.134-.48.2-.665a8.6,8.6,0,0,1,4.283-4.362A21.521,21.521,0,0,1,808.834,431.36Z" transform="translate(-326.979 -227.84)" fill="#f86d70"/>
		<path id="Path_18654" data-name="Path 18654" d="M865.982,427.186a5.5,5.5,0,0,1,.612-3.13c.973-1.626,3-2.2,4.852-2.581s3.549-.678,5.336-.936a12.216,12.216,0,0,1,4.412-.08c1.995.443,3.672,1.793,5.507,2.624,2.2.992,4.65,1.232,7,1.8s4.766,1.472,6.241,3.4a11.838,11.838,0,0,1,1.9,5.144c2.8,15.173-.214,30.735-.783,46.155-.227,6,.043,12.414,3.451,17.348l-9.919-.265c-2.539-.068-5.268-.2-7.263-1.78-1.762-1.386-2.594-3.622-3.341-5.735A17.964,17.964,0,0,1,882.717,484c-.153-3.622,1.891-7.177,1.224-10.744-.5-2.661-2.448-4.818-4.479-6.561s-4.344-3.265-6.015-5.39c-2.968-3.789-3.537-8.957-3.17-13.769.22-2.858.734-5.723.483-8.582a10.844,10.844,0,0,0-2.246-6.013C866.955,431.049,866.129,429.866,865.982,427.186Z" transform="translate(-353.22 -223.592)" fill="#434175"/>
		<path id="Path_18655" data-name="Path 18655" d="M866.592,424.807c.954-1.6,2.937-2.181,4.754-2.557a4.7,4.7,0,0,0-2.356,1.848,5.576,5.576,0,0,0-.612,3.136c.135,2.68.961,3.863,2.539,5.76a10.789,10.789,0,0,1,2.252,6.013c.245,2.858-.263,5.717-.483,8.582-.373,4.805.2,9.98,3.17,13.769,1.664,2.125,3.959,3.641,6.015,5.39s3.983,3.9,4.479,6.561c.661,3.561-1.383,7.122-1.224,10.744a17.659,17.659,0,0,0,1.266,5.138c.753,2.119,1.585,4.356,3.341,5.742,1.995,1.577,4.73,1.713,7.269,1.78l7.025.185c.153.259.318.518.489.77L894.6,497.4c-2.539-.068-5.268-.2-7.263-1.781-1.762-1.386-2.594-3.622-3.341-5.735a17.958,17.958,0,0,1-1.273-5.144c-.153-3.622,1.891-7.177,1.224-10.744-.5-2.661-2.448-4.818-4.479-6.561s-4.344-3.265-6.015-5.391c-2.968-3.789-3.537-8.957-3.17-13.769.22-2.858.734-5.723.484-8.582a10.844,10.844,0,0,0-2.246-6.013c-1.579-1.9-2.4-3.08-2.545-5.76a5.494,5.494,0,0,1,.618-3.117Z" transform="translate(-353.218 -224.342)" opacity="0.1"/>
		<path id="Path_18656" data-name="Path 18656" d="M745.22,661.72l18.222,44.695a8.923,8.923,0,0,0,2.533-2.815c-1.462-5.544-2.961-11.231-5.941-16.153-.973-1.6-2.087-3.08-3.06-4.688-2.894-4.59-3.494-10.374-6.8-14.668a2.527,2.527,0,0,1,0-2.982c.379-.5.991-.974.875-1.6-.086-.45-.551-.856-.373-1.275.086-.2.293-.314.453-.462.563-.518.49-1.411.545-2.175.122-1.947,1.279-3.653,2.4-5.242a3.281,3.281,0,0,1,.881-.955c.3-.185.655-.271.954-.456,1.052-.659.979-2.212,1.487-3.364.661-1.516,2.325-2.286,3.42-3.512,1.389-1.565,1.738-3.739,3.206-5.107l.129-.321-1.377-8.625Z" transform="translate(-306.362 -304.883)" opacity="0.1"/>
		<ellipse id="Ellipse_1873" data-name="Ellipse 1873" cx="20.774" cy="4.023" rx="20.774" ry="4.023" transform="translate(577.071 402.173)" fill="#72aad3"/>
		<ellipse id="Ellipse_1874" data-name="Ellipse 1874" cx="2.417" cy="3.185" rx="2.417" ry="3.185" transform="translate(595.776 401.298)" fill="#3f3d56"/>
		<ellipse id="Ellipse_1875" data-name="Ellipse 1875" cx="2.417" cy="3.185" rx="2.417" ry="3.185" transform="translate(595.776 397.405)" fill="#3f3d56"/>
		<ellipse id="Ellipse_1876" data-name="Ellipse 1876" cx="2.417" cy="3.185" rx="2.417" ry="3.185" transform="translate(595.776 393.505)" fill="#3f3d56"/>
		<ellipse id="Ellipse_1877" data-name="Ellipse 1877" cx="2.417" cy="3.185" rx="2.417" ry="3.185" transform="translate(595.776 389.611)" fill="#3f3d56"/>
		<ellipse id="Ellipse_1878" data-name="Ellipse 1878" cx="2.417" cy="3.185" rx="2.417" ry="3.185" transform="translate(595.776 385.712)" fill="#3f3d56"/>
		<ellipse id="Ellipse_1879" data-name="Ellipse 1879" cx="2.417" cy="3.185" rx="2.417" ry="3.185" transform="translate(595.776 381.818)" fill="#3f3d56"/>
		<ellipse id="Ellipse_1880" data-name="Ellipse 1880" cx="2.417" cy="3.185" rx="2.417" ry="3.185" transform="translate(595.776 377.925)" fill="#3f3d56"/>
		<path id="Path_18657" data-name="Path 18657" d="M989.248,664.559a11.621,11.621,0,0,1-.9-1.337l6.351-1.053-6.872.056a11.779,11.779,0,0,1-.22-9.241l9.221,4.811-8.505-6.29a11.554,11.554,0,0,1,20.6.975,11.733,11.733,0,0,1-1.471,12.079,11.314,11.314,0,0,1,1.322,2.125L1000.531,671l8.8-2.969a11.824,11.824,0,0,1,.612,3.739,11.664,11.664,0,0,1-2.484,7.214,11.719,11.719,0,0,1-1.246,15.776,11.526,11.526,0,0,1-15.718,0,11.719,11.719,0,0,1-1.246-15.776,11.73,11.73,0,0,1,0-14.422Z" transform="translate(-400.111 -310.112)" fill="#72aad3"/>
		<path id="Path_18658" data-name="Path 18658" d="M1009.942,687.943a11.664,11.664,0,0,1-2.484,7.214,11.719,11.719,0,0,1-1.246,15.776,11.526,11.526,0,0,1-15.718,0,11.719,11.719,0,0,1-1.246-15.776C987.694,693.174,1009.942,686.637,1009.942,687.943Z" transform="translate(-400.111 -326.288)" opacity="0.1"/>
		<ellipse id="Ellipse_1881" data-name="Ellipse 1881" cx="13.969" cy="2.704" rx="13.969" ry="2.704" transform="translate(624.333 358.815)" fill="#72aad3"/>
		<ellipse id="Ellipse_1882" data-name="Ellipse 1882" cx="1.628" cy="2.144" rx="1.628" ry="2.144" transform="translate(636.914 358.23)" fill="#3f3d56"/>
		<ellipse id="Ellipse_1883" data-name="Ellipse 1883" cx="1.628" cy="2.144" rx="1.628" ry="2.144" transform="translate(636.914 355.611)" fill="#3f3d56"/>
		<ellipse id="Ellipse_1884" data-name="Ellipse 1884" cx="1.628" cy="2.144" rx="1.628" ry="2.144" transform="translate(636.914 352.987)" fill="#3f3d56"/>
		<ellipse id="Ellipse_1885" data-name="Ellipse 1885" cx="1.628" cy="2.144" rx="1.628" ry="2.144" transform="translate(636.914 350.369)" fill="#3f3d56"/>
		<ellipse id="Ellipse_1886" data-name="Ellipse 1886" cx="1.628" cy="2.144" rx="1.628" ry="2.144" transform="translate(636.914 347.751)" fill="#3f3d56"/>
		<ellipse id="Ellipse_1887" data-name="Ellipse 1887" cx="1.628" cy="2.144" rx="1.628" ry="2.144" transform="translate(636.914 345.132)" fill="#3f3d56"/>
		<ellipse id="Ellipse_1888" data-name="Ellipse 1888" cx="1.628" cy="2.144" rx="1.628" ry="2.144" transform="translate(636.914 342.508)" fill="#3f3d56"/>
		<path id="Path_18659" data-name="Path 18659" d="M1060.542,623.413a6.8,6.8,0,0,1-.612-.9l4.283-.708-4.62.037a7.822,7.822,0,0,1-.716-3.277,7.922,7.922,0,0,1,.563-2.939l6.2,3.24-5.721-4.232a7.766,7.766,0,0,1,13.873.642,7.886,7.886,0,0,1-1.024,8.137,7.748,7.748,0,0,1,.887,1.429l-5.544,2.9,5.911-2a7.911,7.911,0,0,1-1.254,7.393,7.887,7.887,0,0,1-.826,10.625,7.757,7.757,0,0,1-10.585,0,7.887,7.887,0,0,1-.826-10.625,7.873,7.873,0,0,1,0-9.7Z" transform="translate(-428.09 -296.682)" fill="#72aad3"/>
		<path id="Path_18660" data-name="Path 18660" d="M1074.458,639.158a7.867,7.867,0,0,1-1.664,4.848,7.887,7.887,0,0,1-.826,10.625,7.757,7.757,0,0,1-10.585,0,7.887,7.887,0,0,1-.826-10.625C1059.5,642.67,1074.458,638.277,1074.458,639.158Z" transform="translate(-428.097 -307.579)" opacity="0.1"/>
	</g>
</svg>
