<svg xmlns="http://www.w3.org/2000/svg" width="300" height="150" viewBox="0 0 500 348">
  <g id="undraw_not_found_60pq" transform="translate(0 0)">
    <ellipse id="Ellipse_2005" data-name="Ellipse 2005" cx="28.556" cy="28.63" rx="28.556" ry="28.63" transform="translate(66.301 17.447)" fill="#e6a744"/>
    <path id="Path_19433" data-name="Path 19433" d="M341.586,214.537c0,67.555-40.056,91.142-89.469,91.142s-89.469-23.588-89.469-91.142,89.469-153.5,89.469-153.5S341.586,146.982,341.586,214.537Z" transform="translate(-107.792 -61.042)" fill="#aeb3ba" opacity="0.5"/>
    <path id="Path_19434" data-name="Path 19434" d="M271.524,234.3l.916-56.537,38.133-69.945L272.584,168.9,273,143.476l26.282-50.6L273.1,136.749h0l.741-45.722L301.989,50.74l-28.026,33.1L274.425,0l-2.909,110.986.239-4.579L243.142,62.5,271.3,115.2l-2.666,51.063-.079-1.355-32.986-46.209,32.886,51-.333,6.386-.06.1.027.524-6.048,116.782,8.532-.241.873-53.906,32.8-50.873Z" transform="translate(-130.458 0)" fill="#3f3d56"/>
    <path id="Path_19435" data-name="Path 19435" d="M978.5,310.8c0,55.3-32.788,74.6-73.234,74.6s-73.234-19.308-73.234-74.6,73.234-125.643,73.234-125.643S978.5,255.5,978.5,310.8Z" transform="translate(-478.502 -129.632)" fill="#aeb3ba" opacity="0.5"/>
    <path id="Path_19436" data-name="Path 19436" d="M913.948,315.9l.75-46.278,31.214-57.253-31.1,49.993.337-20.808,21.513-41.422-21.423,35.915h0l.606-37.425,23.036-32.977-22.941,27.092.379-68.625-2.381,90.847.2-3.747-23.422-35.943L913.762,218.4l-2.182,41.8-.065-1.109-27-37.825,26.919,41.744-.273,5.227-.049.079.022.429-5,95.119,7.038.347.712-44.2,26.853-41.641Z" transform="translate(-489.85 -68.59)" fill="#3f3d56"/>
    <ellipse id="Ellipse_2006" data-name="Ellipse 2006" cx="247.455" cy="12.541" rx="247.455" ry="12.541" transform="translate(0 291.871)" fill="#aeb3ba" opacity="0.3"/>
    <ellipse id="Ellipse_2007" data-name="Ellipse 2007" cx="42.383" cy="2.148" rx="42.383" ry="2.148" transform="translate(355.819 322.984)" fill="#aeb3ba" opacity="0.3"/>
    <ellipse id="Ellipse_2008" data-name="Ellipse 2008" cx="42.383" cy="2.148" rx="42.383" ry="2.148" transform="translate(202.451 343.704)" fill="#aeb3ba" opacity="0.3"/>
    <ellipse id="Ellipse_2009" data-name="Ellipse 2009" cx="96.83" cy="4.907" rx="96.83" ry="4.907" transform="translate(31.648 323.572)" fill="#aeb3ba" opacity="0.3"/>
    <ellipse id="Ellipse_2010" data-name="Ellipse 2010" cx="35.249" cy="35.341" rx="35.249" ry="35.341" transform="translate(8.069 217.98)" fill="#444c58"/>
    <rect id="Rectangle_4196" data-name="Rectangle 4196" width="10.709" height="19.236" transform="translate(26.931 280.864) rotate(0.675)" fill="#444c58"/>
    <rect id="Rectangle_4197" data-name="Rectangle 4197" width="10.709" height="19.236" transform="translate(48.347 281.117) rotate(0.675)" fill="#2f2e41"/>
    <ellipse id="Ellipse_2011" data-name="Ellipse 2011" cx="3.355" cy="8.924" rx="3.355" ry="8.924" transform="translate(26.662 303.677) rotate(-89.325)" fill="#444c58"/>
    <ellipse id="Ellipse_2012" data-name="Ellipse 2012" cx="3.355" cy="8.924" rx="3.355" ry="8.924" transform="translate(48.083 303.483) rotate(-89.325)" fill="#2f2e41"/>
    <ellipse id="Ellipse_2013" data-name="Ellipse 2013" cx="12.047" cy="12.078" rx="12.047" ry="12.078" transform="translate(32.268 232.306)" fill="#fff"/>
    <ellipse id="Ellipse_2014" data-name="Ellipse 2014" cx="4.016" cy="4.026" rx="4.016" ry="4.026" transform="translate(40.3 240.358)" fill="#3f3d56"/>
    <path id="Path_19437" data-name="Path 19437" d="M60.446,516.84c-2.7-12.812,6.553-25.617,20.659-28.6s27.726,4.985,30.421,17.8-6.683,17.415-20.789,20.4S63.142,529.653,60.446,516.84Z" transform="translate(-50.932 -296.787)" fill="#b5948e"/>
    <path id="Path_19438" data-name="Path 19438" d="M176.3,602.225c0,24.638-14.608,33.241-32.63,33.241q-.626,0-1.25-.014c-.835-.018-1.662-.058-2.479-.114-16.264-1.154-28.9-10.2-28.9-33.113,0-23.713,30.225-53.635,32.495-55.85l0,0,.131-.128S176.3,577.587,176.3,602.225Z" transform="translate(-79.208 -329.189)" fill="#9f6e65"/>
    <path id="Path_19439" data-name="Path 19439" d="M165.223,631.7l11.934-16.719-11.964,18.555-.032,1.919c-.835-.018-1.662-.058-2.479-.114l1.286-24.65-.01-.191.022-.036.121-2.328-11.994-18.6,12.032,16.855.028.494.972-18.625-10.268-19.221,10.394,15.952,1.012-38.613,0-.132v.128l-.169,30.448,10.223-12.071L166.07,579.443l-.27,16.675,9.545-16-9.584,18.457-.151,9.27,13.857-22.274-13.908,25.509Z" transform="translate(-101.954 -329.189)" fill="#3f3d56"/>
    <ellipse id="Ellipse_2015" data-name="Ellipse 2015" cx="35.249" cy="35.341" rx="35.249" ry="35.341" transform="translate(282.656 217.597)" fill="#444c58"/>
    <path id="Path_19445" data-name="Path 19445" d="M0,0,10.711-.008,10.7,19.224l-10.711.008Z" transform="matrix(0.956, -0.294, 0.294, 0.956, 310.677, 284.183)" fill="#2f2e41"/>
    <path id="Path_19446" data-name="Path 19446" d="M0,0,10.711-.008,10.7,19.224l-10.711.008Z" transform="matrix(0.956, -0.294, 0.294, 0.956, 331.15, 277.875)" fill="#2f2e41"/>
    <path id="Path_19447" data-name="Path 19447" d="M8.926-.006c4.93,0,8.925,1.5,8.923,3.348S13.851,6.7,8.921,6.7,0,5.207,0,3.354,4,0,8.926-.006Z" transform="matrix(0.956, -0.294, 0.294, 0.956, 315.396, 299.577)" fill="#2f2e41"/>
    <path id="Path_19448" data-name="Path 19448" d="M8.926-.006c4.93,0,8.925,1.5,8.923,3.348S13.851,6.7,8.921,6.7,0,5.207,0,3.354,4,0,8.926-.006Z" transform="matrix(0.956, -0.294, 0.294, 0.956, 335.737, 292.841)" fill="#2f2e41"/>
    <ellipse id="Ellipse_2018" data-name="Ellipse 2018" cx="12.047" cy="12.078" rx="12.047" ry="12.078" transform="translate(304.09 232.045)" fill="#fff"/>
    <ellipse id="Ellipse_2019" data-name="Ellipse 2019" cx="4.016" cy="4.026" rx="4.016" ry="4.026" transform="translate(312.121 240.097)" fill="#3f3d56"/>
    <path id="Path_19440" data-name="Path 19440" d="M653.82,532.672c-6.465-11.378-1.552-26.4,10.974-33.555s27.921-3.731,34.386,7.646-1.067,18.629-13.593,25.784S660.285,544.049,653.82,532.672Z" transform="translate(-378.229 -301.079)" fill="#b5948e"/>
    <path id="Path_19441" data-name="Path 19441" d="M536.942,597.814c0,22.617-13.41,30.514-29.953,30.514q-.575,0-1.148-.013c-.766-.016-1.526-.053-2.276-.1-14.93-1.059-26.529-9.362-26.529-30.4,0-21.768,27.745-49.235,29.829-51.268l0,0,.12-.117S536.942,575.2,536.942,597.814Z" transform="translate(-281.902 -329.29)" fill="#b5948e"/>
    <path id="Path_19442" data-name="Path 19442" d="M526.777,624.868l10.955-15.347L526.75,626.553l-.029,1.762c-.766-.017-1.526-.053-2.276-.1l1.181-22.628-.009-.176.02-.033.111-2.137-11.01-17.075,11.045,15.472.026.454.892-17.1-9.426-17.644,9.541,14.643.929-35.445,0-.121v.117l-.155,27.95,9.384-11.081L527.555,576.9l-.248,15.307,8.762-14.69-8.8,16.943-.139,8.51,12.72-20.447L527.084,605.94Z" transform="translate(-302.781 -329.29)" fill="#3f3d56"/>
    <path id="Path_19443" data-name="Path 19443" d="M794.3,613.225c0,24.638-14.608,33.241-32.63,33.241q-.626,0-1.25-.014c-.835-.018-1.662-.058-2.479-.114-16.264-1.154-28.9-10.2-28.9-33.113,0-23.713,30.224-53.635,32.495-55.85l0,0,.131-.128S794.3,588.587,794.3,613.225Z" transform="translate(-421.461 -335.268)" fill="#9f6e65"/>
    <path id="Path_19444" data-name="Path 19444" d="M783.223,642.7l11.934-16.719-11.964,18.555-.032,1.919c-.835-.018-1.662-.058-2.479-.114l1.286-24.65-.01-.191.022-.036.121-2.328-11.994-18.6,12.032,16.855.028.494.972-18.625-10.268-19.221,10.393,15.952,1.012-38.613,0-.132v.128l-.169,30.448,10.223-12.071L784.07,590.443l-.27,16.675,9.545-16-9.584,18.457-.151,9.27,13.857-22.274-13.908,25.509Z" transform="translate(-444.207 -335.268)" fill="#3f3d56"/>
    <path id="Path_19449" data-name="Path 19449" d="M5.545-.006c3.062,0,5.537,7.889,5.527,17.627S8.571,35.257,5.509,35.26-.027,27.371-.018,17.633,2.482,0,5.545-.006Z" transform="translate(285.925 263.961) rotate(-64.626)" fill="#444c58"/>
    <path id="Path_19450" data-name="Path 19450" d="M5.545,0c3.063,0,5.538,7.889,5.529,17.626s-2.5,17.633-5.561,17.636S-.024,27.368-.016,17.631,2.483,0,5.545,0Z" transform="translate(14.072 262.859) rotate(-68.159)" fill="#444c58"/>
  </g>
</svg>
