<svg xmlns="http://www.w3.org/2000/svg" viewBox="0 0 23 21"><defs><style>.cls-1{fill:#28aa16;}</style></defs><title>Asset 3excel</title><g id="Layer_2" data-name="Layer 2"><g id="Layer_1-2" data-name="Layer 1"><path id="Icon_simple-microsoftexcel" data-name="Icon simple-microsoftexcel" class="cls-1" d="M22.57,2.57h-7.7V3.89h2.27V6H14.87v.67h2.27v2.1H14.87v.69h2.27v2H14.87v.8h2.27v2H14.87V15h2.27v2H14.87v1.46h7.7c.12,0,.22-.17.3-.4a1.63,1.63,0,0,0,.13-.57V2.81a.2.2,0,0,0-.12-.21A1.63,1.63,0,0,0,22.57,2.57ZM21.57,17h-3.7V15h3.7Zm0-2.8h-3.7v-2h3.7Zm0-2.79h-3.7v-2h3.7v2Zm0-2.67h-3.7V6.66h3.7v2.1Zm0-2.78h-3.7V3.9h3.7V6ZM0,2.24V18.82L13.57,21V0L0,2.24ZM8,14.78c0-.13-.29-.69-.72-1.66s-.69-1.55-.77-1.71h0L5.07,14.63l-1.94-.12,2.3-4-2.11-4,2-.1,1.3,3.14h0L8.12,6.25l2.05-.12L7.73,10.47l2.52,4.43-2.2-.12Z"/></g></g></svg>