<svg width="247" height="188" viewBox="0 0 247 188" fill="none" xmlns="http://www.w3.org/2000/svg">
<path d="M56.8743 130.104L75.9983 100.317L33.1706 73.344L11.0527 107.791L46.4767 130.104H56.8743Z" fill="#20A1DA" fill-opacity="0.3"/>
<path d="M83.9739 139.397H36.6045V129.951H83.9739V139.397ZM37.2189 138.784H83.3595V130.564H37.222L37.2189 138.784Z" fill="#D9A36C"/>
<path d="M78.1299 137.721C79.8288 137.721 81.2061 136.357 81.2061 134.675C81.2061 132.992 79.8288 131.628 78.1299 131.628C76.431 131.628 75.0537 132.992 75.0537 134.675C75.0537 136.357 76.431 137.721 78.1299 137.721Z" fill="#20A1DA"/>
<path d="M69.5176 137.721C71.2165 137.721 72.5938 136.357 72.5938 134.675C72.5938 132.992 71.2165 131.628 69.5176 131.628C67.8187 131.628 66.4414 132.992 66.4414 134.675C66.4414 136.357 67.8187 137.721 69.5176 137.721Z" fill="#20A1DA"/>
<path d="M60.9043 137.721C62.6032 137.721 63.9805 136.357 63.9805 134.675C63.9805 132.992 62.6032 131.628 60.9043 131.628C59.2054 131.628 57.8281 132.992 57.8281 134.675C57.8281 136.357 59.2054 137.721 60.9043 137.721Z" fill="#20A1DA"/>
<path d="M52.292 137.721C53.9909 137.721 55.3682 136.357 55.3682 134.675C55.3682 132.992 53.9909 131.628 52.292 131.628C50.5931 131.628 49.2158 132.992 49.2158 134.675C49.2158 136.357 50.5931 137.721 52.292 137.721Z" fill="#20A1DA"/>
<path d="M43.6787 137.721C45.3776 137.721 46.7549 136.357 46.7549 134.675C46.7549 132.992 45.3776 131.628 43.6787 131.628C41.9798 131.628 40.6025 132.992 40.6025 134.675C40.6025 136.357 41.9798 137.721 43.6787 137.721Z" fill="#20A1DA"/>
<path d="M140.264 34.4319V11.2736H151.953V0H94.7402V56.6726H143.648V51.1318C143.649 50.0977 143.855 49.0738 144.255 48.1187C144.654 47.1637 145.24 46.2961 145.977 45.5655C146.714 44.835 147.589 44.2558 148.552 43.861C149.515 43.4662 150.547 43.2635 151.588 43.2646H151.953V34.4319H140.264Z" fill="#20A1DA" fill-opacity="0.3"/>
<path d="M203.628 146.253H165.486V154.175H203.628V146.253Z" fill="#20A1DA"/>
<path d="M211.934 107.252H155.951V114.564H211.934V107.252Z" fill="#FFFBF7"/>
<path d="M239.31 187.387H0V187.996H239.31V187.387Z" fill="#20A1DA"/>
<path d="M221.527 187.996H151.588C149.403 187.996 147.307 187.135 145.761 185.603C144.214 184.07 143.344 181.991 143.34 179.822V51.136C143.344 48.9668 144.214 46.8878 145.761 45.3554C147.307 43.8229 149.403 42.9622 151.588 42.9622H221.526C223.711 42.9622 225.806 43.8229 227.353 45.3554C228.899 46.8878 229.77 48.9668 229.773 51.136V179.826C229.769 181.995 228.899 184.074 227.352 185.607C225.806 187.139 223.71 188 221.526 188L221.527 187.996ZM151.588 43.5753C149.566 43.5753 147.627 44.3713 146.196 45.7887C144.765 47.2061 143.959 49.1291 143.954 51.136V179.826C143.959 181.833 144.765 183.756 146.196 185.174C147.627 186.591 149.566 187.387 151.588 187.387H221.526C223.547 187.387 225.486 186.591 226.917 185.174C228.348 183.756 229.155 181.833 229.159 179.826V51.136C229.154 49.1291 228.348 47.2061 226.917 45.7887C225.486 44.3713 223.547 43.5753 221.526 43.5753H151.588Z" fill="#667880"/>
<path d="M178.251 49.0557C177.887 49.0549 177.532 48.947 177.229 48.7457C176.927 48.5443 176.692 48.2586 176.553 47.9245C176.414 47.5905 176.378 47.2231 176.45 46.8688C176.521 46.5145 176.697 46.1892 176.955 45.934C177.212 45.6787 177.541 45.505 177.898 45.4348C178.255 45.3647 178.625 45.4011 178.961 45.5396C179.297 45.678 179.584 45.9123 179.786 46.2128C179.989 46.5133 180.096 46.8665 180.096 47.2279C180.096 47.4682 180.048 47.7061 179.955 47.928C179.862 48.1499 179.726 48.3515 179.555 48.5212C179.384 48.6909 179.18 48.8255 178.957 48.9172C178.733 49.0089 178.493 49.056 178.251 49.0557ZM178.251 46.0089C178.009 46.0104 177.772 46.0831 177.571 46.2178C177.37 46.3526 177.214 46.5435 177.122 46.7663C177.03 46.9892 177.007 47.234 177.055 47.47C177.103 47.706 177.221 47.9225 177.393 48.0923C177.565 48.262 177.783 48.3774 178.021 48.4239C178.259 48.4703 178.506 48.4458 178.73 48.3533C178.954 48.2608 179.145 48.1046 179.28 47.9043C179.414 47.704 179.486 47.4686 179.486 47.2279C179.486 47.0675 179.453 46.9088 179.391 46.7609C179.328 46.6129 179.237 46.4786 179.123 46.3657C179.008 46.2528 178.872 46.1634 178.722 46.1027C178.573 46.042 178.413 46.0112 178.251 46.012V46.0089Z" fill="#667880"/>
<path d="M196.401 46.9224H182.866V47.5313H196.401V46.9224Z" fill="#667880"/>
<path d="M224.238 51.798V76.1731C217.719 76.1799 211.465 73.6157 206.85 69.0445C202.235 64.4734 199.638 58.2697 199.631 51.798H224.238Z" fill="#20A1DA"/>
<path d="M224.546 179.769H148.569V51.4925H224.546V179.769ZM149.185 179.156H223.931V52.1055H149.187L149.185 179.156Z" fill="#667880"/>
<path opacity="0.1" d="M206.397 74.6497C210.984 74.6497 214.703 70.9664 214.703 66.4228C214.703 61.8793 210.984 58.196 206.397 58.196C201.81 58.196 198.092 61.8793 198.092 66.4228C198.092 70.9664 201.81 74.6497 206.397 74.6497Z" fill="black"/>
<path d="M205.168 75.5641C209.755 75.5641 213.473 71.8809 213.473 67.3373C213.473 62.7937 209.755 59.1104 205.168 59.1104C200.581 59.1104 196.862 62.7937 196.862 67.3373C196.862 71.8809 200.581 75.5641 205.168 75.5641Z" fill="#20A1DA"/>
<path d="M163.64 56.6726H151.952V60.9383H163.64V56.6726Z" fill="#667880"/>
<path d="M170.1 97.197H158.412V101.463H170.1V97.197Z" fill="#667880"/>
<path d="M215.01 113.042H158.412V105.119H215.01V113.042ZM159.023 112.429H214.393V105.732H159.03L159.023 112.429Z" fill="#D9A36C"/>
<path d="M211.934 130.409H155.951V137.721H211.934V130.409Z" fill="#FFFBF7"/>
<path d="M170.1 120.354H158.412V124.62H170.1V120.354Z" fill="#667880"/>
<path d="M215.01 136.198H158.412V128.276H215.01V136.198ZM159.023 135.585H214.393V128.889H159.03L159.023 135.585Z" fill="#D9A36C"/>
<path d="M206.089 152.347H167.332V143.815H206.089V152.347ZM167.947 151.734H205.474V144.428H167.95L167.947 151.734Z" fill="#667880"/>
<path d="M213.472 109.994C213.471 110.622 213.274 111.234 212.91 111.748C212.545 112.261 212.03 112.65 211.434 112.862C210.839 113.074 210.192 113.099 209.582 112.933C208.972 112.768 208.428 112.419 208.025 111.935C207.732 111.581 207.523 111.166 207.413 110.72C207.304 110.275 207.297 109.811 207.394 109.363C207.49 108.914 207.687 108.493 207.97 108.131C208.252 107.768 208.614 107.474 209.027 107.269C209.44 107.064 209.894 106.955 210.356 106.948C210.818 106.942 211.275 107.039 211.694 107.232C212.113 107.425 212.482 107.709 212.775 108.064C213.068 108.418 213.277 108.833 213.386 109.279C213.442 109.513 213.471 109.753 213.472 109.994Z" fill="#20A1DA"/>
<path opacity="0.1" d="M213.471 109.995C213.47 110.623 213.273 111.235 212.909 111.749C212.544 112.262 212.029 112.651 211.434 112.863C210.838 113.075 210.192 113.1 209.581 112.934C208.971 112.769 208.427 112.42 208.024 111.936C207.967 111.702 207.938 111.462 207.938 111.221C207.939 110.593 208.135 109.981 208.5 109.467C208.865 108.954 209.38 108.565 209.975 108.353C210.57 108.141 211.217 108.116 211.827 108.282C212.438 108.448 212.981 108.796 213.385 109.28C213.441 109.514 213.47 109.754 213.471 109.995Z" fill="black"/>
<path d="M211.627 114.87C213.326 114.87 214.703 113.506 214.703 111.823C214.703 110.14 213.326 108.776 211.627 108.776C209.928 108.776 208.551 110.14 208.551 111.823C208.551 113.506 209.928 114.87 211.627 114.87Z" fill="#20A1DA"/>
<path d="M213.472 133.151C213.471 133.779 213.274 134.392 212.91 134.905C212.545 135.418 212.03 135.807 211.434 136.019C210.839 136.232 210.192 136.256 209.582 136.091C208.972 135.925 208.428 135.576 208.025 135.092C207.732 134.738 207.523 134.323 207.413 133.878C207.304 133.432 207.297 132.968 207.394 132.52C207.49 132.071 207.687 131.65 207.97 131.288C208.252 130.925 208.614 130.631 209.027 130.426C209.44 130.221 209.894 130.112 210.356 130.105C210.818 130.099 211.275 130.196 211.694 130.389C212.113 130.582 212.482 130.866 212.775 131.221C213.068 131.575 213.277 131.99 213.386 132.436C213.442 132.67 213.471 132.91 213.472 133.151Z" fill="#20A1DA"/>
<path opacity="0.1" d="M213.471 133.152C213.47 133.78 213.273 134.393 212.909 134.906C212.544 135.419 212.029 135.808 211.434 136.02C210.838 136.233 210.192 136.257 209.581 136.092C208.971 135.926 208.427 135.577 208.024 135.093C207.967 134.859 207.938 134.619 207.938 134.378C207.939 133.75 208.135 133.138 208.5 132.625C208.865 132.111 209.38 131.722 209.975 131.51C210.57 131.298 211.217 131.273 211.827 131.439C212.438 131.605 212.981 131.953 213.385 132.437C213.442 132.671 213.471 132.911 213.471 133.152Z" fill="black"/>
<path d="M211.627 138.026C213.326 138.026 214.703 136.662 214.703 134.979C214.703 133.296 213.326 131.932 211.627 131.932C209.928 131.932 208.551 133.296 208.551 134.979C208.551 136.662 209.928 138.026 211.627 138.026Z" fill="#20A1DA"/>
<path d="M159.95 14.6249H143.955V30.4686H159.95V14.6249Z" fill="#20A1DA" fill-opacity="0.3"/>
<path d="M206.398 26.203C205.67 26.2013 204.958 25.9855 204.354 25.5827C203.749 25.1799 203.278 24.6083 203.001 23.94C202.723 23.2716 202.651 22.5366 202.794 21.8279C202.937 21.1191 203.289 20.4683 203.804 19.9577C204.32 19.4471 204.976 19.0996 205.69 18.9592C206.405 18.8188 207.145 18.8916 207.818 19.1687C208.49 19.4457 209.065 19.9144 209.469 20.5155C209.874 21.1167 210.089 21.8234 210.089 22.5462C210.089 23.027 209.993 23.5029 209.807 23.9469C209.621 24.3908 209.349 24.7941 209.007 25.1336C208.664 25.4732 208.257 25.7424 207.809 25.9259C207.362 26.1093 206.882 26.2035 206.398 26.203ZM206.398 19.4995C205.791 19.5009 205.198 19.6808 204.695 20.0164C204.191 20.3521 203.799 20.8284 203.568 21.3852C203.336 21.9421 203.277 22.5545 203.396 23.145C203.515 23.7355 203.808 24.2778 204.237 24.7031C204.667 25.1285 205.214 25.418 205.809 25.535C206.404 25.652 207.021 25.5912 207.581 25.3604C208.141 25.1296 208.62 24.7391 208.957 24.2382C209.294 23.7373 209.474 23.1485 209.474 22.5462C209.472 21.738 209.147 20.9636 208.57 20.3932C207.993 19.8227 207.212 19.5028 206.398 19.5036V19.4995Z" fill="#E6A744"/>
<path d="M125.192 77.0876H117.194V69.1652H125.192V77.0876ZM117.81 76.4745H124.577V69.7782H117.812L117.81 76.4745Z" fill="#D9A36C"/>
<path d="M247 136.198H239.002V128.276H247V136.198ZM239.617 135.585H246.384V128.889H239.619L239.617 135.585Z" fill="#D9A36C"/>
<path d="M89.2012 83.0799L90.5741 83.8125L95.2444 86.3055L102.784 90.329L107.178 82.2574C107.591 81.4988 107.848 80.6668 107.937 79.809C108.025 78.9512 107.942 78.0845 107.692 77.2587C107.442 76.4328 107.031 75.6641 106.481 74.9965C105.931 74.329 105.254 73.7757 104.488 73.3685C102.85 72.4921 100.973 72.1536 99.1284 72.4016C97.2837 72.6495 95.5655 73.4713 94.2204 74.7488C93.5594 75.3775 93.0013 76.1049 92.5665 76.9047L89.2012 83.0799Z" fill="#335766"/>
<path d="M109.781 165.429L108.86 175.466L105.406 175.921L103.104 164.516L109.781 165.429Z" fill="#FFB8B8"/>
<path d="M104.485 175.922C104.485 175.922 108.86 173.641 109.781 175.466C109.781 175.466 109.091 180.94 111.854 181.625C114.617 182.309 115.765 187.099 111.854 187.55C107.943 188.002 105.406 186.637 104.025 186.637C102.644 186.637 104.025 181.847 104.025 181.847L104.485 175.922Z" fill="#667880"/>
<path d="M81.918 165.429L82.8442 175.466L86.2981 175.921L88.6003 164.516L81.918 165.429Z" fill="#FFB8B8"/>
<path d="M87.2141 175.922C87.2141 175.922 82.8391 173.641 81.918 175.466C81.918 175.466 82.6086 180.94 79.8453 181.625C77.0819 182.309 75.9344 187.099 79.8453 187.55C83.7561 188.002 86.293 186.637 87.6741 186.637C89.0553 186.637 87.6741 181.847 87.6741 181.847L87.2141 175.922Z" fill="#667880"/>
<path d="M100.799 84.9098C104.106 84.9098 106.786 82.2544 106.786 78.9787C106.786 75.7031 104.106 73.0477 100.799 73.0477C97.4928 73.0477 94.8125 75.7031 94.8125 78.9787C94.8125 82.2544 97.4928 84.9098 100.799 84.9098Z" fill="#FFB8B8"/>
<path d="M81.6875 90.611L86.5246 98.138L92.2817 97.6823L101.723 98.3658C101.723 98.3658 102.615 96.6003 103.342 94.8828C103.74 94.0255 104.047 93.1289 104.256 92.2079C104.487 90.611 101.262 89.014 101.262 89.014C101.262 89.014 101.136 88.9916 100.924 88.9415C100.643 88.8751 100.209 88.7658 99.735 88.6064C98.6646 88.2457 97.3772 87.6347 97.1168 86.7336C96.6557 85.1366 100.111 82.8511 100.111 82.8511L95.9662 78.9736C95.9662 78.9736 92.2838 84.0393 87.8121 85.1939C87.5529 85.2617 87.29 85.3149 87.0248 85.3533L86.9857 85.3604C85.6418 85.5302 84.3927 86.1378 83.4339 87.0879C82.4751 88.0381 81.8609 89.2772 81.6875 90.611Z" fill="#FFB8B8"/>
<path d="M84.2213 88.5593L81.6885 90.612C81.6885 90.612 79.6157 100.42 80.3073 103.158C80.6594 105.052 80.5807 107.001 80.0768 108.861C80.0768 109.317 78.004 126.424 78.004 126.424C78.004 126.424 73.8596 135.548 78.2346 134.636C82.6096 133.723 80.9979 124.599 80.9979 124.599L86.294 108.632V95.1739L84.2213 88.5593Z" fill="#FFB8B8"/>
<path d="M102.412 90.3842L104.254 91.7522L105.176 110.913L112.084 127.337C112.084 127.337 117.15 135.319 113.927 135.548C110.703 135.777 108.63 127.337 108.63 127.337L102.413 111.602L101.492 96.3193L102.412 90.3842Z" fill="#FFB8B8"/>
<path d="M90.898 91.7523C90.898 91.7523 95.5035 94.9451 102.872 93.8049C102.872 93.8049 104.945 97.9102 103.793 100.192C102.642 102.473 105.175 107.946 105.636 108.631C106.097 109.316 111.393 123.458 113.235 138.741C115.077 154.024 120.143 164.517 115.768 165.885C111.393 167.253 102.411 168.848 101.491 167.482C100.571 166.116 99.189 132.131 99.189 132.131L96.6562 145.133C96.6562 145.133 100.11 167.259 97.5773 167.713C95.0445 168.166 79.1552 166.8 79.6163 164.063C80.0773 161.326 84.6818 146.956 84.6818 146.956C84.6818 146.956 84.4513 118.216 89.0568 112.74C89.0568 112.74 90.899 109.777 88.3663 105.895C85.8335 102.012 86.064 95.8585 86.064 95.8585C86.064 95.8585 87.9042 95.8575 90.898 91.7523Z" fill="#D96C6C"/>
<path d="M87.0234 85.3584L90.8993 93.8049L91.8204 93.3492L87.8067 85.199L87.0234 85.3584Z" fill="#D96C6C"/>
<path d="M99.7334 88.6063L102.642 94.941L103.34 94.8797L103.103 93.8007L100.922 88.9374C100.641 88.875 100.21 88.7657 99.7334 88.6063Z" fill="#D96C6C"/>
<path d="M90.5771 83.8125C90.8 84.5185 91.2274 85.1437 91.806 85.6101C92.3845 86.0764 93.0887 86.3633 93.8305 86.4348C94.5723 86.5063 95.3188 86.3592 95.977 86.0121C96.6351 85.6649 97.1757 85.133 97.5312 84.4827C94.6187 80.7095 97.1195 78.3402 101.854 76.547C102.21 75.8915 102.36 75.1456 102.287 74.4045C102.214 73.6634 101.92 72.9608 101.442 72.3866C100.138 72.2206 98.8138 72.3454 97.5648 72.7519C96.3159 73.1585 95.174 73.8365 94.2224 74.7366L90.8601 80.9138C90.6195 81.3534 90.4704 81.8366 90.4218 82.3346C90.3732 82.8326 90.426 83.3352 90.5771 83.8125Z" fill="#335766"/>
<path d="M97.2316 81.0324C97.6767 81.0324 98.0375 80.4194 98.0375 79.6633C98.0375 78.9072 97.6767 78.2942 97.2316 78.2942C96.7866 78.2942 96.4258 78.9072 96.4258 79.6633C96.4258 80.4194 96.7866 81.0324 97.2316 81.0324Z" fill="#FFB8B8"/>
<path d="M99.6328 77.4288L106.555 80.5359L107.824 77.7619C107.604 76.7477 107.146 75.7995 106.486 74.9951L101.722 72.8577L99.6328 77.4288Z" fill="#335766"/>
<path d="M116.272 138.635C117.971 138.635 119.349 137.271 119.349 135.588C119.349 133.905 117.971 132.541 116.272 132.541C114.574 132.541 113.196 133.905 113.196 135.588C113.196 137.271 114.574 138.635 116.272 138.635Z" fill="#20A1DA"/>
<path d="M17.5197 156.749C18.6298 156.749 19.5297 155.857 19.5297 154.757C19.5297 153.658 18.6298 152.766 17.5197 152.766C16.4097 152.766 15.5098 153.658 15.5098 154.757C15.5098 155.857 16.4097 156.749 17.5197 156.749Z" fill="#D9A36C"/>
<path d="M27.676 165.136H27.0605V187.809H27.676V165.136Z" fill="#20A1DA"/>
<path d="M27.3686 168.341C29.1562 168.341 30.6053 166.906 30.6053 165.135C30.6053 163.364 29.1562 161.929 27.3686 161.929C25.581 161.929 24.1318 163.364 24.1318 165.135C24.1318 166.906 25.581 168.341 27.3686 168.341Z" fill="#20A1DA"/>
<path d="M27.3685 179.109C27.3685 179.109 26.9064 169.258 17.4268 170.403L27.3685 179.109Z" fill="#20A1DA"/>
</svg>
