<svg width="247" height="189" viewBox="0 0 247 189" fill="none" xmlns="http://www.w3.org/2000/svg">
<path opacity="0.1" d="M120.61 16.49C111.766 15.462 103.495 12.306 95.147 9.63698C85.8614 6.68267 76.3901 4.31112 66.7915 2.53698C56.5647 0.642977 46.022 -0.592021 35.7695 0.290979C25.517 1.17398 15.5125 4.34798 8.97318 10.153C-2.10576 19.999 -1.17024 34.922 2.48946 48.075C6.8315 63.681 14.3392 79.108 26.6285 92.4C35.363 101.848 46.3225 110.027 57.1853 118.146C63.3263 122.727 69.5239 127.346 76.6972 130.946C83.3693 134.293 90.737 136.693 98.0523 139.058C105.864 141.587 113.696 144.129 121.759 146.058C147.502 152.228 174.601 152.035 201.099 151.485C210.425 151.294 220.172 150.979 227.995 147.451C233.625 144.764 238.379 140.612 241.726 135.458C246.034 129.215 248.753 121.764 245.694 114.801C241.185 104.53 225.733 98.48 220.59 88.365C214.003 75.386 226.802 61.665 223.178 48.158C221.671 42.538 217.422 37.458 212.918 32.72C202.177 21.42 187.899 11.135 168.711 12.638C152.466 13.911 137.648 18.472 120.61 16.49Z" fill="#20A1DA"/>
<path d="M80.9951 10.178H155.265C157.208 10.1753 159.073 10.921 160.452 12.2517C161.83 13.5825 162.61 15.3898 162.62 17.278V174.828C162.61 176.716 161.83 178.523 160.452 179.854C159.073 181.185 157.208 181.931 155.265 181.928H80.9951C79.0518 181.931 77.1867 181.185 75.8081 179.854C74.4294 178.523 73.6497 176.716 73.6396 174.828V17.279C73.6494 15.3906 74.429 13.583 75.8077 12.2521C77.1863 10.9211 79.0516 10.1753 80.9951 10.178V10.178Z" fill="url(#paint0_linear_217_2072)"/>
<path d="M101.968 181.269H134.285C149.558 181.269 161.938 169.239 161.938 154.399L161.938 38.362C161.938 23.5221 149.558 11.492 134.285 11.492H101.968C86.6955 11.492 74.3146 23.5221 74.3146 38.362L74.3146 154.399C74.3146 169.239 86.6955 181.269 101.968 181.269Z" fill="#4E5A86"/>
<path d="M80.7672 165.477H155.484L155.484 27.288H80.7672L80.7672 165.477Z" fill="white"/>
<path d="M126.957 20.0459C127.331 20.0459 127.635 19.7518 127.635 19.3889C127.635 19.0261 127.331 18.7319 126.957 18.7319C126.582 18.7319 126.278 19.0261 126.278 19.3889C126.278 19.7518 126.582 20.0459 126.957 20.0459Z" fill="white"/>
<path d="M109.291 20.047H122.879C123.254 20.047 123.558 19.7522 123.558 19.3885C123.558 19.0248 123.254 18.73 122.879 18.73H109.291C108.917 18.73 108.613 19.0248 108.613 19.3885C108.613 19.7522 108.917 20.047 109.291 20.047Z" fill="white"/>
<path d="M118.466 176.663C121.092 176.663 123.22 174.6 123.22 172.056C123.22 169.512 121.092 167.449 118.466 167.449C115.84 167.449 113.711 169.512 113.711 172.056C113.711 174.6 115.84 176.663 118.466 176.663Z" fill="white"/>
<path opacity="0.1" d="M114.569 188.003C147.855 188.003 174.838 182.96 174.838 176.739C174.838 170.518 147.855 165.475 114.569 165.475C81.2825 165.475 54.2988 170.518 54.2988 176.739C54.2988 182.96 81.2825 188.003 114.569 188.003Z" fill="#89C5CC"/>
<path opacity="0.1" d="M146.957 48.698H89.2969V123.407H146.957V48.698Z" fill="#89C5CC"/>
<path d="M138.668 84.915C138.526 84.759 138.381 84.607 138.232 84.455C139.379 83.195 140.567 81.901 140.555 80.283C140.543 78.313 138.739 76.803 138.065 74.941C137.149 72.412 138.421 69.695 138.943 67.063C139.35 64.923 139.265 62.722 138.693 60.6178C138.121 58.5137 137.077 56.5587 135.636 54.893C135.143 54.2478 134.473 53.7513 133.702 53.461C132.504 53.093 131.232 53.604 129.979 53.753C125.853 54.245 122.099 50.801 117.953 51.109C117.679 51.1193 117.408 51.1786 117.156 51.284C116.662 51.6009 116.263 52.0385 115.998 52.553C114.71 54.392 112.548 55.312 110.396 56.231C110.127 56.3092 109.87 56.4236 109.633 56.571C108.987 56.863 108.351 57.171 107.751 57.511C104.762 59.249 104.287 61.476 105.22 63.334C105.575 64.0191 106.069 64.6273 106.672 65.122C106.649 65.2344 106.621 65.3455 106.586 65.455C105.976 67.579 103.841 69.485 104.231 71.694C104.316 72.1243 104.477 72.5372 104.705 72.915V72.915C105.339 74.025 106.388 74.984 106.791 76.188C106.833 76.3099 106.867 76.4342 106.894 76.56C107.038 77.6136 106.826 78.684 106.289 79.61C101.743 80.628 96.6076 82.504 96.2093 85.817C95.5115 91.578 93.4141 107.49 93.4141 107.49C93.4141 107.49 92.0093 114.846 95.3932 115.743C96.4584 116.023 98.0031 115.658 100.22 114.212L100.102 114.552C100.076 114.628 100.049 114.701 100.025 114.782C99.0565 117.602 98.2812 120.482 97.7047 123.402H130.355C130.08 121.566 129.654 119.754 129.081 117.984C129.041 117.855 129 117.738 128.964 117.628C129.892 118.014 130.843 118.346 131.812 118.621C132.76 118.941 133.784 118.984 134.757 118.743V118.743C137.583 117.927 137.881 114.219 137.881 114.219L139.096 105.18L140.548 91.702C140.762 91.1176 140.87 90.5015 140.868 89.881C140.797 88.0173 140.013 86.2463 138.668 84.915V84.915ZM113.877 76.428C113.893 76.272 113.906 76.113 113.915 75.957L113.958 75.985C113.956 76.1342 113.945 76.283 113.925 76.431V76.456C113.879 76.926 113.776 77.3889 113.617 77.835C113.743 77.3736 113.83 76.9031 113.878 76.428H113.877ZM130.354 109.028C129.79 109.192 129.182 109.142 128.655 108.888C128.738 109.035 128.816 109.178 128.892 109.32C128.893 109.325 128.893 109.331 128.892 109.336L128.84 109.308L128.282 109.032C128.51 107.938 128.878 106.877 129.378 105.873C129.802 105.036 130.18 104.179 130.51 103.303V103.303C130.65 102.917 130.767 102.563 130.861 102.236C130.844 103.684 130.917 105.131 131.077 106.571C131.289 108.139 130.888 108.797 130.354 109.029V109.028Z" fill="url(#paint1_linear_217_2072)"/>
<path d="M108.043 58.494C107.211 58.9313 106.554 59.6275 106.178 60.471C105.733 61.871 106.852 63.285 106.961 64.751C107.167 67.415 104.052 69.617 104.51 72.251C104.819 74.058 106.736 75.285 107.103 77.078C107.64 79.699 104.71 82.009 104.942 84.664C105.061 85.3678 105.326 86.0408 105.72 86.6424C106.114 87.244 106.63 87.7616 107.236 88.164C108.859 89.394 110.799 90.1657 112.843 90.394C112.708 88.116 110.962 86.04 111.262 83.776C111.468 82.224 112.6 80.953 113.248 79.521C114.395 77.006 114.027 74.096 113.341 71.429C112.656 68.762 111.662 66.129 111.611 63.383C111.58 61.728 112.382 59.298 111.794 57.728C111.077 55.829 109.374 57.615 108.043 58.494Z" fill="#CC6666"/>
<path d="M110.79 92.588C110.79 92.588 98.214 80.1749 107.703 81.0939C109.285 81.3756 110.918 81.0679 112.278 80.2319C112.784 79.833 113.197 79.3336 113.489 78.7671C113.781 78.2006 113.944 77.58 113.969 76.947C114.062 75.15 113.787 73.353 113.161 71.6599C113.161 71.6599 125.974 61.7749 123.364 74.1889C123.077 75.4504 122.91 76.7348 122.866 78.0259C122.822 80.6599 123.718 81.67 124.972 82.083C127.089 82.783 130.235 81.8029 131.668 84.0739C134.281 88.2199 110.79 92.588 110.79 92.588Z" fill="#FFC9C9"/>
<path opacity="0.05" d="M123.367 74.198C123.081 75.4595 122.914 76.7439 122.869 78.035C122.528 78.1494 122.18 78.2452 121.828 78.322C120.49 78.6144 119.106 78.643 117.756 78.4061C116.407 78.1692 115.121 77.6717 113.973 76.943C114.066 75.146 113.791 73.3491 113.164 71.656C113.164 71.656 125.977 61.785 123.367 74.198Z" fill="black"/>
<path d="M129.773 68.222C129.773 70.8513 128.698 73.373 126.785 75.2322C124.872 77.0915 122.276 78.136 119.57 78.136C116.864 78.136 114.269 77.0915 112.356 75.2322C110.442 73.373 109.367 70.8513 109.367 68.222C109.367 68.038 109.367 67.854 109.384 67.673C109.543 65.1036 110.724 62.695 112.678 60.9565C114.631 59.218 117.204 58.2858 119.852 58.3571C122.5 58.4284 125.016 59.4976 126.867 61.3386C128.719 63.1795 129.761 65.648 129.773 68.222V68.222Z" fill="#FFC9C9"/>
<path opacity="0.05" d="M110.79 92.588C110.79 92.588 98.214 80.175 107.703 81.094C109.285 81.3757 110.918 81.0679 112.278 80.232C110.453 83.184 108.374 88.485 117.668 87.99C126.175 87.53 126.03 84.248 124.975 82.09C127.092 82.79 130.238 81.81 131.671 84.081C134.281 88.22 110.79 92.588 110.79 92.588Z" fill="black"/>
<path d="M139.959 92.098C139.901 92.2671 139.827 92.4311 139.739 92.588L136.515 94.972L136.103 95.278L130.724 99.255C130.724 99.255 131.218 100.092 130.513 102.542C130.139 103.784 129.654 104.992 129.063 106.151C128.574 107.148 128.214 108.199 127.99 109.282C127.991 109.298 127.991 109.314 127.99 109.33C127.95 109.53 127.914 109.73 127.887 109.923C127.587 111.877 127.646 113.867 128.06 115.801C128.064 115.827 128.07 115.853 128.077 115.879C128.191 116.403 128.297 116.759 128.34 116.893L128.362 116.955C128.362 116.955 128.476 117.249 128.647 117.764L128.661 117.81C129.265 119.638 129.712 121.511 129.999 123.41H98.1569C98.7324 120.482 99.5052 117.594 100.47 114.764L100.587 114.428C100.392 114.557 100.202 114.679 100.02 114.789C97.8132 116.131 96.3487 116.272 95.3885 115.754C92.7126 114.313 93.9476 107.761 93.9476 107.761C93.9476 107.761 95.9957 91.98 96.6759 86.268C97.067 82.983 102.079 81.123 106.516 80.112C108.769 79.6063 111.054 79.2456 113.357 79.032H113.404C113.404 79.032 113.337 79.11 113.226 79.262L113.211 79.28C113.128 79.386 113.022 79.521 112.903 79.687C112.118 80.7255 111.467 81.8531 110.964 83.045V83.045C110.228 84.921 110.102 86.969 112.254 88.01C113.901 88.6516 115.687 88.8809 117.449 88.677C121.233 88.477 123.308 87.709 124.344 86.735C124.787 86.3369 125.087 85.8111 125.2 85.235V85.235C125.298 83.8985 124.863 82.5766 123.986 81.543V81.543C123.817 81.3163 123.636 81.0984 123.444 80.89L129.666 81.32C132.712 81.5131 135.577 82.7926 137.712 84.913C137.859 85.058 138.001 85.213 138.139 85.373C140.861 88.43 140.354 91.05 139.959 92.098Z" fill="#82BFD9"/>
<path opacity="0.05" d="M102.723 91.6689C102.723 91.6689 103.197 95.3469 102.249 96.4959C101.3 97.6449 101.062 102.932 102.249 106.151L102.723 91.6689Z" fill="black"/>
<path d="M116.733 99.482H107.221C105.392 99.482 103.909 100.923 103.909 102.7V102.701C103.909 104.478 105.392 105.919 107.221 105.919H116.733C118.562 105.919 120.044 104.478 120.044 102.701V102.7C120.044 100.923 118.562 99.482 116.733 99.482Z" fill="#CDD0DB"/>
<path opacity="0.05" d="M116.733 99.482H107.221C105.392 99.482 103.909 100.923 103.909 102.7V102.701C103.909 104.478 105.392 105.919 107.221 105.919H116.733C118.562 105.919 120.044 104.478 120.044 102.701V102.7C120.044 100.923 118.562 99.482 116.733 99.482Z" fill="black"/>
<path d="M116.733 99.712H107.221C105.392 99.712 103.909 101.153 103.909 102.93V102.931C103.909 104.708 105.392 106.149 107.221 106.149H116.733C118.562 106.149 120.044 104.708 120.044 102.931V102.93C120.044 101.153 118.562 99.712 116.733 99.712Z" fill="#CDD0DB"/>
<path d="M116.604 103.506C116.997 103.506 117.316 103.197 117.316 102.816C117.316 102.435 116.997 102.126 116.604 102.126C116.21 102.126 115.892 102.435 115.892 102.816C115.892 103.197 116.21 103.506 116.604 103.506Z" fill="#9DA7C0"/>
<path opacity="0.05" d="M97.043 109.678C97.2577 109.06 97.6088 108.494 98.0719 108.022C98.5351 107.549 99.0989 107.181 99.724 106.942C100.726 106.586 101.55 105.87 102.025 104.942C102.96 102.935 104.621 100.866 108.892 102.242C113.163 103.618 107.705 104.542 107.705 104.542C107.705 104.542 117.434 103.163 113.637 105.921C111.002 107.739 108.13 109.208 105.095 110.289L102.758 112.689C102.423 113.04 102.015 113.318 101.561 113.505C101.107 113.692 100.618 113.784 100.125 113.775C99.6321 113.765 99.1469 113.655 98.7011 113.45C98.2553 113.246 97.859 112.952 97.538 112.589C97.198 112.19 96.973 111.71 96.8861 111.198C96.7991 110.687 96.8533 110.162 97.043 109.678V109.678Z" fill="black"/>
<path d="M96.8047 109.218C97.0194 108.6 97.3706 108.034 97.8337 107.562C98.2968 107.089 98.8606 106.721 99.4857 106.482C100.488 106.126 101.311 105.41 101.787 104.482C102.721 102.475 104.382 100.406 108.653 101.782C112.924 103.158 107.467 104.082 107.467 104.082C107.467 104.082 117.196 102.703 113.399 105.461C110.764 107.279 107.891 108.748 104.857 109.829L102.52 112.229C102.184 112.58 101.776 112.858 101.323 113.045C100.869 113.232 100.379 113.324 99.8867 113.315C99.3939 113.305 98.9087 113.195 98.4629 112.99C98.017 112.786 97.6207 112.492 97.2998 112.129C96.9597 111.73 96.7347 111.25 96.6478 110.738C96.5608 110.227 96.615 109.702 96.8047 109.218V109.218Z" fill="#FFC9C9"/>
<path opacity="0.05" d="M130.248 113.967L128.587 117.875L126.451 116.36L120.519 112.128L116.486 109.599C110.792 105.461 116.486 104.772 116.486 104.772C114.35 103.853 116.486 102.933 116.486 102.933C124.079 101.324 122.655 107.301 122.655 107.301L127.464 109.717L129.061 110.517L130.248 113.967Z" fill="black"/>
<path d="M130.722 113.507L129.061 117.415L126.926 115.9L120.994 111.668L116.961 109.139C111.266 105.001 116.961 104.312 116.961 104.312C114.825 103.393 116.961 102.473 116.961 102.473C124.554 100.864 123.129 106.841 123.129 106.841L127.939 109.257L129.536 110.057L130.722 113.507Z" fill="#FFC9C9"/>
<path opacity="0.05" d="M130.723 113.507L129.062 117.415L126.926 115.897C128.85 115.964 131.124 115.063 127.929 109.254L129.527 110.054L130.723 113.507Z" fill="black"/>
<path d="M139.502 90.289L139.96 92.098L138.553 105.461L137.366 114.426C137.366 114.426 136.892 120.403 131.434 118.794C125.976 117.185 125.502 115.576 125.502 115.576C125.502 115.576 133.332 118.105 128.35 109.14C128.35 109.14 131.197 110.519 130.723 106.84C130.467 103.473 130.467 100.092 130.723 96.725L139.502 90.289Z" fill="#82BFD9"/>
<path opacity="0.05" d="M129.772 68.222C129.77 70.4667 128.982 72.644 127.538 74.3961C126.094 76.1481 124.079 77.3707 121.825 77.863C121.424 76.9572 121.308 75.9566 121.492 74.987C121.966 73.109 124.211 71.739 123.962 69.819C123.936 69.6025 123.855 69.3959 123.724 69.219C123.224 68.58 122.203 68.897 121.392 69.056C120.335 69.2266 119.251 69.0205 118.339 68.4756C117.427 67.9307 116.748 67.0838 116.428 66.091C115.515 66.9598 114.374 67.5673 113.129 67.8468C111.884 68.1262 110.584 68.0668 109.371 67.675C109.53 65.1056 110.711 62.697 112.665 60.9585C114.619 59.22 117.191 58.2879 119.839 58.3592C122.488 58.4305 125.003 59.4996 126.855 61.3406C128.706 63.1815 129.748 65.65 129.761 68.224L129.772 68.222Z" fill="black"/>
<path d="M116.676 65.629C116.996 66.6217 117.674 67.4687 118.586 68.0133C119.498 68.5579 120.582 68.7635 121.638 68.592C122.45 68.436 123.47 68.118 123.97 68.758C124.098 68.9354 124.175 69.1423 124.195 69.358C124.446 71.28 122.209 72.647 121.725 74.528C121.229 76.464 122.674 78.328 122.995 80.302C123.079 81.3894 123.079 82.4815 122.995 83.569C122.956 84.1139 123.034 84.6608 123.224 85.1751C123.413 85.6894 123.71 86.1599 124.096 86.557C124.297 86.743 124.535 86.8862 124.796 86.9773C125.057 87.0684 125.335 87.1054 125.611 87.0859C125.888 87.0664 126.157 86.9908 126.402 86.8641C126.646 86.7373 126.861 86.5622 127.032 86.35C129.701 87.718 128.636 91.95 130.662 94.122C131.277 94.6702 132.012 95.075 132.812 95.3056C133.611 95.5363 134.454 95.5866 135.277 95.453C135.666 95.4472 136.043 95.3288 136.362 95.113C136.636 94.8512 136.821 94.5146 136.893 94.148C137.312 92.6136 137.24 90.9917 136.687 89.498C136.33 88.8206 136.142 88.071 136.139 87.31C136.259 86.725 136.544 86.184 136.962 85.747C138.236 84.216 139.975 82.736 139.964 80.768C139.953 78.8 138.192 77.32 137.534 75.481C136.64 72.968 137.881 70.281 138.39 67.665C138.789 65.5463 138.706 63.3686 138.148 61.2842C137.59 59.1997 136.571 57.2588 135.161 55.597C134.681 54.9567 134.022 54.4629 133.263 54.174C132.093 53.811 130.848 54.317 129.626 54.464C125.593 54.954 121.936 51.538 117.887 51.843C117.619 51.8529 117.356 51.9112 117.109 52.015C116.625 52.3315 116.235 52.766 115.977 53.275C114.191 55.861 110.679 56.599 107.926 58.204C99.9008 62.884 110.529 71.362 116.676 65.629Z" fill="#D96C6C"/>
<path d="M165.643 179.357C165.643 179.357 162.208 162.493 169.284 150.935C172.281 146.108 173.581 140.465 172.988 134.857C172.683 132.197 172.127 129.57 171.327 127.009" stroke="#535461" stroke-width="2" stroke-miterlimit="10"/>
<path d="M175.749 119.699C175.559 121.71 171.241 127.211 171.241 127.211C171.241 127.211 168.033 121.041 168.225 119.027C168.316 118.058 168.8 117.163 169.57 116.54C170.34 115.918 171.333 115.618 172.331 115.706C173.329 115.795 174.249 116.265 174.89 117.014C175.531 117.762 175.84 118.727 175.748 119.696L175.749 119.699Z" fill="#20A1DA"/>
<path d="M180.911 131.398C179.622 132.986 172.914 135.333 172.914 135.333C172.914 135.333 173.683 128.464 174.972 126.876C175.604 126.155 176.498 125.699 177.468 125.605C178.438 125.51 179.407 125.784 180.174 126.368C180.941 126.953 181.445 127.803 181.581 128.74C181.717 129.678 181.475 130.63 180.905 131.398H180.911Z" fill="#20A1DA"/>
<path d="M178.832 150.422C176.891 151.162 169.878 149.907 169.878 149.907C169.878 149.907 174.12 144.353 176.061 143.613C176.523 143.429 177.017 143.337 177.515 143.34C178.014 143.344 178.507 143.444 178.966 143.634C179.424 143.824 179.84 144.1 180.187 144.447C180.535 144.794 180.809 145.205 180.992 145.656C181.175 146.106 181.265 146.588 181.255 147.072C181.245 147.556 181.137 148.034 180.936 148.477C180.735 148.921 180.445 149.321 180.084 149.655C179.722 149.989 179.296 150.249 178.831 150.422H178.832Z" fill="#20A1DA"/>
<path d="M173.914 164.475C172.129 165.523 164.999 165.433 164.999 165.433C164.999 165.433 168.212 159.265 169.997 158.217C170.42 157.967 170.889 157.8 171.378 157.727C171.867 157.653 172.367 157.674 172.847 157.787C173.328 157.901 173.782 158.106 174.181 158.39C174.581 158.674 174.919 159.032 175.176 159.442C175.433 159.853 175.605 160.309 175.68 160.785C175.756 161.26 175.735 161.745 175.618 162.213C175.501 162.68 175.29 163.12 174.998 163.508C174.706 163.896 174.338 164.225 173.915 164.475H173.914Z" fill="#20A1DA"/>
<path d="M164.978 135.016C166.336 136.552 173.139 138.616 173.139 138.616C173.139 138.616 172.07 131.784 170.716 130.251C170.062 129.527 169.14 129.083 168.151 129.014C167.162 128.945 166.185 129.257 165.431 129.883C164.677 130.508 164.207 131.397 164.122 132.357C164.037 133.317 164.345 134.271 164.978 135.012V135.016Z" fill="#20A1DA"/>
<path d="M159.443 151.524C161.211 152.595 168.343 152.598 168.343 152.598C168.343 152.598 165.215 146.391 163.445 145.318C163.025 145.054 162.556 144.874 162.064 144.788C161.573 144.702 161.068 144.712 160.58 144.817C160.093 144.922 159.631 145.121 159.223 145.401C158.815 145.681 158.468 146.037 158.202 146.448C157.937 146.859 157.759 147.318 157.677 147.797C157.596 148.276 157.613 148.766 157.729 149.238C157.844 149.711 158.055 150.156 158.349 150.549C158.643 150.941 159.014 151.273 159.441 151.525L159.443 151.524Z" fill="#20A1DA"/>
<path d="M156.332 168.281C157.889 169.626 164.917 170.798 164.917 170.798C164.917 170.798 162.917 164.166 161.359 162.821C160.989 162.5 160.559 162.253 160.092 162.094C159.624 161.935 159.129 161.867 158.635 161.893C158.14 161.92 157.656 162.041 157.21 162.25C156.763 162.458 156.364 162.75 156.034 163.109C155.703 163.468 155.449 163.886 155.285 164.34C155.122 164.794 155.052 165.275 155.079 165.756C155.107 166.236 155.231 166.707 155.446 167.14C155.66 167.574 155.961 167.962 156.33 168.283L156.332 168.281Z" fill="#20A1DA"/>
<path d="M105.786 36.253C105.781 33.9419 104.833 31.7271 103.148 30.0956C101.463 28.4641 99.1807 27.5495 96.8022 27.553H47.8552C45.4797 27.553 43.2015 28.4699 41.5218 30.102C39.8421 31.7342 38.8984 33.9478 38.8984 36.256C38.8984 38.5642 39.8421 40.7778 41.5218 42.4099C43.2015 44.0421 45.4797 44.959 47.8552 44.959L88.7789 44.883L98.1916 52.839V44.839C100.304 44.5237 102.23 43.485 103.623 41.9104C105.015 40.3358 105.783 38.3292 105.786 36.253V36.253Z" fill="#20A1DA"/>
<path opacity="0.2" d="M49.4084 39.553C51.1198 39.553 52.5072 38.2089 52.5072 36.551C52.5072 34.893 51.1198 33.549 49.4084 33.549C47.697 33.549 46.3096 34.893 46.3096 36.551C46.3096 38.2089 47.697 39.553 49.4084 39.553Z" fill="white"/>
<path opacity="0.2" d="M59.9387 39.553C61.6501 39.553 63.0375 38.2089 63.0375 36.551C63.0375 34.893 61.6501 33.549 59.9387 33.549C58.2272 33.549 56.8398 34.893 56.8398 36.551C56.8398 38.2089 58.2272 39.553 59.9387 39.553Z" fill="white"/>
<path opacity="0.2" d="M70.4719 39.553C72.1833 39.553 73.5707 38.2089 73.5707 36.551C73.5707 34.893 72.1833 33.549 70.4719 33.549C68.7604 33.549 67.373 34.893 67.373 36.551C67.373 38.2089 68.7604 39.553 70.4719 39.553Z" fill="white"/>
<path d="M113.856 135.361H89.1787V142.487H113.856V135.361Z" fill="#20A1DA"/>
<path opacity="0.1" d="M146.837 135.361H122.16V142.487H146.837V135.361Z" fill="#89C5CC"/>
<defs>
<linearGradient id="paint0_linear_217_2072" x1="104.427" y1="181.928" x2="104.427" y2="10.178" gradientUnits="userSpaceOnUse">
<stop stop-color="#808080" stop-opacity="0.251"/>
<stop offset="0.54" stop-color="#808080" stop-opacity="0.122"/>
<stop offset="1" stop-color="#808080" stop-opacity="0.102"/>
</linearGradient>
<linearGradient id="paint1_linear_217_2072" x1="116.996" y1="123.402" x2="116.996" y2="51.0895" gradientUnits="userSpaceOnUse">
<stop stop-color="#808080" stop-opacity="0.251"/>
<stop offset="0.54" stop-color="#808080" stop-opacity="0.122"/>
<stop offset="1" stop-color="#808080" stop-opacity="0.102"/>
</linearGradient>
</defs>
</svg>
