<svg width="247" height="176" viewBox="0 0 247 176" fill="none" xmlns="http://www.w3.org/2000/svg">
<g opacity="0.1">
<path opacity="0.1" d="M197.787 124.694C197.787 124.694 180.153 122.494 193.305 149.969C193.305 149.969 205.289 145.024 205.767 133.87C205.855 131.69 205.117 129.555 203.692 127.87C202.267 126.185 200.255 125.067 198.037 124.728L197.787 124.694Z" fill="#20A1DA"/>
<path opacity="0.1" d="M198.047 124.651C198.047 124.651 202.039 139.974 193.318 149.969" stroke="#535461" stroke-miterlimit="10"/>
<path opacity="0.1" d="M193.08 151.384C193.08 151.384 199.429 136.318 211.286 130.729C216.267 128.426 220.345 124.615 222.906 119.868C224.097 117.613 225.072 115.257 225.818 112.829" stroke="#535461" stroke-width="2" stroke-miterlimit="10"/>
<path opacity="0.1" d="M233.267 109.268C232.031 110.768 225.634 112.953 225.634 112.953C225.634 112.953 226.404 106.453 227.64 104.964C228.019 104.445 228.536 104.036 229.136 103.781C229.736 103.525 230.396 103.432 231.046 103.513C231.696 103.593 232.311 103.844 232.826 104.238C233.34 104.631 233.735 105.153 233.968 105.748C234.197 106.342 234.252 106.985 234.129 107.607C234.005 108.229 233.708 108.806 233.269 109.274L233.267 109.268Z" fill="#20A1DA"/>
<path opacity="0.1" d="M231.068 121.115C229.185 121.724 222.584 120.209 222.584 120.209C222.584 120.209 226.895 115.162 228.778 114.553C229.387 114.312 230.053 114.237 230.703 114.336C231.353 114.435 231.963 114.703 232.469 115.113C232.971 115.521 233.347 116.056 233.556 116.659C233.766 117.261 233.8 117.908 233.655 118.529C233.51 119.149 233.192 119.718 232.736 120.174C232.279 120.63 231.702 120.955 231.068 121.113V121.115Z" fill="#20A1DA"/>
<path opacity="0.1" d="M219.17 135.122C217.227 134.734 212.32 130.216 212.32 130.216C212.32 130.216 218.687 127.955 220.633 128.343C221.513 128.574 222.268 129.123 222.744 129.878C223.221 130.633 223.382 131.536 223.194 132.402C223.007 133.269 222.486 134.033 221.738 134.538C220.99 135.043 220.071 135.251 219.17 135.12V135.122Z" fill="#20A1DA"/>
<path opacity="0.1" d="M207.687 143.766C205.703 143.699 200.07 140.046 200.07 140.046C200.07 140.046 205.951 136.778 207.935 136.847C208.841 136.929 209.681 137.345 210.282 138.01C210.883 138.674 211.2 139.537 211.168 140.421C211.136 141.305 210.757 142.144 210.109 142.766C209.461 143.387 208.593 143.744 207.682 143.764L207.687 143.766Z" fill="#20A1DA"/>
<path opacity="0.1" d="M216.442 115.966C216.696 117.866 220.994 122.919 220.994 122.919C220.994 122.919 223.825 116.979 223.567 115.082C223.524 114.447 223.302 113.835 222.926 113.314C222.549 112.794 222.032 112.383 221.432 112.129C220.829 111.872 220.166 111.779 219.514 111.86C218.861 111.941 218.243 112.193 217.727 112.589C217.213 112.983 216.822 113.506 216.595 114.102C216.369 114.698 216.316 115.343 216.442 115.966Z" fill="#20A1DA"/>
<path opacity="0.1" d="M203.144 126.251C203.974 127.985 209.648 131.573 209.648 131.573C209.648 131.573 210.503 125.089 209.673 123.354C209.432 122.761 209.029 122.243 208.507 121.855C207.986 121.468 207.366 121.225 206.714 121.154C206.062 121.082 205.402 121.185 204.805 121.45C204.208 121.716 203.697 122.134 203.326 122.66C202.957 123.184 202.745 123.797 202.713 124.431C202.681 125.065 202.83 125.696 203.144 126.253V126.251Z" fill="#20A1DA"/>
<path opacity="0.1" d="M191.642 137.945C192.157 139.792 197.12 144.244 197.12 144.244C197.12 144.244 199.101 137.995 198.586 136.145C198.455 135.52 198.151 134.941 197.706 134.473C197.26 134.005 196.691 133.664 196.06 133.489C195.427 133.311 194.757 133.304 194.121 133.468C193.484 133.632 192.906 133.962 192.448 134.422C191.992 134.879 191.675 135.45 191.533 136.072C191.39 136.694 191.428 137.342 191.642 137.945Z" fill="#20A1DA"/>
<path opacity="0.25" d="M233.267 109.268C232.031 110.768 225.634 112.953 225.634 112.953C225.634 112.953 226.404 106.453 227.64 104.964C228.019 104.445 228.536 104.036 229.136 103.781C229.736 103.525 230.396 103.432 231.046 103.513C231.696 103.593 232.311 103.844 232.826 104.238C233.34 104.631 233.735 105.153 233.968 105.748C234.197 106.342 234.252 106.985 234.129 107.607C234.005 108.229 233.708 108.806 233.269 109.274L233.267 109.268Z" fill="black"/>
<path opacity="0.25" d="M231.068 121.115C229.185 121.724 222.584 120.209 222.584 120.209C222.584 120.209 226.895 115.162 228.778 114.553C229.387 114.312 230.053 114.237 230.703 114.336C231.353 114.435 231.963 114.703 232.469 115.113C232.971 115.521 233.347 116.056 233.556 116.659C233.766 117.261 233.8 117.908 233.655 118.529C233.51 119.149 233.192 119.718 232.736 120.174C232.279 120.63 231.702 120.955 231.068 121.113V121.115Z" fill="black"/>
<path opacity="0.25" d="M219.17 135.122C217.227 134.734 212.32 130.216 212.32 130.216C212.32 130.216 218.687 127.955 220.633 128.343C221.513 128.574 222.268 129.123 222.744 129.878C223.221 130.633 223.382 131.536 223.194 132.402C223.007 133.269 222.486 134.033 221.738 134.538C220.99 135.043 220.071 135.251 219.17 135.12V135.122Z" fill="black"/>
<path opacity="0.25" d="M207.687 143.766C205.703 143.699 200.07 140.046 200.07 140.046C200.07 140.046 205.951 136.778 207.935 136.847C208.841 136.929 209.681 137.345 210.282 138.01C210.883 138.674 211.2 139.537 211.168 140.421C211.136 141.305 210.757 142.144 210.109 142.766C209.461 143.387 208.593 143.744 207.682 143.764L207.687 143.766Z" fill="black"/>
<path opacity="0.25" d="M216.442 115.966C216.696 117.866 220.994 122.919 220.994 122.919C220.994 122.919 223.825 116.979 223.567 115.082C223.524 114.447 223.302 113.835 222.926 113.314C222.549 112.794 222.032 112.383 221.432 112.129C220.829 111.872 220.166 111.779 219.514 111.86C218.861 111.941 218.243 112.193 217.727 112.589C217.213 112.983 216.822 113.506 216.595 114.102C216.369 114.698 216.316 115.343 216.442 115.966Z" fill="black"/>
<path opacity="0.25" d="M203.144 126.251C203.974 127.985 209.648 131.573 209.648 131.573C209.648 131.573 210.503 125.089 209.673 123.354C209.432 122.761 209.029 122.243 208.507 121.855C207.986 121.468 207.366 121.225 206.714 121.154C206.062 121.082 205.402 121.185 204.805 121.45C204.208 121.716 203.697 122.134 203.326 122.66C202.957 123.184 202.745 123.797 202.713 124.431C202.681 125.065 202.83 125.696 203.144 126.253V126.251Z" fill="black"/>
<path opacity="0.25" d="M191.642 137.945C192.157 139.792 197.12 144.244 197.12 144.244C197.12 144.244 199.101 137.995 198.586 136.145C198.455 135.52 198.151 134.941 197.706 134.473C197.26 134.005 196.691 133.664 196.06 133.489C195.427 133.311 194.757 133.304 194.121 133.468C193.484 133.632 192.906 133.962 192.448 134.422C191.992 134.879 191.675 135.45 191.533 136.072C191.39 136.694 191.428 137.342 191.642 137.945Z" fill="black"/>
<path opacity="0.1" d="M201.535 158.241C201.535 158.241 207.884 143.175 219.741 137.586C224.72 135.281 228.795 131.469 231.355 126.723C232.546 124.468 233.52 122.112 234.265 119.684" stroke="#535461" stroke-width="2" stroke-miterlimit="10"/>
<path opacity="0.1" d="M241.711 116.115C240.476 117.615 234.078 119.8 234.078 119.8C234.078 119.8 234.848 113.3 236.084 111.811C236.701 111.154 237.552 110.748 238.464 110.675C239.377 110.601 240.284 110.866 241.004 111.416C241.719 111.962 242.192 112.754 242.324 113.629C242.455 114.503 242.236 115.394 241.712 116.116L241.711 116.115Z" fill="#20A1DA"/>
<path opacity="0.1" d="M239.521 127.966C237.639 128.575 231.037 127.06 231.037 127.06C231.037 127.06 235.349 122.013 237.231 121.404C238.113 121.176 239.05 121.282 239.855 121.699C240.66 122.116 241.272 122.814 241.569 123.652C241.859 124.489 241.809 125.402 241.428 126.204C241.047 127.007 240.365 127.637 239.521 127.966Z" fill="#20A1DA"/>
<path opacity="0.1" d="M227.62 141.98C225.677 141.592 220.771 137.075 220.771 137.075C220.771 137.075 227.138 134.814 229.083 135.202C229.962 135.433 230.717 135.982 231.194 136.737C231.67 137.492 231.831 138.395 231.644 139.261C231.457 140.128 230.935 140.892 230.187 141.397C229.439 141.902 228.52 142.11 227.619 141.978L227.62 141.98Z" fill="#20A1DA"/>
<path opacity="0.1" d="M216.134 150.615C214.151 150.548 208.518 146.895 208.518 146.895C208.518 146.895 214.399 143.63 216.382 143.695C217.288 143.778 218.128 144.194 218.729 144.859C219.33 145.523 219.647 146.386 219.615 147.27C219.583 148.154 219.204 148.993 218.556 149.614C217.908 150.236 217.04 150.593 216.13 150.613L216.134 150.615Z" fill="#20A1DA"/>
<path opacity="0.1" d="M224.888 122.826C225.143 124.726 229.441 129.779 229.441 129.779C229.441 129.779 232.271 123.839 232.014 121.942C231.971 121.307 231.749 120.695 231.372 120.174C230.996 119.653 230.479 119.243 229.878 118.989C229.276 118.732 228.612 118.639 227.96 118.72C227.307 118.801 226.69 119.053 226.173 119.449C225.66 119.842 225.268 120.366 225.042 120.962C224.815 121.558 224.762 122.203 224.888 122.826Z" fill="#20A1DA"/>
<path opacity="0.1" d="M211.593 133.092C212.424 134.826 218.098 138.414 218.098 138.414C218.098 138.414 218.953 131.93 218.122 130.195C217.682 129.418 216.955 128.831 216.088 128.553C215.22 128.275 214.277 128.325 213.447 128.695C212.617 129.059 211.963 129.718 211.618 130.536C211.274 131.355 211.265 132.27 211.594 133.095L211.593 133.092Z" fill="#20A1DA"/>
<path opacity="0.1" d="M200.092 144.799C200.607 146.645 205.57 151.098 205.57 151.098C205.57 151.098 207.551 144.848 207.035 142.998C206.735 142.162 206.121 141.467 205.315 141.053C204.509 140.639 203.572 140.537 202.692 140.767C201.811 140.99 201.051 141.531 200.568 142.281C200.085 143.03 199.914 143.931 200.092 144.799Z" fill="#20A1DA"/>
</g>
<path opacity="0.1" d="M2.66895 93.2183C6.57999 109.304 14.8519 123.209 27.9281 129.949C55.0996 143.955 116.392 136.732 162.139 128.431C185.202 124.275 206.169 112.734 221.693 95.6482L2.66895 93.2183Z" fill="#20A1DA"/>
<path opacity="0.1" d="M242.532 17.5034H217.435C216.865 17.5034 216.318 17.2833 215.914 16.8916C215.511 16.4998 215.285 15.9685 215.285 15.4144C215.285 14.8604 215.511 14.3291 215.914 13.9373C216.318 13.5456 216.865 13.3255 217.435 13.3255H221.773C221.491 13.3255 221.211 13.2714 220.95 13.1665C220.689 13.0615 220.452 12.9076 220.253 12.7136C220.053 12.5196 219.895 12.2894 219.787 12.0359C219.679 11.7825 219.623 11.5108 219.623 11.2365C219.623 10.9622 219.679 10.6905 219.787 10.4371C219.895 10.1836 220.053 9.95336 220.253 9.75938C220.452 9.5654 220.689 9.41153 220.95 9.30655C221.211 9.20157 221.491 9.14754 221.773 9.14754H218.68C218.11 9.14754 217.563 8.92745 217.16 8.53569C216.757 8.14394 216.53 7.6126 216.53 7.05857C216.53 6.50454 216.757 5.9732 217.16 5.58145C217.563 5.18969 218.11 4.9696 218.68 4.9696H231.779C228.535 3.56594 225.09 2.65143 221.562 2.25764C185.848 -2.16029 173.092 0.757664 168.593 3.77562C163.069 7.52812 156.824 10.1623 150.23 11.5215C128.19 15.8944 86.9757 21.1624 49.6211 9.83053C31.0529 4.19661 17.2561 13.7215 8.98633 29.6212H246.889C246.677 25.2771 245.679 21.0033 243.941 16.9954C243.549 17.3225 243.049 17.5027 242.532 17.5034Z" fill="#20A1DA"/>
<path opacity="0.1" d="M0.539726 59.6448C-0.423897 69.0004 -0.0961011 78.4391 1.5144 87.7103L221.865 95.4692C227.993 88.6841 233.144 81.1214 237.176 72.9886L0.539726 59.6448ZM87.6912 79.6655H83.353C83.9233 79.6655 84.4702 79.8855 84.8734 80.2773C85.2766 80.6691 85.5031 81.2004 85.5031 81.7544C85.5031 82.3085 85.2766 82.8398 84.8734 83.2315C84.4702 83.6233 83.9233 83.8434 83.353 83.8434H58.2544C57.6842 83.8434 57.1373 83.6233 56.7341 83.2315C56.3309 82.8398 56.1044 82.3085 56.1044 81.7544C56.1044 81.2004 56.3309 80.6691 56.7341 80.2773C57.1373 79.8855 57.6842 79.6655 58.2544 79.6655H62.5926C62.0224 79.6655 61.4755 79.4454 61.0723 79.0536C60.6691 78.6618 60.4425 78.1305 60.4425 77.5765C60.4425 77.0225 60.6691 76.4911 61.0723 76.0994C61.4755 75.7076 62.0224 75.4875 62.5926 75.4875H59.4946C58.9244 75.4875 58.3775 75.2674 57.9743 74.8757C57.5711 74.4839 57.3446 73.9526 57.3446 73.3986C57.3446 72.8445 57.5711 72.3132 57.9743 71.9214C58.3775 71.5297 58.9244 71.3096 59.4946 71.3096H84.5922C85.1625 71.3096 85.7093 71.5297 86.1125 71.9214C86.5158 72.3132 86.7423 72.8445 86.7423 73.3986C86.7423 73.9526 86.5158 74.4839 86.1125 74.8757C85.7093 75.2674 85.1625 75.4875 84.5922 75.4875H87.6902C88.2604 75.4875 88.8073 75.7076 89.2105 76.0994C89.6137 76.4911 89.8402 77.0225 89.8402 77.5765C89.8402 78.1305 89.6137 78.6618 89.2105 79.0536C88.8073 79.4454 88.2604 79.6655 87.6902 79.6655H87.6912Z" fill="#20A1DA"/>
<path opacity="0.1" d="M246.902 29.7672L6.33056 35.4041C3.31898 43.0904 1.38355 51.1349 0.576172 59.3218H242.687C244.269 54.3379 245.439 49.2395 246.187 44.075C246.917 39.341 247.157 34.5477 246.902 29.7672ZM49.4159 48.2309H45.0777C45.6479 48.2309 46.1948 48.451 46.598 48.8428C47.0012 49.2345 47.2278 49.7659 47.2278 50.3199C47.2278 50.8739 47.0012 51.4053 46.598 51.797C46.1948 52.1888 45.6479 52.4089 45.0777 52.4089H19.9801C19.4099 52.4089 18.863 52.1888 18.4598 51.797C18.0566 51.4053 17.8301 50.8739 17.8301 50.3199C17.8301 49.7659 18.0566 49.2345 18.4598 48.8428C18.863 48.451 19.4099 48.2309 19.9801 48.2309H24.3183C24.0359 48.2309 23.7564 48.1769 23.4955 48.0719C23.2346 47.9669 22.9976 47.8131 22.798 47.6191C22.5983 47.4251 22.4399 47.1948 22.3319 46.9414C22.2238 46.6879 22.1682 46.4163 22.1682 46.142C22.1682 45.8676 22.2238 45.596 22.3319 45.3426C22.4399 45.0891 22.5983 44.8588 22.798 44.6648C22.9976 44.4708 23.2346 44.317 23.4955 44.212C23.7564 44.107 24.0359 44.053 24.3183 44.053H21.2203C20.6501 44.053 20.1032 43.8329 19.7 43.4412C19.2968 43.0494 19.0703 42.518 19.0703 41.964C19.0703 41.41 19.2968 40.8787 19.7 40.4869C20.1032 40.0951 20.6501 39.8751 21.2203 39.8751H46.3179C46.8881 39.8751 47.435 40.0951 47.8382 40.4869C48.2414 40.8787 48.468 41.41 48.468 41.964C48.468 42.518 48.2414 43.0494 47.8382 43.4412C47.435 43.8329 46.8881 44.053 46.3179 44.053H49.4159C49.6982 44.053 49.9778 44.107 50.2387 44.212C50.4995 44.317 50.7365 44.4708 50.9362 44.6648C51.1358 44.8588 51.2942 45.0891 51.4023 45.3426C51.5103 45.596 51.5659 45.8676 51.5659 46.142C51.5659 46.4163 51.5103 46.6879 51.4023 46.9414C51.2942 47.1948 51.1358 47.4251 50.9362 47.6191C50.7365 47.8131 50.4995 47.9669 50.2387 48.0719C49.9778 48.1769 49.6982 48.2309 49.4159 48.2309Z" fill="#20A1DA"/>
<path d="M211.345 175.887C211.345 175.887 201.312 122.904 182.181 114.306C169.643 108.849 156.697 104.323 143.455 100.767C142.709 99.6116 141.847 98.5304 140.882 97.5392C134.069 90.6913 129.972 90.8183 129.314 90.9033C129 89.5455 128.774 88.1698 128.639 86.7843C128.618 86.5674 128.598 86.3664 128.58 86.1514L128.639 86.1234C128.598 85.7134 128.562 85.2907 128.531 84.8554C131.309 83.4283 133.869 81.6329 136.139 79.5205C136.167 79.6135 136.193 79.7065 136.224 79.8025C141.134 75.8065 145.943 71.7019 150.65 67.4886C152.001 66.2727 153.419 64.9527 153.878 63.2377C154.025 62.649 154.082 62.0425 154.047 61.4377C154.108 60.1378 153.788 58.8078 153.738 57.4898C153.741 57.2808 153.759 57.0723 153.792 56.8658C154.107 54.7088 155.665 52.9379 156.944 51.1279C160.136 46.563 161.805 41.1543 161.724 35.6361C161.758 32.9957 161.379 30.3656 160.598 27.8362C159.601 24.6233 157.525 21.2483 154.069 20.5454C152.711 20.3898 151.344 20.3276 149.977 20.3594C144.328 20.0124 140.097 15.5904 135.595 12.3495C130.085 8.40853 123.585 5.97945 116.777 5.31658C114.654 5.01936 112.49 5.16181 110.427 5.73458C105.881 7.19155 103.12 11.6895 98.7417 13.5345C95.5038 14.9084 91.7625 14.6854 88.3846 15.7174C83.3569 17.2564 79.0908 22.2173 78.9775 27.3172V27.9782C78.9209 30.5562 79.8781 33.1782 79.9543 35.8191C79.9543 36.0578 79.958 36.2971 79.9656 36.5371C80.0109 39.3943 79.5173 42.2355 78.5092 44.92C77.7816 46.3382 77.3702 47.8897 77.302 49.4729C77.2452 49.8992 77.2825 50.3323 77.4113 50.7435C77.5401 51.1548 77.7576 51.5346 78.0492 51.8579L79.1371 50.9339C78.0751 56.4757 78.5648 62.1929 80.5552 67.4878C82.5455 72.7828 85.9633 77.461 90.4513 81.0334C90.4932 81.6821 90.5336 82.3774 90.5728 83.1194C90.7436 86.3324 90.8815 90.3623 90.8404 94.7542L80.2219 104.154L52.9269 116.075C52.9269 116.075 27.9621 121.152 33.3387 154.921L35.9056 175.889H58.6977L58.6463 176H92.4748L92.4954 175.889H172.981L172.965 176H176.118V175.889L211.345 175.887ZM129.522 91.4413C130.211 92.8145 130.754 94.2526 131.143 95.7332C130.346 94.3103 129.758 92.7867 129.393 91.2063L129.427 91.2653L129.522 91.4413ZM90.8363 95.7772C90.8363 96.1905 90.8287 96.6075 90.8136 97.0282L90.7601 97.1022C90.7563 96.6561 90.7818 96.2102 90.8363 95.7672V95.7772Z" fill="url(#paint0_linear_217_748)"/>
<path d="M138.424 101.094L133.921 142.501L109.83 149.871C109.83 149.871 78.5343 144.234 86.6394 127.972C92.4031 116.406 92.2456 95.7372 91.6734 84.7724C91.448 80.3194 91.1423 77.4645 91.1423 77.4645C91.1423 77.4645 132.12 42.995 128.743 73.9955C128.145 78.7615 128.036 83.5733 128.415 88.3603C129.934 103.631 138.424 101.094 138.424 101.094Z" fill="#FFC9C9"/>
<path opacity="0.03" d="M138.424 101.094L133.921 142.501L109.83 149.871C109.83 149.871 78.5343 144.234 86.6394 127.972C92.4031 116.406 92.2456 95.7372 91.6734 84.7724C91.448 80.3194 91.1423 77.4645 91.1423 77.4645C91.1423 77.4645 132.12 42.995 128.743 73.9955C128.145 78.7615 128.036 83.5733 128.415 88.3603C129.934 103.631 138.424 101.094 138.424 101.094Z" fill="black"/>
<path opacity="0.1" d="M128.743 73.3456C128.146 78.1116 128.036 82.9233 128.415 87.7103C122.624 90.7528 116.027 92.0373 109.476 91.3977C102.926 90.7581 96.7237 88.2237 91.6717 84.1224C91.4463 79.6695 91.1406 76.8145 91.1406 76.8145C91.1406 76.8145 132.12 42.345 128.743 73.3456Z" fill="black"/>
<path d="M112.757 90.2583C130.788 90.2583 145.404 76.1846 145.404 58.8238C145.404 41.463 130.788 27.3893 112.757 27.3893C94.7269 27.3893 80.1104 41.463 80.1104 58.8238C80.1104 76.1846 94.7269 90.2583 112.757 90.2583Z" fill="#FFC9C9"/>
<path opacity="0.03" d="M112.757 90.2583C130.788 90.2583 145.404 76.1846 145.404 58.8238C145.404 41.463 130.788 27.3893 112.757 27.3893C94.7269 27.3893 80.1104 41.463 80.1104 58.8238C80.1104 76.1846 94.7269 90.2583 112.757 90.2583Z" fill="black"/>
<path d="M208.22 175.887H38.9068L36.4305 155.287C31.2525 122.119 55.3435 117.133 55.3435 117.133L81.6865 105.426L92.1557 95.9962C88.7788 108.353 114.333 134.043 114.333 134.043C114.498 133.896 114.653 133.74 114.8 133.577C115.488 132.853 117.135 131.041 120.989 126.544C122.368 124.933 124.031 122.98 126.033 120.608C135.669 109.208 130.725 95.7312 129.248 92.9452L129.155 92.7722C129.099 92.6722 129.052 92.5923 129.022 92.5363C129.013 92.5156 129.002 92.4958 128.988 92.4773C128.979 92.4635 128.971 92.4492 128.964 92.4343L141.347 101.756C141.347 101.756 141.823 101.877 142.699 102.116C155.492 105.606 167.988 110.052 180.074 115.416C198.539 123.858 208.22 175.887 208.22 175.887Z" fill="#20A1DA"/>
<path d="M150.577 126.243C148.55 124.292 134.816 121.907 134.816 121.907C135.267 127.107 118.605 135.131 118.605 135.131L119.84 175.887H111.851L110.5 139.25L114.328 134.05L114.794 133.584C117.011 131.371 119.078 129.022 120.984 126.551C122.362 124.94 124.025 122.987 126.027 120.615C135.663 109.215 130.719 95.7382 129.242 92.9522L129.15 92.7792C129.096 92.6792 129.053 92.5992 129.017 92.5433C129.007 92.5226 128.996 92.5028 128.983 92.4843C128.973 92.4705 128.965 92.4562 128.958 92.4413C128.958 92.4413 133.011 91.5743 140.216 98.9412C141.146 99.9191 141.976 100.984 142.692 102.119C148.558 111.165 152.367 127.962 150.577 126.243Z" fill="#20A1DA"/>
<path opacity="0.1" d="M150.577 126.243C148.55 124.292 134.816 121.907 134.816 121.907C135.267 127.107 118.605 135.131 118.605 135.131L119.84 175.887H111.851L110.5 139.25L114.328 134.05L114.794 133.584C117.011 131.371 119.078 129.022 120.984 126.551C122.362 124.94 124.025 122.987 126.027 120.615C135.663 109.215 130.719 95.7382 129.242 92.9522L129.15 92.7792C129.096 92.6792 129.053 92.5992 129.017 92.5433C129.007 92.5226 128.996 92.5028 128.983 92.4843C128.973 92.4705 128.965 92.4562 128.958 92.4413C128.958 92.4413 133.011 91.5743 140.216 98.9412C141.146 99.9191 141.976 100.984 142.692 102.119C148.558 111.165 152.367 127.962 150.577 126.243Z" fill="black"/>
<path opacity="0.1" d="M58.9453 142.935C58.9453 142.935 69.5278 163.746 70.0908 175.995L58.9453 142.935Z" fill="black"/>
<path opacity="0.1" d="M174.222 154.86L171.183 175.997H174.222V154.86Z" fill="black"/>
<path opacity="0.1" d="M61.3086 175.995L78.0849 139.25C78.0849 139.25 82.8132 130.578 83.9391 121.907C85.0651 113.236 91.1437 99.5772 91.1437 99.5772C91.1437 99.5772 106.229 81.1505 113.208 83.7514C120.187 86.3524 107.13 96.1082 107.13 96.1082C107.13 96.1082 126.267 103.262 113.208 124.508C100.149 145.753 99.924 141.851 99.924 141.851L93.5068 175.995H61.3086Z" fill="black"/>
<path d="M60.8594 175.995L77.6357 139.25C77.6357 139.25 82.364 130.578 83.4899 121.907C84.2104 116.394 86.9234 108.865 88.8079 104.107C90.0405 100.995 91.8507 98.1292 94.1485 95.6522C99.025 90.3973 107.883 81.9234 112.76 83.7444C119.739 86.3444 106.681 96.1012 106.681 96.1012C106.681 96.1012 125.819 103.255 112.76 124.501C99.7012 145.746 99.4758 141.843 99.4758 141.843L93.0586 175.988L60.8594 175.995Z" fill="#FFC9C9"/>
<path opacity="0.15" d="M122.775 41.804C123.148 41.804 123.45 41.513 123.45 41.154C123.45 40.795 123.148 40.504 122.775 40.504C122.402 40.504 122.1 40.795 122.1 41.154C122.1 41.513 122.402 41.804 122.775 41.804Z" fill="white"/>
<path opacity="0.15" d="M119.622 43.105C119.995 43.105 120.298 42.814 120.298 42.455C120.298 42.0961 119.995 41.8051 119.622 41.8051C119.25 41.8051 118.947 42.0961 118.947 42.455C118.947 42.814 119.25 43.105 119.622 43.105Z" fill="white"/>
<path opacity="0.1" d="M89.5645 19.2094C92.822 18.1944 96.4387 18.4094 99.5634 17.0654C103.789 15.2404 106.453 10.8215 110.838 9.39153C112.827 8.83465 114.916 8.69491 116.964 8.98154C123.551 9.63917 129.83 12.0276 135.125 15.8904C139.473 19.0754 143.552 23.4173 149.003 23.7573C150.322 23.7253 151.641 23.7862 152.95 23.9393C156.291 24.6283 158.293 27.9393 159.254 31.0932C160.366 34.8269 160.626 38.7511 160.017 42.5926C159.408 46.434 157.945 50.1003 155.728 53.3359C154.493 55.1138 152.99 56.8548 152.687 58.9728C152.389 61.0497 153.304 63.2027 152.772 65.2357C152.157 66.8839 151.077 68.3306 149.656 69.4106C145.115 73.5439 140.475 77.5725 135.734 81.4964C133.271 73.9606 136.885 65.8467 136.322 57.9658C136.097 54.8958 134.971 51.5449 132.159 50.0959C129.527 48.7429 126.163 49.4459 123.5 48.1449C120.528 46.703 119.308 43.289 117.06 40.9261C113.232 36.8941 106.589 36.3731 101.237 38.1941C95.8849 40.0151 91.5107 43.761 87.2775 47.414L79.5841 54.0589C78.0824 52.4289 79.2218 49.9269 80.0349 47.8889C81.1426 44.8118 81.6168 41.553 81.4305 38.2981C81.3657 35.6981 80.4332 33.1282 80.4867 30.5982C80.5969 25.6023 84.7127 20.7204 89.5645 19.2094Z" fill="black"/>
<path d="M89.5645 18.5594C92.822 17.5444 96.4387 17.7594 99.5634 16.4155C103.789 14.5905 106.453 10.1715 110.838 8.74157C112.827 8.18469 114.916 8.04494 116.964 8.33158C123.551 8.98916 129.83 11.3776 135.125 15.2405C139.473 18.4254 143.552 22.7674 149.003 23.1074C150.322 23.0754 151.641 23.1362 152.95 23.2894C156.291 23.9783 158.293 27.2893 159.254 30.4432C160.366 34.1769 160.626 38.1012 160.017 41.9426C159.408 45.7841 157.945 49.4503 155.728 52.6859C154.493 54.4639 152.99 56.2048 152.687 58.3228C152.389 60.3998 153.304 62.5528 152.772 64.5857C152.157 66.2339 151.077 67.6807 149.656 68.7607C145.115 72.8939 140.475 76.9225 135.734 80.8465C133.271 73.3106 136.885 65.1967 136.322 57.3158C136.097 54.2459 134.971 50.8949 132.159 49.446C129.527 48.093 126.163 48.796 123.5 47.495C120.528 46.053 119.308 42.6391 117.06 40.2761C113.232 36.2442 106.589 35.7232 101.237 37.5441C95.8849 39.3651 91.5107 43.111 87.2775 46.764L79.5841 53.4089C78.0824 51.7789 79.2218 49.277 80.0349 47.239C81.1426 44.1618 81.6168 40.9031 81.4305 37.6481C81.3657 35.0482 80.4332 32.4782 80.4867 29.9482C80.5969 24.9523 84.7127 20.0704 89.5645 18.5594Z" fill="#D96C6C"/>
<defs>
<linearGradient id="paint0_linear_217_748" x1="121.962" y1="176" x2="121.962" y2="5.16553" gradientUnits="userSpaceOnUse">
<stop stop-color="#808080" stop-opacity="0.251"/>
<stop offset="0.54" stop-color="#808080" stop-opacity="0.122"/>
<stop offset="1" stop-color="#808080" stop-opacity="0.102"/>
</linearGradient>
</defs>
</svg>
