<svg xmlns="http://www.w3.org/2000/svg" xmlns:xlink="http://www.w3.org/1999/xlink" viewBox="0 0 600 464"><defs><style>.cls-1,.cls-9{fill:#5387af;}.cls-1,.cls-13,.cls-2,.cls-4{opacity:0.1;}.cls-1,.cls-13,.cls-16,.cls-21,.cls-4{isolation:isolate;}.cls-3,.cls-4{fill:#3c75a1;}.cls-5{fill:#41434f;}.cls-6{fill:#f3f5f8;}.cls-21,.cls-7{opacity:0.2;}.cls-8{fill:#383b3f;}.cls-10{fill:url(#linear-gradient);}.cls-11{fill:#514f6b;}.cls-12{fill:#90635e;}.cls-13,.cls-16,.cls-18,.cls-21{fill:#050706;}.cls-14{fill:#f6afb0;}.cls-15{fill:#5d67ae;}.cls-16{opacity:0.05;}.cls-17{fill:#68494a;}.cls-19{fill:#ffc625;}.cls-20{fill:#989897;}</style><linearGradient id="linear-gradient" x1="-67.87" y1="773.84" x2="-67.87" y2="773.83" gradientTransform="matrix(129.12, 0, 0, -365.98, 8868.65, 283971.97)" gradientUnits="userSpaceOnUse"><stop offset="0" stop-color="#6d6d6d" stop-opacity="0.25"/><stop offset="0.54" stop-color="#6d6d6d" stop-opacity="0.12"/><stop offset="1" stop-color="#6d6d6d" stop-opacity="0.1"/></linearGradient></defs><g id="Layer_2" data-name="Layer 2"><g id="Layer_1-2" data-name="Layer 1"><g id="Group_7925" data-name="Group 7925"><path id="Path_19603" data-name="Path 19603" class="cls-1" d="M469.7.36C489-.35,509.13-.85,526.56,7.41c25.71,12.15,34.59,41.48,16.31,63.36-15.67,27.31-16.4,62.61-1.87,90.55,20.9,38.07,79.3,77.89,51.76,125.9-32.55,46.09-112-.12-186.58,38.36C192.26,446,325.84,356.88,162.09,348c-57.9,2.55-118.5-11.25-143.11-69.58C2.86,240.81-6.44,195,5.22,154.94c6.34-16.55,19.17-29.72,32.63-41.24,30.34-29.34,71-39,112.13-40.16A898.52,898.52,0,0,0,284.41,52c42-10,88-21,126.23-41.39C429.82.32,448.09,1.14,469.7.36Z"/><g id="Group_7897" data-name="Group 7897" class="cls-2"><path id="Path_19604" data-name="Path 19604" class="cls-3" d="M203.75,349.09c-1.82-40.68-32.38-42.28-30.64-78.69"/><path id="Path_19605" data-name="Path 19605" class="cls-3" d="M163.41,260.9c1.14,3,9.93,9.79,9.93,9.79,6.87-24.8-13-19.35-9.93-9.79Z"/><path id="Path_19606" data-name="Path 19606" class="cls-3" d="M160.61,281.11c2.6,1.93,13.65,2.83,13.65,2.83-7.63-24.3-21-9.2-13.65-2.83Z"/><path id="Path_19607" data-name="Path 19607" class="cls-3" d="M171.75,309.7c3.23.36,13.22-4.43,13.22-4.43s-8.71-6.86-11.93-7.21c-7.19-.54-8.41,10.6-1.29,11.64Z"/><path id="Path_19608" data-name="Path 19608" class="cls-3" d="M185.06,329.44c3.11.9,13.78-2.15,13.78-2.15-16-20.4-23.64-1-13.78,2.15Z"/><path id="Path_19609" data-name="Path 19609" class="cls-3" d="M186,280.21c-1.38,2.93-10.71,8.91-10.71,8.91C170.63,263.92,189.64,271.22,186,280.21Z"/><path id="Path_19610" data-name="Path 19610" class="cls-3" d="M201.3,303.49c-2.21,2.38-12.89,5.3-12.89,5.3,2.92-25.31,19.34-13.27,12.9-5.3Z"/><path id="Path_19611" data-name="Path 19611" class="cls-3" d="M213,328.15c-1.77,2.72-11.82,7.4-11.82,7.4C199.9,310.07,217.81,319.56,213,328.15Z"/><path id="Path_19612" data-name="Path 19612" class="cls-3" d="M163.41,260.9c1.14,3,9.93,9.79,9.93,9.79,6.87-24.8-13-19.35-9.93-9.79Z"/><path id="Path_19613" data-name="Path 19613" class="cls-3" d="M160.61,281.11c2.6,1.93,13.65,2.83,13.65,2.83-7.63-24.3-21-9.2-13.65-2.83Z"/><path id="Path_19614" data-name="Path 19614" class="cls-3" d="M171.75,309.7c3.23.36,13.22-4.43,13.22-4.43s-8.71-6.86-11.93-7.21c-7.19-.54-8.41,10.6-1.29,11.64Z"/><path id="Path_19615" data-name="Path 19615" class="cls-3" d="M185.06,329.44c3.11.9,13.78-2.15,13.78-2.15-16-20.4-23.64-1-13.78,2.15Z"/><path id="Path_19616" data-name="Path 19616" class="cls-3" d="M186,280.21c-1.38,2.93-10.71,8.91-10.71,8.91C170.63,263.92,189.64,271.22,186,280.21Z"/><path id="Path_19617" data-name="Path 19617" class="cls-3" d="M201.3,303.49c-2.21,2.38-12.89,5.3-12.89,5.3,2.92-25.31,19.34-13.27,12.9-5.3Z"/><path id="Path_19618" data-name="Path 19618" class="cls-3" d="M213,328.15c-1.77,2.72-11.82,7.4-11.82,7.4C199.9,310.07,217.81,319.56,213,328.15Z"/></g><g id="Group_7898" data-name="Group 7898" class="cls-2"><path id="Path_19619" data-name="Path 19619" class="cls-3" d="M198.31,245c-1.81-40.66-32.39-42.32-30.63-78.69"/><path id="Path_19620" data-name="Path 19620" class="cls-3" d="M158,156.79c1.11,3,9.92,9.79,9.92,9.79,6.88-24.81-13-19.35-9.92-9.79Z"/><path id="Path_19621" data-name="Path 19621" class="cls-3" d="M155.15,177c2.6,1.93,13.66,2.82,13.66,2.82-7.64-24.57-21.84-9.46-13.65-2.82Z"/><path id="Path_19622" data-name="Path 19622" class="cls-3" d="M166.32,205.6c3.22.36,13.21-4.43,13.21-4.43-19.13-17.31-23.07,2.94-13.21,4.46Z"/><path id="Path_19623" data-name="Path 19623" class="cls-3" d="M179.62,225.34c3.12.89,13.78-2.16,13.78-2.16-16-20.36-23.33-1-13.77,2.16Z"/><path id="Path_19624" data-name="Path 19624" class="cls-3" d="M180.6,176.1C179.21,179,169.88,185,169.88,185c-4.74-25.31,14.57-18.18,10.72-8.92Z"/><path id="Path_19625" data-name="Path 19625" class="cls-3" d="M195.87,199.38c-2.22,2.39-12.9,5.3-12.9,5.3C185.94,179.42,202.06,191.6,195.87,199.38Z"/><path id="Path_19626" data-name="Path 19626" class="cls-3" d="M207.6,224.05c-1.77,2.71-11.81,7.4-11.81,7.4C194.41,205.71,212.91,215.1,207.6,224.05Z"/><path id="Path_19627" data-name="Path 19627" class="cls-3" d="M158,156.79c1.11,3,9.92,9.79,9.92,9.79,6.88-24.81-13-19.35-9.92-9.79Z"/><path id="Path_19628" data-name="Path 19628" class="cls-3" d="M155.15,177c2.6,1.93,13.66,2.82,13.66,2.82-7.64-24.57-21.84-9.46-13.65-2.82Z"/><path id="Path_19629" data-name="Path 19629" class="cls-3" d="M166.32,205.6c3.22.36,13.21-4.43,13.21-4.43-19.13-17.31-23.07,2.94-13.21,4.46Z"/><path id="Path_19630" data-name="Path 19630" class="cls-3" d="M179.62,225.34c3.12.89,13.78-2.16,13.78-2.16-16-20.36-23.33-1-13.77,2.16Z"/><path id="Path_19631" data-name="Path 19631" class="cls-3" d="M180.6,176.1C179.21,179,169.88,185,169.88,185c-4.74-25.31,14.57-18.18,10.72-8.92Z"/><path id="Path_19632" data-name="Path 19632" class="cls-3" d="M195.87,199.38c-2.22,2.39-12.9,5.3-12.9,5.3C185.94,179.42,202.06,191.6,195.87,199.38Z"/><path id="Path_19633" data-name="Path 19633" class="cls-3" d="M207.6,224.05c-1.77,2.71-11.81,7.4-11.81,7.4C194.41,205.71,212.91,215.1,207.6,224.05Z"/></g><g id="Group_7899" data-name="Group 7899" class="cls-2"><path id="Path_19634" data-name="Path 19634" class="cls-3" d="M492.57,281c35.69-20.07,23.18-47.88,56.57-62.71"/><path id="Path_19635" data-name="Path 19635" class="cls-3" d="M553.27,205.37c-2.22,2.38-4.28,13.27-4.28,13.27C574,213.7,560.48,198.61,553.27,205.37Z"/><path id="Path_19636" data-name="Path 19636" class="cls-3" d="M533.94,212c-.55,3.2,3.62,13.46,3.62,13.46C556.15,207.42,536.05,201.85,533.94,212Z"/><path id="Path_19637" data-name="Path 19637" class="cls-3" d="M513.4,234.76c1.1,3,9.92,9.8,9.92,9.8C530.26,219.67,510.15,224.94,513.4,234.76Z"/><path id="Path_19638" data-name="Path 19638" class="cls-3" d="M501.74,255.51c.6,3.19,8.12,11.36,8.12,11.36,11-23.35-9.54-21.22-8.12-11.34Z"/><path id="Path_19639" data-name="Path 19639" class="cls-3" d="M546.18,234.25c-3.24.07-12.79-5.55-12.79-5.55,20.63-15.69,22.85,5,12.79,5.56Z"/><path id="Path_19640" data-name="Path 19640" class="cls-3" d="M532.24,258.35c-3.12-.9-10.54-9.14-10.54-9.14s10.66-3,13.78-2.15c7.14,2.1,3.92,13.3-3.25,11.29Z"/><path id="Path_19641" data-name="Path 19641" class="cls-3" d="M515.48,279.91c-3.23-.36-11.94-7.21-11.94-7.21C526.18,259.8,526.06,280.9,515.48,279.91Z"/><path id="Path_19642" data-name="Path 19642" class="cls-3" d="M553.27,205.37c-2.22,2.38-4.28,13.27-4.28,13.27C574,213.7,560.48,198.61,553.27,205.37Z"/><path id="Path_19643" data-name="Path 19643" class="cls-3" d="M533.94,212c-.55,3.2,3.62,13.46,3.62,13.46C556.15,207.42,536.05,201.85,533.94,212Z"/><path id="Path_19644" data-name="Path 19644" class="cls-3" d="M513.4,234.76c1.1,3,9.92,9.8,9.92,9.8C530.26,219.67,510.15,224.94,513.4,234.76Z"/><path id="Path_19645" data-name="Path 19645" class="cls-3" d="M501.74,255.51c.6,3.19,8.12,11.36,8.12,11.36,11-23.35-9.54-21.22-8.12-11.34Z"/><path id="Path_19646" data-name="Path 19646" class="cls-3" d="M546.18,234.25c-3.24.07-12.79-5.55-12.79-5.55,20.63-15.69,22.85,5,12.79,5.56Z"/><path id="Path_19647" data-name="Path 19647" class="cls-3" d="M532.24,258.35c-3.12-.9-10.54-9.14-10.54-9.14s10.66-3,13.78-2.15c7.14,2.1,3.92,13.3-3.25,11.29Z"/><path id="Path_19648" data-name="Path 19648" class="cls-3" d="M515.48,279.91c-3.23-.36-11.94-7.21-11.94-7.21C526.18,259.8,526.06,280.9,515.48,279.91Z"/></g><path id="Path_19649" data-name="Path 19649" class="cls-4" d="M202.16,447c-17.91,8.63-41.08-.2-60.5,4.67-6.89,9-16,13.71-28.83,11.91-26.09-5.74-49.51-17.62-76.42-8-3.2-.4-4.16-3.73-6.39-5.62-4-3.42-12.81-2.49-14.59-7,1-14,29.22-15.12,41.25-14.11,13.05,1.06,25.88,4,39,4,16.35,0,32.14-4.5,48.33-6.35,11.21-1.28,23.44-1.11,34,2.64C189.36,433.24,191.87,442.38,202.16,447Z"/><path id="Path_19650" data-name="Path 19650" class="cls-4" d="M503.55,425.8c-30.6,9.75-69.8-.24-103.28,5.28-12.9,11-28.32,15.29-49.21,13.46-43.34-6.53-87-19.83-130.45-9.07-5.46-.46-7.09-4.2-10.91-6.34-6.9-3.88-21.86-2.81-24.89-7.9,1.27-16.37,53.59-17,70.41-16,49.85,6.45,99.44,4.15,149-2.65,19.13-1.44,40-1.26,58,3C481.69,410.23,486,420.55,503.55,425.8Z"/><path id="Path_19651" data-name="Path 19651" class="cls-4" d="M576.3,445c-8.73,5.81-20.11-.13-29.44,3.14-2.83,5.34-7.68,9.42-14,8-12.13-3.7-24.52-11.93-37.19-5.38-1.55-.27-2-2.51-3.1-3.78-2-2.31-6.24-1.67-7.1-4.72.41-8.87,13.1-10.37,20.07-9.52,27,8.24,39.18-7.27,59,.16C570.07,435.68,571.29,441.84,576.3,445Z"/><path id="Path_19708" data-name="Path 19708" class="cls-5" d="M471.7,24.63H214a20,20,0,0,0-20,20h0V400.16a20,20,0,0,0,20,20H471.7a20,20,0,0,0,20-20h0V44.62a20,20,0,0,0-20-20Zm4.86,358.11H209.09V62H476.55Z"/><path id="Ellipse_2119" data-name="Ellipse 2119" class="cls-6" d="M344,39.13c4.71-.07,4.71,7.33,0,7.27S339.32,39.06,344,39.13Z"/><path id="Ellipse_2120" data-name="Ellipse 2120" class="cls-6" d="M344,389.91c14.13-.21,14.13,22,0,21.78C329.9,411.89,329.9,389.7,344,389.91Z"/><g id="Group_7900" data-name="Group 7900" class="cls-7"><rect id="Rectangle_4289" data-name="Rectangle 4289" class="cls-3" x="209.09" y="62.04" width="267.47" height="15.98"/></g><path id="Ellipse_2121" data-name="Ellipse 2121" class="cls-6" d="M468.19,66.62c4.42-.06,4.43,6.88,0,6.82S463.77,66.56,468.19,66.62Z"/><path id="Ellipse_2122" data-name="Ellipse 2122" class="cls-6" d="M459.5,66.62c4.43-.06,4.43,6.88,0,6.82S455.08,66.56,459.5,66.62Z"/><path id="Ellipse_2123" data-name="Ellipse 2123" class="cls-6" d="M450.81,66.62c4.43-.06,4.43,6.88,0,6.82S446.39,66.56,450.81,66.62Z"/><rect id="Rectangle_4290" data-name="Rectangle 4290" class="cls-8" x="219.5" y="156.31" width="249.07" height="0.83"/><rect id="Rectangle_4291" data-name="Rectangle 4291" class="cls-8" x="219.5" y="175.62" width="249.07" height="0.83"/><rect id="Rectangle_4292" data-name="Rectangle 4292" class="cls-8" x="219.5" y="194.93" width="249.07" height="0.83"/><rect id="Rectangle_4293" data-name="Rectangle 4293" class="cls-8" x="219.5" y="214.24" width="249.07" height="0.83"/><rect id="Rectangle_4294" data-name="Rectangle 4294" class="cls-8" x="219.5" y="233.55" width="249.07" height="0.83"/><g id="Group_7901" data-name="Group 7901" class="cls-7"><path id="Path_19653" data-name="Path 19653" class="cls-3" d="M219.5,234.39H468.87v-38L446,207.67l-23.67,3.21-20.76-6.26c-7.91-6.26-28.68-22.75-37.66-26.69l-9.22-1.78-8.81.48c-8.75,3.58-26.28,14.34-34.2,19.7l-15.47,2L284,194.09l-26-21.28-13.27-4.73c-14,2.09-12.63,1-25.19,8.68Z"/></g><path id="Path_19654" data-name="Path 19654" class="cls-3" d="M425.41,210.87c22.46,0,43.21-13.73,43.47-13.9l-.62-.92c-14.76,10.39-54.56,25.88-83.16-4.91-7.12-6-13.83-11.78-23-14.26-27.86-8.21-38.14,25-68.72,19.92-26.84-7.64-38.32-46.11-74.2-20.05l.65.9c35.33-25.58,46.56,13.06,73.35,20.24,30.84,5.33,40.92-27.8,68.64-19.94C384.59,185.44,398.23,212.46,425.41,210.87Z"/><path id="Ellipse_2124" data-name="Ellipse 2124" class="cls-3" d="M348.72,169.93c8-.11,8,12.46,0,12.34C340.71,182.39,340.71,169.81,348.72,169.93Z"/><g id="Group_7902" data-name="Group 7902" class="cls-7"><path id="Path_19655" data-name="Path 19655" class="cls-3" d="M268.19,94.45h77.88a1.27,1.27,0,0,1,1.27,1.26h0c-1.28.12,2.78,59-2.19,53.5l-13.49-14.38c-.62-1.15-62.55,0-63.47-.4-2.87,1.38-.56-38.19-1.26-38.73A1.26,1.26,0,0,1,268.19,94.45Z"/></g><rect id="Rectangle_4295" data-name="Rectangle 4295" class="cls-6" x="284.96" y="104.2" width="44.35" height="5.54"/><rect id="Rectangle_4296" data-name="Rectangle 4296" class="cls-6" x="317.13" y="116.48" width="12.18" height="5.54"/><g id="Group_7903" data-name="Group 7903" class="cls-7"><rect id="Rectangle_4297" data-name="Rectangle 4297" class="cls-3" x="435.36" y="274.06" width="12.18" height="5.54"/></g><g id="Group_7904" data-name="Group 7904" class="cls-7"><rect id="Rectangle_4298" data-name="Rectangle 4298" class="cls-3" x="435.36" y="284.77" width="12.18" height="5.54"/></g><g id="Group_7905" data-name="Group 7905" class="cls-7"><rect id="Rectangle_4299" data-name="Rectangle 4299" class="cls-3" x="435.36" y="295.49" width="12.18" height="5.54"/></g><g id="Group_7906" data-name="Group 7906" class="cls-7"><rect id="Rectangle_4300" data-name="Rectangle 4300" class="cls-3" x="435.36" y="306.21" width="12.18" height="5.54"/></g><g id="Group_7907" data-name="Group 7907" class="cls-7"><rect id="Rectangle_4301" data-name="Rectangle 4301" class="cls-3" x="435.36" y="316.93" width="12.18" height="5.54"/></g><g id="Group_7908" data-name="Group 7908" class="cls-7"><rect id="Rectangle_4302" data-name="Rectangle 4302" class="cls-3" x="435.36" y="327.64" width="12.18" height="5.54"/></g><g id="Group_7909" data-name="Group 7909" class="cls-7"><rect id="Rectangle_4303" data-name="Rectangle 4303" class="cls-3" x="435.36" y="338.37" width="12.18" height="5.54"/></g><g id="Group_7910" data-name="Group 7910" class="cls-7"><rect id="Rectangle_4304" data-name="Rectangle 4304" class="cls-3" x="435.36" y="349.08" width="12.18" height="5.54"/></g><g id="Group_7911" data-name="Group 7911" class="cls-7"><rect id="Rectangle_4305" data-name="Rectangle 4305" class="cls-3" x="412.44" y="354.63" width="12.18" height="5.54"/></g><g id="Group_7912" data-name="Group 7912" class="cls-7"><rect id="Rectangle_4306" data-name="Rectangle 4306" class="cls-3" x="390.98" y="354.63" width="12.18" height="5.54"/></g><g id="Group_7913" data-name="Group 7913" class="cls-7"><rect id="Rectangle_4307" data-name="Rectangle 4307" class="cls-3" x="369.53" y="354.63" width="12.18" height="5.54"/></g><g id="Group_7914" data-name="Group 7914" class="cls-7"><rect id="Rectangle_4308" data-name="Rectangle 4308" class="cls-3" x="348.09" y="354.63" width="12.18" height="5.54"/></g><g id="Group_7915" data-name="Group 7915" class="cls-7"><rect id="Rectangle_4309" data-name="Rectangle 4309" class="cls-3" x="326.64" y="354.63" width="12.18" height="5.54"/></g><g id="Group_7916" data-name="Group 7916" class="cls-7"><rect id="Rectangle_4310" data-name="Rectangle 4310" class="cls-3" x="305.19" y="354.63" width="12.18" height="5.54"/></g><g id="Group_7917" data-name="Group 7917" class="cls-7"><rect id="Rectangle_4311" data-name="Rectangle 4311" class="cls-3" x="283.75" y="354.63" width="12.18" height="5.54"/></g><g id="Group_7918" data-name="Group 7918" class="cls-7"><rect id="Rectangle_4312" data-name="Rectangle 4312" class="cls-3" x="262.29" y="354.63" width="12.18" height="5.54"/></g><g id="Group_7919" data-name="Group 7919" class="cls-7"><rect id="Rectangle_4313" data-name="Rectangle 4313" class="cls-3" x="240.84" y="354.63" width="12.18" height="5.54"/></g><rect id="Rectangle_4314" data-name="Rectangle 4314" class="cls-6" x="284.96" y="116.48" width="18.49" height="5.54"/><rect id="Rectangle_4315" data-name="Rectangle 4315" class="cls-9" x="412.44" y="314.34" width="12.18" height="34.74"/><rect id="Rectangle_4316" data-name="Rectangle 4316" class="cls-9" x="390.98" y="298.26" width="12.18" height="50.82"/><rect id="Rectangle_4317" data-name="Rectangle 4317" class="cls-9" x="369.53" y="284.77" width="12.18" height="64.31"/><rect id="Rectangle_4318" data-name="Rectangle 4318" class="cls-9" x="348.09" y="291.76" width="12.18" height="57.31"/><rect id="Rectangle_4319" data-name="Rectangle 4319" class="cls-9" x="326.64" y="279.6" width="12.18" height="69.48"/><g id="Group_7920" data-name="Group 7920" class="cls-7"><rect id="Rectangle_4320" data-name="Rectangle 4320" class="cls-3" x="305.19" y="306.21" width="12.18" height="42.87"/></g><g id="Group_7921" data-name="Group 7921" class="cls-7"><rect id="Rectangle_4321" data-name="Rectangle 4321" class="cls-3" x="283.75" y="306.21" width="12.18" height="42.87"/></g><g id="Group_7922" data-name="Group 7922" class="cls-7"><rect id="Rectangle_4322" data-name="Rectangle 4322" class="cls-3" x="262.29" y="306.21" width="12.18" height="42.87"/></g><g id="Group_7923" data-name="Group 7923" class="cls-7"><rect id="Rectangle_4323" data-name="Rectangle 4323" class="cls-3" x="240.84" y="306.21" width="12.18" height="42.87"/></g><path id="Path_19656" data-name="Path 19656" class="cls-10" d="M50.87,151.09c17.49-11.05,18.61-6.44,21.79-14.76v.08C71.37,125,54.48,118.9,58.14,106c-.11-6.74,5.21-2.65,5-6.06a.11.11,0,0,1,0,.08C58.8,87.17,73.28,91.13,79.06,85.52c1.09-1.88,2.62-3.58,4.88-3.92,5.75-2,10.94,1.36,16.28,2.49,6.68-3.31,12.55-.69,12.84,7.25h0c.52,4.86-5.78,6.08-5.62,10.69,9.1,10.93,3.29,28.89-10.33,32.72a9.23,9.23,0,0,0,2.87,7.6l18.67,7.51S129.9,148.52,134,165c1.92,8-1.18,11.19,3.78,20.84,7,19.74,1.13,36.11-18.63,32.87.14,4.12,1.49,37.58,6.7,41.9,1.42,1.11,1.15,1.88,0,2.4.19,3,.82,12,4.42,17.73,4,6.16,3.57,41.7,3.57,41.7l2.68,21s-1.66,12.94,0,15.2c1.5,2,3.5,49.9,3.88,60.27a5,5,0,0,1,4.21,2.46c2.22,3.58,9.93,10.2,9.93,10.2,3,4.9,16.17,4.07,15.54,11.71-.85,2-18.27,3.49-22.67,1.44-3.47-1.62-17.2-3.75-22.89-4.58-2.72-.24-5.27-3.64-3.52-6.11h0c1.1-1.35,1.66-5,1.9-7.44a5.22,5.22,0,0,1-1.29-.76,54.59,54.59,0,0,0-3.14-22c-4.2-11.09-5.46-31.64-4.44-45,0,0-12.8-55.05-22.87-60.18h0c-.16.19-5.05,6.47-5.67,25.88-.62,19.71-7.75,32.64-7.75,32.64s3.15,33.49,0,46l4.12,19.77c.3-.26.49-.46.49-.46s-.41,1.29-.2,1.84l-.17.05c-2.79,6.36,2.41,18.62-1.08,21.3-3.91,1-25.1,4.3-21.44-6,.68-1.75,4.7-6.42,3.7-12.7a3.48,3.48,0,0,1,.49-2.72c-.82-22.21-13.13-42.76-7.62-67.94h0a61.7,61.7,0,0,0,2.83-25.7,49.06,49.06,0,0,0,0-21c-5-27.75-5.6-20.33-4.37-47.91l-.67-.15c.52-1.34,5.19-25.37,5.93-34.49-18.05-3.27-18.31-44.51-18.26-51.29C41.44,175.83,37.65,158.68,50.87,151.09Zm84.43,272.8.55-.3Z"/><path id="Path_19657" data-name="Path 19657" class="cls-11" d="M57.71,355c-6.7,25.2,6.33,47.24,7,69.81a47.51,47.51,0,0,0,18-.42L78.4,403.3c3.07-12.49,0-45.86,0-45.86s7-12.9,7.58-32.55c.6-19.34,5.37-25.59,5.54-25.79h0c9.83,5.12,22.33,60,22.33,60-1,13.31.2,33.78,4.3,44.83a55.47,55.47,0,0,1,3.07,21.9c4.45,4.5,18.32-4.65,18.4-4.93,0,0-2.22-59.77-3.88-62s0-15.15,0-15.15l-2.66-20.88s.4-35.42-3.48-41.57c-3.54-5.78-4.11-14.64-4.32-17.67l-5.92-7.1s-57.36-4.3-61.66,0c-1.06,1-1.71,3.45-2.1,6.47-1,27.53-.56,19.4,4.35,47.16A133.62,133.62,0,0,1,57.7,355Z"/><path id="Path_19658" data-name="Path 19658" class="cls-12" d="M61.29,444.73c2.56,3.38,17.62,1.94,20.18.9,2.73-1.36.38-9.13.2-11.95-.41-3.69,1.23-11.16,1.23-11.16-4.7,4.6-3.09-1.92-7.12-2.77-4.27-1.3-12.12,2.37-11.62,7.27C65.64,436.62,57.34,438.48,61.29,444.73Z"/><path id="Path_19659" data-name="Path 19659" class="cls-13" d="M61.29,444.73c2.56,3.38,17.62,1.94,20.18.9,1.57-.65,1.44-3.59,1-6.62-4.79,2-15.8.7-21.94.66a4.92,4.92,0,0,0,.74,5.06Z"/><path id="Path_19660" data-name="Path 19660" class="cls-13" d="M113.83,359.06c-1,13.31.2,33.78,4.3,44.83a55.66,55.66,0,0,1,3.08,21.9c1.43,1.21,3.42,1.41,5.57,1.07-3.32-21.74-10.9-114.88-31.69-131.72l-3.58,3.94C101.35,304.19,113.83,359.06,113.83,359.06Z"/><path id="Path_19661" data-name="Path 19661" class="cls-14" d="M67.44,143.91l2.5,12.28,12.25,20.57,15.1-6.45c30.81-34.46-9.6-15.4,2.11-42.68L73,119.32c3.09,8.09,2.83,22.68-5.54,24.59Z"/><path id="Path_19662" data-name="Path 19662" class="cls-13" d="M73,119.34a42.33,42.33,0,0,1,1.9,10.7,20.93,20.93,0,0,0,22.42,6.4,23.37,23.37,0,0,1,2.1-8.81Z"/><path id="Path_19663" data-name="Path 19663" class="cls-14" d="M69.94,116c.58,27.33,41.23,27.16,41.57-.18C110.92,88.43,70.3,88.67,69.94,116Z"/><path id="Path_19664" data-name="Path 19664" class="cls-13" d="M67.44,143.91l2.5,12.28,12.25,20.57,15.1-6.45c2.65-3.72,22.65-22.27,3.34-26.47,2.33,6.4-7.29,19.72-7.29,19.72-8.1,5-20.49-17.91-23.15-21.09A8.14,8.14,0,0,1,67.44,143.91Z"/><path id="Path_19665" data-name="Path 19665" class="cls-13" d="M55.61,263c3.64.82,23.76,5.28,31.39,4.16,8.4-1.23,24.73-2,24.73-2s10.39.55,13.59-.9q0-.3,0-.6l-5.93-7.1s-57.35-4.3-61.65,0C56.65,257.56,56,260,55.61,263Z"/><path id="Path_19666" data-name="Path 19666" class="cls-15" d="M93.35,164.17s10.8-15,6.73-20.78l18.26,7.48s11-1.33,15,15c1.88,8-1.16,11.16,3.69,20.77,6.82,19.56,1.16,36.06-18.23,32.75,0,0,1.23,37.47,6.55,41.77s-13.57,3.27-13.57,3.27-16.33.82-24.73,2-31.95-4.3-31.95-4.3C57,257.7,63.53,208.87,63.88,205L43,176.78c-4.6-20.45,13.74-28.05,27-34.09,0,0,12.94,21.06,19.7,22.1C89.66,164.79,92.23,165.82,93.35,164.17Z"/><path id="Path_19667" data-name="Path 19667" class="cls-13" d="M117.31,170.11c1.45,4.5-6,23.59-6.75,26.82H120.8s-5.55-5.94-5.12-8.8S117.31,170.11,117.31,170.11Z"/><path id="Path_19668" data-name="Path 19668" class="cls-14" d="M87,221.09c22.58-6.74,21.87-3.6,32.65-25.48l-2.38-3.22c-9.36,6.5-15.91,14.83-30.26,20.1C80.86,213.51,87,221.09,87,221.09Z"/><path id="Path_19669" data-name="Path 19669" class="cls-16" d="M87,221.09c22.58-6.74,21.87-3.6,32.65-25.48l-2.38-3.22c-9.36,6.5-15.91,14.83-30.26,20.1C80.86,213.51,87,221.09,87,221.09Z"/><path id="Path_19670" data-name="Path 19670" class="cls-14" d="M67.44,194.48v12.26c12.26-.48,24.15,3.39,34.51,9.81l6.35-14.3-5.94-5.32c-12.22,2.2-12.34-4.35-23.82-1.9-3.67.94-6.81,5.05-10.37,3.77Z"/><path id="Path_19671" data-name="Path 19671" class="cls-13" d="M47.67,172.16l-4.1,4.6c.11,8.41-.1,40.28,14.55,50.26,11.06,3.89,30.8-2.25,30.8-2.25s5.1-13.51,2.72-14.33-21.08-5.75-21.08-5.75.26-20.66-3.84-26.8C70.73,156.32,54,149.84,47.67,172.16Z"/><path id="Path_19672" data-name="Path 19672" class="cls-15" d="M47.06,172.16l-4.1,4.6c.11,8.41-.12,40.29,14.56,50.27,11.1,3.89,30.81-2.26,30.81-2.26s5.1-13.51,2.71-14.33S70,204.69,70,204.69s.26-20.66-3.84-26.8C70.13,156.3,53.43,149.86,47.06,172.16Z"/><path id="Path_19673" data-name="Path 19673" class="cls-13" d="M75.67,124.83c-.39-2.48.54-6.26,3.72-5.86,2.75,1.43,5.13,6,7.94,1.32,2-4.46-.79-10.72,1.93-14.89,8.2-8.11,14.39,6.13,18.19-2-18.57-23.18-52,6.64-31.06,27.72A54.77,54.77,0,0,1,75.67,124.83Z"/><path id="Path_19674" data-name="Path 19674" class="cls-17" d="M104.52,105.34c2.33-.29,3.14-2.53,3.26-4.57.48-1.61,2.22-2.44,3.33-3.66,4.2-4.34.28-14.09-6-13.34C97.64,88,92.52,80,84.43,82.87c-2.24.34-3.71,2-4.79,3.9C74.08,92.45,60,88.22,64.14,101c.5,3.69-5.09-.5-4.85,6.24-3.84,13.19,14.81,19.33,14.1,31.68,8.37.09-.2-13.87,2.74-18.67,2.32-4.35,5-.15,7.48,1.36,10.5-.5-2.9-20,12.66-19.36C99.53,102,101.2,105.91,104.52,105.34Z"/><path id="Path_19675" data-name="Path 19675" class="cls-13" d="M99.8,169.6l-6.41,26.33S88.33,195.91,99.8,169.6Z"/><path id="Path_19676" data-name="Path 19676" class="cls-13" d="M77.88,165.2s8.4,13.75,5.12,28l-1.56.11S84.23,186.69,77.88,165.2Z"/><path id="Path_19677" data-name="Path 19677" class="cls-13" d="M72.56,243s-10.31-3.41-11.06,4.5C61.5,247.49,63.45,242.07,72.56,243Z"/><path id="Path_19678" data-name="Path 19678" class="cls-13" d="M102.36,197.56s2,14.34-1.66,20.07a44.91,44.91,0,0,0,18,2.45L120,197.56Z"/><path id="Path_19679" data-name="Path 19679" class="cls-13" d="M101,216l1,.56,6.35-14.3-5.94-5.33h-.3C102.15,197.62,103.8,209.93,101,216Z"/><path id="Path_19680" data-name="Path 19680" class="cls-15" d="M102.36,196.93s2,14.33-1.66,20.06a44.91,44.91,0,0,0,18,2.45l7.16-22.51Z"/><path id="Path_19681" data-name="Path 19681" class="cls-12" d="M120.08,436a4.62,4.62,0,0,0,4,4.05c5.54.83,19,2.95,22.34,4.56,6.14,2,31.08,1.83,19-6.85-3.47-1.53-10.11-3.41-12.11-6.26,0,0-7.54-6.6-9.69-10.16-2.45-3.57-7.36-3.77-8.54,2.3,0,0-9.83,5.6-12.49.69,0,0-.41,7.55-2,9.61h0A2.7,2.7,0,0,0,120.08,436Z"/><path id="Path_19682" data-name="Path 19682" class="cls-13" d="M120.08,436a4.62,4.62,0,0,0,4,4.05c5.55.83,19,2.95,22.34,4.56,6.14,2,31.08,1.83,19.06-6.85-4,5.86-41.09-1-44.88-3.81h0A2.78,2.78,0,0,0,120.08,436Z"/><g id="Group_7924" data-name="Group 7924" class="cls-2"><path id="Path_19683" data-name="Path 19683" class="cls-18" d="M64.18,101.27a21.13,21.13,0,0,1-.63-4.75C63.59,98.12,64.32,99.69,64.18,101.27Z"/><path id="Path_19684" data-name="Path 19684" class="cls-18" d="M76.14,120.43a6.07,6.07,0,0,0-.5,2.34c-.27-2.34.92-5.55,3.75-5.14,1.75.41,2.51,2.69,4.23,3.24,5.91.57,4.16-7.85,4.43-11.49,0-1.86.06-3.88,1.21-5.33,2.54-2.73,8.16-3.67,11-.93,2.85,3,7.76,1.2,7.48-3.07,1.36-2.81,5.36-4.25,5.06-8,.8,4.15-3.49,5.94-5.06,8.92-.13,2-.92,4.28-3.26,4.56-3.32.59-5-3.35-8.23-3.12-8.76-.31-8.55,6.3-8.23,13,.34,2.71-1,7.14-4.43,6.36C81.18,120.27,78.45,116.08,76.14,120.43Z"/><path id="Path_19685" data-name="Path 19685" class="cls-18" d="M59.31,114.79c3.87,7.74,14,13.43,14.14,22.68-.31-9.28-13.29-15.22-14.32-24a4.8,4.8,0,0,0,.18,1.3Z"/><path id="Path_19686" data-name="Path 19686" class="cls-18" d="M76.94,136.1a4.62,4.62,0,0,0,.2-1.11c.39,2.12-1.5,5-3.78,4.09,0-.3.06-.6.07-.9C74.87,138.77,76.51,137.56,76.94,136.1Z"/></g><path id="Path_19687" data-name="Path 19687" class="cls-13" d="M145,423.21s-2.14,3.76-9.89.45"/><path id="Path_19688" data-name="Path 19688" class="cls-13" d="M79.43,424.13s-6.69,7.87-15.12,2.58"/><path id="Path_19689" data-name="Path 19689" class="cls-13" d="M60,331s4.73,2.95,4.88,4.65C64.27,337.77,60.5,331.62,60,331Z"/><path id="Path_19690" data-name="Path 19690" class="cls-13" d="M58.08,353.65a10,10,0,0,0,5.83,2.27c3.53.15,3.23,4.76.93,3.38A59.87,59.87,0,0,1,58.08,353.65Z"/><path id="Path_19691" data-name="Path 19691" class="cls-13" d="M57.2,356.6s2.27,11.14,4.11,9"/><path id="Path_19692" data-name="Path 19692" class="cls-3" d="M523.87,408.44c-5.52,5.72,11.4,19.45,8.07,24.81,0,0-6.72-11.16-12.2-11.32S517.86,415.15,523.87,408.44Z"/><path id="Path_19693" data-name="Path 19693" class="cls-13" d="M523.87,408.44c-14.36,20.39-1.6,6.18,8.21,24.34a4,4,0,0,1-.16.49S525.2,422.1,519.72,422,517.86,415.15,523.87,408.44Z"/><path id="Path_19694" data-name="Path 19694" class="cls-19" d="M518.21,413.51c0,3.28.72,3.28.7,0,0-1.4-.2-.74-.39-.74S518.21,412.12,518.21,413.51Z"/><path id="Path_19695" data-name="Path 19695" class="cls-19" d="M516.26,415.18c2.88,1.58,3.22.95.34-.61-1.23-.67-.74-.19-.84,0S515,414.51,516.26,415.18Z"/><path id="Path_19696" data-name="Path 19696" class="cls-3" d="M540,408.44c5.53,5.72-11.4,19.45-8.06,24.81,0,0,6.71-11.16,12.2-11.32S546,415.15,540,408.44Z"/><path id="Path_19697" data-name="Path 19697" class="cls-13" d="M540,408.44c14.36,20.4,1.59,6.17-8.21,24.34,0,.17.1.33.16.49,0,0,6.72-11.17,12.2-11.32S546,415.15,540,408.44Z"/><path id="Path_19698" data-name="Path 19698" class="cls-19" d="M545.64,413.51c0,3.28-.72,3.28-.7,0,0-1.4.2-.74.39-.74S545.64,412.12,545.64,413.51Z"/><path id="Path_19699" data-name="Path 19699" class="cls-19" d="M547.58,415.18c-1.23.67-2.3,1.08-2.4.91s.83-.85,2.06-1.52.74-.19.84,0S548.81,414.51,547.58,415.18Z"/><path id="Path_19700" data-name="Path 19700" class="cls-20" d="M544.66,432.75s-8.52-.26-11.09-2.09-13.1-4-13.74-1.08-12.8,14.58-3.19,14.65,22.35-1.5,24.91-3.06S544.66,432.75,544.66,432.75Z"/><path id="Path_19701" data-name="Path 19701" class="cls-21" d="M516.48,443.21c9.62.08,22.35-1.5,24.91-3.06,2-1.18,2.73-5.45,3-7.41h.29s-.56,6.86-3.1,8.42-15.29,3.14-24.92,3.06c-2.77,0-3.73-1-3.68-2.47C513.35,442.64,514.41,443.2,516.48,443.21Z"/></g></g></g></svg>