<svg xmlns="http://www.w3.org/2000/svg" xmlns:xlink="http://www.w3.org/1999/xlink" viewBox="0 0 599.76 461.27"><defs><style>.cls-1,.cls-10{fill:#9f6e65;}.cls-1,.cls-11,.cls-5{opacity:0.1;}.cls-1,.cls-5{isolation:isolate;}.cls-2{fill:#d6d6e3;}.cls-3{fill:#aebee1;}.cls-4{fill:#545461;}.cls-6{fill:#e3ecf8;}.cls-7{fill:url(#linear-gradient);}.cls-8{fill:#f8b9bf;}.cls-9{fill:#d9dfe8;}.cls-12{fill:#69739d;}.cls-13{fill:#6a92cc;}.cls-14{fill:#ba6b6b;}.cls-15{fill:none;stroke:#545461;stroke-miterlimit:10;stroke-width:2px;}.cls-16{fill:url(#linear-gradient-2);}.cls-17{fill:#f15a60;}.cls-18{fill:#f27291;}.cls-19{fill:#96a1cf;}</style><linearGradient id="linear-gradient" x1="-2532.96" y1="3064.83" x2="-2532.96" y2="3065.86" gradientTransform="matrix(140.16, 0, 0, -269.05, 355480.52, 824957.51)" gradientUnits="userSpaceOnUse"><stop offset="0" stop-color="gray" stop-opacity="0.25"/><stop offset="0.54" stop-color="gray" stop-opacity="0.12"/><stop offset="1" stop-color="gray" stop-opacity="0.1"/></linearGradient><linearGradient id="linear-gradient-2" x1="-2532.96" y1="3064.86" x2="-2532.96" y2="3065.86" gradientTransform="matrix(130.46, 0, 0, -274.08, 330603.53, 840383.24)" xlink:href="#linear-gradient"/></defs><g id="Layer_2" data-name="Layer 2"><g id="Layer_1-2" data-name="Layer 1"><g id="undraw_co-working_825n" data-name="undraw co-working 825n"><path id="Path_19270" data-name="Path 19270" class="cls-1" d="M562,261c-22.11,33.25-16.51,79.48-5.38,116.09,3.75,12.26,8,25.21,5.47,38.75-9.56,42.68-67.58,58.31-99.35,33.69-17.45-12.74-29.31-34.47-47.12-46.58-29.77-20.2-69.51-9.39-103.83,8-47.2,28-90.07,34.57-105.85-27.5-3.41-15.17-6.65-30.83-21.47-37.71-88-33.7-157.57,9.94-181.33-121C-2.38,166.05-3.71,83.23,26.18,30.56c34.13-47.8,92.26-33.83,127.35,2.92,43.68,46,66,66.79,130.89,52.46,33.78-4,67.26-1.79,100.51.88,62.64,3.16,100,13.73,151.29,49.81,12.93,6.66,27.34,7.83,39.45,16.59,14.93,10.79,28.12,30.36,22.94,54.53C593.67,230.77,573.68,243.37,562,261Z"/><rect id="Rectangle_4106" data-name="Rectangle 4106" class="cls-1" x="471.36" y="136.9" width="21.89" height="33.14"/><rect id="Rectangle_4107" data-name="Rectangle 4107" class="cls-1" x="473.48" y="140.12" width="17.64" height="26.7"/><rect id="Rectangle_4108" data-name="Rectangle 4108" class="cls-1" x="426.92" y="113.87" width="33.62" height="33.14"/><rect id="Rectangle_4109" data-name="Rectangle 4109" class="cls-1" x="430.18" y="117.1" width="27.09" height="26.7"/><rect id="Rectangle_4110" data-name="Rectangle 4110" class="cls-1" x="34.36" y="64.56" width="102.77" height="2.74"/><rect id="Rectangle_4111" data-name="Rectangle 4111" class="cls-1" x="34.36" y="77.94" width="102.77" height="2.74"/><rect id="Rectangle_4112" data-name="Rectangle 4112" class="cls-2" x="207.73" y="241.95" width="10.5" height="117.33"/><path id="Path_19271" data-name="Path 19271" class="cls-3" d="M524.92,254.27V146a11.37,11.37,0,1,1,22.73,0V277a11.38,11.38,0,0,1-11.37,11.38H465.81A11.39,11.39,0,0,1,454.43,277h0a11.38,11.38,0,0,1,11.38-11.38h47.73A11.37,11.37,0,0,0,524.92,254.27Z"/><path id="Path_19272" data-name="Path 19272" class="cls-4" d="M524.92,254.27V146a11.37,11.37,0,1,1,22.73,0V277a11.38,11.38,0,0,1-11.37,11.38H465.81A11.39,11.39,0,0,1,454.43,277h0a11.38,11.38,0,0,1,11.38-11.38h47.73A11.37,11.37,0,0,0,524.92,254.27Z"/><path id="Path_19273" data-name="Path 19273" class="cls-2" d="M454.45,276.42a11.38,11.38,0,0,1,11.36-10.77h47.73a11.38,11.38,0,0,0,11.38-11.38V146a11.38,11.38,0,0,1,10.83-11.37V276.42Z"/><path id="Path_19274" data-name="Path 19274" class="cls-3" d="M102.83,257.92V149.69a11.37,11.37,0,0,0-11.35-11.37c-6.78-.7-12.13,7.73-11.38,11.41,0,3,0,130.84,0,131.23-.27,6.39,6.65,11.58,11.4,11.12,1.68-.08,70.42.06,70.72,0a11.39,11.39,0,0,0,11.1-11.37h0a11.38,11.38,0,0,0-11.38-11.38H114.21A11.38,11.38,0,0,1,102.83,257.92Z"/><path id="Path_19275" data-name="Path 19275" class="cls-4" d="M102.83,257.92V149.69a11.37,11.37,0,0,0-11.35-11.37c-6.78-.7-12.13,7.73-11.38,11.41,0,3,0,130.84,0,131.23-.27,6.39,6.65,11.58,11.4,11.12,1.68-.08,70.42.06,70.72,0a11.39,11.39,0,0,0,11.1-11.37h0a11.38,11.38,0,0,0-11.38-11.38H114.21A11.38,11.38,0,0,1,102.83,257.92Z"/><path id="Path_19276" data-name="Path 19276" class="cls-2" d="M173.3,280.07a11.37,11.37,0,0,0-11.36-10.77H114.21a11.37,11.37,0,0,1-11.38-11.38V149.69A11.38,11.38,0,0,0,92,138.33V280.07Z"/><rect id="Rectangle_4113" data-name="Rectangle 4113" class="cls-2" x="415.46" y="241.95" width="10.5" height="120.07"/><rect id="Rectangle_4114" data-name="Rectangle 4114" class="cls-5" x="207.73" y="241.95" width="10.5" height="8.67"/><rect id="Rectangle_4115" data-name="Rectangle 4115" class="cls-5" x="415.46" y="241.95" width="10.5" height="8.67"/><path id="Path_19277" data-name="Path 19277" class="cls-5" d="M245.23,170.5c-.16,1.85-.38,3.72-.63,5.62h-1.49V170.5Z"/><path id="Path_19278" data-name="Path 19278" class="cls-4" d="M288.25,228.9a3.22,3.22,0,0,1-3,3.46H253.17V229h26.67a1.68,1.68,0,0,0,1.29-2.5L257,177.34a2.15,2.15,0,0,0-1.88-1.21h-12v-5.62c.89.29,16.55-.84,16.42.84C259.87,173.13,290.24,228.16,288.25,228.9Z"/><path id="Path_19279" data-name="Path 19279" class="cls-4" d="M229.4,220l-.44.74-4.1-2.74,12.7-97.7h3.27C243.38,130.42,254.42,176.52,229.4,220Z"/><path id="Path_19280" data-name="Path 19280" class="cls-5" d="M241.18,121.59c-.43.74-11.15,98.68-12.22,99.13l-4.1-2.74,12.7-97.7h3.27S241,120.75,241.18,121.59Z"/><rect id="Rectangle_4116" data-name="Rectangle 4116" class="cls-2" x="180.34" y="166.17" width="101.35" height="7.76" transform="translate(34.7 379.21) rotate(-83.17)"/><path id="Path_19281" data-name="Path 19281" class="cls-6" d="M194.72,228.94c.06,1.33-3.26,1.34-3.2,0S194.71,227.63,194.72,228.94Z"/><path id="Path_19282" data-name="Path 19282" class="cls-6" d="M198.83,228.94c.06,1.33-3.27,1.34-3.2,0s3.26-1.33,3.2,0Z"/><path id="Path_19283" data-name="Path 19283" class="cls-6" d="M202.48,228.94c.06,1.34-3.27,1.34-3.2,0s3.27-1.33,3.19,0Z"/><path id="Path_19284" data-name="Path 19284" class="cls-6" d="M206.59,228.94c.06,1.33-3.27,1.34-3.2,0S206.64,227.62,206.59,228.94Z"/><path id="Path_19285" data-name="Path 19285" class="cls-5" d="M194.7,228.72c.38,1.6-3.35,1.65-3.18.12Z"/><path id="Path_19286" data-name="Path 19286" class="cls-5" d="M198.75,228.58c.7,1.76-3.57,1.84-3.09.1Z"/><path id="Path_19287" data-name="Path 19287" class="cls-5" d="M202.35,228.45c1,1.91-3.76,2-3,.11Z"/><path id="Path_19288" data-name="Path 19288" class="cls-5" d="M206.59,228.94c0,1.57-4.09,1.23-3-.52l2.79-.1A.89.89,0,0,1,206.59,228.94Z"/><path id="Path_19289" data-name="Path 19289" class="cls-2" d="M214.81,232.59H188.33c-.17-1.42.24-3.23,2-3.26l21.24-.73A3.31,3.31,0,0,1,214.81,232.59Z"/><path id="Path_19290" data-name="Path 19290" class="cls-4" d="M345.43,228.9a3.24,3.24,0,0,0,3,3.46h32.06V229h-26.7a1.68,1.68,0,0,1-1.29-2.5l24.18-49.18a2.14,2.14,0,0,1,1.87-1.21h12v-5.62c-.87.28-16.53-.83-16.38.84-.39,1.87-30.64,56.66-28.75,57.56Z"/><path id="Path_19291" data-name="Path 19291" class="cls-4" d="M404.29,220l.44.74,4.11-2.74-12.71-97.7h-3.27C390.31,130.42,379.25,176.51,404.29,220Z"/><path id="Path_19292" data-name="Path 19292" class="cls-5" d="M392.51,121.59c.43.74,11.15,98.68,12.21,99.13l4.11-2.74-12.7-97.7h-3.27S392.73,120.75,392.51,121.59Z"/><rect id="Rectangle_4117" data-name="Rectangle 4117" class="cls-2" x="398.79" y="119.37" width="7.76" height="101.35" transform="translate(-17.36 49.09) rotate(-6.83)"/><path id="Path_19293" data-name="Path 19293" class="cls-6" d="M439,228.94c0,1.33,3.27,1.34,3.21,0h0c.06-1.33-3.22-1.31-3.2,0Z"/><path id="Path_19294" data-name="Path 19294" class="cls-6" d="M434.86,228.94c-.06,1.33,3.26,1.34,3.2,0h0C438.14,227.62,434.72,227.6,434.86,228.94Z"/><path id="Path_19295" data-name="Path 19295" class="cls-6" d="M431.21,228.94c-.06,1.33,3.27,1.34,3.2,0h0c.07-1.33-3.27-1.33-3.19,0Z"/><path id="Path_19296" data-name="Path 19296" class="cls-6" d="M427.09,228.94c0,1.33,3.27,1.34,3.21,0S427.05,227.62,427.09,228.94Z"/><path id="Path_19297" data-name="Path 19297" class="cls-5" d="M439,228.72c-.38,1.56,3.18,1.64,3.18.22h0v-.1Z"/><path id="Path_19298" data-name="Path 19298" class="cls-5" d="M434.93,228.58c-.66,1.66,3.13,1.84,3.13.36h0a1.17,1.17,0,0,0,0-.26Z"/><path id="Path_19299" data-name="Path 19299" class="cls-5" d="M431.34,228.45c-1,1.74,3.06,2,3.06.49h0a.73.73,0,0,0-.08-.38Z"/><path id="Path_19300" data-name="Path 19300" class="cls-5" d="M427.09,228.94c0,1.57,4.1,1.23,3-.52l-2.78-.1A.9.9,0,0,0,427.09,228.94Z"/><path id="Path_19301" data-name="Path 19301" class="cls-2" d="M418.88,232.59h26.48c.17-1.42-.25-3.23-2-3.26l-21.24-.73A3.31,3.31,0,0,0,418.88,232.59Z"/><path id="Path_19302" data-name="Path 19302" class="cls-7" d="M529.7,247.11c13.1-27.78,13.29-82.53-4.23-89.5-2.05-4.06-4.07-8.64-4.07-8.64a3.82,3.82,0,0,1-.65.49c-.25-.67-.47-1.35-.68-2,6.07,2.57,7.38-7.71,9.41-11.15,4.12-8.69,6.15-18.8,2.46-28-1.92-8.17-10.36-6.28-16.7-7.64-4.07-2.23-8.93-3.36-13.23-1-4.85,3.27-23.7,13.15-9.34,16.64-10.25,9.89-5.45,28.27,8.23,32a43.94,43.94,0,0,1,2.88,6.69c-3.24.92-5.78,1.68-6.29,2.11-1.54,1.27,1.68,12.43,1.68,12.43-11.27,13.79-13.85,31.6-16.48,48.6l-38.37-7.69-.08,1-.92-.23-2.88-.71-.11.65c-22.35-12.23-50.07-.16-5.89,10.62-28.12,5.07-2.4,13.58,17.07,14.43v.25l4.93.46.09,1.42s5.72.94,13.36,2.07c-14.84,5.14-38.25-.16-43.81,18.74.57,12.57.43,66.78-1.3,84.15l-14.11,8.12c-3.49.44-24.11,3.68-3.3,8.89-1.93,1.24-1.76,2.87,3.92,4.86,14.63,5.13,48.65-.23,48.65-.23s-.75-6-2-11l.38,0s-3.51-13.07,1.81-19.67-.89-56.75-.89-56.75,9.33-3.86,37.2-4.11C519.23,279.11,530.34,258.25,529.7,247.11Z"/><path id="Path_19303" data-name="Path 19303" class="cls-8" d="M446.59,214.64l-2.38,9.64C390,213.45,415.07,196.6,446.59,214.64Z"/><path id="Path_19304" data-name="Path 19304" class="cls-5" d="M445.93,217.36l-1.72,7s-2.14-.48-5.35-1.3l1.93-11.41c2.54,1.19,4.45,2.26,5.3,2.76Z"/><path id="Path_19305" data-name="Path 19305" class="cls-9" d="M445.93,225l-6.65-1.64,2.07-12.19,5.31,1.31Z"/><path id="Path_19306" data-name="Path 19306" class="cls-5" d="M445.93,225l-2.87-.71,1.08-12.43,2.52.62Z"/><path id="Path_19307" data-name="Path 19307" class="cls-10" d="M510.1,174.51c-20.12-11-24.13,43.33-24.66,44.7l-40.33-8.06-1.28,14.72S487,239.8,492.37,238.78s23-30.52,23-30.52S531.39,185.4,510.1,174.51Z"/><g id="Group_7854" data-name="Group 7854" class="cls-11"><path id="Path_19308" data-name="Path 19308" d="M446.59,214.64l-2.38,9.64C390,213.45,415.07,196.6,446.59,214.64Z"/><path id="Path_19309" data-name="Path 19309" class="cls-5" d="M445.93,217.36l-1.72,7s-2.14-.48-5.35-1.3l1.93-11.41c2.54,1.19,4.45,2.26,5.3,2.76Z"/><path id="Path_19310" data-name="Path 19310" d="M445.93,225l-6.65-1.64,2.07-12.19,5.31,1.31Z"/><path id="Path_19311" data-name="Path 19311" class="cls-5" d="M445.93,225l-2.87-.71,1.08-12.43,2.52.62Z"/><path id="Path_19312" data-name="Path 19312" d="M510.1,175C490,164,486,218.38,485.44,219.74l-40.33-8.06-1.28,14.73s43.12,13.92,48.54,12.91,23-30.52,23-30.52S531.39,185.93,510.1,175Z"/></g><path id="Path_19313" data-name="Path 19313" class="cls-12" d="M428.87,338.51,412.41,348s-21.33,2.61-7.12,7.59,47.24-.22,47.24-.22C449.82,333.67,448.34,337,428.87,338.51Z"/><path id="Path_19314" data-name="Path 19314" class="cls-13" d="M493,232.12c-3.29,3.27-38.16,12.36-49.33,12.51C434,245.54,425.09,255,427.19,265c2.42,8.48-1.2,77.38-1.2,77.38l25,2.31s-3.41-12.7,1.77-19.09-.87-55.1-.87-55.1,9.06-3.75,36.13-4c25.08,6.43,35.41-21,31.54-28.72S493,232.12,493,232.12Z"/><g id="Group_7855" data-name="Group 7855" class="cls-11"><path id="Path_19315" data-name="Path 19315" d="M428.87,338.51,412.41,348s-21.33,2.61-7.12,7.59,47.24-.22,47.24-.22C449.82,333.67,448.34,337,428.87,338.51Z"/><path id="Path_19316" data-name="Path 19316" d="M493,232.12c-3.29,3.27-38.16,12.36-49.33,12.51C434,245.54,425.09,255,427.19,265c2.42,8.48-1.2,77.38-1.2,77.38l25,2.31s-3.41-12.7,1.77-19.09-.87-55.1-.87-55.1,9.06-3.75,36.13-4c25.08,6.43,35.41-21,31.54-28.72S493,232.12,493,232.12Z"/></g><path id="Path_19317" data-name="Path 19317" class="cls-12" d="M436.59,344.26l-16.46,9.49s-21.32,2.59-7.12,7.59,47.24-.22,47.24-.22C457.54,339.43,456.06,342.71,436.59,344.26Z"/><path id="Path_19318" data-name="Path 19318" class="cls-13" d="M495.72,272.24c-27.07.25-36.13,4-36.13,4s6,48.72.87,55.1-1.77,19.09-1.77,19.09l-25-2.31c.59-12.91,3.43-68.6,1.18-77.37-2.08-10,6.85-19.45,16.53-20.38,10.94-.06,46.1-9.29,49.32-12.51,0,0,22.65-2,26.52,5.66C530.77,256,518.87,277.68,495.72,272.24Z"/><path id="Path_19319" data-name="Path 19319" class="cls-8" d="M458,226.65l-.91,9.9C401.63,233.85,424.48,213.56,458,226.65Z"/><path id="Path_19320" data-name="Path 19320" class="cls-8" d="M524.51,161.89c-4.4,4.91-13.4,7.38-20.91,7.9,2.49-9-2.6-18.42-7.7-25.68L518.56,137C515.54,145.58,519.93,154.75,524.51,161.89Z"/><path id="Path_19321" data-name="Path 19321" class="cls-5" d="M457.75,229.44l-.66,7.11s-2.2-.15-5.47-.5l.22-11.57c2.67.8,4.73,1.58,5.65,2Z"/><path id="Path_19322" data-name="Path 19322" class="cls-9" d="M458.89,237l-6.82-.63.22-12.36,5.46.5Z"/><path id="Path_19323" data-name="Path 19323" class="cls-5" d="M524.51,161.89c-4.4,4.91-13.4,7.38-20.91,7.9,1.34-4.28.53-9.1-1-13.33,5.54-1.6,13.45-3.68,16.48-5.35A46.73,46.73,0,0,0,524.51,161.89Z"/><path id="Path_19324" data-name="Path 19324" class="cls-9" d="M520,151.39s3.8,8.6,6.18,12.49-27.74,7.5-27.74,7.5-3.13-10.83-1.63-12.08S517.46,153.9,520,151.39Z"/><path id="Path_19325" data-name="Path 19325" class="cls-5" d="M528.08,247.41c-10.2,20.83-38.4,7.59-49.67-1.67,14.3-3.67,22.33-7.88,22.33-7.88.48,0,28.71-2.6,27.34,9.55Z"/><path id="Path_19326" data-name="Path 19326" class="cls-10" d="M523.47,252.58c-16.4,14.64-42-5.29-50-11.74,13.67-17.59,8-47.79,22.57-66.05,23.14-31.7,40.54-9.42,40.18,9.73C535.64,185.38,541.06,235.87,523.47,252.58Z"/><path id="Path_19327" data-name="Path 19327" class="cls-5" d="M525.43,211.49c-17.89,36.3-7.39,37.09-50.22,30.83-1.14-.91-1.78-1.48-1.78-1.48,2.78-2.6,5.22-8.11,7.15-14.86l16.84.8s-.94-9.71,1.54-31.49C503.42,160.32,540.41,185.56,525.43,211.49Z"/><path id="Path_19328" data-name="Path 19328" class="cls-5" d="M458.89,237,456,236.7l-.78-12.45,2.58.24Z"/><path id="Path_19329" data-name="Path 19329" class="cls-10" d="M514.82,177.5s-13.71-5.39-16.19,16.39-1.54,31.49-1.54,31.49l-41.08-2,.93,14.75s44.71,7.34,49.92,5.53,18.24-33.61,18.24-33.61S537.48,185.1,514.82,177.5Z"/><path id="Path_19330" data-name="Path 19330" class="cls-5" d="M515.74,145.26c-.6-3.25,2.8-3.21,4-6.27l-22.66,7.07a49.64,49.64,0,0,1,4.2,6.68C508.22,155.68,511.47,150,515.74,145.26Z"/><path id="Ellipse_1994" data-name="Ellipse 1994" class="cls-8" d="M486.77,131.11c2.68-24.46,39.12-21.09,37.28,3.45C521.36,159,484.92,155.65,486.77,131.11Z"/><path id="Path_19331" data-name="Path 19331" class="cls-5" d="M486.94,115.93c2.78,7.1,14.31.55,12.92,13.52-.19,1.78-.45,4,1,5,2.74,1.52,5.89.33,8.79.63,5.6,3.45-.38,12.8,10,15,4.89,1.38,5.89-7.92,7.71-10.65,4.62-9.82,7.25-24-1.2-32.44-3.57-2.43-8.57-.75-12.63-2.14-4-2.16-8.66-3.26-12.85-.92C497.45,106.24,486.43,112,486.94,115.93Z"/><path id="Path_19332" data-name="Path 19332" class="cls-14" d="M487.43,115.52c2.78,7.1,14.31.55,12.92,13.52-.18,1.78-.45,4,1,5,2.74,1.51,5.9.32,8.8.62,5.6,3.45-.39,12.8,10,15,4.88,1.37,5.88-7.93,7.7-10.65,4.63-9.83,7.25-24-1.2-32.44-3.57-2.43-8.57-.75-12.62-2.14-4-2.17-8.67-3.26-12.85-.93C497.94,105.83,486.93,111.59,487.43,115.52Z"/><path id="Path_19333" data-name="Path 19333" class="cls-5" d="M502.94,189.47s-7.15,27.76-14.27,30.33-4,3.3-4,3.3"/><rect id="Rectangle_4118" data-name="Rectangle 4118" class="cls-2" x="495.51" y="291.18" width="7.77" height="51.06"/><rect id="Rectangle_4119" data-name="Rectangle 4119" class="cls-5" x="495.51" y="291.18" width="7.77" height="3.79"/><path id="Path_19334" data-name="Path 19334" class="cls-2" d="M480,290.92c-.23,1.68.57,3.6,2.51,3.58H516.3c3.43.05,3.43-6.15,0-6.09H482.47A2.51,2.51,0,0,0,480,290.92Z"/><path id="Path_19335" data-name="Path 19335" class="cls-5" d="M480.54,289.32h37.7a2.47,2.47,0,0,0-1.94-.91C515.18,289,480.26,287.15,480.54,289.32Z"/><path id="Rectangle_4120" data-name="Rectangle 4120" class="cls-2" d="M470.53,339.47h57.73a3,3,0,0,1,3,3h0a3,3,0,0,1-3,3.05H470.53a3,3,0,0,1-3-3.05h0A3,3,0,0,1,470.53,339.47Z"/><path id="Ellipse_1995" data-name="Ellipse 1995" class="cls-4" d="M527.7,345.57c5-.07,5,7.85,0,7.78S522.66,345.5,527.7,345.57Z"/><path id="Ellipse_1996" data-name="Ellipse 1996" class="cls-4" d="M471.08,345.57c5.05-.07,5.05,7.85,0,7.78S466,345.5,471.08,345.57Z"/><path id="Ellipse_1997" data-name="Ellipse 1997" class="cls-4" d="M499.39,345.57c5.05-.07,5.05,7.85,0,7.78S494.35,345.5,499.39,345.57Z"/><path id="Rectangle_4121" data-name="Rectangle 4121" class="cls-2" d="M495.85,228.47h51.62a4.71,4.71,0,0,1,4.72,4.71h0a4.72,4.72,0,0,1-4.72,4.72H495.85a4.71,4.71,0,0,1-4.71-4.72h0A4.71,4.71,0,0,1,495.85,228.47Z"/><path id="Path_19336" data-name="Path 19336" class="cls-5" d="M503.27,339.47s-3,3-7.76,0"/><path id="Path_19337" data-name="Path 19337" class="cls-5" d="M552.19,233.28a4,4,0,0,1-3.88,4.62H494.86a3.88,3.88,0,0,1-3.72-3.88h0v-.74Z"/><rect id="Rectangle_4122" data-name="Rectangle 4122" class="cls-2" x="440.11" y="241.95" width="10.5" height="133.78"/><rect id="Rectangle_4123" data-name="Rectangle 4123" class="cls-5" x="440.11" y="241.95" width="10.5" height="8.67"/><rect id="Rectangle_4124" data-name="Rectangle 4124" class="cls-2" x="124.48" y="294.84" width="7.77" height="51.06"/><rect id="Rectangle_4125" data-name="Rectangle 4125" class="cls-5" x="124.48" y="294.84" width="7.77" height="3.79"/><path id="Path_19338" data-name="Path 19338" class="cls-2" d="M147.79,294.57c.23,1.69-.57,3.61-2.51,3.59H111.45c-3.43,0-3.43-6.13,0-6.08h33.83a2.52,2.52,0,0,1,2.51,2.52Z"/><path id="Path_19339" data-name="Path 19339" class="cls-5" d="M147.21,293h-37.7C108.9,291.49,147.65,291.46,147.21,293Z"/><path id="Rectangle_4126" data-name="Rectangle 4126" class="cls-2" d="M99.5,343.12h57.73a3.06,3.06,0,0,1,3.05,3.05h0a3,3,0,0,1-3.05,3.05H99.5a3,3,0,0,1-3-3.05h0A3.06,3.06,0,0,1,99.5,343.12Z"/><path id="Ellipse_1998" data-name="Ellipse 1998" class="cls-4" d="M100.06,349.22c5-.07,5,7.85,0,7.78S95,349.15,100.06,349.22Z"/><path id="Ellipse_1999" data-name="Ellipse 1999" class="cls-4" d="M156.67,349.22c5-.07,5,7.85,0,7.78S151.63,349.15,156.67,349.22Z"/><path id="Ellipse_2000" data-name="Ellipse 2000" class="cls-4" d="M128.36,349.22c5-.07,5,7.85,0,7.78S123.32,349.15,128.36,349.22Z"/><path id="Path_19340" data-name="Path 19340" class="cls-5" d="M124.48,343.12s3,3,7.77,0"/><path id="Path_19341" data-name="Path 19341" class="cls-15" d="M322.68,189.4c-13.15-21.54,2.46-35.46-11.15-54.23"/><path id="Path_19342" data-name="Path 19342" class="cls-10" d="M313.47,126.47c.45,2.08-2,8.93-2,8.93-12.53-10.82-.13-16.19,1.95-8.93Z"/><path id="Path_19343" data-name="Path 19343" class="cls-10" d="M322.21,136.61c-.74,2-6.51,6.42-6.51,6.42-4.59-15.78,8.52-13.47,6.51-6.42Z"/><path id="Path_19344" data-name="Path 19344" class="cls-10" d="M326.26,156.32c-1.65,1.35-8.86,2.25-8.86,2.25,3.88-15.66,13.94-7.47,8.86-2.25Z"/><path id="Path_19345" data-name="Path 19345" class="cls-10" d="M326,171.93c-1.4,1.6-8.35,3.71-8.35,3.71,1.18-16.18,12.59-9.73,8.35-3.71Z"/><path id="Path_19346" data-name="Path 19346" class="cls-10" d="M307.89,145.16c1.81,1.12,9.08,1.07,9.08,1.07-5.91-15.12-14.92-5.59-9.08-1.09Z"/><path id="Path_19347" data-name="Path 19347" class="cls-10" d="M307.79,163.42c2.06.53,9-1.67,9-1.67C306.7,149.28,301.49,160.8,307.79,163.42Z"/><path id="Path_19348" data-name="Path 19348" class="cls-10" d="M310.11,181.17c1.93.87,9.14-.13,9.14-.13-7.91-14.16-15.25-3.47-9.15.13Z"/><path id="Path_19349" data-name="Path 19349" class="cls-10" d="M313.47,126.47c.45,2.08-2,8.93-2,8.93-12.53-10.82-.13-16.19,1.95-8.93Z"/><path id="Path_19350" data-name="Path 19350" class="cls-10" d="M322.21,136.61c-.74,2-6.51,6.42-6.51,6.42-4.59-15.78,8.52-13.47,6.51-6.42Z"/><path id="Path_19351" data-name="Path 19351" class="cls-10" d="M326.26,156.32c-1.65,1.35-8.86,2.25-8.86,2.25,3.88-15.66,13.94-7.47,8.86-2.25Z"/><path id="Path_19352" data-name="Path 19352" class="cls-10" d="M326,171.93c-1.4,1.6-8.35,3.71-8.35,3.71,1.18-16.18,12.59-9.73,8.35-3.71Z"/><path id="Path_19353" data-name="Path 19353" class="cls-10" d="M307.89,145.16c1.81,1.12,9.08,1.07,9.08,1.07-5.91-15.12-14.92-5.59-9.08-1.09Z"/><path id="Path_19354" data-name="Path 19354" class="cls-10" d="M307.79,163.42c2.06.53,9-1.67,9-1.67C306.7,149.28,301.49,160.8,307.79,163.42Z"/><path id="Path_19355" data-name="Path 19355" class="cls-10" d="M310.11,181.17c1.93.87,9.14-.13,9.14-.13-7.91-14.16-15.25-3.47-9.15.13Z"/><path id="Path_19356" data-name="Path 19356" class="cls-10" d="M319.13,233.34c-5.43.26-9.74-5.37-9.16-9.76L312.54,183h13.19l2.56,40.64A9.18,9.18,0,0,1,319.13,233.34Z"/><rect id="Rectangle_4127" data-name="Rectangle 4127" class="cls-1" x="44.52" y="33.56" width="7.5" height="31.05"/><rect id="Rectangle_4128" data-name="Rectangle 4128" class="cls-1" x="54.16" y="33.56" width="7.5" height="31.05"/><rect id="Rectangle_4129" data-name="Rectangle 4129" class="cls-1" x="63.8" y="33.56" width="7.5" height="31.05"/><rect id="Rectangle_4130" data-name="Rectangle 4130" class="cls-1" x="73.43" y="33.56" width="7.5" height="31.05"/><rect id="Rectangle_4131" data-name="Rectangle 4131" class="cls-1" x="92.71" y="33.56" width="7.5" height="31.05"/><rect id="Rectangle_4132" data-name="Rectangle 4132" class="cls-1" x="102.35" y="33.56" width="7.5" height="31.05"/><rect id="Rectangle_4133" data-name="Rectangle 4133" class="cls-1" x="44.52" y="39.45" width="7.5" height="1.61"/><rect id="Rectangle_4134" data-name="Rectangle 4134" class="cls-1" x="44.52" y="58.73" width="7.5" height="1.61"/><rect id="Rectangle_4135" data-name="Rectangle 4135" class="cls-1" x="54.16" y="39.45" width="7.5" height="1.61"/><rect id="Rectangle_4136" data-name="Rectangle 4136" class="cls-1" x="54.16" y="58.73" width="7.5" height="1.61"/><rect id="Rectangle_4137" data-name="Rectangle 4137" class="cls-1" x="63.8" y="39.45" width="7.5" height="1.61"/><rect id="Rectangle_4138" data-name="Rectangle 4138" class="cls-1" x="63.8" y="58.73" width="7.5" height="1.61"/><rect id="Rectangle_4139" data-name="Rectangle 4139" class="cls-1" x="73.43" y="39.45" width="7.5" height="1.61"/><rect id="Rectangle_4140" data-name="Rectangle 4140" class="cls-1" x="73.43" y="58.73" width="7.5" height="1.61"/><rect id="Rectangle_4141" data-name="Rectangle 4141" class="cls-1" x="83.07" y="39.45" width="7.5" height="1.61"/><rect id="Rectangle_4142" data-name="Rectangle 4142" class="cls-1" x="83.07" y="58.73" width="7.5" height="1.61"/><rect id="Rectangle_4143" data-name="Rectangle 4143" class="cls-1" x="92.71" y="39.45" width="7.5" height="1.61"/><rect id="Rectangle_4144" data-name="Rectangle 4144" class="cls-1" x="92.71" y="58.73" width="7.5" height="1.61"/><rect id="Rectangle_4145" data-name="Rectangle 4145" class="cls-1" x="102.35" y="39.45" width="7.5" height="1.61"/><rect id="Rectangle_4146" data-name="Rectangle 4146" class="cls-1" x="102.35" y="58.73" width="7.5" height="1.61"/><rect id="Rectangle_4147" data-name="Rectangle 4147" class="cls-1" x="83.07" y="33.56" width="7.5" height="31.05"/><rect id="Rectangle_4148" data-name="Rectangle 4148" class="cls-1" x="116.26" y="33.56" width="7.5" height="31.05" transform="translate(-9.52 54.96) rotate(-24.84)"/><rect id="Rectangle_4149" data-name="Rectangle 4149" class="cls-1" x="112.56" y="40.27" width="7.5" height="1.61" transform="translate(-6.49 52.66) rotate(-24.84)"/><rect id="Rectangle_4150" data-name="Rectangle 4150" class="cls-1" x="120.65" y="57.76" width="7.5" height="1.61" transform="translate(-13.09 57.67) rotate(-24.84)"/><path id="Path_19357" data-name="Path 19357" class="cls-16" d="M208.11,353.77l-13.6-8.68c-1-17.41,1.26-70.8,2.39-83.32-4.69-18.94-28.06-14.7-42.53-20.44,7.61-.79,13.31-1.47,13.31-1.47l.15-1.41,4.9-.23V238c19.28,0,45.08-7.29,17.53-13.54,44.27-8.77,17.18-21.87-5.4-10.76l-.08-.64-2.88.57-.91.19-.05-1-40.41,6.25c-3.9-19.85,2.49-19.63,2-33.36-1.73-5.48-8.8-7.27-11.78-12.22a37.69,37.69,0,0,0-8-9.72c.16-5.33,2.27-10.36,4.93-14.91A19.06,19.06,0,0,0,141.79,127c2.56,1.1,5.67,1.21,7.27-.94l-.76-.29a2.62,2.62,0,0,0,.22-.25c-10.81-3.94-.78-11.5-18.31-14.33a19.67,19.67,0,0,0-21.61-5.66c2.72-11.06-14.73-15-17-3.85a8.68,8.68,0,0,1,2.34-5.22c-5,4-3.69,11.67,1.54,14.77A8.73,8.73,0,0,1,89.69,104a8.71,8.71,0,0,0,9.53,8.72c-7.21,9.49-2.55,27.17,9.29,30a16.6,16.6,0,0,0,1.14,1.23A41.27,41.27,0,0,1,104,156.57c-18.94,7.88-13.24,47-5.33,92.66-.35,10.65,5.86,28.26,27.91,23.62,27.57,1.47,36.62,5.7,36.62,5.7s-2.62,47.95,1.12,54.93c3.14,6.29-.75,14.95-3.54,20.71h.37c-1.41,4.91-2.41,10.84-2.41,10.84s33.42,6.78,48.13,2.34c5.7-1.72,5.94-3.32,4.09-4.64C231.84,358.49,211.53,354.37,208.11,353.77Z"/><path id="Path_19358" data-name="Path 19358" class="cls-17" d="M135.38,126.1a19.28,19.28,0,0,1-19.27,19.28c-25.34-.44-25.33-38.12,0-38.55A19.27,19.27,0,0,1,135.38,126.1Z"/><path id="Path_19359" data-name="Path 19359" class="cls-8" d="M178.8,216.66l1.95,9.75C235.52,217.93,210.91,200.09,178.8,216.66Z"/><path id="Path_19360" data-name="Path 19360" class="cls-5" d="M179.35,219.41l1.4,7s2.17-.39,5.39-1.07l-1.43-11.48c-2.59,1.07-4.54,2.06-5.41,2.53Z"/><path id="Path_19361" data-name="Path 19361" class="cls-9" d="M179,227l6.72-1.34-1.52-12.27-5.38,1.08Z"/><path id="Path_19362" data-name="Path 19362" class="cls-5" d="M179,227l2.9-.58L181.38,214l-2.55.51Z"/><path id="Path_19363" data-name="Path 19363" class="cls-10" d="M117.13,173.76S130.2,167,135,188.35s4.82,31.15,4.82,31.15l40.65-6.28.63,14.77S137.36,240,132,238.75s-21.68-31.51-21.68-31.51S95.37,183.71,117.13,173.76Z"/><g id="Group_7856" data-name="Group 7856" class="cls-11"><path id="Path_19364" data-name="Path 19364" d="M178.8,216.66l1.95,9.75C235.52,217.93,210.91,200.09,178.8,216.66Z"/><path id="Path_19365" data-name="Path 19365" class="cls-5" d="M179.35,219.41l1.4,7s2.17-.39,5.39-1.07l-1.43-11.49c-2.59,1.08-4.54,2.07-5.41,2.54Z"/><path id="Path_19366" data-name="Path 19366" d="M179,227l6.72-1.34-1.52-12.27-5.38,1.08Z"/><path id="Path_19367" data-name="Path 19367" class="cls-5" d="M179,227l2.9-.58L181.38,214l-2.55.51Z"/><path id="Path_19368" data-name="Path 19368" d="M118.2,174.83S131.27,168,136,189.42s4.82,31.15,4.82,31.15l40.65-6.28.63,14.77s-43.69,12-49.06,10.76-21.68-31.51-21.68-31.51S96.44,184.78,118.2,174.83Z"/></g><path id="Path_19369" data-name="Path 19369" class="cls-18" d="M191.07,341.19l16,10.17s21.2,3.55,6.77,7.9-47.18-2.3-47.18-2.3C170.36,335.41,171.69,338.76,191.07,341.19Z"/><path id="Path_19370" data-name="Path 19370" class="cls-19" d="M131.63,232.06c3.15,3.41,37.58,14.06,48.73,14.68C190,248.09,198.48,258,196,267.82c-2.79,8.36-2.23,77.35-2.23,77.35l-25.07,1.2s4-12.54-.93-19.15,3.3-55,3.3-55-8.88-4.15-35.92-5.59c-25.34,5.36-34.45-22.57-30.24-30.08S131.63,232.06,131.63,232.06Z"/><g id="Group_7857" data-name="Group 7857" class="cls-11"><path id="Path_19371" data-name="Path 19371" d="M191.07,341.19l16,10.17s21.2,3.55,6.77,7.9-47.18-2.3-47.18-2.3C170.36,335.41,171.69,338.76,191.07,341.19Z"/><path id="Path_19372" data-name="Path 19372" d="M131.63,232.06c3.15,3.41,37.58,14.06,48.73,14.68C190,248.09,198.48,258,196,267.82c-2.79,8.36-2.23,77.35-2.23,77.35l-25.07,1.2s4-12.54-.93-19.15,3.3-55,3.3-55-8.88-4.15-35.92-5.59c-25.34,5.36-34.45-22.57-30.24-30.08S131.63,232.06,131.63,232.06Z"/></g><path id="Path_19373" data-name="Path 19373" class="cls-18" d="M183.08,346.6l16,10.17s21.2,3.55,6.77,7.9-47.18-2.3-47.18-2.3C162.37,340.82,163.7,344.18,183.08,346.6Z"/><path id="Path_19374" data-name="Path 19374" class="cls-19" d="M127.16,272c27,1.44,35.92,5.59,35.92,5.59s-2.57,47,1.07,53.86c3.88,7.26-3.47,20.29-3.47,20.29l25.08-1.2c-.9-18.11,1.1-70.39,2.33-84-4.67-18.69-27.79-14.4-42.06-20.16-13.57-4-22.72-9.08-22.37-9C86.19,233.66,97.17,279,127.16,272Z"/><path id="Path_19375" data-name="Path 19375" class="cls-8" d="M166.87,228.15l.48,9.94C223,237.82,200.87,216.58,166.87,228.15Z"/><path id="Path_19376" data-name="Path 19376" class="cls-8" d="M103.26,160.53c4.17,5.1,13.09,8,20.54,8.83-2.07-9.17,3.42-18.3,8.83-25.33L110.31,136C113,144.64,108.15,153.59,103.26,160.53Z"/><path id="Path_19377" data-name="Path 19377" class="cls-5" d="M167,231l.35,7.14s2.2-.06,5.49-.26l.3-11.57c-2.73.69-4.82,1.38-5.73,1.7Z"/><path id="Path_19378" data-name="Path 19378" class="cls-9" d="M165.54,238.43l6.83-.33.32-12.36-5.47.27Z"/><path id="Path_19379" data-name="Path 19379" class="cls-10" d="M100.33,251.17c15.71,15.36,42.23-3.43,50.5-9.52-9.56-5.77-10.87-22.29-11.78-33.23-.45-5.65,5.39-16.41,3.7-21.77s-8.63-7.13-11.55-12c-2.95-7-17.07-16.62-17-16C83.47,150.88,92,206.53,100.33,251.17Z"/><path id="Path_19380" data-name="Path 19380" class="cls-5" d="M100.18,210c16.27,37.05,5.75,37.38,48.81,33,1.18-.87,1.84-1.4,1.84-1.4-2.68-2.72-4.86-8.34-6.5-15.16l-16.86.06s1.37-9.64-.14-31.53C124.43,159.88,86.36,183.47,100.18,210Z"/><path id="Path_19381" data-name="Path 19381" class="cls-5" d="M165.54,238.43l3-.14,1.33-12.41-2.6.13Z"/><path id="Path_19382" data-name="Path 19382" class="cls-10" d="M112.28,176.55s13.92-4.79,15.45,17.08.16,31.53.16,31.53L169,225l-1.58,14.7s-45,5.35-50.12,3.32-16.74-34.38-16.74-34.38S89.29,183.14,112.28,176.55Z"/><path id="Path_19383" data-name="Path 19383" class="cls-5" d="M112.79,144.31c.74-3.22-2.68-3.32-3.75-6.43l22.34,8a49,49,0,0,0-4.49,6.49C119.84,155,116.83,149.23,112.79,144.31Z"/><path id="Ellipse_2001" data-name="Ellipse 2001" class="cls-8" d="M122.74,113.66c24.59-.76,26.35,35.8,1.79,37.4C99.94,151.82,98.19,115.26,122.74,113.66Z"/><path id="Path_19384" data-name="Path 19384" class="cls-5" d="M114,190.43s5.93,28,12.92,30.91,3.82,3.48,3.82,3.48"/><path id="Path_19385" data-name="Path 19385" class="cls-5" d="M138.37,206.27s-5,1.55-10.71-5.84"/><path id="Ellipse_2002" data-name="Ellipse 2002" class="cls-17" d="M101.11,97.73c11.12-.17,11.12,17.29,0,17.13C90,115,90,97.56,101.11,97.73Z"/><path id="Path_19386" data-name="Path 19386" class="cls-17" d="M95.1,110.82a8.57,8.57,0,0,1,0-11.72c-9.26,7.45,3.69,21.22,11.69,12.45a8.57,8.57,0,0,1-11.7-.73Z"/><path id="Path_19387" data-name="Path 19387" class="cls-17" d="M100,114.05a8.58,8.58,0,0,1-9-7.5c-.2,11.91,18.72,10.71,17-1.07A8.56,8.56,0,0,1,100,114.05Z"/><path id="Path_19388" data-name="Path 19388" class="cls-5" d="M130.54,113.74c19,3.81,6.6,9.7,18.67,14.34-7.58,8.21-20.3-17.88-26.15,3.56-1.57,13.1-20.31,19.24-22,3-2.38-8.43,6.62-13.9,11.49-19.42C118.93,107,122.81,107.93,130.54,113.74Z"/><path id="Path_19389" data-name="Path 19389" class="cls-17" d="M130,113.2c19,3.81,6.6,9.7,18.67,14.35-7.57,8.2-20.3-17.89-26.14,3.56-1.58,13.09-20.32,19.24-22,3-2.38-8.42,6.63-13.9,11.49-19.42C118.39,106.46,122.27,107.4,130,113.2Z"/><path id="Rectangle_4151" data-name="Rectangle 4151" class="cls-2" d="M80.28,232.12H131.9a4.71,4.71,0,0,1,4.72,4.71h0a4.72,4.72,0,0,1-4.72,4.72H80.28a4.72,4.72,0,0,1-4.72-4.72h0A4.72,4.72,0,0,1,80.28,232.12Z"/><path id="Path_19390" data-name="Path 19390" class="cls-5" d="M75.56,236.94a4,4,0,0,0,3.89,4.62h53.29a4,4,0,0,0,3.88-4.62Z"/><rect id="Rectangle_4152" data-name="Rectangle 4152" class="cls-2" x="183.08" y="241.95" width="10.5" height="133.76"/><rect id="Rectangle_4153" data-name="Rectangle 4153" class="cls-5" x="183.08" y="241.95" width="10.5" height="8.67"/><rect id="Rectangle_4154" data-name="Rectangle 4154" class="cls-2" x="178.06" y="232.36" width="277.57" height="17.35"/></g></g></g></svg>