<svg xmlns="http://www.w3.org/2000/svg" viewBox="0 0 600 366">
<defs><style>.cls-1{fill:#e6a742;}.cls-2{fill:#5387af;}.cls-3{fill:#72a9d2;}.cls-4{fill:#cccccb;}.cls-5{fill:#f2f2f3;}.cls-6{opacity:0.1;isolation:isolate;}</style></defs><g id="Layer_2" data-name="Layer 2"><g id="Layer_1-2" data-name="Layer 1"><g id="undraw_coming_home_52ir" data-name="undraw coming home 52ir"><path id="Path_19406" data-name="Path 19406" class="cls-1" d="M72.51,366l-1-.23c28.46-126.25,153.89-205.52,280.14-177a234.32,234.32,0,0,1,176.9,176.43l-1,.23C503.19,258.6,409.67,184,300.07,184,191.91,184,96.2,260.56,72.51,366Z"/><ellipse id="Ellipse_2004" data-name="Ellipse 2004" class="cls-1" cx="220.12" cy="36.65" rx="28.66" ry="28.68"/><path id="Path_19407" data-name="Path 19407" class="cls-2" d="M96.64,359.48a10.62,10.62,0,0,0,4,5.36,9.16,9.16,0,0,0-3.24-12A10.63,10.63,0,0,0,96.64,359.48Z"/><path id="Path_19408" data-name="Path 19408" class="cls-3" d="M98,358.77a10.71,10.71,0,0,1,2.76,6.07,9.16,9.16,0,0,1-8.89-8.66A10.69,10.69,0,0,1,98,358.77Z"/><path id="Path_19409" data-name="Path 19409" class="cls-2" d="M164.71,359.48a10.62,10.62,0,0,0,4,5.36,9.16,9.16,0,0,0-3.24-12A10.7,10.7,0,0,0,164.71,359.48Z"/><path id="Path_19410" data-name="Path 19410" class="cls-3" d="M166,358.77a10.7,10.7,0,0,1,2.75,6.07,9.15,9.15,0,0,1-8.88-8.66A10.75,10.75,0,0,1,166,358.77Z"/><path id="Path_19411" data-name="Path 19411" class="cls-2" d="M178.21,96.1l-10.78-8.63,60.36-53.92h153V81l-99.15,66.87Z"/><path id="Path_19412" data-name="Path 19412" class="cls-4" d="M408.74,63.8V34.62H388.42v7.15l-7.59-8.22L331.25,87.47l-19.4,12.94L281.77,320.33l45.37,45.39H432.57V89.63Z"/><rect id="Rectangle_4174" data-name="Rectangle 4174" class="cls-5" x="167.43" y="87.47" width="163.82" height="278.25"/><rect id="Rectangle_4175" data-name="Rectangle 4175" class="cls-4" x="231.02" y="297.78" width="30.18" height="67.94"/><path id="Path_19413" data-name="Path 19413" class="cls-2" d="M198.69,317.19V306.41H185.76v10.78Z"/><path id="Path_19414" data-name="Path 19414" class="cls-2" d="M197.61,325.82H185.76V336.6h12.93V325.82Z"/><rect id="Rectangle_4176" data-name="Rectangle 4176" class="cls-2" x="207.31" y="306.41" width="12.93" height="10.78"/><rect id="Rectangle_4177" data-name="Rectangle 4177" class="cls-2" x="207.31" y="325.82" width="12.93" height="10.78"/><path id="Path_19415" data-name="Path 19415" class="cls-2" d="M287.07,317.19V306.41H274.13v10.78Z"/><path id="Path_19416" data-name="Path 19416" class="cls-2" d="M286,325.82H274.13V336.6h12.94V325.82Z"/><rect id="Rectangle_4178" data-name="Rectangle 4178" class="cls-2" x="295.69" y="306.41" width="12.93" height="10.78"/><rect id="Rectangle_4179" data-name="Rectangle 4179" class="cls-2" x="295.69" y="325.82" width="12.93" height="10.78"/><path id="Path_19417" data-name="Path 19417" class="cls-2" d="M377.6,101.49V90.71H364.67v10.78Z"/><path id="Path_19418" data-name="Path 19418" class="cls-2" d="M376.52,110.12H364.67V120.9H377.6V110.12Z"/><rect id="Rectangle_4180" data-name="Rectangle 4180" class="cls-2" x="386.22" y="90.71" width="12.93" height="10.78"/><rect id="Rectangle_4181" data-name="Rectangle 4181" class="cls-2" x="386.22" y="110.12" width="12.93" height="10.78"/><path id="Path_19419" data-name="Path 19419" class="cls-2" d="M377.6,161.89V151.1H364.67v10.79Z"/><path id="Path_19420" data-name="Path 19420" class="cls-2" d="M376.52,170.52H364.67V181.3H377.6V170.52Z"/><rect id="Rectangle_4182" data-name="Rectangle 4182" class="cls-2" x="386.22" y="151.1" width="12.93" height="10.78"/><rect id="Rectangle_4183" data-name="Rectangle 4183" class="cls-2" x="386.22" y="170.52" width="12.93" height="10.78"/><path id="Path_19421" data-name="Path 19421" class="cls-2" d="M377.6,222.28V211.5H364.67v10.78Z"/><path id="Path_19422" data-name="Path 19422" class="cls-2" d="M376.52,230.91H364.67V241.7H377.6V230.91Z"/><rect id="Rectangle_4184" data-name="Rectangle 4184" class="cls-2" x="386.22" y="211.5" width="12.93" height="10.78"/><rect id="Rectangle_4185" data-name="Rectangle 4185" class="cls-2" x="386.22" y="230.91" width="12.93" height="10.78"/><path id="Path_19423" data-name="Path 19423" class="cls-2" d="M377.6,282.68V271.9H364.67v10.78Z"/><path id="Path_19424" data-name="Path 19424" class="cls-2" d="M376.52,291.31H364.67v10.78H377.6V291.31Z"/><rect id="Rectangle_4186" data-name="Rectangle 4186" class="cls-2" x="386.22" y="271.89" width="12.93" height="10.78"/><rect id="Rectangle_4187" data-name="Rectangle 4187" class="cls-2" x="386.22" y="291.31" width="12.93" height="10.78"/><rect id="Rectangle_4188" data-name="Rectangle 4188" class="cls-2" x="185.76" y="101.49" width="125.02" height="25.88"/><rect id="Rectangle_4189" data-name="Rectangle 4189" class="cls-2" x="185.76" y="153.26" width="125.02" height="25.88"/><rect id="Rectangle_4190" data-name="Rectangle 4190" class="cls-2" x="185.76" y="205.03" width="125.02" height="25.88"/><rect id="Rectangle_4191" data-name="Rectangle 4191" class="cls-2" x="185.76" y="256.79" width="125.02" height="25.88"/><rect id="Rectangle_4192" data-name="Rectangle 4192" class="cls-1" y="364.64" width="600" height="1.06"/><rect id="Rectangle_4193" data-name="Rectangle 4193" class="cls-1" x="100.48" y="242.7" width="3.1" height="122.54"/><path id="Path_19425" data-name="Path 19425" class="cls-3" d="M132.19,258.32c.2,42.84-29.93,77.72-29.93,77.72s-30.45-34.6-30.64-77.44,29.93-77.73,29.93-77.73S132,215.47,132.19,258.32Z"/><path id="Path_19426" data-name="Path 19426" class="cls-6" d="M132.19,258.32c.2,42.84-29.93,77.72-29.93,77.72s-30.45-34.6-30.64-77.44,29.93-77.73,29.93-77.73S132,215.47,132.19,258.32Z"/><rect id="Rectangle_4194" data-name="Rectangle 4194" class="cls-1" x="60.18" y="242.7" width="3.1" height="122.54"/><path id="Path_19427" data-name="Path 19427" class="cls-3" d="M91.89,258.32C92.09,301.16,62,336,62,336s-30.45-34.6-30.65-77.44,29.93-77.73,29.93-77.73S91.69,215.47,91.89,258.32Z"/><path id="Path_19428" data-name="Path 19428" class="cls-5" d="M499,87.3c-24.42.11-44.3.47-44.3.47s23.63-31.31,44.21-19.71,44.23,19.3,44.23,19.3S523.39,87.19,499,87.3Z"/><path id="Path_19429" data-name="Path 19429" class="cls-5" d="M92.11,147.5c-24.42.11-44.3.47-44.3.47S71.44,116.65,92,128.26s44.23,19.3,44.23,19.3S116.53,147.38,92.11,147.5Z"/><path id="Path_19430" data-name="Path 19430" class="cls-5" d="M180.77,21.82c-24.42.11-44.3.47-44.3.47S160.09-9,180.68,2.58,224.9,21.89,224.9,21.89,205.19,21.71,180.77,21.82Z"/><rect id="Rectangle_4195" data-name="Rectangle 4195" class="cls-1" x="546.19" y="242.7" width="3.1" height="122.54"/><path id="Path_19431" data-name="Path 19431" class="cls-3" d="M577.9,258.32C578.1,301.16,548,336,548,336s-30.44-34.6-30.64-77.44,29.93-77.73,29.93-77.73S577.7,215.47,577.9,258.32Z"/><path id="Path_19432" data-name="Path 19432" class="cls-2" d="M435.18,289.18h31.29v-7.56h17.26v7.56H516.1v33.46H483.73v42.1H466.47v-42.1H435.18L419,304.29Z"/></g></g></g></svg>