<svg width="240" height="132" viewBox="0 0 240 132" fill="none" xmlns="http://www.w3.org/2000/svg">
<g clip-path="url(#clip0_1568_25143)">
<path d="M9.52795 126.453C16.0792 131.203 24.5691 131.441 32.7755 130.858C33.9214 130.776 35.0592 130.681 36.1865 130.578C36.1933 130.576 36.2022 130.577 36.2091 130.575C36.2633 130.57 36.3176 130.565 36.3694 130.562C36.6021 130.54 36.8349 130.518 37.0654 130.496L37.0109 130.6L36.84 130.925C36.9014 130.816 36.9628 130.71 37.0242 130.601C37.0423 130.569 37.0625 130.536 37.0805 130.504C39.2064 126.78 41.3149 122.921 41.8528 118.669C42.4087 114.256 40.8463 109.26 36.9873 107.091C36.4812 106.807 35.9452 106.581 35.3893 106.417C35.1585 106.347 34.9246 106.289 34.688 106.239C33.2407 105.915 31.7339 105.986 30.3226 106.443C28.9113 106.899 27.6463 107.726 26.6578 108.838C25.6694 109.95 24.993 111.307 24.6984 112.77C24.4037 114.232 24.5014 115.747 24.9813 117.158C21.7095 113.782 22.3198 108.305 23.4485 103.727C24.5792 99.1495 25.9482 94.0558 23.6482 89.9442C22.3698 87.6556 20.1215 86.2357 17.5983 85.6637C17.5209 85.6469 17.4436 85.6302 17.3661 85.6156C14.3598 85.0028 11.2345 85.5539 8.6144 87.1589C3.78994 90.2185 1.31204 96.0197 0.507815 101.702C-0.787937 110.847 2.07958 121.052 9.52795 126.453Z" fill="#406C81" fill-opacity="0.3"/>
<path d="M11.6432 111.794C11.8334 113.811 12.3148 115.79 13.0724 117.667C13.7705 119.328 14.7115 120.875 15.8641 122.256C18.2187 125.107 21.3321 127.25 24.7134 128.678C27.2988 129.744 30.0076 130.476 32.7756 130.858C33.9215 130.777 35.0593 130.681 36.1866 130.578C36.1934 130.576 36.2023 130.577 36.2092 130.575C36.2634 130.57 36.3177 130.565 36.3695 130.562C36.6022 130.54 36.835 130.518 37.0655 130.496L37.011 130.6L36.8401 130.925C36.9015 130.816 36.9629 130.71 37.0243 130.601C37.0424 130.569 37.0626 130.536 37.0806 130.504C35.0055 128.423 33.4562 125.872 32.5624 123.065C31.6687 120.257 31.4566 117.275 31.9439 114.368C32.4539 111.482 33.6345 108.757 35.3894 106.417C35.1586 106.347 34.9247 106.29 34.6881 106.239C34.0212 107.157 33.4361 108.132 32.9399 109.153C31.1591 112.795 30.591 116.918 31.3196 120.911C31.997 124.524 33.6845 127.867 36.1841 130.549C35.9653 130.533 35.7443 130.515 35.528 130.495C31.4316 130.146 27.3436 129.26 23.6281 127.444C20.4522 125.93 17.695 123.653 15.5993 120.814C13.349 117.691 12.3575 113.934 12.1871 110.116C12.0065 106.028 12.5336 101.869 13.4605 97.8935C14.407 93.8181 15.8455 89.8746 17.7439 86.1509C17.7864 86.0664 17.795 85.9688 17.7679 85.8781C17.7408 85.7875 17.6801 85.7108 17.5984 85.6639C17.5303 85.6177 17.4468 85.6005 17.3662 85.6158C17.3267 85.6264 17.2901 85.6457 17.259 85.6724C17.228 85.6992 17.2034 85.7326 17.187 85.7703C16.9528 86.2303 16.723 86.6906 16.5019 87.1561C14.6605 91.0331 13.3048 95.1253 12.466 99.3387C11.6517 103.403 11.2171 107.655 11.6432 111.794Z" fill="white"/>
<path d="M94.7134 132H0.247941C0.182183 132 0.119118 131.974 0.07262 131.927C0.0261221 131.88 0 131.817 0 131.751C0 131.684 0.0261221 131.621 0.07262 131.574C0.119118 131.527 0.182183 131.501 0.247941 131.501H94.7134C94.7792 131.501 94.8423 131.527 94.8888 131.574C94.9353 131.621 94.9614 131.684 94.9614 131.751C94.9614 131.817 94.9353 131.88 94.8888 131.927C94.8423 131.974 94.7792 132 94.7134 132Z" fill="#F2F6F7"/>
<path d="M66.3567 64.9937L62.0853 43.9297L60.2089 28.3718L56.052 31.0782L56.6262 48.223L63.2611 65.9866C63.0478 66.3954 62.9602 66.8587 63.0093 67.3177C63.0584 67.7767 63.242 68.2106 63.5368 68.5643C63.8316 68.918 64.2242 69.1755 64.6648 69.3041C65.1054 69.4326 65.574 69.4264 66.0111 69.2862C66.4481 69.146 66.8339 68.8782 67.1193 68.5168C67.4047 68.1554 67.5769 67.7167 67.6139 67.2566C67.651 66.7964 67.5512 66.3356 67.3273 65.9326C67.1035 65.5297 66.7656 65.2029 66.3567 64.9937V64.9937Z" fill="#FFB8B8"/>
<path d="M26.4066 66.6225L27.5889 45.1573L27.1973 29.4902L32.6928 31.5595L33.6103 48.6061L29.6127 67.1519C29.8827 67.5251 30.0364 67.9707 30.0541 68.432C30.0719 68.8933 29.9529 69.3495 29.7124 69.7426C29.4718 70.1356 29.1206 70.4479 28.7033 70.6395C28.2859 70.8312 27.8214 70.8936 27.3687 70.8188C26.9161 70.7441 26.4957 70.5356 26.1611 70.2198C25.8265 69.904 25.5928 69.4952 25.4896 69.0454C25.3865 68.5955 25.4186 68.125 25.5819 67.6936C25.7452 67.2622 26.0322 66.8893 26.4066 66.6225L26.4066 66.6225Z" fill="#FFB8B8"/>
<path d="M37.9164 129.03L40.7243 129.029L42.0602 118.129L37.9159 118.129L37.9164 129.03Z" fill="#FFB8B8"/>
<path d="M37.2 128.107L42.7301 128.107H42.7303C43.6649 128.107 44.5613 128.48 45.2222 129.146C45.8831 129.811 46.2544 130.713 46.2545 131.653V131.769L37.2001 131.769L37.2 128.107Z" fill="#667880"/>
<path d="M48.5522 127.779L51.3272 128.211L54.3035 117.644L50.208 117.007L48.5522 127.779Z" fill="#FFB8B8"/>
<path d="M47.9846 126.757L53.4497 127.608L53.4499 127.608C54.3736 127.752 55.2026 128.259 55.7547 129.018C56.3068 129.777 56.5367 130.726 56.3938 131.655L56.3763 131.769L47.4283 130.376L47.9846 126.757Z" fill="#667880"/>
<path d="M37.0914 125.775L37.0768 125.696L26.9112 70.3818C26.1042 65.9412 26.7479 61.357 28.7459 57.3153L34.8987 44.9309L53.2583 47.4341L55.425 63.2014L63.1465 93.2799L63.1388 93.3044L53.246 124.93L46.7624 125.359L52.5057 97.1288L41.9894 73.0902L42.7311 125.345L37.0914 125.775Z" fill="#667880"/>
<path d="M53.6857 49.4521L53.5645 49.261C53.5427 49.2265 51.3126 45.8451 45.2439 48.1028C39.0488 50.4081 34.2485 45.9557 34.2007 45.9105L34.1769 45.8879L32.7739 33.3029L31.1177 23.0864L36.3899 22.1555L38.9819 20.5905L49.2891 20.4058L52.0014 22.5527L56.4546 23.0411L56.8622 32.3502L56.8604 32.3604L53.6857 49.4521Z" fill="#D95757"/>
<path d="M55.163 33.2507V25.2796L56.4152 22.9796L56.4661 22.978C57.4519 23.015 58.3836 23.4411 59.0598 24.164C60.3193 25.4519 60.8899 27.5977 60.7557 30.5418L60.7532 30.5956L55.163 33.2507Z" fill="#D95757"/>
<path d="M33.3363 32.3843L26.9539 31.6134L26.9489 31.5395C26.7311 28.3363 27.2867 25.9586 28.6 24.4725C29.792 23.1238 31.1578 23.0421 31.2154 23.0393L31.2522 23.0376L32.98 24.6183L33.3363 32.3843Z" fill="#D95757"/>
<path d="M51.8123 17.1939H35.0173C34.6718 17.1935 34.3406 17.0552 34.0963 16.8094C33.852 16.5635 33.7146 16.2302 33.7142 15.8825V9.76263C33.7142 7.17342 34.7363 4.69025 36.5555 2.85941C38.3747 1.02856 40.842 0 43.4148 0C45.9875 0 48.4549 1.02856 50.2741 2.85941C52.0933 4.69025 53.1154 7.17342 53.1154 9.76263V15.8825C53.115 16.2302 52.9776 16.5635 52.7333 16.8094C52.489 17.0552 52.1578 17.1935 51.8123 17.1939V17.1939Z" fill="#667880"/>
<path d="M50.0453 13.4092C51.9294 9.94058 50.6627 5.59161 47.2162 3.6955C43.7696 1.79938 39.4483 3.07415 37.5642 6.54276C35.6802 10.0114 36.9468 14.3603 40.3934 16.2565C43.84 18.1526 48.1613 16.8778 50.0453 13.4092Z" fill="#FFB8B8"/>
<path d="M50.5649 10.1998H41.1752C40.9988 10.1996 40.8285 10.1346 40.6963 10.0171C40.564 9.8996 40.4789 9.7376 40.4568 9.56146L40.3353 8.58276C40.3236 8.48865 40.2818 8.40091 40.2163 8.33279C40.1507 8.26466 40.0649 8.21985 39.9718 8.2051C39.8787 8.19035 39.7834 8.20648 39.7002 8.25104C39.617 8.2956 39.5505 8.36618 39.5107 8.45213L38.8951 9.77946C38.8366 9.90486 38.7438 10.011 38.6277 10.0854C38.5116 10.1598 38.3768 10.1995 38.2391 10.1998H36.8128C36.712 10.1998 36.6122 10.1786 36.5199 10.1376C36.4276 10.0965 36.3449 10.0365 36.277 9.96131C36.2092 9.88617 36.1577 9.79758 36.1258 9.70123C36.094 9.60488 36.0825 9.50289 36.0922 9.40182L36.6546 3.48999C36.6666 3.36351 36.7111 3.24235 36.7836 3.13834C36.8561 3.03433 36.9542 2.95104 37.0683 2.89662C41.3685 0.876305 45.7292 0.878863 50.0294 2.9043C50.1385 2.9559 50.233 3.03406 50.3046 3.1317C50.3761 3.22934 50.4223 3.34339 50.439 3.46352L51.2815 9.36766C51.2962 9.47104 51.2888 9.5764 51.2595 9.67661C51.2303 9.77682 51.18 9.86953 51.112 9.94846C51.0441 10.0274 50.96 10.0907 50.8656 10.134C50.7712 10.1774 50.6687 10.1998 50.5649 10.1998L50.5649 10.1998Z" fill="#667880"/>
<path d="M66.3785 66.339L66.028 65.9862L81.2669 50.6495H110.799L125.699 35.3447H154.849L169.556 20.4285H238.016V20.9275H169.762L155.055 35.8438H125.907L111.007 51.1485H81.4724L66.3785 66.339Z" fill="#406C80"/>
<path d="M126.195 44.915C131.262 44.915 135.369 40.7814 135.369 35.6825C135.369 30.5835 131.262 26.45 126.195 26.45C121.128 26.45 117.021 30.5835 117.021 35.6825C117.021 40.7814 121.128 44.915 126.195 44.915Z" fill="white"/>
<path d="M169.833 23.2061C171.202 23.2061 172.312 22.089 172.312 20.7109C172.312 19.3327 171.202 18.2156 169.833 18.2156C168.463 18.2156 167.353 19.3327 167.353 20.7109C167.353 22.089 168.463 23.2061 169.833 23.2061Z" fill="#F2F6F7"/>
<path d="M237.521 23.2061C238.89 23.2061 240 22.089 240 20.7109C240 19.3327 238.89 18.2156 237.521 18.2156C236.151 18.2156 235.041 19.3327 235.041 20.7109C235.041 22.089 236.151 23.2061 237.521 23.2061Z" fill="#F2F6F7"/>
<path d="M203.801 23.2061C205.17 23.2061 206.28 22.089 206.28 20.7109C206.28 19.3327 205.17 18.2156 203.801 18.2156C202.431 18.2156 201.321 19.3327 201.321 20.7109C201.321 22.089 202.431 23.2061 203.801 23.2061Z" fill="#F2F6F7"/>
<path d="M126.195 45.1645C124.332 45.1645 122.51 44.6084 120.961 43.5665C119.411 42.5246 118.204 41.0437 117.491 39.3111C116.777 37.5785 116.591 35.672 116.954 33.8326C117.318 31.9933 118.215 30.3038 119.533 28.9777C120.851 27.6516 122.529 26.7485 124.357 26.3826C126.185 26.0168 128.079 26.2045 129.801 26.9222C131.522 27.6399 132.994 28.8552 134.029 30.4145C135.064 31.9739 135.617 33.8071 135.617 35.6825C135.614 38.1964 134.62 40.6065 132.854 42.3842C131.088 44.1618 128.693 45.1617 126.195 45.1645ZM126.195 26.6995C124.43 26.6995 122.704 27.2263 121.236 28.2134C119.768 29.2005 118.624 30.6034 117.949 32.2448C117.273 33.8863 117.096 35.6925 117.441 37.435C117.785 39.1775 118.635 40.7781 119.884 42.0344C121.132 43.2907 122.722 44.1463 124.454 44.4929C126.185 44.8395 127.98 44.6616 129.611 43.9817C131.242 43.3018 132.636 42.1504 133.617 40.6732C134.597 39.1959 135.121 37.4592 135.121 35.6825C135.118 33.3009 134.177 31.0176 132.504 29.3335C130.83 27.6495 128.562 26.7022 126.195 26.6995V26.6995Z" fill="#406C80"/>
<path d="M126.195 42.2791C129.815 42.2791 132.75 39.3257 132.75 35.6825C132.75 32.0393 129.815 29.0859 126.195 29.0859C122.575 29.0859 119.641 32.0393 119.641 35.6825C119.641 39.3257 122.575 42.2791 126.195 42.2791Z" fill="#20A1DA"/>
<path d="M125.57 38.467L123.609 35.9283L124.75 35.0353L125.679 36.2373L128.817 32.9033L129.866 33.9039L125.57 38.467Z" fill="white"/>
<path d="M81.0698 60.1362C86.1364 60.1362 90.2436 56.0026 90.2436 50.9037C90.2436 45.8047 86.1364 41.6711 81.0698 41.6711C76.0033 41.6711 71.896 45.8047 71.896 50.9037C71.896 56.0026 76.0033 60.1362 81.0698 60.1362Z" fill="white"/>
<path d="M81.0698 60.3857C79.2064 60.3857 77.3848 59.8296 75.8354 58.7877C74.286 57.7458 73.0784 56.2649 72.3653 54.5323C71.6522 52.7997 71.4656 50.8932 71.8291 49.0538C72.1927 47.2145 73.09 45.5249 74.4076 44.1989C75.7253 42.8728 77.4041 41.9697 79.2317 41.6038C81.0594 41.238 82.9538 41.4257 84.6754 42.1434C86.397 42.8611 87.8685 44.0764 88.9037 45.6357C89.939 47.1951 90.4916 49.0283 90.4916 50.9037C90.4888 53.4176 89.4952 55.8277 87.7289 57.6053C85.9626 59.383 83.5678 60.3829 81.0698 60.3857ZM81.0698 41.9207C79.3045 41.9207 77.5787 42.4475 76.1109 43.4346C74.643 44.4217 73.499 45.8246 72.8234 47.466C72.1478 49.1075 71.9711 50.9136 72.3155 52.6562C72.6599 54.3987 73.51 55.9993 74.7583 57.2556C76.0066 58.5119 77.597 59.3674 79.3285 59.7141C81.0599 60.0607 82.8546 59.8828 84.4856 59.2029C86.1166 58.523 87.5107 57.3716 88.4914 55.8944C89.4722 54.4171 89.9957 52.6803 89.9957 50.9037C89.993 48.5221 89.0518 46.2388 87.3784 44.5547C85.7051 42.8707 83.4363 41.9234 81.0698 41.9207V41.9207Z" fill="#406C80"/>
<path d="M81.0699 57.5001C84.6899 57.5001 87.6245 54.5467 87.6245 50.9035C87.6245 47.2603 84.6899 44.3069 81.0699 44.3069C77.4499 44.3069 74.5153 47.2603 74.5153 50.9035C74.5153 54.5467 77.4499 57.5001 81.0699 57.5001Z" fill="#20A1DA"/>
<path d="M80.4452 53.6882L78.4835 51.1495L79.6243 50.2565L80.5533 51.4584L83.6913 48.1245L84.7406 49.1251L80.4452 53.6882Z" fill="white"/>
</g>
<defs>
<clipPath id="clip0_1568_25143">
<rect width="240" height="132" fill="white"/>
</clipPath>
</defs>
</svg>
