<svg xmlns="http://www.w3.org/2000/svg" xmlns:xlink="http://www.w3.org/1999/xlink" width="300" height="170" viewBox="0 0 700.107 520">
  <defs>
    <linearGradient id="linear-gradient" x1="0.5" y1="1" x2="0.5" gradientUnits="objectBoundingBox">
      <stop offset="0" stop-color="gray" stop-opacity="0.251"/>
      <stop offset="0.54" stop-color="gray" stop-opacity="0.122"/>
      <stop offset="1" stop-color="gray" stop-opacity="0.102"/>
    </linearGradient>
    <linearGradient id="linear-gradient-2" y2="0" xlink:href="#linear-gradient"/>
  </defs>
  <g id="undraw_time_management_30iu" transform="translate(-0.007 -0.004)">
    <path id="Path_18744" data-name="Path 18744" d="M151.5,115.929c-4.357,1.8-8.829,4.121-11.223,8.181-2.536,4.289-2.233,9.615-1.76,14.577,4.114,43.038,14.953,88.81-3.764,127.794-9.085,18.913-24.281,34.07-36.368,51.246s-21.212,38.621-15.6,58.827c6.853,24.69,32.429,38.379,49.669,57.38,11.284,12.423,19.2,27.518,29.724,40.587s24.956,24.583,41.764,25.35c24.173,1.111,43.841-19.728,67.543-24.556,24.281-4.942,48.731,7.635,68.419,22.691s37.6,33.3,60.535,42.695c25.334,10.389,53.891,8.8,80.56,15.042,24.281,5.689,46.634,17.789,70.74,24.239s52.36,6.06,71.036-10.416c24.342-21.546,22.427-59.925,37.973-88.426,14.441-26.481,42.708-42.291,61.735-65.7C756.718,373.3,755.6,308.9,726.528,263.074S644.8,189.5,590.957,182.277c-24.281-3.252-49.284-2.808-72.628-10.207-62.484-19.8-99.668-90.722-163.461-105.481-40.55-9.366-79.987,6.854-114.527,26.818C210.36,110.737,182.7,103.008,151.5,115.929Z" transform="translate(-81.08 -63.86)" fill="#9d7ec9" opacity="0.1"/>
    <path id="Path_18745" data-name="Path 18745" d="M233.778,347.69s-23.02,21.687-47.726,22.334a48,48,0,0,0-28.578,10.147,80.593,80.593,0,0,0-10.684,10.147" transform="translate(-102.467 -156.583)" fill="none" stroke="#535461" stroke-miterlimit="10" stroke-width="2"/>
    <path id="Path_18746" data-name="Path 18746" d="M121.718,411.339c3.318-1.683,15.985-.566,15.985-.566s-6.569,10.874-9.888,12.557a6.736,6.736,0,1,1-6.07-11.992Z" transform="translate(-92.976 -177.073)" fill="#9d7ec9"/>
    <path id="Path_18747" data-name="Path 18747" d="M140.011,383.234c3.7.391,13.726,8.2,13.726,8.2S142.27,397,138.6,396.613a6.733,6.733,0,0,1,1.41-13.379Z" transform="translate(-97.934 -168.191)" fill="#9d7ec9"/>
    <path id="Path_18748" data-name="Path 18748" d="M185.28,359.681c2.995,2.2,7.7,14,7.7,14s-12.687-.963-15.682-3.158a6.737,6.737,0,0,1,7.979-10.84Z" transform="translate(-111.583 -160.131)" fill="#9d7ec9"/>
    <path id="Path_18749" data-name="Path 18749" d="M224.867,350.394c3.325,1.663,9.962,12.5,9.962,12.5s-12.667,1.192-15.992-.471a6.736,6.736,0,1,1,6.03-12.025Z" transform="translate(-124.603 -157.179)" fill="#9d7ec9"/>
    <path id="Path_18750" data-name="Path 18750" d="M167.853,405.95c1.106-3.548-2.131-15.83-2.131-15.83s-9.632,8.3-10.738,11.844a6.743,6.743,0,1,0,12.869,3.986Z" transform="translate(-105.003 -170.444)" fill="#9d7ec9"/>
    <path id="Path_18751" data-name="Path 18751" d="M213.686,394.983c0-3.717-6.779-14.463-6.779-14.463s-6.7,10.773-6.7,14.5a6.745,6.745,0,0,0,13.49-.04Z" transform="translate(-119.857 -167.308)" fill="#9d7ec9"/>
    <path id="Path_18752" data-name="Path 18752" d="M256.844,377.169c.621-3.663-4.236-15.4-4.236-15.4s-8.438,9.507-9.052,13.17a6.745,6.745,0,0,0,13.287,2.235Z" transform="translate(-133.951 -161.182)" fill="#9d7ec9"/>
    <path id="Path_18753" data-name="Path 18753" d="M287.578,228.656s-27.728-15.2-35.97-38.493a47.876,47.876,0,0,0-18.461-24.03,80.693,80.693,0,0,0-12.977-7" transform="translate(-126.354 -94.982)" fill="none" stroke="#535461" stroke-miterlimit="10" stroke-width="2"/>
    <path id="Path_18754" data-name="Path 18754" d="M206.921,136.527c2.624,2.633,5.45,15.015,5.45,15.015s-12.383-2.9-15.007-5.535a6.739,6.739,0,0,1,9.557-9.48Z" transform="translate(-118.366 -87.024)" fill="#9d7ec9"/>
    <path id="Path_18755" data-name="Path 18755" d="M239.156,144.668c.769,3.636-3.595,15.56-3.595,15.56s-8.815-9.15-9.584-12.793a6.744,6.744,0,1,1,13.186-2.774Z" transform="translate(-128.174 -88.411)" fill="#9d7ec9"/>
    <path id="Path_18756" data-name="Path 18756" d="M275.619,180.7c-1.174,3.521-10.974,11.621-10.974,11.621s-2.981-12.342-1.808-15.87a6.751,6.751,0,0,1,12.815,4.249Z" transform="translate(-140.154 -99.132)" fill="#9d7ec9"/>
    <path id="Path_18757" data-name="Path 18757" d="M296.55,215.633c-.56,3.67-8.849,13.3-8.849,13.3s-5.032-11.662-4.472-15.331a6.744,6.744,0,1,1,13.321,2.02Z" transform="translate(-146.867 -110.804)" fill="#9d7ec9"/>
    <path id="Path_18758" data-name="Path 18758" d="M222.867,179.543c3.723-.04,14.434-6.895,14.434-6.895s-10.866-6.6-14.589-6.558a6.734,6.734,0,1,0,.155,13.466Z" transform="translate(-125.011 -97.256)" fill="#9d7ec9"/>
    <path id="Path_18759" data-name="Path 18759" d="M246.94,219.88c3.534-1.151,11.7-10.887,11.7-10.887s-12.35-3.05-15.884-1.9a6.734,6.734,0,1,0,4.182,12.793Z" transform="translate(-132.114 -110.567)" fill="#9d7ec9"/>
    <path id="Path_18760" data-name="Path 18760" d="M277.258,255.4c3.683-.539,13.382-8.753,13.382-8.753s-11.655-5.09-15.331-4.552a6.734,6.734,0,1,0,1.956,13.311Z" transform="translate(-142.332 -122.072)" fill="#9d7ec9"/>
    <ellipse id="Ellipse_1913" data-name="Ellipse 1913" cx="244.163" cy="243.739" rx="244.163" ry="243.739" transform="translate(107.879 15.09)" fill="url(#linear-gradient)"/>
    <ellipse id="Ellipse_1914" data-name="Ellipse 1914" cx="240.116" cy="239.699" rx="240.116" ry="239.699" transform="translate(111.926 19.13)" fill="#9d7ec9"/>
    <ellipse id="Ellipse_1915" data-name="Ellipse 1915" cx="190.878" cy="190.547" rx="190.878" ry="190.547" transform="translate(161.163 68.282)" fill="#dde1ec"/>
    <rect id="Rectangle_3854" data-name="Rectangle 3854" width="10.792" height="168.328" transform="translate(346.646 101.947)" fill="#535461" opacity="0.3"/>
    <g id="Group_7740" data-name="Group 7740" transform="translate(249.629 204.407)" opacity="0.1">
      <rect id="Rectangle_3855" data-name="Rectangle 3855" width="152.433" height="13.466" transform="translate(113.879 50.382)"/>
      <path id="Path_18794" data-name="Path 18794" d="M0,0,13.471.01l.077,108.227-13.471-.01Z" transform="translate(0 11.929) rotate(-62.36)"/>
      <ellipse id="Ellipse_1916" data-name="Ellipse 1916" cx="20.234" cy="20.199" rx="20.234" ry="20.199" transform="translate(82.178 36.916)"/>
    </g>
    <rect id="Rectangle_3857" data-name="Rectangle 3857" width="152.433" height="13.466" transform="translate(363.508 252.096)" fill="#535461"/>
    <path id="Path_18795" data-name="Path 18795" d="M0,0,108.227-.077l-.01,13.471L-.01,13.471Z" transform="translate(255.934 201.729) rotate(27.64)" fill="#535461"/>
    <ellipse id="Ellipse_1917" data-name="Ellipse 1917" cx="20.234" cy="20.199" rx="20.234" ry="20.199" transform="translate(331.807 238.63)" fill="#535461"/>
    <g id="Group_7741" data-name="Group 7741" transform="translate(161.149 68.282)" opacity="0.1">
      <path id="Path_18761" data-name="Path 18761" d="M334.839,378.71c0-105.238,85.457-190.547,190.878-190.547a190.694,190.694,0,0,1,152.541,75.976,190.876,190.876,0,0,0-167.38-98.869C405.457,165.27,320,250.578,320,355.817a189.482,189.482,0,0,0,38.358,114.571,189.419,189.419,0,0,1-23.519-91.678Z" transform="translate(-320 -165.27)"/>
    </g>
    <path id="Path_18762" data-name="Path 18762" d="M788.8,220.218c-2.266-2.175-21.341,12.12-21.341,12.12s-6.792,1.239-5.173,5.891-7.116,30.71-7.116,30.71l-3.555-4.962a21.271,21.271,0,0,0-2.826-12.524c-.128-.209-.256-.411-.384-.6l.62-.215c-.236-3.178-5.328-8.019-8.033-10.389v-1.023c.169-3.8,1.693-7.8,0-11.244-1.916-3.925-7.521-5.9-7.993-10.207-.283-2.572,1.457-4.895,2.226-7.373,1.835-5.925-1.976-11.971-5.618-17.075a23.891,23.891,0,0,0-4.458-5.131,21.649,21.649,0,0,0-5.355-2.855c-5.335-2.155-10.792-3.239-16.3-4.713-5.281-1.4-10.151-2.067-15.513-.31a7.632,7.632,0,0,0-3.372,1.932c-1.275,1.427-1.443,3.461-2.28,5.164-1.349,2.74-4.256,4.377-6.826,6.134s-5.146,4.168-5.16,7.2c0,4.3,4.924,7.009,6.569,11.015,1.538,3.73,0,7.884-.857,11.817a7.925,7.925,0,0,0-.1,3.9,8.373,8.373,0,0,0,1.511,2.626c1.018,1.347,2.111,2.6,3.2,3.878l-.5.2c-9.052-.929-14.872,10.544-14.872,10.544.418.088.816.189,1.207.3l-.384.5a48.963,48.963,0,0,0-6.644,11.6l-7.419,9.925s-1.619-24.818,2.266-30.4-3.555-9-3.555-9-16.188-17.991-18.434-16.442,5.5,21.095,12.289,24.2c0,0,.675,6.2-.674,10.234-.816,2.552-5.173,29.471-5.173,29.471s-3.878,22.643,13.908,11.446C664.232,279.3,671.7,266.8,675.5,258.953q.4-.828.749-1.582a18.918,18.918,0,0,1,.358,2.525l.674,25.943a39.32,39.32,0,0,1-4.087,18.529l-7.925,16.045.884.269-.533.768c-5.221,7.669-14.1,24.913,4.175,33.7l24.281,3.1-1.3,6.2s-10.023,18.92-12.937,31.949a95.637,95.637,0,0,1-8.411,22.953l.749.4c-.155.175-.317.357-.472.545a11.694,11.694,0,0,0-2.806,5.871l-3.291,4.659s-1.3,19.23,1.295,23.889c1.416,2.545,6.118,4.161,10.117,5.1,5.935,1.407,10.724-4.713,7.574-9.756l-.04-.067H684.5c-.674-3.131-2.738-12.847-2.064-16.536.189-1.05.364-2.094.452-3.158a11.147,11.147,0,0,1,1.254-3.993c.108-.209.223-.411.337-.613l.351.148c1.086.465,2.158.9,3.177,1.286-1.578,1.434-2.7,4.4-1.349,10.51,0,0,.128,15.277,1.295,17.681s14.225,5.582,16.491,3.1-1.457-11.015-1.457-11.015l-.115.081c-.749-4.949-1.673-13.81.6-17.3.917-1.407,1.808-2.862,2.6-4.222l.492-.842h0c4.222,2.1,8.687,3.683,11.129,2.586,0,0,10.67-24.818,10.023-27.915s16.491-38.157,16.491-38.157,14.549-16.159-3.231-27.3c-5.645-3.548-9.76-5.932-12.748-7.541l-2.5-13.062a47.671,47.671,0,0,1,.674-20.644l2.7-10.275h0l.223-.875s6.792-13.958,6.468-20.475a4.706,4.706,0,0,1,.169-1.5q.111.465.243.97a125.014,125.014,0,0,0,7.028,19.768c5.16,11.621,12.815,10.7,17.01,9.049a5.8,5.8,0,0,0,3.582-4.188c1.511-7.231,5.659-27.491,5.922-33.087a93.949,93.949,0,0,1,1.619-13.029C782.01,233.246,791.062,222.392,788.8,220.218Z" transform="translate(-260.39 -101.559)" fill="url(#linear-gradient-2)"/>
    <path id="Path_18763" data-name="Path 18763" d="M737.178,533.667s-1.423,2.848-3.372,6.268c-.762,1.347-1.612,2.794-2.482,4.188-3.082,4.922,0,20.6,0,20.6l-6.745.922-6.745-3.367L716.6,550.9v-8.322L724.289,534l3.372-3.717Z" transform="translate(-287.951 -216.233)" fill="#f8bdc5"/>
    <g id="Group_7742" data-name="Group 7742" transform="translate(436.325 314.047)" opacity="0.1">
      <path id="Path_18764" data-name="Path 18764" d="M740.883,533.667s-1.423,2.848-3.372,6.268a83.567,83.567,0,0,1-8.62-5.292l-.594-.417L727.98,534l3.372-3.717Z" transform="translate(-727.98 -530.28)"/>
    </g>
    <path id="Path_18765" data-name="Path 18765" d="M769.529,428.691s-16.329,34.75-15.709,37.827-9.551,27.68-9.551,27.68c-2.32,1.091-6.583-.478-10.6-2.559a83.136,83.136,0,0,1-8.768-5.387l-.594-.417-.357-.256,26.8-74.118L727.036,394.1l-1.754-1.286L714.68,385l32.375,5.844s1.126-.141,7.082,3.185c2.86,1.6,6.833,3.986,12.323,7.581C783.383,412.7,769.529,428.691,769.529,428.691Z" transform="translate(-287.326 -168.771)" fill="#5e52ad"/>
    <g id="Group_7743" data-name="Group 7743" transform="translate(427.354 216.229)" opacity="0.03">
      <path id="Path_18766" data-name="Path 18766" d="M769.529,428.691s-16.329,34.75-15.709,37.827-9.551,27.68-9.551,27.68c-2.32,1.091-6.583-.478-10.6-2.559a83.136,83.136,0,0,1-8.768-5.387l-.594-.417-.357-.256,26.8-74.118L727.036,394.1l-1.754-1.286L714.68,385l32.375,5.844s1.126-.141,7.082,3.185c2.86,1.6,6.833,3.986,12.323,7.581C783.383,412.7,769.529,428.691,769.529,428.691Z" transform="translate(-714.68 -385)"/>
    </g>
    <path id="Path_18767" data-name="Path 18767" d="M719.641,544.425s-8.013-1.232-5.234,11.689c0,0,.121,15.149,1.234,17.506s13.557,5.535,15.709,3.077-1.389-10.914-1.389-10.914-9.085,6.612-11.554-.465S719.641,544.425,719.641,544.425Z" transform="translate(-287.046 -220.843)" fill="#5d3e53"/>
    <path id="Path_18768" data-name="Path 18768" d="M705.3,537.811a9.7,9.7,0,0,0-2.1,2.909,11.379,11.379,0,0,0-1.194,3.959c-.081,1.05-.25,2.094-.425,3.131-.769,4.383,2.179,17.371,2.179,17.371l-11.709,1.845-4.31-4.612-.924-10.147a36.712,36.712,0,0,0,1.848-10.773,11.278,11.278,0,0,1,2.7-6.733,18.53,18.53,0,0,1,3.123-3.091S707.769,535.656,705.3,537.811Z" transform="translate(-278.257 -216.687)" fill="#f8bdc5"/>
    <g id="Group_7744" data-name="Group 7744" transform="translate(413.136 314.97)" opacity="0.1">
      <path id="Path_18769" data-name="Path 18769" d="M707.508,537.8a9.7,9.7,0,0,0-2.1,2.909c-4.8-2.161-9.834-4.888-11.669-5.9l-.142-.074a18.531,18.531,0,0,1,3.123-3.091S709.976,535.649,707.508,537.8Z" transform="translate(-693.6 -531.65)"/>
    </g>
    <path id="Path_18770" data-name="Path 18770" d="M739.488,419.467s-7.7,14.456-12.633,26.448c-3.238,7.878-9.928,26.636-14.164,38.581l-.621,1.764c-1.862,5.285-3.1,8.861-3.1,8.861a8.034,8.034,0,0,1-2.421-.357c-.728-.2-1.545-.458-2.415-.781l-.978-.37c-.971-.377-2.023-.815-3.028-1.273-4.9-2.181-10.117-5.023-12.013-6.06l-.715-.4a97.166,97.166,0,0,0,8.033-22.778c2.772-12.914,12.323-31.646,12.323-31.646l1.234-6.154-23.108-3.077c-17.408-8.686-8.95-25.808-3.979-33.41A44.885,44.885,0,0,1,684.646,385l18.488,4.04s2.914.929,9.389,3.791l2.974,1.347c3.629,1.663,8.094,3.8,13.49,6.551C747.184,409.912,739.488,419.467,739.488,419.467Z" transform="translate(-274.545 -168.771)" fill="#5e52ad"/>
    <path id="Path_18771" data-name="Path 18771" d="M702.9,568.5a6.534,6.534,0,0,1-7.217,9.669c-3.784-.936-8.269-2.538-9.618-5.063-2.462-4.612-1.234-23.68-1.234-23.68l3.238-4.767s-1.693,21.068,2.313,22.893,12.478.855,12.478.855Z" transform="translate(-277.51 -220.931)" fill="#5d3e53"/>
    <path id="Path_18772" data-name="Path 18772" d="M708.508,182.351a7.206,7.206,0,0,0-3.238,1.919c-1.214,1.414-1.349,3.434-2.172,5.124-1.281,2.693-4.047,4.343-6.5,6.06s-4.9,4.134-4.917,7.137c0,4.269,4.721,6.949,6.259,10.914,1.464,3.7,0,7.817-.816,11.716a8.166,8.166,0,0,0-.094,3.865,8.392,8.392,0,0,0,1.443,2.606c2.974,4.04,6.671,7.622,8.66,12.221,1.511,3.494,1.929,7.353,2.327,11.143.573,5.454,1.147,11.009.108,16.4a1.654,1.654,0,0,0,0,.99,1.537,1.537,0,0,0,.789.673,16.2,16.2,0,0,0,21.914-8.08c1.349-3.05,1.868-6.733,4.539-8.713a2.274,2.274,0,0,1,1.086-.492,3.181,3.181,0,0,1,1.754.586c3.467,1.872,7.669,1.926,11.534,1.158,2.334-.465,4.721-1.293,6.266-3.111,3.042-3.609,1.349-9,1.551-13.709.162-3.764,1.612-7.736,0-11.143-1.821-3.892-7.17-5.844-7.615-10.1-.27-2.545,1.389-4.855,2.125-7.305,1.747-5.878-1.882-11.87-5.349-16.927a23.446,23.446,0,0,0-4.242-5.083,20.376,20.376,0,0,0-5.1-2.828c-5.079-2.134-10.259-3.212-15.513-4.666C718.275,181.267,713.641,180.6,708.508,182.351Z" transform="translate(-279.839 -102.226)" fill="#85555c"/>
    <path id="Path_18773" data-name="Path 18773" d="M745.009,287.177H727.135V258.265a53.772,53.772,0,0,0,.931-8.416v-2.9c-.169-3.447-.884-6.888-2.759-8.989-4.93-5.535,16.019-4.612,16.019-4.612a52,52,0,0,0,2.5,7.447,45.261,45.261,0,0,0,6,10.551,24.445,24.445,0,0,0,8.141,6.915C770.268,264.419,745.009,287.177,745.009,287.177Z" transform="translate(-290.54 -119.211)" fill="#f8bdc5"/>
    <g id="Group_7745" data-name="Group 7745" transform="translate(433.995 114.083)" opacity="0.1">
      <path id="Path_18774" data-name="Path 18774" d="M743.792,240.8a16.37,16.37,0,0,1-15.756,6.154c-.169-3.447-.884-6.888-2.759-8.989-4.93-5.535,16.019-4.612,16.019-4.612a52,52,0,0,0,2.5,7.447Z" transform="translate(-724.526 -233.294)"/>
    </g>
    <ellipse id="Ellipse_1918" data-name="Ellipse 1918" cx="16.329" cy="16.301" rx="16.329" ry="16.301" transform="translate(423.962 94.467)" fill="#f8bdc5"/>
    <path id="Path_18775" data-name="Path 18775" d="M817.54,260.57A96.725,96.725,0,0,0,816,273.484c-.25,5.541-4.2,25.633-5.645,32.8a5.692,5.692,0,0,1-3.413,4.154c-4.006,1.636-11.291,2.552-16.188-8.969a127.345,127.345,0,0,1-6.7-19.593,52.85,52.85,0,0,1-1.349-6.854l10.792-5.844a13.272,13.272,0,0,1,2.55,3.266,21.81,21.81,0,0,1,2.7,12.416l3.372,4.922s8.316-25.835,6.745-30.447,4.93-5.844,4.93-5.844,18.177-14.14,20.336-11.992S827.7,254.416,817.54,260.57Z" transform="translate(-309.471 -121.82)" fill="#f8bdc5"/>
    <path id="Path_18776" data-name="Path 18776" d="M681.814,268.608a72.652,72.652,0,0,1-2.9,7.07c-3.629,7.79-10.738,20.2-21.745,27.377-16.943,11.069-13.247-11.379-13.247-11.379s4.148-26.69,4.931-29.215c1.234-4,.614-10.147.614-10.147-6.468-3.077-13.861-22.448-11.709-23.99s17.537,16.3,17.537,16.3,7.089,3.367,3.372,8.921-2.158,30.137-2.158,30.137l7.129-9.824a49.055,49.055,0,0,1,6.333-11.5c1.349-1.838,2.293-2.949,2.293-2.949Z" transform="translate(-262.162 -117.556)" fill="#f8bdc5"/>
    <g id="Group_7746" data-name="Group 7746" transform="translate(473.226 147.356)" opacity="0.1">
      <path id="Path_18777" data-name="Path 18777" d="M796.052,285.982c-2.266.835-11.041,4.37-12.013,9.426a52.891,52.891,0,0,1-1.349-6.854l10.792-5.844A13.274,13.274,0,0,1,796.052,285.982Z" transform="translate(-782.69 -282.71)"/>
    </g>
    <g id="Group_7747" data-name="Group 7747" transform="translate(407.808 141.834)" opacity="0.1">
      <path id="Path_18778" data-name="Path 18778" d="M697.544,283.728a72.667,72.667,0,0,1-2.9,7.07c-.418-3.043-2.138-10.827-8.944-13.338,1.349-1.838,2.293-2.949,2.293-2.949Z" transform="translate(-685.7 -274.51)"/>
    </g>
    <g id="Group_7748" data-name="Group 7748" transform="translate(436.595 130.637)" opacity="0.1">
      <path id="Path_18779" data-name="Path 18779" d="M746.254,295.208H728.38V266.3a53.772,53.772,0,0,0,.931-8.416c3.676,3.542,2.765,9.029,2.765,9.029l9.551,21.546,4.627-19.048-1.538-2.458,6.34-7.528a24.445,24.445,0,0,0,8.141,6.915C771.513,272.45,746.254,295.208,746.254,295.208Z" transform="translate(-728.38 -257.88)"/>
    </g>
    <g id="Group_7749" data-name="Group 7749" transform="translate(407.349 216.229)" opacity="0.1">
      <path id="Path_18780" data-name="Path 18780" d="M744.766,395.773s-14-1.111-26.15-1.636l-1.221-.054c-1.727-.067-3.372-.121-4.984-.162-11.79-.283-25.124-4.4-27.391-5.117a44.887,44.887,0,0,1,2.752-3.8l18.488,4.04s2.914.929,9.389,3.791L705.025,385l32.375,5.844s1.126-.141,7.082,3.185Z" transform="translate(-685.02 -385)"/>
    </g>
    <path id="Path_18781" data-name="Path 18781" d="M731.98,270.592l-1.538-2.458,6.839-8.167s14.1,6.9,17.8,5.386c0,0,8.937,7.406,9.24,11.689,0,0-12.937,4.3-12.633,10.773s-6.138,20.294-6.138,20.294l-2.7,11.056a49.131,49.131,0,0,0-.675,20.469l2.462,13.688s-19.412-1.535-32.375-1.845-27.728-5.225-27.728-5.225l7.561-15.883A40.34,40.34,0,0,0,696,312l-.675-25.714s-.614-12.914-10.792-15.069c0,0,5.544-11.379,14.164-10.457,0,0,12.559-5.232,16.289-1.7s2.813,9.076,2.813,9.076l9.551,21.546Z" transform="translate(-277.511 -127.229)" fill="#ed677b"/>
    <g id="Group_7750" data-name="Group 7750" transform="translate(423.937 87.29)" opacity="0.1">
      <path id="Path_18782" data-name="Path 18782" d="M714.184,213.619c2.475,0,4.418-2.619,6.893-2.485a7.027,7.027,0,0,1,3.44,1.616,42.02,42.02,0,0,0,13.159,6.06,11.5,11.5,0,0,0,5.6.4,4.769,4.769,0,0,0,3.764-3.764,6.406,6.406,0,0,0-.324-2.444,30.218,30.218,0,0,0-13.179-17.365c-2.563-1.569-5.693-2.767-8.532-1.784-2.563.882-4.216,3.279-6.07,5.252a23.058,23.058,0,0,1-4.721,3.824c-1.349.815-3.372,1.347-4.148,2.841C708.6,208.562,710.9,213.592,714.184,213.619Z" transform="translate(-709.613 -193.5)"/>
    </g>
    <path id="Path_18783" data-name="Path 18783" d="M714.184,212.709c2.475,0,4.418-2.619,6.893-2.485a7.027,7.027,0,0,1,3.44,1.616,42.02,42.02,0,0,0,13.159,6.06,11.5,11.5,0,0,0,5.6.4,4.769,4.769,0,0,0,3.764-3.764,6.406,6.406,0,0,0-.324-2.444,30.218,30.218,0,0,0-13.179-17.365c-2.563-1.569-5.693-2.767-8.532-1.784-2.563.882-4.216,3.279-6.07,5.252a23.061,23.061,0,0,1-4.721,3.824c-1.349.815-3.372,1.347-4.148,2.841C708.6,207.679,710.9,212.675,714.184,212.709Z" transform="translate(-285.676 -105.913)" fill="#85555c"/>
    <path id="Path_18784" data-name="Path 18784" d="M705.32,326.79s15.095,5.535,24.956,1.232l4.93.31s8.195,5.737,16.862,3.171" transform="translate(-284.279 -149.755)" opacity="0.05"/>
    <path id="Path_18785" data-name="Path 18785" d="M810.529,313.09s-2.462,5.844-1.234,7.689" transform="translate(-318.013 -145.279)" opacity="0.05"/>
    <path id="Path_18786" data-name="Path 18786" d="M665.58,310.35s1.234,5.844,0,7.689" transform="translate(-271.343 -144.384)" opacity="0.05"/>
    <path id="Path_18787" data-name="Path 18787" d="M1025.292,508.14s-28.22,28.171-12.289,69.97-27.3,111.312-27.3,111.312.465-.067,1.349-.215c57.958-10.214,86.752-76.38,54.525-125.539C1029.562,545.388,1019.728,523.949,1025.292,508.14Z" transform="translate(-375.547 -209)" fill="#9d7ec9"/>
    <path id="Path_18788" data-name="Path 18788" d="M1025.292,508.84S997.072,537.011,1013,578.81s-27.3,111.305-27.3,111.305.465-.067,1.349-.215c57.958-10.214,86.752-76.38,54.525-125.539C1029.562,546.088,1019.728,524.649,1025.292,508.84Z" transform="translate(-375.547 -209.229)" opacity="0.1"/>
    <path id="Path_18789" data-name="Path 18789" d="M1025.289,508.14s-15.931,34.527,0,62.7,2.7,107.225-39.6,118.584" transform="translate(-375.544 -209)" fill="none" stroke="#535461" stroke-miterlimit="10" stroke-width="1"/>
    <path id="Path_18790" data-name="Path 18790" d="M1072.072,677.189s-32.2-5.117-35.134,23.687S975,733.673,975,733.673l1.106.734c48.7,31.915,95.257,20.327,88.236-22.051C1061.752,696.608,1061.968,680.785,1072.072,677.189Z" transform="translate(-372.064 -264.112)" fill="#9d7ec9"/>
    <path id="Path_18791" data-name="Path 18791" d="M1072.085,677.36s-25,5.474-22.932,28.165-37.1,49.886-74.112,28.326" transform="translate(-372.077 -264.282)" fill="none" stroke="#535461" stroke-miterlimit="10" stroke-width="1"/>
    <path id="Path_18792" data-name="Path 18792" d="M1028.866,750.748s-25.36-5.063-32.125-11.817-37.2-18.563-40.577-10.1-45.649,37.133-16.909,42.2,67.63,6.733,76.082,3.367S1028.866,750.748,1028.866,750.748Z" transform="translate(-357.187 -280.136)" fill="#a8a8a8"/>
    <path id="Path_18793" data-name="Path 18793" d="M939.257,779.844c28.746,5.063,67.63,6.733,76.082,3.367,6.441-2.572,10.913-14.921,12.68-20.671l.843.175s-5.072,20.253-13.523,23.627-47.342,1.69-76.082-3.367c-8.3-1.461-10.67-4.9-9.773-9.238C930.185,776.572,933.079,778.753,939.257,779.844Z" transform="translate(-357.19 -292.11)" opacity="0.2"/>
  </g>
</svg>
