<svg xmlns="http://www.w3.org/2000/svg" xmlns:xlink="http://www.w3.org/1999/xlink" width="250" height="100" viewBox="0 0 600 465">
	<defs>
		<linearGradient id="linear-gradient" x1="0.5" y1="1" x2="0.5" gradientUnits="objectBoundingBox">
			<stop offset="0" stop-color="gray" stop-opacity="0.251"/>
			<stop offset="0.54" stop-color="gray" stop-opacity="0.122"/>
			<stop offset="1" stop-color="gray" stop-opacity="0.102"/>
		</linearGradient>
		<linearGradient id="linear-gradient-2" x1="0.5" y1="1" x2="0.5" y2="0" xlink:href="#linear-gradient"/>
	</defs>
	<g id="undraw_report_mx0a" transform="translate(0 0.021)">
		<path id="Path_18826" data-name="Path 18826" d="M189.632,31.991c-19.293-.711-39.447-1.211-56.892,7.069S101.809,67.4,107.659,85.846c1.909,6.013,5.628,11.253,8.764,16.727,15.68,27.375,16.407,62.758,1.87,90.76-11.19,21.556-30.155,37.961-43.809,58.045S53.071,299.3,66.5,319.532c9.2,13.854,26.264,20.6,42.8,22.229s33.164-.939,49.77-1.6A214.153,214.153,0,0,1,253.2,357.983c40.79,17.905,75.929,48.537,118.878,60.357,5.156,1.417,10.546,2.562,15.819,1.6,9.352-1.706,16.152-9.447,23.473-15.56,23.373-19.378,55.731-23,86.07-23.9s61.937-.206,89.361-13.248c23.944-11.387,42.377-32.571,53.839-56.5s16.44-50.521,18.316-77c1.11-15.76,1.071-32.032-4.562-46.786-6.333-16.588-19.177-29.8-32.647-41.346-14.076-12.07-29.417-23.007-46.8-29.52-20.758-7.78-43.293-8.892-65.395-10.737A897.316,897.316,0,0,1,375.032,83.718c-41.978-10.048-88.068-21.023-126.3-41.49C229.545,31.952,211.262,32.769,189.632,31.991Z" transform="translate(-59.52 -31.65)" fill="#9f6e65" opacity="0.1"/>
		<g id="Group_7753" data-name="Group 7753" transform="translate(386.073 253.56)" opacity="0.1">
			<path id="Path_18827" data-name="Path 18827" d="M773.4,598.259s1.965-27.569,17.462-42.6a41.879,41.879,0,0,0,12.355-23.424,70.87,70.87,0,0,0,.833-12.854" transform="translate(-763.241 -501.907)" fill="#9f6e65"/>
			<path id="Path_18828" data-name="Path 18828" d="M837.022,495.88c-1.138,3.045-9.935,9.814-9.935,9.814s-2.22-10.887-1.071-13.932a5.876,5.876,0,1,1,11.006,4.118Z" transform="translate(-786.506 -487.938)" fill="#9f6e65"/>
			<path id="Path_18829" data-name="Path 18829" d="M840.215,530.29c-2.609,1.934-13.665,2.829-13.665,2.829s4.052-10.342,6.66-12.281a5.883,5.883,0,0,1,7,9.447Z" transform="translate(-786.891 -502.08)" fill="#9f6e65"/>
			<path id="Path_18830" data-name="Path 18830" d="M820.477,580.933c-3.23.356-13.227-4.446-13.227-4.446s8.714-6.88,11.939-7.224a5.88,5.88,0,0,1,1.288,11.67Z" transform="translate(-778.303 -524.065)" fill="#9f6e65"/>
			<path id="Path_18831" data-name="Path 18831" d="M796.037,616.607c-3.119.895-13.787-2.162-13.787-2.162s7.426-8.252,10.546-9.147a5.884,5.884,0,1,1,3.241,11.309Z" transform="translate(-767.179 -539.955)" fill="#9f6e65"/>
			<path id="Path_18832" data-name="Path 18832" d="M804.931,530.472c1.388,2.934,10.723,8.93,10.723,8.93s1.288-11.031-.105-13.971a5.879,5.879,0,0,0-10.618,5.04Z" transform="translate(-777.05 -503.168)" fill="#9f6e65"/>
			<path id="Path_18833" data-name="Path 18833" d="M776.547,571.161c2.22,2.384,12.9,5.313,12.9,5.313s-2.07-10.914-4.274-13.3a5.881,5.881,0,1,0-8.631,7.991Z" transform="translate(-763.946 -520.522)" fill="#9f6e65"/>
			<path id="Path_18834" data-name="Path 18834" d="M755.959,616.383c1.765,2.723,11.822,7.419,11.822,7.419s-.2-11.114-1.97-13.832a5.88,5.88,0,0,0-9.852,6.413Z" transform="translate(-755.097 -541.025)" fill="#9f6e65"/>
			<path id="Path_18835" data-name="Path 18835" d="M837.022,495.88c-1.138,3.045-9.935,9.814-9.935,9.814s-2.22-10.887-1.071-13.932a5.876,5.876,0,1,1,11.006,4.118Z" transform="translate(-786.506 -487.938)" fill="#9f6e65"/>
			<path id="Path_18836" data-name="Path 18836" d="M840.215,530.29c-2.609,1.934-13.665,2.829-13.665,2.829s4.052-10.342,6.66-12.281a5.883,5.883,0,0,1,7,9.447Z" transform="translate(-786.891 -502.08)" fill="#9f6e65"/>
			<path id="Path_18837" data-name="Path 18837" d="M820.477,580.933c-3.23.356-13.227-4.446-13.227-4.446s8.714-6.88,11.939-7.224a5.88,5.88,0,0,1,1.288,11.67Z" transform="translate(-778.303 -524.065)" fill="#9f6e65"/>
			<path id="Path_18838" data-name="Path 18838" d="M796.037,616.607c-3.119.895-13.787-2.162-13.787-2.162s7.426-8.252,10.546-9.147a5.884,5.884,0,1,1,3.241,11.309Z" transform="translate(-767.179 -539.955)" fill="#9f6e65"/>
			<path id="Path_18839" data-name="Path 18839" d="M804.931,530.472c1.388,2.934,10.723,8.93,10.723,8.93s1.288-11.031-.105-13.971a5.879,5.879,0,0,0-10.618,5.04Z" transform="translate(-777.05 -503.168)" fill="#9f6e65"/>
			<path id="Path_18840" data-name="Path 18840" d="M776.547,571.161c2.22,2.384,12.9,5.313,12.9,5.313s-2.07-10.914-4.274-13.3a5.881,5.881,0,1,0-8.631,7.991Z" transform="translate(-763.946 -520.522)" fill="#9f6e65"/>
			<path id="Path_18841" data-name="Path 18841" d="M755.959,616.383c1.765,2.723,11.822,7.419,11.822,7.419s-.2-11.114-1.97-13.832a5.88,5.88,0,0,0-9.852,6.413Z" transform="translate(-755.097 -541.025)" fill="#9f6e65"/>
		</g>
		<g id="Group_7754" data-name="Group 7754" transform="translate(391.332 149.206)" opacity="0.1">
			<path id="Path_18842" data-name="Path 18842" d="M783.2,410.479s1.965-27.569,17.462-42.6a41.917,41.917,0,0,0,12.355-23.424,69.923,69.923,0,0,0,.833-12.854" transform="translate(-772.861 -314.127)" fill="#9f6e65"/>
			<path id="Path_18843" data-name="Path 18843" d="M846.824,308.1c-1.11,3.04-9.93,9.808-9.93,9.808s-2.22-10.887-1.077-13.926a5.876,5.876,0,1,1,11.006,4.118Z" transform="translate(-796.128 -300.158)" fill="#9f6e65"/>
			<path id="Path_18844" data-name="Path 18844" d="M850.045,342.353c-2.6,1.939-13.665,2.829-13.665,2.829s4.052-10.336,6.66-12.276a5.882,5.882,0,1,1,7,9.447Z" transform="translate(-796.524 -314.148)" fill="#9f6e65"/>
			<path id="Path_18845" data-name="Path 18845" d="M830.281,393.132c-3.225.356-13.221-4.446-13.221-4.446s8.714-6.874,11.939-7.224a5.884,5.884,0,0,1,1.282,11.7Z" transform="translate(-787.927 -336.263)" fill="#9f6e65"/>
			<path id="Path_18846" data-name="Path 18846" d="M805.837,428.861c-3.119.895-13.787-2.162-13.787-2.162s7.432-8.252,10.546-9.153a5.884,5.884,0,0,1,3.236,11.315Z" transform="translate(-776.798 -352.209)" fill="#9f6e65"/>
			<path id="Path_18847" data-name="Path 18847" d="M814.675,342.561c1.388,2.94,10.729,8.936,10.729,8.936s1.282-11.037-.105-13.971a5.879,5.879,0,1,0-10.625,5.035Z" transform="translate(-786.613 -315.263)" fill="#9f6e65"/>
			<path id="Path_18848" data-name="Path 18848" d="M786.43,383.462c2.22,2.39,12.91,5.313,12.91,5.313s-2.076-10.914-4.279-13.3a5.881,5.881,0,0,0-8.631,7.986Z" transform="translate(-773.648 -332.828)" fill="#9f6e65"/>
			<path id="Path_18849" data-name="Path 18849" d="M765.614,428.38c1.771,2.723,11.822,7.419,11.822,7.419s-.2-11.114-1.97-13.832a5.88,5.88,0,1,0-9.852,6.413Z" transform="translate(-764.572 -353.023)" fill="#9f6e65"/>
			<path id="Path_18850" data-name="Path 18850" d="M846.824,308.1c-1.11,3.04-9.93,9.808-9.93,9.808s-2.22-10.887-1.077-13.926a5.876,5.876,0,1,1,11.006,4.118Z" transform="translate(-796.128 -300.158)" fill="#9f6e65"/>
			<path id="Path_18851" data-name="Path 18851" d="M850.045,342.353c-2.6,1.939-13.665,2.829-13.665,2.829s4.052-10.336,6.66-12.276a5.882,5.882,0,1,1,7,9.447Z" transform="translate(-796.524 -314.148)" fill="#9f6e65"/>
			<path id="Path_18852" data-name="Path 18852" d="M830.281,393.132c-3.225.356-13.221-4.446-13.221-4.446s8.714-6.874,11.939-7.224a5.884,5.884,0,0,1,1.282,11.7Z" transform="translate(-787.927 -336.263)" fill="#9f6e65"/>
			<path id="Path_18853" data-name="Path 18853" d="M805.837,428.861c-3.119.895-13.787-2.162-13.787-2.162s7.432-8.252,10.546-9.153a5.884,5.884,0,0,1,3.236,11.315Z" transform="translate(-776.798 -352.209)" fill="#9f6e65"/>
			<path id="Path_18854" data-name="Path 18854" d="M814.675,342.561c1.388,2.94,10.729,8.936,10.729,8.936s1.282-11.037-.105-13.971a5.879,5.879,0,1,0-10.625,5.035Z" transform="translate(-786.613 -315.263)" fill="#9f6e65"/>
			<path id="Path_18855" data-name="Path 18855" d="M786.43,383.462c2.22,2.39,12.91,5.313,12.91,5.313s-2.076-10.914-4.279-13.3a5.881,5.881,0,0,0-8.631,7.986Z" transform="translate(-773.648 -332.828)" fill="#9f6e65"/>
			<path id="Path_18856" data-name="Path 18856" d="M765.614,428.38c1.771,2.723,11.822,7.419,11.822,7.419s-.2-11.114-1.97-13.832a5.88,5.88,0,1,0-9.852,6.413Z" transform="translate(-764.572 -353.023)" fill="#9f6e65"/>
		</g>
		<g id="Group_7755" data-name="Group 7755" transform="translate(36.412 204.073)" opacity="0.1">
			<path id="Path_18857" data-name="Path 18857" d="M207.333,488.288s-23.706-14.149-30.161-34.755a41.822,41.822,0,0,0-15.341-21.579,69.966,69.966,0,0,0-11.1-6.524" transform="translate(-136.517 -410.68)" fill="#9f6e65"/>
			<path id="Path_18858" data-name="Path 18858" d="M135.2,400.657c2.22,2.384,4.29,13.3,4.29,13.3s-10.707-2.918-12.91-5.3a5.881,5.881,0,0,1,8.62-8Z" transform="translate(-125.123 -398.889)" fill="#9f6e65"/>
			<path id="Path_18859" data-name="Path 18859" d="M168.757,409.986c.555,3.2-3.619,13.493-3.619,13.493s-7.4-8.275-7.959-11.476a5.878,5.878,0,1,1,11.578-2.017Z" transform="translate(-139.336 -401.589)" fill="#9f6e65"/>
			<path id="Path_18860" data-name="Path 18860" d="M206.082,448.609c-1.11,3.045-9.93,9.82-9.93,9.82s-2.22-10.887-1.082-13.926a5.879,5.879,0,1,1,11.012,4.107Z" transform="translate(-156.102 -417.383)" fill="#9f6e65"/>
			<path id="Path_18861" data-name="Path 18861" d="M226.875,486.956c-.6,3.2-8.126,11.387-8.126,11.387s-4.024-10.353-3.419-13.543a5.875,5.875,0,1,1,11.545,2.184Z" transform="translate(-165.234 -434.929)" fill="#9f6e65"/>
			<path id="Path_18862" data-name="Path 18862" d="M151.469,444.767c3.241.078,12.794-5.557,12.794-5.557s-9.269-6.113-12.516-6.191a5.885,5.885,0,0,0-.278,11.766Z" transform="translate(-134.292 -414.051)" fill="#9f6e65"/>
			<path id="Path_18863" data-name="Path 18863" d="M175.3,488.456c3.119-.9,10.546-9.158,10.546-9.158s-10.668-3.051-13.787-2.151a5.885,5.885,0,0,0,3.247,11.309Z" transform="translate(-144.171 -433.583)" fill="#9f6e65"/>
			<path id="Path_18864" data-name="Path 18864" d="M205.938,527.174c3.23-.356,11.939-7.224,11.939-7.224s-9.991-4.813-13.227-4.446a5.879,5.879,0,1,0,1.288,11.67Z" transform="translate(-158.039 -450.689)" fill="#9f6e65"/>
			<path id="Path_18865" data-name="Path 18865" d="M135.2,400.657c2.22,2.384,4.29,13.3,4.29,13.3s-10.707-2.918-12.91-5.3a5.881,5.881,0,0,1,8.62-8Z" transform="translate(-125.123 -398.889)" fill="#9f6e65"/>
			<path id="Path_18866" data-name="Path 18866" d="M168.757,409.986c.555,3.2-3.619,13.493-3.619,13.493s-7.4-8.275-7.959-11.476a5.878,5.878,0,1,1,11.578-2.017Z" transform="translate(-139.336 -401.589)" fill="#9f6e65"/>
			<path id="Path_18867" data-name="Path 18867" d="M206.082,448.609c-1.11,3.045-9.93,9.82-9.93,9.82s-2.22-10.887-1.082-13.926a5.879,5.879,0,1,1,11.012,4.107Z" transform="translate(-156.102 -417.383)" fill="#9f6e65"/>
			<path id="Path_18868" data-name="Path 18868" d="M226.875,486.956c-.6,3.2-8.126,11.387-8.126,11.387s-4.024-10.353-3.419-13.543a5.875,5.875,0,1,1,11.545,2.184Z" transform="translate(-165.234 -434.929)" fill="#9f6e65"/>
			<path id="Path_18869" data-name="Path 18869" d="M151.469,444.767c3.241.078,12.794-5.557,12.794-5.557s-9.269-6.113-12.516-6.191a5.885,5.885,0,0,0-.278,11.766Z" transform="translate(-134.292 -414.051)" fill="#9f6e65"/>
			<path id="Path_18870" data-name="Path 18870" d="M175.3,488.456c3.119-.9,10.546-9.158,10.546-9.158s-10.668-3.051-13.787-2.151a5.885,5.885,0,0,0,3.247,11.309Z" transform="translate(-144.171 -433.583)" fill="#9f6e65"/>
			<path id="Path_18871" data-name="Path 18871" d="M205.938,527.174c3.23-.356,11.939-7.224,11.939-7.224s-9.991-4.813-13.227-4.446a5.879,5.879,0,1,0,1.288,11.67Z" transform="translate(-158.039 -450.689)" fill="#9f6e65"/>
		</g>
		<path id="Path_18872" data-name="Path 18872" d="M776.25,820.991c15.935,6.941,35.378,2.717,53.461,3.206,2.47.067,5.1.272,7.077,1.473s2.964,3.14,4.324,4.807c5.068,6.191,15.452,8.18,24.527,7.13s17.395-4.529,25.959-7.174c14.8-4.579,31.72-6.669,46.324-1.667a9.556,9.556,0,0,0,4.185.8c3.2-.406,4.157-3.729,6.394-5.624,4.041-3.429,12.821-2.5,14.6-7.013,1.038-2.645-1.354-5.357-3.963-7.163-9.991-6.913-24.255-8.052-37.315-6.985s-25.9,4.007-39.025,4.018c-16.357,0-32.159-4.513-48.355-6.363-11.217-1.278-23.461-1.111-33.979,2.651C789.06,807.154,786.552,816.318,776.25,820.991Z" transform="translate(-378.437 -372.895)" fill="#9f6e65" opacity="0.1"/>
		<path id="Path_18873" data-name="Path 18873" d="M232.93,780.472c27.2,7.841,60.388,3.068,91.248,3.623,4.224.078,8.7.306,12.089,1.667s5.056,3.557,7.382,5.435c8.648,7,26.37,9.247,41.856,8.058s29.695-5.118,44.314-8.108c25.265-5.174,54.15-7.53,79.071-1.89a23.6,23.6,0,0,0,7.149.906c5.462-.461,7.088-4.212,10.912-6.357,6.9-3.89,21.88-2.818,24.91-7.919,1.776-2.99-2.309-6.057-6.76-8.1-17.029-7.808-41.395-9.1-63.691-7.891s-44.209,4.524-66.6,4.54c-27.918,0-54.893-5.1-82.54-7.191-19.149-1.445-40.046-1.267-58,3C254.8,764.856,250.508,775.209,232.93,780.472Z" transform="translate(-136.68 -353.665)" fill="#9f6e65" opacity="0.1"/>
		<path id="Path_18874" data-name="Path 18874" d="M101.77,822.777c7.771,4.679,17.206,1.834,26.009,2.162a5.524,5.524,0,0,1,3.447.989,11.713,11.713,0,0,1,2.1,3.245c2.464,4.173,7.515,5.518,11.928,4.807s8.464-3.051,12.633-4.84c7.216-3.084,15.436-4.49,22.535-1.112a3.537,3.537,0,0,0,2.043.556c1.554-.278,2.02-2.517,3.108-3.8,1.965-2.312,6.239-1.667,7.1-4.729.505-1.784-.66-3.612-1.926-4.829-4.851-4.662-11.8-5.429-18.155-4.712s-12.6,2.662-18.988,2.662c-7.954,0-15.641-3.04-23.523-4.29-5.462-.867-11.417-.756-16.535,1.789C108,813.458,106.782,819.637,101.77,822.777Z" transform="translate(-78.319 -376.753)" fill="#9f6e65" opacity="0.1"/>
		<path id="Path_18875" data-name="Path 18875" d="M529.3,67.32H271.416A23.631,23.631,0,0,0,247.76,90.933V448.667a23.631,23.631,0,0,0,23.656,23.6H529.3a23.631,23.631,0,0,0,23.656-23.613V90.933A23.631,23.631,0,0,0,529.3,67.32Z" transform="translate(-143.279 -47.507)" fill="url(#linear-gradient)"/>
		<rect id="Rectangle_3859" data-name="Rectangle 3859" width="297.901" height="396.474" rx="20" transform="translate(108.116 24.665)" fill="#535461"/>
		<rect id="Rectangle_3860" data-name="Rectangle 3860" width="267.629" height="321.468" transform="translate(123.252 62.165)" fill="#f6f7f9"/>
		<ellipse id="Ellipse_1923" data-name="Ellipse 1923" cx="3.636" cy="3.64" rx="3.636" ry="3.64" transform="translate(252.221 39.208)" fill="#f6f7f9"/>
		<ellipse id="Ellipse_1924" data-name="Ellipse 1924" cx="10.901" cy="10.914" rx="10.901" ry="10.914" transform="translate(244.956 390.824)" fill="#f6f7f9"/>
		<g id="Group_7756" data-name="Group 7756" transform="translate(123.252 62.165)" opacity="0.2">
			<rect id="Rectangle_3861" data-name="Rectangle 3861" width="267.629" height="16.021" fill="#9f6e65"/>
		</g>
		<ellipse id="Ellipse_1925" data-name="Ellipse 1925" cx="3.413" cy="3.418" rx="3.413" ry="3.418" transform="translate(128.209 66.761)" fill="#f6f7f9"/>
		<ellipse id="Ellipse_1926" data-name="Ellipse 1926" cx="3.413" cy="3.418" rx="3.413" ry="3.418" transform="translate(136.906 66.761)" fill="#f6f7f9"/>
		<ellipse id="Ellipse_1927" data-name="Ellipse 1927" cx="3.413" cy="3.418" rx="3.413" ry="3.418" transform="translate(145.598 66.761)" fill="#f6f7f9"/>
		<rect id="Rectangle_3862" data-name="Rectangle 3862" width="249.218" height="0.834" transform="translate(131.245 156.665)" fill="#dce0ed"/>
		<rect id="Rectangle_3863" data-name="Rectangle 3863" width="249.218" height="0.834" transform="translate(131.245 176.021)" fill="#dce0ed"/>
		<rect id="Rectangle_3864" data-name="Rectangle 3864" width="249.218" height="0.834" transform="translate(131.245 195.383)" fill="#dce0ed"/>
		<rect id="Rectangle_3865" data-name="Rectangle 3865" width="249.218" height="0.834" transform="translate(131.245 214.738)" fill="#dce0ed"/>
		<rect id="Rectangle_3866" data-name="Rectangle 3866" width="249.218" height="0.834" transform="translate(131.245 234.094)" fill="#dce0ed"/>
		<g id="Group_7757" data-name="Group 7757" transform="translate(130.939 168.474)" opacity="0.2">
			<path id="Path_18876" data-name="Path 18876" d="M485.433,369.633H235.91V331.566l22.884,11.292,23.684,3.218,20.781-6.274,25.071-19.467,12.611-7.291,9.219-1.778,8.82.472,14.5,7.174L393.2,331.488l15.474,1.99,12.266-4.235,26.009-21.323,13.277-4.74,13.893,2.151,11.312,6.541Z" transform="translate(-235.91 -303.18)" fill="#9f6e65"/>
		</g>
		<path id="Path_18877" data-name="Path 18877" d="M338.918,377.6c-22.474,0-43.238-13.76-43.5-13.937l.622-.923c.322.217,32.281,21.384,59.439,10.781,9.9-3.89,16.951-9.881,23.772-15.7,7.121-6.074,13.843-11.809,23.012-14.3A34.388,34.388,0,0,1,433,350.438c7.465,6.141,22.329,16,38.031,13.054,8-1.506,14.747-7.358,21.891-13.554,13.693-11.881,27.857-24.168,52.357-6.541l-.649.9c-23.789-17.116-37.609-5.118-50.98,6.48-7.26,6.3-14.115,12.226-22.413,13.8-16.152,3.034-31.326-7.024-38.942-13.287a33.309,33.309,0,0,0-29.739-6.7c-8.925,2.423-15.541,8.08-22.585,14.071-6.888,5.88-14.009,11.954-24.083,15.888A46.418,46.418,0,0,1,338.918,377.6Z" transform="translate(-164.486 -166.243)" fill="#9f6e65"/>
		<ellipse id="Ellipse_1928" data-name="Ellipse 1928" cx="6.178" cy="6.185" rx="6.178" ry="6.185" transform="translate(244.989 170.319)" fill="#9f6e65"/>
		<g id="Group_7758" data-name="Group 7758" transform="translate(252.554 94.658)" opacity="0.2">
			<path id="Path_18878" data-name="Path 18878" d="M593.733,202H515.805a1.266,1.266,0,0,0-1.266,1.267v52.766a1.265,1.265,0,0,0,2.187.867l13.5-14.421a1.259,1.259,0,0,1,.921-.4h62.581A1.266,1.266,0,0,0,595,240.811V203.256A1.266,1.266,0,0,0,593.733,202Z" transform="translate(-514.54 -202)" fill="#9f6e65"/>
		</g>
		<rect id="Rectangle_3867" data-name="Rectangle 3867" width="44.375" height="5.557" transform="translate(270.593 104.428)" fill="#f6f7f9"/>
		<rect id="Rectangle_3868" data-name="Rectangle 3868" width="12.183" height="5.557" transform="translate(270.593 116.742)" fill="#f6f7f9"/>
		<g id="Group_7759" data-name="Group 7759" transform="translate(152.292 274.695)" opacity="0.2">
			<rect id="Rectangle_3869" data-name="Rectangle 3869" width="12.183" height="5.557" fill="#9f6e65"/>
		</g>
		<g id="Group_7760" data-name="Group 7760" transform="translate(152.292 285.437)" opacity="0.2">
			<rect id="Rectangle_3870" data-name="Rectangle 3870" width="12.183" height="5.557" fill="#9f6e65"/>
		</g>
		<g id="Group_7761" data-name="Group 7761" transform="translate(152.292 296.179)" opacity="0.2">
			<rect id="Rectangle_3871" data-name="Rectangle 3871" width="12.183" height="5.557" fill="#9f6e65"/>
		</g>
		<g id="Group_7762" data-name="Group 7762" transform="translate(152.292 306.927)" opacity="0.2">
			<rect id="Rectangle_3872" data-name="Rectangle 3872" width="12.183" height="5.557" fill="#9f6e65"/>
		</g>
		<g id="Group_7763" data-name="Group 7763" transform="translate(152.292 317.669)" opacity="0.2">
			<rect id="Rectangle_3873" data-name="Rectangle 3873" width="12.183" height="5.557" fill="#9f6e65"/>
		</g>
		<g id="Group_7764" data-name="Group 7764" transform="translate(152.292 328.411)" opacity="0.2">
			<rect id="Rectangle_3874" data-name="Rectangle 3874" width="12.183" height="5.557" fill="#9f6e65"/>
		</g>
		<g id="Group_7765" data-name="Group 7765" transform="translate(152.292 339.159)" opacity="0.2">
			<rect id="Rectangle_3875" data-name="Rectangle 3875" width="12.183" height="5.557" fill="#9f6e65"/>
		</g>
		<g id="Group_7766" data-name="Group 7766" transform="translate(152.292 349.901)" opacity="0.2">
			<rect id="Rectangle_3876" data-name="Rectangle 3876" width="12.183" height="5.557" fill="#9f6e65"/>
		</g>
		<g id="Group_7767" data-name="Group 7767" transform="translate(175.232 355.458)" opacity="0.2">
			<rect id="Rectangle_3877" data-name="Rectangle 3877" width="12.183" height="5.557" fill="#9f6e65"/>
		</g>
		<g id="Group_7768" data-name="Group 7768" transform="translate(196.695 355.458)" opacity="0.2">
			<rect id="Rectangle_3878" data-name="Rectangle 3878" width="12.183" height="5.557" fill="#9f6e65"/>
		</g>
		<g id="Group_7769" data-name="Group 7769" transform="translate(218.158 355.458)" opacity="0.2">
			<rect id="Rectangle_3879" data-name="Rectangle 3879" width="12.183" height="5.557" fill="#9f6e65"/>
		</g>
		<g id="Group_7770" data-name="Group 7770" transform="translate(239.616 355.458)" opacity="0.2">
			<rect id="Rectangle_3880" data-name="Rectangle 3880" width="12.183" height="5.557" fill="#9f6e65"/>
		</g>
		<g id="Group_7771" data-name="Group 7771" transform="translate(261.08 355.458)" opacity="0.2">
			<rect id="Rectangle_3881" data-name="Rectangle 3881" width="12.183" height="5.557" fill="#9f6e65"/>
		</g>
		<g id="Group_7772" data-name="Group 7772" transform="translate(282.543 355.458)" opacity="0.2">
			<rect id="Rectangle_3882" data-name="Rectangle 3882" width="12.183" height="5.557" fill="#9f6e65"/>
		</g>
		<g id="Group_7773" data-name="Group 7773" transform="translate(304.001 355.458)" opacity="0.2">
			<rect id="Rectangle_3883" data-name="Rectangle 3883" width="12.183" height="5.557" fill="#9f6e65"/>
		</g>
		<g id="Group_7774" data-name="Group 7774" transform="translate(325.464 355.458)" opacity="0.2">
			<rect id="Rectangle_3884" data-name="Rectangle 3884" width="12.183" height="5.557" fill="#9f6e65"/>
		</g>
		<g id="Group_7775" data-name="Group 7775" transform="translate(346.927 355.458)" opacity="0.2">
			<rect id="Rectangle_3885" data-name="Rectangle 3885" width="12.183" height="5.557" fill="#9f6e65"/>
		</g>
		<rect id="Rectangle_3886" data-name="Rectangle 3886" width="18.499" height="5.557" transform="translate(296.469 116.742)" fill="#f6f7f9"/>
		<rect id="Rectangle_3887" data-name="Rectangle 3887" width="12.183" height="34.827" transform="translate(175.232 315.074)" fill="#9f6e65"/>
		<rect id="Rectangle_3888" data-name="Rectangle 3888" width="12.183" height="50.943" transform="translate(196.695 298.958)" fill="#9f6e65"/>
		<rect id="Rectangle_3889" data-name="Rectangle 3889" width="12.183" height="64.464" transform="translate(218.158 285.437)" fill="#9f6e65"/>
		<rect id="Rectangle_3890" data-name="Rectangle 3890" width="12.183" height="57.45" transform="translate(239.616 292.445)" fill="#9f6e65"/>
		<rect id="Rectangle_3891" data-name="Rectangle 3891" width="12.183" height="69.649" transform="translate(261.08 280.252)" fill="#9f6e65"/>
		<g id="Group_7776" data-name="Group 7776" transform="translate(282.543 306.927)" opacity="0.2">
			<rect id="Rectangle_3892" data-name="Rectangle 3892" width="12.183" height="42.974" fill="#9f6e65"/>
		</g>
		<g id="Group_7777" data-name="Group 7777" transform="translate(304.001 306.927)" opacity="0.2">
			<rect id="Rectangle_3893" data-name="Rectangle 3893" width="12.183" height="42.974" fill="#9f6e65"/>
		</g>
		<g id="Group_7778" data-name="Group 7778" transform="translate(325.464 306.927)" opacity="0.2">
			<rect id="Rectangle_3894" data-name="Rectangle 3894" width="12.183" height="42.974" fill="#9f6e65"/>
		</g>
		<g id="Group_7779" data-name="Group 7779" transform="translate(346.927 306.927)" opacity="0.2">
			<rect id="Rectangle_3895" data-name="Rectangle 3895" width="12.183" height="42.974" fill="#9f6e65"/>
		</g>
		<path id="Path_18879" data-name="Path 18879" d="M953.307,248.047c-13.193-7.6-18.178-9.481-18.205-9.492l-.266-.195a11.034,11.034,0,0,1-3.33-4.207c0-.306,0-.606,0-.906v.089c.211-4.023,3.069-7.686,5.784-10.881l6.932-8.169a7.93,7.93,0,0,0,1.787-2.834,6.335,6.335,0,0,0,.189-1.739V209c-.033-2.028-.094-4.062-.167-6.113-.067-1.773-.522-4.007-2.292-4.374-.921-.189-2.137.144-2.625-.65a1.513,1.513,0,0,1-.117-1.05.464.464,0,0,0,0,.083v-.1a23.57,23.57,0,0,0,.66-4.173,5.806,5.806,0,0,0-.289-2.112c-1.027-2.945-4.557-4.151-7.682-4.707s-6.622-1.034-8.581-3.479a25.612,25.612,0,0,0-1.7-2.351,6.763,6.763,0,0,0-3.192-1.578A18.013,18.013,0,0,0,908.6,179.41c-1.51.672-3.025,1.584-4.679,1.484s-3.192-1.295-4.89-1.584c-2.742-.467-5.367,1.55-6.716,3.935a9.618,9.618,0,0,0-1.243,4.646c0,.089,0,.183,0,.272h0a6.779,6.779,0,0,0,1.782,4.74c1.182,1.228,2.947,2.073,3.436,3.69.2.656.15,1.367.328,2.034a.783.783,0,0,0,.078.244l-.089.117a20.606,20.606,0,0,0-4.351,12.715,21.059,21.059,0,0,0,14.781,19.973v.622a8.948,8.948,0,0,1-2.87,6.991l-18.683,7.524s-11.262-1.339-15.325,15.143a27.887,27.887,0,0,0-.7,8.364c.15,2.484-.194,6.863-3.081,12.526-4.623,9.058-3.569,29.853,5.878,31.915,8.919,1.945,12.411,1.111,12.766,1.039v.361c-.144,3.89-1.56,37.561-6.7,41.635-1.421,1.111-1.155,1.889,0,2.4,0,0,0,.217-.033.606-.155,2.462-.949,11.837-4.39,17.172-3.991,6.174-3.574,41.8-3.574,41.8L867.637,440.8s1.665,12.971,0,15.238c-1.5,2.017-3.5,50.015-3.885,60.412h-.178a5.044,5.044,0,0,0-4.035,2.462c-2.22,3.59-9.935,10.22-9.935,10.22-1.665,2.384-7.876,4.663-11.156,5.741a6.757,6.757,0,0,0-1.266.556,6.664,6.664,0,0,0-2.814,2.968,3.215,3.215,0,0,0-.305,2.478c.844,2.056,18.272,3.5,22.679,1.439,3.469-1.623,17.206-3.751,22.906-4.585a4.715,4.715,0,0,0,4.08-4.079,2.7,2.7,0,0,0-.555-2.045h0c-1.11-1.356-1.665-5.052-1.9-7.463a4.923,4.923,0,0,0,1.282-.761A54.817,54.817,0,0,1,885.7,501.35c4.2-11.114,5.462-31.715,4.44-45.1,0,0,12.81-55.183,22.89-60.335h0c.156.195,5.045,6.485,5.667,25.941.633,19.767,7.771,32.738,7.771,32.738s-3.153,33.566,0,46.125l-4.124,19.817c-.3-.261-.494-.461-.494-.461s.122.556.294,1.434l-.089.417.178.044c.466,2.479,1.16,6.8.877,9.331-.167,1.439-.555,3.418-.844,5.357-.433,3.051-.555,6.007,1.049,6.669,2.625,1.056,18.061,2.5,20.686-.895a4.883,4.883,0,0,0,.766-5.09,5.2,5.2,0,0,0-.766-1.295s-4.1-6.707-2.942-11.437a3.46,3.46,0,0,0-.488-2.717,138.461,138.461,0,0,1,3.536-22.19c2.625-9.909,8.17-31.632,4.091-45.919h0c-.156-.556-.333-1.111-.522-1.667a61.633,61.633,0,0,1-2.309-24.091,49.127,49.127,0,0,1,0-21.006c2.52-11.531,4.279-22.857,4.279-22.857s1.393-15.232.178-24.574l-.083-.6.666-.15s-3.569-15.855-4.829-25.941c-.3-2.384-.688-5.4-1.11-8.625a20.855,20.855,0,0,0,3.425-.85c11.3-3.929,14.853-39.34,14.853-39.34V272.86S966.539,255.666,953.307,248.047ZM868.83,521.5c-.35-.178-.555-.295-.555-.295h0Z" transform="translate(-404.106 -96.622)" fill="url(#linear-gradient-2)"/>
		<path id="Path_18880" data-name="Path 18880" d="M970.963,591.454c4.918,14.16-.821,37.139-3.486,47.4a143.658,143.658,0,0,0-3.486,22.579,47.382,47.382,0,0,1-18.033-.417l4.3-21.117c-3.075-12.515,0-45.964,0-45.964s-6.966-12.926-7.582-32.626c-.6-19.395-5.378-25.658-5.55-25.852h0c-9.835,5.129-22.34,60.129-22.34,60.129,1.027,13.337-.205,33.855-4.3,44.936a55.75,55.75,0,0,0-3.075,21.957c-1.432,1.211-3.425,1.417-5.578,1.073C896,662.575,889,657.529,889,657.529s2.22-59.912,3.885-62.174,0-15.188,0-15.188l2.659-20.928s-.405-35.505,3.486-41.679c3.364-5.318,4.135-14.66,4.285-17.111a4.431,4.431,0,0,1,.033-.606l5.928-7.113s57.391-4.307,61.693,0c1.06,1.061,1.709,3.462,2.1,6.491,1.182,9.308-.172,24.491-.172,24.491S971.173,535,968.715,546.5a49.846,49.846,0,0,0,0,20.928,62.61,62.61,0,0,0,2.248,24.029Z" transform="translate(-428.606 -235.657)" fill="#65617d"/>
		<path id="Path_18881" data-name="Path 18881" d="M1012.874,813.546c-2.564,3.384-17.628,1.945-20.192.895-1.565-.65-1.443-3.6-1.021-6.635.266-1.934.661-3.89.821-5.34.411-3.7-1.232-11.187-1.232-11.187s3.386,3.59,4.2,0a3.915,3.915,0,0,1,2.925-2.779,7.678,7.678,0,0,1,5.323.333c2.659,1.156,7.1,3.623,6.305,6.958-1.11,4.713,2.87,11.4,2.87,11.4a5.205,5.205,0,0,1,.744,1.289A4.94,4.94,0,0,1,1012.874,813.546Z" transform="translate(-474.103 -367.767)" fill="#a27772"/>
		<path id="Path_18882" data-name="Path 18882" d="M1012.983,829.241c-2.564,3.384-17.628,1.945-20.192.895-1.565-.65-1.443-3.6-1.021-6.635,1.615.756,4.368,1.389,8.953.961a26.007,26.007,0,0,1,3.225-.1,74.313,74.313,0,0,0,9.78-.195,4.939,4.939,0,0,1-.744,5.074Z" transform="translate(-474.212 -383.461)" opacity="0.1"/>
		<path id="Path_18883" data-name="Path 18883" d="M925.1,628.075c1.027,13.337-.205,33.855-4.3,44.936a55.751,55.751,0,0,0-3.075,21.957c-1.432,1.211-3.425,1.417-5.578,1.073,1.238-8.669,6.505-45.947,9.907-75.406,3.819-33.549,21.8-56.634,21.8-56.634l3.586,3.951C937.6,573.075,925.1,628.075,925.1,628.075Z" transform="translate(-438.907 -268.171)" opacity="0.1"/>
		<path id="Path_18884" data-name="Path 18884" d="M985.65,271.5l-2.5,12.309-12.255,20.623-15.114-6.463s-20.536-21.545-7.632-24.624a11.31,11.31,0,0,0,4.285-1.912,8.82,8.82,0,0,0,3.33-7.419,23.223,23.223,0,0,0-2.1-8.83L980.1,246.85a42.324,42.324,0,0,0-1.9,10.725c-.2,7.224,2.475,10.759,4.668,12.454a8.012,8.012,0,0,0,2.781,1.473Z" transform="translate(-453.028 -127.268)" fill="#fbbebe"/>
		<path id="Path_18885" data-name="Path 18885" d="M987.966,246.9a42.33,42.33,0,0,0-1.9,10.725,19.387,19.387,0,0,1-1.537,1.634,20.889,20.889,0,0,1-20.9,4.779,23.223,23.223,0,0,0-2.1-8.83Z" transform="translate(-460.879 -127.29)" opacity="0.1"/>
		<path id="Path_18886" data-name="Path 18886" d="M981.105,224.074a20.827,20.827,0,1,1-6.086-14.821A20.916,20.916,0,0,1,981.105,224.074Z" transform="translate(-450.987 -107.848)" fill="#fbbebe"/>
		<path id="Path_18887" data-name="Path 18887" d="M985.65,290.055l-2.5,12.309-12.255,20.623-15.114-6.463s-20.536-21.545-7.632-24.624a11.311,11.311,0,0,0,4.285-1.912c-2.331,6.419,7.293,19.767,7.293,19.767,1.11,1.667,3.691.611,3.691.611,6.194-.934,17.611-18.789,19.471-21.757A8.01,8.01,0,0,0,985.65,290.055Z" transform="translate(-453.028 -145.821)" opacity="0.1"/>
		<path id="Path_18888" data-name="Path 18888" d="M984.532,499.281c-3.636.828-23.772,5.3-31.41,4.179-8.4-1.234-24.738-2.051-24.738-2.051s-10.4.556-13.6-.9a4.424,4.424,0,0,1,.033-.606l5.928-7.113s57.391-4.307,61.693,0C983.494,493.84,984.143,496.241,984.532,499.281Z" transform="translate(-440.077 -235.683)" opacity="0.1"/>
		<path id="Path_18889" data-name="Path 18889" d="M935.318,310.54s-10.812-15-6.738-20.834l-18.266,7.5s-11-1.334-14.986,15.093a28.45,28.45,0,0,0-.683,8.336c.144,2.479-.189,6.841-3.008,12.482-4.513,9.03-3.486,29.753,5.739,31.81s12.5,1.023,12.5,1.023-1.227,37.556-6.555,41.862,13.582,3.284,13.582,3.284,16.34.822,24.744,2.051,31.97-4.307,31.97-4.307-3.486-15.8-4.712-25.858-4.1-31.465-4.1-31.465l20.908-28.342s3.685-17.133-9.225-24.724S958.724,289,958.724,289s-12.955,21.117-19.715,22.157C939.009,311.157,936.439,312.19,935.318,310.54Z" transform="translate(-428.622 -145.994)" fill="#7c7cdd"/>
		<path id="Path_18890" data-name="Path 18890" d="M926.426,338.47s-.205,6.774,1.021,9.447,5.739,17.444,5.739,17.444H922.94s5.55-5.952,5.123-8.825S926.426,338.47,926.426,338.47Z" transform="translate(-443.708 -167.973)" opacity="0.1"/>
		<path id="Path_18891" data-name="Path 18891" d="M957.675,407.424s-22.635-5.557-24.744-10.264S925,381.883,925,381.883l2.387-3.223,11.012,8.653s13.116,10.464,19.265,11.492S957.675,407.424,957.675,407.424Z" transform="translate(-444.624 -185.828)" fill="#fbbebe"/>
		<path id="Path_18892" data-name="Path 18892" d="M957.675,407.424s-22.635-5.557-24.744-10.264S925,381.883,925,381.883l2.387-3.223,11.012,8.653s13.116,10.464,19.265,11.492S957.675,407.424,957.675,407.424Z" transform="translate(-444.624 -185.828)" opacity="0.05"/>
		<path id="Path_18893" data-name="Path 18893" d="M986.35,382.336v12.293h-1.976a57.4,57.4,0,0,0-27.859,7.219l-3.706,2.062-.994.556-6.355-14.327L951.4,384.8h.305c1.454.139,7.743.667,10.407-.233,2.531-.861,5.672-3.59,13.127-1.667,3.674.939,6.81,5.063,10.374,3.773Z" transform="translate(-453.728 -187.415)" fill="#fbbebe"/>
		<path id="Path_18894" data-name="Path 18894" d="M1018.983,331.007l4.1,4.612v11.187S1019.6,382.1,1008.532,386s-30.821-2.262-30.821-2.262-5.106-13.543-2.72-14.36,21.091-5.768,21.091-5.768-.261-20.706,3.835-26.864c0,0-2.664-19.284,6.561-19.695S1018.983,331.007,1018.983,331.007Z" transform="translate(-466.586 -158.454)" opacity="0.1"/>
		<path id="Path_18895" data-name="Path 18895" d="M1020.075,331.007l4.1,4.612v11.187S1020.7,382.1,1009.6,386s-30.827-2.262-30.827-2.262-5.1-13.543-2.714-14.36,21.091-5.768,21.091-5.768-.266-20.706,3.835-26.864c0,0-2.664-19.284,6.561-19.695S1020.075,331.007,1020.075,331.007Z" transform="translate(-467.061 -158.454)" fill="#7c7cdd"/>
		<path id="Path_18896" data-name="Path 18896" d="M978.8,232.969a8.158,8.158,0,0,0-.466-4,3.09,3.09,0,0,0-3.253-1.878c-1.754.411-2.509,2.7-4.229,3.245a3.328,3.328,0,0,1-3.719-1.923,9.851,9.851,0,0,1-.716-4.446v-5.14c0-1.867-.061-3.89-1.21-5.346-1.426-1.828-4.784-2.623-7.027-2.551a5.946,5.946,0,0,0-4.013,1.623,5.174,5.174,0,0,1-4.224,1.5A3.648,3.648,0,0,1,947,211.512v-.067a20.913,20.913,0,1,1,31.082,27.786,56,56,0,0,0,.716-6.263Z" transform="translate(-454.414 -107.852)" opacity="0.1"/>
		<path id="Path_18897" data-name="Path 18897" d="M945.6,203.206a3.653,3.653,0,0,1-2.942-2.551c-.172-.661-.128-1.367-.322-2.028-.477-1.612-2.22-2.451-3.33-3.673-2.309-2.456-2.159-6.491-.522-9.447,1.321-2.378,3.885-4.385,6.555-3.923,1.665.289,3.092,1.473,4.773,1.578s3.092-.806,4.568-1.478a17.187,17.187,0,0,1,11.328-1.006,6.585,6.585,0,0,1,3.119,1.573,27.822,27.822,0,0,1,1.665,2.34c1.915,2.44,5.334,2.918,8.381,3.468s6.488,1.756,7.493,4.69c.661,1.945,0,4.057-.361,6.08a1.758,1.758,0,0,0,.078,1.25c.477.789,1.665.461,2.564.65,1.732.361,2.176,2.59,2.22,4.357q.111,3.034.167,6.068a5.967,5.967,0,0,1-1.926,5.074l-6.766,8.141c-3,3.612-6.189,7.819-5.584,12.476-1.421.639-3.108-.595-3.574-2.084a9.347,9.347,0,0,1,.222-4.618,56.609,56.609,0,0,0,1.071-8.014,8.149,8.149,0,0,0-.466-4,3.06,3.06,0,0,0-3.253-1.884c-1.754.411-2.509,2.7-4.229,3.245a3.332,3.332,0,0,1-3.719-1.923,9.852,9.852,0,0,1-.716-4.446V207.98c0-1.862-.061-3.89-1.21-5.346-1.426-1.828-4.784-2.623-7.027-2.551a5.957,5.957,0,0,0-4.013,1.623A5.264,5.264,0,0,1,945.6,203.206Z" transform="translate(-450.079 -97.634)" fill="#7c5c5c"/>
		<path id="Path_18898" data-name="Path 18898" d="M960.79,337.55l6.416,26.4S972.268,363.919,960.79,337.55Z" transform="translate(-460.55 -167.564)" opacity="0.1"/>
		<path id="Path_18899" data-name="Path 18899" d="M995.584,329.61s-8.4,13.782-5.123,28.025l1.565.117S989.229,351.155,995.584,329.61Z" transform="translate(-473.414 -164.036)" opacity="0.1"/>
		<path id="Path_18900" data-name="Path 18900" d="M1009.9,469.344s10.318-3.418,11.067,4.512C1020.967,473.857,1019.019,468.422,1009.9,469.344Z" transform="translate(-482.402 -225.792)" opacity="0.1"/>
		<path id="Path_18901" data-name="Path 18901" d="M942.042,388s-2.048,14.365,1.665,20.112a44.948,44.948,0,0,1-18.039,2.462L924.42,388Z" transform="translate(-444.366 -189.978)" opacity="0.1"/>
		<path id="Path_18902" data-name="Path 18902" d="M952.809,405.956l-.994.556-6.355-14.327,5.944-5.335h.305C951.615,387.539,949.961,399.876,952.809,405.956Z" transform="translate(-453.728 -189.467)" opacity="0.1"/>
		<path id="Path_18903" data-name="Path 18903" d="M937.295,386.85s-2.048,14.36,1.665,20.106a44.949,44.949,0,0,1-18.039,2.462L913.75,386.85Z" transform="translate(-439.619 -189.467)" fill="#7c7cdd"/>
		<path id="Path_18904" data-name="Path 18904" d="M885.275,804.4a4.638,4.638,0,0,1-3.98,4.062c-5.55.834-18.971,2.956-22.357,4.568-4.3,2.051-21.314.617-22.135-1.434a3.26,3.26,0,0,1,.294-2.467,6.615,6.615,0,0,1,2.775-2.962,6.813,6.813,0,0,1,1.232-.556c3.2-1.073,9.253-3.334,10.89-5.724,0,0,7.543-6.607,9.691-10.181a4.934,4.934,0,0,1,3.941-2.456c1.8-.083,3.8.822,4.612,4.762,0,0,9.835,5.618,12.494.689,0,0,.411,7.569,2.043,9.636h0A2.748,2.748,0,0,1,885.275,804.4Z" transform="translate(-405.327 -367.352)" fill="#a27772"/>
		<path id="Path_18905" data-name="Path 18905" d="M885.275,816.471a4.638,4.638,0,0,1-3.98,4.062c-5.55.833-18.971,2.956-22.357,4.568-4.3,2.051-21.314.617-22.135-1.434a3.26,3.26,0,0,1,.294-2.467,6.615,6.615,0,0,1,2.775-2.962c2.775,1.845,8.931,3.645,22.474,1.528,12.916-2.017,19.31-4,22.429-5.346h0A2.748,2.748,0,0,1,885.275,816.471Z" transform="translate(-405.327 -379.427)" opacity="0.1"/>
		<g id="Group_7780" data-name="Group 7780" transform="translate(487.18 92.263)" opacity="0.1">
			<path id="Path_18906" data-name="Path 18906" d="M1024.953,210.493v-.1a19.008,19.008,0,0,0,.633-4.662,29.918,29.918,0,0,1-.633,3.74,2.275,2.275,0,0,0,0,1.023Z" transform="translate(-976.254 -201.262)"/>
			<path id="Path_18907" data-name="Path 18907" d="M973.992,226.126a6.052,6.052,0,0,1,.505,2.345,7,7,0,0,0-.505-3.268,3.058,3.058,0,0,0-3.247-1.884c-1.754.411-2.509,2.7-4.229,3.245a3.339,3.339,0,0,1-3.724-1.923,9.774,9.774,0,0,1-.71-4.446v-5.146c0-1.862-.061-3.89-1.21-5.346-1.426-1.828-4.79-2.623-7.027-2.551a5.946,5.946,0,0,0-4.013,1.623,5.184,5.184,0,0,1-4.224,1.506,3.654,3.654,0,0,1-2.942-2.551c-.172-.661-.128-1.367-.322-2.028-.483-1.612-2.22-2.451-3.33-3.673a6.673,6.673,0,0,1-1.726-4.34,7,7,0,0,0,1.726,5.263c1.154,1.223,2.87,2.067,3.33,3.679.194.656.15,1.361.322,2.023a3.654,3.654,0,0,0,2.942,2.551,5.153,5.153,0,0,0,4.224-1.506,5.946,5.946,0,0,1,4.013-1.623c2.22-.072,5.6.728,7.027,2.551,1.149,1.467,1.2,3.484,1.21,5.346v5.146a9.385,9.385,0,0,0,.71,4.446c.71,1.339,2.276,2.384,3.724,1.923,1.721-.556,2.475-2.834,4.229-3.245A3.065,3.065,0,0,1,973.992,226.126Z" transform="translate(-937.259 -197.69)"/>
			<path id="Path_18908" data-name="Path 18908" d="M1022.434,237.65a7.876,7.876,0,0,1-1.743,2.823q-3.38,4.073-6.766,8.141c-2.847,3.429-5.867,7.4-5.645,11.77.205-4.012,3-7.663,5.645-10.848l6.766-8.136a7.949,7.949,0,0,0,1.743-2.829,7.645,7.645,0,0,0,.178-2.223,5.349,5.349,0,0,1-.178,1.3Z" transform="translate(-968.856 -214.866)"/>
			<path id="Path_18909" data-name="Path 18909" d="M1001.824,276.231a4.878,4.878,0,0,1-.2-1.111,5.563,5.563,0,0,0,.2,2.023c.466,1.489,2.159,2.717,3.58,2.078-.039-.3-.061-.6-.072-.9C1003.9,278.91,1002.257,277.7,1001.824,276.231Z" transform="translate(-965.89 -232.09)"/>
		</g>
		<path id="Path_18910" data-name="Path 18910" d="M879.26,795s2.142,3.773,9.9.45" transform="translate(-424.272 -370.799)" opacity="0.1"/>
		<path id="Path_18911" data-name="Path 18911" d="M997.5,796.67s6.694,7.891,15.13,2.584" transform="translate(-476.884 -371.541)" opacity="0.1"/>
		<path id="Path_18912" data-name="Path 18912" d="M1028.689,628.7s-4.734,2.962-4.884,4.657,2.442-1.234,2.442-1.234Z" transform="translate(-488.586 -296.916)" opacity="0.1"/>
		<path id="Path_18913" data-name="Path 18913" d="M1029.192,669.53a9.877,9.877,0,0,1-5.828,2.278c-3.536.156-3.241,4.774-.932,3.384A58.976,58.976,0,0,0,1029.192,669.53Z" transform="translate(-487.207 -315.056)" opacity="0.1"/>
		<path id="Path_18914" data-name="Path 18914" d="M1034.293,674.86s-2.27,11.17-4.113,9.014" transform="translate(-491.425 -317.424)" opacity="0.1"/>
		<path id="Path_18915" data-name="Path 18915" d="M189.546,768.36s3.047,3.99-1.41,10-8.131,11.114-6.66,14.871c0,0,6.722-11.192,12.211-11.348S195.568,775.09,189.546,768.36Z" transform="translate(-113.639 -358.964)" fill="#9f6e65"/>
		<path id="Path_18916" data-name="Path 18916" d="M189.695,768.36a4.8,4.8,0,0,1,.622,1.25c5.339,6.28,8.187,12.143,3.053,12.293-4.779.133-10.546,8.7-11.889,10.859a5.045,5.045,0,0,0,.161.489s6.722-11.192,12.211-11.348S195.717,775.09,189.695,768.36Z" transform="translate(-113.787 -358.964)" opacity="0.1"/>
		<path id="Path_18917" data-name="Path 18917" d="M205.925,776.793c0,1.406-.155,2.545-.35,2.545s-.355-1.139-.355-2.545.2-.739.394-.739S205.925,775.4,205.925,776.793Z" transform="translate(-124.351 -362.312)" fill="#ffd037"/>
		<path id="Path_18918" data-name="Path 18918" d="M208.068,779.762c-1.232.672-2.309,1.078-2.4.911s.833-.856,2.065-1.528.744-.183.838,0S209.3,779.089,208.068,779.762Z" transform="translate(-124.546 -363.602)" fill="#ffd037"/>
		<path id="Path_18919" data-name="Path 18919" d="M161.771,768.36s-3.047,3.99,1.41,10,8.131,11.114,6.66,14.871c0,0-6.722-11.192-12.211-11.348S155.754,775.09,161.771,768.36Z" transform="translate(-101.971 -358.964)" fill="#9f6e65"/>
		<path id="Path_18920" data-name="Path 18920" d="M161.761,768.36a5,5,0,0,0-.622,1.25c-5.339,6.28-8.187,12.143-3.053,12.293,4.784.133,10.546,8.7,11.889,10.859a3.893,3.893,0,0,1-.161.489S163.093,782.059,157.6,781.9,155.745,775.09,161.761,768.36Z" transform="translate(-101.961 -358.964)" opacity="0.1"/>
		<path id="Path_18921" data-name="Path 18921" d="M157.05,776.793c0,1.406.155,2.545.35,2.545s.355-1.139.355-2.545-.2-.739-.394-.739S157.05,775.4,157.05,776.793Z" transform="translate(-102.917 -362.312)" fill="#ffd037"/>
		<path id="Path_18922" data-name="Path 18922" d="M152.948,779.762c1.232.672,2.3,1.078,2.4.911s-.833-.856-2.065-1.528-.744-.183-.838,0S151.716,779.089,152.948,779.762Z" transform="translate(-100.757 -363.602)" fill="#ffd037"/>
		<path id="Path_18923" data-name="Path 18923" d="M158.8,808.523s8.525-.261,11.1-2.1,13.11-4.018,13.748-1.078,12.81,14.61,3.186,14.688-22.363-1.5-24.927-3.068S158.8,808.523,158.8,808.523Z" transform="translate(-103.696 -374.758)" fill="#a8a8a8"/>
		<path id="Path_18924" data-name="Path 18924" d="M187,822.693c-9.624.078-22.363-1.5-24.927-3.068-1.954-1.189-2.731-5.463-2.992-7.436H158.8s.555,6.885,3.1,8.447,15.3,3.145,24.927,3.068c2.775,0,3.741-1.011,3.685-2.478C190.132,822.121,189.072,822.676,187,822.693Z" transform="translate(-103.696 -378.436)" opacity="0.2"/>
	</g>
</svg>
