<svg xmlns="http://www.w3.org/2000/svg" viewBox="0 0 24 24"><defs><style>.cls-1{fill:#fff;}</style></defs><g id="Layer_2" data-name="Layer 2"><g id="Layer_1-2" data-name="Layer 1"><path id="linkedin" class="cls-1" d="M12,0A12,12,0,1,0,24,12,12,12,0,0,0,12,0ZM8.51,18.14H5.59V9.35H8.51Zm-1.46-10H7a1.52,1.52,0,0,1-.18-3,.81.81,0,0,1,.22,0,1.52,1.52,0,0,1,.23,3Zm12,10H16.13v-4.7c0-1.18-.42-2-1.48-2a1.6,1.6,0,0,0-1.5,1.07,1.91,1.91,0,0,0-.1.71v4.91H10.13s0-8,0-8.79h2.92V10.6a2.89,2.89,0,0,1,2.64-1.45c1.92,0,3.36,1.25,3.36,3.95Z"/></g></g></svg>