<svg xmlns="http://www.w3.org/2000/svg" viewBox="0 0 24 24"><defs><style>.cls-1{fill:#fff;}</style></defs><g id="Layer_2" data-name="Layer 2"><g id="Layer_1-2" data-name="Layer 1"><g id="youtube"><path id="Path_21308" data-name="Path 21308" class="cls-1" d="M10.51,14.25,14.4,12,10.51,9.75Z"/><path id="Path_21309" data-name="Path 21309" class="cls-1" d="M12,0A12,12,0,1,0,24,12,12,12,0,0,0,12,0Zm7.5,12a19.85,19.85,0,0,1-.31,3.61,1.87,1.87,0,0,1-1.32,1.32,46.08,46.08,0,0,1-5.87.31,44.33,44.33,0,0,1-5.87-.32,1.89,1.89,0,0,1-1.32-1.32A19.85,19.85,0,0,1,4.5,12a19.85,19.85,0,0,1,.31-3.61A1.92,1.92,0,0,1,6.13,7.06,46.08,46.08,0,0,1,12,6.75a44.33,44.33,0,0,1,5.87.32,1.89,1.89,0,0,1,1.32,1.32A19.17,19.17,0,0,1,19.5,12Z"/></g></g></g></svg>