<svg xmlns="http://www.w3.org/2000/svg" viewBox="0 0 24 24"><defs><style>.cls-1{fill:#fff;}</style></defs><g id="Layer_2" data-name="Layer 2"><g id="Layer_1-2" data-name="Layer 1"><path id="twitter" class="cls-1" d="M12,0A12,12,0,1,0,24,12,12,12,0,0,0,12,0Zm5.48,9.36c0,.11,0,.23,0,.35a7.78,7.78,0,0,1-7.73,7.84H9.65a7.79,7.79,0,0,1-4.22-1.24,4.82,4.82,0,0,0,.65,0,5.53,5.53,0,0,0,3.43-1.18,2.76,2.76,0,0,1-2.58-1.91,2.78,2.78,0,0,0,1.25,0A2.75,2.75,0,0,1,6,10.51v0a2.71,2.71,0,0,0,1.24.34,2.76,2.76,0,0,1-.85-3.68A7.82,7.82,0,0,0,12,10a2.75,2.75,0,0,1,4.69-2.51,5.47,5.47,0,0,0,1.75-.67,2.73,2.73,0,0,1-1.21,1.52,5.37,5.37,0,0,0,1.58-.43A5.64,5.64,0,0,1,17.48,9.36Z"/></g></g></svg>