<svg xmlns="http://www.w3.org/2000/svg" viewBox="0 0 24 24"><defs><style>.cls-1{fill:#fff;}</style></defs><g id="Layer_2" data-name="Layer 2"><g id="Layer_1-2" data-name="Layer 1"><g id="instagram"><path id="Path_21305" data-name="Path 21305" class="cls-1" d="M14.3,12A2.3,2.3,0,1,1,12,9.7,2.3,2.3,0,0,1,14.3,12Z"/><path id="Path_21306" data-name="Path 21306" class="cls-1" d="M17.37,7.94a2.26,2.26,0,0,0-1.31-1.31,4,4,0,0,0-1.28-.24c-.72,0-.94,0-2.78,0s-2.06,0-2.78,0a4,4,0,0,0-1.28.24A2.26,2.26,0,0,0,6.63,7.94a4,4,0,0,0-.24,1.28c0,.72,0,.94,0,2.78s0,2.06,0,2.78a4,4,0,0,0,.24,1.28,2.28,2.28,0,0,0,1.31,1.31,4,4,0,0,0,1.28.24c.72,0,.94,0,2.78,0s2.06,0,2.78,0a3.93,3.93,0,0,0,1.28-.24,2.26,2.26,0,0,0,1.31-1.31,4,4,0,0,0,.24-1.28c0-.72,0-.94,0-2.78s0-2.06,0-2.78A4,4,0,0,0,17.37,7.94ZM12,15.54A3.54,3.54,0,1,1,15.54,12h0A3.54,3.54,0,0,1,12,15.54Zm3.68-6.39a.83.83,0,1,1,.82-.83h0a.81.81,0,0,1-.82.83Z"/><path id="Path_21307" data-name="Path 21307" class="cls-1" d="M12,0A12,12,0,1,0,24,12,12,12,0,0,0,12,0Zm6.85,14.84a5,5,0,0,1-.32,1.67,3.53,3.53,0,0,1-2,2,5,5,0,0,1-1.67.32c-.73,0-1,0-2.84,0s-2.11,0-2.84,0a5,5,0,0,1-1.67-.32,3.53,3.53,0,0,1-2-2,5,5,0,0,1-.32-1.67c0-.73,0-1,0-2.84s0-2.11,0-2.84a5,5,0,0,1,.32-1.67,3.53,3.53,0,0,1,2-2,5,5,0,0,1,1.67-.32c.73,0,1,0,2.84,0s2.11,0,2.84,0a5,5,0,0,1,1.67.32,3.53,3.53,0,0,1,2,2,5,5,0,0,1,.32,1.67c0,.73,0,1,0,2.84S18.88,14.11,18.85,14.84Z"/></g></g></g></svg>