<svg width="260" height="80" viewBox="0 0 260 80" fill="none" xmlns="http://www.w3.org/2000/svg">
<path d="M37.6934 21.296L35.341 31.2715C35.341 31.2715 32.4005 28.331 27.1187 28.331C27.1187 28.331 13.6145 29.5072 13.6145 41.2471C13.6145 41.2471 13.6145 51.2226 23.0131 51.2226C23.0131 51.2226 29.4711 51.2226 32.9886 48.2821L30.6362 59.4338C30.6362 59.4338 24.1782 62.3743 18.3083 61.7862C18.3083 61.7862 -1.65388 60.61 0.110421 41.8241C0.110421 41.8241 0.110421 18.9325 25.9425 18.9325C25.9425 18.9325 30.6362 18.3444 37.6823 21.2849L37.6934 21.296Z" fill="#20A1DA"/>
<path d="M91.122 21.2957L82.3116 60.6319H95.8157L102.274 29.5181C102.274 29.5181 104.038 28.3419 107.555 28.3419C107.555 28.3419 112.837 28.3419 111.661 34.2118L106.379 60.6319H119.295L126.341 29.5181C126.341 29.5181 128.694 27.7538 131.035 28.3419C131.035 28.3419 136.317 27.1657 135.141 35.388L129.859 60.6319H142.775L148.645 31.8705C148.645 31.8705 152.762 19.5314 134.564 18.9433C134.564 18.9433 127.817 18.6548 119.595 21.5843C119.595 21.5843 110.785 15.7143 91.122 21.2957Z" fill="#20A1DA"/>
<path fill-rule="evenodd" clip-rule="evenodd" d="M46.5039 20.1203L58.8319 18.9441C82.3115 18.9441 81.1353 38.3182 81.1353 38.3182C78.2059 67.0796 50.6096 60.6216 50.6096 60.6216L46.5039 79.9956L35.9403 69.432L46.5039 20.1203ZM52.9509 50.058C52.9509 50.058 55.3033 52.9985 62.3494 50.058H62.3383C62.3383 50.058 68.2082 46.5405 67.6201 37.7301C67.6201 37.7301 68.2082 26.5672 57.6446 29.5077L52.9509 50.058Z" fill="#20A1DA"/>
<path d="M194.817 25.5555H193.242V38.2745H194.817V25.5555Z" fill="#667880"/>
<path d="M172.709 33.1577V38.2743L172.72 38.2854H174.295V33.1466L178.351 26.2131H176.574L174.832 29.5461L174.795 29.6168C174.342 30.5006 173.951 31.2609 173.614 32.0319H173.581C173.201 31.1958 172.843 30.4601 172.374 29.5461L170.665 26.2131H168.889L172.709 33.1577Z" fill="#667880"/>
<path fill-rule="evenodd" clip-rule="evenodd" d="M182.171 37.2377C180.585 37.2377 179.222 36.3571 179.188 34.228H185.288L185.289 34.2196C185.311 34.0526 185.344 33.8102 185.344 33.4923C185.344 31.8982 184.595 29.4124 181.758 29.4124C179.222 29.4124 177.68 31.4746 177.68 34.0831C177.68 36.6915 179.278 38.4528 181.948 38.4528C183.333 38.4528 184.282 38.1741 184.841 37.9177L184.573 36.7919C183.981 37.0371 183.299 37.2377 182.171 37.2377ZM181.624 30.5383C183.4 30.5383 183.836 32.0989 183.813 33.1021H179.2C179.323 32.0097 180.026 30.5383 181.624 30.5383Z" fill="#667880"/>
<path d="M187.298 32.3107C187.298 31.2851 187.276 30.4157 187.231 29.6019H188.617L188.672 31.3074H188.739C189.13 30.1481 190.091 29.4124 191.141 29.4124C191.32 29.4124 191.443 29.4347 191.588 29.4682V30.9507C191.432 30.9173 191.264 30.895 191.052 30.895C189.935 30.895 189.153 31.731 188.929 32.9238C188.896 33.1356 188.862 33.392 188.862 33.6595V38.2856H187.298V32.3107Z" fill="#667880"/>
<path d="M199.24 27.1603C199.263 27.6953 198.86 28.1301 198.235 28.1301C197.676 28.1301 197.285 27.6953 197.285 27.1603C197.285 26.6252 197.699 26.1793 198.268 26.1793C198.838 26.1793 199.24 26.614 199.24 27.1603Z" fill="#667880"/>
<path d="M197.486 38.2628V29.5903H199.062V38.2628H197.486Z" fill="#667880"/>
<path d="M207.954 34.7295L206.055 29.6018L206.044 29.613H204.323L207.541 37.6055C207.619 37.8062 207.652 37.9288 207.652 38.018C207.652 38.1071 207.597 38.2409 207.529 38.397C207.172 39.1996 206.636 39.8126 206.2 40.1471C205.731 40.5372 205.206 40.7936 204.815 40.9162L205.206 42.2427C205.597 42.1647 206.368 41.8972 207.139 41.2172C208.222 40.2808 208.993 38.7648 210.121 35.7885L212.489 29.613H210.825L209.105 34.6961C208.933 35.1744 208.788 35.6724 208.66 36.1148L208.659 36.1161C208.62 36.2506 208.582 36.3799 208.546 36.5019H208.513C208.367 35.978 208.155 35.298 207.954 34.7295Z" fill="#667880"/>
<path fill-rule="evenodd" clip-rule="evenodd" d="M214.634 34.228C214.668 36.3571 216.031 37.2377 217.617 37.2377C218.745 37.2377 219.426 37.0371 220.019 36.7919L220.287 37.9177C219.728 38.1741 218.779 38.4528 217.393 38.4528C214.724 38.4528 213.126 36.6915 213.126 34.0831C213.126 31.4746 214.668 29.4124 217.203 29.4124C220.041 29.4124 220.789 31.8982 220.789 33.4923C220.789 33.8101 220.757 34.0524 220.735 34.2194L220.734 34.228H214.634ZM219.259 33.1021C219.281 32.0989 218.846 30.5383 217.069 30.5383C215.472 30.5383 214.768 32.0097 214.645 33.1021H219.259Z" fill="#667880"/>
<path d="M222.677 29.6019C222.722 30.4157 222.744 31.2851 222.744 32.3107V38.2856H224.308V33.6595C224.308 33.392 224.342 33.1356 224.375 32.9238C224.598 31.731 225.38 30.895 226.498 30.895C226.71 30.895 226.877 30.9173 227.034 30.9507V29.4682C226.889 29.4347 226.766 29.4124 226.587 29.4124C225.537 29.4124 224.576 30.1481 224.185 31.3074H224.118L224.062 29.6019H222.677Z" fill="#667880"/>
<path d="M230.441 27.1603C230.463 27.6953 230.061 28.1301 229.436 28.1301C228.877 28.1301 228.486 27.6953 228.486 27.1603C228.486 26.6252 228.9 26.1793 229.469 26.1793C230.039 26.1793 230.441 26.614 230.441 27.1603Z" fill="#667880"/>
<path d="M228.687 38.2628V29.5903H230.262V38.2628H228.687Z" fill="#667880"/>
<path d="M232.82 29.6019C232.865 30.3153 232.887 31.0511 232.887 31.9428V38.2856H234.463V33.0687C234.463 32.8012 234.507 32.5336 234.574 32.333C234.842 31.4524 235.658 30.7166 236.697 30.7166C238.183 30.7166 238.708 31.8871 238.708 33.2805V38.2744H240.283V33.1021C240.283 30.1258 238.417 29.4124 237.211 29.4124C235.781 29.4124 234.764 30.215 234.34 31.0399H234.306L234.217 29.6019H232.82Z" fill="#667880"/>
<path fill-rule="evenodd" clip-rule="evenodd" d="M250.348 25.5555V36.0339C250.348 36.803 250.37 37.6837 250.415 38.2745H248.996L248.929 36.7696H248.895C248.415 37.7394 247.354 38.4751 245.935 38.4751C243.835 38.4751 242.215 36.7027 242.215 34.072C242.193 31.1849 243.991 29.4125 246.114 29.4125C247.443 29.4125 248.337 30.0367 248.739 30.739H248.772V25.5555H250.348ZM248.772 33.1356C248.772 32.935 248.75 32.6674 248.705 32.4779C248.471 31.4747 247.611 30.6498 246.427 30.6498C244.796 30.6498 243.824 32.0878 243.824 33.994C243.824 35.7441 244.684 37.2043 246.393 37.2043C247.454 37.2043 248.426 36.5021 248.705 35.3205C248.761 35.1087 248.772 34.8969 248.772 34.6405V33.1356Z" fill="#667880"/>
<path fill-rule="evenodd" clip-rule="evenodd" d="M256.827 37.2377C255.241 37.2377 253.878 36.3571 253.845 34.228H259.944L259.945 34.2195C259.967 34.0525 260 33.8101 260 33.4923C260 31.8982 259.251 29.4124 256.414 29.4124C253.878 29.4124 252.336 31.4746 252.336 34.0831C252.336 36.6915 253.934 38.4528 256.604 38.4528C257.989 38.4528 258.939 38.1741 259.497 37.9177L259.229 36.7919C258.637 37.0371 257.955 37.2377 256.827 37.2377ZM256.28 30.5383C258.056 30.5383 258.492 32.0989 258.469 33.1021H253.856C253.979 32.0097 254.682 30.5383 256.28 30.5383Z" fill="#667880"/>
<path d="M176.161 59.4318C175.781 59.6325 174.954 59.9 173.916 59.9334L173.446 60.6469C174.105 60.736 174.697 61.2042 174.697 61.8842C174.697 62.9432 173.815 63.3333 172.832 63.3333C172.385 63.3333 171.916 63.2107 171.614 63.0323L171.882 62.2632C172.173 62.4415 172.53 62.5307 172.854 62.5307C173.245 62.5307 173.625 62.3858 173.625 61.9622C173.603 61.494 173.067 61.2822 172.229 61.2154L172.977 59.9111C170.754 59.6213 169.335 57.9381 169.335 55.5192C169.335 52.855 171.167 50.9154 174.005 50.9154C174.943 50.9154 175.77 51.1495 176.194 51.3613L175.837 52.5763C175.457 52.3645 174.865 52.1639 174.005 52.1639C172.016 52.1639 170.933 53.6353 170.933 55.4411C170.933 57.4476 172.229 58.685 173.949 58.685C174.843 58.685 175.435 58.4509 175.893 58.2502L176.161 59.4318Z" fill="#667880"/>
<path fill-rule="evenodd" clip-rule="evenodd" d="M181.434 59.9556C183.534 59.9556 185.757 58.5622 185.757 55.3518C185.757 52.6988 183.992 50.8929 181.579 50.8929C179.166 50.8929 177.267 52.5985 177.267 55.4967C177.267 58.2389 179.077 59.9556 181.434 59.9556ZM181.501 58.774C179.959 58.774 178.864 57.336 178.864 55.441C178.864 53.7912 179.669 52.0745 181.534 52.0745C183.4 52.0745 184.137 53.9361 184.137 55.4075C184.137 57.3583 183.042 58.774 181.501 58.774Z" fill="#667880"/>
<path d="M179.847 47.716C179.345 47.716 178.931 48.1284 178.931 48.6301C178.931 49.1094 179.322 49.5441 179.847 49.5441C180.373 49.5441 180.73 49.1094 180.73 48.6301C180.73 48.1062 180.35 47.716 179.847 47.716Z" fill="#667880"/>
<path d="M183.165 47.716C182.663 47.716 182.272 48.1284 182.272 48.6301C182.272 49.1094 182.64 49.5441 183.165 49.5441C183.69 49.5441 184.048 49.1094 184.048 48.6301C184.048 48.1062 183.668 47.716 183.165 47.716Z" fill="#667880"/>
<path d="M186.64 58.8404L190.572 53.735C190.817 53.4329 191.053 53.154 191.294 52.8685C191.427 52.7115 191.561 52.5521 191.7 52.3861V52.3527H186.997V51.0819H193.621L193.599 52.0629L189.723 57.0903C189.365 57.5696 189.008 58.0043 188.606 58.4502V58.4836H193.689V59.7321H186.64V58.8404Z" fill="#667880"/>
<path d="M202.647 59.7549C202.603 59.075 202.58 58.2835 202.58 57.3917V51.0824H201.005V56.3996C201.005 56.6783 200.949 56.9682 200.86 57.2022C200.581 57.9045 199.843 58.6402 198.782 58.6402C197.341 58.6402 196.838 57.5367 196.838 55.8869V51.0824H195.263V56.1544C195.263 59.2087 196.894 59.9556 198.257 59.9556C199.799 59.9556 200.715 59.0415 201.128 58.3393H201.162L201.251 59.7549H202.647Z" fill="#667880"/>
<path d="M197.341 47.716C196.838 47.716 196.425 48.1284 196.425 48.6301C196.425 49.1094 196.816 49.5441 197.341 49.5441C197.866 49.5441 198.224 49.1094 198.224 48.6301C198.224 48.1062 197.844 47.716 197.341 47.716Z" fill="#667880"/>
<path d="M200.659 47.716C200.156 47.716 199.765 48.1284 199.765 48.6301C199.765 49.1094 200.134 49.5441 200.659 49.5441C201.184 49.5441 201.541 49.1094 201.541 48.6301C201.541 48.1062 201.162 47.716 200.659 47.716Z" fill="#667880"/>
<path d="M205.194 53.4341C205.194 52.5423 205.172 51.8066 205.127 51.0932H206.513L206.58 52.4866H206.636C207.116 51.6617 207.931 50.8925 209.361 50.8925C210.545 50.8925 211.439 51.6059 211.819 52.6315H211.852C212.12 52.1521 212.467 51.7731 212.824 51.5056C213.349 51.1155 213.919 50.8925 214.746 50.8925C215.896 50.8925 217.594 51.6394 217.594 54.6491V59.7545H216.053V54.8498C216.053 53.1888 215.438 52.1856 214.165 52.1856C213.271 52.1856 212.567 52.8433 212.299 53.6236C212.232 53.8354 212.176 54.1252 212.176 54.415V59.7657H210.635V54.5711C210.635 53.1888 210.02 52.1856 208.825 52.1856C207.842 52.1856 207.116 52.977 206.87 53.7573C206.781 53.9914 206.747 54.259 206.747 54.5265V59.7545H205.206V53.4341H205.194Z" fill="#667880"/>
<path d="M221.739 47.0476H220.164V59.7665H221.739V47.0476Z" fill="#667880"/>
<path fill-rule="evenodd" clip-rule="evenodd" d="M225.28 55.7081C225.313 57.8372 226.676 58.7178 228.263 58.7178C229.391 58.7178 230.072 58.5172 230.664 58.2719L230.932 59.3978C230.374 59.6542 229.424 59.9329 228.039 59.9329C225.369 59.9329 223.772 58.1716 223.772 55.5632C223.772 52.9547 225.313 50.8925 227.849 50.8925C230.687 50.8925 231.435 53.3783 231.435 54.9724C231.435 55.2902 231.403 55.5326 231.38 55.6996L231.379 55.7081H225.28ZM229.916 54.5822C229.938 53.579 229.503 52.0184 227.726 52.0184C226.129 52.0184 225.425 53.4898 225.302 54.5822H229.916Z" fill="#667880"/>
<path d="M233.323 51.082C233.368 51.8958 233.39 52.7652 233.39 53.7908V59.7657H234.954V55.1396C234.954 54.8721 234.988 54.6157 235.021 54.4039C235.245 53.2111 236.027 52.3751 237.144 52.3751C237.356 52.3751 237.524 52.3974 237.68 52.4308V50.9482C237.535 50.9148 237.412 50.8925 237.233 50.8925C236.183 50.8925 235.222 51.6282 234.831 52.7875H234.764L234.709 51.082H233.323Z" fill="#667880"/>
</svg>
