<svg xmlns="http://www.w3.org/2000/svg" viewBox="0 0 24 24"><defs><style>.cls-1{fill:none;opacity:0;}.cls-2{fill:#747a86;}</style></defs><g id="Layer_2" data-name="Layer 2"><g id="_24_-_mail" data-name="24 - mail"><rect class="cls-1" width="24" height="24"/><path class="cls-2" d="M23,13a1,1,0,0,0,1-1V6.75A2.79,2.79,0,0,0,21.17,4H2.83A2.79,2.79,0,0,0,0,6.75v10.5A2.79,2.79,0,0,0,2.83,20H21.17A2.79,2.79,0,0,0,24,17.25v-.87a1,1,0,0,0-2,0v.87a.79.79,0,0,1-.83.75H2.83A.79.79,0,0,1,2,17.25v-10l9.38,7.33a1,1,0,0,0,1.24,0L22,7.21V12A1,1,0,0,0,23,13Zm-11-.52L3.7,6H20.3Z"/></g></g></svg>