<svg xmlns="http://www.w3.org/2000/svg" viewBox="0 0 24 24"><defs><style>.cls-1{fill:none;opacity:0;}.cls-2{fill:#727b89;}</style></defs><g id="Layer_2" data-name="Layer 2"><g id="_24_-_ic_map" data-name="24 - ic_map"><rect class="cls-1" width="24" height="24"/><path class="cls-2" d="M22,15a1,1,0,0,0-1,1v3.25l-5,1.42V14.5a1,1,0,0,0-2,0v6L9,18.34V8.62l2.55,1.27a1,1,0,1,0,.9-1.78l-4-2h0A.89.89,0,0,0,8.14,6L8,6H8a1,1,0,0,0-.39.08h0l-7,3A1,1,0,0,0,0,10V22a1,1,0,0,0,.45.83A1,1,0,0,0,1,23a1,1,0,0,0,.39-.08L8,20.09l6.61,2.83h0A.87.87,0,0,0,15,23h0l.1,0a.88.88,0,0,0,.17,0l7-2A1,1,0,0,0,23,20V16A1,1,0,0,0,22,15ZM2,10.66,7,8.52v9.82L2,20.48Z"/><path class="cls-2" d="M19,14a1,1,0,0,0,.71-.29C20.15,13.27,24,9.32,24,6A5,5,0,0,0,14,6c0,3.32,3.85,7.27,4.29,7.71A1,1,0,0,0,19,14ZM19,3a3,3,0,0,1,3,3c0,1.73-1.78,4.14-3,5.53-1.22-1.39-3-3.8-3-5.53A3,3,0,0,1,19,3Z"/><path class="cls-2" d="M20.56,6.05a1.5,1.5,0,1,0-1.5,1.5A1.5,1.5,0,0,0,20.56,6.05Z"/></g></g></svg>