<svg xmlns="http://www.w3.org/2000/svg" viewBox="0 0 18 24"><defs><style>.cls-1{fill:#fc762d;}</style></defs><title>Asset 8otherfiles</title><g id="Layer_2" data-name="Layer 2"><g id="Layer_1-2" data-name="Layer 1"><path id="Icon_awesome-file-medical" data-name="Icon awesome-file-medical" class="cls-1" d="M17.67,4.92,13.08.33a1.14,1.14,0,0,0-.8-.33H12V6h6V5.71A1.13,1.13,0,0,0,17.67,4.92ZM10.5,6.38V0H1.13A1.13,1.13,0,0,0,0,1.12H0V22.88A1.12,1.12,0,0,0,1.12,24H16.88A1.12,1.12,0,0,0,18,22.88h0V7.5H11.63A1.12,1.12,0,0,1,10.5,6.38Zm3,7.5v2.25a.38.38,0,0,1-.37.37H10.5v2.63a.38.38,0,0,1-.37.37H7.88a.38.38,0,0,1-.38-.37V16.5H4.88a.38.38,0,0,1-.38-.37V13.88a.38.38,0,0,1,.38-.38H7.5V10.88a.38.38,0,0,1,.38-.38h2.25a.38.38,0,0,1,.37.38V13.5h2.63A.38.38,0,0,1,13.5,13.88Z"/></g></g></svg>