<svg id="undraw_people_tax5-2" xmlns="http://www.w3.org/2000/svg" width="300" height="150" viewBox="0 0 300 232">
  <path id="Path_20854" data-name="Path 20854" d="M397.011,111.105l-4.468,20.1-3.627,16.309-2.891,13.007L382.4,176.835l-11.845,53.282L223.772,162.271l-10.789-4.988-13.657-6.314-10.793-4.988-12.981-6,7.359-10.711,6.12-8.906,7.742-11.268,6.118-8.9L271.738,0l72.933,64.685L357.658,76.2l10.356,9.185L381,96.907Z" transform="translate(-126.151)" fill="#f2f2f2"/>
  <path id="Path_20855" data-name="Path 20855" d="M222.451,295.231c-9.815-5.473-15.925-12.946-18.161-22.21-1.66-6.878-1.183-14.618,1.418-23.005a61.621,61.621,0,0,1,8.565-17.307c19.877-28.145,21.671-46.484,19.676-56.913-2.188-11.435-9.295-16.184-9.367-16.23l.307-.472c.073.048,7.368,4.907,9.608,16.574,1.291,6.726.684,14.4-1.806,22.795-3.1,10.454-9.141,22.085-17.959,34.571a61.064,61.064,0,0,0-8.488,17.149c-4.265,13.755-4.869,32.652,16.48,44.557Z" transform="translate(-164.946 -124.98)" fill="#2f2e41"/>
  <path id="Path_20856" data-name="Path 20856" d="M255.627,295.231c9.815-5.473,15.925-12.946,18.161-22.21,1.66-6.878,1.183-14.618-1.418-23.005a61.621,61.621,0,0,0-8.565-17.307c-19.877-28.145-21.671-46.484-19.676-56.913,2.188-11.435,9.295-16.184,9.367-16.23l-.307-.472c-.073.048-7.368,4.907-9.608,16.574-1.291,6.726-.684,14.4,1.806,22.795,3.1,10.454,9.141,22.085,17.959,34.571a61.063,61.063,0,0,1,8.488,17.149c4.266,13.755,4.869,32.651-16.48,44.557Z" transform="translate(-193.402 -124.98)" fill="#2f2e41"/>
  <path id="Path_20857" data-name="Path 20857" d="M999.451,211.231c-9.815-5.473-15.925-12.946-18.161-22.21-1.66-6.878-1.183-14.618,1.418-23.005a61.624,61.624,0,0,1,8.566-17.307c19.877-28.145,21.671-46.484,19.676-56.912-2.188-11.435-9.295-16.184-9.367-16.23l.307-.472c.073.048,7.368,4.907,9.608,16.574,1.291,6.726.684,14.4-1.806,22.795-3.1,10.454-9.141,22.085-17.959,34.571a61.062,61.062,0,0,0-8.488,17.149c-4.266,13.755-4.869,32.651,16.48,44.557Z" transform="translate(-723.3 -64.625)" fill="#2f2e41"/>
  <path id="Path_20858" data-name="Path 20858" d="M1032.627,211.231c9.815-5.473,15.925-12.946,18.161-22.21,1.66-6.878,1.183-14.618-1.418-23.005a61.623,61.623,0,0,0-8.566-17.307c-19.877-28.145-21.672-46.484-19.676-56.913,2.188-11.435,9.295-16.184,9.367-16.23l-.307-.472c-.073.048-7.368,4.907-9.608,16.574-1.291,6.726-.684,14.4,1.806,22.795,3.1,10.454,9.141,22.085,17.959,34.571a61.065,61.065,0,0,1,8.488,17.149c4.266,13.755,4.869,32.651-16.48,44.557Z" transform="translate(-751.756 -64.625)" fill="#2f2e41"/>
  <path id="Path_20859" data-name="Path 20859" d="M389.444,304.425c-7.375-12.465-21.965-13.045-21.965-13.045s-14.217-1.819-23.337,17.165c-8.5,17.694-20.233,34.779-1.889,38.921l3.313-10.316,2.052,11.084a71.753,71.753,0,0,0,7.849.134c19.645-.634,38.354.186,37.751-6.866C392.418,332.128,396.54,316.419,389.444,304.425Z" transform="translate(-257.802 -219.995)" fill="#2f2e41"/>
  <path id="Path_20860" data-name="Path 20860" d="M427.194,419.127a70.05,70.05,0,0,1,5.1,19.77l20.4-1.275c-4.69-6.648-6.248-14.279-4.463-22.958Z" transform="translate(-325.821 -308.61)" fill="#ffb8b8"/>
  <path id="Path_20861" data-name="Path 20861" d="M427.194,419.127a70.05,70.05,0,0,1,5.1,19.77l20.4-1.275c-4.69-6.648-6.248-14.279-4.463-22.958Z" transform="translate(-325.821 -308.61)" opacity="0.2"/>
  <path id="Path_20862" data-name="Path 20862" d="M73.665,810.844s-10.559,5.658-5.2,10.488S80.9,814.938,80.9,814.938Z" transform="translate(-66.947 -593.271)" fill="#ffb8b8"/>
  <path id="Path_20863" data-name="Path 20863" d="M308.579,680.148l-.165,7.729-.352,16.7v0l-.1,4.836H240.438l2.744-15.243,0-.011,2.457-13.643,1.1-6.11v0l55.466-7.652Z" transform="translate(-172.779 -479.073)" fill="#2f2e41"/>
  <path id="Path_20864" data-name="Path 20864" d="M388.814,718.052l-.166,7.729c-19.623-.5-50.04-5.242-62.772-7.359l1.1-6.109,55.466-7.653Z" transform="translate(-253.015 -516.977)" fill="#3f3d56"/>
  <ellipse id="Ellipse_2136" data-name="Ellipse 2136" cx="15.938" cy="15.943" rx="15.938" ry="15.943" transform="translate(95.316 84.051)" fill="#ffb8b8"/>
  <path id="Path_20865" data-name="Path 20865" d="M370.808,543.976s1.913,17.219-9.563,15.943L359.332,542.7l-10.2-10.2-28.689-.638L299.4,551.629s-.638-20.407,1.913-22.321,8.288-6.377,8.288-6.377v-3.189l-17.213-35.075s10.2-21.045,18.488-21.683l10.838-.638s3.825-1.913,3.825-2.551-.638-5.74,2.55-4.464c0,0,.287-6.543,3.647-4.547,0,0,10.577,8.291,21.313.363,0,0,5-.918,4.367,1.633s0,4.464,1.275,4.464,7.013,1.913,7.013,3.189c0,.274.414,2.914,1.065,6.888v.006C369.138,481.81,374.633,514,374.633,514S380.371,522.293,370.808,543.976Z" transform="translate(-228.952 -334.291)" fill="#e6a744"/>
  <path id="Path_20866" data-name="Path 20866" d="M137.3,560.794l-4.463,3.189-40.8,52.294L70.363,633.5s12.113-1.913,9.563,8.291l74.592-42.728Z" transform="translate(-69.401 -413.607)" fill="#e6a744"/>
  <path id="Path_20867" data-name="Path 20867" d="M440.442,465.87v.006c-.848,4.987-28.479,3.948-32.3,3.948a17.806,17.806,0,0,1-10.838-3.189c-3.825-2.551-1.913-5.74-1.913-5.74s3.257-2.482,3.257-3.119-.638-5.74,2.55-4.464c0,0,.287-6.543,3.647-4.547,0,0,11.145,8.859,21.881.932,0,0,5-.918,4.367,1.633s0,4.464,1.275,4.464,7.013,1.913,7.013,3.189C439.378,459.256,439.792,461.9,440.442,465.87Z" transform="translate(-302.622 -332.84)" fill="#3f3d56"/>
  <path id="Path_20868" data-name="Path 20868" d="M515.471,407.856s-5.1-10.841-10.2-5.74,5.738,12.755,5.738,12.755Z" transform="translate(-380.947 -298.614)" fill="#ffb8b8"/>
  <path id="Path_20869" data-name="Path 20869" d="M518.669,416.929s-7.876,9.956-10.313,10.718c0,0,7.125,28.184,16.051,35.837l5.1,26.147s21.676-8.928,16.576-23.6l-.152-.437a144.693,144.693,0,0,0-17.474-34.456Z" transform="translate(-384.144 -310.238)" fill="#e6a744"/>
  <path id="Path_20870" data-name="Path 20870" d="M463.1,483.933l15.684,43.173-5.738-26.147Z" transform="translate(-332.786 -347.713)" opacity="0.2"/>
  <path id="Path_20871" data-name="Path 20871" d="M358.07,276.4l-14.414-7.553-19.905,3.09-4.119,18.195,10.252-.394,2.864-6.685v6.575l4.73-.182,2.746-10.642,1.716,11.329,16.817-.343Z" transform="translate(-229.688 -193.169)" fill="#2f2e41"/>
  <path id="Path_20872" data-name="Path 20872" d="M1007.076,674.123l8.178,29.182s-1.685,25.848,6.179,20.791c8.048-5.175,5.056-26.972,5.056-26.972l-4.714-26.18Z" transform="translate(-742.526 -492.751)" fill="#a0616a"/>
  <path id="Path_20873" data-name="Path 20873" d="M1002.315,391.415l6.753,6.756v32.189s3.973,5.961,3.178,7.55-1.589,1.59-.794,2.782,1.589,1.987.794,2.782a2.981,2.981,0,0,0,0,3.577c.794.795,2.384,1.987,1.192,3.179s-2.781.4-1.192,4.769,4.37,5.563,3.575,7.153-.794,5.563-.794,5.563L997.945,470.1l-3.575-44.905Z" transform="translate(-733.395 -291.906)" fill="#d0cde1"/>
  <path id="Path_20874" data-name="Path 20874" d="M952.933,623.161l-19.863.795.794,8.345,17.48-3.179Z" transform="translate(-670.506 -447.75)" fill="#3f3d56"/>
  <path id="Path_20875" data-name="Path 20875" d="M803.454,205.986l-2.384,23.843,24.233,3.577,1.788-13.71,1.788-13.71Z" transform="translate(-575.651 -148.004)" fill="#a0616a"/>
  <path id="Path_20876" data-name="Path 20876" d="M803.454,205.527,801.07,229.37l24.233,3.577,1.788-13.71,1.788-13.71Z" transform="translate(-575.651 -147.674)" opacity="0.1"/>
  <path id="Path_20877" data-name="Path 20877" d="M689.43,646.944l13.507,29.009s2.384,13.511,5.959,13.909,7.151-13.909,7.151-13.909l-4.767-7.55-5.562-21.459Z" transform="translate(-514.264 -475.507)" fill="#a0616a"/>
  <path id="Path_20878" data-name="Path 20878" d="M823,747.722H746.635c.605-9.574.986-15.476.986-15.476l1.014-1.6,4.917-7.729,3.511-5.518,1.224-1.927.455-.713,4.809-.878,49.617-9.056a60.649,60.649,0,0,0,3.469,10.727c.338.77.7,1.54,1.091,2.3a23.682,23.682,0,0,0,4.579,6.442,5.631,5.631,0,0,1,.9,3C823.688,731.186,823.551,738.41,823,747.722Z" transform="translate(-555.372 -517.097)" fill="#2f2e41"/>
  <ellipse id="Ellipse_2137" data-name="Ellipse 2137" cx="19.069" cy="19.075" rx="19.069" ry="19.075" transform="translate(222.043 27.582)" fill="#a0616a"/>
  <path id="Path_20879" data-name="Path 20879" d="M695.425,337.946l-2.781-1.59s-12.315,8.345-16.288,27.023-6.754,23.446-6.754,23.446-3.973.795-1.192,3.576,2.781,2.384.4,3.974-3.973-1.59-2.384,1.59,3.575,2.384,1.986,4.371-4.37,1.987-2.781,3.577-1.589,5.166.4,6.756,2.781,1.987,2.781,4.769a14.076,14.076,0,0,0,.794,4.769H690.26s-3.973-7.55-2.781-9.14,1.589-3.179.795-3.974-3.178.795-.795-1.192,3.178-.795,2.384-3.179-2.384-1.192-.795-2.384,2.781-.795,1.986-1.987-2.384-1.192-.795-1.987,2.781,0,2.384-1.987-.795-1.192,0-1.987,9.137-27.817,9.137-28.612S695.425,337.946,695.425,337.946Z" transform="translate(-496.821 -252.345)" fill="#d0cde1"/>
  <path id="Path_20880" data-name="Path 20880" d="M627.746,590.691l-25.028,1.59,6.356,5.961,17.48.4Z" transform="translate(-433.114 -424.42)" fill="#3f3d56"/>
  <path id="Path_20881" data-name="Path 20881" d="M770.829,734.473l-5.164,9.537s15.493,1.987,21.055,3.974,19.863,4.769,19.863,4.769l3.575-13.909Z" transform="translate(-569.047 -538.398)" fill="#3f3d56"/>
  <path id="Path_20882" data-name="Path 20882" d="M878.011,705l4.37,13.114,17.48-3.577-1.986-12.319Z" transform="translate(-630.941 -504.555)" fill="#3f3d56"/>
  <path id="Path_20883" data-name="Path 20883" d="M821.24,269.4s-1.192-.795-3.973.795-11.918,2.384-16.288-2.384-7.548-8.743-8.74-7.948-1.986,9.935-1.986,9.935l-3.973,3.179-23.439,8.345,1.986,53.648,3.575,12.319s-2.781,9.537.794,15.1-1.986,7.55-1.986,7.55-1.192,1.59-.4,5.563-.795,18.677-.795,18.677,33.768,15.1,69.124,1.987l-3.973-15.1-1.986-33.778s1.986-5.563,1.589-7.948,11.918-35.765,11.918-35.765-1.986-16.69-12.315-20.267-11.918-7.153-11.918-7.153S823.226,270.988,821.24,269.4Z" transform="translate(-567.018 -197.309)" fill="#d0cde1"/>
  <path id="Path_20884" data-name="Path 20884" d="M851.99,139.653a8.748,8.748,0,0,1-1.219-6.171,18.708,18.708,0,0,0,.533-5.562,55.057,55.057,0,0,1,3.2-8.076c1.6-2.9.838-4.114,5.864-5.028s2.97-7.466,16.222-.381a3.886,3.886,0,0,0,4.037,1.524c2.742-.533,3.732,3.276,3.732,3.276s1.828-1.067,2.513.457,5.573-.914,5.573,9.37-5.562,19.472-5.562,19.472.408-17.3-8.655-19.053-18.812-6.857-21.173-.3A49.952,49.952,0,0,1,851.99,139.653Z" transform="translate(-630.08 -90.553)" fill="#2f2e41"/>
  <ellipse id="Ellipse_2138" data-name="Ellipse 2138" cx="1.788" cy="2.384" rx="1.788" ry="2.384" transform="translate(255.215 48.445)" fill="#a0616a"/>
</svg>
