<svg xmlns="http://www.w3.org/2000/svg" viewBox="0 0 18 24"><defs><style>.cls-1{fill:#ff6765;}</style></defs><title>Asset 1pdf</title><g id="Layer_2" data-name="Layer 2"><g id="Layer_1-2" data-name="Layer 1"><path id="Icon_awesome-file-pdf" data-name="Icon awesome-file-pdf" class="cls-1" d="M8.53,12a4.43,4.43,0,0,1-.1-2.2C8.83,9.81,8.79,11.54,8.53,12Zm-.08,2.21a22.22,22.22,0,0,1-1.33,2.94,17,17,0,0,1,2.94-1,6.17,6.17,0,0,1-1.61-1.91ZM4,20.06s.62-.25,1.63-1.88A6.42,6.42,0,0,0,4,20.07ZM11.63,7.5H18V22.88A1.12,1.12,0,0,1,16.88,24H1.13A1.13,1.13,0,0,1,0,22.88H0V1.13A1.13,1.13,0,0,1,1.12,0H10.5V6.38A1.12,1.12,0,0,0,11.63,7.5Zm-.38,8.05a4.72,4.72,0,0,1-2-2.52,6.83,6.83,0,0,0,.29-3A1.18,1.18,0,0,0,8.23,9a1.2,1.2,0,0,0-.93.7,7.77,7.77,0,0,0,.38,3.61c-.57,1.37-1.21,2.71-1.91,4h0C4.49,18,2.31,19.42,3.2,20.52a1.45,1.45,0,0,0,1,.48c.84,0,1.67-.84,2.86-2.9A28.47,28.47,0,0,1,10.77,17a7.1,7.1,0,0,0,3,.92A1.23,1.23,0,0,0,15,16.74a1.27,1.27,0,0,0-.32-.85c-.66-.64-2.55-.45-3.45-.34ZM17.67,4.92,13.08.33a1.14,1.14,0,0,0-.8-.33H12V6h6V5.71A1.13,1.13,0,0,0,17.67,4.92Zm-3.47,12c.19-.13-.12-.56-2-.42C13.93,17.21,14.2,16.89,14.2,16.89Z"/></g></g></svg>