<svg xmlns="http://www.w3.org/2000/svg" xmlns:xlink="http://www.w3.org/1999/xlink" width="400" height="350" viewBox="0 0 600 454">
  <defs>
    <linearGradient id="linear-gradient" x1="0.5" y1="1" x2="0.5" gradientUnits="objectBoundingBox">
      <stop offset="0" stop-color="gray" stop-opacity="0.251"/>
      <stop offset="0.54" stop-color="gray" stop-opacity="0.122"/>
      <stop offset="1" stop-color="gray" stop-opacity="0.102"/>
    </linearGradient>
    <linearGradient id="linear-gradient-2" x1="0.5" x2="0.5" y2="0" xlink:href="#linear-gradient"/>
    <linearGradient id="linear-gradient-3" x1="0.5" x2="0.5" y2="0" xlink:href="#linear-gradient"/>
    <linearGradient id="linear-gradient-4" x1="1.096" x2="1.096" y2="0" xlink:href="#linear-gradient"/>
    <linearGradient id="linear-gradient-5" x1="0.5" x2="0.5" y2="0" xlink:href="#linear-gradient"/>
  </defs>
  <g id="undraw_team_spirit_hrr4" transform="translate(0.013 -0.004)">
    <path id="Path_21166" data-name="Path 21166" d="M43.44,426.65c9.493,37.045,29.591,69.069,61.356,84.589,66.039,32.261,214.882,15.621,325.986-3.475,57.485-9.881,107.976-37.125,144.677-75.517Z" transform="translate(-36.97 -211.975)" fill="#e6a744" opacity="0.1"/>
    <path id="Path_21167" data-name="Path 21167" d="M639.83,60.445H578.87a4.831,4.831,0,1,1,0-9.622h10.548a5.073,5.073,0,0,1-5.274-4.811,5.066,5.066,0,0,1,5.274-4.806h-7.526a5.073,5.073,0,0,1-5.274-4.811,5.07,5.07,0,0,1,5.274-4.811h31.817a90.046,90.046,0,0,0-24.819-6.242C502.13,15.167,471.152,21.9,460.209,28.818a127.587,127.587,0,0,1-44.59,17.844c-53.529,10.081-153.637,22.211-244.374-3.887-45.1-12.965-78.612,8.977-98.705,45.579H650.415c-.754-10.646-3.011-20.479-7.157-29.082A5.522,5.522,0,0,1,639.83,60.445Z" transform="translate(-50.723 -20.14)" fill="#e6a744" opacity="0.1"/>
    <path id="Path_21168" data-name="Path 21168" d="M32.457,280.23a224.172,224.172,0,0,0,2.368,64.633l535.231,17.871a228.739,228.739,0,0,0,37.186-51.753Zm211.676,46.107H233.585a4.829,4.829,0,1,1,0,9.616H172.651a4.829,4.829,0,1,1,0-9.616H183.2a4.831,4.831,0,1,1,0-9.622h-7.536a4.829,4.829,0,1,1,0-9.616h60.96a4.829,4.829,0,1,1,0,9.616h7.51a4.831,4.831,0,1,1,0,9.622Z" transform="translate(-31.16 -142.878)" fill="#e6a744" opacity="0.1"/>
    <path id="Path_21169" data-name="Path 21169" d="M632.123,149.94,47.782,162.915a196.739,196.739,0,0,0-14,55.09h588.1a210.938,210.938,0,0,0,8.491-35.113A152.3,152.3,0,0,0,632.123,149.94Zm-479.7,42.516H141.878a4.831,4.831,0,1,1,0,9.622H80.923a4.831,4.831,0,1,1,0-9.622H91.47a4.829,4.829,0,1,1,0-9.616H83.934a4.831,4.831,0,1,1,0-9.622h60.96a4.831,4.831,0,1,1,0,9.622h7.531a4.829,4.829,0,1,1,0,9.616Z" transform="translate(-32.404 -81.392)" fill="#e6a744" opacity="0.1"/>
    <ellipse id="Ellipse_2175" data-name="Ellipse 2175" cx="39.675" cy="8.919" rx="39.675" ry="8.919" transform="translate(310.681 387.116)" fill="#e6a744" opacity="0.1"/>
    <ellipse id="Ellipse_2176" data-name="Ellipse 2176" cx="71.576" cy="5.883" rx="71.576" ry="5.883" transform="translate(370.971 418.479)" fill="#e6a744" opacity="0.1"/>
    <ellipse id="Ellipse_2177" data-name="Ellipse 2177" cx="71.576" cy="8.919" rx="71.576" ry="8.919" transform="translate(83.584 406.524)" fill="#e6a744" opacity="0.1"/>
    <ellipse id="Ellipse_2178" data-name="Ellipse 2178" cx="53.856" cy="8.919" rx="53.856" ry="8.919" transform="translate(210.436 361.874)" fill="#e6a744" opacity="0.1"/>
    <ellipse id="Ellipse_2179" data-name="Ellipse 2179" cx="43.114" cy="8.919" rx="43.114" ry="8.919" transform="translate(236.214 436.165)" fill="#e6a744" opacity="0.1"/>
    <path id="Path_21170" data-name="Path 21170" d="M515.483,234.98c-1.139-7.678-8.106-25.6-8.106-25.6h0q-.182-.792-.411-1.584c-4.942-17-11.782-18.483-11.782-18.483l-24.5-5.281a1.9,1.9,0,0,1,.527.491,3.4,3.4,0,0,0-.385.058,9.617,9.617,0,0,1-2.146-4.647c-.047-.253-.09-.528-.121-.787a17.273,17.273,0,0,0-1.4-25.945c-.258-.2-.527-.4-.786-.581,1.155-1.23,1.192-2.941.327-4.652-1.93-4.013-6.128-6.554-10.442-7.795a17.68,17.68,0,0,0-10.136-.217,36.594,36.594,0,0,0-5.305,2.466c-3.254,1.626-6.856,2.915-9.287,5.592a2.731,2.731,0,0,0-.928,2.244,6.059,6.059,0,0,0,.923,1.632,4.93,4.93,0,0,1,.047,4.087,39.642,39.642,0,0,0-1.514,3.929,4.112,4.112,0,0,0,.817,3.945,17.357,17.357,0,0,0,1.529,1.056,8.029,8.029,0,0,1,1.461,1.642q1.456,1.954,2.9,3.924a40.427,40.427,0,0,1,3.634,5.529,26.958,26.958,0,0,0,2.247,4.225,6.26,6.26,0,0,0,.965,1.014l-.285-.111a4.39,4.39,0,0,0,3.222,1.315h.148a.885.885,0,0,0,.591-.243c0,.18,0,.359,0,.528.058,1.885.047,3.892-.084,5.777l-.227-.116a1.976,1.976,0,0,0-2.11.222L422.3,206.744s-4.9,6.717-4.219,18.314l-3.955,17.39s-4.942,14.755-1.139,25.29S419,284.3,419,284.3s1.519,11.972,3.8,12.949,3.27,1.505,3.27,1.505l.454,2.862h0s.153.28.422.75c1.661,2.894,7.816,13.107,11.391,12.014a45.841,45.841,0,0,1,.58,8.391l3.539,23.79s2.468,6.469,2.315,9.859,2.88,8.222,2.88,8.222a15.729,15.729,0,0,0-1.519,11.063c1.445,6.337,3.27,35.53,3.27,35.53l2.637,7.076-.074,8.3a7.926,7.926,0,0,1-1.635,3.7c-1.709,1.859-1.582,4.008-5.7,6.548s-6.729,3.5-6.729,6.865a8.842,8.842,0,0,1-.127,1.4c-.38,2.471-1.118,3.813,6.455,4.531a19.953,19.953,0,0,0,14.83-4.964s1.308-2.376,7.468-3.338c0,0,2.109-.111,2.22-1.975.042-.644.032-1.875,0-3.232-.1-2.582-.348-5.6-.675-5.746-.411-.185-1.129-2.783-1.376-3.723h1.714s1.582-11.972,0-19.724a32.04,32.04,0,0,1-.153-13.25l-.306-20.474s-2.109-2.26-.453-6.253,0-23.711,0-23.711.612-7.076,2.357-8.735.084-10.366,0-10.821l3.112,10.451s1.366,20.775,4.261,24.535l.833,9.411s5.928,8.661,4.789,13.324,1.218,21.53,1.218,21.53V420.2s-2.663,6.923,1.055,9.411l1.582-.063c-.527.491-.933,1.23-1.55,1.869-.712.734-1.118,3.528-1.345,5.93-.19,2.033-.253,3.781-.253,3.781a6.218,6.218,0,0,0,4.562,2.709c2.98.174,12.8,7.652,12.8,7.652s9.7,0,12.209-.528l.148-.037a3.3,3.3,0,0,0,1.893-1.547,3.965,3.965,0,0,0,.454-2.846c-.311-1.484-1.487-3.11-4.092-4.494-6.482-3.422-7.447-6.628-7.447-6.628l-4.256-6.4h.607a27.385,27.385,0,0,1,4.256-14.38l-.3-33.5s1.9-11.518-1.366-17.77c0,0-.269-6.622,1.914-8.655s-2.906-22.581-2.906-22.581-1.055-11.032-2.294-21.1h0c5.131,4.874,10.453-12.674,11.349-15.8h.132l-.058-.227c.037-.148.058-.222.058-.222h0s-1.139-4.056-.306-3.232,2.89-2.26,2.89-2.26-.306-16.788,3.27-25.248S515.483,234.98,515.483,234.98Zm-15.294,10.683.026-.048c.527,10.25-.1,32.124-.1,32.124s-.707,2.8-1.461,6.1l-.527-20.78h0l-.527-19.576ZM434.735,238.6s2.584,32.366,0,37.035a24.478,24.478,0,0,0-1.862,6.4c-.854-2.244-2.663-7.515-2.015-10.308.839-3.612-1.672-13.1-1.672-13.324s-.227-5.281,1.582-9.146.622-5.54.622-5.54S432.911,237.373,434.735,238.6Z" transform="translate(-210.946 -76.378)" fill="url(#linear-gradient)"/>
    <path id="Path_21171" data-name="Path 21171" d="M455.209,450.986c-2.252,9.912-11.207-5.075-13.248-8.671-.264-.47-.411-.745-.411-.745l.97-4.557,5.131-2.112a14.335,14.335,0,0,1,2.3,1.5A13.89,13.89,0,0,1,455.209,450.986Z" transform="translate(-225.123 -215.869)" fill="#d38884"/>
    <path id="Path_21172" data-name="Path 21172" d="M585.955,432.38a.694.694,0,0,1-.058.222,1.126,1.126,0,0,1-.069.238c-.881,3.095-6.1,20.516-11.144,15.679-5.516-5.281-2.837-17.49-2.837-17.49h.037l11.6-1.188,2.3,2.366h0Z" transform="translate(-286.397 -213.481)" fill="#d38884"/>
    <path id="Path_21173" data-name="Path 21173" d="M522.85,519.314l.3,33.27a27.316,27.316,0,0,0-4.177,14.258l-15,.591c-3.66-2.466-1.055-9.337-1.055-9.337V540.965s-2.315-16.735-1.2-21.372-4.7-13.2-4.7-13.2l-.823-9.342c-2.837-3.734-4.182-24.355-4.182-24.355l-3.043-10.414c.084.449,1.667,9.141,0,10.741s-2.315,8.666-2.315,8.666,1.64,19.581,0,23.537.443,6.2.443,6.2l.3,20.326a31.827,31.827,0,0,0,.148,13.149c1.566,7.694,0,19.581,0,19.581H471.456l.074-8.3-2.605-7.024s-1.793-28.992-3.212-35.271a15.777,15.777,0,0,1,1.487-10.984s-2.98-4.779-2.832-8.143-2.3-9.78-2.3-9.78l-3.47-23.611a45.927,45.927,0,0,0-1.719-13.45c-2.015-6.728-5-15.547-5-15.547l3.37.3,17,1.516s41.342-2.783,43.193-.47a7.775,7.775,0,0,1,.781,2.413c1.856,8.349,4.309,34.505,4.309,34.505s5,20.4,2.853,22.417-1.883,8.587-1.883,8.587C524.722,507.854,522.85,519.314,522.85,519.314Z" transform="translate(-230.005 -214.679)" fill="#444053"/>
    <path id="Path_21174" data-name="Path 21174" d="M492.751,692.287c-.116,1.854-2.178,1.964-2.178,1.964-6.044.951-7.331,3.306-7.331,3.306a19.4,19.4,0,0,1-14.55,4.932c-7.436-.718-6.714-2.044-6.329-4.5a9.312,9.312,0,0,0,.121-1.384c0-3.364,2.574-4.32,6.6-6.865s3.918-4.652,5.6-6.5,1.851-5.434,1.851-5.434c1.9-3.311,6.714.528,6.714.528.227,1.172,7.383,1.009,7.383,1.009s.949,3.813,1.44,4.035c.322.148.564,3.137.659,5.7C492.783,690.428,492.793,691.648,492.751,692.287Z" transform="translate(-234.856 -329.864)" fill="#b07473"/>
    <path id="Path_21175" data-name="Path 21175" d="M492.751,703.575c-.116,1.854-2.178,1.964-2.178,1.964-6.044.951-7.331,3.306-7.331,3.306a19.4,19.4,0,0,1-14.55,4.932c-7.436-.718-6.714-2.044-6.329-4.5,3.323.824,9.672,1.975,13.38-.042,5.153-2.8,8.849-4.753,8.849-4.753l8.143-4.1C492.783,701.716,492.793,702.936,492.751,703.575Z" transform="translate(-234.856 -341.152)" opacity="0.1"/>
    <path id="Path_21176" data-name="Path 21176" d="M578.774,704.174a3.218,3.218,0,0,1-1.856,1.537l-.142.037c-2.463.528-11.982.528-11.982.528s-9.625-7.451-12.536-7.62a6.122,6.122,0,0,1-4.477-2.693s.058-1.732.243-3.749c.227-2.387.622-5.159,1.324-5.888,1.287-1.347,1.582-3.169,4.477-2.017,0,0,4.135-7.3,9.008-1.658l5.042,7.657s.949,3.168,7.336,6.606c2.553,1.373,3.692,2.989,4.013,4.462A3.939,3.939,0,0,1,578.774,704.174Z" transform="translate(-275.329 -331.775)" fill="#b07473"/>
    <path id="Path_21177" data-name="Path 21177" d="M578.774,714.631c-.57.481-1.2,1-1.856,1.537l-.142.037c-2.463.528-11.982.528-11.982.528s-9.625-7.451-12.536-7.62a6.122,6.122,0,0,1-4.477-2.693s.058-1.732.243-3.749c2.964.887,7.452,2.456,8.654,4.145,1.846,2.572,7.452,6.163,7.452,6.163s10.453-1.009,15.094-1.146A3.939,3.939,0,0,1,578.774,714.631Z" transform="translate(-275.329 -342.233)" opacity="0.1"/>
    <path id="Path_21178" data-name="Path 21178" d="M504.439,215.867l-13.765,14.57s-16.681-1.23-13.77-6.163c1.482-2.514,1.714-7.773,1.582-12.347-.121-4.41-.575-8.164-.575-8.164s23.395-11.66,21.623-.787a17.919,17.919,0,0,0-.063,6.205C500.468,214.674,504.439,215.867,504.439,215.867Z" transform="translate(-241.671 -104.233)" fill="#d38884"/>
    <path id="Path_21179" data-name="Path 21179" d="M500.722,202.977a17.921,17.921,0,0,0-.063,6.205,17.16,17.16,0,0,1-12.246,5.117c-3.164,0-6.587-2.6-9.145-4.109-.121-4.415-.148-6.427-.148-6.427S502.515,192.1,500.722,202.977Z" transform="translate(-242.88 -104.233)" opacity="0.1"/>
    <path id="Path_21180" data-name="Path 21180" d="M498.519,178.749a17.24,17.24,0,1,1-6.487-13.487A17.258,17.258,0,0,1,498.519,178.749Z" transform="translate(-235.751 -86.844)" fill="#d38884"/>
    <path id="Path_21181" data-name="Path 21181" d="M518.565,436.4c-4.293,10.229-31.907,10.44-31.907,10.44V435.687l-1.672-.111c.723,3.195-1.013,10.984-1.013,10.984-21.823,3.084-27.144-9.368-27.144-9.368l.759-4.262,17,1.516s41.342-2.783,43.193-.47a7.775,7.775,0,0,1,.781,2.424Z" transform="translate(-232.345 -214.939)" opacity="0.1"/>
    <path id="Path_21182" data-name="Path 21182" d="M486.659,348.586V337.433l-1.672-.106c.723,3.169-1.013,10.984-1.013,10.984-16.423,2.318-23.5-4.156-25.995-7.5a10.219,10.219,0,0,1-1.15-1.859L463.5,301.4l1.582-55.259,2.389-9.7.554-4.652v-.053h.058l1.7.729,10.163,4.4,11.544-8.729.169-.121.575-.438.955.766,2.373,1.906,7.61,49.212s13.185,37.89,15.653,53.184c.1.613.179,1.183.243,1.716C520.691,348.327,486.659,348.586,486.659,348.586Z" transform="translate(-232.345 -118.032)" fill="#e6a744"/>
    <ellipse id="Ellipse_2180" data-name="Ellipse 2180" cx="0.981" cy="0.982" rx="0.981" ry="0.982" transform="translate(247.848 118.943)" fill="#67647e"/>
    <ellipse id="Ellipse_2181" data-name="Ellipse 2181" cx="0.981" cy="0.982" rx="0.981" ry="0.982" transform="translate(248.302 127.91)" fill="#67647e"/>
    <ellipse id="Ellipse_2182" data-name="Ellipse 2182" cx="0.981" cy="0.982" rx="0.981" ry="0.982" transform="translate(249.283 142.427)" fill="#67647e"/>
    <ellipse id="Ellipse_2183" data-name="Ellipse 2183" cx="0.981" cy="0.982" rx="0.981" ry="0.982" transform="translate(250.902 158.064)" fill="#67647e"/>
    <ellipse id="Ellipse_2184" data-name="Ellipse 2184" cx="0.981" cy="0.982" rx="0.981" ry="0.982" transform="translate(251.883 172.745)" fill="#67647e"/>
    <ellipse id="Ellipse_2185" data-name="Ellipse 2185" cx="0.981" cy="0.982" rx="0.981" ry="0.982" transform="translate(252.864 188.381)" fill="#67647e"/>
    <ellipse id="Ellipse_2186" data-name="Ellipse 2186" cx="0.981" cy="0.982" rx="0.981" ry="0.982" transform="translate(252.473 203.849)" fill="#67647e"/>
    <path id="Path_21183" data-name="Path 21183" d="M468.67,310.442s-1.1,14.38-3.112,18.562-2.911,15.917-2.911,15.917l-4.678-.528a10.221,10.221,0,0,1-1.15-1.859l6.666-37.547,1.582-55.259,2.394-9.7.554-4.652.063-.026a1.886,1.886,0,0,1,1.667.026l.221.116q-.1.285-.19.586c-1.825,5.719-2.505,16.26-2.505,16.26s2.637,19.28,2.911,28.247S468.67,310.442,468.67,310.442Z" transform="translate(-232.34 -121.612)" opacity="0.1"/>
    <path id="Path_21184" data-name="Path 21184" d="M449.951,436.416a2.7,2.7,0,0,1-.179.349c-1.814,3.068-6.413,5.017-7.811,5.55-.264-.47-.411-.745-.411-.745l.97-4.557,5.131-2.112a14.334,14.334,0,0,1,2.3,1.516Z" transform="translate(-225.123 -215.869)" opacity="0.1"/>
    <path id="Path_21185" data-name="Path 21185" d="M424.353,298.81l-4.256,2.54-3.876,17.263s-4.852,14.644-1.123,25.105,5.9,16.45,5.9,16.45,1.492,11.882,3.734,12.854,3.206,1.495,3.206,1.495l.448,2.841s6.075-2.065,8.222-5.7-1.582-12.674-1.582-12.674-3.206-7.7-2.384-11.285-1.645-13-1.645-13.2-.222-5.233,1.582-9.083.6-5.492.6-5.492l-1.123-10.984Z" transform="translate(-211.956 -151.646)" fill="#67647e"/>
    <path id="Path_21186" data-name="Path 21186" d="M549.729,336.6s-11.27,4.256-14.851.528-3.212-21.224-3.212-21.224-3.428-32.282-5.6-37.584-1.055-43.567-1.055-43.567-1.456-4.948-2.727-6.242a1.382,1.382,0,0,0-.269-.217l.438.1,1.529.327,2.373,1.906,7.61,49.213s13.185,37.89,15.653,53.184Z" transform="translate(-263.155 -118.367)" opacity="0.1"/>
    <path id="Path_21187" data-name="Path 21187" d="M586.528,432.82H586.4c-1.419.185-13.939,1.7-13.992-.908a7.655,7.655,0,0,1,.048-.9l11.6-1.188,2.3,2.366h0c.042.153.074.285.105.391Z" transform="translate(-286.97 -213.471)" opacity="0.1"/>
    <path id="Path_21188" data-name="Path 21188" d="M574.514,266.07l8.227,4.3s6.856,17.775,7.953,25.4c0,0,5.079,20.416,1.582,28.812s-3.207,25.063-3.207,25.063-2.015,3.063-2.837,2.244.3,3.211.3,3.211-14.065,1.869-14.123-.9,3.228-15.991,3.228-15.991.9-31.458-.374-36.391S574.514,266.07,574.514,266.07Z" transform="translate(-286.969 -136.196)" fill="#67647e"/>
    <path id="Path_21189" data-name="Path 21189" d="M523.831,329.52s-4.63,11.354-6.123,12.1.3,3.734.3,3.734S526.442,333.555,523.831,329.52Z" transform="translate(-260.836 -166.138)" opacity="0.1"/>
    <path id="Path_21190" data-name="Path 21190" d="M518.137,254.095c.053-.217-5.522,5.476-7.014,6.337S516.571,260.379,518.137,254.095Z" transform="translate(-257.906 -130.541)" opacity="0.1"/>
    <path id="Path_21191" data-name="Path 21191" d="M488.472,327.82s-8.507,5.508-7.383,7.689S488.472,327.82,488.472,327.82Z" transform="translate(-243.762 -165.336)" opacity="0.1"/>
    <path id="Path_21192" data-name="Path 21192" d="M524.47,480.07a45.5,45.5,0,0,0,18.506,5.809Z" transform="translate(-264.313 -237.185)" opacity="0.1"/>
    <path id="Path_21193" data-name="Path 21193" d="M491.5,501.3s6.714,8.449,9.778,8.666S491.5,501.3,491.5,501.3Z" transform="translate(-248.731 -247.204)" opacity="0.1"/>
    <path id="Path_21194" data-name="Path 21194" d="M502.071,564c-.3.148-3.808,7.62-7.383,7.847S502.071,564,502.071,564Z" transform="translate(-249.898 -276.793)" opacity="0.1"/>
    <path id="Path_21195" data-name="Path 21195" d="M568.33,594.8s6.656-1.495,8.138,3.285C576.468,598.071,576.019,596.577,568.33,594.8Z" transform="translate(-285.042 -291.224)" opacity="0.1"/>
    <path id="Path_21196" data-name="Path 21196" d="M559.84,646.239s8.064-1.648,9.778.6S559.84,646.239,559.84,646.239Z" transform="translate(-281.029 -315.327)" opacity="0.1"/>
    <path id="Path_21197" data-name="Path 21197" d="M509.494,654c0,.074-8.206,1.648-7.911,2.693s8.755.9,9.055-.75A1.584,1.584,0,0,0,509.494,654Z" transform="translate(-253.492 -319.265)" opacity="0.1"/>
    <path id="Path_21198" data-name="Path 21198" d="M554.75,667s13.485-1.648,12.657,1.193S554.75,667,554.75,667Z" transform="translate(-278.624 -325.173)" opacity="0.1"/>
    <path id="Path_21199" data-name="Path 21199" d="M420.89,352.44c.074.222,8.881,1.421,10.073,4.262,0,0-8.654-4.04-10.02-4.04" transform="translate(-215.359 -176.955)" opacity="0.1"/>
    <path id="Path_21200" data-name="Path 21200" d="M438.269,396.16s-7.315,2.318-6.793,5.809S430.732,400.353,438.269,396.16Z" transform="translate(-220.35 -197.587)" opacity="0.1"/>
    <path id="Path_21201" data-name="Path 21201" d="M437.92,427.1s2.663-3.66,5.2-2.989S437.92,427.1,437.92,427.1Z" transform="translate(-223.408 -210.736)" opacity="0.1"/>
    <path id="Path_21202" data-name="Path 21202" d="M492.055,165.258a4.151,4.151,0,0,1-.854.639c-2.11,1.23-2.69,3.126-3.692,5.313-.933,2-1.962,4.119-3.845,5.254-2.431,1.468-5.632.929-8.159,2.207a6.339,6.339,0,0,0-3.375,6.247,18.045,18.045,0,0,0,.717,2.862,20.437,20.437,0,0,1,.77,6.216,1.062,1.062,0,0,1,0,.185,17.252,17.252,0,1,1,18.458-28.923Z" transform="translate(-235.774 -86.841)" opacity="0.1"/>
    <path id="Path_21203" data-name="Path 21203" d="M483.893,151.113c-1.893-3.982-6.012-6.506-10.247-7.736a17.188,17.188,0,0,0-9.952-.211,36.481,36.481,0,0,0-5.205,2.445c-3.2,1.616-6.708,2.894-9.113,5.55a2.783,2.783,0,0,0-.912,2.229,6.225,6.225,0,0,0,.9,1.616,4.91,4.91,0,0,1,.047,4.061,37.274,37.274,0,0,0-1.487,3.9,4.11,4.11,0,0,0,.8,3.913,14.607,14.607,0,0,0,1.508,1.056,7.947,7.947,0,0,1,1.429,1.627l2.848,3.9a39.537,39.537,0,0,1,3.565,5.487,26.16,26.16,0,0,0,2.2,4.188,4.771,4.771,0,0,0,4,2.139.775.775,0,0,0,.633-.3.836.836,0,0,0,.079-.4,20.294,20.294,0,0,0-.754-6.194,17.9,17.9,0,0,1-.717-2.862,6.365,6.365,0,0,1,3.375-6.247c2.531-1.278,5.733-.739,8.159-2.2,1.888-1.141,2.916-3.258,3.845-5.281,1.018-2.186,1.582-4.082,3.692-5.313S484.943,153.209,483.893,151.113Z" transform="translate(-228.061 -77.891)" fill="#585268"/>
    <path id="Path_21204" data-name="Path 21204" d="M501.63,693.06s2.637,3.364,1.951,5.281S501.63,693.06,501.63,693.06Z" transform="translate(-253.518 -337.698)" opacity="0.1"/>
    <path id="Path_21205" data-name="Path 21205" d="M569.28,704.879s.585-4.51,2.932-4.552,2.463-.243,4.256.449,3.475,1.764,2.938,1.922-3.085-2.577-5.7-1.178A18.839,18.839,0,0,0,569.28,704.879Z" transform="translate(-285.491 -341.099)" opacity="0.1"/>
    <path id="Path_21206" data-name="Path 21206" d="M480.547,246.265l7.383-5.181s-10.8-6.39-12.088-5.492-2.173,8.977-2.173,8.977Z" transform="translate(-240.304 -121.772)" opacity="0.1"/>
    <path id="Path_21207" data-name="Path 21207" d="M480.487,245.546l7.383-5.281s-10.8-6.39-12.088-5.492-2.173,9.421-2.173,9.421Z" transform="translate(-240.275 -121.385)" fill="#e1e7ef"/>
    <path id="Path_21208" data-name="Path 21208" d="M480.487,245.546l7.383-5.281s-10.8-6.39-12.088-5.492-2.173,9.421-2.173,9.421Z" transform="translate(-240.275 -121.385)" fill="#e6a744"/>
    <path id="Path_21209" data-name="Path 21209" d="M454.372,234.644l-.222-.111a1.912,1.912,0,0,0-2.073.217l-22.15,17.992s-4.815,6.67-4.145,18.177l13.063,18.531s1.492-6.274,3.28-5.08c0,0,2.537,32.134,0,36.765s-3.655,21.968-3.655,21.968l8.581.972s.9-11.734,2.911-15.917,3.112-18.562,3.112-18.562,1.814-20.891,1.514-29.858-2.911-28.247-2.911-28.247S452.41,240.189,454.372,234.644Z" transform="translate(-217.641 -121.214)" fill="#67647e"/>
    <path id="Path_21210" data-name="Path 21210" d="M513.643,239.591l-9.2-3.411s11.718-12.854,13.185-5.724Z" transform="translate(-254.846 -118.372)" opacity="0.1"/>
    <path id="Path_21211" data-name="Path 21211" d="M513.643,238.741l-9.2-3.411s11.718-12.854,13.185-5.724Z" transform="translate(-254.846 -117.971)" fill="#e1e7ef"/>
    <path id="Path_21212" data-name="Path 21212" d="M513.643,238.741l-9.2-3.411s11.718-12.854,13.185-5.724Z" transform="translate(-254.846 -117.971)" fill="#e6a744"/>
    <path id="Path_21213" data-name="Path 21213" d="M521.32,228.114a.527.527,0,0,1,.38.084Z" transform="translate(-262.824 -118.281)" opacity="0.1"/>
    <path id="Path_21214" data-name="Path 21214" d="M523,226.422l24.418,5.281s6.719,1.494,11.571,18.383-6.645,37.579-6.645,37.579l-2.537-2.16,1.271,49.318s-11.27,4.256-14.851.528-3.206-21.24-3.206-21.24-3.433-32.277-5.6-37.584-1.055-43.562-1.055-43.562S524.371,226.126,523,226.422Z" transform="translate(-263.618 -117.481)" fill="#67647e"/>
    <path id="Path_21215" data-name="Path 21215" d="M565.073,285.742c-.343.317-.744,15.241.749,26.6a145.129,145.129,0,0,0,4.219,20.474l-2.215-45.505S566.117,284.77,565.073,285.742Z" transform="translate(-283.351 -145.375)" opacity="0.1"/>
    <path id="Path_21216" data-name="Path 21216" d="M559.7,261.6c.6.375,3.212,6.575,2.015,9.115S559.7,261.6,559.7,261.6Z" transform="translate(-280.963 -134.086)" opacity="0.1"/>
    <path id="Path_21217" data-name="Path 21217" d="M495.578,153.759a13.49,13.49,0,0,0-5.369-5.629,12.781,12.781,0,0,1,4.024,4.753c1.055,2.112.744,4.225-1.308,5.381s-2.69,3.126-3.692,5.313c-.933,2-1.962,4.119-3.85,5.281-2.426,1.468-5.627.924-8.159,2.2a6.381,6.381,0,0,0-3.375,6.253,17.978,17.978,0,0,0,.723,2.857,20.453,20.453,0,0,1,.77,6.216.835.835,0,0,1-.084.4.754.754,0,0,1-.628.3,3.63,3.63,0,0,1-1.841-.343,4.279,4.279,0,0,0,3.164,1.241.623.623,0,0,0,.707-.7,20.288,20.288,0,0,0-.765-6.216,17.366,17.366,0,0,1-.723-2.862,6.365,6.365,0,0,1,3.375-6.247c2.531-1.278,5.733-.739,8.159-2.2,1.888-1.141,2.916-3.258,3.845-5.281,1.018-2.186,1.582-4.082,3.692-5.313S496.633,155.856,495.578,153.759Z" transform="translate(-239.888 -80.538)" opacity="0.1"/>
    <path id="Path_21218" data-name="Path 21218" d="M708.743,230.925c-7.267-.143-13.68-5.281-17.314-11.56a11.627,11.627,0,0,1-1.751-4.948,5.719,5.719,0,0,1,.2-1.183,12.292,12.292,0,0,0,.527-1.811,3.17,3.17,0,0,0,0-.739s0,0,0-.042a4.371,4.371,0,0,0-1.582-3.554c-.97-.914-2.189-1.584-3.2-2.493-3.122-2.746-4.071-7.15-4.129-11.343v-.222c.037-1.8.179-3.6.163-5.392a22.7,22.7,0,0,0-.132-3.052,10.092,10.092,0,0,0-3.259-6.749c-5.2-4.225-13.944.174-19.329-3.818-1.308-.977-2.368-2.419-3.955-2.8a6.655,6.655,0,0,0-3.613.491c-3.966,1.31-8.391,3.031-9.941,6.865-.886,2.2-.638,4.716-1.45,6.944a34.69,34.69,0,0,1-2.268,4.193,6.571,6.571,0,0,0-.844,3.5,3.956,3.956,0,0,0,.258,1.864,4.752,4.752,0,0,0,1.292,1.854,6.157,6.157,0,0,1-.77,1.236c-1.013,1.241-2.568,2.112-3.623,3.348-1.951,2.266-1.878,5.344-.918,8.006S635.8,214.608,637,217.2a4.126,4.126,0,0,1,.4,3.5,10.036,10.036,0,0,1-1.751,2.038,6.41,6.41,0,0,0-1.582,3.538c-11.871,2.714-11.882,12.267-11.882,12.267h0l-6.413,16.149s-1.028,2.72-2.236,6.311l-7.589-1.362,5.274,8.84c-1,3.6-1.7,6.939-1.471,8.618,0,0-2.357,11.09,1.835,13.028l9.25,4.167a5.478,5.478,0,0,0,1.282.576l.374.169a.99.99,0,0,0,.865,0h.127a1.244,1.244,0,0,0,.527-.079,1.056,1.056,0,0,0,.464-.5.158.158,0,0,1,0-.053l2.769-.8,2.347,2.783c1.055.745,2.11,1.389,3.106,1.97l-3.634,36.132s-.585,48.056-2.357,59.008a30.713,30.713,0,0,0-.411,8.7l-.069.116c.438,3.089,1.582,3.7,1.582,3.7v-.042a.348.348,0,0,0,.069.042,31.124,31.124,0,0,1,1.9-4.077v.792c-.037,4.077-.164,9.785-.585,13.5-.717,6.337,1.835,27.223,1.835,27.223l.881,19.011a17.594,17.594,0,0,1-2.162,9.263c-2.109,3.8-4.8,9.141-5,11.512a2.364,2.364,0,0,0,0,.386h0l-4.525,5.45s-1.767,2.736,2.226,3.839c2.146.6,5.849,0,8.823-.7a5.9,5.9,0,0,0,4.572-5.746,20.341,20.341,0,0,1,3.734-7.177l.744,4.378,4.979,1.236.638-12a5.287,5.287,0,0,0,.343-2.112h0c.981-8.534-2.31-7.768-2.31-7.768a.459.459,0,0,1,.158.3l-.158-.29h0c-2.02-3.992-1.055-10.562-1.055-10.562s2.637-19.011,3.539-24.033c.649-3.549.38-15.167.164-21.652a7.739,7.739,0,0,0-.026-.787c7.721-.1,17.182-.359,23.822-1v.782l-1.224,44.914a24.684,24.684,0,0,1-1.719,8.354.457.457,0,0,1-.058.153,36.479,36.479,0,0,0-2.431,11.771l-.57,14.258v.4h0c-.991.38-2.558,1.484-2.6,4.684-.069,4.689,8.185,3.126,8.185,3.126,8.248,0,8.317-8.6,8.317-8.6s.258-7.884.654-13.16-1.245-4.114-1.245-4.114l-.127,15.008V469.526l.127-1.906v-.053h0v-.407l1.039-15.478s7.6-25.792,8.776-30.74c.839-3.517.49-14.11.216-19.967a4.657,4.657,0,0,0-.042-.776c2.357-.211,4.441-.232,5.274-.232h.385s-.39-41.423-1.376-57.033-2.553-29.895-6.482-34.194c-2.373-2.6-5.68-10.62-7.911-16.561a82.661,82.661,0,0,0,14.54,4.753c12.441,2.609,10.737-8.207,10.737-8.207l-1.26-20.453h.084a104.412,104.412,0,0,0-1.371-15.99,47.1,47.1,0,0,0-3.206-11.618c1.35-.528,2.684-1.093,3.992-1.674,3.381-1.494,7.188-3.612,7.673-7.261h-.163a4.721,4.721,0,0,0,.127-.8ZM631.624,260.5h0c.026,2.112-.053,5.777-.179,9.828l-3.95-5.281,3.961-6.432ZM684.552,271.224Zm1.645,7.99-6.582-2.112a29.559,29.559,0,0,1,4.066-5.038l.57-.528-.206.042.316-.29.19-.042-.3.29.359-.074a11.249,11.249,0,0,0,2.241,4.515c2.363,2.582-.649,3.237-.649,3.237Z" transform="translate(-302.817 -91.387)" fill="url(#linear-gradient-2)"/>
    <path id="Path_21219" data-name="Path 21219" d="M645.134,715.66l-.77,14.617-4.91-1.23-1.034-6.078Z" transform="translate(-301.734 -337.727)" fill="#a27772"/>
    <path id="Path_21220" data-name="Path 21220" d="M645.134,715.66l-.77,14.617-4.91-1.23-1.034-6.078Z" transform="translate(-301.734 -337.727)" opacity="0.1"/>
    <path id="Path_21221" data-name="Path 21221" d="M716.48,683.81l7.489,1.553,5.553-4.911V666.61l.127-1.891v-.058h0v-.4l1.034-15.383s7.494-25.607,8.66-30.523c.823-3.485.48-14,.206-19.819-.111-2.382-.206-3.977-.206-3.977l-16.533-4.008-.348,12.727-1.208,44.592a24.738,24.738,0,0,1-1.693,8.3l-.058.153A36.334,36.334,0,0,0,717.1,668l-.559,14.179v.391Z" transform="translate(-355.06 -289.322)" fill="#cc818c"/>
    <path id="Path_21222" data-name="Path 21222" d="M741.45,730.141v.391h0v-.4Z" transform="translate(-366.861 -355.191)" opacity="0.1"/>
    <path id="Path_21223" data-name="Path 21223" d="M716.48,763.1l7.489,1.553,5.553-4.911V758.56a1.585,1.585,0,0,1-.8,1.267l-.079.048a14.908,14.908,0,0,1-8.406,1.663l-2.922-.248a2.735,2.735,0,0,0-.775.19v.391Z" transform="translate(-355.06 -368.608)" opacity="0.1"/>
    <path id="Path_21224" data-name="Path 21224" d="M726.387,747.106l.079-.042a1.585,1.585,0,0,0,.807-1.373l.121-14.9s1.614-1.156,1.224,4.082-.643,13.065-.643,13.065-.063,8.534-8.2,8.534c0,0-8.138,1.553-8.074-3.105s3.359-4.848,3.359-4.848l2.922.253A14.872,14.872,0,0,0,726.387,747.106Z" transform="translate(-352.8 -355.453)" fill="#b07473"/>
    <path id="Path_21225" data-name="Path 21225" d="M642.52,685c.19,3.364,10.073,1.421,10.073,1.421l6.65-12.928s5.553-4.272,2.774-8.022a5.98,5.98,0,0,1-.406-.639l-.026-.032h0c-.058-.1-.111-.2-.164-.3h0c-1.994-3.961-1.013-10.456-1.013-10.456s2.579-18.884,3.486-23.864c.638-3.517.374-15.056.163-21.509-.084-2.683-.163-4.484-.163-4.484l-16.407-4.4v4.9c-.037,4.05-.164,9.717-.58,13.4-.707,6.268,1.809,27.027,1.809,27.027l.87,18.89a17.514,17.514,0,0,1-2.11,9.194c-2.057,3.771-4.746,9.083-4.931,11.433A2.3,2.3,0,0,0,642.52,685Z" transform="translate(-320.105 -293.682)" fill="#cc818c"/>
    <path id="Path_21226" data-name="Path 21226" d="M642.516,743.128c.19,3.364,10.073,1.421,10.073,1.421l6.65-12.927s5.553-4.272,2.774-8.022a5.986,5.986,0,0,1-.406-.639c-.09,1.959-2.236,6.865-2.236,6.865s-5.49,11-7.236,13.519-9.329-.47-9.614-.576A2.314,2.314,0,0,0,642.516,743.128Z" transform="translate(-320.101 -351.808)" opacity="0.1"/>
    <path id="Path_21227" data-name="Path 21227" d="M657.026,722.285s3.249-.755,2.278,7.715h0a5.457,5.457,0,0,1-2.568,4.843,18.49,18.49,0,0,0-7.726,10.731h0a5.85,5.85,0,0,1-4.509,5.7c-2.932.687-6.587,1.289-8.7.7-3.94-1.1-2.194-3.813-2.194-3.813l4.52-5.371s7.879,3.105,9.619.581,7.236-13.514,7.236-13.514S657.991,723,657.026,722.285Z" transform="translate(-315.709 -351.481)" fill="#b07473"/>
    <path id="Path_21228" data-name="Path 21228" d="M728.168,593.52l-.348,12.727c4.4-.428,7.557-1.025,8.1-1.864,1.166-1.806,5.4-2.567,8.992-2.878-.111-2.382-.206-3.977-.206-3.977Z" transform="translate(-360.419 -290.723)" opacity="0.1"/>
    <path id="Path_21229" data-name="Path 21229" d="M651.94,607.621a6.04,6.04,0,0,1,1.809-2.186c1.74-.966,1.551,6.21,1.551,6.21s5.8.053,13.211-.042c-.084-2.683-.163-4.489-.163-4.489L651.94,602.72S651.972,604.758,651.94,607.621Z" transform="translate(-324.557 -295.065)" opacity="0.1"/>
    <path id="Path_21230" data-name="Path 21230" d="M646.858,508.072s1.941-5.281,3.692-6.221,1.551,6.205,1.551,6.205,42.623.391,44.754-2.91,14.529-3.105,14.529-3.105S711,460.914,710.028,445.4s-2.516-29.684-6.392-33.951c-2.505-2.762-6.07-11.7-8.275-17.654-1.2-3.253-1.994-5.624-1.994-5.624l-40.682,2.324-.332,3.3-4.319,43.261s-.58,47.723-2.326,58.586S646.858,508.072,646.858,508.072Z" transform="translate(-321.348 -193.816)" fill="#444053"/>
    <g id="Group_11850" data-name="Group 11850" transform="translate(323.849 194.354)" opacity="0.1">
      <path id="Path_21231" data-name="Path 21231" d="M701.908,505.147c2.11-3.3,14.529-3.105,14.529-3.105s-.385-41.127-1.355-56.643-2.516-29.684-6.392-33.951c-2.516-2.772-6.07-11.7-8.275-17.654-1.007-2.735-1.73-4.843-1.93-5.445l3.164-.18s.8,2.371,2,5.624c2.2,5.957,5.764,14.892,8.269,17.654,3.876,4.267,5.427,18.43,6.392,33.951s1.361,56.643,1.361,56.643-12.4-.19-14.535,3.105c-1.819,2.815-33.183,2.947-42.286,2.92C674.532,508.041,700.263,507.692,701.908,505.147Z" transform="translate(-653.563 -388.17)"/>
      <path id="Path_21232" data-name="Path 21232" d="M647.281,603.359c.786-.438,1.176.776,1.371,2.25a30.483,30.483,0,0,0-1.83,3.971s-1.123-.607-1.582-3.7A7.186,7.186,0,0,1,647.281,603.359Z" transform="translate(-645.24 -489.678)"/>
    </g>
    <path id="Path_21233" data-name="Path 21233" d="M664.959,194.525c-2.816,3.844.032,9.31-2.99,13.049-1,1.236-2.531,2.112-3.57,3.327-1.925,2.25-1.851,5.307-.907,7.948s2.637,5.049,3.839,7.626a4.085,4.085,0,0,1,.39,3.475,9.839,9.839,0,0,1-1.73,2.023,7.3,7.3,0,0,0-.949,7.742c1.044,2.556,3.038,4.753,5,6.918a3.413,3.413,0,0,0,4.963,1.135,19.551,19.551,0,0,0,8.881-25.5c-1.635-3.924-4.361-7.684-4.388-11.829,0-3.29,1.688-6.432,1.988-9.706.364-3.982-1.988-10.3-6.787-12.04C669.02,191.246,666.388,192.55,664.959,194.525Z" transform="translate(-326.876 -99.679)" fill="#585268"/>
    <path id="Path_21234" data-name="Path 21234" d="M664.959,194.525c-2.816,3.844.032,9.31-2.99,13.049-1,1.236-2.531,2.112-3.57,3.327-1.925,2.25-1.851,5.307-.907,7.948s2.637,5.049,3.839,7.626a4.085,4.085,0,0,1,.39,3.475,9.839,9.839,0,0,1-1.73,2.023,7.3,7.3,0,0,0-.949,7.742c1.044,2.556,3.038,4.753,5,6.918a3.413,3.413,0,0,0,4.963,1.135,19.551,19.551,0,0,0,8.881-25.5c-1.635-3.924-4.361-7.684-4.388-11.829,0-3.29,1.688-6.432,1.988-9.706.364-3.982-1.988-10.3-6.787-12.04C669.02,191.246,666.388,192.55,664.959,194.525Z" transform="translate(-326.876 -99.679)" opacity="0.1"/>
    <path id="Path_21235" data-name="Path 21235" d="M703.755,464.55c-5.638.3-10.943,2.725-15.88,5.471s-9.714,5.857-15.025,7.805" transform="translate(-334.44 -229.861)" opacity="0.1"/>
    <path id="Path_21236" data-name="Path 21236" d="M701.094,489.74a23.23,23.23,0,0,0-14.635,7.129c-1.371,1.452-2.553,3.079-3.982,4.473a17.683,17.683,0,0,1-7.847,4.452" transform="translate(-335.281 -241.748)" opacity="0.1"/>
    <path id="Path_21237" data-name="Path 21237" d="M698.4,508.91a25.581,25.581,0,0,0-11.771,7.108c-.865.935-1.651,1.933-2.516,2.867-4.667,5.017-11.26,7.678-17.625,10.2" transform="translate(-331.434 -250.795)" opacity="0.1"/>
    <path id="Path_21238" data-name="Path 21238" d="M706.037,242.816a116.01,116.01,0,0,0,1.16,13.477c.527,3.168,1.266,6.02,2.326,7.282,3.1,3.7-15.109,8.634-15.109,8.634l-10.753-8.344s8.523-7.858,4.551-15.52S706.037,242.816,706.037,242.816Z" transform="translate(-339.548 -125.093)" fill="#cc818c"/>
    <path id="Path_21239" data-name="Path 21239" d="M658.79,393.794H701.8c-1.2-3.253-1.994-5.624-1.994-5.624l-40.682,2.324Z" transform="translate(-327.795 -193.816)" opacity="0.1"/>
    <path id="Path_21240" data-name="Path 21240" d="M646.016,338.309H692a16,16,0,0,1,1.841-12.209,26.98,26.98,0,0,1,4.815-6.253l.316-.29L715.024,316l.865-.19s.132-29.23-10.2-33.243a60.417,60.417,0,0,1-16.533-9.437l-14.2,4.394-10.463-5.281c-3.359,3.617-12.272,2.2-12.272,2.2-14.593,1.679-14.593,12.674-14.593,12.674s8.522,19.914,9.171,19.914S646.016,338.309,646.016,338.309Z" transform="translate(-317.789 -139.107)" fill="#e6a744"/>
    <path id="Path_21241" data-name="Path 21241" d="M672.378,357.049S663,354.969,659.81,351.33" transform="translate(-328.277 -176.431)" opacity="0.1"/>
    <path id="Path_21242" data-name="Path 21242" d="M763.545,341.51l-10.875,8.925a18.583,18.583,0,0,0,.359,2.112l.316-.29L769.4,348.7Z" transform="translate(-372.164 -171.797)" opacity="0.1"/>
    <path id="Path_21243" data-name="Path 21243" d="M717.46,380.144s2.378,1.341,6.023,3.105h6.249a15.994,15.994,0,0,1,1.841-12.209l-11.017-3.57C724.305,370.961,717.46,380.144,717.46,380.144Z" transform="translate(-355.523 -184.048)" opacity="0.1"/>
    <path id="Path_21244" data-name="Path 21244" d="M632.5,293.76l-6.455,3.491-6.329,16.038s-6.587,17.585-5.944,22.243c0,0-2.321,10.995,1.809,12.933l10.759,4.88a1,1,0,0,0,1.292-1.384c-1.535-2.91-3.222-7.462-.527-9.965l-3.1-6.464,11.207-18.367,3.744-6.337Z" transform="translate(-306.209 -149.263)" fill="#e6a744"/>
    <path id="Path_21245" data-name="Path 21245" d="M677.015,351.228c.559,2.281,2.447,5.809,8.7,7.124l6.856,5.624,7.294,3.311,2.974,1.347,1.26-9.12-2.864-1.584-3.338-1.827s-7.531-13.662-19.455-7.921A2.642,2.642,0,0,0,677.015,351.228Z" transform="translate(-336.368 -174.28)" opacity="0.1"/>
    <path id="Path_21246" data-name="Path 21246" d="M677.764,349.786c.559,2.287,2.442,5.809,8.691,7.124l6.856,5.624,7.3,3.311,2.969,1.347,1.26-9.12-2.864-1.584-3.312-1.811s-7.536-13.662-19.46-7.895a2.642,2.642,0,0,0-1.44,3Z" transform="translate(-336.728 -173.614)" fill="#cc818c"/>
    <ellipse id="Ellipse_2187" data-name="Ellipse 2187" cx="16.66" cy="16.682" rx="16.66" ry="16.682" transform="translate(337.814 96.188)" opacity="0.1"/>
    <ellipse id="Ellipse_2188" data-name="Ellipse 2188" cx="16.66" cy="16.682" rx="16.66" ry="16.682" transform="translate(337.814 95.802)" fill="#cc818c"/>
    <path id="Path_21247" data-name="Path 21247" d="M718.39,285.41l-5.01-9.748s7.331-2.968,7.863-6.406,7.025,4.029,5.622,6.506S718.39,285.41,718.39,285.41Z" transform="translate(-353.595 -137.279)" opacity="0.1"/>
    <path id="Path_21248" data-name="Path 21248" d="M718.39,283.94l-5.01-9.748s7.331-2.968,7.863-6.406,7.025,4.035,5.622,6.506S718.39,283.94,718.39,283.94Z" transform="translate(-353.595 -136.586)" fill="#e6a744"/>
    <path id="Path_21249" data-name="Path 21249" d="M627.227,343.623,654.91,380.89s-10.2,5.561-24.26-4.394l-6.07-7.245L607.25,340Z" transform="translate(-303.436 -171.084)" fill="#f6f8fb"/>
    <path id="Path_21250" data-name="Path 21250" d="M634.219,376.65l2.521-.069s15.4-14.966,19.181-7.393-9.593,14.649-9.593,14.649l-4.066,2.2-5.3,1.584-3.391-4.557Z" transform="translate(-315.875 -183.849)" fill="#cc818c"/>
    <path id="Path_21251" data-name="Path 21251" d="M634.812,391.9a3.772,3.772,0,0,1,.063,2.609,1.055,1.055,0,0,1-.459.5,1.175,1.175,0,0,1-.527.074,5.3,5.3,0,0,1-3.475-1.722,15.891,15.891,0,0,1-2.252-3.264,6.026,6.026,0,0,1-1.155-3.887c.274-1.484,1.582-2.514,2.864-3.348,2.553-1.69,2.637.28,3.2,2.456S634.226,389.7,634.812,391.9Z" transform="translate(-312.75 -191.01)" opacity="0.1"/>
    <path id="Path_21252" data-name="Path 21252" d="M634.08,391.9a3.8,3.8,0,0,1,.063,2.609,1.055,1.055,0,0,1-.459.5,1.185,1.185,0,0,1-.527.074,5.272,5.272,0,0,1-3.476-1.722,15.712,15.712,0,0,1-2.257-3.264,5.99,5.99,0,0,1-1.15-3.887c.269-1.484,1.582-2.514,2.858-3.348,2.558-1.69,2.637.28,3.2,2.456S633.489,389.7,634.08,391.9Z" transform="translate(-312.404 -191.01)" fill="#e6a744"/>
    <path id="Path_21253" data-name="Path 21253" d="M623.85,315.991l1.287-2.181-1.123,4.05Z" transform="translate(-294.848 -148.089)" opacity="0.1"/>
    <path id="Path_21254" data-name="Path 21254" d="M721.19,375.788l2.969,1.347,1.26-9.12-2.864-1.584C724.534,368.7,722.8,372.9,721.19,375.788Z" transform="translate(-357.286 -183.557)" opacity="0.1"/>
    <path id="Path_21255" data-name="Path 21255" d="M731.549,362.283s-9.588.586-13.659-2.033" transform="translate(-355.726 -180.64)" opacity="0.1"/>
    <g id="Group_11851" data-name="Group 11851" transform="translate(333.812 133.893)" opacity="0.1">
      <path id="Path_21256" data-name="Path 21256" d="M737.7,328.362a27.023,27.023,0,0,1,4.815-6.258,12.844,12.844,0,0,1,1.419-.771l14.946-3.073.865-.19s.132-29.23-10.2-33.243a62.061,62.061,0,0,1-16.117-9.088l1.134-.349a60.255,60.255,0,0,0,16.533,9.437c10.337,4.008,10.2,33.243,10.2,33.243h-1.551L744.452,321s-.659.639-.86.824A29.677,29.677,0,0,0,738.7,328.3a16.253,16.253,0,0,0-1.282,12.273H735.84A16.161,16.161,0,0,1,737.7,328.362Z" transform="translate(-696.882 -274.487)"/>
      <path id="Path_21257" data-name="Path 21257" d="M664.13,277.91c.248-.037.485-.074.744-.1a26.7,26.7,0,0,0,3.164.259A28.728,28.728,0,0,1,664.13,277.91Z" transform="translate(-664.13 -275.629)"/>
      <path id="Path_21258" data-name="Path 21258" d="M697.221,278.977l-9.461-4.8a5.008,5.008,0,0,0,.527-.5l9.873,5Z" transform="translate(-675.298 -273.68)"/>
    </g>
    <path id="Path_21259" data-name="Path 21259" d="M747.623,340l6.329,7.763,1.292,21.081s1.677,10.731-10.59,8.143S718.19,366.4,718.19,366.4s6.856-9.183,3.1-12.674l17.567,5.693s2.969-.65.643-3.232-2.737-7.245-2.737-7.245Z" transform="translate(-355.868 -171.084)" fill="#e6a744"/>
    <path id="Path_21260" data-name="Path 21260" d="M779.42,382.17l3.486,4.008A5.031,5.031,0,0,1,779.42,382.17Z" transform="translate(-384.806 -190.985)" opacity="0.1"/>
    <path id="Path_21261" data-name="Path 21261" d="M736.99,360.8l5.427,6.981-2.711.65Z" transform="translate(-348.32 -170.264)" opacity="0.1"/>
    <path id="Path_21262" data-name="Path 21262" d="M665.334,198.061a5.578,5.578,0,0,1,.58-4.547,35.917,35.917,0,0,0,2.241-4.167c.8-2.207.554-4.705,1.424-6.865,1.535-3.829,5.9-5.54,9.8-6.865a6.584,6.584,0,0,1,3.565-.486c1.582.375,2.611,1.811,3.9,2.778,5.305,3.961,13.933-.4,19.065,3.792a10,10,0,0,1,3.212,6.7,59.2,59.2,0,0,1-.032,7.615c-.084,4.446.749,9.31,4.071,12.257,1,.887,2.183,1.553,3.164,2.471a4.329,4.329,0,0,1,1.582,3.533,12.257,12.257,0,0,1-.527,1.8c-.659,2.318.327,4.753,1.529,6.865,3.586,6.216,9.909,11.338,17.077,11.481-.48,3.623-4.219,5.724-7.568,7.208-4.219,1.9-8.712,3.755-13.359,3.517s-9.493-3.216-10.305-7.8c-.28-1.584-.243-3.491-1.582-4.314-.823-.5-1.888-.375-2.774-.75-1.282-.528-1.914-1.97-2.336-3.3a29.7,29.7,0,0,1-1.376-8.449c-.058-3.4.39-7.113-1.535-9.912-1.783-2.593-4.947-3.908-7-6.29-1.9-2.207-3.961-4.869-7.072-5.281C676.779,198.442,667.876,204.3,665.334,198.061Z" transform="translate(-330.758 -93.234)" opacity="0.1"/>
    <path id="Path_21263" data-name="Path 21263" d="M665.334,196.591a5.578,5.578,0,0,1,.58-4.547,35.919,35.919,0,0,0,2.241-4.167c.8-2.207.554-4.705,1.424-6.865,1.535-3.834,5.9-5.545,9.8-6.865a6.583,6.583,0,0,1,3.565-.486c1.582.375,2.611,1.811,3.9,2.778,5.305,3.961,13.933-.4,19.065,3.792a10,10,0,0,1,3.212,6.7,59.11,59.11,0,0,1-.032,7.61c-.084,4.447.749,9.31,4.071,12.257,1,.887,2.183,1.553,3.164,2.471a4.329,4.329,0,0,1,1.582,3.533,12.257,12.257,0,0,1-.527,1.8c-.659,2.318.327,4.753,1.529,6.865,3.6,6.194,9.894,11.333,17.061,11.475-.48,3.623-4.219,5.724-7.568,7.214-4.219,1.891-8.712,3.749-13.359,3.512s-9.493-3.216-10.305-7.8c-.28-1.584-.243-3.491-1.582-4.314-.823-.5-1.888-.375-2.774-.75-1.282-.528-1.914-1.97-2.336-3.3a29.662,29.662,0,0,1-1.376-8.449c-.058-3.4.39-7.113-1.535-9.912-1.783-2.593-4.947-3.908-7-6.29-1.9-2.207-3.961-4.869-7.072-5.281C676.779,196.972,667.876,202.839,665.334,196.591Z" transform="translate(-330.758 -92.54)" fill="#585268"/>
    <path id="Path_21264" data-name="Path 21264" d="M685.055,284.633l9.551-7.763s-6.54-3.549-7.32-6.575-6.012,1.436-5.479,4.151S685.055,284.633,685.055,284.633Z" transform="translate(-338.654 -137.712)" opacity="0.1"/>
    <path id="Path_21265" data-name="Path 21265" d="M685.793,282.427l9.551-7.758s-6.54-3.549-7.288-6.575-6.012,1.436-5.48,4.151S685.793,282.427,685.793,282.427Z" transform="translate(-339.018 -136.673)" fill="#e6a744"/>
    <ellipse id="Ellipse_2189" data-name="Ellipse 2189" cx="0.759" cy="0.76" rx="0.759" ry="0.76" transform="translate(355.941 143.731)" opacity="0.1"/>
    <ellipse id="Ellipse_2190" data-name="Ellipse 2190" cx="0.759" cy="0.76" rx="0.759" ry="0.76" transform="translate(355.941 147.956)" opacity="0.1"/>
    <ellipse id="Ellipse_2191" data-name="Ellipse 2191" cx="0.759" cy="0.76" rx="0.759" ry="0.76" transform="translate(355.941 152.176)" opacity="0.1"/>
    <g id="Group_11852" data-name="Group 11852" transform="translate(334.422 86.772)" opacity="0.1">
      <path id="Path_21266" data-name="Path 21266" d="M672,190.945c.754-2.075.591-4.4,1.3-6.5a7.1,7.1,0,0,0-.807,1.489c-.875,2.181-.628,4.679-1.429,6.865l-.053.127A12.076,12.076,0,0,0,672,190.945Z" transform="translate(-667.992 -184.45)"/>
      <path id="Path_21267" data-name="Path 21267" d="M729.551,253.608c-4.219,1.891-8.712,3.749-13.359,3.512s-9.493-3.216-10.305-7.795c-.28-1.584-.243-3.5-1.582-4.32-.823-.5-1.888-.375-2.774-.75-1.282-.528-1.914-1.97-2.336-3.3a29.662,29.662,0,0,1-1.376-8.449c-.058-3.4.4-7.108-1.529-9.912-1.788-2.593-4.952-3.9-7.009-6.29-1.9-2.2-3.961-4.869-7.072-5.281-4.267-.581-13.185,5.281-15.705-.961a4.917,4.917,0,0,1,.163-3.607c-.185.312-.364.623-.527.94a5.6,5.6,0,0,0-.575,4.552c2.537,6.231,11.439.375,15.706.961,3.112.422,5.174,3.089,7.072,5.281,2.057,2.387,5.221,3.7,7,6.295,1.93,2.8,1.477,6.511,1.535,9.907a29.665,29.665,0,0,0,1.377,8.449c.422,1.331,1.055,2.757,2.336,3.3.886.375,1.951.253,2.774.75,1.361.824,1.324,2.751,1.582,4.32.823,4.579,5.664,7.557,10.305,7.795s9.113-1.616,13.359-3.512c3.059-1.362,6.466-3.248,7.383-6.337C734.529,251.163,731.934,252.546,729.551,253.608Z" transform="translate(-665.288 -194.837)"/>
    </g>
    <path id="Path_21268" data-name="Path 21268" d="M873.29,299.164c-11.165-6.432-15.384-8.016-15.4-8.016l-.232-.164a9.3,9.3,0,0,1-2.811-3.559,7.452,7.452,0,0,1,0-.766.326.326,0,0,0,0,.074c.174-3.406,2.595-6.506,4.889-9.21l5.87-6.913a6.814,6.814,0,0,0,1.514-2.4,5.535,5.535,0,0,0,.158-1.473v-.6c-.032-1.716-.079-3.438-.142-5.154-.053-1.5-.438-3.39-1.935-3.7-.781-.158-1.814.121-2.226-.528a1.285,1.285,0,0,1-.1-.892.306.306,0,0,0,0,.074v-.084a19.911,19.911,0,0,0,.554-3.533,4.821,4.821,0,0,0-.243-1.79c-.865-2.487-3.855-3.512-6.5-3.982s-5.606-.871-7.262-2.941a21.517,21.517,0,0,0-1.445-1.991,5.7,5.7,0,0,0-2.7-1.336,15.275,15.275,0,0,0-9.825.855c-1.276.57-2.558,1.341-3.961,1.257s-2.7-1.1-4.135-1.341c-2.32-.4-4.541,1.31-5.685,3.332a8.157,8.157,0,0,0-1.055,3.929v.232h0a5.75,5.75,0,0,0,1.508,4.013c1,1.056,2.489,1.753,2.906,3.121.169.554.127,1.157.28,1.722a1.537,1.537,0,0,0,.063.206l-.074.1a17.442,17.442,0,0,0-3.692,10.741,17.825,17.825,0,0,0,12.51,16.9v.528a7.6,7.6,0,0,1-2.426,5.915l-15.816,6.327s-9.535-1.135-12.974,12.817a23.823,23.823,0,0,0-.591,7.076,20.535,20.535,0,0,1-2.637,10.6c-3.908,7.668-3.017,25.269,4.978,27.012,7.547,1.648,10.5.961,10.811.882v.306c-.127,3.306-1.324,31.791-5.675,35.234-1.2.956-.981,1.584,0,2.033,0,0,0,.185-.026.528-.132,2.112-.8,10.034-3.692,14.533-3.38,5.228-3.027,35.382-3.027,35.382l-2.3,17.775s1.419,10.979,0,12.9c-1.271,1.706-2.959,42.321-3.312,51.129h-.148a4.282,4.282,0,0,0-3.417,2.112c-1.867,3.036-8.406,8.65-8.406,8.65-1.419,2.017-6.666,3.95-9.44,4.858a5.86,5.86,0,0,0-1.055.465,5.631,5.631,0,0,0-2.384,2.514,2.7,2.7,0,0,0-.253,2.112c.707,1.737,15.458,2.963,19.192,1.215,2.932-1.368,14.556-3.169,19.381-3.876a3.979,3.979,0,0,0,3.449-3.454,2.278,2.278,0,0,0-.443-1.727h0c-.923-1.146-1.392-4.277-1.582-6.337a4.278,4.278,0,0,0,1.086-.644,46.453,46.453,0,0,1,2.637-18.647c3.555-9.411,4.62-26.837,3.734-38.165,0,0,10.838-46.7,19.371-51.061h0c.132.169,4.272,5.487,4.8,21.958.527,16.73,6.571,27.709,6.571,27.709s-2.669,28.406,0,39.036l-3.486,16.767c-.258-.217-.422-.385-.422-.385s.105.465.248,1.209l-.074.359.153.032a33.046,33.046,0,0,1,.738,7.921c-.137,1.22-.48,2.894-.712,4.536-.369,2.582-.469,5.086.886,5.635,2.226.9,15.294,2.112,17.509-.76a4.118,4.118,0,0,0,.643-4.3,4.362,4.362,0,0,0-.643-1.1s-3.47-5.677-2.489-9.68a2.95,2.95,0,0,0-.417-2.3,118.211,118.211,0,0,1,2.99-18.779c2.226-8.386,6.914-26.774,3.465-38.862h0q-.2-.713-.443-1.394a52.263,52.263,0,0,1-1.957-20.39,41.609,41.609,0,0,1,0-17.775c2.136-9.759,3.628-19.344,3.628-19.344s1.176-12.9.148-20.8a5.219,5.219,0,0,0-.068-.528l.559-.127s-3.022-13.419-4.087-21.958c-.253-2.017-.58-4.568-.939-7.293a18.568,18.568,0,0,0,2.9-.723c9.593-3.311,12.615-33.269,12.615-33.269v-9.506S884.486,305.612,873.29,299.164ZM801.8,530.593c-.3-.148-.469-.248-.469-.248h0Z" transform="translate(-381.4 -123.816)" fill="url(#linear-gradient-3)"/>
    <path id="Path_21269" data-name="Path 21269" d="M890.7,603.6c4.161,11.982-.7,31.432-2.953,40.135a121.473,121.473,0,0,0-2.948,19.106,40.131,40.131,0,0,1-15.263-.349l3.644-17.886c-2.605-10.594,0-38.9,0-38.9s-5.9-10.942-6.418-27.614c-.527-16.408-4.551-21.715-4.678-21.879h0c-8.322,4.341-18.9,50.887-18.9,50.887.865,11.285-.179,28.654-3.644,38.022a47.058,47.058,0,0,0-2.6,18.578c-1.213,1.056-2.9,1.2-4.746.908-4.952-.8-10.89-5.075-10.89-5.075s1.9-50.7,3.3-52.619,0-12.854,0-12.854l2.252-17.712S826.5,546.3,829.8,541.094c2.848-4.5,3.5-12.41,3.628-14.485v-.528l5.021-6.02s48.561-3.649,52.211,0c.891.893,1.445,2.931,1.772,5.492,1,7.879-.148,20.727-.148,20.727s-1.456,9.553-3.539,19.275a42.365,42.365,0,0,0,0,17.717A53.1,53.1,0,0,0,890.7,603.6Z" transform="translate(-404.6 -255.292)" fill="#65617d"/>
    <path id="Path_21270" data-name="Path 21270" d="M930.721,804.719c-2.167,2.867-14.914,1.653-17.087.76-1.324-.528-1.224-3.047-.865-5.619.227-1.632.559-3.3.7-4.515.343-3.126-1.055-9.469-1.055-9.469s2.858,3.042,3.549,0a3.31,3.31,0,0,1,2.479-2.355,6.468,6.468,0,0,1,4.5.28c2.252.982,6.007,3.068,5.337,5.888-.955,3.987,2.426,9.648,2.426,9.648a4.393,4.393,0,0,1,.633,1.088,4.171,4.171,0,0,1-.617,4.293Z" transform="translate(-447.66 -380.256)" fill="#a27772"/>
    <path id="Path_21271" data-name="Path 21271" d="M930.833,819.568c-2.168,2.867-14.914,1.653-17.087.76-1.324-.528-1.224-3.047-.865-5.619,1.371.644,3.692,1.178,7.578.818a21.355,21.355,0,0,1,2.727-.084,63.337,63.337,0,0,0,8.28-.169A4.171,4.171,0,0,1,930.833,819.568Z" transform="translate(-447.772 -395.106)" opacity="0.1"/>
    <path id="Path_21272" data-name="Path 21272" d="M852.931,637.82c.865,11.285-.179,28.654-3.644,38.022a47.058,47.058,0,0,0-2.6,18.578c-1.213,1.056-2.9,1.2-4.746.908,1.055-7.325,5.506-38.883,8.359-63.819a104.5,104.5,0,0,1,18.458-47.929l3.032,3.343C863.51,591.274,852.931,637.82,852.931,637.82Z" transform="translate(-414.354 -286.033)" opacity="0.1"/>
    <path id="Path_21273" data-name="Path 21273" d="M905.585,322.028l-2.109,10.419L893.1,349.9l-12.789-5.471s-17.4-18.235-6.46-20.838a9.676,9.676,0,0,0,3.628-1.616,7.517,7.517,0,0,0,2.832-6.284,19.286,19.286,0,0,0-1.761-7.467l22.372-7.034a36,36,0,0,0-1.582,9.073c-.174,6.1,2.11,9.109,3.95,10.562A6.716,6.716,0,0,0,905.585,322.028Z" transform="translate(-427.729 -152.769)" fill="#fbbebe"/>
    <path id="Path_21274" data-name="Path 21274" d="M908.35,301.19a36,36,0,0,0-1.582,9.073,17.034,17.034,0,0,1-1.3,1.389,17.682,17.682,0,0,1-17.688,4.04A19.286,19.286,0,0,0,886,308.224Z" transform="translate(-435.178 -152.769)" opacity="0.1"/>
    <path id="Path_21275" data-name="Path 21275" d="M901.537,279.932a17.621,17.621,0,1,1-5.159-12.549,17.706,17.706,0,0,1,5.159,12.549Z" transform="translate(-425.796 -134.379)" fill="#fbbebe"/>
    <path id="Path_21276" data-name="Path 21276" d="M905.585,339.56l-2.109,10.419L893.1,367.432l-12.789-5.471s-17.4-18.235-6.46-20.838a9.677,9.677,0,0,0,3.628-1.616c-1.972,5.429,6.17,16.725,6.17,16.725.949,1.4,3.122.528,3.122.528,5.247-.8,14.9-15.906,16.481-18.42A6.715,6.715,0,0,0,905.585,339.56Z" transform="translate(-427.729 -170.301)" opacity="0.1"/>
    <path id="Path_21277" data-name="Path 21277" d="M903.355,525.554c-3.08.7-20.12,4.478-26.58,3.533-7.109-1.056-20.932-1.732-20.932-1.732s-8.8.475-11.513-.766v-.528l5.021-6.02s48.561-3.649,52.211,0C902.474,520.954,903.028,522.993,903.355,525.554Z" transform="translate(-415.484 -255.282)" opacity="0.1"/>
    <path id="Path_21278" data-name="Path 21278" d="M860.589,356.9s-9.15-12.674-5.7-17.638L839.431,345.6s-9.3-1.13-12.657,12.774a24.224,24.224,0,0,0-.575,7.055,20.9,20.9,0,0,1-2.547,10.562c-3.813,7.641-2.948,25.185,4.857,26.932s10.574.866,10.574.866-1.055,31.78-5.548,35.429,11.5,2.778,11.5,2.778,13.823.7,20.937,1.737,27.055-3.649,27.055-3.649-2.948-13.371-3.992-21.879-3.475-26.631-3.475-26.631l17.688-24s3.122-14.5-7.805-20.928-15.036-8-15.036-8-10.98,17.9-16.7,18.768C863.711,357.418,861.538,358.295,860.589,356.9Z" transform="translate(-404.673 -170.447)" fill="#e6a744"/>
    <path id="Path_21279" data-name="Path 21279" d="M854.538,382.74s-.169,5.735.87,7.99,4.857,14.786,4.857,14.786H851.59s4.683-5.038,4.34-7.472S854.538,382.74,854.538,382.74Z" transform="translate(-418.915 -191.254)" opacity="0.1"/>
    <path id="Path_21280" data-name="Path 21280" d="M881.09,442.88s-19.155-4.689-20.937-8.682-6.7-12.933-6.7-12.933l2.02-2.725,9.314,7.319s11.075,8.856,16.307,9.727S881.09,442.88,881.09,442.88Z" transform="translate(-419.794 -208.148)" fill="#fbbebe"/>
    <path id="Path_21281" data-name="Path 21281" d="M881.09,442.88s-19.155-4.689-20.937-8.682-6.7-12.933-6.7-12.933l2.02-2.725,9.314,7.319s11.075,8.856,16.307,9.727S881.09,442.88,881.09,442.88Z" transform="translate(-419.794 -208.148)" opacity="0.05"/>
    <path id="Path_21282" data-name="Path 21282" d="M906.252,421.777v10.4h-1.667a48.515,48.515,0,0,0-23.593,6.12l-3.124,1.733-.839.47-5.379-12.146,5.031-4.515h.258c1.229.121,6.55.565,8.807-.2,2.141-.729,4.8-3.036,11.107-1.426,3.106.8,5.764,4.283,8.776,3.195Z" transform="translate(-428.396 -209.621)" fill="#fbbebe"/>
    <path id="Path_21283" data-name="Path 21283" d="M935.156,375.451l3.465,3.908v9.469S935.673,418.7,926.312,422s-26.084-1.912-26.084-1.912-4.319-11.46-2.3-12.146,17.852-4.88,17.852-4.88-.221-17.522,3.243-22.734c0,0-2.252-16.323,5.553-16.672S935.156,375.451,935.156,375.451Z" transform="translate(-440.561 -182.243)" opacity="0.1"/>
    <path id="Path_21284" data-name="Path 21284" d="M936.158,375.451l3.47,3.908v9.469S936.681,418.7,927.314,422s-26.084-1.912-26.084-1.912-4.319-11.46-2.294-12.146,17.852-4.88,17.852-4.88-.227-17.522,3.243-22.734c0,0-2.257-16.323,5.548-16.672S936.158,375.451,936.158,375.451Z" transform="translate(-441.036 -182.243)" fill="#e6a744"/>
    <path id="Path_21285" data-name="Path 21285" d="M899.928,287.4a6.99,6.99,0,0,0-.4-3.385,2.573,2.573,0,0,0-2.753-1.584c-1.482.349-2.11,2.281-3.576,2.746a2.857,2.857,0,0,1-3.164-1.626,8.111,8.111,0,0,1-.6-3.781v-4.351c0-1.584-.053-3.285-1.023-4.526-1.208-1.542-4.05-2.218-5.949-2.155a5.043,5.043,0,0,0-3.4,1.368,4.368,4.368,0,0,1-3.57,1.273,3.076,3.076,0,0,1-2.489-2.155v-.053a17.7,17.7,0,1,1,26.3,23.51A47.838,47.838,0,0,0,899.928,287.4Z" transform="translate(-429.039 -134.322)" opacity="0.1"/>
    <path id="Path_21286" data-name="Path 21286" d="M871.39,261.257a3.1,3.1,0,0,1-2.495-2.16c-.142-.56-.105-1.157-.269-1.711-.406-1.368-1.862-2.075-2.837-3.116-1.951-2.075-1.825-5.487-.443-7.985,1.118-2.012,3.28-3.7,5.548-3.316,1.4.243,2.637,1.241,4.04,1.336s2.637-.681,3.866-1.252a14.548,14.548,0,0,1,9.609-.856,5.535,5.535,0,0,1,2.637,1.336,23.1,23.1,0,0,1,1.408,1.98c1.614,2.06,4.509,2.466,7.088,2.931s5.5,1.489,6.329,3.971c.564,1.648,0,3.433-.306,5.144a1.554,1.554,0,0,0,.069,1.056c.406.665,1.413.385,2.173.528,1.461.312,1.835,2.2,1.893,3.7q.09,2.567.137,5.138a6.553,6.553,0,0,1-.153,1.9,6.713,6.713,0,0,1-1.471,2.392l-5.727,6.892c-2.542,3.052-5.237,6.612-4.746,10.562-1.2.528-2.637-.5-3.027-1.764a7.9,7.9,0,0,1,.19-3.913,48.041,48.041,0,0,0,.918-6.786,6.969,6.969,0,0,0-.4-3.38,2.573,2.573,0,0,0-2.753-1.584c-1.487.349-2.109,2.281-3.576,2.746a2.857,2.857,0,0,1-3.164-1.626,8.09,8.09,0,0,1-.6-3.776v-4.357c0-1.584-.053-3.285-1.023-4.526-1.208-1.542-4.05-2.218-5.949-2.155a5.043,5.043,0,0,0-3.391,1.368A4.376,4.376,0,0,1,871.39,261.257Z" transform="translate(-424.929 -124.718)" fill="#7c5c5c"/>
    <path id="Path_21287" data-name="Path 21287" d="M885.3,381.92l5.432,22.343S895.014,404.237,885.3,381.92Z" transform="translate(-434.847 -190.867)" opacity="0.1"/>
    <path id="Path_21288" data-name="Path 21288" d="M916.029,374.85s-7.109,11.66-4.335,23.722l1.324.1S910.655,393.085,916.029,374.85Z" transform="translate(-447.018 -187.53)" opacity="0.1"/>
    <path id="Path_21289" data-name="Path 21289" d="M929,499.266s8.733-2.894,9.366,3.818C938.387,503.084,936.742,498.484,929,499.266Z" transform="translate(-455.5 -245.951)" opacity="0.1"/>
    <path id="Path_21290" data-name="Path 21290" d="M867.81,426.81s-1.735,12.146,1.387,17.02a37.992,37.992,0,0,1-15.262,2.086L852.88,426.81Z" transform="translate(-419.525 -212.051)" opacity="0.1"/>
    <path id="Path_21291" data-name="Path 21291" d="M877.868,441.981l-.839.47-5.379-12.146,5.031-4.515h.258C876.861,426.392,875.458,436.832,877.868,441.981Z" transform="translate(-428.396 -211.57)" opacity="0.1"/>
    <path id="Path_21292" data-name="Path 21292" d="M863.316,425.83s-1.735,12.146,1.387,17.015a37.881,37.881,0,0,1-15.262,2.086l-6.07-19.1Z" transform="translate(-415.03 -211.588)" fill="#e6a744"/>
    <path id="Path_21293" data-name="Path 21293" d="M815.894,796.929a3.932,3.932,0,0,1-3.37,3.443c-4.71.7-16.054,2.5-18.917,3.866-3.644,1.737-18.036.528-18.733-1.215a2.76,2.76,0,0,1,.248-2.112,5.562,5.562,0,0,1,2.326-2.5,6.157,6.157,0,0,1,1.055-.465c2.711-.9,7.832-2.825,9.213-4.843,0,0,6.387-5.592,8.206-8.613a4.165,4.165,0,0,1,3.333-2.081c1.519-.069,3.212.7,3.908,4.029,0,0,8.317,4.753,10.548.586,0,0,.348,6.4,1.73,8.154h0A2.326,2.326,0,0,1,815.894,796.929Z" transform="translate(-382.608 -379.859)" fill="#a27772"/>
    <path id="Path_21294" data-name="Path 21294" d="M815.894,808.343a3.932,3.932,0,0,1-3.37,3.443c-4.71.7-16.054,2.5-18.917,3.866-3.644,1.737-18.036.528-18.733-1.215a2.76,2.76,0,0,1,.248-2.112,5.562,5.562,0,0,1,2.326-2.5c2.347,1.584,7.557,3.084,19.017,1.294,10.933-1.711,16.349-3.385,18.986-4.526h0a2.326,2.326,0,0,1,.443,1.753Z" transform="translate(-382.608 -391.274)" opacity="0.1"/>
    <g id="Group_11853" data-name="Group 11853" transform="translate(439.37 125.243)" opacity="0.1">
      <path id="Path_21295" data-name="Path 21295" d="M942.436,268.549v-.085a15.574,15.574,0,0,0,.527-3.945,26.068,26.068,0,0,1-.527,3.168A1.924,1.924,0,0,0,942.436,268.549Z" transform="translate(-901.198 -260.707)"/>
      <path id="Path_21296" data-name="Path 21296" d="M895.4,281.4a5.029,5.029,0,0,1,.427,1.986,6,6,0,0,0-.427-2.767,2.563,2.563,0,0,0-2.748-1.584c-1.487.349-2.11,2.281-3.581,2.746a2.863,2.863,0,0,1-3.164-1.627,8.044,8.044,0,0,1-.6-3.781v-4.351c0-1.584-.053-3.285-1.023-4.526-1.213-1.547-4.05-2.218-5.949-2.16a5.049,5.049,0,0,0-3.4,1.373,4.379,4.379,0,0,1-3.576,1.273,3.092,3.092,0,0,1-2.489-2.155c-.142-.56-.105-1.162-.269-1.716-.406-1.362-1.862-2.075-2.837-3.11a5.691,5.691,0,0,1-1.461-3.7,5.925,5.925,0,0,0,1.461,4.452c.976,1.056,2.431,1.748,2.837,3.11.164.528.127,1.157.269,1.716a3.092,3.092,0,0,0,2.489,2.155,4.379,4.379,0,0,0,3.576-1.273,5.049,5.049,0,0,1,3.4-1.373c1.9-.058,4.746.613,5.949,2.16.97,1.241,1.018,2.947,1.023,4.526v4.351a8,8,0,0,0,.6,3.776,2.87,2.87,0,0,0,3.164,1.632c1.456-.465,2.11-2.4,3.581-2.746A2.663,2.663,0,0,1,895.4,281.4Z" transform="translate(-864.285 -257.3)"/>
      <path id="Path_21297" data-name="Path 21297" d="M939.6,292.875a6.677,6.677,0,0,1-1.477,2.387l-5.727,6.892c-2.41,2.9-4.957,6.258-4.746,9.96.174-3.4,2.537-6.485,4.746-9.178l5.727-6.892a6.675,6.675,0,0,0,1.477-2.387,6.6,6.6,0,0,0,.153-1.906A5.026,5.026,0,0,1,939.6,292.875Z" transform="translate(-894.226 -273.557)"/>
      <path id="Path_21298" data-name="Path 21298" d="M921.83,327.279a4.068,4.068,0,0,1-.174-.929,4.69,4.69,0,0,0,.174,1.711c.39,1.257,1.82,2.3,3.027,1.759a7.425,7.425,0,0,1-.063-.76C923.591,329.54,922.2,328.515,921.83,327.279Z" transform="translate(-891.392 -289.886)"/>
    </g>
    <path id="Path_21299" data-name="Path 21299" d="M812.69,789.36s1.814,3.169,8.385.38" transform="translate(-400.53 -383.143)" opacity="0.1"/>
    <path id="Path_21300" data-name="Path 21300" d="M918,790.82s5.664,6.68,12.8,2.192" transform="translate(-450.302 -383.832)" opacity="0.1"/>
    <path id="Path_21301" data-name="Path 21301" d="M945.555,641.23s-4,2.5-4.129,3.934,2.067-1.056,2.067-1.056Z" transform="translate(-461.37 -313.238)" opacity="0.1"/>
    <path id="Path_21302" data-name="Path 21302" d="M945.82,677.59a8.363,8.363,0,0,1-4.931,1.928c-3,.132-2.742,4.04-.786,2.867A49.1,49.1,0,0,0,945.82,677.59Z" transform="translate(-460.053 -330.397)" opacity="0.1"/>
    <path id="Path_21303" data-name="Path 21303" d="M950.581,682.34s-1.92,9.447-3.481,7.626" transform="translate(-464.055 -332.639)" opacity="0.1"/>
    <path id="Path_21304" data-name="Path 21304" d="M245.3,539.632s12.051,3.311,17.852-1.093,8.317-2.989,8.317-2.989,13.833-.766,14.972-4.04-5.305-15.167-5.305-15.167c-.459-1.056-1.129-2.4-1.429-2.4l.063-5.017h0l2-20.991c4.625-11.877.084-27.223.084-27.223l-.828-3.808a9.644,9.644,0,0,1,.786-6.337l8.4-16.9a25.305,25.305,0,0,1,1.582-3.242c.527-.966,1.229-2.16,2.11-3.591.258-.412.527-.84.823-1.289,1.018-1.584,2.252-3.38,3.744-5.45,3.718-5.159,5.675-11.618,6.687-16.371l.448,1.489h.1l.121.026h.2l.216.037h.079l2.584,32.932c.158,12.843,4.868,19.951,4.868,19.951l-.649,28.353c.886,6.828-1.055,15.932-1.946,19.566l-2.036,4.6a5.529,5.529,0,0,0-3,4.182c-.4,3.4-3.971,10.715-3.971,10.715-1.382,1.753-4.383,6.49-4.383,6.49s-1.413,4.573-.538,6.284,8.2,1.537,8.2,1.537c8.359,1.854,14.767-2.641,14.361-5.735s1.3-3.881,1.3-3.881c3.323-1.056,3-3.311,3-3.311a20.745,20.745,0,0,0-2.516-13.487l-.527,1.22a18.594,18.594,0,0,1,1-7.2l-.306.211-.095.058h-.032c.527-4.631,5.385-13.2,5.385-13.2,8.923-15.674,5.68-36.913,5.68-36.913l-1.382-6.622-.079-2.5a83.48,83.48,0,0,1,1.345-17.8c.48-2.6.976-5.735,1.355-9.194a81.349,81.349,0,0,1,4.578-18.045l.353-.063h.042c.485-.084.976-.169,1.471-.264h.095s.285-1.542.527-4.167c.142-1.674.258-3.8.258-6.237a70.254,70.254,0,0,0-3.328-21.71l.269-.385s.638-.866,1.8-2.366h0c2.141-2.725,5.474-6.865,9.583-11.533,7.357-8.4,5.195-16.9,5.195-16.9s-5.327-19.545-7.7-31.279a35.6,35.6,0,0,0-5.843-13.915,27.729,27.729,0,0,0,.738-5.64c.158-3.475.037-7.1-1.524-10.218s-4.884-5.587-8.354-5.17a3.192,3.192,0,0,1-1.5,0,2.279,2.279,0,0,1-.986-.861c-2.03-2.8-2.162-6.575-1.529-9.976s1.93-6.654,2.51-10.065.316-7.2-1.851-9.9c-2.547-3.169-6.988-4.061-10.3-6.443-2.326-1.674-4.071-4.077-6.524-5.561s-4.746-.919-7.41-.359c-4.477.945-8.733,1.378-12.968,3.306a34.541,34.541,0,0,0-11.3,8.233A10.743,10.743,0,0,0,277.736,246c-1.055,3.491,1.007,7.208.575,10.821-.306,2.561-1.814,4.79-3.011,7.076s-2.11,5-1.171,7.393c1.477,3.739,6.292,4.531,9.794,6.522a2.992,2.992,0,0,1,1.16,1.009c.865,1.51-.9,3.079-2.015,4.42a6.663,6.663,0,0,0-1.318,2.683,9.566,9.566,0,0,0-5.733,6.928c-1.187,5.318.638,12.03,2.247,16.466-1.756,9.88.527,13.778,2.21,15.272a8.48,8.48,0,0,1,2.932,5.777v.185c.111,1.8.3,3.586.554,5.371h0c-.058-.417-.116-.861-.148-1.056-1.376,2.551-4,9.067-5.474,20.03A60.273,60.273,0,0,1,277,361.877a38.2,38.2,0,0,0-1.118,12.473l.264,3.554a1.117,1.117,0,0,1-.717-.238l1.851,3.4v5.73a21.15,21.15,0,0,1-1.4,7.557c-.132.349-.274.7-.427,1.056a6.154,6.154,0,0,0-.622,3.11c-3.982,6.11-13.111,40.351-13.111,40.351-4.952,11.227.406,18.483.406,18.483s2.595,31.257,3.08,32.873,1.561,20.669,1.561,20.669h0v1.516a3.544,3.544,0,0,0-.9-.259c-4.34-.243-5.516,6.622-5.516,6.622l-8.881,8.492s-4.056-.687-10.02,3.8S245.3,539.632,245.3,539.632Zm88.679-180.653-.026-.1-.243.143h0l-.1.058-.047.032h0l-4.092-14.464a24.048,24.048,0,0,1-.3-11.9l3.164-13.878h0v-3.338l10.057,26.837C343.037,345.992,337.062,354.753,333.982,358.978Z" transform="translate(-129.643 -119.124)" fill="url(#linear-gradient-4)"/>
    <path id="Path_21305" data-name="Path 21305" d="M398,557a83.255,83.255,0,0,0-5.095,19.381c-.374,3.422-.86,6.517-1.334,9.083a83.116,83.116,0,0,0-1.3,17.57l.079,2.466,1.318,6.532s3.164,20.981-5.574,36.438c0,0-5.179,9.257-5.337,13.641l-3.507,1.357-7.088-1.991s3.423-12.289,2.31-20.9l.638-27.989s-4.6-7-4.762-19.677l-2.706-34.78Z" transform="translate(-189.252 -273.489)" fill="#fdc2cc"/>
    <path id="Path_21306" data-name="Path 21306" d="M324.675,547.62s-.87,13.561-7.568,22.908-8.122,13.4-8.122,13.4l-8.248,16.7a9.575,9.575,0,0,0-.775,6.247l.812,3.76s4.462,15.156-.079,26.885l-2.152,22.655H285.96s-1.055-18.826-1.514-20.421-3.027-32.467-3.027-32.467-5.274-7.182-.4-18.267c0,0,11-41.481,13.939-40.763S324.675,547.62,324.675,547.62Z" transform="translate(-148.277 -269.063)" fill="#fdc2cc"/>
    <g id="Group_11854" data-name="Group 11854" transform="translate(148.99 278.557)" opacity="0.1">
      <path id="Path_21307" data-name="Path 21307" d="M315.911,610.663l-.807-3.76a9.517,9.517,0,0,1,.77-6.274l8.248-16.714s1.429-4.066,8.122-13.4c6.429-8.978,7.489-21.842,7.563-22.829l1.282-.063s-.87,13.561-7.568,22.908-8.122,13.4-8.122,13.4l-8.248,16.7a9.575,9.575,0,0,0-.775,6.247l.812,3.76s4.462,15.156-.079,26.885l-2.152,22.655H313.68l2.152-22.655C320.372,625.793,315.911,610.663,315.911,610.663Z" transform="translate(-313.68 -547.62)"/>
    </g>
    <path id="Path_21308" data-name="Path 21308" d="M389.25,662.126c.158-4.383,5.337-13.641,5.337-13.641,8.765-15.473,5.574-36.438,5.574-36.438l-1.35-6.538-.079-2.466a83.113,83.113,0,0,1,1.3-17.569c.469-2.567.955-5.661,1.329-9.083a83.24,83.24,0,0,1,5.079-19.339l1.308-.053a83.255,83.255,0,0,0-5.095,19.381c-.374,3.422-.86,6.517-1.334,9.083a83.116,83.116,0,0,0-1.3,17.57l.079,2.466,1.318,6.532s3.164,20.981-5.574,36.438c0,0-5.179,9.257-5.337,13.641L387,663.468l-.738-.206Z" transform="translate(-198.992 -273.489)" opacity="0.1"/>
    <path id="Path_21309" data-name="Path 21309" d="M377.008,753.934a6.09,6.09,0,0,0,5.8-.718,18.771,18.771,0,0,0-.475,10.53c1.435,5.746-13.385-4.626-13.385-4.626l3.164-7.24S373.343,754.172,377.008,753.934Z" transform="translate(-190.811 -365.455)" fill="#d39999"/>
    <path id="Path_21310" data-name="Path 21310" d="M378.12,754.242a5.916,5.916,0,0,0,4.71-1.056,18.771,18.771,0,0,0-.475,10.53c1.434,5.746-13.385-4.626-13.385-4.626l3.164-7.24a4.521,4.521,0,0,0,3.613,2.038C376.564,753.983,377.345,754.094,378.12,754.242Z" transform="translate(-190.821 -365.441)" opacity="0.1"/>
    <path id="Path_21311" data-name="Path 21311" d="M289.32,449.32h6.191V414.144l-4.646-.834Z" transform="translate(-136.744 -195.044)" fill="#fdc2cc"/>
    <path id="Path_21312" data-name="Path 21312" d="M289.32,449.32h6.191V414.144l-4.646-.834Z" transform="translate(-136.744 -195.044)" opacity="0.05"/>
    <path id="Path_21313" data-name="Path 21313" d="M363.819,760.346a6.17,6.17,0,0,1,5.654,3.269l2.152,1.674,1.055-2.471a20.619,20.619,0,0,1,2.437,13.324s.316,2.228-2.948,3.269c0,0-1.672.8-1.276,3.829s-5.891,7.5-14.1,5.661c0,0-7.172.164-8.048-1.516s.559-6.142.559-6.142,2.948-4.679,4.3-6.406c0,0,3.507-7.235,3.908-10.562S361.746,758.508,363.819,760.346Z" transform="translate(-181.129 -369.153)" fill="#7e5659"/>
    <path id="Path_21314" data-name="Path 21314" d="M304.44,761.828l.063-4.959s-7.125,2.054-12.895-.269c0,0,.485,4.985-.316,5.666s2.669,7.1,2.669,7.1l3.876,4.066L304.5,771l1.809-5.7S304.915,761.828,304.44,761.828Z" transform="translate(-154.052 -367.683)" fill="#d39999"/>
    <path id="Path_21315" data-name="Path 21315" d="M304.44,761.828l.063-4.959s-7.125,2.054-12.895-.269c0,0,.485,4.985-.316,5.666s2.669,7.1,2.669,7.1l3.876,4.066L304.5,771l1.809-5.7S304.915,761.828,304.44,761.828Z" transform="translate(-154.052 -367.683)" opacity="0.1"/>
    <path id="Path_21316" data-name="Path 21316" d="M267.392,763.094s3.787.438,3.307,5.281.2,0,.2,0,4.024,1.632,5.458,3.908,4.024-2.033,4.219-3.269,1.809-1.748,1.809-1.748,6.329,11.75,5.211,14.982-14.7,3.977-14.7,3.977-2.473-1.394-8.169,2.952-17.525,1.056-17.525,1.056-9.641-4.029-3.781-8.449,9.836-3.749,9.836-3.749l8.723-8.418S263.131,762.851,267.392,763.094Z" transform="translate(-130.589 -370.745)" fill="#7e5659"/>
    <path id="Path_21317" data-name="Path 21317" d="M342.717,236.242c2.41,1.463,4.124,3.839,6.408,5.492,3.249,2.35,7.61,3.227,10.11,6.363,2.11,2.672,2.384,6.406,1.814,9.775s-1.846,6.585-2.463,9.944-.49,7.082,1.5,9.849a2.232,2.232,0,0,0,.965.85,3.16,3.16,0,0,0,1.471,0c3.407-.412,6.677,2.028,8.206,5.107s1.651,6.659,1.492,10.092a20.882,20.882,0,0,1-1.682,8.222c-2.11,4.309-6.5,6.971-10.827,9.009a83.8,83.8,0,0,1-8.644,3.5,12.993,12.993,0,0,1-6.265.945c-3.6-.623-6.155-3.9-9.572-5.186-2.8-1.056-5.907-.676-8.886-.412-2.542.222-5.448.217-7.2-1.642-2.247-2.387-1.234-6.237-.084-9.31A6.629,6.629,0,0,1,314.381,288c1.086-1.326,2.822-2.873,1.972-4.367a2.891,2.891,0,0,0-1.139-.993c-3.433-1.964-8.164-2.751-9.609-6.437-.928-2.371-.032-5.054,1.144-7.309s2.637-4.462,2.959-6.987c.422-3.57-1.582-7.24-.564-10.683a10.712,10.712,0,0,1,2.473-3.94,33.945,33.945,0,0,1,11.075-8.127c4.161-1.906,8.333-2.334,12.731-3.264C338.06,235.333,340.244,234.742,342.717,236.242Z" transform="translate(-160.692 -121.671)" fill="#865a61"/>
    <path id="Path_21318" data-name="Path 21318" d="M321.124,337.754s-10.089-.528-12,8.085,4.14,20.949,4.14,20.949Z" transform="translate(-162.361 -170.021)" fill="#fdc2cc"/>
    <path id="Path_21319" data-name="Path 21319" d="M321.124,337.754s-10.089-.528-12,8.085,4.14,20.949,4.14,20.949Z" transform="translate(-162.361 -170.021)" opacity="0.05"/>
    <path id="Path_21320" data-name="Path 21320" d="M320,344.727l3.824,3.031,17.841.8L352.8,340.9l11.328-19.465A14.016,14.016,0,0,1,353.362,310.4a24.2,24.2,0,0,1-.221-9.22s-18.163-9.416-15.932,5.281a19.987,19.987,0,0,1,.169,5.46c-1.055,8.608-9.4,6.987-9.4,6.987l-3.2,4.943-3.665,12.146Z" transform="translate(-167.677 -151.361)" fill="#fdc2cc"/>
    <path id="Path_21321" data-name="Path 21321" d="M352.49,306.432a19.99,19.99,0,0,1,.169,5.46,16.083,16.083,0,0,0,15.985-1.5,24.2,24.2,0,0,1-.222-9.22S350.259,291.757,352.49,306.432Z" transform="translate(-182.942 -151.357)" opacity="0.1"/>
    <ellipse id="Ellipse_2192" data-name="Ellipse 2192" cx="16.09" cy="16.112" rx="16.09" ry="16.112" transform="translate(160.318 129.13)" fill="#fdc2cc"/>
    <path id="Path_21322" data-name="Path 21322" d="M329.163,359.886c.39,0,.775.058,1.16.1,2.11.211,10.922.687,15.943-5.318,5.617-6.717,13.095-15.014,13.4-15.352l7.61,2.3s-6.023-2.144-10.02,9.073a11.627,11.627,0,0,0,3.918,13.366,12.049,12.049,0,0,0,4.979,2.112.026.026,0,0,1,0,.026v4.922h0l-3.112,13.73a23.832,23.832,0,0,0,.3,11.75l4.746,16.8c-.717.5-30.166,20.553-49.838,6.7h0c.074-.6,2.505-20.316.817-29.964a66.707,66.707,0,0,1-.881-7.457v-.185a8.411,8.411,0,0,0-2.885-5.7c-1.772-1.584-4.172-5.809-1.8-16.973a41.047,41.047,0,0,1,2.637-8.043l6.6-14.929h0l6.081.121V337c-.527.655-7.578,9.474-8.343,15.156C319.723,357.562,318.8,359.22,329.163,359.886Z" transform="translate(-164.135 -169.593)" fill="#e6a744"/>
    <path id="Path_21323" data-name="Path 21323" d="M399.613,348.285s5.949,5.107,8.285,16.7,7.542,30.846,7.542,30.846,2.11,8.4-5.1,16.7-12,14.786-12,14.786l-4.746,7a5.954,5.954,0,0,1-3.417,2.419c-2.162.57-5.485.982-8.364-.6a4.883,4.883,0,0,1-2.11-6.163l1.055-2.445s-9.772,6.168-10.621,2.762,11.365-6.807,11.365-6.807,10.089-1.7,12.13-6.485c0,0,10.832-13.936,9.983-18.721L393.147,370.2s-13.084-1.732-8.623-16.45S399.613,348.285,399.613,348.285Z" transform="translate(-191.35 -173.639)" fill="#fdc2cc"/>
    <path id="Path_21324" data-name="Path 21324" d="M307.36,516.094s23.9,4.785,29.533,4.146l.606,2.023s9.071,2.033,29.581-1.225q2.009-.317,4.172-.713l.48-.084s.279-1.521.5-4.114a71.431,71.431,0,0,0-3.475-28.96l-3.449-10.636s-21.317,12.8-35.43,11.618c-1.26-.106-2.51-.206-3.771-.248-2.9-.111-7.383,0-10.3-2.339l-6.118,1.056v17.427a20.905,20.905,0,0,1-1.382,7.457c-.132.349-.269.692-.422,1.056A5.552,5.552,0,0,0,307.36,516.094Z" transform="translate(-161.66 -235.514)" fill="#65617d"/>
    <path id="Path_21325" data-name="Path 21325" d="M364.58,552.223v5.424s10.442,2.339,34.232-2.023c0,0,.28-1.521.5-4.114C392.014,552.682,371.884,555.5,364.58,552.223Z" transform="translate(-188.746 -270.898)" opacity="0.1"/>
    <path id="Path_21326" data-name="Path 21326" d="M307.362,547.363s23.9,4.784,29.533,4.145l.606,2.023v-5.423c-2.721,1.13-22.15-3.559-29.191-5.318-.132.349-.269.692-.422,1.056a5.552,5.552,0,0,0-.527,3.517Z" transform="translate(-161.663 -266.783)" opacity="0.1"/>
    <path id="Path_21327" data-name="Path 21327" d="M417.31,536.961l1.772,11.005q2.009-.317,4.172-.713c-.554-3.216-1.761-10.562-1.429-11.782l-2.231-1.912Z" transform="translate(-213.667 -262.428)" fill="#65617d"/>
    <path id="Path_21328" data-name="Path 21328" d="M417.78,536.511l1.772,11.011q2.009-.322,4.172-.713c-.554-3.216-1.761-10.562-1.429-11.782l-2.231-1.917Z" transform="translate(-213.889 -262.215)" opacity="0.1"/>
    <g id="Group_11855" data-name="Group 11855" transform="translate(153.12 241)" opacity="0.05">
      <path id="Path_21329" data-name="Path 21329" d="M335.327,496.208c-1.255-.106-2.51-.206-3.771-.248-2.816-.106-7.114,0-10.047-2.16l1.023-.18c2.932,2.329,7.383,2.229,10.3,2.339,1.26.042,2.51.143,3.771.248.411.037.833.058,1.26.069a23.635,23.635,0,0,1-2.537-.069Z" transform="translate(-321.51 -484.579)"/>
      <path id="Path_21330" data-name="Path 21330" d="M400.116,521.023q2.009-.317,4.172-.708l.485-.09s.28-1.521.5-4.114a71.244,71.244,0,0,0-3.475-28.96l-3.249-10.034c.691-.391,1.055-.618,1.055-.618l3.449,10.636a71.431,71.431,0,0,1,3.475,28.96c-.222,2.593-.5,4.114-.5,4.114l-.48.09q-2.157.391-4.172.708a131.2,131.2,0,0,1-21.491,1.848A135.365,135.365,0,0,0,400.116,521.023Z" transform="translate(-349.097 -476.5)"/>
      <path id="Path_21331" data-name="Path 21331" d="M360.386,559.3v.058H359.7Q360.09,559.332,360.386,559.3Z" transform="translate(-339.559 -515.574)"/>
    </g>
    <ellipse id="Ellipse_2193" data-name="Ellipse 2193" cx="0.902" cy="1.859" rx="0.902" ry="1.859" transform="translate(205.71 272.87)" fill="#d39999"/>
    <path id="Path_21332" data-name="Path 21332" d="M311.55,451.417c1.456-10.826,4.024-17.258,5.379-19.777.053.343.19,1.458.253,1.8a52.363,52.363,0,0,1,.116,5.592l-1.35,24.482,1.809,7.657c1.7,6.062-4.594,1.273-4.594,1.273-1.3,2.873-3.692,2.556-3.692,2.556l-.327-4.394a38,38,0,0,1,1.1-12.32,58.774,58.774,0,0,0,1.308-6.87Z" transform="translate(-162.496 -214.33)" fill="#fdc2cc"/>
    <path id="Path_21333" data-name="Path 21333" d="M311.55,451.417c1.456-10.826,4.024-17.258,5.379-19.777.053.343.19,1.458.253,1.8a52.363,52.363,0,0,1,.116,5.592l-1.35,24.482,1.809,7.657c1.7,6.062-4.594,1.273-4.594,1.273-1.3,2.873-3.692,2.556-3.692,2.556l-.327-4.394a38,38,0,0,1,1.1-12.32,58.774,58.774,0,0,0,1.308-6.87Z" transform="translate(-162.496 -214.33)" opacity="0.05"/>
    <path id="Path_21334" data-name="Path 21334" d="M401.679,484.407c-1.144,1.484-1.772,2.334-1.772,2.334l-4.746,7a5.928,5.928,0,0,1-3.417,2.419c-2.162.57-5.485.988-8.364-.6a4.872,4.872,0,0,1-2.11-6.158l1.055-2.45s-9.772,6.168-10.621,2.767,11.365-6.807,11.365-6.807,10.089-1.7,12.13-6.49c0,0,.881-1.13,2.11-2.862" transform="translate(-192.092 -234.113)" fill="#fdc2cc"/>
    <path id="Path_21335" data-name="Path 21335" d="M402.172,509.392s-11.555-1.125-15.215-7.742l-1.677,5.466s12.13,8.386,14.9,7.3Z" transform="translate(-198.529 -247.369)" fill="#65617d"/>
    <path id="Path_21336" data-name="Path 21336" d="M401.4,509.287s-11.55-1.125-15.215-7.747l-1.672,5.45s12.13,8.386,14.893,7.3Z" transform="translate(-198.165 -247.317)" opacity="0.1"/>
    <path id="Path_21337" data-name="Path 21337" d="M313.241,510.46s-4.045,1.436-4.841.639l1.82,3.353,3.439-2.641Z" transform="translate(-162.194 -251.526)" fill="#65617d"/>
    <path id="Path_21338" data-name="Path 21338" d="M313.241,510.46s-4.045,1.436-4.841.639l1.82,3.353,3.439-2.641Z" transform="translate(-162.194 -251.526)" opacity="0.1"/>
    <path id="Path_21339" data-name="Path 21339" d="M331.931,526.467v-7l-1.661,7.166Z" transform="translate(-156.097 -245.143)" opacity="0.1"/>
    <path id="Path_21340" data-name="Path 21340" d="M362.939,265.519a6.2,6.2,0,0,1-4.335,2.287,34.126,34.126,0,0,1-5.036,0,12.618,12.618,0,0,0-7.6,1.917,19.337,19.337,0,0,0-3.486,3.7c-3.259,3.987-7.784,7.721-12.921,7.3a3.347,3.347,0,0,1-2.4-1.014,3.859,3.859,0,0,1-.612-2.186,50.042,50.042,0,0,1,.311-9.854,20.8,20.8,0,0,1,1.487-5.878,20.068,20.068,0,0,1,3.576-5.112,21.877,21.877,0,0,1,6.239-5.006,11.178,11.178,0,0,1,7.805-1.009c3.075.84,5.469,3.248,8.4,4.489C357.717,256.563,366.609,260.328,362.939,265.519Z" transform="translate(-170.719 -128.785)" opacity="0.1"/>
    <path id="Path_21341" data-name="Path 21341" d="M362.939,264.3a6.2,6.2,0,0,1-4.335,2.287,34.118,34.118,0,0,1-5.036,0,12.578,12.578,0,0,0-7.6,1.912,19.337,19.337,0,0,0-3.486,3.7c-3.259,3.987-7.784,7.721-12.921,7.3a3.326,3.326,0,0,1-2.4-1.014,3.843,3.843,0,0,1-.612-2.186,50.047,50.047,0,0,1,.311-9.854,20.8,20.8,0,0,1,1.487-5.878,19.931,19.931,0,0,1,3.576-5.107,21.8,21.8,0,0,1,6.239-5.012,11.178,11.178,0,0,1,7.805-1.009c3.075.84,5.469,3.248,8.4,4.489C357.717,255.348,366.609,259.1,362.939,264.3Z" transform="translate(-170.719 -128.209)" fill="#865a61"/>
    <path id="Path_21342" data-name="Path 21342" d="M291.875,473.47l-.042,1.928-.432-1.843Z" transform="translate(-137.727 -223.435)" fill="#fdc2cc"/>
    <path id="Path_21343" data-name="Path 21343" d="M291.875,473.47l-.042,1.928-.432-1.843Z" transform="translate(-137.727 -223.435)" opacity="0.05"/>
    <g id="Group_11856" data-name="Group 11856" transform="translate(191.974 172.227)" opacity="0.05">
      <path id="Path_21344" data-name="Path 21344" d="M398.03,353.146c-4.467,14.718,8.554,16.445,8.554,16.445l10.463,28.078c.849,4.784-9.989,18.721-9.989,18.721-.754,1.785-2.637,3.142-4.694,4.145a7.358,7.358,0,0,0,2.785-3.063s10.832-13.931,9.983-18.715l-10.463-28.084s-13.016-1.727-8.554-16.445c1.492-4.917,3.692-7.156,5.917-7.958C400.5,347.506,399.09,349.644,398.03,353.146Z" transform="translate(-395.184 -346.27)"/>
    </g>
    <g id="Group_11857" data-name="Group 11857" transform="translate(148.409 167.242)" opacity="0.1">
      <path id="Path_21345" data-name="Path 21345" d="M401,384.61a11,11,0,0,0,2.109,2,11.979,11.979,0,0,0,4.979,2.112v.554a11.943,11.943,0,0,1-4.514-2A10.953,10.953,0,0,1,401,384.61Z" transform="translate(-354.367 -359.378)"/>
      <path id="Path_21346" data-name="Path 21346" d="M322.593,420.341v.185a68.29,68.29,0,0,0,.907,7.483c1.582,9.1-.49,27.181-.786,29.678-.169-.111-.338-.216-.527-.338.079-.6,2.51-20.315.823-29.958a67,67,0,0,1-.881-7.457v-.185a8.156,8.156,0,0,0-1.419-4.04A8.218,8.218,0,0,1,322.593,420.341Z" transform="translate(-316.421 -374.054)"/>
      <path id="Path_21347" data-name="Path 21347" d="M328.458,337.553l-5.158-.1a.026.026,0,0,0-.026,0l-6.592,14.924a41.184,41.184,0,0,0-2.637,8.043c-1.92,9.03-.712,13.53.754,15.753-1.651-1.949-3.354-6.39-1.229-16.371a40.748,40.748,0,0,1,2.611-8.048l6.64-14.924h0l6.081.121v.037C328.854,337.052,328.69,337.252,328.458,337.553Z" transform="translate(-312.577 -336.83)"/>
      <path id="Path_21348" data-name="Path 21348" d="M416.39,345.87l.09.026Z" transform="translate(-361.641 -341.096)"/>
      <path id="Path_21349" data-name="Path 21349" d="M372.935,343.747l-5.168-1.558h-.026c-.306.338-7.779,8.634-13.4,15.352-5.021,6-13.823,5.534-15.943,5.323-.385-.042-.775-.074-1.16-.1-5.764-.37-8.032-1.056-8.791-2.514,1.081,1.056,3.46,1.584,8.312,1.88.39,0,.775.058,1.16.1,2.109.211,10.922.681,15.943-5.318,5.617-6.723,13.095-15.019,13.4-15.357h0l7.521,2.281A4.693,4.693,0,0,0,372.935,343.747Z" transform="translate(-320.079 -339.057)"/>
    </g>
    <path id="Path_21350" data-name="Path 21350" d="M288.986,776.615s-7.278,1.991-8.686-1.135" transform="translate(-148.914 -376.593)" opacity="0.1"/>
    <path id="Path_21351" data-name="Path 21351" d="M375.069,773.733s-8.438,2.181-10.389-1.193" transform="translate(-188.793 -375.205)" opacity="0.1"/>
    <path id="Path_21352" data-name="Path 21352" d="M563.982,752.609c.121-1.056.3-2.112.485-3.169a22.113,22.113,0,0,0-1.055-10.71h0c-.2-.555-.338-.866-.338-.866-3.359-.919-16.6,9.368-21.428,13.244-1.672,0-3.486.074-5.469.206-.865.063-1.73.084-2.595.069h-3.164c-4.477-3.612-18.337-14.475-21.786-13.535,0,0-.142.312-.338.866h0a21.727,21.727,0,0,0-1.081,10.71c.19,1.056.364,2.112.485,3.169.258,2.318,1.229,6.77,4.746,9.775.754,5.492,3.576,12.711,5.748,17.094a12.249,12.249,0,0,0,.738,2.413c-.9,3.464-1.93,7.985-1.635,9.506,0,0-4.683-1.135-5.158,4.51v.174c-1.693.776-3.808,2.556-1.429,6.284a2.443,2.443,0,0,0,1.224,1c.422.148.833.148.791-.444l2.927,3.3s5.305.613,5.369-2.471l.311.048c.712.106,1.456.2,2.22.275l.369,1.22s-3.982-.084-2.9,2.371c0,0,1,.93,1.345.591,0,0-.527,1.611,1.55,1.611,0,0,2.231,1.183,3.1.338s2.674-2.112,2.843-2.641c.047-.143.069-1.394.079-3.126h.343c4.446.106,9.166-.037,13.459-.269h.348c0,1.875.026,3.258.074,3.406.174.528,1.983,1.78,2.848,2.64s3.1-.338,3.1-.338c2.067,0,1.551-1.611,1.551-1.611.348.338,1.35-.591,1.35-.591,1.086-2.456-2.9-2.371-2.9-2.371l.475-1.584,2.2-.185.348-.032c-.211,3.353,5.363,2.709,5.363,2.709l2.932-3.3c-.047.591.364.591.786.444a2.422,2.422,0,0,0,1.187-1.009c3.591-5.624-3.043-6.818-3.043-6.818a3.245,3.245,0,0,0-.628-.1,1.084,1.084,0,0,1,.026-.29h0a11.605,11.605,0,0,0,.042-2.229,4.9,4.9,0,0,0-3.95-2.878c-1.35-.169-1.376-6.379-1.239-10.683a12.3,12.3,0,0,0,.211-2.45,12.943,12.943,0,0,0-.527-3.924c2.637-4.478,4.746-9.173,4.984-10.562C562.753,759.363,563.723,754.927,563.982,752.609Z" transform="translate(-256.028 -358.807)" fill="url(#linear-gradient-5)"/>
    <path id="Path_21353" data-name="Path 21353" d="M564.237,829.586h0c-.211,2.926-.775,7.62-.775,7.62s-2.347.285-5.975.613l-2.463.211c-1.888.153-4.008.3-6.249.428-4.14.227-8.686.37-12.974.264-2.141-.048-4.219-.158-6.144-.349-.86-.084-1.693-.185-2.484-.3-4.915-.734-8.438-2.139-8.739-4.6a14.276,14.276,0,0,1-.111-3.169c.459-5.545,4.968-4.425,4.968-4.425-.29-1.531.8-6.289,1.688-9.733.559-2.17,1.055-3.818,1.055-3.818l31.706-2.112h.106a1.552,1.552,0,0,1,1.55,1.632c-.19,3.807-.459,12.526,1.1,12.722a4.781,4.781,0,0,1,3.813,2.825A11.86,11.86,0,0,1,564.237,829.586Z" transform="translate(-261.388 -392.982)" fill="#e6a744"/>
    <path id="Path_21354" data-name="Path 21354" d="M532.853,754.831S520.9,769.242,515.138,765.25c-.137-.1-.269-.19-.4-.29-3.871-2.936-4.889-7.668-5.158-10.071-.116-1.056-.285-2.075-.469-3.105a21.59,21.59,0,0,1,1.055-10.514h0c.19-.528.322-.85.322-.85C514.474,739.31,532.853,754.831,532.853,754.831Z" transform="translate(-256.932 -360.02)" fill="#e6a744"/>
    <path id="Path_21355" data-name="Path 21355" d="M526.406,756.972s-3.766,2.64-9.076,6.981a19.178,19.178,0,0,1-2.637,1.817c-3.871-2.936-4.889-7.668-5.158-10.071-.116-1.056-.285-2.075-.469-3.105a21.59,21.59,0,0,1,1.055-10.514h0C517.567,742.6,526.406,756.972,526.406,756.972Z" transform="translate(-256.909 -360.831)" fill="#e6a744"/>
    <path id="Path_21356" data-name="Path 21356" d="M526.406,756.972s-3.766,2.64-9.076,6.981a19.178,19.178,0,0,1-2.637,1.817c-3.871-2.936-4.889-7.668-5.158-10.071-.116-1.056-.285-2.075-.469-3.105a21.59,21.59,0,0,1,1.055-10.514h0C517.567,742.6,526.406,756.972,526.406,756.972Z" transform="translate(-256.909 -360.831)" fill="#fff" opacity="0.5"/>
    <path id="Path_21357" data-name="Path 21357" d="M526.025,760.488s-2.009,1.421-4.847,3.728a10.205,10.205,0,0,1-1.392.966,7.778,7.778,0,0,1-2.753-5.371c-.058-.56-.148-1.109-.248-1.664a11.558,11.558,0,0,1,.585-5.608h0C521.31,752.815,526.025,760.488,526.025,760.488Z" transform="translate(-260.625 -365.767)" opacity="0.1"/>
    <path id="Path_21358" data-name="Path 21358" d="M569.05,754.831s11.956,14.412,17.715,10.419c.132-.1.269-.19.4-.29,3.871-2.936,4.889-7.668,5.158-10.071.116-1.056.285-2.075.464-3.105a21.525,21.525,0,0,0-1.055-10.514h0c-.19-.528-.327-.85-.327-.85C587.429,739.31,569.05,754.831,569.05,754.831Z" transform="translate(-285.382 -360.02)" fill="#e6a744"/>
    <path id="Path_21359" data-name="Path 21359" d="M581.22,756.972s3.771,2.64,9.082,6.981a19.171,19.171,0,0,0,2.611,1.817c3.871-2.936,4.889-7.668,5.158-10.071.116-1.056.285-2.075.464-3.105a21.525,21.525,0,0,0-1.055-10.514h0C590.069,742.6,581.22,756.972,581.22,756.972Z" transform="translate(-291.134 -360.831)" fill="#e6a744"/>
    <path id="Path_21360" data-name="Path 21360" d="M581.22,756.972s3.771,2.64,9.082,6.981a19.171,19.171,0,0,0,2.611,1.817c3.871-2.936,4.889-7.668,5.158-10.071.116-1.056.285-2.075.464-3.105a21.525,21.525,0,0,0-1.055-10.514h0C590.069,742.6,581.22,756.972,581.22,756.972Z" transform="translate(-291.134 -360.831)" fill="#fff" opacity="0.5"/>
    <path id="Path_21361" data-name="Path 21361" d="M589.05,760.5s2,1.415,4.815,3.7a9.661,9.661,0,0,0,1.387.961,7.8,7.8,0,0,0,2.737-5.339c.058-.528.148-1.1.248-1.653a11.58,11.58,0,0,0-.554-5.577h0C593.738,752.875,589.05,760.5,589.05,760.5Z" transform="translate(-294.834 -365.791)" opacity="0.1"/>
    <path id="Path_21362" data-name="Path 21362" d="M563.729,810.23a28.675,28.675,0,0,1-4.578,5.841c-4.746,4.225-25.241,2.545-26.57,2.329-.28-.048-.86-.877-1.582-2.223.559-2.17,1.055-3.818,1.055-3.818Z" transform="translate(-267.399 -392.992)" opacity="0.1"/>
    <path id="Path_21363" data-name="Path 21363" d="M541.633,765.284c-.833.058-1.667.079-2.505.063-4.277-.074-18.685.116-20.283,5.941-1.883,6.865,6.534,25.248,7.858,25.47s21.813,1.885,26.575-2.329S564.237,777,563.9,775.8C563.9,775.8,569.811,763.33,541.633,765.284Z" transform="translate(-261.525 -371.683)" fill="#e6a744"/>
    <path id="Path_21364" data-name="Path 21364" d="M546.392,786.467a15.122,15.122,0,0,0-15.495,8.766,12.689,12.689,0,0,0,.934,12.774c1.645,2.318,4.061,4.045,7.42,2.64C546.719,807.57,546.392,786.467,546.392,786.467Z" transform="translate(-266.737 -381.734)" opacity="0.1"/>
    <path id="Path_21365" data-name="Path 21365" d="M545.762,785.207a15.122,15.122,0,0,0-15.495,8.766,12.688,12.688,0,0,0,.934,12.774c1.645,2.318,4.061,4.045,7.42,2.64C546.089,806.31,545.762,785.207,545.762,785.207Z" transform="translate(-266.44 -381.139)" opacity="0.1"/>
    <path id="Path_21366" data-name="Path 21366" d="M545.762,785.837a15.123,15.123,0,0,0-15.495,8.766,12.688,12.688,0,0,0,.934,12.774c1.645,2.318,4.061,4.045,7.42,2.64C546.089,806.94,545.762,785.837,545.762,785.837Z" transform="translate(-266.44 -381.437)" fill="#e6a744"/>
    <path id="Path_21367" data-name="Path 21367" d="M545.762,785.837a15.123,15.123,0,0,0-15.495,8.766,12.688,12.688,0,0,0,.934,12.774c1.645,2.318,4.061,4.045,7.42,2.64C546.089,806.94,545.762,785.837,545.762,785.837Z" transform="translate(-266.44 -381.437)" fill="#fff" opacity="0.5"/>
    <path id="Path_21368" data-name="Path 21368" d="M538.332,803.13s-1.44,1.331-.886,1.663S538.332,803.13,538.332,803.13Z" transform="translate(-270.386 -389.641)" fill="#3f2b3b"/>
    <path id="Path_21369" data-name="Path 21369" d="M541.8,806.35s-.786,1.737-.227,1.927.891-1.246.891-1.246Z" transform="translate(-272.3 -391.161)" fill="#3f2b3b"/>
    <path id="Path_21370" data-name="Path 21370" d="M535.283,811.32s-.77,2.049,0,2.049S535.283,811.32,535.283,811.32Z" transform="translate(-269.262 -393.506)" fill="#3f2b3b"/>
    <path id="Path_21371" data-name="Path 21371" d="M533.78,821.71s1.54,3.94,5.548,3.66" transform="translate(-268.713 -398.409)" fill="none" stroke="#3f2b3b" stroke-miterlimit="10" stroke-width="1"/>
    <path id="Path_21372" data-name="Path 21372" d="M540.61,823.91a2.773,2.773,0,0,0,3.317.444" transform="translate(-271.941 -399.447)" fill="none" stroke="#3f2b3b" stroke-miterlimit="10" stroke-width="1"/>
    <path id="Path_21373" data-name="Path 21373" d="M564,786.467a15.122,15.122,0,0,1,15.495,8.766,12.689,12.689,0,0,1-.933,12.774c-1.64,2.318-4.061,4.045-7.42,2.64C563.65,807.57,564,786.467,564,786.467Z" transform="translate(-282.993 -381.734)" opacity="0.1"/>
    <path id="Path_21374" data-name="Path 21374" d="M564.588,785.207a15.122,15.122,0,0,1,15.495,8.766,12.689,12.689,0,0,1-.933,12.774c-1.64,2.318-4.061,4.045-7.42,2.64C564.277,806.31,564.588,785.207,564.588,785.207Z" transform="translate(-283.272 -381.139)" opacity="0.1"/>
    <path id="Path_21375" data-name="Path 21375" d="M564.588,785.837a15.122,15.122,0,0,1,15.495,8.766,12.688,12.688,0,0,1-.933,12.774c-1.64,2.318-4.061,4.045-7.42,2.64C564.277,806.94,564.588,785.837,564.588,785.837Z" transform="translate(-283.272 -381.437)" fill="#e6a744"/>
    <path id="Path_21376" data-name="Path 21376" d="M564.588,785.837a15.122,15.122,0,0,1,15.495,8.766,12.688,12.688,0,0,1-.933,12.774c-1.64,2.318-4.061,4.045-7.42,2.64C564.277,806.94,564.588,785.837,564.588,785.837Z" transform="translate(-283.272 -381.437)" fill="#fff" opacity="0.5"/>
    <path id="Path_21377" data-name="Path 21377" d="M586.16,803.13s1.44,1.331.886,1.663S586.16,803.13,586.16,803.13Z" transform="translate(-293.468 -389.641)" fill="#3f2b3b"/>
    <path id="Path_21378" data-name="Path 21378" d="M582.624,806.35s.786,1.737.227,1.927-.891-1.246-.891-1.246Z" transform="translate(-291.483 -391.161)" fill="#3f2b3b"/>
    <path id="Path_21379" data-name="Path 21379" d="M589.515,811.32s.765,2.049,0,2.049S589.515,811.32,589.515,811.32Z" transform="translate(-294.894 -393.506)" fill="#3f2b3b"/>
    <path id="Path_21380" data-name="Path 21380" d="M586.648,821.71s-1.54,3.94-5.548,3.66" transform="translate(-291.077 -398.409)" fill="none" stroke="#3f2b3b" stroke-miterlimit="10" stroke-width="1"/>
    <path id="Path_21381" data-name="Path 21381" d="M581.823,823.91a2.779,2.779,0,0,1-3.323.444" transform="translate(-289.848 -399.447)" fill="none" stroke="#3f2b3b" stroke-miterlimit="10" stroke-width="1"/>
    <path id="Path_21382" data-name="Path 21382" d="M553.2,841.974c.28-.053,5.538-2.329,10.959,0Z" transform="translate(-277.891 -407.478)" fill="#3f2b3b"/>
    <path id="Path_21383" data-name="Path 21383" d="M527.172,855.343c-4.915-.734-8.438-2.139-8.739-4.6a14.275,14.275,0,0,1-.111-3.168,7.089,7.089,0,0,1,1.877-.687c.891-.248,1.994-.079,4.319.586s2.157,3.406,2.637,6.981a2.956,2.956,0,0,1,.016.892Z" transform="translate(-261.388 -410.237)" opacity="0.1"/>
    <path id="Path_21384" data-name="Path 21384" d="M517.742,847.536s-6.392,1.172-2.932,6.7a2.358,2.358,0,0,0,1.181.977c.406.143.8.143.754-.438l2.827,3.242s5.643.665,5.147-2.91-.332-6.337-2.637-6.981S518.644,847.288,517.742,847.536Z" transform="translate(-259.262 -410.547)" fill="#e6a744"/>
    <path id="Path_21385" data-name="Path 21385" d="M524.18,854.67s1.355,3.1,3.238.5" transform="translate(-264.176 -413.963)" fill="none" stroke="#3f2b3b" stroke-miterlimit="10" stroke-width="1"/>
    <path id="Path_21386" data-name="Path 21386" d="M518.28,857s.7,2.936,3.359.75" transform="translate(-261.387 -415.063)" fill="none" stroke="#3f2b3b" stroke-miterlimit="10" stroke-width="1"/>
    <path id="Path_21387" data-name="Path 21387" d="M599.357,846.853h0c-.211,2.926-.775,7.62-.775,7.62s-2.347.285-5.975.612a3.07,3.07,0,0,1,0-.612c.5-3.575.332-6.337,2.637-6.981C597.405,846.905,598.508,846.689,599.357,846.853Z" transform="translate(-296.508 -410.249)" opacity="0.1"/>
    <path id="Path_21388" data-name="Path 21388" d="M600.244,847.536s6.4,1.172,2.938,6.7a2.379,2.379,0,0,1-1.181.977c-.406.143-.8.143-.759-.438l-2.822,3.242s-5.648.665-5.147-2.91.332-6.337,2.637-6.981S599.358,847.288,600.244,847.536Z" transform="translate(-296.815 -410.547)" fill="#e6a744"/>
    <path id="Path_21389" data-name="Path 21389" d="M600.738,854.67s-1.361,3.1-3.238.5" transform="translate(-298.828 -413.963)" fill="none" stroke="#3f2b3b" stroke-miterlimit="10" stroke-width="1"/>
    <path id="Path_21390" data-name="Path 21390" d="M606.525,857s-.707,2.936-3.365.75" transform="translate(-301.503 -415.063)" fill="none" stroke="#3f2b3b" stroke-miterlimit="10" stroke-width="1"/>
    <path id="Path_21391" data-name="Path 21391" d="M544.122,853.517c-2.141-.048-4.219-.158-6.144-.349l-1.914-6.453a4.194,4.194,0,0,1-.174-1.178,4.1,4.1,0,0,1,8.2-.026C544.112,848.025,544.133,851.209,544.122,853.517Z" transform="translate(-269.71 -407.778)" opacity="0.1"/>
    <path id="Path_21392" data-name="Path 21392" d="M534.95,846.591l2.257,7.615s-3.839-.084-2.79,2.329c0,0,.965.914,1.3.581,0,0-.5,1.584,1.493,1.584,0,0,2.152,1.167,2.985.333s2.579-2.081,2.748-2.577c.106-.327.074-6.7.037-11.09a4.1,4.1,0,0,0-4.1-4.066h0a4.1,4.1,0,0,0-3.929,5.291Z" transform="translate(-268.928 -407.654)" fill="#e6a744"/>
    <path id="Path_21393" data-name="Path 21393" d="M540.43,869.47s-1.677,1.584-.791,2.519" transform="translate(-271.359 -420.948)" fill="none" stroke="#3f2b3b" stroke-miterlimit="10" stroke-width="1"/>
    <path id="Path_21394" data-name="Path 21394" d="M538.61,867.56a2.28,2.28,0,0,0-1.55,1.949" transform="translate(-270.263 -420.046)" fill="none" stroke="#3f2b3b" stroke-miterlimit="10" stroke-width="1"/>
    <path id="Path_21395" data-name="Path 21395" d="M584.356,845.412a4.181,4.181,0,0,1-.169,1.178L582.4,852.7c-1.888.153-4.008.3-6.249.428,0-2.281,0-5.318.037-7.742a4.1,4.1,0,1,1,8.2.026Z" transform="translate(-288.738 -407.652)" opacity="0.1"/>
    <path id="Path_21396" data-name="Path 21396" d="M584.78,846.591l-2.257,7.615s3.845-.084,2.8,2.329c0,0-.965.914-1.3.581,0,0,.5,1.584-1.5,1.584,0,0-2.152,1.167-2.985.333s-2.574-2.081-2.742-2.577c-.105-.327-.074-6.7-.037-11.09a4.1,4.1,0,0,1,4.1-4.066h0a4.1,4.1,0,0,1,3.924,5.291Z" transform="translate(-289.009 -407.654)" fill="#e6a744"/>
    <path id="Path_21397" data-name="Path 21397" d="M586.23,869.47s1.677,1.584.791,2.519" transform="translate(-293.501 -420.948)" fill="none" stroke="#3f2b3b" stroke-miterlimit="10" stroke-width="1"/>
    <path id="Path_21398" data-name="Path 21398" d="M587.63,867.56a2.28,2.28,0,0,1,1.551,1.949" transform="translate(-294.163 -420.046)" fill="none" stroke="#3f2b3b" stroke-miterlimit="10" stroke-width="1"/>
    <path id="Path_21399" data-name="Path 21399" d="M553.6,782.769s-7.811-.248-8.058,5.809,12.2,3.491,12.2,3.491,5.232-.7,4.319-4.383S559.243,783.1,553.6,782.769Z" transform="translate(-274.267 -380.032)" opacity="0.1"/>
    <path id="Path_21400" data-name="Path 21400" d="M553.6,781.509s-7.811-.248-8.058,5.809,12.2,3.491,12.2,3.491,5.232-.7,4.319-4.383S559.243,781.841,553.6,781.509Z" transform="translate(-274.267 -379.437)" opacity="0.1"/>
    <path id="Path_21401" data-name="Path 21401" d="M553.6,782.139s-7.811-.248-8.058,5.809,12.2,3.491,12.2,3.491,5.232-.7,4.319-4.383S559.243,782.471,553.6,782.139Z" transform="translate(-274.267 -379.734)" fill="#3f2b3b"/>
    <path id="Path_21402" data-name="Path 21402" d="M527.78,839.92s2.637.94,3.164,2.741" transform="translate(-265.877 -407.003)" opacity="0.1"/>
    <path id="Path_21403" data-name="Path 21403" d="M596.714,837.4s-1.872.787-1.74,4.072" transform="translate(-297.631 -405.813)" opacity="0.1"/>
    <path id="Path_21407" data-name="Path 21407" d="M1.223,0C1.9,0,2.445.907,2.445,2.027S1.9,4.057,1.221,4.057,0,3.149,0,2.029.547,0,1.223,0Z" transform="translate(260.943 445.496) rotate(-29.887)" fill="#e6a744"/>
    <path id="Path_21408" data-name="Path 21408" d="M2.022,0C3.139,0,4.043.543,4.043,1.216S3.137,2.436,2.02,2.436,0,1.892,0,1.219.905,0,2.022,0Z" transform="translate(298.061 445.973) rotate(-60)" fill="#e6a744"/>
    <path id="Path_21409" data-name="Path 21409" d="M1.223,0C1.9,0,2.445.907,2.445,2.027S1.9,4.057,1.221,4.057,0,3.149,0,2.029.547,0,1.223,0Z" transform="translate(260.943 445.496) rotate(-29.887)" fill="#fff" opacity="0.5"/>
    <path id="Path_21410" data-name="Path 21410" d="M2.022,0C3.139,0,4.043.543,4.043,1.216S3.137,2.436,2.02,2.436,0,1.892,0,1.219.905,0,2.022,0Z" transform="translate(298.061 445.973) rotate(-60)" fill="#fff" opacity="0.5"/>
    <ellipse id="Ellipse_2198" data-name="Ellipse 2198" cx="14.202" cy="2.403" rx="14.202" ry="2.403" transform="translate(87.365 375.741)" fill="#e6a744" opacity="0.1"/>
    <ellipse id="Ellipse_2199" data-name="Ellipse 2199" cx="14.202" cy="2.403" rx="14.202" ry="2.403" transform="translate(31.415 409.819)" fill="#e6a744" opacity="0.1"/>
    <ellipse id="Ellipse_2200" data-name="Ellipse 2200" cx="21.206" cy="3.591" rx="21.206" ry="3.591" transform="translate(9.624 378.144)" fill="#e6a744"/>
    <path id="Path_21404" data-name="Path 21404" d="M71.127,723.135a6.142,6.142,0,0,1-2.025-3.052,2.723,2.723,0,0,1,1.413-3.11c1.3-.5,2.684.4,3.734,1.31s2.257,1.949,3.634,1.759a5.544,5.544,0,0,1-1.709-5.186,2.114,2.114,0,0,1,.475-1.056c.717-.771,2.025-.438,2.89.169,2.737,1.933,3.507,5.661,3.518,9.02a16.658,16.658,0,0,0,.053-3.7,3.8,3.8,0,0,1,1.392-3.285,4.215,4.215,0,0,1,2.11-.528,4.408,4.408,0,0,1,3.449.982c1.055,1.12.775,3-.137,4.225a13.793,13.793,0,0,1-3.565,2.862,7.873,7.873,0,0,0-2.553,2.434,2.5,2.5,0,0,0-.19.433H75.91a21.323,21.323,0,0,1-4.783-3.279Z" transform="translate(-49.067 -347.273)" fill="#e6a744"/>
    <ellipse id="Ellipse_2201" data-name="Ellipse 2201" cx="14.202" cy="2.403" rx="14.202" ry="2.403" transform="translate(528.907 395.84)" fill="#e6a744" opacity="0.1"/>
    <path id="Path_21405" data-name="Path 21405" d="M1042.91,749.194s8.1-.248,10.548-1.991,12.457-3.818,13.063-1.024,12.177,13.883,3.027,13.957-21.248-1.426-23.685-2.915S1042.91,749.194,1042.91,749.194Z" transform="translate(-509.336 -362.12)" fill="#a8a8a8"/>
    <path id="Path_21406" data-name="Path 21406" d="M1069.706,763.081c-9.145.074-21.248-1.426-23.685-2.915-1.856-1.13-2.595-5.191-2.843-7.066h-.269s.527,6.543,2.948,8.027,14.54,2.989,23.685,2.915c2.637,0,3.555-.961,3.5-2.355C1072.681,762.553,1071.673,763.081,1069.706,763.081Z" transform="translate(-509.336 -366.031)" opacity="0.2"/>
  </g>
</svg>
