<svg xmlns="http://www.w3.org/2000/svg" width="30" height="40" viewBox="0 0 40 40">
	<g id="Group_1085" data-name="Group 1085" transform="translate(-50.705 -72.087)">
		<g id="Layer_3" data-name="Layer 3" transform="translate(68.467 73.722)">
			<path id="Path_1568" data-name="Path 1568" d="M685.483,110.532a3.128,3.128,0,0,0,1.4-2.471c.052-.714-.924-1.055-.294-1.58s.606,1.041.93,1.229,1.309-3.264,1.839-3.694.845.211.185,1.082a5.358,5.358,0,0,0-.874,1.686,13.446,13.446,0,0,1,2.146-2c.442-.122.4.579.016.969a14.563,14.563,0,0,0-1.753,1.581,14.541,14.541,0,0,1,2.9-1.056c.843-.084.557.62.155.806s-2.12.265-2.747.8c0,0,1.916-.3,2.417.149s.1.895-.287.951-.863-.351-1.4-.553-.491-.09-.85.716-.449,1.377-1.188,1.13c-.49-.164-.989-.048-1.538,1.216C686.176,111.178,685.836,110.846,685.483,110.532Z" transform="translate(-670.276 -103.88)" fill="#ffbd9b"/>
			<path id="Path_1569" data-name="Path 1569" d="M677.254,211.153l.82-.691a9.093,9.093,0,0,0-1.707-2.237l-.788.548Z" transform="translate(-660.888 -202.86)" fill="#f8e8d8"/>
			<path id="Path_1570" data-name="Path 1570" d="M392.69,221.91s8.347-2.047,8.817-2.184,5.85-6.947,5.85-6.947a16.873,16.873,0,0,1,1.806,2.818s-4.668,5.936-5.908,7.133-9.419,4.008-9.419,4.008Z" transform="translate(-392.69 -207.179)" fill="#3e3533"/>
		</g>
		<g id="Layer_1" data-name="Layer 1" transform="translate(50.705 72.087)">
			<path id="Path_1571" data-name="Path 1571" d="M182.614,147.9a1.247,1.247,0,0,0,.768-.309c.231-.28-.525-2.571-.525-2.571a2.213,2.213,0,0,0,.729-1.476c.011-.861-.566-1.306-1.463-1.252a5.135,5.135,0,0,0-2.191,1.236l.658.335a11.578,11.578,0,0,0,.493,2.456A10.551,10.551,0,0,0,182.614,147.9Z" transform="translate(-173.22 -138.677)" fill="#3e3533"/>
			<path id="Path_1572" data-name="Path 1572" d="M198.314,168c.263,1.22,1.134,4.234,1.134,4.234l.774-.874-.389-3.767Z" transform="translate(-190.648 -162.683)" fill="#3e3533"/>
			<path id="Path_1573" data-name="Path 1573" d="M238.186,669.438l-11.516-1.151s.014,4.7.054,9.344h5.27c.024-1.349.041-2.288.041-2.288l.63.173.406,2.115h5.764C238.523,673.7,238.186,669.438,238.186,669.438Z" transform="translate(-217.531 -637.631)" fill="#2d2828"/>
			<path id="Path_1574" data-name="Path 1574" d="M238.478,705.225c-2.318.8-7.565,1.981-11.834.248-.006-1.086.01-2.526.007-3.289l11.635,1C238.339,703.853,238.4,704.3,238.478,705.225Z" transform="translate(-217.505 -669.785)" fill="#3e3533"/>
			<g id="Group_1070" data-name="Group 1070" transform="translate(9.744 30.063)">
				<path id="Path_1575" data-name="Path 1575" d="M248.838,657.279c-.09-.328-.163-.534-.163-.534l-10.273.417s-.036.208-.092.563c.051.07.092.122.092.122C242.986,659.7,246.306,659.7,248.838,657.279Z" transform="translate(-238.31 -656.745)" fill="#330e00"/>
			</g>
			<path id="Path_1576" data-name="Path 1576" d="M196.553,476l1.8,6.549-.915,6.119s8.132,3.06,13.236-.237l-1.048-13.674Z" transform="translate(-188.978 -454.053)" fill="#3e3533"/>
			<g id="Group_1072" data-name="Group 1072" transform="translate(6.056 15.246)">
				<g id="Group_1071" data-name="Group 1071">
					<path id="Path_1577" data-name="Path 1577" d="M180.616,369.546c1.09.454,2.621,1.364,1.276,4.506l-.468,9.672s.522,1.49.193,1.807c-2.533,2.432-5.855,2.432-10.445.577a2.107,2.107,0,0,1-.273-.427,7.689,7.689,0,0,1,.392-2.492l-2.565-7.894s-2.528-3.407-.855-4.642C170.506,368.709,176.3,367.748,180.616,369.546Z" transform="translate(-167.3 -368.593)" fill="#3e3533"/>
				</g>
			</g>
			<path id="Path_1578" data-name="Path 1578" d="M205.1,494.716l-.608-7.936a15.641,15.641,0,0,0-2.764,4.646,19.5,19.5,0,0,1-6.858-5.883l2.006,5.309c-1.734-2.015-4.468-7.455-6.2-9.47l2.106,7.451-.915,6.119S200,498.013,205.1,494.716Z" transform="translate(-183.408 -460.337)" fill="#3e3533"/>
			<path id="Path_1579" data-name="Path 1579" d="M253.158,364.172a4.663,4.663,0,0,1,1.2.069,8.783,8.783,0,0,1,.737,1.636c.093.208-1.23,1.432-1.23,1.432a14.651,14.651,0,0,1,1.046,1.917c-.046.143-1.981,7.9-1.981,7.9s-4.693-6.93-4.788-7.274a9.482,9.482,0,0,1,.449-2.127,10.652,10.652,0,0,1-1.474-1.235c-.085-.221-.262-1.634,0-1.814a7.02,7.02,0,0,1,1.1-.318Z" transform="translate(-236.781 -349.146)" fill="#2d2828"/>
			<path id="Path_1580" data-name="Path 1580" d="M270.714,364.643h0l2.705,6.911c1,2.546,2.1-.117,2.1-.117l.311-7.3c-.069,0-.213-.023-.281-.027Z" transform="translate(-259.287 -349.097)" fill="#f8e8d8"/>
			<path id="Path_1581" data-name="Path 1581" d="M279.931,366.47c.288-.067.3-.96.3-.96l.057-1.35-.009-.02c-.072-.006-.206-.022-.271-.026l-4.452.488c.016.052-.163.42-.13.523a4.9,4.9,0,0,0,1.256,1.859c.2.031.694-.534.761-.718.1.091.277.365.38.456.054,1.314.006,3.043-.015,4.64l1.8,4.6c.056.074.113.144.169.211l.166-3.9-1.506-5.639c.159-.216.366-.377.525-.593A1.406,1.406,0,0,0,279.931,366.47Z" transform="translate(-263.752 -349.097)" fill="#c6c6c6"/>
			<g id="Group_1074" data-name="Group 1074" transform="translate(10.331 10.342)">
				<g id="Group_1073" data-name="Group 1073">
					<path id="Path_1582" data-name="Path 1582" d="M254.442,278.639a4.782,4.782,0,0,1-1.81.388c-.721.019-.431-.4-.671-.462l-2.337-5.343,4.228,1.887.01.177Z" transform="translate(-249.624 -273.222)" fill="#fbc0a4"/>
				</g>
			</g>
			<g id="Group_1077" data-name="Group 1077" transform="translate(10.331 10.342)">
				<g id="Group_1076" data-name="Group 1076">
					<g id="Group_1075" data-name="Group 1075">
						<path id="Path_1583" data-name="Path 1583" d="M253.28,276.977a4.271,4.271,0,0,1-1.3-.375,8.9,8.9,0,0,1-1.153-.625l-1.205-2.755,4.228,1.887.01.177.306,1.772C253.873,277.029,253.576,277.011,253.28,276.977Z" transform="translate(-249.624 -273.222)" fill="#f69d7d"/>
					</g>
				</g>
			</g>
			<path id="Path_1584" data-name="Path 1584" d="M311.7,387.754l-1.505-5.03.658-.732-1.118-.677-.855.781.8.7a46.243,46.243,0,0,0-.073,5.077l1.887,4.82Z" transform="translate(-295.467 -365.415)" fill="#72aad3"/>
			<g id="Group_1079" data-name="Group 1079" transform="translate(11.18 14.178)">
				<g id="Group_1078" data-name="Group 1078">
					<path id="Path_1585" data-name="Path 1585" d="M266.857,347.973s1.7,1.612,2.136,1.542.664-1.695.664-1.695a8.57,8.57,0,0,1,1.742.657,5.042,5.042,0,0,1-.479,2.421c-.43.215-1.725-1.217-1.961-1.034s-.9,1.405-1.123,1.381-1.971-1.734-1.872-2.363S266.857,347.973,266.857,347.973Z" transform="translate(-265.96 -347.82)" fill="#f8e8d8"/>
				</g>
			</g>
			<path id="Path_1586" data-name="Path 1586" d="M197.007,129.068s-1.46-.33-1.258,1.4a1.868,1.868,0,0,0,1.837,1.835s.695,3.074,4.525,2.78,3.2-3.231,3.174-5.178.191-5.328-2.316-5.577C200.44,124.072,196.785,124.237,197.007,129.068Z" transform="translate(-188.197 -121.57)" fill="#fbc0a4"/>
			<g id="Group_1080" data-name="Group 1080" transform="translate(14.049 8.22)">
				<path id="Path_1587" data-name="Path 1587" d="M321.511,233.942c0-.037.123-.07.189-.231a.466.466,0,0,0,.024-.289,1.744,1.744,0,0,0-.145-.383,2.635,2.635,0,0,1-.366-1.1c.065-.03.335.412.6.988a1.431,1.431,0,0,1,.146.458.658.658,0,0,1-.015.231.551.551,0,0,1-.088.184.389.389,0,0,1-.24.162C321.548,233.977,321.512,233.958,321.511,233.942Z" transform="translate(-321.198 -231.942)" fill="#f69d7d"/>
			</g>
			<g id="Group_1081" data-name="Group 1081" transform="translate(11.351 6.388)">
				<path id="Path_1588" data-name="Path 1588" d="M271.144,196.695c-.022.031-.13-.012-.3-.057a1.771,1.771,0,0,0-1.306.124l-.191.094c-.048.023-.081.032-.093.018s0-.045.024-.092a.783.783,0,0,1,.158-.173,1.348,1.348,0,0,1,1.479-.14C271.088,196.567,271.164,196.668,271.144,196.695Z" transform="translate(-269.247 -196.311)" fill="#3e3533"/>
			</g>
			<g id="Group_1082" data-name="Group 1082" transform="translate(14.721 6.053)">
				<path id="Path_1589" data-name="Path 1589" d="M334.156,190.373c-.025-.023.03-.136.182-.265a1.347,1.347,0,0,1,1.479-.14.788.788,0,0,1,.188.14c.037.041.051.071.041.086s-.044.012-.1,0l-.205-.057a1.77,1.77,0,0,0-1.306.124C334.282,190.337,334.183,190.4,334.156,190.373Z" transform="translate(-334.151 -189.81)" fill="#3e3533"/>
			</g>
			<path id="Path_1590" data-name="Path 1590" d="M279.985,225.877a.515.515,0,1,1-.537-.486A.511.511,0,0,1,279.985,225.877Z" transform="translate(-267.102 -217.508)" fill="#3e3533"/>
			<path id="Path_1591" data-name="Path 1591" d="M336.4,223.31a.515.515,0,1,1-.537-.486A.512.512,0,0,1,336.4,223.31Z" transform="translate(-320.584 -215.073)" fill="#3e3533"/>
			<g id="Group_1083" data-name="Group 1083" transform="translate(12.688 10.2)">
				<path id="Path_1592" data-name="Path 1592" d="M295.072,270.451a4.06,4.06,0,0,0,2.449.3c-.175.643-.384,1.094-1.319,1.039A1.158,1.158,0,0,1,295.072,270.451Z" transform="translate(-295.056 -270.451)" fill="#cb4453"/>
				<path id="Path_1593" data-name="Path 1593" d="M295.092,271.135a1.567,1.567,0,0,1,.231.095,3.34,3.34,0,0,1,1.323,1.189,1.968,1.968,0,0,1-.421.016A1.157,1.157,0,0,1,295.092,271.135Z" transform="translate(-295.079 -271.1)" fill="#dd5664"/>
				<path id="Path_1594" data-name="Path 1594" d="M297.184,270.793a1.772,1.772,0,0,1-.087.295,2.9,2.9,0,0,1-2.074-.271,1,1,0,0,1,0-.365A4.907,4.907,0,0,0,297.184,270.793Z" transform="translate(-295.006 -270.451)" fill="#f8e8d8"/>
			</g>
			<path id="Path_1595" data-name="Path 1595" d="M204.882,225.776a2.109,2.109,0,0,0,.242,1.377.745.745,0,0,0,.234.348.262.262,0,0,0,.372-.06c.06-.123-.029-.262-.1-.38s-.108-.3.008-.37c.054-.034.125-.032.182-.061.124-.065.123-.239.091-.374a2.078,2.078,0,0,0-.208-.534.538.538,0,0,0-.426-.33C205.08,225.394,204.937,225.587,204.882,225.776Z" transform="translate(-196.832 -217.508)" fill="#e8a78e"/>
			<g id="Group_1084" data-name="Group 1084" transform="translate(8.349 4.057)">
				<path id="Path_1596" data-name="Path 1596" d="M211.921,154.422a2.26,2.26,0,0,1,.765,1.4h.441v-1.67s1.336-.364.829-2.308-2.5-.013-2.5-.013Z" transform="translate(-211.461 -150.981)" fill="#3e3533"/>
			</g>
			<path id="Path_1597" data-name="Path 1597" d="M202.6,76.609a3.383,3.383,0,0,1-3.213.217c-1.788-.8-1.779-1.985-1.779-1.985a4.111,4.111,0,0,0,2.626-1.228c1.062-1.166,4.155-2.35,6.488-.747s1.6,3.954.2,4.351-2.189-.564-2.543-.352A1.387,1.387,0,0,1,202.6,76.609Z" transform="translate(-189.981 -72.087)" fill="#3e3533"/>
			<path id="Path_1598" data-name="Path 1598" d="M202.868,92.964a3.853,3.853,0,0,0-.513-.512,16.151,16.151,0,0,1-9.172,2.522,2.407,2.407,0,0,0,.214.283,5.66,5.66,0,0,0-.768.471,10.992,10.992,0,0,0,10.238-2.764Z" transform="translate(-185.259 -91.405)" fill="#352f2f"/>
			<path id="Path_1599" data-name="Path 1599" d="M169.365,679.418c.256-.468.53-.926.83-1.369l.462.383c.5.411.836.687.9.728.315.2,1.628.207,1.654,1.07,0,0,.355.443.651.864s-.877.409-.912.9-.866.22-1.015.716-.169.453-.595.446-.833-.345-.863-1.06a1.164,1.164,0,0,1-1.035-.852c0-.025-.008-.05-.011-.073C169.372,680.56,170,679.95,169.365,679.418Z" transform="translate(-163.202 -646.891)" fill="#fbc0a4"/>
			<path id="Path_1600" data-name="Path 1600" d="M154.536,666.187l.481.557a4.268,4.268,0,0,0,1.7-1.659l-.531-.734Z" transform="translate(-149.143 -633.898)" fill="#f8e8d8"/>
			<path id="Path_1601" data-name="Path 1601" d="M55.938,419.978a8.3,8.3,0,0,0,2.283-2.212l-2.845-4.8L59,408.805l-1.3-4.449c-1.988,1.107-6.772,7.166-6.995,8.808C50.626,413.75,55.938,419.978,55.938,419.978Z" transform="translate(-50.705 -387.271)" fill="#3e3533"/>
		</g>
	</g>
</svg>
