<svg xmlns="http://www.w3.org/2000/svg" width="30" height="40" viewBox="0 0 34 50">
  <g id="Group_1095" data-name="Group 1095" transform="translate(-97.638 -17.064)">
    <g id="Group_1088" data-name="Group 1088" transform="translate(98.24 17.064)">
      <g id="Group_1086" data-name="Group 1086" transform="translate(0 0.223)">
        <path id="Path_17621" data-name="Path 17621" d="M12.321-.127a12.277,12.277,0,0,1,12.3,12.447A12.622,12.622,0,0,1,12.178,24.91,12.277,12.277,0,0,1-.126,12.463,12.622,12.622,0,0,1,12.321-.127Z" transform="translate(0 9.709) rotate(-22.5)" fill="#ee7c7b"/>
        <path id="Path_1602" data-name="Path 1602" d="M167.544,74.685a10.558,10.558,0,1,1-10.557-10.73A10.644,10.644,0,0,1,167.544,74.685Z" transform="translate(-140.929 -58.215)" fill="#e27372"/>
        <path id="Path_1603" data-name="Path 1603" d="M176.822,85.485a9.01,9.01,0,1,1-9.008-9.156A9.083,9.083,0,0,1,176.822,85.485Z" transform="translate(-151.754 -69.016)" fill="#fff"/>
        <path id="Path_1604" data-name="Path 1604" d="M190.77,101.726a6.681,6.681,0,1,1-6.681-6.79A6.736,6.736,0,0,1,190.77,101.726Z" transform="translate(-168.031 -85.256)" fill="#72aad3"/>
        <path id="Path_1605" data-name="Path 1605" d="M199.259,111.607a5.265,5.265,0,1,1-5.264-5.35A5.308,5.308,0,0,1,199.259,111.607Z" transform="translate(-177.936 -95.138)" fill="#ee7c7b"/>
        <path id="Path_1606" data-name="Path 1606" d="M208.893,122.819a3.657,3.657,0,1,1-3.657-3.717A3.688,3.688,0,0,1,208.893,122.819Z" transform="translate(-189.177 -106.349)" fill="#e27372"/>
        <path id="Path_1607" data-name="Path 1607" d="M216.477,131.653a2.391,2.391,0,1,1-2.391-2.43A2.411,2.411,0,0,1,216.477,131.653Z" transform="translate(-198.028 -115.183)" fill="#fff"/>
      </g>
      <g id="Group_1087" data-name="Group 1087" transform="translate(16.059)">
        <line id="Line_90" data-name="Line 90" y1="9.295" x2="9.145" transform="translate(1.844 6.044)" fill="none" stroke="#5387af" stroke-miterlimit="10" stroke-width="0.5"/>
        <path id="Path_1608" data-name="Path 1608" d="M311.952,47.726l3.375-3.431,3.407.227-3.763,3.825Z" transform="translate(-301.799 -40.832)" fill="#5387af"/>
        <path id="Path_1609" data-name="Path 1609" d="M307.681,23.958l3.376-3.431-.223-3.463-3.763,3.825Z" transform="translate(-297.529 -17.064)" fill="#72aad3"/>
        <path id="Path_1610" data-name="Path 1610" d="M230.8,126.349l3.738-1.325-2.434-2.474Z" transform="translate(-230.804 -109.136)" fill="#72aad3"/>
        <path id="Path_1611" data-name="Path 1611" d="M230.8,134.838l3.738-1.325-1.217-1.237Z" transform="translate(-230.804 -117.625)" fill="#5387af"/>
      </g>
    </g>
    <path id="Path_1612" data-name="Path 1612" d="M112.445,388.721c0,.728-3.315,1.317-7.4,1.317s-7.4-.59-7.4-1.317,3.315-1.317,7.4-1.317S112.445,387.994,112.445,388.721Z" transform="translate(0 -323.246)" fill="rgba(114,170,211,0.3)"/>
    <path id="Path_1613" data-name="Path 1613" d="M265.843,390.854c0,.728-3.315,1.317-7.4,1.317s-7.4-.59-7.4-1.317,3.315-1.317,7.4-1.317S265.843,390.127,265.843,390.854Z" transform="translate(-134.205 -325.108)" fill="rgba(114,170,211,0.3)"/>
    <g id="Group_1091" data-name="Group 1091" transform="translate(115.017 30.756)">
      <g id="Group_1089" data-name="Group 1089" transform="translate(5.615 18.347)">
        <path id="Path_1614" data-name="Path 1614" d="M294.407,332.058l.4,7.861h.688l.54-7.861Z" transform="translate(-292.782 -324.04)" fill="#f7a67b"/>
        <path id="Path_1615" data-name="Path 1615" d="M303.191,269.145l-.372,2.334.032,4.372.624,8.733h-.688l-1.651-8.085-1.093-4.6-.633-2.751Z" transform="translate(-297.161 -269.127)" fill="#f7a67b"/>
        <path id="Path_1616" data-name="Path 1616" d="M292.113,277.027h2.008l.006-.2.781-7.821h-2.876l.08,7.635Z" transform="translate(-290.705 -269.009)" fill="#5387af"/>
        <path id="Path_1617" data-name="Path 1617" d="M284.245,391.221l-1.547.346s-1.08.162-1.27-.119a.072.072,0,0,1,.045-.094l1.976-.807h.688A1.141,1.141,0,0,1,284.245,391.221Z" transform="translate(-281.424 -375.092)" fill="#152f3c"/>
        <path id="Path_1618" data-name="Path 1618" d="M313.029,391.221l-1.546.346s-1.08.162-1.27-.118a.072.072,0,0,1,.045-.094l1.976-.807h.688A1.139,1.139,0,0,1,313.029,391.221Z" transform="translate(-306.606 -375.092)" fill="#152f3c"/>
        <path id="Path_1619" data-name="Path 1619" d="M301.01,276.585l.061.56h1.989l-.1-1.262-.137-4.4.372-2.334h-3.78l.633,2.751Z" transform="translate(-297.161 -269.127)" fill="#72aad3"/>
      </g>
      <path id="Path_1620" data-name="Path 1620" d="M298.462,186.466l-1.192-.449v-1.542h-1.383v1.542l-1.192.449Z" transform="translate(-287.419 -176.877)" fill="#f7a67b"/>
      <path id="Path_1621" data-name="Path 1621" d="M305.6,185.381v-.907h-1.383v.976A2.876,2.876,0,0,0,305.6,185.381Z" transform="translate(-295.753 -176.877)" fill="#f49165"/>
      <g id="Group_1090" data-name="Group 1090" transform="translate(0 9.791)">
        <path id="Path_1622" data-name="Path 1622" d="M237.951,242.725a.205.205,0,0,0-.158-.045l-.349.153-.786.444s-.228.234-.045.3a1.609,1.609,0,0,0,.816-.051,3.691,3.691,0,0,0,.4-.139h0a6.183,6.183,0,0,0,.921.245l.359-.607A8.967,8.967,0,0,0,237.951,242.725Z" transform="translate(-236.542 -237.471)" fill="#fba77a"/>
        <path id="Path_1623" data-name="Path 1623" d="M254.536,201.745a1.5,1.5,0,0,0-1.674,1.175,41.782,41.782,0,0,0-1.178,4.18l-2.942-.175-.3.94,3.378.663s1.1.158,1.2-.5a15.675,15.675,0,0,0,.789-1.786A18.219,18.219,0,0,0,255.4,202.9.922.922,0,0,0,254.536,201.745Z" transform="translate(-246.952 -201.73)" fill="#931f25"/>
      </g>
      <path id="Path_1624" data-name="Path 1624" d="M290.649,196.358l1.6.578a1.347,1.347,0,0,1,.714,1.266l-.562,1.136a22.482,22.482,0,0,1,.045,6.275h0v.568h-4.871v-.568a34.4,34.4,0,0,1-.123-6.028l-.322-1.954c0-.472.755-.755.755-.755l1.384-.52A2.725,2.725,0,0,0,290.649,196.358Z" transform="translate(-280.799 -187.25)" fill="#af262d"/>
      <path id="Path_1625" data-name="Path 1625" d="M295.557,270.106v-.51h-.012l-.068.325.068-.325h-4.859v.51h4.753l-.007.036.007-.036Zm-.092-.127-.026.124Z" transform="translate(-283.912 -251.175)" fill="#7b191e"/>
      <path id="Path_1626" data-name="Path 1626" d="M326.76,125.759a1.817,1.817,0,0,0,.042-.428,3.556,3.556,0,0,0-.173-.513c-.075-.126-.207-.026-.207-.026a.831.831,0,0,0-.37.057c-.166-.106-.213.1-.213.1l.044.143c-.269.082-.09.53-.09.53a.818.818,0,0,0,.345.34l-.012.011.124.5.633-.21Z" transform="translate(-314.575 -124.734)" fill="#fba77a"/>
      <path id="Path_1627" data-name="Path 1627" d="M319.932,140.654a15.817,15.817,0,0,1-.836,2.872.942.942,0,0,1-1.4.264s-.913-.361-.423-1.809c0,0,1.569-1.828,1.217-8.6a1.347,1.347,0,0,1,.842-.226A26.736,26.736,0,0,1,319.932,140.654Z" transform="translate(-307.042 -132.085)" fill="#931f25"/>
      <path id="Path_1628" data-name="Path 1628" d="M298.667,162.865l.077-.459.017,0a.3.3,0,0,0,.069-.011l0,0a.592.592,0,0,0,.286-.265l.015-.027c.16-.326,0-.432,0-.432a.449.449,0,0,0-.069-.04l-.016-.006A.312.312,0,0,0,299,161.6l-.013,0a.247.247,0,0,0-.05,0h-.006a.243.243,0,0,0-.052.008h0c-.179.049-.268.3-.268.3l-.024.213-.152-.008c.093-.658.121-1.289.121-1.289a.677.677,0,0,0-.227-.563l.231-.206h0a2.638,2.638,0,0,1-2.626.189,6.5,6.5,0,0,0,.028,2.89,1.3,1.3,0,0,0,.5.76l.377.043c.211-.046.572-.164.572-.164.823-.363,1.106-.369,1.245-.831,0,0,0-.027.012-.069Z" transform="translate(-288.374 -155.557)" fill="#f7a67b"/>
      <path id="Path_1629" data-name="Path 1629" d="M296.749,149.772a.364.364,0,0,0,.048-.352.82.82,0,0,0-.485-.492,2.931,2.931,0,0,0-1.04-.163,3.064,3.064,0,0,0-1.749.409c-.118.075-.374.239-.41.395a.621.621,0,0,0,.236.717,2.708,2.708,0,0,0,.077,1.589,6.37,6.37,0,0,1,.148-1.488h0a3.361,3.361,0,0,0,1.074.317,2.5,2.5,0,0,0,1.552-.506h0l-.232.206a.677.677,0,0,1,.227.563s-.028.63-.121,1.289l.152.008.024-.213s.172-.481.523-.234c0,0,.159.106,0,.432,0,0-.152.306-.39.307l-.077.459c.649-.225.725-1.926.725-1.926A1.694,1.694,0,0,0,296.749,149.772Z" transform="translate(-286.013 -145.708)" fill="#d97a0f"/>
    </g>
    <g id="Group_1094" data-name="Group 1094" transform="translate(99.878 31.735)">
      <g id="Group_1092" data-name="Group 1092" transform="translate(0.931 17.174)">
        <path id="Path_1630" data-name="Path 1630" d="M150.9,269.009l1.2,7.821,1.125,7.635h.688l.2-7.821.065-7.635Z" transform="translate(-147.405 -268.815)" fill="#5387af"/>
        <path id="Path_1631" data-name="Path 1631" d="M168.533,391.221l1.547.346s1.08.162,1.27-.119a.072.072,0,0,0-.045-.094l-1.976-.807h-.688A1.14,1.14,0,0,0,168.533,391.221Z" transform="translate(-162.825 -374.898)" fill="#753f2c"/>
        <path id="Path_1632" data-name="Path 1632" d="M125.8,391.221l-1.547.346s-1.08.162-1.27-.119a.072.072,0,0,1,.045-.094l1.976-.807h.688A1.14,1.14,0,0,1,125.8,391.221Z" transform="translate(-122.982 -374.898)" fill="#753f2c"/>
        <path id="Path_1633" data-name="Path 1633" d="M141.214,268.307l-.7,2.094-.8,4.332-1.307,8.4h-.688L137.674,275l.046-4.79-.2-2.721Z" transform="translate(-135.703 -267.484)" fill="#72aad3"/>
      </g>
      <path id="Path_1634" data-name="Path 1634" d="M178.546,220.97c-.058-.388-.244-.194-.464-.133-.169.047-.139.057-.313.1a.338.338,0,0,0,.2-.181.129.129,0,0,0-.1-.174l-.336.274c-.069.058-.142.111-.208.172a.589.589,0,0,0-.129.2l-3.353,1.553a20.253,20.253,0,0,1-.768-2.649l-1.133.512s-.171.915,1.132,3.34c.391.642,1.235-.036,1.235-.036l3.074-2.279a.33.33,0,0,0,.056.011,2.046,2.046,0,0,0,.969-.27S178.716,221.1,178.546,220.97Z" transform="translate(-164.883 -208.98)" fill="#fba77a"/>
      <path id="Path_1635" data-name="Path 1635" d="M146.221,160.049l-1.192-.449v-.67a.486.486,0,0,0,.289-.044,1.3,1.3,0,0,0,.533-.736,6.4,6.4,0,0,0,.135-3.019c-.2-1.194-1.416-1.017-1.605-1s-1.454.093-1.5,1.3l.127,1.056a.3.3,0,0,0-.258.049s-.164.1-.02.431a.5.5,0,0,0,.375.327c.037.3.064.525.065.53a.749.749,0,0,0,.476.542V159.6l-1.193.449,2.575.75C145.32,160.593,146.221,160.049,146.221,160.049Z" transform="translate(-139.087 -151.356)" fill="#f7a67b"/>
      <path id="Path_1636" data-name="Path 1636" d="M116.751,138.486a1.617,1.617,0,0,0,.09-.382l.367-3.937h0a.572.572,0,0,0,.179-.123c.061-.067.112-.141.169-.211l.27-.342s-.037-.152-.171-.1a1.722,1.722,0,0,0-.275.149,1.925,1.925,0,0,0-.068-.535c-.075-.28-.1-.492-.2-.57-.294.078-.3,1.012-.3,1.012a1.959,1.959,0,0,0-.069.478c0,.011,0,.022.006.032l-1.127,3.872a1.742,1.742,0,0,0-.074.654.889.889,0,0,0,0,.216c1.064,2.542,1.877,2.973,1.877,2.973l1.1-.586A19.666,19.666,0,0,1,116.751,138.486Z" transform="translate(-115.541 -132.435)" fill="#f7a67b"/>
      <path id="Path_1637" data-name="Path 1637" d="M128.625,194.855c-.277-1.338-.732-2.993-.732-2.993,0-.473-.755-.755-.755-.755l-1.135-.4c-.453.777-1.851-.011-1.851-.011l-.973.328c-.316-.42-.684-.9-1.03-1.318-.223-.18-.8.072-1.212.342a1.393,1.393,0,0,0-.513.6,35.6,35.6,0,0,0,2.189,3.116l-.3,7.084a10.757,10.757,0,0,0,5.391.011l-.1-5.255.006,0C128.071,195.451,128.625,195.145,128.625,194.855Z" transform="translate(-119.812 -182.375)" fill="#c9ecfc"/>
      <g id="Group_1093" data-name="Group 1093" transform="translate(3.325 2.026)">
        <path id="Path_1638" data-name="Path 1638" d="M151.985,186.04v-.907h1.383v1.138A1.921,1.921,0,0,1,151.985,186.04Z" transform="translate(-150.751 -180.458)" fill="#f49165"/>
        <path id="Path_1639" data-name="Path 1639" d="M146.143,148.4s-.433.479-1.479.153c-.936-.444-2.337-.062-2.1.891,0,0,0,.011.005.016-.118.025-.487.17-.453,1.038a3.8,3.8,0,0,0,.748,2.249c.005.042.009.068.009.069.117.469.4.488,1.2.89,0,0,.355.136.564.192a.461.461,0,0,0,.378-.025,1.3,1.3,0,0,0,.532-.736,6.244,6.244,0,0,0,.232-1.293l0,.019a10.59,10.59,0,0,0,.161-2.123A1.589,1.589,0,0,0,146.143,148.4Zm-3.157,3.824a.19.19,0,0,1-.164.063c-.176,0-.318-.176-.384-.328-.144-.333.02-.431.02-.431.361-.229.511.255.512.259C143.008,151.914,143.067,152.121,142.986,152.224Zm2.349.138c-.28.13-.443-.008-.739.052a1.318,1.318,0,0,1-.778.012,1.44,1.44,0,0,1-.7-.612c-.046-.59-.046-1.108-.046-1.108a.694.694,0,0,1,.221-.524,3.452,3.452,0,0,0,2.123-.049l.37,1.7C145.759,152.053,145.684,152.2,145.335,152.362Z" transform="translate(-142.119 -148.369)" fill="#4f241b"/>
      </g>
    </g>
  </g>
</svg>
