<svg xmlns="http://www.w3.org/2000/svg" viewBox="0 0 23.01 21"><defs><style>.cls-1{fill:#dc3e15;}</style></defs><title>Asset 4powerpoint</title><g id="Layer_2" data-name="Layer 2"><g id="Layer_1-2" data-name="Layer 1"><path id="Icon_simple-microsoftpowerpoint" data-name="Icon simple-microsoftpowerpoint" class="cls-1" d="M22.51,3.11H14.32V6.06a2.85,2.85,0,0,1,1.78-.55V8.37h2.95a2.78,2.78,0,0,1-.87,2,3,3,0,0,1-2.1.84,3.22,3.22,0,0,1-1.75-.56v2h6.44v1H14.33V14.8h6.43v1H14.32v2.16h8.19a.44.44,0,0,0,.49-.37.28.28,0,0,0,0-.13V3.58c0-.31-.16-.47-.49-.47Zm-6,4.79V5a3,3,0,0,1,2.1.84,2.81,2.81,0,0,1,.87,2ZM7.91,8a.92.92,0,0,0-.25-.44,1,1,0,0,0-.46-.22,2.5,2.5,0,0,0-.66-.09l-.69,0V10h.81a2.05,2.05,0,0,0,.78-.21A1.23,1.23,0,0,0,8,8.93a2.2,2.2,0,0,0-.06-1V8ZM0,2.24V18.82L13.12,21V0ZM9.79,9.71a2.63,2.63,0,0,1-1.62,1.54,6.77,6.77,0,0,1-2.33.26v3.16l-1.72-.2V5.79l2.74-.13a4.22,4.22,0,0,1,1.5.16,2.06,2.06,0,0,1,1.17.85A3,3,0,0,1,10,8.16,3.57,3.57,0,0,1,9.79,9.71Z"/></g></g></svg>