<svg id="undraw_Done_checking_re_6vyx" xmlns="http://www.w3.org/2000/svg" width="300" height="100" viewBox="0 0 600 458">
  <path id="Path_20885" data-name="Path 20885" d="M268.628,734.475l-.028.181c-.033-.177-.065-.358-.1-.536-.056-.288-.1-.577-.149-.867a70.547,70.547,0,0,1,2.888-33.806q1.066-3.182,2.429-6.247A69.249,69.249,0,0,1,288.2,671.995a29.889,29.889,0,0,1,6.736-5.165c.364-.193.73-.375,1.1-.544a12.329,12.329,0,0,1,7.39-1.07,10.076,10.076,0,0,1,2.631.883c.292.142.573.3.848.464a14.593,14.593,0,0,1,6.391,9.773,22.783,22.783,0,0,1-.321,8.887q-.089.418-.191.832a46.315,46.315,0,0,1-1.84,5.711C303.575,710.711,287.74,727.522,268.628,734.475Z" transform="translate(-213.257 -277.191)" fill="#f2f2f2"/>
  <path id="Path_20886" data-name="Path 20886" d="M306.27,666.473q-8.624,12.386-16.293,25.4t-14.318,26.562q-3.725,7.586-7.124,15.326c-.251.571.6,1.068.849.489q6.07-13.816,13.175-27.147t15.2-26.069q4.531-7.134,9.363-14.071C307.48,666.445,306.629,665.958,306.27,666.473Z" transform="translate(-213.52 -277.505)" fill="#fff"/>
  <path id="Path_20887" data-name="Path 20887" d="M319.428,692.35a26.927,26.927,0,0,1-17.7,10.252,25.6,25.6,0,0,1-5.909.117c-.629-.06-.634.921-.01.98a27.913,27.913,0,0,0,20.229-6.389,26.567,26.567,0,0,0,4.238-4.471c.378-.5-.474-.989-.85-.489Z" transform="translate(-220.526 -284.269)" fill="#fff"/>
  <path id="Path_20888" data-name="Path 20888" d="M276.526,725.67a22.521,22.521,0,0,1-2.487-4.6,23.751,23.751,0,0,1-1.528-11.668q1.066-3.182,2.429-6.247a.56.56,0,0,1,.045.553,21.5,21.5,0,0,0-1.371,4.773,22.7,22.7,0,0,0,3.762,16.7.4.4,0,0,1,.065.384.534.534,0,0,1-.917.1Z" transform="translate(-214.525 -287.148)" fill="#fff"/>
  <path id="Path_20889" data-name="Path 20889" d="M304.575,666.5a22.794,22.794,0,0,0,1.005,14.168.493.493,0,0,0,.669.182.5.5,0,0,0,.183-.668,21.693,21.693,0,0,1-.911-13.424.49.49,0,0,0-.946-.258Z" transform="translate(-222.755 -277.478)" fill="#fff"/>
  <path id="Path_20890" data-name="Path 20890" d="M263.617,699.432l.06.174c-.112-.141-.224-.286-.334-.43-.183-.229-.36-.462-.535-.7A70.564,70.564,0,0,1,249.653,667.2q-.534-3.313-.752-6.66a69.215,69.215,0,0,1,3-25.523,29.868,29.868,0,0,1,3.564-7.7c.233-.34.472-.672.725-.994a12.322,12.322,0,0,1,6.047-4.378,10.078,10.078,0,0,1,2.74-.44c.324-.01.645,0,.967.017a14.6,14.6,0,0,1,10.2,5.687,22.794,22.794,0,0,1,3.846,8.02q.115.411.217.825a46.312,46.312,0,0,1,1.025,5.911C283.519,662.163,277.31,684.4,263.617,699.432Z" transform="translate(-208.367 -265.811)" fill="#f2f2f2"/>
  <path id="Path_20891" data-name="Path 20891" d="M269.6,621.449q-1.88,14.972-2.623,30.057t-.334,30.17q.227,8.447.815,16.879c.043.622,1.024.669.98.039q-1.046-15.053-.95-30.156t1.342-30.142q.7-8.421,1.751-16.808c.079-.625-.9-.662-.98-.039Z" transform="translate(-213.001 -265.681)" fill="#fff"/>
  <path id="Path_20892" data-name="Path 20892" d="M284.309,640.5a26.906,26.906,0,0,1-10.909,17.3,25.582,25.582,0,0,1-5.178,2.847c-.585.24-.133,1.11.447.873a27.893,27.893,0,0,0,14.945-15.049,26.539,26.539,0,0,0,1.675-5.927c.1-.621-.879-.655-.98-.039Z" transform="translate(-213.38 -270.659)" fill="#fff"/>
  <path id="Path_20893" data-name="Path 20893" d="M260.827,693.546a22.535,22.535,0,0,1-4.338-2.915,23.764,23.764,0,0,1-6.776-9.624q-.534-3.312-.752-6.659a.56.56,0,0,1,.3.469,21.491,21.491,0,0,0,1,4.863,22.718,22.718,0,0,0,11.092,13.04.4.4,0,0,1,.236.31.534.534,0,0,1-.764.516Z" transform="translate(-208.426 -279.62)" fill="#fff"/>
  <path id="Path_20894" data-name="Path 20894" d="M257.628,628.332a22.8,22.8,0,0,0,7.475,12.08.493.493,0,0,0,.677-.149.5.5,0,0,0-.149-.677,21.7,21.7,0,0,1-7.046-11.465.49.49,0,0,0-.957.211Z" transform="translate(-210.685 -267.445)" fill="#fff"/>
  <path id="Path_20895" data-name="Path 20895" d="M253.3,734.968l.144.114c-.17-.059-.343-.121-.513-.183-.278-.095-.552-.2-.827-.3a70.627,70.627,0,0,1-27.939-19.274q-2.235-2.5-4.222-5.206A69.235,69.235,0,0,1,208.725,687a29.859,29.859,0,0,1-1.147-8.407c.013-.412.036-.82.075-1.228a12.311,12.311,0,0,1,2.735-6.944,10.077,10.077,0,0,1,2.072-1.845c.268-.183.543-.35.824-.506a14.61,14.61,0,0,1,11.661-.7,22.816,22.816,0,0,1,7.562,4.687q.319.284.628.578a46.318,46.318,0,0,1,4.049,4.429C249.991,692.854,256.743,714.933,253.3,734.968Z" transform="translate(-197.631 -277.563)" fill="#f2f2f2"/>
  <path id="Path_20896" data-name="Path 20896" d="M214.2,669.149q6.484,13.627,13.987,26.738t15.976,25.6q4.744,6.995,9.782,13.784c.372.5,1.223.013.847-.495q-8.993-12.121-17.051-24.9t-15.112-26.119q-3.951-7.47-7.582-15.1C214.779,668.085,213.934,668.582,214.2,669.149Z" transform="translate(-199.346 -278.067)" fill="#fff"/>
  <path id="Path_20897" data-name="Path 20897" d="M239.832,674.753a26.894,26.894,0,0,1,.129,20.445,25.572,25.572,0,0,1-2.829,5.186c-.364.517.486,1.007.847.495a27.873,27.873,0,0,0,4.483-20.724,26.544,26.544,0,0,0-1.782-5.9C240.43,673.681,239.585,674.179,239.832,674.753Z" transform="translate(-205.317 -279.53)" fill="#fff"/>
  <path id="Path_20898" data-name="Path 20898" d="M244.658,735.345a22.567,22.567,0,0,1-5.226-.121,23.787,23.787,0,0,1-10.9-4.462q-2.235-2.5-4.222-5.206a.561.561,0,0,1,.5.235,21.512,21.512,0,0,0,3.467,3.557,22.737,22.737,0,0,0,16.373,5.017.4.4,0,0,1,.366.134.534.534,0,0,1-.366.846Z" transform="translate(-201.997 -293)" fill="#fff"/>
  <path id="Path_20899" data-name="Path 20899" d="M206.894,681.992a22.823,22.823,0,0,0,12.808,6.155c.265.035.488-.25.49-.49a.5.5,0,0,0-.49-.49,21.721,21.721,0,0,1-12.115-5.868C207.133,680.862,206.439,681.553,206.894,681.992Z" transform="translate(-197.414 -281.4)" fill="#fff"/>
  <path id="Path_20900" data-name="Path 20900" d="M355.556,555.66a7.933,7.933,0,0,0,1.169-12.112l3.08-68.713-15.681,1.759.911,67.211a7.981,7.981,0,0,0,10.521,11.855Z" transform="translate(-232.962 -227.489)" fill="#ffb8b8"/>
  <path id="Path_20901" data-name="Path 20901" d="M204.564,589.539l8.925,1.568,8.821-33.658-11.694-2.315Z" transform="translate(-53.364 -145.051)" fill="#ffb8b8"/>
  <path id="Path_20902" data-name="Path 20902" d="M0,.008l28.479,0V11L11,11a11,11,0,0,1-11-11Z" transform="translate(175.88 457.367) rotate(-170.029)" fill="#2f2e41"/>
  <path id="Path_20903" data-name="Path 20903" d="M171.421,595.4h9.062l4.311-34.932H171.42Z" transform="translate(-44.717 -146.444)" fill="#ffb8b8"/>
  <path id="Path_20904" data-name="Path 20904" d="M0,0H28.479V11H11A11,11,0,0,1,0,0H0Z" transform="translate(153.239 457.362) rotate(179.997)" fill="#2f2e41"/>
  <path id="Path_20905" data-name="Path 20905" d="M403.7,692.075a3.513,3.513,0,0,1-.423-.025l-10.666-.877a3.606,3.606,0,0,1-3.136-4.181l9.849-55.168-6.655-35.07a1.2,1.2,0,0,0-2.379.118l-8.32,93.541a3.638,3.638,0,0,1-3.851,3.278l-10.048-.374a3.612,3.612,0,0,1-3.353-3.421l-.675-112.112,52.1-6.508,3.639,56.172-.014.059L407.2,689.32A3.611,3.611,0,0,1,403.7,692.075Z" transform="translate(-238.447 -252.689)" fill="#2f2e41"/>
  <ellipse id="Ellipse_2139" data-name="Ellipse 2139" cx="18.154" cy="18.143" rx="18.154" ry="18.143" transform="translate(124.616 166.531)" fill="#ffb8b8"/>
  <path id="Path_20906" data-name="Path 20906" d="M394.069,547.449a14.869,14.869,0,0,1-8.025-2.294c-8.794-5.493-18.782-3.31-23.953-1.52a3.609,3.609,0,0,1-3.12-.355,3.554,3.554,0,0,1-1.644-2.624l-9.4-83.936a29.411,29.411,0,0,1,20.154-31.439h0q.747-.234,1.519-.444a29.26,29.26,0,0,1,24.371,4.227,29.7,29.7,0,0,1,12.689,21.683l7.916,84.5a3.55,3.55,0,0,1-1.129,2.96C410.669,540.772,402.615,547.448,394.069,547.449Z" transform="translate(-234.193 -214.159)" fill="#e6a744"/>
  <path id="Path_20907" data-name="Path 20907" d="M362.864,479.076l-21.216-2.331a4.224,4.224,0,0,1-3.626-5.27l5.4-20.57a11.736,11.736,0,0,1,23.324,2.632l.8,21.183a4.225,4.225,0,0,1-4.685,4.357Z" transform="translate(-231.623 -218.515)" fill="#e6a744"/>
  <path id="Path_20908" data-name="Path 20908" d="M430.673,551.7a7.933,7.933,0,0,0-.3-12.165l-5.228-68.584-15.366,3.457,9.02,66.79a7.981,7.981,0,0,0,11.874,10.5Z" transform="translate(-250.378 -226.476)" fill="#ffb8b8"/>
  <path id="Path_20909" data-name="Path 20909" d="M401.335,473.631a4.218,4.218,0,0,1-1.344-3.25l.8-21.183a11.736,11.736,0,0,1,23.325-2.632l5.4,20.57a4.224,4.224,0,0,1-3.626,5.27l-21.216,2.331a4.223,4.223,0,0,1-3.341-1.106Z" transform="translate(-247.824 -217.382)" fill="#e6a744"/>
  <path id="Path_20910" data-name="Path 20910" d="M378.194,400.283a4.2,4.2,0,0,1-.958-.112l-.092-.022c-15.961-2.441-19.489-11.68-20.263-15.539-.8-4,.111-7.851,2.173-9.349-1.124-3.548-.944-6.693.538-9.354,2.584-4.639,8.19-6.208,8.942-6.4,4.478-3.3,9.835-1.1,10.81-.651,8.662-3.2,11.972-.537,12.571.058,3.872.7,6.232,2.19,7.015,4.444,1.472,4.233-3.182,9.5-3.381,9.722l-.1.115-6.933.33a4.7,4.7,0,0,0-4.421,5.405h0a21.872,21.872,0,0,0,.71,2.479c1.184,3.7,2.071,6.858.927,8.059a1.856,1.856,0,0,1-1.94.336c-1.084-.289-1.82-.229-2.187.181-.569.635-.4,2.242.489,4.525a4.238,4.238,0,0,1-.773,4.319A4.116,4.116,0,0,1,378.194,400.283Z" transform="translate(-236.503 -196.781)" fill="#2f2e41"/>
  <path id="Path_20911" data-name="Path 20911" d="M639.881,437.605H550.445a12.576,12.576,0,0,1-12.565-12.558V290.727a12.576,12.576,0,0,1,12.565-12.558h89.435a12.576,12.576,0,0,1,12.565,12.558V425.047A12.576,12.576,0,0,1,639.881,437.605ZM550.445,279.646a11.1,11.1,0,0,0-11.087,11.081V425.047a11.1,11.1,0,0,0,11.087,11.081h89.435a11.1,11.1,0,0,0,11.087-11.081V290.727a11.1,11.1,0,0,0-11.087-11.081Z" transform="translate(-283.795 -176.102)" fill="#aeb3ba"/>
  <path id="Path_20912" data-name="Path 20912" d="M633.25,350.691H571.162a6.288,6.288,0,0,1-6.283-6.279V314.864a6.288,6.288,0,0,1,6.283-6.279H633.25a6.288,6.288,0,0,1,6.283,6.279v29.548A6.288,6.288,0,0,1,633.25,350.691Z" transform="translate(-290.838 -184.05)" fill="#e6a744"/>
  <path id="Path_20913" data-name="Path 20913" d="M630.511,398.9H577.293a5.91,5.91,0,1,1,0-11.819h53.218a5.91,5.91,0,1,1,0,11.819Z" transform="translate(-292.534 -204.561)" fill="#ccc"/>
  <path id="Path_20914" data-name="Path 20914" d="M630.511,428.9H577.293a5.91,5.91,0,1,1,0-11.819h53.218a5.91,5.91,0,1,1,0,11.819Z" transform="translate(-292.534 -212.4)" fill="#ccc"/>
  <path id="Path_20915" data-name="Path 20915" d="M630.511,458.9H577.293a5.91,5.91,0,1,1,0-11.819h53.218a5.91,5.91,0,1,1,0,11.819Z" transform="translate(-292.534 -220.238)" fill="#ccc"/>
  <path id="Path_20916" data-name="Path 20916" d="M934.88,539.605H845.445a12.575,12.575,0,0,1-12.565-12.558V392.727a12.575,12.575,0,0,1,12.565-12.558H934.88a12.576,12.576,0,0,1,12.565,12.558V527.047a12.576,12.576,0,0,1-12.565,12.558ZM845.445,381.646a11.1,11.1,0,0,0-11.087,11.081V527.047a11.1,11.1,0,0,0,11.087,11.081H934.88a11.1,11.1,0,0,0,11.087-11.081V392.727a11.1,11.1,0,0,0-11.087-11.081Z" transform="translate(-360.75 -202.754)" fill="#aeb3ba"/>
  <path id="Path_20917" data-name="Path 20917" d="M925.511,420.9H872.293a5.91,5.91,0,1,1,0-11.819h53.218a5.91,5.91,0,1,1,0,11.819Z" transform="translate(-369.489 -210.309)" fill="#ccc"/>
  <path id="Path_20918" data-name="Path 20918" d="M925.511,450.9H872.293a5.91,5.91,0,1,1,0-11.819h53.218a5.91,5.91,0,1,1,0,11.819Z" transform="translate(-369.489 -218.148)" fill="#ccc"/>
  <path id="Path_20919" data-name="Path 20919" d="M928.25,516.69H866.162a6.288,6.288,0,0,1-6.282-6.279V480.863a6.288,6.288,0,0,1,6.282-6.279H928.25a6.288,6.288,0,0,1,6.283,6.279v29.548A6.288,6.288,0,0,1,928.25,516.69Z" transform="translate(-367.794 -227.424)" fill="#e6e6e6"/>
  <path id="Path_20920" data-name="Path 20920" d="M925.511,562.9H872.293a5.91,5.91,0,1,1,0-11.819h53.218a5.91,5.91,0,1,1,0,11.819Z" transform="translate(-369.489 -247.412)" fill="#ccc"/>
  <path id="Path_20921" data-name="Path 20921" d="M860.881,268.634H771.445a12.576,12.576,0,0,1-12.565-12.558v-83.35a12.576,12.576,0,0,1,12.565-12.558h89.435a12.576,12.576,0,0,1,12.565,12.558v83.35a12.576,12.576,0,0,1-12.565,12.558ZM771.445,161.646a11.1,11.1,0,0,0-11.087,11.081v83.35a11.1,11.1,0,0,0,11.087,11.081h89.435a11.1,11.1,0,0,0,11.087-11.081v-83.35a11.1,11.1,0,0,0-11.087-11.081Z" transform="translate(-341.446 -145.27)" fill="#aeb3ba"/>
  <path id="Path_20922" data-name="Path 20922" d="M851.511,267.4H798.293a5.91,5.91,0,1,1,0-11.819h53.218a5.91,5.91,0,1,1,0,11.819Z" transform="translate(-350.185 -170.201)" fill="#ccc"/>
  <path id="Path_20923" data-name="Path 20923" d="M851.511,237.4H798.293a5.91,5.91,0,1,1,0-11.819h53.218a5.91,5.91,0,1,1,0,11.819Z" transform="translate(-350.185 -162.362)" fill="#ccc"/>
  <path id="Path_20924" data-name="Path 20924" d="M851.511,207.4H798.293a5.91,5.91,0,1,1,0-11.819h53.218a5.91,5.91,0,1,1,0,11.819Z" transform="translate(-350.185 -154.524)" fill="#ccc"/>
  <ellipse id="Ellipse_2140" data-name="Ellipse 2140" cx="17" cy="16.99" rx="17" ry="16.99" transform="translate(344.259 88.645)" fill="#e6a744"/>
  <path id="Path_20925" data-name="Path 20925" d="M678.563,287.2a1.764,1.764,0,0,1-1.061-.352l-.019-.014-4-3.057a1.774,1.774,0,1,1,2.159-2.816l2.588,1.983,6.115-7.971a1.776,1.776,0,0,1,2.489-.328l-.038.052.039-.051a1.775,1.775,0,0,1,.329,2.487l-7.193,9.375A1.777,1.777,0,0,1,678.563,287.2Z" transform="translate(-318.989 -175.086)" fill="#fff"/>
  <ellipse id="Ellipse_2141" data-name="Ellipse 2141" cx="17" cy="16.99" rx="17" ry="16.99" transform="translate(566 164.732)" fill="#aeb3ba"/>
  <path id="Path_20926" data-name="Path 20926" d="M978.564,390.2a1.763,1.763,0,0,1-1.061-.352l-.019-.014-4-3.057a1.774,1.774,0,1,1,2.159-2.816l2.588,1.983,6.115-7.971a1.775,1.775,0,0,1,2.489-.328l-.038.052.039-.051a1.775,1.775,0,0,1,.328,2.487l-7.193,9.375A1.776,1.776,0,0,1,978.564,390.2Z" transform="translate(-397.249 -201.999)" fill="#fff"/>
  <ellipse id="Ellipse_2142" data-name="Ellipse 2142" cx="17" cy="16.99" rx="17" ry="16.99" transform="translate(512.043)" fill="#aeb3ba"/>
  <path id="Path_20927" data-name="Path 20927" d="M905.563,167.2a1.764,1.764,0,0,1-1.061-.352l-.019-.014-4-3.057a1.774,1.774,0,1,1,2.159-2.816l2.588,1.983,6.115-7.971a1.776,1.776,0,0,1,2.489-.328l-.038.052.039-.051a1.775,1.775,0,0,1,.329,2.487l-7.193,9.375A1.776,1.776,0,0,1,905.563,167.2Z" transform="translate(-378.206 -143.732)" fill="#fff"/>
  <path id="Path_20928" data-name="Path 20928" d="M476.47,759.477H194.859a.739.739,0,1,1,0-1.477H476.47a.739.739,0,1,1,0,1.477Z" transform="translate(-194.12 -301.478)" fill="#3f3d56"/>
</svg>
