<svg xmlns="http://www.w3.org/2000/svg" width="30" height="40" viewBox="0 0 50 50">
  <g id="Group_7832" data-name="Group 7832" transform="translate(-52.417 -68.026)">
    <path id="Path_1513" data-name="Path 1513" d="M97.984,217.892v-1.253h-.6v1.253h-8.48v-1.253h-.6v1.253H79.834v-1.253h-.6v1.253h-8.48v-1.253h-.6v1.253H61.683v-1.253h-.6v1.253H53.351V209.8h1.274v-.562H53.351v-8.173h1.274V200.5H53.351V192.42h1.274v-.562H53.351v-8h1.274V183.3H53.351v-7.268h-.934v42.806h50v-.941Z" transform="translate(0 -100.807)" fill="#002b35"/>
    <path id="Path_1514" data-name="Path 1514" d="M732.6,114.4h4.773V68.026L732.6,72.306Z" transform="translate(-634.956 0)" fill="#ee7c7b"/>
    <path id="Path_1515" data-name="Path 1515" d="M598.355,165.773v8.608h8.926V132.289Z" transform="translate(-509.637 -59.983)" fill="#e6a744"/>
    <path id="Path_1516" data-name="Path 1516" d="M456.832,279l-.058-.149-.089.162v32.166h9.42v-8.608Z" transform="translate(-377.387 -196.781)" fill="#7f8a40"/>
    <path id="Path_1517" data-name="Path 1517" d="M322.383,297.643v15.809h8.93V281.286Z" transform="translate(-252.015 -199.054)" fill="#5387af"/>
    <path id="Path_1518" data-name="Path 1518" d="M191.77,537.927v4.724h8.685V526.843Z" transform="translate(-130.087 -428.253)" fill="#72aad3"/>
    <path id="Path_1519" data-name="Path 1519" d="M110.335,617.65l-5.8-5.395v10.119h5.8Z" transform="translate(-48.652 -507.976)" fill="#9ac9eb"/>
  </g>
</svg>
