<svg id="undraw_team_goals_hrii" xmlns="http://www.w3.org/2000/svg" width="580" height="340" viewBox="0 0 700 390">
  <ellipse id="Ellipse_1919" data-name="Ellipse 1919" cx="95.513" cy="13.29" rx="95.513" ry="13.29" transform="translate(508.975 362.018)" fill="#e6e6e6" opacity="0.5"/>
  <ellipse id="Ellipse_1920" data-name="Ellipse 1920" cx="95.791" cy="13.29" rx="95.791" ry="13.29" transform="translate(0 363.42)" fill="#e6e6e6" opacity="0.5"/>
  <path id="Path_18796" data-name="Path 18796" d="M358.085,429.179l2.464,5.14s13.986,18.842,5.346,21.794-13.225-17.871-13.225-17.871l-2.284-2.914Z" transform="translate(-198.45 -250.857)" fill="#ffb8b8"/>
  <path id="Path_18797" data-name="Path 18797" d="M335.865,307.421l2.3-.982s2.721.982,2.721,5.2-3.346,65.875-3.346,65.875l6.693,33.782-9.2,1.689-14.223-31.248Z" transform="translate(-192.341 -226.432)" fill="#575a89"/>
  <path id="Path_18798" data-name="Path 18798" d="M335.865,307.421l2.3-.982s2.721.982,2.721,5.2-3.346,65.875-3.346,65.875l17.987,29.137L343.813,415.1l-23.007-33.36Z" transform="translate(-192.341 -226.432)" fill="#575a89"/>
  <path id="Path_18799" data-name="Path 18799" d="M315.466,429.132s10.876,4.223,10.039,11.824S313.792,599.73,313.792,599.73l3.346,16.891-31.791.845-.837-108.947L261.922,617.466H230.131l22.589-191.712Z" transform="translate(-173.614 -250.175)" fill="#2f2e41"/>
  <path id="Path_18800" data-name="Path 18800" d="M327.545,659.822l7.53,7.6s17.569,3.378,13.386,9.29-47.687-1.689-47.687-1.689l.837-13.513Z" transform="translate(-188.203 -296.754)" fill="#2f2e41"/>
  <path id="Path_18801" data-name="Path 18801" d="M259.011,659.822l7.53,7.6s17.569,3.378,13.386,9.29-47.687-1.689-47.687-1.689l.837-13.513Z" transform="translate(-174.05 -296.754)" fill="#2f2e41"/>
  <ellipse id="Ellipse_1921" data-name="Ellipse 1921" cx="20.079" cy="20.269" rx="20.079" ry="20.269" transform="translate(95.001 10.047)" fill="#ffb8b8"/>
  <path id="Path_18802" data-name="Path 18802" d="M153.661,52.609l-1.673,34.626-25.935-15.2L129.4,52.609Z" transform="translate(-26.033 -10.469)" fill="#ffb8b8"/>
  <path id="Path_18803" data-name="Path 18803" d="M125,66.316,149.26,84.052l4.183-12.669,7.529,20.269-4.183,36.316Z" transform="translate(-25.815 -13.197)" fill="#cfcce0"/>
  <path id="Path_18804" data-name="Path 18804" d="M277.589,269.708l26.772,37.16.97-31.043,8.233,6.551v6.756l11.713,10.979-4.183,42.227-.837,49.828s5.02,4.223,3.346,6.756-8.366,8.445-15.9,8.445-54.38-5.912-54.38-9.29S255,350.784,255,350.784V291.666l20.079-15.2Z" transform="translate(-178.405 -219.122)" fill="#575a89"/>
  <path id="Path_18805" data-name="Path 18805" d="M92.313,236.708l10.876,16.046,4.183-18.58-5.02-3.378Z" transform="translate(-19.065 -45.928)" fill="#ffb8b8"/>
  <path id="Path_18825" data-name="Path 18825" d="M0,0,46.826-.143l-.005,1.676L-.005,1.676Z" transform="matrix(0.346, -0.938, 0.938, 0.346, 109.922, 258.956)" opacity="0.2"/>
  <path id="Path_18806" data-name="Path 18806" d="M286.23,217.024s2.51-12.668,16.732-10.135l-1.673.845s13.386-1.689,11.713,5.912c0,0,10.876,6.756,8.366,14.357a86.6,86.6,0,0,0-3.346,13.513l-2.51-2.534s-2.51-16.891-17.569-15.2c-11.294,1.267-15.9,6.651-17.072,10.53a34.466,34.466,0,0,1-2.067,5.308l-.94.208S272.845,221.247,286.23,217.024Z" transform="translate(-183.282 -206.555)" fill="#2f2e41"/>
  <path id="Path_18807" data-name="Path 18807" d="M257.2,295.978l-7.616-.357-1.587,1.2a50.433,50.433,0,0,0-5.02,5.912c-1.673,2.534-23.425,64.186-23.425,64.186a21.7,21.7,0,0,0,1.673,10.979c2.51,5.912,22.589,41.383,22.589,41.383l15.059-9.29L238.8,368.609l14.222-20.269Z" transform="translate(-171.404 -224.279)" fill="#575a89"/>
  <path id="Path_18808" data-name="Path 18808" d="M726.044,420.319v22.748h13.521l1.8-22.748Z" transform="translate(-149.943 -83.643)" fill="#a0616a"/>
  <path id="Path_18809" data-name="Path 18809" d="M766.372,418.858,771.78,431.6l9.014,3.64,1.8-25.478-7.211-3.639Z" transform="translate(-158.272 -80.817)" fill="#a0616a"/>
  <path id="Path_18810" data-name="Path 18810" d="M937.608,636.8s-.765-5.744-8.495-3.327l1.284,16.976s-6.31,19.108,2.7,17.288,14.422-19.108,14.422-19.108l6.31-29.117L938.6,615Z" transform="translate(-317.79 -287.835)" fill="#2f2e41"/>
  <path id="Path_18811" data-name="Path 18811" d="M866.113,401.382S853.493,497.834,858,508.753s51.829,81.438,51.829,81.438l20.732-27.3L884.14,504.2l43.266-60.055,3.606-36.4Z" transform="translate(-303.082 -245.325)" fill="#2f2e41"/>
  <path id="Path_18812" data-name="Path 18812" d="M761.611,237.994l11.9,6.357-.182,1.833L744.035,394.046,721.5,389.5,736.373,285.31Z" transform="translate(-149.005 -47.361)" fill="#2f2e41"/>
  <path id="Path_18813" data-name="Path 18813" d="M880.549,646.754l-5.408,8.189s-11.718,20.018.9,20.018,18.028,0,18.929-4.55a60.38,60.38,0,0,1,2.7-9.1l-.9-11.829Z" transform="translate(-305.8 -294.154)" fill="#2f2e41"/>
  <ellipse id="Ellipse_1922" data-name="Ellipse 1922" cx="19.83" cy="20.018" rx="19.83" ry="20.018" transform="translate(590.072 11.379)" fill="#a0616a"/>
  <path id="Path_18814" data-name="Path 18814" d="M905.147,253.7s2.7,15.469-5.408,18.2,9.915,39.127,9.915,39.127l20.732-34.577s-5.408-11.829-1.8-17.289Z" transform="translate(-311.469 -215.937)" fill="#a0616a"/>
  <path id="Path_18815" data-name="Path 18815" d="M902.458,298.593l-4.893-29.652-9.529,5.994L862.8,289.494l9.915,42.766-3.606,26.388s-4.507,8.189-3.606,11.829-.9,5.46,0,6.369,45.97,8.189,59.491,13.649,15.323,7.279,14.422,2.73S928.6,366.837,928.6,366.837l8.112-36.4,10.817-31.847-26.259-24.464Z" transform="translate(-304.273 -218.969)" fill="#575a89"/>
  <path id="Path_18816" data-name="Path 18816" d="M957.126,355.038l6.31,17.288L947.21,402.354l-5.294,4.157a5.488,5.488,0,0,0-1.909,5.7l3.6,13.8,9.431-14.139s25.723-31.357,24.821-39.546-3.606-20.928-3.606-20.928Z" transform="translate(-320.182 -235.378)" fill="#a0616a"/>
  <path id="Path_18817" data-name="Path 18817" d="M840.321,337.767l-4.507,22.748-17.126,42.766s-18.929,18.2-9.915,21.838,19.83-18.2,19.83-18.2l21.633-40.946,8.112-24.568Z" transform="translate(-292.613 -232.666)" fill="#a0616a"/>
  <path id="Path_18818" data-name="Path 18818" d="M956.145,303.524l7.256-.658,2.659,2.477s15.323,34.577,13.521,38.217-19.83,5.46-19.83,5.46l-7.211-21.838Z" transform="translate(-322.807 -225.721)" fill="#575a89"/>
  <path id="Path_18819" data-name="Path 18819" d="M865.4,295.246l-4.472-1.97-1.838,1.06s-18.028,36.4-13.521,38.217,26.14,4.55,26.14,4.55Z" transform="translate(-300.566 -223.812)" fill="#575a89"/>
  <path id="Path_18820" data-name="Path 18820" d="M732.939,328.6l-5.495,38.491-5.115-7.931Z" transform="translate(-149.176 -65.39)" opacity="0.2"/>
  <path id="Path_18821" data-name="Path 18821" d="M935.162,226.867s2,5.307-7.273,2.586c0,0-3.672,1.807-3.458-1.277,0,0-5.062,4.809-6.025,1.641s-3.6.779-3.6.779l-2-5.307-2.567,2.918-8.236-.581s-.929-20.728,27.165-16.68,11.948,35.647,11.948,35.647.178-5.864-2.389-2.946S935.162,226.867,935.162,226.867Z" transform="translate(-312.37 -207.324)" fill="#2f2e41"/>
  <path id="Path_18822" data-name="Path 18822" d="M368.509,434.984v87.374H730.07V434.984ZM585.135,507.7H390.873V495.383H585.135Zm0-22.87H390.873V472.514H585.135ZM707.7,461.958H390.873V449.644H707.7Z" transform="translate(-202.192 -252.012)" fill="#e6a744"/>
  <path id="Path_18823" data-name="Path 18823" d="M448.043,168.042h-48.8V118.784h33.111v1.173H400.41V166.87h46.472V143.413h1.162Z" transform="translate(-82.453 -23.638)" fill="#3f3d56"/>
  <path id="Path_18824" data-name="Path 18824" d="M586.137,360.827c-1.128-3.361-15.268-14.786-6.6-16.707l7.106,9.565,32.669-32.978,3.286,3.317Z" transform="translate(-245.196 -229.271)" fill="#e6a744"/>
</svg>
