<svg xmlns="http://www.w3.org/2000/svg" width="320" height="148" viewBox="0 0 320 180">
  <g id="undraw_team_goals_hrii" transform="translate(0 0)">
    <ellipse id="Ellipse_1919" data-name="Ellipse 1919" cx="43.663" cy="6.134" rx="43.663" ry="6.134" transform="translate(232.674 167.085)" fill="#e6e6e6" opacity="0.5"/>
    <ellipse id="Ellipse_1920" data-name="Ellipse 1920" cx="43.79" cy="6.134" rx="43.79" ry="6.134" transform="translate(0 167.732)" fill="#e6e6e6" opacity="0.5"/>
    <path id="Path_18796" data-name="Path 18796" d="M353.906,429.179l1.126,2.372s6.394,8.7,2.444,10.059-6.046-8.248-6.046-8.248l-1.044-1.345Z" transform="translate(-280.929 -346.876)" fill="#ffb8b8"/>
    <path id="Path_18797" data-name="Path 18797" d="M327.69,306.892l1.051-.453a2.354,2.354,0,0,1,1.244,2.4c0,1.949-1.53,30.4-1.53,30.4l3.06,15.592-4.207.78-6.5-14.422Z" transform="translate(-262.079 -269.512)" fill="#575a89"/>
    <path id="Path_18798" data-name="Path 18798" d="M327.69,306.892l1.051-.453a2.354,2.354,0,0,1,1.244,2.4c0,1.949-1.53,30.4-1.53,30.4l8.223,13.448-5.354,3.9-10.517-15.4Z" transform="translate(-262.079 -269.512)" fill="#575a89"/>
    <path id="Path_18799" data-name="Path 18799" d="M269.141,427.313s4.972,1.949,4.589,5.457-5.354,73.281-5.354,73.281l1.53,7.8-14.533.39-.382-50.283-10.326,50.283H230.131l10.326-88.483Z" transform="translate(-204.295 -344.717)" fill="#2f2e41"/>
    <path id="Path_18800" data-name="Path 18800" d="M313.012,659.823l3.442,3.508s8.032,1.559,6.119,4.288-21.8-.78-21.8-.78l.383-6.237Z" transform="translate(-249.313 -492.253)" fill="#2f2e41"/>
    <path id="Path_18801" data-name="Path 18801" d="M244.478,659.823l3.442,3.508s8.032,1.559,6.119,4.288-21.8-.78-21.8-.78l.382-6.237Z" transform="translate(-205.638 -492.253)" fill="#2f2e41"/>
    <ellipse id="Ellipse_1921" data-name="Ellipse 1921" cx="9.179" cy="9.355" rx="9.179" ry="9.355" transform="translate(43.429 4.637)" fill="#ffb8b8"/>
    <path id="Path_18802" data-name="Path 18802" d="M138.674,52.609l-.765,15.981-11.856-7.016,1.53-8.965Z" transform="translate(-80.329 -33.16)" fill="#ffb8b8"/>
    <path id="Path_18803" data-name="Path 18803" d="M125,66.316,136.09,74.5,138,68.655l3.442,9.355-1.912,16.761Z" transform="translate(-79.658 -41.799)" fill="#cfcce0"/>
    <path id="Path_18804" data-name="Path 18804" d="M264.418,269.708l12.238,17.151.443-14.327,3.764,3.023v3.118l5.354,5.067-1.912,19.49-.382,23s2.295,1.949,1.53,3.118-3.825,3.9-7.267,3.9-24.859-2.729-24.859-4.288.765-21.828.765-21.828V279.842l9.179-7.016Z" transform="translate(-219.077 -246.36)" fill="#575a89"/>
    <path id="Path_18805" data-name="Path 18805" d="M92.313,233.525l4.972,7.406,1.912-8.575L96.9,230.8Z" transform="translate(-58.828 -145.473)" fill="#ffb8b8"/>
    <path id="Path_18825" data-name="Path 18825" d="M0,.1,21.591-.031l0,.767L0,.868Z" transform="matrix(0.346, -0.938, 0.938, 0.346, 50.154, 119.486)" opacity="0.2"/>
    <path id="Path_18806" data-name="Path 18806" d="M281.188,211.387s1.147-5.847,7.649-4.677l-.765.39s6.119-.78,5.354,2.729c0,0,4.972,3.118,3.825,6.626a40.289,40.289,0,0,0-1.53,6.237l-1.147-1.169s-1.147-7.8-8.031-7.016c-5.163.585-7.267,3.07-7.8,4.86a16,16,0,0,1-.945,2.45l-.43.1S275.069,213.336,281.188,211.387Z" transform="translate(-234.126 -206.555)" fill="#2f2e41"/>
    <path id="Path_18807" data-name="Path 18807" d="M236.7,295.786l-3.482-.165-.725.554A23.221,23.221,0,0,0,230.2,298.9c-.765,1.169-10.709,29.624-10.709,29.624a10.1,10.1,0,0,0,.765,5.067c1.147,2.729,10.326,19.1,10.326,19.1l6.884-4.288-9.179-19.1,6.5-9.355Z" transform="translate(-197.475 -262.694)" fill="#575a89"/>
    <path id="Path_18808" data-name="Path 18808" d="M726.044,420.319v10.5h6.181l.824-10.5Z" transform="translate(-462.684 -264.93)" fill="#a0616a"/>
    <path id="Path_18809" data-name="Path 18809" d="M766.372,412l2.472,5.88,4.121,1.68.824-11.759-3.3-1.68Z" transform="translate(-488.383 -255.98)" fill="#a0616a"/>
    <path id="Path_18810" data-name="Path 18810" d="M932.528,625.06s-.35-2.651-3.883-1.535l.587,7.835s-2.884,8.819,1.236,7.979,6.593-8.819,6.593-8.819l2.884-13.439L932.98,615Z" transform="translate(-649.183 -464.001)" fill="#2f2e41"/>
    <path id="Path_18811" data-name="Path 18811" d="M861.181,401.382s-5.769,44.516-3.708,49.556,23.693,37.587,23.693,37.587l9.477-12.6-21.221-27.088L889.2,421.12l1.648-16.8Z" transform="translate(-603.795 -329.356)" fill="#2f2e41"/>
    <path id="Path_18812" data-name="Path 18812" d="M739.837,237.994l5.44,2.934-.083.846L731.8,310.018l-10.3-2.1,6.8-48.086Z" transform="translate(-459.788 -150.009)" fill="#2f2e41"/>
    <path id="Path_18813" data-name="Path 18813" d="M874.925,646.754l-2.472,3.78s-5.357,9.239.412,9.239,8.241,0,8.653-2.1a28.078,28.078,0,0,1,1.236-4.2l-.412-5.46Z" transform="translate(-612.183 -484.015)" fill="#2f2e41"/>
    <ellipse id="Ellipse_1922" data-name="Ellipse 1922" cx="9.065" cy="9.239" rx="9.065" ry="9.239" transform="translate(269.747 5.252)" fill="#a0616a"/>
    <path id="Path_18814" data-name="Path 18814" d="M901.072,253.7s1.236,7.139-2.472,8.4,4.533,18.058,4.533,18.058L912.61,264.2s-2.472-5.46-.824-7.979Z" transform="translate(-629.676 -236.273)" fill="#a0616a"/>
    <path id="Path_18815" data-name="Path 18815" d="M880.928,282.626l-2.237-13.685-4.356,2.766L862.8,278.427l4.533,19.738-1.648,12.179s-2.06,3.78-1.648,5.46-.412,2.52,0,2.94,21.015,3.78,27.2,6.3,7.005,3.36,6.593,1.26-4.945-12.179-4.945-12.179l3.708-16.8,4.945-14.7-12-11.291Z" transform="translate(-607.472 -245.877)" fill="#575a89"/>
    <path id="Path_18816" data-name="Path 18816" d="M947.736,353.079l2.884,7.979L943.2,374.917l-2.42,1.919a2.547,2.547,0,0,0-.873,2.63l1.645,6.371,4.311-6.526s11.759-14.472,11.347-18.252-1.648-9.659-1.648-9.659Z" transform="translate(-656.561 -297.851)" fill="#a0616a"/>
    <path id="Path_18817" data-name="Path 18817" d="M821.874,337.767l-2.06,10.5L811.984,368s-8.653,8.4-4.533,10.079,9.065-8.4,9.065-8.4l9.889-18.9,3.708-11.339Z" transform="translate(-571.493 -289.259)" fill="#a0616a"/>
    <path id="Path_18818" data-name="Path 18818" d="M954.188,303.17l3.317-.3,1.216,1.143s7.005,15.959,6.181,17.638-9.065,2.52-9.065,2.52l-3.3-10.079Z" transform="translate(-664.662 -267.261)" fill="#575a89"/>
    <path id="Path_18819" data-name="Path 18819" d="M854.242,294.185l-2.044-.909-.84.489s-8.241,16.8-6.181,17.639,11.95,2.1,11.95,2.1Z" transform="translate(-596.032 -261.216)" fill="#575a89"/>
    <path id="Path_18820" data-name="Path 18820" d="M727.179,328.6l-2.512,17.765-2.338-3.66Z" transform="translate(-460.316 -207.117)" opacity="0.2"/>
    <path id="Path_18821" data-name="Path 18821" d="M917.161,218.012s.913,2.449-3.325,1.194c0,0-1.679.834-1.581-.589,0,0-2.314,2.219-2.754.757s-1.646.36-1.646.36l-.913-2.449-1.173,1.347L902,218.363s-.425-9.567,12.418-7.7,5.462,16.453,5.462,16.453.081-2.706-1.092-1.36S917.161,218.012,917.161,218.012Z" transform="translate(-632.456 -208.993)" fill="#2f2e41"/>
    <path id="Path_18822" data-name="Path 18822" d="M368.509,434.984V475.31H533.794V434.984Zm99.029,33.56H378.733v-5.684h88.806Zm0-10.555H378.733v-5.684h88.806Zm56.032-10.555H378.733V441.75H523.57Z" transform="translate(-292.478 -350.535)" fill="#e6a744"/>
    <path id="Path_18823" data-name="Path 18823" d="M421.554,141.519H399.248V118.784h15.137v.542H399.779v21.652h21.244V130.151h.531Z" transform="translate(-254.427 -74.87)" fill="#3f3d56"/>
    <path id="Path_18824" data-name="Path 18824" d="M581.035,339.224c-.516-1.551-6.98-6.825-3.019-7.711l3.248,4.414L596.2,320.706l1.5,1.531Z" transform="translate(-425.176 -278.505)" fill="#e6a744"/>
  </g>
</svg>
