<svg xmlns="http://www.w3.org/2000/svg" width="30" height="40" viewBox="0 0 50 50">
  <g id="Group_1069" data-name="Group 1069" transform="translate(0 0.001)">
    <g id="Layer_1" data-name="Layer 1" transform="translate(0 -0.001)">
      <path id="Path_1561" data-name="Path 1561" d="M50,50H0V14L24.967,0,50,14Z" transform="translate(0 0.001)" fill="#e66463"/>
      <path id="Path_1562" data-name="Path 1562" d="M50,20.8V14L24.967,0,0,14V45.3Z" transform="translate(0 0.001)" fill="#ee7c7b"/>
      <rect id="Rectangle_1750" data-name="Rectangle 1750" width="43.186" height="31.091" transform="translate(3.407 18.909)" fill="#d0d3d8"/>
      <rect id="Rectangle_1751" data-name="Rectangle 1751" width="43.186" height="1.537" transform="translate(3.407 24.051)" fill="#e8e9ea"/>
      <rect id="Rectangle_1752" data-name="Rectangle 1752" width="43.186" height="2.069" transform="translate(3.407 21.982)" fill="#d3d3d3"/>
      <rect id="Rectangle_1753" data-name="Rectangle 1753" width="43.186" height="3.073" transform="translate(3.407 18.909)" fill="#ededed"/>
    </g>
    <g id="kutu1" transform="translate(23.201 39.454)">
      <rect id="Rectangle_1754" data-name="Rectangle 1754" width="10.544" height="10.544" transform="translate(0 0)" fill="#057eb3"/>
      <path id="Path_1563" data-name="Path 1563" d="M133.641,236.948c.1,0,.19.007.286.007a9.03,9.03,0,0,0,9.291-8.744,8.333,8.333,0,0,0-.055-.947h-9.522Z" transform="translate(-133.641 -227.263)" fill="#1b92bc"/>
      <rect id="Rectangle_1755" data-name="Rectangle 1755" width="3.643" height="3.755" transform="translate(3.456 0)" fill="#057eb3"/>
    </g>
    <g id="kutu0" transform="translate(33.764 37.17)">
      <rect id="Rectangle_1756" data-name="Rectangle 1756" width="12.829" height="12.829" transform="translate(0 0)" fill="#e86328"/>
      <path id="Path_1564" data-name="Path 1564" d="M194.484,225.889c.116,0,.231.008.348.008,6.243,0,11.3-4.763,11.3-10.638a10.122,10.122,0,0,0-.067-1.153H194.484Z" transform="translate(-194.484 -214.106)" fill="#e28966"/>
      <rect id="Rectangle_1757" data-name="Rectangle 1757" width="4.433" height="4.568" transform="translate(4.205 0)" fill="#e86328"/>
    </g>
    <g id="kutu2" transform="translate(14.773 41.396)">
      <rect id="Rectangle_1758" data-name="Rectangle 1758" width="8.428" height="8.603" transform="translate(0 0)" fill="#87a03c"/>
      <path id="Path_1565" data-name="Path 1565" d="M85.094,246.348c.076,0,.152.006.229.006a7.284,7.284,0,0,0,7.426-7.134,6.931,6.931,0,0,0-.044-.773H85.094Z" transform="translate(-85.094 -238.447)" fill="#a7bc5c"/>
      <g id="Layer_5_copy" data-name="Layer 5 copy" transform="translate(2.762)">
        <rect id="Rectangle_1759" data-name="Rectangle 1759" width="2.912" height="3.064" fill="#87a03c"/>
      </g>
    </g>
    <g id="kutu4" transform="translate(37.974 28.349)">
      <rect id="Rectangle_1760" data-name="Rectangle 1760" width="8.624" height="8.802" transform="translate(0 0)" fill="#e1ae24"/>
      <path id="Path_1566" data-name="Path 1566" d="M218.729,171.383c.078,0,.156.006.234.006a7.453,7.453,0,0,0,7.6-7.3,7.09,7.09,0,0,0-.045-.791h-7.787Z" transform="translate(-218.729 -163.298)" fill="#af8f46"/>
      <g id="Layer_5_copy_3" data-name="Layer 5 copy 3" transform="translate(2.826)">
        <rect id="Rectangle_1761" data-name="Rectangle 1761" width="2.98" height="3.135" fill="#e1ae24"/>
      </g>
    </g>
    <g id="kutu3" transform="translate(9.346 44.46)">
      <rect id="Rectangle_1762" data-name="Rectangle 1762" width="5.427" height="5.539" transform="translate(0 0)" fill="#067954"/>
      <path id="Path_1567" data-name="Path 1567" d="M53.834,261.181c.049,0,.1,0,.147,0a4.69,4.69,0,0,0,4.782-4.593,4.446,4.446,0,0,0-.028-.5h-4.9Z" transform="translate(-53.834 -256.093)" fill="#2e936f"/>
      <g id="Layer_5_copy_2" data-name="Layer 5 copy 2" transform="translate(1.779 0)">
        <rect id="Rectangle_1763" data-name="Rectangle 1763" width="1.875" height="1.973" fill="#067954"/>
      </g>
    </g>
    <g id="LOGO" transform="translate(18.123 1.729)">
      <g id="logo-2" data-name="logo">
        <g id="acikmavi" transform="translate(0 3.64)">
          <path id="acikmavialt" d="M120.989,37.988a.694.694,0,0,0-.513-.038,1.267,1.267,0,0,0-.483.314,1.482,1.482,0,0,1-.644.4,1.3,1.3,0,0,1-.346.026.684.684,0,0,1-.686-.456l1.6-2.77a.678.678,0,0,1,.457.069,1.2,1.2,0,0,1,.469.864c.014.283-.123.668-.114.923a.7.7,0,0,0,.044.24c.008.024.021.048.034.076a.794.794,0,0,0,.232.263l-.016.049Z" transform="translate(-115.9 -34.668)" fill="#fff"/>
          <path id="acikmaviust" d="M104.691,32.282a2.737,2.737,0,0,1-.05-.522.733.733,0,0,0-.05-.23c-.077-.179-.214-.254-.2-.278h0c.011-.016.121.043.255.044a.514.514,0,0,0,.087-.006.9.9,0,0,0,.227-.078,2.4,2.4,0,0,1,.529-.226,1.243,1.243,0,0,1,.364-.056,5.594,5.594,0,0,1,2.317.819l-1.456,2.528C105.507,33.564,104.848,33,104.691,32.282Z" transform="translate(-104.388 -30.928)" fill="#fff"/>
        </g>
        <g id="turuncu" transform="translate(0.003 8.187)">
          <path id="turuncualt" d="M121.057,57.912a.693.693,0,0,0-.289.425,1.268,1.268,0,0,0,.03.575,1.484,1.484,0,0,1,.025.758,1.312,1.312,0,0,1-.151.313.684.684,0,0,1-.737.366l-1.6-2.771a.678.678,0,0,1,.288-.361,1.023,1.023,0,0,1,.376-.09,1.034,1.034,0,0,1,.607.116c.252.13.517.441.742.56a.706.706,0,0,0,.23.082c.025,0,.052.006.083.009a.794.794,0,0,0,.344-.069l.035.038Z" transform="translate(-115.917 -57.119)" fill="#fff"/>
          <path id="turuncuust" d="M105.446,64.3a2.731,2.731,0,0,1-.477-.218.737.737,0,0,0-.224-.072,1.63,1.63,0,0,0-.342.037h0c-.008-.018.1-.083.165-.2a.524.524,0,0,0,.039-.079.9.9,0,0,0,.046-.235,2.407,2.407,0,0,1,.069-.571,1.246,1.246,0,0,1,.134-.343c.414-.832,1.8-1.516,1.867-1.6l1.461,2.525C106.965,64.235,106.15,64.525,105.446,64.3Z" transform="translate(-104.403 -60.345)" fill="#fff"/>
        </g>
        <g id="sarı" transform="translate(5.098 9.932)">
          <path id="sarialt" d="M135.57,67.182a.694.694,0,0,0,.223.463,1.27,1.27,0,0,0,.513.261,1.482,1.482,0,0,1,.669.357,1.309,1.309,0,0,1,.2.287.684.684,0,0,1-.052.822h-3.2a.678.678,0,0,1-.169-.43,1.2,1.2,0,0,1,.514-.838c.238-.154.64-.227.856-.363a.7.7,0,0,0,.186-.158.824.824,0,0,0,.049-.067.8.8,0,0,0,.112-.333l.051-.011Z" transform="translate(-133.751 -67.171)" fill="#fff"/>
          <path id="sariust" d="M137.736,83.7a2.733,2.733,0,0,1-.427.3.735.735,0,0,0-.174.158c-.117.156-.114.312-.139.314h0c-.019,0-.023-.126-.089-.242a.5.5,0,0,0-.049-.073.9.9,0,0,0-.181-.157,2.408,2.408,0,0,1-.46-.345,1.245,1.245,0,0,1-.23-.288,5.592,5.592,0,0,1-.449-2.416l2.917,0C138.439,82.354,138.284,83.2,137.736,83.7Z" transform="translate(-135.227 -78.561)" fill="#fff"/>
        </g>
        <g id="acikyesil" transform="translate(8.588 8.183)">
          <path id="acikyesilalt" d="M153.908,57.8a.694.694,0,0,0,.513.038,1.268,1.268,0,0,0,.483-.314,1.482,1.482,0,0,1,.644-.4,1.3,1.3,0,0,1,.346-.026.684.684,0,0,1,.685.456l-1.6,2.77a.678.678,0,0,1-.457-.069,1.2,1.2,0,0,1-.469-.864c-.014-.283.123-.668.114-.923a.706.706,0,0,0-.044-.24c-.008-.024-.021-.048-.034-.076a.8.8,0,0,0-.232-.263l.016-.049Z" transform="translate(-153.857 -57.098)" fill="#fff"/>
          <path id="acikyesilust" d="M165.174,62.99a2.738,2.738,0,0,1,.05.522.737.737,0,0,0,.05.23c.077.179.214.254.2.278h0c-.011.016-.121-.043-.255-.044a.515.515,0,0,0-.087.006.9.9,0,0,0-.227.078,2.392,2.392,0,0,1-.529.226,1.242,1.242,0,0,1-.364.056,5.591,5.591,0,0,1-2.317-.819L163.154,61C164.359,61.708,165.018,62.268,165.174,62.99Z" transform="translate(-160.337 -60.318)" fill="#fff"/>
        </g>
        <g id="fıstık" transform="translate(5.098)">
          <path id="fıstıkalt" d="M135.465,33.553a.694.694,0,0,0-.224-.463,1.27,1.27,0,0,0-.513-.261,1.483,1.483,0,0,1-.669-.357,1.3,1.3,0,0,1-.2-.287.684.684,0,0,1,.052-.822h3.2a.679.679,0,0,1,.169.43,1.025,1.025,0,0,1-.11.371,1.036,1.036,0,0,1-.4.467c-.238.154-.64.227-.856.363a.7.7,0,0,0-.186.158.828.828,0,0,0-.049.067.8.8,0,0,0-.112.333l-.051.011Z" transform="translate(-133.751 -27.648)" fill="#fff"/>
          <path id="fıstıkust" d="M136.233,10.74a2.734,2.734,0,0,1,.427-.3.741.741,0,0,0,.174-.158c.116-.156.113-.312.139-.314h0c.019,0,.023.126.089.242a.507.507,0,0,0,.049.073.9.9,0,0,0,.181.157,2.4,2.4,0,0,1,.46.345,1.24,1.24,0,0,1,.23.287,5.593,5.593,0,0,1,.45,2.416l-2.917,0C135.53,12.088,135.685,11.237,136.233,10.74Z" transform="translate(-135.209 -9.964)" fill="#fff"/>
        </g>
        <g id="pembe" transform="translate(8.586 3.632)">
          <path id="pembealt" d="M153.846,37.874a.693.693,0,0,0,.289-.425,1.268,1.268,0,0,0-.03-.575,1.481,1.481,0,0,1-.025-.758,1.309,1.309,0,0,1,.151-.313.684.684,0,0,1,.737-.366l1.6,2.771a.678.678,0,0,1-.288.361,1.022,1.022,0,0,1-.376.09,1.035,1.035,0,0,1-.607-.116c-.252-.13-.517-.441-.742-.56a.706.706,0,0,0-.23-.082c-.025,0-.052-.006-.082-.009a.792.792,0,0,0-.344.069l-.035-.038Z" transform="translate(-153.846 -34.637)" fill="#fff"/>
          <path id="pembeust" d="M164.411,30.959a2.749,2.749,0,0,1,.477.218.733.733,0,0,0,.224.072,1.631,1.631,0,0,0,.342-.037h0c.008.018-.1.083-.165.2a.527.527,0,0,0-.039.079.9.9,0,0,0-.046.235,2.4,2.4,0,0,1-.069.571,1.241,1.241,0,0,1-.134.343c-.414.832-1.8,1.516-1.867,1.6l-1.461-2.525C162.893,31.024,163.707,30.734,164.411,30.959Z" transform="translate(-160.314 -30.884)" fill="#fff"/>
        </g>
      </g>
    </g>
  </g>
</svg>
