<svg xmlns="http://www.w3.org/2000/svg" width="40" height="40" viewBox="0 0 50 50">
  <g id="Group_1111" data-name="Group 1111" transform="translate(-6.387 -19)">
    <g id="meeting" transform="translate(6.388 25.701)">
      <g id="_1" data-name="1" transform="translate(0 14.764)">
        <path id="Path_1641" data-name="Path 1641" d="M6.62,374.406c.7-1.175,1.406-1.74,2.056-.678a3.531,3.531,0,0,1,.219,1.124,69.569,69.569,0,0,1-.034,8.5,1.52,1.52,0,0,1-.228.73c-.659.723-1.234,1.148-1.719.565a2.094,2.094,0,0,1-.2-.787,78.736,78.736,0,0,1-.318-8.385A2.852,2.852,0,0,1,6.62,374.406Z" transform="translate(-6.388 -373.166)" fill="#6b8389"/>
        <rect id="Rectangle_1768" data-name="Rectangle 1768" width="3.176" height="1.593" transform="translate(6.014 14.348)" fill="#5e7477"/>
        <path id="Path_1642" data-name="Path 1642" d="M46.913,600.284v.7H35.58v-.7a.525.525,0,0,1,.521-.528H46.392A.525.525,0,0,1,46.913,600.284Z" transform="translate(-33.836 -586.023)" fill="#6b8389"/>
        <rect id="Rectangle_1769" data-name="Rectangle 1769" width="0.733" height="6.201" transform="translate(7.13 15.094)" fill="#5e7477"/>
        <rect id="Rectangle_1770" data-name="Rectangle 1770" width="1.718" height="5.967" transform="translate(6.638 17.475)" fill="#5e7477"/>
        <rect id="Rectangle_1771" data-name="Rectangle 1771" width="2.899" height="1.404" transform="translate(6.014 22.864)" fill="#5e7477"/>
        <path id="Path_1643" data-name="Path 1643" d="M132.271,762.009l.541.254.016-.254,5.2.661.634,1.4h-.634l-.541-.744-2.753-.169,1.947.912.6.95-.659.33-.489-.694-4.228-1.95Z" transform="translate(-124.408 -738.443)" fill="#5e7477"/>
        <path id="Path_1644" data-name="Path 1644" d="M59.9,758.9l.477-.364.5.608-3.641,2.7-.421.892-.713-.182.391-1.057s2.886-2.038,3.4-2.6Z" transform="translate(-53.134 -735.184)" fill="#5e7477"/>
        <path id="Path_1645" data-name="Path 1645" d="M34.09,762.67l5.2-.661.016.247a6.734,6.734,0,0,1-2.056.707l-2.616.368-.541.744h-.634Z" transform="translate(-31.839 -738.443)" fill="#5e7477"/>
        <path id="Path_1646" data-name="Path 1646" d="M227.662,791.128a.627.627,0,1,0,.627-.636A.632.632,0,0,0,227.662,791.128Z" transform="translate(-214.446 -765.199)" fill="#5e7477"/>
        <ellipse id="Ellipse_369" data-name="Ellipse 369" cx="0.801" cy="0.812" rx="0.801" ry="0.812" transform="translate(11.698 26.101)" fill="#5e7477"/>
        <path id="Path_1647" data-name="Path 1647" d="M49.842,818.028a.8.8,0,1,0,.8-.812A.807.807,0,0,0,49.842,818.028Z" transform="translate(-47.247 -790.304)" fill="#5e7477"/>
        <ellipse id="Ellipse_370" data-name="Ellipse 370" cx="0.596" cy="0.604" rx="0.596" ry="0.604" transform="translate(1.572 25.027)" fill="#5e7477"/>
      </g>
      <g id="Group_1098" data-name="Group 1098" transform="translate(35.27 12.082)">
        <path id="Path_1648" data-name="Path 1648" d="M745.5,330.567c-1.638-1.343-3.176-2.078-4.562-1.4a1.409,1.409,0,0,0-.492.883,30.571,30.571,0,0,0-.282,8.341,1.8,1.8,0,0,0,.506.992c1.605,1.388,3.1,2.423,4.4,2.135.216-.051.447-.44.515-.809a34.526,34.526,0,0,0,.488-9.015A1.957,1.957,0,0,0,745.5,330.567Z" transform="translate(-731.453 -328.908)" fill="#6b8389"/>
        <rect id="Rectangle_1772" data-name="Rectangle 1772" width="3.175" height="1.594" transform="translate(5.279 15.752)" fill="#5e7477"/>
        <path id="Path_1649" data-name="Path 1649" d="M620.24,579.186v.7h11.33v-.7a.525.525,0,0,0-.521-.529H620.761A.526.526,0,0,0,620.24,579.186Z" transform="translate(-618.847 -563.521)" fill="#6b8389"/>
        <rect id="Rectangle_1773" data-name="Rectangle 1773" width="0.733" height="6.207" transform="translate(6.605 16.498)" fill="#5e7477"/>
        <rect id="Rectangle_1774" data-name="Rectangle 1774" width="1.717" height="5.973" transform="translate(6.114 18.882)" fill="#5e7477"/>
        <rect id="Rectangle_1775" data-name="Rectangle 1775" width="2.898" height="1.406" transform="translate(5.556 24.276)" fill="#5e7477"/>
        <path id="Path_1650" data-name="Path 1650" d="M606.974,741.071l-.541.254-.016-.254-5.2.661-.633,1.406h.633l.541-.744,2.752-.169-1.946.913-.6.951.659.33.489-.695,4.227-1.951Z" transform="translate(-600.368 -716.091)" fill="#5e7477"/>
        <path id="Path_1651" data-name="Path 1651" d="M710.5,737.956l-.476-.364-.5.609,3.639,2.7.421.892.713-.182-.391-1.058s-2.885-2.039-3.4-2.606Z" transform="translate(-702.79 -712.823)" fill="#5e7477"/>
        <path id="Path_1652" data-name="Path 1652" d="M719.41,741.732l-5.2-.661-.016.247a6.754,6.754,0,0,0,2.055.708l2.615.368.541.744h.633Z" transform="translate(-707.193 -716.091)" fill="#5e7477"/>
        <path id="Path_1653" data-name="Path 1653" d="M598.17,770.212a.627.627,0,1,1-.627-.637A.632.632,0,0,1,598.17,770.212Z" transform="translate(-596.916 -742.868)" fill="#5e7477"/>
        <path id="Path_1654" data-name="Path 1654" d="M618.109,783.729a.8.8,0,1,1-.8-.812A.807.807,0,0,1,618.109,783.729Z" transform="translate(-615.338 -755.401)" fill="#5e7477"/>
        <path id="Path_1655" data-name="Path 1655" d="M770.47,797.132a.8.8,0,1,1-.8-.813A.807.807,0,0,1,770.47,797.132Z" transform="translate(-758.598 -767.991)" fill="#5e7477"/>
        <path id="Path_1656" data-name="Path 1656" d="M794.044,765.8a.6.6,0,1,1-.6-.605A.6.6,0,0,1,794.044,765.8Z" transform="translate(-781.148 -738.753)" fill="#5e7477"/>
      </g>
      <g id="Group_1102" data-name="Group 1102" transform="translate(26.609 21.025)">
        <g id="Group_1099" data-name="Group 1099" transform="translate(0 4.15)">
          <path id="Path_1657" data-name="Path 1657" d="M470.487,545.5l.311-.277a3.312,3.312,0,0,1-.923-.2.572.572,0,0,0-.457-.045.539.539,0,0,0-.211.371c-.227.915-1.957,8.81-2.122,9.441a16.6,16.6,0,0,1-.981,2.317,16.109,16.109,0,0,1-1.074,2.208,1.268,1.268,0,0,1-.379.332c-.1.068-.208.131-.293.191a1.048,1.048,0,0,0,.183.205.829.829,0,0,0,.24.142l.695.031.016,0a1.205,1.205,0,0,0,.711-.576,8.234,8.234,0,0,1,.427-.883,5.207,5.207,0,0,1,.868-.708,3.511,3.511,0,0,1,.558-.4c.153-.08.319-.134.47-.218.234-.13.166-.237.151-.487a4.1,4.1,0,0,1,.01-.646,4.146,4.146,0,0,1,.216-.969A5.347,5.347,0,0,1,469.6,554a8.193,8.193,0,0,0,1.524-3.318,10.023,10.023,0,0,0,.131-1.528,6.832,6.832,0,0,1,.081-1.581c.092-.324.308-.635.434-.954l.308-.78Z" transform="translate(-463.616 -544.945)" fill="#d8ad95"/>
          <path id="Path_1658" data-name="Path 1658" d="M457.135,737.291c-.008-.11-.211-.576-.155-.65-.818,1.072-2.185,1.712-2.751,2.974a.733.733,0,0,1-.689.414c-.075,0-.658-.268-.6-.3-.118.078-.239.149-.328.216-.192.143-.591.242-.694.481-.164.378,1.007.254,1.171.233.2-.026.394-.022.591-.038a5.672,5.672,0,0,0,1-.2.142.142,0,0,0,.061-.027.144.144,0,0,0,.033-.06c.17-.468.2-.995.4-1.449.1-.2.448-.644.688-.652a.278.278,0,0,1,.232.14.521.521,0,0,1,.068.145,1.525,1.525,0,0,1,.04.488,9.385,9.385,0,0,1-.091.972,2.07,2.07,0,0,0-.074.471l.247.011a4.535,4.535,0,0,1,.561-2.006A1.846,1.846,0,0,0,457.135,737.291Z" transform="translate(-451.899 -725.023)" fill="#323133"/>
        </g>
        <g id="Group_1100" data-name="Group 1100" transform="translate(1.133 4.819)">
          <path id="Path_1659" data-name="Path 1659" d="M487.145,556.5l.3-.291a3.293,3.293,0,0,1-.931-.159.567.567,0,0,0-.458-.024.539.539,0,0,0-.195.379c-.187.924-1.573,8.89-1.71,9.527a16.718,16.718,0,0,1-.879,2.359,16.2,16.2,0,0,1-.976,2.253,1.27,1.27,0,0,1-.364.349c-.1.073-.2.14-.284.2a1.05,1.05,0,0,0,.192.2.825.825,0,0,0,.246.13h.7l.016,0a1.2,1.2,0,0,0,.685-.607,8.311,8.311,0,0,1,.387-.9,5.239,5.239,0,0,1,.837-.746,3.439,3.439,0,0,1,.54-.427c.149-.088.312-.149.46-.24.228-.14.156-.245.13-.492a4.068,4.068,0,0,1-.017-.646,4.126,4.126,0,0,1,.173-.978,5.362,5.362,0,0,1,.634-1.354A8.209,8.209,0,0,0,488,561.645a10.07,10.07,0,0,0,.064-1.533,6.857,6.857,0,0,1,.012-1.583c.078-.327.28-.648.392-.972.092-.264.182-.528.274-.793Z" transform="translate(-481.003 -555.983)" fill="#e2bba1"/>
          <path id="Path_1660" data-name="Path 1660" d="M475.88,748.784c-.013-.11-.236-.566-.183-.642a9.491,9.491,0,0,1-1.456,1.328,7.018,7.018,0,0,0-.75.953,5,5,0,0,0-.353.577c-.062.117-.154.428-.247.495a.854.854,0,0,1-.628.178c-.189-.031-.319-.183-.5-.24-.2-.064-1.108.274-.863.566.1.115.381.12.518.147a5.757,5.757,0,0,0,.889.092,1.642,1.642,0,0,0,.839-.063,2.01,2.01,0,0,0,.675-1.056,2.646,2.646,0,0,1,.468-.849c.107-.12.313-.351.488-.341.44.025-.03,1.894-.086,2.294.094.01.186.023.279.039a6.55,6.55,0,0,1,.672-2.314A1.839,1.839,0,0,0,475.88,748.784Z" transform="translate(-470.863 -736.496)" fill="#414042"/>
        </g>
        <g id="Group_1101" data-name="Group 1101" transform="translate(5.197)">
          <path id="Path_1661" data-name="Path 1661" d="M623.991,481.49a15.188,15.188,0,0,0-.664-2.334,4.807,4.807,0,0,1-.847,2.642c-1.939,2.567-5.354,2.61-8.263,2.738-.618,0-1.459.114-1.7.733.758-.01,7.163-.091,8.722-.091.391,0,1.535.215,1.88,0a1.627,1.627,0,0,0,.633-.734A5.6,5.6,0,0,0,623.991,481.49Z" transform="translate(-608.116 -478.993)" fill="#3e3533"/>
          <path id="Path_1662" data-name="Path 1662" d="M545.017,482.016c2.909-.128,6.324-.171,8.263-2.738a4.807,4.807,0,0,0,.847-2.642c-.05-.1-.095-.165-.131-.162l-5.91.532-7.712,1.862-1.458,2.124.125.094c.826.613,1.681,1.193,2.529,1.773.256.174.518.321.781.475.118.069.2.167.329.135.238-.064.356-.716.558-.719h.074C543.558,482.129,544.4,482.016,545.017,482.016Z" transform="translate(-538.917 -476.473)" fill="#2d2828"/>
        </g>
      </g>
      <g id="Group_1103" data-name="Group 1103" transform="translate(1.985 21.165)">
        <path id="Path_1663" data-name="Path 1663" d="M274.131,755.768l.35-.986,2.716-.319-.228.7,3.491,1.032a2.659,2.659,0,0,1,.495.476.228.228,0,0,1-.168.373l-3.361.076q-.207-.034-.407-.071v-.006h-.027c-.3-.056-.591-.116-.871-.18l-.117.2-1.713.039c-.028-.008-.056-.017-.082-.026C274.043,757.018,274.131,755.768,274.131,755.768Z" transform="translate(-260.102 -737.755)" fill="#323133"/>
        <path id="Path_1664" data-name="Path 1664" d="M214.753,763.129l.389-.972,2.727-.208-.256.691a4.364,4.364,0,0,0,1.75,1.017,4.9,4.9,0,0,0,1.723.247.791.791,0,0,1,.524.38c.121.159-.085.392-.283.389,0,0-3.369.409-4.629-.368l-.125.2-1.967-.618A6.818,6.818,0,0,1,214.753,763.129Z" transform="translate(-204.151 -744.787)" fill="#414042"/>
        <path id="Path_1665" data-name="Path 1665" d="M79.114,504.48a8.272,8.272,0,0,0-.1-1.411c-.161-.982-1.234-1.208-2.058-1.411l-3.622-.89-4.719-1.16-6.416.146a16.4,16.4,0,0,1,5.642,1.1,11.286,11.286,0,0,1,3.362,1.824,7.648,7.648,0,0,1,1.3,1.376,4.338,4.338,0,0,0,1.976,1.414,1.844,1.844,0,0,1,.53.29,1.254,1.254,0,0,1,.153.172c-.244,3.516-.146,10.29-.146,10.29s.426-.025,3.614-.036c.021-2.218.138-4.435.276-6.648.061-.975.159-1.951.147-2.925C79.05,505.884,79.109,505.185,79.114,504.48Z" transform="translate(-60.853 -498.346)" fill="#231f20"/>
        <path id="Path_1666" data-name="Path 1666" d="M58.162,503.758c-.361-.8-1.319-.819-2.321-1.1l-3.168-.888-4.043-1.133-7.059-.413c-.256-.015-.572,1.575-.591,1.74-.158,1.319-.836,3.081.244,3.8a8.922,8.922,0,0,0,3.4.684h7.617s.784.06,1.172.056c-.951,3.687-2.311,10.04-2.311,10.04s.36.559,4.206.63c.428-1.956.924-3.9,1.435-5.829.4-1.5.892-3,1.151-4.53A3.886,3.886,0,0,0,58.162,503.758Z" transform="translate(-40.564 -498.925)" fill="#2d2828"/>
        <path id="Path_1667" data-name="Path 1667" d="M47.21,478.782c-2.383.087-4.665,1.238-7.1,1.5-.1,1.612-.276,3.112-.493,4.48h8.067c-.021-2.193-.485-4.025-.48-5.2C47.2,479.288,47.206,479.032,47.21,478.782Z" transform="translate(-39.615 -478.782)" fill="#2d2828"/>
      </g>
      <g id="Group_1104" data-name="Group 1104" transform="translate(8.86 16.737)">
        <rect id="Rectangle_1776" data-name="Rectangle 1776" width="32.065" height="2.08" transform="translate(0 5.629)" fill="#d1d3d4"/>
        <path id="Path_1668" data-name="Path 1668" d="M160.677,405.722l-5.944,5.643H186.8l-5.945-5.643Z" transform="translate(-154.733 -405.722)" fill="#a7a9ac"/>
      </g>
      <path id="Path_1669" data-name="Path 1669" d="M421.482,421.461l-.737,2.876h12.877l-2.877-2.794Z" transform="translate(-395.997 -403.77)" fill="#fff"/>
      <path id="Path_1670" data-name="Path 1670" d="M208.4,450.228l.164,2.536H197.306l2.515-2.442Z" transform="translate(-185.903 -430.794)" fill="#fff"/>
      <g id="Group_1105" data-name="Group 1105" transform="translate(2.457 0)">
        <path id="Path_1671" data-name="Path 1671" d="M90.3,215.571a6.707,6.707,0,0,1-1.084,1.765c-.448.334-2.905-.527-2.905-.527a12.074,12.074,0,0,0,.77-2.684c-.118-.367.62-.687.62-.687Z" transform="translate(-83.99 -208.354)" fill="#deb09d"/>
        <path id="Path_1672" data-name="Path 1672" d="M85.326,140.24c.239.221.386.582.67.742.156.088.131.15.668.555a1.683,1.683,0,0,0,.541.215l1.191.362a.856.856,0,0,0,.317.054.766.766,0,0,0,.52-.4.3.3,0,0,0,.051-.1c.034-.159-.167-.308-.109-.459.028-.075.111-.113.153-.181a.4.4,0,0,0-.013-.333c.1.017.168-.09.183-.186a.943.943,0,0,1,.047-.288c.072-.139.247-.161.391-.226a.119.119,0,0,0,.063-.149,2.385,2.385,0,0,0-.316-.593.852.852,0,0,1-.247-.535,2.453,2.453,0,0,1,.12-.359,1.828,1.828,0,0,0-.135-.784,5.338,5.338,0,0,1-.047-.607.85.85,0,0,0-.22-.552c-.427-.4-.618-.89-1.145-1.147a3.276,3.276,0,0,0-2.971.2,2.4,2.4,0,0,0-.741.6,2.237,2.237,0,0,0-.346.678,3.056,3.056,0,0,0-.08,1.668,2.544,2.544,0,0,0,.883,1.4C84.94,139.961,85.151,140.078,85.326,140.24Z" transform="translate(-81.624 -134.671)" fill="#e2bba1"/>
        <path id="Path_1673" data-name="Path 1673" d="M259.291,310.64c-.011-.06.124-.244.15-.3.1-.2.2-.393.3-.587.2-.374.511-.664.713-1.03.061-.111.2-.493.34-.527a.1.1,0,0,1,.086.036c.376.344-.06.8-.242,1.1-.07.112-.111.255-.171.375l.966-.622c.186-.12,1.1-.747,1.238-.515.069.117-.081.243-.157.31a8.653,8.653,0,0,1-1.051.8l.95-.583c.146-.089.732-.409.854-.17a.164.164,0,0,1-.043.2,5.555,5.555,0,0,1-1.368.822l1.1-.531c.1-.046.289-.121.388-.015.121.128-.042.288-.129.35a7.94,7.94,0,0,1-1.182.708c.355-.063,1.345-.6,1.246-.28a.421.421,0,0,1-.177.2c-.441.325-.7.528-1.138.853a4.937,4.937,0,0,1-.695.412c-.251.119-.445.213-.689.347a2.957,2.957,0,0,1-.989.26Z" transform="translate(-246.642 -297.37)" fill="#e2bba1"/>
        <path id="Path_1674" data-name="Path 1674" d="M298.306,394.205c.028-.054.247-.112.3-.137.2-.089.395-.183.594-.27.384-.167.808-.194,1.191-.352.116-.048.463-.255.59-.2a.1.1,0,0,1,.045.082c.082.508-.541.589-.867.706-.123.044-.243.129-.364.184l1.137.127c.219.025,1.32.116,1.283.384-.018.134-.213.138-.314.142a8.519,8.519,0,0,1-1.311-.046l1.1.148c.169.023.824.145.771.409a.16.16,0,0,1-.154.126,5.494,5.494,0,0,1-1.574-.226l1.183.28c.1.025.3.088.312.234.015.176-.21.2-.317.192a7.821,7.821,0,0,1-1.359-.2c.316.177,1.419.385,1.145.573a.411.411,0,0,1-.262.045c-.545-.026-.87-.031-1.414-.056a4.915,4.915,0,0,1-.8-.119c-.269-.067-.478-.115-.751-.166a2.961,2.961,0,0,1-.932-.425Z" transform="translate(-282.613 -377.259)" fill="#e2bba1"/>
        <path id="Path_1675" data-name="Path 1675" d="M81.03,135.76a3.128,3.128,0,0,1-.2-.4,15.448,15.448,0,0,1-.485-1.534,6.117,6.117,0,0,1-.238-1.63,2.767,2.767,0,0,1,.466-1.557,2.532,2.532,0,0,1,1.251-.894,4.091,4.091,0,0,1,1.535-.182,5.49,5.49,0,0,1,1.159.181,2.131,2.131,0,0,1,.551.185c.15.095.239.231.413.3a1.616,1.616,0,0,0,.68.121.152.152,0,0,1,.1.02c.049.039.03.117.007.176-.422,1.053-1.815.956-2.19,2.053a4.064,4.064,0,0,0-.146.78c-.034.259-.133.522-.149.78-.01.162.089.374-.085.479a.548.548,0,0,1-.393-.115,2.746,2.746,0,0,0-.072-.693.919.919,0,0,0-.39-.556.546.546,0,0,0-.641.049.889.889,0,0,0-.138.79,1.019,1.019,0,0,0,.7.925.53.53,0,0,0-.317.393.186.186,0,0,1-.062.11.17.17,0,0,1-.1.017,1.221,1.221,0,0,0-1.117.568A1.369,1.369,0,0,0,81.03,135.76Z" transform="translate(-78.16 -129.559)" fill="#3e3533"/>
        <path id="Path_1676" data-name="Path 1676" d="M86.424,255.627c.094.284.231.714.376,1.242a24.3,24.3,0,0,1,.759,3.938c.051.5.1,1.184.112,2.012-1.415-1.912-2.7-2.946-3.4-3.9a11.009,11.009,0,0,1-1.6-2.62,1.1,1.1,0,0,1,.35-1.03c.854-.832,2.727.663,2.727.663Z" transform="translate(-80.557 -247.409)" fill="#bcbec0"/>
        <path id="Path_1677" data-name="Path 1677" d="M80.449,286.7c1.9-1.423,3.445.688,4.289,2.179a10.478,10.478,0,0,0,1.815,2.567c.321-.067,4.145-1.536,3.972-1.88a19,19,0,0,1,1.21,2.105,25.2,25.2,0,0,1-5.429,3.427c-1.143.465-3.84-3.522-4.983-4.561C80.262,289.575,79,287.787,80.449,286.7Z" transform="translate(-77.869 -276.736)" fill="#2d2828"/>
        <path id="Path_1678" data-name="Path 1678" d="M86.864,242.488l2.992,1.374-.593,1.325-2.958-1.518Z" transform="translate(-83.989 -235.644)" fill="#e6e7e8"/>
        <path id="Path_1679" data-name="Path 1679" d="M54.186,266.163a10.164,10.164,0,0,0-2.789-3.384l-1.557-.8-1.4,2.4-.524,2.169a14.116,14.116,0,0,0-.365,4.18c.066,1.084.1,2.231.086,3.435-.009.846-.043,1.663-.092,2.455,2.437-.257,4.718-1.408,7.1-1.5C54.717,269.939,55.224,268.238,54.186,266.163Z" transform="translate(-47.524 -253.954)" fill="#2d2828"/>
        <path id="Path_1680" data-name="Path 1680" d="M86.647,249.214a21.247,21.247,0,0,1,4.333,5.6c-2.069-2.1-2.9-2.1-2.9-2.1V251.23l-.864.749-.911-1.991Z" transform="translate(-83.99 -241.962)" fill="#3e3533"/>
        <path id="Path_1681" data-name="Path 1681" d="M77.56,316.4a9.077,9.077,0,0,1,1.13.037c.018.1.034.207.049.312a22.878,22.878,0,0,1,.08,2.495c-.709.023-1.685-.19-2.393-.12a22.763,22.763,0,0,1-6.925-1.116c-1.269-.987-2.537-1.983-3.839-2.916-.727-.521-2.059-1.615-1.962-2.712a1.285,1.285,0,0,1,.045-.24c.477-1.648,2.631-.988,3.591-.414a11.494,11.494,0,0,1,2.126,1.795c1.072,1.065.827,1.578,2.331,1.833C73.388,315.623,75.956,316.463,77.56,316.4Z" transform="translate(-62.73 -300.094)" fill="#3e3533"/>
      </g>
      <g id="Group_1107" data-name="Group 1107" transform="translate(28.465 0.948)">
        <path id="Path_1682" data-name="Path 1682" d="M683.134,220.155c-.4.411-.74.75-1.035,1.029a8.067,8.067,0,0,1-1.521,1.243,3.393,3.393,0,0,1,.193,2.191A7.965,7.965,0,0,0,683.134,220.155Z" transform="translate(-668.775 -215.612)" fill="#cca692"/>
        <path id="Path_1683" data-name="Path 1683" d="M678.5,223.883c-.143-.146-.283-.295-.413-.453a3.648,3.648,0,0,1-.637-1.106,6.542,6.542,0,0,1-.329-2.444l-.016.017a7.965,7.965,0,0,1-2.363,4.463c-.014.053-.028.107-.046.162-.421.749-.8,1.327-.274,1.669.423.275,2-.3,2.606-.544.149-.059.24-.1.24-.1.109-.047.244-.489.3-.6a1.677,1.677,0,0,1,.315-.484.614.614,0,0,1,.34-.146c.128-.021.412.029.512-.036C678.9,224.172,678.615,224,678.5,223.883Z" transform="translate(-662.742 -215.355)" fill="#d8ad95"/>
        <path id="Path_1684" data-name="Path 1684" d="M544.1,290.615l-.387.2a2.175,2.175,0,0,0-1.025,1.14l-2.061,5.263-5.451.94.224,1.52,5.382-.022a1.59,1.59,0,0,0,1.215-.807l1.806-2.088Z" transform="translate(-532.056 -281.802)" fill="#2d2828"/>
        <path id="Path_1685" data-name="Path 1685" d="M644.6,155.015c-.1.025-.128.168-.089.268s.115.182.143.285a2.516,2.516,0,0,1,.017.337.588.588,0,0,0,.5.46,1.488,1.488,0,0,0,.709-.1,4.246,4.246,0,0,0,2.246-1.518,5.3,5.3,0,0,0,.714-2.393,4.245,4.245,0,0,0-.023-1.544,2.091,2.091,0,0,0-.159-.422,2.419,2.419,0,0,0-3.172-.952,2.574,2.574,0,0,0-1.545,2.888c.03.138.1.266.119.405a1.421,1.421,0,0,1-.253.831c-.085.169-.344.644-.09.772.134.067.279,0,.4.119a.636.636,0,0,1,.163.418.159.159,0,0,0,.012.07C644.319,154.986,644.546,155.017,644.6,155.015Z" transform="translate(-634.012 -148.971)" fill="#e2bba1"/>
        <path id="Path_1686" data-name="Path 1686" d="M661.7,310.521s.732.742,2.665.064c-.175,3.985-.439,5.816-.439,5.816l-2.312.782-.8-2.589Z" transform="translate(-650.199 -300.501)" fill="#fff"/>
        <path id="Path_1687" data-name="Path 1687" d="M660.435,298.462l-.52-.545-2.993-.216s-2.17,3.061-3,3.343a2.623,2.623,0,0,0-.005-.4q0-.212,0-.425c0-.288.005-.574.016-.862.02-.532.058-1.064.131-1.591.036-.259.08-.518.135-.774a3.036,3.036,0,0,1,.083-.367c.023-.067.059-.129.085-.194s.05-.115.071-.175a.045.045,0,0,0-.023.014.516.516,0,0,0-.108.137,1.56,1.56,0,0,0-.094.181c-.059.147-.115.294-.173.44-.1.254-.191.513-.277.773-.17.519-.32,1.045-.488,1.565-.152.468-.3.937-.447,1.408a2.746,2.746,0,0,0-.19.714c0,.307,2.378,6.221,2.378,6.221s1.947-.124,5.91-.532C660.295,305.062,660.435,298.462,660.435,298.462Z" transform="translate(-642.505 -287.104)" fill="#3e3533"/>
        <path id="Path_1688" data-name="Path 1688" d="M652.729,149.8a3.43,3.43,0,0,0-.058-1.046,5.1,5.1,0,0,0-1.248-2.577,3.284,3.284,0,0,0-4.365-.294,2.714,2.714,0,0,0-1.028,2.661,6.09,6.09,0,0,1,.891.028,1.548,1.548,0,0,1,.075-.79,6.122,6.122,0,0,1,.208.908,2.589,2.589,0,0,1,.909.238c.013.006.168-.532.32-.511s.379.535.444.665a4.808,4.808,0,0,1,.45,1.62,10.339,10.339,0,0,1-.063,2.546C649.668,153.117,652.442,151.97,652.729,149.8Z" transform="translate(-636.269 -145.195)" fill="#2d2828"/>
        <path id="Path_1689" data-name="Path 1689" d="M703.057,149.249A3.428,3.428,0,0,0,703,148.2a5.1,5.1,0,0,0-1.248-2.577l0,0a3.382,3.382,0,0,0-1.2-.309l.009.008A5.1,5.1,0,0,1,701.8,147.9a3.428,3.428,0,0,1,.058,1.046,3.517,3.517,0,0,1-1.229,2.112,10.113,10.113,0,0,1,.021,1.139A4.407,4.407,0,0,0,703.057,149.249Z" transform="translate(-687.553 -145.307)" fill="#3e3533"/>
        <path id="Path_1690" data-name="Path 1690" d="M533.945,439.391l-1.429-.308-1.225-.234a.613.613,0,0,0-.35.036,10.036,10.036,0,0,0-1.226.486c-.26.149-.378.245-.059.44a.564.564,0,0,0,.64-.023c-.076.053-.178.122-.178.226,0,.207.212.15.333.129l.781-.136a.708.708,0,0,1,.462.079l1.008.561a.784.784,0,0,0,.4.1l.938-.021Z" transform="translate(-526.685 -421.041)" fill="#d8ad95"/>
        <g id="Group_1106" data-name="Group 1106" transform="translate(0 16.14)">
          <path id="Path_1691" data-name="Path 1691" d="M488.647,421.956a2.248,2.248,0,0,0-.214.459,2.53,2.53,0,0,0-.191.456c-.021.112.062.224.183.185a.431.431,0,0,0,.126-.082c.054.169.172.105.248-.006.15-.218.188-.47.448-.5.184-.02.381,0,.567,0l.953-.008c-.009,0-.1-.387-.106-.415-.058-.224-.1-.393-.349-.389l-.921.012a1.354,1.354,0,0,0-.452.058A.609.609,0,0,0,488.647,421.956Z" transform="translate(-487.925 -421.038)" fill="#d8ad95"/>
          <path id="Path_1692" data-name="Path 1692" d="M484.73,412.317a1.206,1.206,0,0,1,.172.046c.051.014.123,0,.169.018a.237.237,0,0,0-.153.014,1.925,1.925,0,0,1-.344.028c-.114.009-.5.151-.388.329.1.161.344.121.471.1a1.731,1.731,0,0,1,.726.176,3.287,3.287,0,0,0,1.774-.183l-.424-.794-1.949-.555-.561.183a2.415,2.415,0,0,0-.713.351.63.63,0,0,0-.175.271q-.092.194-.19.384c-.051.1-.268.376-.128.507.076.072.216-.028.26-.086.135-.178.242-.513.427-.63A1.7,1.7,0,0,1,484.73,412.317Z" transform="translate(-482.971 -411.498)" fill="#e2bba1"/>
        </g>
        <path id="Path_1693" data-name="Path 1693" d="M604.354,286c-.708-.136-1.474.946-1.644,1.539-.225.786-.3,1.631-.476,2.43-.205.944-.55,1.85-.665,2.815a6.351,6.351,0,0,1-.153,1.091c-.161.547-.57.609-1.071.844a24.958,24.958,0,0,1-5.1.945l.571,1.786c.092-.033,6.694.694,7.789-1.019a11.038,11.038,0,0,0,.616-1.249q.517-1.105,1.035-2.211l.495-1.057c.111-.237.289-.915.5-1.057a.285.285,0,0,0,.094-.085C607.08,288.621,605.646,286.252,604.354,286Z" transform="translate(-588.54 -277.458)" fill="#514644"/>
      </g>
      <g id="_4" data-name="4" transform="translate(23.709 19.648)">
        <path id="Path_1694" data-name="Path 1694" d="M403.352,457.2l-.007.143a.1.1,0,0,0,.1.1l.142.008.013-.243Z" transform="translate(-403.344 -456.988)" fill="#9ba6b1"/>
        <path id="Path_1695" data-name="Path 1695" d="M403.581,453.755a.1.1,0,0,0-.106.093l-.007.115.243.013.011-.215Z" transform="translate(-403.461 -453.754)" fill="#bcbec0"/>
        <path id="Path_1696" data-name="Path 1696" d="M481.828,465.4h.02v-.007Z" transform="translate(-477.14 -464.685)" fill="#ea5f21"/>
        <path id="Path_1697" data-name="Path 1697" d="M482.233,457.946l.02.008v-.007Z" transform="translate(-477.521 -457.692)" fill="#f9773d"/>
        <path id="Path_1698" data-name="Path 1698" d="M411.108,457.631l-.354-.019-.013.243.253.013,3.993.221.013-.243Z" transform="translate(-410.299 -457.378)" fill="#d93264"/>
        <path id="Path_1699" data-name="Path 1699" d="M411.218,454.086l-.253-.014-.011.215.354.019,3.892.216.011-.215Z" transform="translate(-410.499 -454.053)" fill="#e2477a"/>
        <path id="Path_1700" data-name="Path 1700" d="M407.6,453.882l-.043,0-.011.215.043,0,.161.009.011-.215Z" transform="translate(-407.294 -453.872)" fill="#478aea"/>
        <path id="Path_1701" data-name="Path 1701" d="M407.378,457.422l-.043,0-.013.243.043,0,.161.009.013-.243Z" transform="translate(-407.085 -457.197)" fill="#3176ec"/>
        <path id="Path_1702" data-name="Path 1702" d="M485.974,461.709l-.008.161.441-.123-.041-.017Z" transform="translate(-481.031 -461.227)" fill="#42454c"/>
        <path id="Path_1703" data-name="Path 1703" d="M486.107,459.656l.391.021-.384-.154Z" transform="translate(-481.164 -459.174)" fill="#58595b"/>
        <path id="Path_1704" data-name="Path 1704" d="M481.861,461.487h-.021l-.013.243.021-.006.227-.062.008-.161Z" transform="translate(-477.14 -461.017)" fill="#e8cb37"/>
        <path id="Path_1705" data-name="Path 1705" d="M482.073,457.954l-.02-.008-.011.215h.021l.222.013.007-.132Z" transform="translate(-477.341 -457.692)" fill="#f7dc54"/>
      </g>
      <g id="_5" data-name="5" transform="translate(24.032 17.779)">
        <path id="Path_1706" data-name="Path 1706" d="M489.093,434.4l-.5.042.023-.342.487.112Z" transform="translate(-483.827 -433.425)" fill="#478aea"/>
        <path id="Path_1707" data-name="Path 1707" d="M409.263,426.11l-.515-.037.214.648.372.027Z" transform="translate(-408.748 -425.881)" fill="#478aea"/>
        <path id="Path_1708" data-name="Path 1708" d="M443.513,428.979l.046-.66.192.02-.045.648Z" transform="translate(-441.437 -427.991)" fill="#414042"/>
        <path id="Path_1709" data-name="Path 1709" d="M450.717,429.078c.665.076,1.312.17,2.265.289q-.013.188-.026.375c-.96-.017-1.614-.016-2.282-.035Z" transform="translate(-448.17 -428.704)" fill="#58595b"/>
        <path id="Path_1710" data-name="Path 1710" d="M418.781,423.2a.216.216,0,0,1,.111-.2,1.168,1.168,0,0,1,.744-.077c.712.072,1.606.115,1.615.115a.39.39,0,0,1-.522.123c-.253-.017-1.331-.054-1.342-.055a.253.253,0,0,0-.126.031c-.025.017-.053.047-.021.126s.008.1-.012.109c-.08.054-.354-.106-.436-.156l-.01-.006Z" transform="translate(-418.182 -422.906)" fill="#58595b"/>
        <path id="Path_1711" data-name="Path 1711" d="M446.73,429.3l.045-.648.234.026-.043.63Z" transform="translate(-444.461 -428.305)" fill="#478aea"/>
        <path id="Path_1712" data-name="Path 1712" d="M415.91,427.02c.015-.221.031-.442.046-.663.661.033,1.175.072,1.649.119l-.046.66C417.083,427.116,416.569,427.082,415.91,427.02Z" transform="translate(-415.482 -426.148)" fill="#58595b"/>
        <path id="Path_1713" data-name="Path 1713" d="M496.933,435.955a.6.6,0,0,1,.113.031.593.593,0,0,1,.15.082.784.784,0,0,1-.143.052.77.77,0,0,1-.133.023C496.925,436.08,496.929,436.017,496.933,435.955Z" transform="translate(-491.654 -435.164)" fill="#414042"/>
      </g>
      <g id="_6" data-name="6" transform="translate(20.17 20.605)">
        <path id="Path_1714" data-name="Path 1714" d="M348.5,476.012l.486-.1c.005.113.012.227.017.34l-.494-.051Z" transform="translate(-348.241 -475.524)" fill="#20b7ea"/>
        <path id="Path_1715" data-name="Path 1715" d="M426.22,470.278l.512-.027-.288-.613-.37.019Z" transform="translate(-421.178 -469.633)" fill="#478aea"/>
        <path id="Path_1716" data-name="Path 1716" d="M398.187,470.993l.033.657-.191,0-.033-.645Z" transform="translate(-394.777 -470.905)" fill="#414042"/>
        <path id="Path_1717" data-name="Path 1717" d="M358.6,472.238c-.665.007-1.315-.007-2.27-.008q-.01-.187-.019-.373c.949-.1,1.595-.183,2.257-.245Z" transform="translate(-355.583 -471.486)" fill="#58595b"/>
        <path id="Path_1718" data-name="Path 1718" d="M388.885,477.215a.215.215,0,0,1-.086.208,1.165,1.165,0,0,1-.726.167c-.711.016-1.6.084-1.608.085a.391.391,0,0,1,.5-.186c.251-.013,1.32-.109,1.331-.11a.253.253,0,0,0,.12-.045c.022-.02.047-.053.005-.128s-.019-.093,0-.108c.073-.063.362.061.449.1l.012,0Z" transform="translate(-383.934 -476.624)" fill="#58595b"/>
        <path id="Path_1719" data-name="Path 1719" d="M394.335,471.256l.033.645-.234,0-.031-.626Z" transform="translate(-391.115 -471.152)" fill="#478aea"/>
        <path id="Path_1720" data-name="Path 1720" d="M402.834,469.547c.012.22.022.44.034.66-.657.048-1.168.073-1.641.085l-.033-.657C401.664,469.6,402.176,469.567,402.834,469.547Z" transform="translate(-397.783 -469.547)" fill="#58595b"/>
        <path id="Path_1721" data-name="Path 1721" d="M344.367,477.785a.6.6,0,0,1-.116-.017.617.617,0,0,1-.157-.063.789.789,0,0,1,.135-.069.766.766,0,0,1,.129-.039C344.36,477.661,344.363,477.723,344.367,477.785Z" transform="translate(-344.094 -477.11)" fill="#414042"/>
      </g>
    </g>
    <g id="Layer_2" data-name="Layer 2" transform="translate(20.964 19)">
      <g id="Group_1108" data-name="Group 1108" transform="translate(0 0)">
        <path id="Path_1722" data-name="Path 1722" d="M259.3,19h-6.119a2.514,2.514,0,0,0-2.606,2.5v2.07a2.652,2.652,0,0,0,.889,1.982.537.537,0,0,1,.108.653l-1.132,3.735a52.515,52.515,0,0,1,4.118-3.725H259.3a2.633,2.633,0,0,0,2.606-2.645V21.5A2.514,2.514,0,0,0,259.3,19Z" transform="translate(-250.44 -19)" fill="#c1dee5"/>
        <path id="Path_1723" data-name="Path 1723" d="M250.44,29.942a52.515,52.515,0,0,1,4.118-3.725h.037l6.763-6.278A2.637,2.637,0,0,0,259.3,19h-6.119a2.514,2.514,0,0,0-2.606,2.5v2.07a2.652,2.652,0,0,0,.889,1.982.537.537,0,0,1,.108.653Z" transform="translate(-250.44 -19)" fill="#daebef"/>
      </g>
      <g id="Group_1109" data-name="Group 1109" transform="translate(9.516 1.741)">
        <path id="Path_1724" data-name="Path 1724" d="M412.365,47.731h6.119a2.514,2.514,0,0,1,2.606,2.5V52.3a2.651,2.651,0,0,1-.889,1.982.536.536,0,0,0-.107.653l.689,3.689a43.586,43.586,0,0,0-3.676-3.678h-4.742a2.633,2.633,0,0,1-2.606-2.645v-2.07A2.514,2.514,0,0,1,412.365,47.731Z" transform="translate(-409.759 -47.731)" fill="#ee7c7b"/>
        <path id="Path_1725" data-name="Path 1725" d="M411.552,54.815l7.557-7.015a2.844,2.844,0,0,0-.624-.069h-6.119a2.514,2.514,0,0,0-2.606,2.5V52.3A2.651,2.651,0,0,0,411.552,54.815Z" transform="translate(-409.759 -47.731)" fill="#f2a0a0"/>
      </g>
      <g id="Group_1110" data-name="Group 1110" transform="translate(2.477 5.471)">
        <path id="Path_1726" data-name="Path 1726" d="M301.282,109.275h-6.119a2.514,2.514,0,0,0-2.606,2.5v2.07a2.652,2.652,0,0,0,.889,1.982.535.535,0,0,1,.107.653l-1.641,4.2s4.336-4.192,4.629-4.192h4.742a2.634,2.634,0,0,0,2.607-2.645v-2.07A2.515,2.515,0,0,0,301.282,109.275Z" transform="translate(-291.911 -109.275)" fill="#5387af"/>
        <path id="Path_1727" data-name="Path 1727" d="M301.282,109.275h-6.119a2.514,2.514,0,0,0-2.606,2.5v2.07a2.652,2.652,0,0,0,.889,1.982.535.535,0,0,1,.107.653l-1.641,4.2s4.336-4.192,4.629-4.192h.042l6.76-6.276A2.638,2.638,0,0,0,301.282,109.275Z" transform="translate(-291.911 -109.275)" fill="#72aad3"/>
        <path id="Path_1728" data-name="Path 1728" d="M326.34,137.141h7.848a.315.315,0,0,0,0-.631H326.34a.315.315,0,0,0,0,.631Z" transform="translate(-323.991 -134.859)" fill="#fff"/>
        <path id="Path_1729" data-name="Path 1729" d="M334.188,162.53H326.34a.315.315,0,0,0,0,.631h7.848a.315.315,0,0,0,0-.631Z" transform="translate(-323.991 -159.302)" fill="#fff"/>
        <path id="Path_1730" data-name="Path 1730" d="M334.188,188.545H326.34a.315.315,0,0,0,0,.631h7.848a.315.315,0,0,0,0-.631Z" transform="translate(-323.991 -183.741)" fill="#fff"/>
      </g>
    </g>
  </g>
</svg>
