<svg xmlns="http://www.w3.org/2000/svg" width="450" height="350" viewBox="0 0 500 262.5">
	<g id="undraw_Operating_system_re_iqsc" transform="translate(0 0)">
		<path id="Path_21127" data-name="Path 21127" d="M908.661,519.005a305.577,305.577,0,0,1-39.017-2.844c-.453-.062-.908-.13-1.363-.192l.684-121.433c.452-.356.908-.707,1.37-1.048,1.527-1.134,3.1-2.2,4.726-3.171,7.834-4.689,17.006-6.835,23.335-4.684l.1.039a11.128,11.128,0,0,1,3.766,2.153c5.557,4.9,4.631,14.819.145,23.817,8.893-8.071,20.117-14.5,30.133-14.985,9.77-.479,16.75,4.6,22.682,10.1.2.18.386.36.577.542.1.088.191.18.288.268,4.521,4.295,8.977,9.3,8.438,16.549-.592,7.948-7.3,16.76-15.1,22.939S932.751,457.338,924.1,461.5s-17.514,8.676-24.905,15.362c11.533-9.056,24.654-16.359,37.416-19.056s25.017-.323,31.029,7.748a18.814,18.814,0,0,1,3.358,8.27c.058.348.105.7.146,1.061.856,7.472-1.744,16.394-7.964,23.985-6.848,8.36-17,14.155-26.634,17.039S917.631,519.1,908.661,519.005Z" transform="translate(-471.394 -289.008)" fill="#e6a744"/>
		<path id="Path_21128" data-name="Path 21128" d="M869.067,440.811l.012-2.322q.7-1.106,1.376-2.223c.293-.461.575-.927.862-1.393q7.1-11.553,13.628-23.251T897.4,388.131a.98.98,0,0,1,1.12-.56.275.275,0,0,1,.081.039c.208.11.295.355.118.713-.487.965-.975,1.936-1.474,2.9q-6.027,11.837-12.66,23.572t-13.84,23.321c-.1.163-.2.325-.305.488C869.984,439.342,869.525,440.074,869.067,440.811Z" transform="translate(-471.749 -290.263)" fill="#fff"/>
		<path id="Path_21129" data-name="Path 21129" d="M868.76,487.9l.008-1.436c.456-.324.912-.642,1.369-.966q16.113-11.414,32.224-22.822,26.381-18.683,52.757-37.355a.942.942,0,0,1,.319-.161c.389-.107.618.178.577.542a1.094,1.094,0,0,1-.485.759q-14.795,10.475-29.576,20.944l-52.486,37.165c-1.111.788-2.228,1.576-3.337,2.364C869.673,487.253,869.216,487.578,868.76,487.9Z" transform="translate(-471.609 -307.408)" fill="#fff"/>
		<path id="Path_21130" data-name="Path 21130" d="M877.009,576.146c-2.437-.074-4.834-.234-7.21-.443l-1.363-.122.009-1.506c.453.046.909.091,1.363.132,3.432.319,6.9.545,10.466.575a146.929,146.929,0,0,0,29.428-2.855,184.257,184.257,0,0,0,30.576-8.843,210.631,210.631,0,0,0,30.249-14.467.816.816,0,0,1,.537-.134c.433.063.56.634.148,1.062a1.256,1.256,0,0,1-.275.216q-1.806,1.043-3.621,2.047a210.336,210.336,0,0,1-30.356,13.848,183.383,183.383,0,0,1-30.62,8.244A145.052,145.052,0,0,1,877.009,576.146Z" transform="translate(-471.464 -363.67)" fill="#fff"/>
		<path id="Path_21131" data-name="Path 21131" d="M583.493,208.674H251.151a4.763,4.763,0,0,0-4.774,4.743v223.7a4.763,4.763,0,0,0,4.774,4.743H583.493a4.783,4.783,0,0,0,3.63-1.664,1.066,1.066,0,0,0,.1-.13,4.413,4.413,0,0,0,.684-1.148,4.6,4.6,0,0,0,.362-1.8v-223.7A4.764,4.764,0,0,0,583.493,208.674Zm3.416,228.447a3.34,3.34,0,0,1-.564,1.86,3.519,3.519,0,0,1-1.292,1.153,3.412,3.412,0,0,1-1.56.375H251.151a3.4,3.4,0,0,1-3.411-3.388V213.417a3.4,3.4,0,0,1,3.411-3.388H583.493a3.405,3.405,0,0,1,3.416,3.389Z" transform="translate(-189.991 -208.674)" fill="#727b89"/>
		<rect id="Rectangle_5350" data-name="Rectangle 5350" width="340.532" height="1.356" transform="translate(57.066 19.008)" fill="#727b89"/>
		<ellipse id="Ellipse_2165" data-name="Ellipse 2165" cx="4.095" cy="4.067" rx="4.095" ry="4.067" transform="translate(64.572 6.101)" fill="#727b89"/>
		<ellipse id="Ellipse_2166" data-name="Ellipse 2166" cx="4.095" cy="4.067" rx="4.095" ry="4.067" transform="translate(76.344 6.101)" fill="#727b89"/>
		<ellipse id="Ellipse_2167" data-name="Ellipse 2167" cx="4.095" cy="4.067" rx="4.095" ry="4.067" transform="translate(88.116 6.101)" fill="#727b89"/>
		<path id="Path_21132" data-name="Path 21132" d="M567.639,289.467H396.814a7.071,7.071,0,1,1,0-14.141H567.639a7.071,7.071,0,1,1,0,14.141ZM396.814,276.413a5.983,5.983,0,1,0,0,11.966H567.639a5.983,5.983,0,1,0,0-11.966Z" transform="translate(-254.841 -239.076)" fill="#727b89"/>
		<path id="Path_21133" data-name="Path 21133" d="M389.013,373.528H373.683a4.351,4.351,0,1,1,0-8.7h15.331a4.351,4.351,0,1,1,0,8.7Z" transform="translate(-245.613 -279.9)" fill="#ccc"/>
		<path id="Path_21134" data-name="Path 21134" d="M407.081,400.528h-33.4a4.351,4.351,0,1,1,0-8.7h33.4a4.351,4.351,0,1,1,0,8.7Z" transform="translate(-245.613 -292.215)" fill="#ccc"/>
		<path id="Path_21135" data-name="Path 21135" d="M394.013,491.528H378.682a4.351,4.351,0,1,1,0-8.7h15.331a4.351,4.351,0,1,1,0,8.7Z" transform="translate(-247.876 -333.723)" fill="#ccc"/>
		<path id="Path_21136" data-name="Path 21136" d="M412.081,518.528h-33.4a4.351,4.351,0,1,1,0-8.7h33.4a4.351,4.351,0,1,1,0,8.7Z" transform="translate(-247.876 -346.038)" fill="#ccc"/>
		<path id="Path_21137" data-name="Path 21137" d="M578.013,488.528H562.682a4.351,4.351,0,1,1,0-8.7h15.331a4.351,4.351,0,1,1,0,8.7Z" transform="translate(-331.132 -332.354)" fill="#ccc"/>
		<path id="Path_21138" data-name="Path 21138" d="M596.081,515.528h-33.4a4.351,4.351,0,1,1,0-8.7h33.4a4.351,4.351,0,1,1,0,8.7Z" transform="translate(-331.132 -344.67)" fill="#ccc"/>
		<path id="Path_21139" data-name="Path 21139" d="M575.013,378.529H559.682a4.351,4.351,0,1,1,0-8.7h15.331a4.351,4.351,0,1,1,0,8.7Z" transform="translate(-329.775 -282.18)" fill="#ccc"/>
		<path id="Path_21140" data-name="Path 21140" d="M593.081,405.528h-33.4a4.351,4.351,0,1,1,0-8.7h33.4a4.351,4.351,0,1,1,0,8.7Z" transform="translate(-329.775 -294.496)" fill="#ccc"/>
		<path id="Path_21141" data-name="Path 21141" d="M762.013,372.528h-15.33a4.351,4.351,0,1,1,0-8.7h15.33a4.351,4.351,0,1,1,0,8.7Z" transform="translate(-414.39 -279.444)" fill="#ccc"/>
		<path id="Path_21142" data-name="Path 21142" d="M780.081,399.528h-33.4a4.351,4.351,0,1,1,0-8.7h33.4a4.351,4.351,0,1,1,0,8.7Z" transform="translate(-414.39 -291.759)" fill="#ccc"/>
		<ellipse id="Ellipse_2168" data-name="Ellipse 2168" cx="16.425" cy="16.316" rx="16.425" ry="16.316" transform="translate(84.596 80.303)" fill="#e6a744"/>
		<path id="Path_21143" data-name="Path 21143" d="M327.874,387.51H312.543a1.639,1.639,0,0,1-1.642-1.632V374.457a1.638,1.638,0,0,1,1.642-1.631h4.316a1.633,1.633,0,0,1,1.4.776l1.2,1.943h8.413a1.639,1.639,0,0,1,1.643,1.631v8.7A1.639,1.639,0,0,1,327.874,387.51Zm-15.331-13.6a.547.547,0,0,0-.547.544v11.421a.547.547,0,0,0,.547.545h15.331a.547.547,0,0,0,.547-.545v-8.7a.546.546,0,0,0-.547-.544H318.85l-1.524-2.461a.546.546,0,0,0-.467-.259Z" transform="translate(-219.187 -283.549)" fill="#fff"/>
		<ellipse id="Ellipse_2169" data-name="Ellipse 2169" cx="16.425" cy="16.316" rx="16.425" ry="16.316" transform="translate(185.339 83.023)" fill="#e6a744"/>
		<path id="Path_21144" data-name="Path 21144" d="M511.779,392.993H497.543a1.639,1.639,0,0,1-1.643-1.632v-17.4a1.638,1.638,0,0,1,1.643-1.631h10.315a1.656,1.656,0,0,1,1.029.36l3.92,3.129a1.618,1.618,0,0,1,.613,1.272v14.275A1.639,1.639,0,0,1,511.779,392.993Zm-14.236-19.58a.546.546,0,0,0-.547.544v17.4a.546.546,0,0,0,.547.544h14.236a.546.546,0,0,0,.547-.544V377.087a.538.538,0,0,0-.2-.424l-3.921-3.13a.549.549,0,0,0-.343-.12Z" transform="translate(-302.897 -283.321)" fill="#fff"/>
		<path id="Path_21145" data-name="Path 21145" d="M512.209,385.414h-8.76a.544.544,0,1,1,0-1.088h8.76a.544.544,0,1,1,0,1.088Z" transform="translate(-306.065 -288.794)" fill="#fff"/>
		<path id="Path_21146" data-name="Path 21146" d="M512.209,391.414h-8.76a.544.544,0,1,1,0-1.088h8.76a.544.544,0,1,1,0,1.088Z" transform="translate(-306.065 -291.531)" fill="#fff"/>
		<path id="Path_21147" data-name="Path 21147" d="M512.209,397.414h-8.76a.544.544,0,1,1,0-1.088h8.76a.544.544,0,1,1,0,1.088Z" transform="translate(-306.065 -294.268)" fill="#fff"/>
		<ellipse id="Ellipse_2170" data-name="Ellipse 2170" cx="16.425" cy="16.316" rx="16.425" ry="16.316" transform="translate(286.629 79.76)" fill="#e6a744"/>
		<path id="Path_21148" data-name="Path 21148" d="M696.873,386.291H681.542a1.638,1.638,0,0,1-1.642-1.631v-8.7a1.637,1.637,0,0,1,1.642-1.631h15.331a1.639,1.639,0,0,1,1.643,1.631v8.7A1.639,1.639,0,0,1,696.873,386.291Zm-15.331-10.877a.546.546,0,0,0-.547.544v8.7a.546.546,0,0,0,.547.544h15.331a.546.546,0,0,0,.547-.544v-8.7a.546.546,0,0,0-.547-.544Z" transform="translate(-386.154 -284.233)" fill="#fff"/>
		<path id="Path_21149" data-name="Path 21149" d="M689.208,382.656a1.65,1.65,0,0,1-.87-.246l-8.179-5.078a.541.541,0,0,1-.175-.75.551.551,0,0,1,.755-.173l8.179,5.078a.556.556,0,0,0,.581,0l8.179-5.078a.551.551,0,0,1,.755.173.542.542,0,0,1-.174.75l-8.18,5.078A1.648,1.648,0,0,1,689.208,382.656Z" transform="translate(-386.153 -285.145)" fill="#fff"/>
		<ellipse id="Ellipse_2171" data-name="Ellipse 2171" cx="16.425" cy="16.316" rx="16.425" ry="16.316" transform="translate(84.596 144.48)" fill="#e6a744"/>
		<path id="Path_21150" data-name="Path 21150" d="M327.874,505.291H312.543a1.638,1.638,0,0,1-1.642-1.631v-8.7a1.637,1.637,0,0,1,1.642-1.631h15.331a1.638,1.638,0,0,1,1.643,1.631v8.7A1.639,1.639,0,0,1,327.874,505.291Zm-15.331-10.877a.546.546,0,0,0-.547.544v8.7a.546.546,0,0,0,.547.543h15.331a.546.546,0,0,0,.547-.543v-8.7a.546.546,0,0,0-.547-.544Z" transform="translate(-219.187 -338.512)" fill="#fff"/>
		<path id="Path_21151" data-name="Path 21151" d="M327.452,508.713H316.434a1.1,1.1,0,0,1-.948-.544,1.082,1.082,0,0,1,0-1.088l3.319-5.711a1.1,1.1,0,0,1,1.9,0l2.143,3.689,1.242-2.137a1.1,1.1,0,0,1,1.9,0l2.417,4.159a1.082,1.082,0,0,1,0,1.088A1.1,1.1,0,0,1,327.452,508.713Zm0-1.088h0l-2.417-4.16-1.716,2.953a.548.548,0,0,1-.474.271h0a.548.548,0,0,1-.474-.271l-2.618-4.5-3.319,5.711Z" transform="translate(-221.196 -341.933)" fill="#fff"/>
		<ellipse id="Ellipse_2172" data-name="Ellipse 2172" cx="1.095" cy="1.088" rx="1.095" ry="1.088" transform="translate(105.949 156.989)" fill="#fff"/>
		<ellipse id="Ellipse_2173" data-name="Ellipse 2173" cx="16.425" cy="16.316" rx="16.425" ry="16.316" transform="translate(186.434 142.849)" fill="#e6a744"/>
		<path id="Path_21152" data-name="Path 21152" d="M509.829,493.616a4.895,4.895,0,1,1,4.928-4.895A4.911,4.911,0,0,1,509.829,493.616Zm0-8.7a3.807,3.807,0,1,0,3.832,3.806,3.819,3.819,0,0,0-3.832-3.806Z" transform="translate(-306.969 -334.179)" fill="#fff"/>
		<path id="Path_21153" data-name="Path 21153" d="M513.078,511.984h-8.76a1.912,1.912,0,0,1-1.917-1.9,6.3,6.3,0,0,1,12.593,0A1.912,1.912,0,0,1,513.078,511.984Zm-4.38-7.071a5.192,5.192,0,0,0-5.2,5.167.82.82,0,0,0,.822.816h8.76a.82.82,0,0,0,.822-.816A5.191,5.191,0,0,0,508.7,504.914Z" transform="translate(-305.838 -343.302)" fill="#fff"/>
		<path id="Path_21154" data-name="Path 21154" d="M80.936,449.629h6.713l3.193-25.719-9.907,0Z" transform="translate(-36.622 -193.358)" fill="#ffb8b8"/>
		<path id="Path_21155" data-name="Path 21155" d="M0,0H21.1V8.1H8.151A8.124,8.124,0,0,1,0,0Z" transform="translate(63.971 262.462) rotate(179.997)" fill="#575f6c"/>
		<path id="Path_21156" data-name="Path 21156" d="M34.936,449.629h6.713l3.193-25.719-9.907,0Z" transform="translate(-15.807 -193.358)" fill="#ffb8b8"/>
		<path id="Path_21157" data-name="Path 21157" d="M0,0H21.1V8.1H8.151A8.124,8.124,0,0,1,0,0Z" transform="translate(38.785 262.462) rotate(179.997)" fill="#575f6c"/>
		<path id="Path_21158" data-name="Path 21158" d="M172.27,479.326a5.819,5.819,0,0,0,1.129-8.888l4.42-62.3-12.731,1.226-.35,61.015a5.845,5.845,0,0,0-.237,7.8A5.942,5.942,0,0,0,172.27,479.326Z" transform="translate(-152.321 -299.653)" fill="#ffb8b8"/>
		<path id="Path_21159" data-name="Path 21159" d="M201.619,589.369a2.467,2.467,0,0,1-2.447-2.157l-3.9-32.417a1.918,1.918,0,0,0-3.8-.069l-4.915,31.037a2.447,2.447,0,0,1-2.434,2.067h-7.966a2.472,2.472,0,0,1-1.749-.723,2.438,2.438,0,0,1-.715-1.742l3.8-68.818a2.439,2.439,0,0,1,2.11-2.4l29.563-4.263a2.479,2.479,0,0,1,1.973.577,2.443,2.443,0,0,1,.845,1.862l-.516,74.269a2.454,2.454,0,0,1-2.347,2.427l-7.389.35C201.7,589.368,201.657,589.369,201.619,589.369Z" transform="translate(-157.104 -346.051)" fill="#575f6c"/>
		<path id="Path_21160" data-name="Path 21160" d="M183.037,461.437a24.849,24.849,0,0,1-8.337-1.474,2.431,2.431,0,0,1-1.6-2.179c-.255-5.622-1.747-34.56-6.091-52.211a17.982,17.982,0,0,1,6.919-18.8q.35-.25.715-.492a17.792,17.792,0,0,1,17.189-1.339,18.081,18.081,0,0,1,10.6,14.118L209.52,451.3a2.443,2.443,0,0,1-2.182,2.76,37.366,37.366,0,0,0-14.06,4.784A20.986,20.986,0,0,1,183.037,461.437Z" transform="translate(-153.849 -288.342)" fill="#9ba2af"/>
		<path id="Path_21161" data-name="Path 21161" d="M169.749,425.4l-11.657-3.139a2.449,2.449,0,0,1-1.733-3l4.1-15.013a6.792,6.792,0,0,1,13.33,2.136l-.933,16.792a2.443,2.443,0,0,1-1.018,1.85A2.476,2.476,0,0,1,169.749,425.4Z" transform="translate(-149.221 -295.609)" fill="#9ba2af"/>
		<ellipse id="Ellipse_2174" data-name="Ellipse 2174" cx="13.448" cy="13.358" rx="13.448" ry="13.358" transform="translate(20.057 62.789)" fill="#ffb8b8"/>
		<path id="Path_21162" data-name="Path 21162" d="M264.283,393.245a5.74,5.74,0,0,0-.131.892l-23.52,13.478-5.717-3.269-6.094,7.925,12.23,8.659L267.883,399.9a5.772,5.772,0,0,0,6.329-1.606,5.679,5.679,0,0,0,.727-6.449,5.759,5.759,0,0,0-10.657,1.4Z" transform="translate(-182.047 -290.853)" fill="#ffb8b8"/>
		<path id="Path_21163" data-name="Path 21163" d="M227.694,409.752l-10.131,6.531a2.476,2.476,0,0,1-3.408-.72l-8.525-13.049a6.712,6.712,0,0,1,1.423-8.912,6.821,6.821,0,0,1,9.072.473l11.97,11.894a2.437,2.437,0,0,1-.4,3.783Z" transform="translate(-171.059 -292.34)" fill="#9ba2af"/>
		<path id="Path_21164" data-name="Path 21164" d="M181.9,343.091c2.509,2.654,7.167,1.23,7.495-2.4a4.386,4.386,0,0,0-.006-.846c-.169-1.606-1.1-3.065-.879-4.761a2.487,2.487,0,0,1,.46-1.169c2-2.659,6.692,1.189,8.578-1.218,1.157-1.476-.2-3.8.685-5.45,1.172-2.177,4.642-1.1,6.819-2.3,2.421-1.327,2.277-5.017.683-7.262a11.526,11.526,0,0,0-8.718-4.409,23.522,23.522,0,0,0-9.851,1.91c-3.57,1.382-7.111,3.293-9.308,6.411-2.672,3.792-2.929,8.891-1.593,13.326C177.074,337.628,179.848,340.924,181.9,343.091Z" transform="translate(-157.909 -256.376)" fill="#575f6c"/>
		<path id="Path_21165" data-name="Path 21165" d="M220.593,690.413H143.941a.544.544,0,1,1,0-1.087h76.652a.544.544,0,1,1,0,1.087Z" transform="translate(-143.393 -427.914)" fill="#3f3d56"/>
	</g>
</svg>
