<svg xmlns="http://www.w3.org/2000/svg" xmlns:xlink="http://www.w3.org/1999/xlink" width="200" height="62" viewBox="0 0 600 409">
  <defs>
    <linearGradient id="linear-gradient" x1="9.046" y1="1" x2="9.046" gradientUnits="objectBoundingBox">
      <stop offset="0" stop-color="gray" stop-opacity="0.251"/>
      <stop offset="0.54" stop-color="gray" stop-opacity="0.122"/>
      <stop offset="1" stop-color="gray" stop-opacity="0.102"/>
    </linearGradient>
  </defs>
  <g id="Group_11848" data-name="Group 11848" transform="translate(-1010 -458)">
    <text id="Yetkilendirme_yapmak_istediğiniz_uygulamayı_sol_taraftan_seçiniz." data-name="Yetkilendirme yapmak istediğiniz uygulamayı sol taraftan seçiniz." transform="translate(1310 863)" fill="#9f6e65" font-size="20" font-family="Ubuntu-Italic, Ubuntu" font-style="italic"><tspan x="-283.84" y="0">Yetkilendirme yapmak istediğiniz uygulamayı sol taraftan seçiniz.</tspan></text>
    <g id="undraw_personal_settings_kihd-2" transform="translate(1010 458)">
      <path id="Path_18987" data-name="Path 18987" d="M628,327.848a94.663,94.663,0,0,1-13.7,49.227c0,18.153-8.465,34.608-22.2,46.6a75.909,75.909,0,0,1-11.056,8.012c-.157.1-.32.194-.482.288-.294.173-.587.346-.886.524l-.278.163h0a86.348,86.348,0,0,1-42.535,10.907H141.9q-4.72,0-9.357-.378a110.763,110.763,0,0,1-32.024-7.414q-3-1.185-5.885-2.548-1.374-.645-2.722-1.327c-.561-.283-1.122-.577-1.678-.87a98.3,98.3,0,0,1-18.073-12.265c-17.832-15.327-28.888-36.5-28.888-59.888A94.633,94.633,0,0,1,28,307.141c0-51.985,41.559-94.128,92.832-94.128,1.573,0,3.147.047,4.72.131a4.8,4.8,0,0,1,.671.031A159.921,159.921,0,0,1,160.314,173C198.2,140.541,253.577,120.08,315.26,120.08c51.829,0,99.2,14.446,135.493,38.315a91.368,91.368,0,0,1,45.079-11.824c51.262,0,92.832,42.143,92.832,94.128a96.967,96.967,0,0,1-.524,9.848A94.379,94.379,0,0,1,628,327.848Z" transform="translate(-28 -110.075)" fill="#9f6e65" opacity="0.1"/>
      <g id="Group_7829" data-name="Group 7829" transform="translate(41.664 183.913)" opacity="0.2">
        <path id="Path_18988" data-name="Path 18988" d="M157,713.963a6.245,6.245,0,0,1-.052.708q-3-1.185-5.885-2.548a4.774,4.774,0,0,1-2.722-1.327c-.561-.283-1.122-.577-1.678-.87a7.192,7.192,0,0,1,.425-.766,4.88,4.88,0,0,1,8.879.273A8.844,8.844,0,0,1,157,713.963Z" transform="translate(-126.09 -572.881)" fill="#3f3d56"/>
        <path id="Path_18989" data-name="Path 18989" d="M156.729,696.843a8.85,8.85,0,0,1-1.316,4.447,5.28,5.28,0,0,1-4.531,2.716l-.372-.026a4.774,4.774,0,0,1-2.722-1.327,6.572,6.572,0,0,1-1.254-1.636,9.2,9.2,0,0,1,.283-8.977,4.88,4.88,0,0,1,8.879.273A8.844,8.844,0,0,1,156.729,696.843Z" transform="translate(-125.539 -564.738)" fill="#3f3d56"/>
        <ellipse id="Ellipse_1938" data-name="Ellipse 1938" cx="7.346" cy="5.612" rx="7.346" ry="5.612" transform="translate(20.025 130.133) rotate(-88.19)" fill="#3f3d56"/>
        <ellipse id="Ellipse_1939" data-name="Ellipse 1939" cx="7.346" cy="5.612" rx="7.346" ry="5.612" transform="translate(20.306 121.156) rotate(-88.19)" fill="#3f3d56"/>
        <ellipse id="Ellipse_1940" data-name="Ellipse 1940" cx="7.346" cy="5.612" rx="7.346" ry="5.612" transform="translate(20.64 111.606) rotate(-88.282)" fill="#3f3d56"/>
        <path id="Path_18990" data-name="Path 18990" d="M114.8,494.637a26.037,26.037,0,0,1-1.993-3.146l14.822-1.956-15.955-.383a26.936,26.936,0,0,1,.163-21.31l21.042,11.772L113.6,464.486a26.893,26.893,0,1,1,43.448,31.462,26.806,26.806,0,0,1,2.911,5l-19.453,9.339,20.628-6.2a26.916,26.916,0,0,1-5.15,25.122,26.893,26.893,0,1,1-42.252-1.332,26.885,26.885,0,0,1,1.049-33.234Z" transform="translate(-107.44 -451.737)" fill="#9f6e65"/>
        <path id="Path_18991" data-name="Path 18991" d="M162.279,567.733a26.771,26.771,0,0,1-6.294,16.434,26.893,26.893,0,1,1-42.252-1.332C110.288,578.152,162.374,564.713,162.279,567.733Z" transform="translate(-107.44 -506.701)" opacity="0.1"/>
      </g>
      <path id="Path_18992" data-name="Path 18992" d="M618.895,230.654V481.918a9.655,9.655,0,0,1-9.656,9.654H223.656a9.511,9.511,0,0,1-2.664-.378A9.638,9.638,0,0,1,214,481.918V261.145a4.8,4.8,0,0,1,.671.031A159.921,159.921,0,0,1,248.762,221H609.239A9.655,9.655,0,0,1,618.895,230.654Z" transform="translate(-116.448 -158.076)" fill="#fff"/>
      <rect id="Rectangle_3912" data-name="Rectangle 3912" width="72.288" height="18.856" rx="9.428" transform="translate(373.515 95.555)" fill="#3f3d56"/>
      <rect id="Rectangle_3913" data-name="Rectangle 3913" width="62.864" height="12.548" rx="6.274" transform="translate(378.225 98.706)" opacity="0.1"/>
      <rect id="Rectangle_3914" data-name="Rectangle 3914" width="22.699" height="11.174" rx="5.587" transform="translate(416.816 99.393)" fill="#9f6e65"/>
      <ellipse id="Ellipse_1941" data-name="Ellipse 1941" cx="3.493" cy="3.492" rx="3.493" ry="3.492" transform="translate(424.499 101.49)" fill="#fff"/>
      <rect id="Rectangle_3915" data-name="Rectangle 3915" width="72.288" height="18.856" rx="9.428" transform="translate(373.515 219.855)" fill="#3f3d56"/>
      <rect id="Rectangle_3916" data-name="Rectangle 3916" width="62.864" height="12.548" rx="6.274" transform="translate(378.225 223.006)" opacity="0.1"/>
      <rect id="Rectangle_3917" data-name="Rectangle 3917" width="22.699" height="11.174" rx="5.587" transform="translate(416.816 223.693)" fill="#9f6e65"/>
      <ellipse id="Ellipse_1942" data-name="Ellipse 1942" cx="3.493" cy="3.492" rx="3.493" ry="3.492" transform="translate(424.499 225.791)" fill="#fff"/>
      <rect id="Rectangle_3918" data-name="Rectangle 3918" width="72.288" height="18.856" rx="9.428" transform="translate(373.515 282.002)" fill="#3f3d56"/>
      <rect id="Rectangle_3919" data-name="Rectangle 3919" width="62.864" height="12.548" rx="6.274" transform="translate(378.225 285.159)" opacity="0.1"/>
      <rect id="Rectangle_3920" data-name="Rectangle 3920" width="22.699" height="11.174" rx="5.587" transform="translate(416.816 285.846)" fill="#9f6e65"/>
      <ellipse id="Ellipse_1943" data-name="Ellipse 1943" cx="3.493" cy="3.492" rx="3.493" ry="3.492" transform="translate(424.499 287.938)" fill="#fff"/>
      <rect id="Rectangle_3921" data-name="Rectangle 3921" width="42.257" height="11.174" rx="5.587" transform="translate(154.195 83.683)" fill="#9f6e65"/>
      <rect id="Rectangle_3922" data-name="Rectangle 3922" width="117.341" height="11.174" rx="5.587" transform="translate(154.195 99.393)" fill="#9f6e65"/>
      <rect id="Rectangle_3923" data-name="Rectangle 3923" width="117.341" height="11.174" rx="5.587" transform="translate(154.195 115.108)" fill="#9f6e65"/>
      <g id="Group_7830" data-name="Group 7830" transform="translate(154.195 145.831)" opacity="0.5">
        <rect id="Rectangle_3924" data-name="Rectangle 3924" width="42.257" height="11.174" rx="5.587" fill="#9f6e65"/>
        <rect id="Rectangle_3925" data-name="Rectangle 3925" width="87.587" height="11.174" rx="5.587" transform="translate(0 15.715)" fill="#9f6e65"/>
        <rect id="Rectangle_3926" data-name="Rectangle 3926" width="117.341" height="11.174" rx="5.587" transform="translate(0 31.425)" fill="#9f6e65"/>
      </g>
      <rect id="Rectangle_3927" data-name="Rectangle 3927" width="42.257" height="11.174" rx="5.587" transform="translate(154.195 207.983)" fill="#9f6e65"/>
      <rect id="Rectangle_3928" data-name="Rectangle 3928" width="117.341" height="11.174" rx="5.587" transform="translate(154.195 223.693)" fill="#9f6e65"/>
      <rect id="Rectangle_3929" data-name="Rectangle 3929" width="72.902" height="11.174" rx="5.587" transform="translate(154.195 239.408)" fill="#9f6e65"/>
      <rect id="Rectangle_3930" data-name="Rectangle 3930" width="42.257" height="11.174" rx="5.587" transform="translate(154.195 270.131)" fill="#9f6e65"/>
      <rect id="Rectangle_3931" data-name="Rectangle 3931" width="117.341" height="11.174" rx="5.587" transform="translate(154.195 285.846)" fill="#9f6e65"/>
      <rect id="Rectangle_3932" data-name="Rectangle 3932" width="94.406" height="11.174" rx="5.587" transform="translate(154.195 301.556)" fill="#9f6e65"/>
      <line id="Line_5998" data-name="Line 5998" x2="341.958" transform="translate(136.363 136.329)" fill="none" stroke="#3f3d56" stroke-linecap="round" stroke-miterlimit="10" stroke-width="1" opacity="0.7"/>
      <line id="Line_5999" data-name="Line 5999" x2="341.958" transform="translate(136.363 199.515)" fill="none" stroke="#3f3d56" stroke-linecap="round" stroke-miterlimit="10" stroke-width="1" opacity="0.7"/>
      <line id="Line_6000" data-name="Line 6000" x2="341.958" transform="translate(136.363 262.701)" fill="none" stroke="#3f3d56" stroke-linecap="round" stroke-miterlimit="10" stroke-width="1" opacity="0.7"/>
      <line id="Line_6001" data-name="Line 6001" x2="341.958" transform="translate(136.363 327.459)" fill="none" stroke="#3f3d56" stroke-linecap="round" stroke-miterlimit="10" stroke-width="1" opacity="0.7"/>
      <ellipse id="Ellipse_1944" data-name="Ellipse 1944" cx="77.454" cy="5.506" rx="77.454" ry="5.506" transform="translate(339.503 354.988)" fill="#9f6e65" opacity="0.1"/>
      <ellipse id="Ellipse_1945" data-name="Ellipse 1945" cx="11.344" cy="11.342" rx="11.344" ry="11.342" transform="translate(25.641 62.688)" fill="#9f6e65" opacity="0.1"/>
      <ellipse id="Ellipse_1946" data-name="Ellipse 1946" cx="11.344" cy="11.342" rx="11.344" ry="11.342" transform="translate(72.923 0)" fill="#9f6e65" opacity="0.1"/>
      <ellipse id="Ellipse_1947" data-name="Ellipse 1947" cx="19.012" cy="19.008" rx="19.012" ry="19.008" transform="translate(61.411 35.4)" fill="#9f6e65" opacity="0.1"/>
      <rect id="Rectangle_3933" data-name="Rectangle 3933" width="72.288" height="18.856" rx="9.428" transform="translate(373.515 157.702)" fill="#3f3d56"/>
      <rect id="Rectangle_3934" data-name="Rectangle 3934" width="62.864" height="12.548" rx="6.274" transform="translate(378.225 160.859)" opacity="0.1"/>
      <path id="Path_18993" data-name="Path 18993" d="M737.125,589.53c.823-.121,1.647-.288,2.454-.477a7.665,7.665,0,0,1-.692,2.328c-.8,1.521-2.371,2.438-3.813,3.372a1.18,1.18,0,0,0-1.49-.1c-1.736,1.049-3.121,2.527-4.962,3.429-.645.315-1.316.566-1.946.918a10.489,10.489,0,0,0-3.671,3.791c-.525.813-.949,1.883-.435,2.69a2.329,2.329,0,0,0,.745.666,4.239,4.239,0,0,0,2.554.76c.525-.047,1.049-.246,1.621-.336.719-.126,1.453-.063,2.177-.126a12.723,12.723,0,0,0,3.063-.792l3.6-1.258a20.813,20.813,0,0,0,2.963-1.217c.572-.309,1.112-.671,1.694-.954a13.642,13.642,0,0,1,2.024-.713l2.045-.6a1.994,1.994,0,0,1,.923-.121c.283.052.524.231.813.3a2.455,2.455,0,0,0,1.311-.126l2.371-.671a4.467,4.467,0,0,0,1.411-.587c1.086-.771,1.28-2.3,1.274-3.639a27.558,27.558,0,0,0-.682-6.02,1.873,1.873,0,0,0-.771.582,11.223,11.223,0,0,0-.781-.981,11.7,11.7,0,0,1-2.366-4.368,7.686,7.686,0,0,0,2.1-2.37c-1.253-4.777-2.538-9.627-5.087-13.843-.834-1.374-1.788-2.664-2.622-4.017-2.481-3.933-2.99-8.914-5.827-12.585a2.181,2.181,0,0,1,0-2.559c.325-.43.85-.834.75-1.369-.073-.383-.472-.734-.32-1.091.073-.173.252-.267.388-.393.482-.451.42-1.211.467-1.872a9.11,9.11,0,0,1,2.051-4.489,2.758,2.758,0,0,1,.755-.818c.257-.157.561-.231.818-.388.9-.572.839-1.9,1.269-2.884.566-1.3,1.993-1.956,2.927-3.01,1.191-1.342,1.495-3.209,2.748-4.378a3.207,3.207,0,0,1,.414-.336,21.1,21.1,0,0,0-.74,6.109c-.121,7.095,1.642,14.436.818,21.5-.65,5.59,2.764,11.164,7.6,13.958A36.36,36.36,0,0,0,763,572.965c3.031,1.085,6.052,2.2,9.026,3.45q3.147,1.321,6.21,2.837a77.3,77.3,0,0,1,7.343,4.1c2.916,1.872,5.837,3.77,7.909,6.565a6.263,6.263,0,0,0,3.493-1.285c.8.629,1.762,1.106,2.512,1.8a7.581,7.581,0,0,1,1.993,3.912h-.315c.037.7.068,1.395.1,2.1a.891.891,0,0,1-.079.524.95.95,0,0,1-.283.257l-1.615,1.1c-1.175.792-2.47,1.793-2.533,3.214a1.636,1.636,0,0,0,.351,1.148,2.476,2.476,0,0,0,1.437.65,25.331,25.331,0,0,0,8.539.787,5.616,5.616,0,0,0,3.635-1.678,7.2,7.2,0,0,0,1.269-3.482c.351-2.1.645-4.242.876-6.371a14.082,14.082,0,0,1,.871-4.232.524.524,0,0,1,.226-.283c.121-.052.262,0,.388-.052s.21-.246.252-.4a25.01,25.01,0,0,0,.75-6.334,4.268,4.268,0,0,0-.247-1.631,3.294,3.294,0,0,0-2.245-1.73,17.887,17.887,0,0,0-2.9-.346,14.4,14.4,0,0,1-2.407-.44,2.2,2.2,0,0,0-1-.131.7.7,0,0,0-.608.7.9.9,0,0,0,.126.341l-.818-.163c-.661-.121-1.573-.409-2.565-.65a4.586,4.586,0,0,1,.031-.524.991.991,0,0,0-.556-.9l-13.857-7.4-2.591-1.384c-5.675-3.036-11.538-5.841-17.229-8.878-.378.115-.692-.32-.8-.708s-.189-.849-.551-1.023c-.178-.084-.414-.079-.524-.231a.624.624,0,0,1-.1-.467c.184-2.763,2.161-5.312,1.767-8.049-.168-1.169-.771-2.323-.524-3.471A16.431,16.431,0,0,1,768.8,542c.682-1.688,0-3.718.745-5.369a12.429,12.429,0,0,0,1-3.419,23.485,23.485,0,0,1,2.1-6.785,12.243,12.243,0,0,1,1.951-2.973c.414-.451.881-.855,1.28-1.321a11.044,11.044,0,0,0,1.993-5.244c.619-3.361,1.049-6.848.273-10.183a14.555,14.555,0,0,1-.645-3.424c0-1.395.561-2.994-.115-4.111a3.618,3.618,0,0,0,1.306-2.239,2.893,2.893,0,0,1,.184-.928,2.7,2.7,0,0,1,.876-.786,3.623,3.623,0,0,0,1.353-3.6c.719.325,1.474-.4,1.815-1.122s.6-1.573,1.327-1.9a10.929,10.929,0,0,1,1.573-.22c.834-.215,1.343-1.049,1.93-1.662a14.872,14.872,0,0,1,4.458-2.748c4.647-2.365,8.434-6.1,12.142-9.785a41.1,41.1,0,0,0,5.245-5.9c.414-.613.792-1.248,1.149-1.9l.094-.047.031.115c.058.231.126.461.194.687.168.524.357,1.085.524,1.62a12.151,12.151,0,0,0,2.334,4.441,5.494,5.494,0,0,0,1.2.928,8.026,8.026,0,0,0,3.079.923c.409.052.823.084,1.238.1s.829.037,1.238.047l8.486.225c-2.916-4.226-3.147-9.722-2.953-14.866.488-13.214,3.063-26.548.671-39.553a10.137,10.137,0,0,0-1.631-4.41,9.06,9.06,0,0,0-5.339-2.915,32.078,32.078,0,0,1-5.99-1.536c-1.573-.718-3.021-1.872-4.72-2.25a10.4,10.4,0,0,0-3.776.063q-2.3.341-4.568.808l-.367.079h.016l-.252.058h-.068l-.226.052h-.084l-.21.058-.094.026-.194.063-.11.037-.178.058-.115.047-.168.063-.126.052-.152.068-.126.063-.142.068-.126.073L798,411.7l-.126.084-.121.079-.126.089-.1.084-.121.1-.1.089a1.253,1.253,0,0,0-.115.121l-.089.089a1.575,1.575,0,0,0-.115.147c0,.026-.047.052-.068.084s-.094.136-.142.215v.031a3.192,3.192,0,0,0-.288.624c-.037.11-.073.22-.1.33a4.984,4.984,0,0,0-.115.682,1.586,1.586,0,0,1-.026.351v.7a10.31,10.31,0,0,0,.131,1.175,12.777,12.777,0,0,0-.608,21.62,5.732,5.732,0,0,1,.042.624v.136a17.3,17.3,0,0,1-.231,2.213,30.771,30.771,0,0,0-6.294-.561c-1.259,0-2.528.115-3.8.215a57.2,57.2,0,0,1-3.8-5.139l-2.8-4.106a39.1,39.1,0,0,1-2.622-4.195c-.687-1.332-1.222-2.748-1.988-4.038-1.573-2.659-4.143-4.919-4.463-8l-.74.152c-.4-.661-.913-1.358-1.1-1.741a34.362,34.362,0,0,1-2.329-6.817,10.474,10.474,0,0,0-1.117-3.534,7.966,7.966,0,0,0-1.631-1.73,10.788,10.788,0,0,0-3.493-2.2,4.517,4.517,0,0,0-3.572.21,5.229,5.229,0,0,0-.524-.21,4.328,4.328,0,0,0-3.965.461,5.329,5.329,0,0,0-1.741,3.671,9.06,9.06,0,0,0,.934,5.569c1.049,1.877,2.927,3.146,4.479,4.635a18.139,18.139,0,0,1,2.816,3.5,38.357,38.357,0,0,1-.215,8.5c-.2,1.206-.524,2.391-.619,3.608-.383,4.394,1.9,8.788,1.086,13.109a3.2,3.2,0,0,0,1.484,3.393,16.365,16.365,0,0,0,3.839,1.049c2.533.65,4.72,2.27,7.28,2.874,1.18.283,2.407.336,3.582.65l.183.058a8.53,8.53,0,0,0-1.883,3.576c-.525,2.2-.031,4.557-.556,6.759a15.07,15.07,0,0,1-2.575,4.934q-3.073,4.447-6.157,8.914a54.6,54.6,0,0,1-4.537,5.962c-2.827,3.089-7.7,5.537-9.142,9.25-.031-.089-.073-.178-.1-.267-2.035,1.494-2.8,4.279-4.416,6.214-.792.939-1.767,1.7-2.622,2.569a29.649,29.649,0,0,0-2.9,3.6,63.941,63.941,0,0,0-6.566,10.456c-.9,1.951-1.6,3.98-2.318,6-2.822,7.955-7.427,15.5-9.341,23.727-.467,2.008-1.689,3.823-1.872,5.878-.2,2.192.8,4.3,1.836,6.235,1.573,2.958,3.325,5.831,4.72,8.872.823,1.772,1.537,3.6,2.455,5.333,1,1.888,2.229,3.639,3.278,5.5C734.3,579.042,735.767,584.323,737.125,589.53Zm34.7-150.256-.252-.126a8.689,8.689,0,0,1-2.544-1.683c-2.26-2.412-3.231-6.046-3.939-9.292-.084-.388-.157-.771-.225-1.159a55.766,55.766,0,0,1,6.96,12.27Z" transform="translate(-356.792 -242.926)" fill="url(#linear-gradient)"/>
      <path id="Path_18994" data-name="Path 18994" d="M788.74,408.421a10.29,10.29,0,0,0-1.112-3.508,7.951,7.951,0,0,0-1.636-1.72,10.878,10.878,0,0,0-3.5-2.187,4.375,4.375,0,0,0-3.965.456,5.293,5.293,0,0,0-1.747,3.671,8.949,8.949,0,0,0,.934,5.532c1.075,1.867,2.932,3.115,4.49,4.6a18.033,18.033,0,0,1,2.927,3.671,10.594,10.594,0,0,0,1.332,1.951,2.539,2.539,0,0,0,2.1.844,3.671,3.671,0,0,0,1.715-1.012c.64-.561,2.36-1.573,2.413-2.449.042-.718-1.3-2.344-1.631-3.02A34.291,34.291,0,0,1,788.74,408.421Z" transform="translate(-384.013 -243.562)" fill="#fbbebe"/>
      <path id="Path_18995" data-name="Path 18995" d="M788.74,408.421a10.29,10.29,0,0,0-1.112-3.508,7.951,7.951,0,0,0-1.636-1.72,10.878,10.878,0,0,0-3.5-2.187,4.375,4.375,0,0,0-3.965.456,5.293,5.293,0,0,0-1.747,3.671,8.949,8.949,0,0,0,.934,5.532c1.075,1.867,2.932,3.115,4.49,4.6a18.033,18.033,0,0,1,2.927,3.671,10.594,10.594,0,0,0,1.332,1.951,2.539,2.539,0,0,0,2.1.844,3.671,3.671,0,0,0,1.715-1.012c.64-.561,2.36-1.573,2.413-2.449.042-.718-1.3-2.344-1.631-3.02A34.291,34.291,0,0,1,788.74,408.421Z" transform="translate(-384.013 -243.562)" opacity="0.1"/>
      <path id="Path_18996" data-name="Path 18996" d="M831.776,458.651a30.888,30.888,0,0,0-8.486-1.049c-4.778.068-9.7,1.227-14.25-.241a24.869,24.869,0,0,1-3.409-1.453,8.693,8.693,0,0,1-2.549-1.673c-2.266-2.4-3.241-6.009-3.944-9.229a61.563,61.563,0,0,1-1.075-9.821,7.521,7.521,0,0,1-3.724.981,2.736,2.736,0,0,1-2.622-2.407,39.821,39.821,0,0,1-.173,9.15c-.2,1.2-.525,2.375-.614,3.581-.388,4.368,1.9,8.731,1.086,13.036a3.146,3.146,0,0,0,1.484,3.366,16.667,16.667,0,0,0,3.844,1.049c2.533.645,4.72,2.255,7.29,2.858,1.18.278,2.413.33,3.587.645,1.673.446,3.2,1.405,4.909,1.7,1.28.231,2.622.073,3.9.184,1.128.094,2.229.388,3.362.419a9.687,9.687,0,0,0,7.217-3.571C829.442,464.1,830.611,461.153,831.776,458.651Z" transform="translate(-390.771 -259.273)" fill="#f86d70"/>
      <path id="Path_18997" data-name="Path 18997" d="M831.776,458.651a30.888,30.888,0,0,0-8.486-1.049c-4.778.068-9.7,1.227-14.25-.241a24.869,24.869,0,0,1-3.409-1.453,8.693,8.693,0,0,1-2.549-1.673c-2.266-2.4-3.241-6.009-3.944-9.229a61.563,61.563,0,0,1-1.075-9.821,7.521,7.521,0,0,1-3.724.981,2.736,2.736,0,0,1-2.622-2.407,39.821,39.821,0,0,1-.173,9.15c-.2,1.2-.525,2.375-.614,3.581-.388,4.368,1.9,8.731,1.086,13.036a3.146,3.146,0,0,0,1.484,3.366,16.667,16.667,0,0,0,3.844,1.049c2.533.645,4.72,2.255,7.29,2.858,1.18.278,2.413.33,3.587.645,1.673.446,3.2,1.405,4.909,1.7,1.28.231,2.622.073,3.9.184,1.128.094,2.229.388,3.362.419a9.687,9.687,0,0,0,7.217-3.571C829.442,464.1,830.611,461.153,831.776,458.651Z" transform="translate(-390.771 -259.273)" opacity="0.1"/>
      <path id="Path_18998" data-name="Path 18998" d="M874.4,737.74a7.181,7.181,0,0,1,2.449.766,5.768,5.768,0,0,1,2.129,2.874,24.934,24.934,0,0,1,1.432,8.972,19.313,19.313,0,0,1-.923,7.273,4.63,4.63,0,0,1-1.212,1.9,4.368,4.368,0,0,1-1.668.807,4.47,4.47,0,0,1-3.913-.482c-1.2-.933-1.495-2.585-1.746-4.08-.341-2.014-.823-4.158-2.323-5.548-1.112-1.049-2.706-1.573-3.514-2.842-.965-1.526-.456-3.518.157-5.217.524-1.473,1.316-4.457,2.858-5.212S872.8,737.452,874.4,737.74Z" transform="translate(-425.812 -403.37)" fill="#fbbebe"/>
      <path id="Path_18999" data-name="Path 18999" d="M759.633,749.849a11.613,11.613,0,0,0,2.4,4.462c.682.787,1.537,1.741,1.18,2.716a2.528,2.528,0,0,1-.645.865c-5.066,4.95-12.152,7.341-19.18,8.243a.677.677,0,0,1-.341,0c-.2-.089-.257-.351-.278-.577a7.082,7.082,0,0,1,0-2.208c.341-1.715,1.846-2.926,3.32-3.875s3.084-1.862,3.9-3.408c1.023-1.919.593-4.42,1.809-6.219a6.487,6.487,0,0,1,4.568-2.36c.6-.094,1.888-.755,2.4-.451S759.455,749.245,759.633,749.849Z" transform="translate(-367.851 -408.242)" fill="#fbbebe"/>
      <path id="Path_19000" data-name="Path 19000" d="M876.285,737.692a.7.7,0,0,1,.608-.692,2.281,2.281,0,0,1,1,.126,13.9,13.9,0,0,0,2.407.446,17.866,17.866,0,0,1,2.906.341,3.288,3.288,0,0,1,2.25,1.715,4.256,4.256,0,0,1,.247,1.625,24.675,24.675,0,0,1-.75,6.292c-.042.157-.1.341-.257.4s-.262,0-.383.058a.472.472,0,0,0-.225.283,13.854,13.854,0,0,0-.876,4.195c-.231,2.1-.524,4.226-.876,6.324a6.947,6.947,0,0,1-1.269,3.461,5.629,5.629,0,0,1-3.64,1.667,25.658,25.658,0,0,1-8.549-.781,2.5,2.5,0,0,1-1.442-.645,1.619,1.619,0,0,1-.351-1.143c.063-1.411,1.364-2.407,2.533-3.193l1.621-1.086a.838.838,0,0,0,.283-.257.876.876,0,0,0,.079-.524l-.1-2.1a5.942,5.942,0,0,1,5.177,3.22c.22.446.435.965.9,1.138a1.185,1.185,0,0,0,1.411-.855,3.633,3.633,0,0,0-.047-1.819c-.949-5.071-.724-10.283-1.3-15.406a3.477,3.477,0,0,0-.525-1.626C876.862,738.505,876.342,738.164,876.285,737.692Z" transform="translate(-427.004 -403.5)" fill="#f86d70"/>
      <rect id="Rectangle_3935" data-name="Rectangle 3935" width="22.699" height="11.174" rx="5.587" transform="translate(402.498 172.72) rotate(180)" fill="#9f6e65"/>
      <ellipse id="Ellipse_1948" data-name="Ellipse 1948" cx="3.493" cy="3.492" rx="3.493" ry="3.492" transform="translate(387.828 163.638)" fill="#fff"/>
      <path id="Path_19001" data-name="Path 19001" d="M738.158,769.118c-.236.393-.608.7-.829,1.1a.944.944,0,0,0,.178,1.232,1.217,1.217,0,0,0,.75.073,25.235,25.235,0,0,0,13.636-6.177,9.549,9.549,0,0,0,1.673-1.83c.446-.676.823-1.5,1.573-1.788a27.222,27.222,0,0,1,.7,6c0,1.332-.189,2.847-1.274,3.618a4.524,4.524,0,0,1-1.416.577l-2.371.671a2.524,2.524,0,0,1-1.316.126c-.278-.073-.525-.252-.813-.3a1.994,1.994,0,0,0-.923.121l-2.051.6a13.03,13.03,0,0,0-2.024.708c-.587.278-1.128.635-1.7.944A20.333,20.333,0,0,1,738.987,776l-3.6,1.253a13.065,13.065,0,0,1-3.068.787c-.724.063-1.463,0-2.182.121a14.834,14.834,0,0,1-1.626.336,4.254,4.254,0,0,1-2.554-.755,2.374,2.374,0,0,1-.745-.661c-.524-.8-.068-1.861.435-2.674a10.574,10.574,0,0,1,3.671-3.765c.629-.346,1.306-.6,1.951-.912,1.841-.891,3.231-2.381,4.967-3.4C737.875,765.369,738.929,767.849,738.158,769.118Z" transform="translate(-359.43 -415.268)" fill="#f86d70"/>
      <path id="Path_19002" data-name="Path 19002" d="M846.69,483.388a14.986,14.986,0,0,0,6.378,2.48,25.978,25.978,0,0,0,3.608.194,91.726,91.726,0,0,0,15.016-1.253c-1.972-2.176-3.97-4.5-4.72-7.341a12.116,12.116,0,0,1-.231-4.6,34.619,34.619,0,0,1,1.406-5.768,40.73,40.73,0,0,1-6.346-.163c-1.2-.126-4.149-1.217-5.192-.388s-.241,3.5-.225,4.751a1.209,1.209,0,0,1,0,.136,15.167,15.167,0,0,1-1.212,5.548C853.671,480.373,850.419,483.162,846.69,483.388Z" transform="translate(-417.308 -274.723)" fill="#fbbebe"/>
      <path id="Path_19003" data-name="Path 19003" d="M864.9,471.256a12.621,12.621,0,0,0,10.358,1.573,34.606,34.606,0,0,1,1.406-5.768,40.724,40.724,0,0,1-6.346-.163c-1.2-.126-4.149-1.217-5.192-.388S864.884,470,864.9,471.256Z" transform="translate(-425.82 -274.704)" opacity="0.1"/>
      <ellipse id="Ellipse_1949" data-name="Ellipse 1949" cx="12.645" cy="12.642" rx="12.645" ry="12.642" transform="translate(433.358 172.741)" fill="#fbbebe"/>
      <path id="Path_19004" data-name="Path 19004" d="M776.09,534.693a5.888,5.888,0,0,0,2.853,5.071,11.375,11.375,0,0,0,3.094,1.091c5.769,1.395,11.706,2.517,17.649,2.176a9.7,9.7,0,0,0,3.745-.787,4.017,4.017,0,0,0,2.313-2.889,2.716,2.716,0,0,1,.178-.918,2.68,2.68,0,0,1,.876-.781,3.587,3.587,0,0,0,1.358-3.576c.719.325,1.474-.4,1.815-1.117s.6-1.573,1.327-1.882a10.929,10.929,0,0,1,1.573-.22c.834-.215,1.343-1.049,1.93-1.652a15.138,15.138,0,0,1,4.463-2.732c4.657-2.344,8.449-6.062,12.168-9.716a40.783,40.783,0,0,0,5.245-5.862,21.628,21.628,0,0,0,1.154-1.888,53.389,53.389,0,0,0,2.911-6.665,7.684,7.684,0,0,0,.755-3.817,1.732,1.732,0,0,0-.068-.351,7.341,7.341,0,0,0-1.149-2.318c-1.285-1.888-2.969-3.671-5.182-4.258s-4.416.121-6.666.6a16.7,16.7,0,0,1-2.26.346,21.24,21.24,0,0,1-7.038-1.106l-2.507-.692c-1.254-.346-1.883-1.861-3.147-2.129a4.259,4.259,0,0,0-1.7.089,23.5,23.5,0,0,0-7.448,2.433,11.179,11.179,0,0,0-1.448.986,9.161,9.161,0,0,0-3.367,4.966c-.524,2.187-.031,4.525-.556,6.712a14.944,14.944,0,0,1-2.575,4.9l-6.178,8.846a54.593,54.593,0,0,1-4.542,5.915C782.336,527.074,776.179,529.79,776.09,534.693Z" transform="translate(-383.736 -285.342)" fill="#f86d70"/>
      <path id="Path_19005" data-name="Path 19005" d="M796.59,408.421a10.289,10.289,0,0,0-1.112-3.508,7.948,7.948,0,0,0-1.636-1.72,10.878,10.878,0,0,0-3.5-2.187,4.375,4.375,0,0,0-3.965.456,5.293,5.293,0,0,0-1.746,3.671,8.949,8.949,0,0,0,.934,5.532c1.049,1.867,2.932,3.115,4.49,4.6a18.032,18.032,0,0,1,2.927,3.671,10.6,10.6,0,0,0,1.332,1.951,2.539,2.539,0,0,0,2.1.844,3.671,3.671,0,0,0,1.715-1.012c.64-.561,2.36-1.573,2.413-2.449.042-.718-1.3-2.344-1.631-3.02a34.292,34.292,0,0,1-2.313-6.832Z" transform="translate(-387.746 -243.562)" fill="#fbbebe"/>
      <path id="Path_19006" data-name="Path 19006" d="M721.124,636.389c1.573,2.936,3.325,5.768,4.746,8.809.823,1.767,1.537,3.581,2.455,5.3,1,1.872,2.234,3.613,3.283,5.459,2.622,4.667,4.107,9.931,5.465,15.117a30.1,30.1,0,0,0,10.762-3.786,6.768,6.768,0,0,0,.645-.414,7.613,7.613,0,0,0,2.171-2.4c-1.254-4.719-2.538-9.559-5.093-13.749-.834-1.363-1.788-2.622-2.622-3.99-2.481-3.906-2.995-8.83-5.832-12.485a2.139,2.139,0,0,1,0-2.538c.325-.425.85-.828.75-1.358-.073-.383-.472-.729-.32-1.085.073-.173.252-.267.388-.393.482-.44.42-1.2.467-1.851a9.072,9.072,0,0,1,2.056-4.462,2.8,2.8,0,0,1,.755-.813c.257-.157.561-.231.818-.388.9-.561.839-1.882,1.274-2.863.566-1.29,1.993-1.945,2.932-2.989,1.191-1.332,1.49-3.183,2.748-4.347a3.73,3.73,0,0,1,.414-.336,20.814,20.814,0,0,0-.739,6.088c-.121,7.047,1.641,14.336.818,21.336-.65,5.548,2.769,11.085,7.615,13.864a36.862,36.862,0,0,0,5.932,2.5c3.031,1.075,6.063,2.181,9.037,3.424,2.1.87,4.2,1.814,6.22,2.816a76.561,76.561,0,0,1,7.343,4.069c2.921,1.856,5.848,3.744,7.919,6.518a7.106,7.106,0,0,0,5.119-2.816,19.744,19.744,0,0,0,2.8-5.3,14.728,14.728,0,0,0,1.332-5,1,1,0,0,0-.556-.9l-13.878-7.341-2.622-1.374c-5.68-3.015-11.538-5.8-17.25-8.815-.383.11-.7-.325-.808-.7s-.189-.849-.551-1.017c-.184-.084-.414-.084-.525-.231a.63.63,0,0,1-.094-.461c.184-2.748,2.166-5.275,1.767-8-.168-1.164-.771-2.307-.524-3.445a16,16,0,0,1,1.049-2.181c.677-1.678,0-3.671.745-5.333a12.238,12.238,0,0,0,1-3.4,23,23,0,0,1,2.124-6.733,12.154,12.154,0,0,1,1.951-2.957c.42-.446.886-.849,1.28-1.311a10.944,10.944,0,0,0,2-5.181c.619-3.34,1.049-6.817.273-10.115a14.386,14.386,0,0,1-.645-3.4c0-1.526.687-3.314-.372-4.42a3.462,3.462,0,0,0-1.573-.8,47.438,47.438,0,0,0-7.526-1.39l-11.57-1.5a10.637,10.637,0,0,1-3.855-1,7.685,7.685,0,0,1-3.252-4.153c-2.035,1.484-2.8,4.247-4.421,6.167-.792.939-1.767,1.694-2.622,2.554a28.907,28.907,0,0,0-2.906,3.581,63.617,63.617,0,0,0-6.582,10.382c-.9,1.935-1.573,3.954-2.318,5.957-2.827,7.9-7.437,15.4-9.351,23.565-.472,2-1.694,3.8-1.878,5.841C719.078,632.383,720.08,634.48,721.124,636.389Z" transform="translate(-356.713 -325.106)" fill="#434175"/>
      <path id="Path_19007" data-name="Path 19007" d="M836.973,567.722a3.59,3.59,0,0,1,.425,1.709c-.257-1.279-2.019-1.987-2.129-3.251-.052-.582.052-.556.414-.247C836.234,566.39,836.47,567.219,836.973,567.722Z" transform="translate(-411.87 -322.037)" opacity="0.1"/>
      <path id="Path_19008" data-name="Path 19008" d="M827.278,576.568a2.7,2.7,0,0,1,.8,1.185,3.015,3.015,0,0,1,.157,2.061c-.257-.121-.346-.435-.425-.713a4.916,4.916,0,0,0-.524-1.222c-.21-.33-1.17-1.117-1.159-1.479C826.114,575.855,827.021,576.374,827.278,576.568Z" transform="translate(-407.531 -327.003)" opacity="0.1"/>
      <path id="Path_19009" data-name="Path 19009" d="M827.14,492.082a13.231,13.231,0,0,0,2.664,1.772c2.507,1.269,5.281,1.935,7.8,3.146a37.865,37.865,0,0,1,3.619,2.1c2.5,1.573,5,3.146,7.495,4.745a8.261,8.261,0,0,1,1.652,1.253c.9.965.9,2.622,1.72,3.671a4.93,4.93,0,0,0,3.635,1.678,11.8,11.8,0,0,0,4.054-.682,20.054,20.054,0,0,0,2.318-.844,10.737,10.737,0,0,0,2.224-1.269,6.392,6.392,0,0,0,2.622-4.137,8.168,8.168,0,0,0-.446-3.377,13.155,13.155,0,0,0-.8-2.05,7.945,7.945,0,0,0-.64-1.075c-1.72-2.438-4.752-3.587-7.684-4.158-1.547-.3-3.121-.482-4.673-.745a16.711,16.711,0,0,1-2.26.346,21.242,21.242,0,0,1-7.038-1.106l-2.507-.692c-1.253-.346-1.883-1.861-3.147-2.129a4.258,4.258,0,0,0-1.7.089,23.494,23.494,0,0,0-7.448,2.433A11.183,11.183,0,0,0,827.14,492.082Z" transform="translate(-408.011 -285.3)" opacity="0.1"/>
      <path id="Path_19010" data-name="Path 19010" d="M807.335,431.36c.32,3.057,2.9,5.3,4.474,7.939.766,1.285,1.3,2.69,1.988,4.017a39.327,39.327,0,0,0,2.622,4.195l2.806,4.074a42.162,42.162,0,0,0,5.428,6.817c3.671.624,6.766,3.356,10.253,4.683,2.8,1.049,5.837,1.206,8.769,1.778s5.963,1.715,7.684,4.158a10.922,10.922,0,0,1,1.437,3.146,8.148,8.148,0,0,1,.446,3.372,6.392,6.392,0,0,1-2.622,4.142,14.535,14.535,0,0,1-4.537,2.1,11.927,11.927,0,0,1-4.054.682,4.951,4.951,0,0,1-3.64-1.678c-.818-1.049-.813-2.721-1.715-3.671a8.263,8.263,0,0,0-1.652-1.253l-7.495-4.719a37.864,37.864,0,0,0-3.619-2.1c-2.523-1.232-5.3-1.9-7.8-3.146s-4.841-3.361-5.334-6.125c-1.526-8.489-7.406-15.647-12.43-22.658.163-.031.115-.409.173-.566a7.342,7.342,0,0,1,3.671-3.712A18.542,18.542,0,0,1,807.335,431.36Z" transform="translate(-394.316 -258.131)" fill="#f86d70"/>
      <path id="Path_19011" data-name="Path 19011" d="M865.978,426.16a4.651,4.651,0,0,1,.525-2.664c.834-1.384,2.575-1.872,4.159-2.2s3.042-.577,4.573-.8a10.545,10.545,0,0,1,3.781-.068c1.71.378,3.147,1.526,4.72,2.234a33.554,33.554,0,0,0,6,1.531,9.219,9.219,0,0,1,5.35,2.895,10.034,10.034,0,0,1,1.631,4.378c2.4,12.915-.184,26.16-.671,39.285-.194,5.107.037,10.566,2.958,14.766l-8.5-.225c-2.177-.058-4.516-.173-6.226-1.515-1.51-1.18-2.224-3.083-2.864-4.882a15.2,15.2,0,0,1-1.091-4.378c-.131-3.083,1.621-6.109,1.049-9.145-.425-2.265-2.1-4.1-3.839-5.584s-3.724-2.779-5.156-4.588c-2.544-3.225-3.031-7.624-2.717-11.72a44.324,44.324,0,0,0,.414-7.3,9.191,9.191,0,0,0-1.925-5.118C866.812,429.448,866.1,428.441,865.978,426.16Z" transform="translate(-426.468 -252.869)" fill="#434175"/>
      <path id="Path_19012" data-name="Path 19012" d="M866.5,424.426c.818-1.363,2.518-1.856,4.075-2.176a4.023,4.023,0,0,0-2.019,1.573,4.719,4.719,0,0,0-.524,2.669c.115,2.281.823,3.288,2.177,4.9a9.144,9.144,0,0,1,1.93,5.118,44.931,44.931,0,0,1-.414,7.3c-.32,4.09.168,8.495,2.717,11.72,1.427,1.809,3.393,3.1,5.156,4.588s3.414,3.319,3.839,5.584c.566,3.031-1.185,6.062-1.049,9.145a14.946,14.946,0,0,0,1.086,4.373c.645,1.8,1.358,3.707,2.864,4.887,1.71,1.342,4.054,1.458,6.231,1.515l6.021.157c.131.22.273.441.42.655l-8.5-.225c-2.177-.058-4.516-.173-6.226-1.515-1.51-1.18-2.224-3.083-2.864-4.882a15.206,15.206,0,0,1-1.091-4.378c-.131-3.083,1.621-6.109,1.049-9.145-.425-2.265-2.1-4.1-3.839-5.585s-3.724-2.779-5.156-4.588c-2.544-3.225-3.031-7.624-2.717-11.72a44.331,44.331,0,0,0,.414-7.3,9.192,9.192,0,0,0-1.925-5.118c-1.353-1.615-2.061-2.622-2.182-4.9A4.65,4.65,0,0,1,866.5,424.426Z" transform="translate(-426.465 -253.798)" opacity="0.1"/>
      <path id="Path_19013" data-name="Path 19013" d="M745.22,657.3l15.619,38.043a7.615,7.615,0,0,0,2.171-2.4c-1.253-4.719-2.539-9.559-5.093-13.749-.834-1.363-1.788-2.622-2.622-3.99-2.481-3.906-2.995-8.83-5.832-12.485a2.139,2.139,0,0,1,0-2.538c.325-.425.85-.828.75-1.358-.073-.383-.472-.729-.32-1.085.073-.173.252-.267.388-.393.483-.44.42-1.2.467-1.851a9.072,9.072,0,0,1,2.056-4.462,2.8,2.8,0,0,1,.755-.813c.257-.157.561-.231.818-.388.9-.561.839-1.883,1.274-2.863.566-1.29,1.993-1.945,2.932-2.989,1.191-1.332,1.49-3.183,2.748-4.347l.11-.273-1.18-7.341Z" transform="translate(-369.056 -353.573)" opacity="0.1"/>
      <ellipse id="Ellipse_1950" data-name="Ellipse 1950" cx="17.806" cy="3.424" rx="17.806" ry="3.424" transform="translate(494.632 342.315)" fill="#9f6e65"/>
      <ellipse id="Ellipse_1951" data-name="Ellipse 1951" cx="2.072" cy="2.711" rx="2.072" ry="2.711" transform="translate(510.665 341.57)" fill="#3f3d56"/>
      <ellipse id="Ellipse_1952" data-name="Ellipse 1952" cx="2.072" cy="2.711" rx="2.072" ry="2.711" transform="translate(510.665 338.256)" fill="#3f3d56"/>
      <ellipse id="Ellipse_1953" data-name="Ellipse 1953" cx="2.072" cy="2.711" rx="2.072" ry="2.711" transform="translate(510.665 334.937)" fill="#3f3d56"/>
      <ellipse id="Ellipse_1954" data-name="Ellipse 1954" cx="2.072" cy="2.711" rx="2.072" ry="2.711" transform="translate(510.665 331.623)" fill="#3f3d56"/>
      <ellipse id="Ellipse_1955" data-name="Ellipse 1955" cx="2.072" cy="2.711" rx="2.072" ry="2.711" transform="translate(510.665 328.304)" fill="#3f3d56"/>
      <ellipse id="Ellipse_1956" data-name="Ellipse 1956" cx="2.072" cy="2.711" rx="2.072" ry="2.711" transform="translate(510.665 324.99)" fill="#3f3d56"/>
      <ellipse id="Ellipse_1957" data-name="Ellipse 1957" cx="2.072" cy="2.711" rx="2.072" ry="2.711" transform="translate(510.665 321.676)" fill="#3f3d56"/>
      <path id="Path_19014" data-name="Path 19014" d="M988.894,661.743a9.858,9.858,0,0,1-.771-1.138l5.444-.9-5.89.047a9.961,9.961,0,0,1-.189-7.865l7.9,4.1-7.29-5.354a9.933,9.933,0,1,1,16.4,11.111,9.628,9.628,0,0,1,1.133,1.809l-7.07,3.671,7.542-2.527a10,10,0,0,1,.525,3.183,9.884,9.884,0,0,1-2.129,6.14,9.927,9.927,0,1,1-15.608,0,9.93,9.93,0,0,1,0-12.275Z" transform="translate(-483.919 -360.051)" fill="#9f6e65"/>
      <path id="Path_19015" data-name="Path 19015" d="M1006.632,687.918a9.883,9.883,0,0,1-2.129,6.14,9.927,9.927,0,1,1-15.608,0C987.562,692.37,1006.632,686.806,1006.632,687.918Z" transform="translate(-483.919 -380.091)" opacity="0.1"/>
      <ellipse id="Ellipse_1958" data-name="Ellipse 1958" cx="11.974" cy="2.302" rx="11.974" ry="2.302" transform="translate(535.143 305.41)" fill="#9f6e65"/>
      <ellipse id="Ellipse_1959" data-name="Ellipse 1959" cx="1.395" cy="1.825" rx="1.395" ry="1.825" transform="translate(545.926 304.912)" fill="#3f3d56"/>
      <ellipse id="Ellipse_1960" data-name="Ellipse 1960" cx="1.395" cy="1.825" rx="1.395" ry="1.825" transform="translate(545.926 302.683)" fill="#3f3d56"/>
      <ellipse id="Ellipse_1961" data-name="Ellipse 1961" cx="1.395" cy="1.825" rx="1.395" ry="1.825" transform="translate(545.926 300.449)" fill="#3f3d56"/>
      <ellipse id="Ellipse_1962" data-name="Ellipse 1962" cx="1.395" cy="1.825" rx="1.395" ry="1.825" transform="translate(545.926 298.221)" fill="#3f3d56"/>
      <ellipse id="Ellipse_1963" data-name="Ellipse 1963" cx="1.395" cy="1.825" rx="1.395" ry="1.825" transform="translate(545.926 295.992)" fill="#3f3d56"/>
      <ellipse id="Ellipse_1964" data-name="Ellipse 1964" cx="1.395" cy="1.825" rx="1.395" ry="1.825" transform="translate(545.926 293.764)" fill="#3f3d56"/>
      <ellipse id="Ellipse_1965" data-name="Ellipse 1965" cx="1.395" cy="1.825" rx="1.395" ry="1.825" transform="translate(545.926 291.53)" fill="#3f3d56"/>
      <path id="Path_19016" data-name="Path 19016" d="M1060.3,621.515a5.772,5.772,0,0,1-.524-.766l3.671-.6-3.96.031a6.617,6.617,0,0,1-.614-2.79,6.7,6.7,0,0,1,.483-2.5l5.318,2.758-4.9-3.6a6.676,6.676,0,1,1,11.014,7.472,6.579,6.579,0,0,1,.76,1.216l-4.752,2.47,5.067-1.7a6.7,6.7,0,0,1-1.075,6.292,6.681,6.681,0,1,1-10.489,0,6.664,6.664,0,0,1,0-8.253Z" transform="translate(-518.2 -343.414)" fill="#9f6e65"/>
      <path id="Path_19017" data-name="Path 19017" d="M1072.233,639.141a6.669,6.669,0,0,1-1.426,4.127,6.681,6.681,0,1,1-10.49,0C1059.415,642.129,1072.233,638.391,1072.233,639.141Z" transform="translate(-518.209 -356.913)" opacity="0.1"/>
    </g>
  </g>
</svg>
