<svg id="undraw_server_status_5pbv" xmlns="http://www.w3.org/2000/svg" xmlns:xlink="http://www.w3.org/1999/xlink" width="630" height="330" viewBox="0 0 700 514">
  <defs>
    <linearGradient id="linear-gradient" x1="16.614" y1="1" x2="16.614" gradientUnits="objectBoundingBox">
      <stop offset="0" stop-color="gray" stop-opacity="0.251"/>
      <stop offset="0.54" stop-color="gray" stop-opacity="0.122"/>
      <stop offset="1" stop-color="gray" stop-opacity="0.102"/>
    </linearGradient>
  </defs>
  <path id="Path_18663" data-name="Path 18663" d="M309.526,548.816c23.152-9.12,59.494-10.98,92.573-10.249,103.907,2.278,197.7,24.443,278.827,49.517,29.372,9.08,58.287,18.864,77.353,31.364,38.809,25.446,27.3,60.7-26.666,81.659-18.363,7.134-40.62,12.62-63.473,17.442-40.64,8.622-84.462,15.536-130.58,17.529-32.88,1.4-66.172.259-98.86-1.7-91.34-5.493-180.988-17.562-256.133-38.305-32.96-9.08-64.023-20.371-77.592-35.07s-4.894-33.31,28.762-42.012c13.927-3.593,30.559-5.221,46.854-6.742,23.981-2.245,48.346-4.464,69.985-9.027,22.356-4.716,48.823-13.836,44.4-24.27C290.208,567.753,286.4,557.923,309.526,548.816Z" transform="translate(-81.201 -222.7)" fill="#b5948e" opacity="0.1"/>
  <path id="Path_18664" data-name="Path 18664" d="M574.337,92.808,571.81,239.6s91.466,0,169.283,25.307l1.519-148.333S617.795,86.737,574.337,92.808Z" transform="translate(-240.506 -72.795)" opacity="0.1"/>
  <path id="Path_18665" data-name="Path 18665" d="M572.337,89.808,569.81,236.6s91.466,0,169.283,25.307l1.519-148.333S615.795,83.737,572.337,89.808Z" transform="translate(-239.832 -71.788)" fill="#f5f5fb"/>
  <path id="Path_18666" data-name="Path 18666" d="M431.415,92.638l2.527,146.792s-91.466,0-169.283,25.307L263.14,116.444S387.957,86.568,431.415,92.638Z" transform="translate(-136.539 -72.739)" opacity="0.1"/>
  <path id="Path_18667" data-name="Path 18667" d="M433.415,89.638l2.527,146.792s-91.466,0-169.283,25.307L265.14,113.444S389.957,83.568,433.415,89.638Z" transform="translate(-137.213 -71.731)" fill="#f5f5fb"/>
  <path id="Path_18668" data-name="Path 18668" d="M862.65,160.51V305.767s29.843-3.54,92.474,73.894L960.688,234.4S895.5,164.057,862.65,160.51Z" transform="translate(-338.467 -95.802)" opacity="0.1"/>
  <path id="Path_18669" data-name="Path 18669" d="M860.65,158.51V303.767s29.843-3.54,92.474,73.894L958.688,232.4S893.5,162.057,860.65,158.51Z" transform="translate(-337.793 -95.131)" fill="#f5f5fb"/>
  <path id="Path_18670" data-name="Path 18670" d="M182.511,167V312.264s-29.843-3.54-92.474,73.894L84.48,240.9S149.664,170.554,182.511,167Z" transform="translate(-76.363 -97.981)" opacity="0.1"/>
  <path id="Path_18671" data-name="Path 18671" d="M184.511,164V309.264s-29.843-3.54-92.474,73.894L86.48,237.9S151.664,167.554,184.511,164Z" transform="translate(-77.036 -96.974)" fill="#f5f5fb"/>
  <path id="Path_18672" data-name="Path 18672" d="M632.18,532.209c0,4.948-31.375,33.543-102.793,33.543S419.3,538.154,419.3,533.206s40,7.306,111.414,7.306S632.18,527.254,632.18,532.209Z" transform="translate(-189.137 -220.241)" fill="#f7f7fd"/>
  <ellipse id="Ellipse_1889" data-name="Ellipse 1889" cx="7.6" cy="1.043" rx="7.6" ry="1.043" transform="translate(202.037 241.728)" fill="#b5948e" opacity="0.1"/>
  <ellipse id="Ellipse_1890" data-name="Ellipse 1890" cx="7.6" cy="1.043" rx="7.6" ry="1.043" transform="translate(172.931 244.684)" fill="#b5948e" opacity="0.1"/>
  <ellipse id="Ellipse_1891" data-name="Ellipse 1891" cx="7.6" cy="1.043" rx="7.6" ry="1.043" transform="translate(138.657 240.685)" fill="#b5948e" opacity="0.1"/>
  <ellipse id="Ellipse_1892" data-name="Ellipse 1892" cx="5.398" cy="0.744" rx="5.398" ry="0.744" transform="translate(186.784 253.398)" fill="#b5948e" opacity="0.1"/>
  <ellipse id="Ellipse_1893" data-name="Ellipse 1893" cx="5.398" cy="0.744" rx="5.398" ry="0.744" transform="translate(156.577 252.654)" fill="#b5948e" opacity="0.1"/>
  <path id="Path_18673" data-name="Path 18673" d="M327.805,403.479s10.651-34.984-1.671-48.992c-9.218-10.481-19.7-9.253-24.339-7.924a8.664,8.664,0,0,0-5.591,4.649c-1.638,3.54-1.326,9.3,10.226,15.994,19.358,11.225,20.559,26.628,20.559,26.628Z" transform="translate(-147.434 -157.985)" fill="#b5948e"/>
  <path id="Path_18674" data-name="Path 18674" d="M307.48,354.46s31.408,9.837,24.365,51.962" transform="translate(-151.474 -160.928)" fill="none" stroke="#565987" stroke-miterlimit="10" stroke-width="1"/>
  <path id="Path_18675" data-name="Path 18675" d="M333.5,359.77s-4.324,2.916-2.951,7.306" transform="translate(-159.155 -162.711)" fill="none" stroke="#565987" stroke-miterlimit="10" stroke-width="1"/>
  <path id="Path_18676" data-name="Path 18676" d="M312.23,362.842s2.653-2.7,5.856-1.209" transform="translate(-153.074 -163.186)" fill="none" stroke="#565987" stroke-miterlimit="10" stroke-width="1"/>
  <path id="Path_18677" data-name="Path 18677" d="M331,383.62s4.642-2.358,5.843.6" transform="translate(-159.396 -170.42)" fill="none" stroke="#565987" stroke-miterlimit="10" stroke-width="1"/>
  <path id="Path_18678" data-name="Path 18678" d="M346.468,391.471s-3.488-.279-3.548,1.388" transform="translate(-163.411 -173.349)" fill="none" stroke="#565987" stroke-miterlimit="10" stroke-width="1"/>
  <path id="Path_18679" data-name="Path 18679" d="M335.3,420.534s-12.481-25.426-15.916-24.868c-1.625.266-2.374,1.866-2.719,3.48a10.244,10.244,0,0,0,.663,6.19C319.125,409.4,323.88,417.139,335.3,420.534Z" transform="translate(-154.497 -174.761)" fill="#b5948e"/>
  <path id="Path_18680" data-name="Path 18680" d="M321,402.93s13.1,19.023,15.631,19.86" transform="translate(-156.028 -177.203)" fill="none" stroke="#565987" stroke-miterlimit="10" stroke-width="1"/>
  <line id="Line_5990" data-name="Line 5990" x2="3.057" transform="translate(163.785 228.696)" fill="none" stroke="#565987" stroke-miterlimit="10" stroke-width="1"/>
  <line id="Line_5991" data-name="Line 5991" x2="4.788" y2="0.206" transform="translate(167.446 235.657)" fill="none" stroke="#565987" stroke-miterlimit="10" stroke-width="1"/>
  <line id="Line_5992" data-name="Line 5992" x1="0.524" y2="2.497" transform="translate(169.84 230.091)" fill="none" stroke="#565987" stroke-miterlimit="10" stroke-width="1"/>
  <line id="Line_5993" data-name="Line 5993" x1="0.093" y2="2.272" transform="translate(175.364 237.696)" fill="none" stroke="#565987" stroke-miterlimit="10" stroke-width="1"/>
  <path id="Path_18681" data-name="Path 18681" d="M344.31,420.534s12.474-25.426,15.916-24.868c1.631.266,2.381,1.866,2.719,3.48a10.29,10.29,0,0,1-.663,6.19C360.485,409.4,355.73,417.139,344.31,420.534Z" transform="translate(-163.879 -174.761)" fill="#b5948e"/>
  <path id="Path_18682" data-name="Path 18682" d="M360.215,402.93s-13.1,19.023-15.625,19.86" transform="translate(-163.973 -177.203)" fill="none" stroke="#565987" stroke-miterlimit="10" stroke-width="1"/>
  <line id="Line_5994" data-name="Line 5994" x1="3.057" transform="translate(194.391 228.696)" fill="none" stroke="#565987" stroke-miterlimit="10" stroke-width="1"/>
  <line id="Line_5995" data-name="Line 5995" x1="4.795" y2="0.206" transform="translate(188.993 235.657)" fill="none" stroke="#565987" stroke-miterlimit="10" stroke-width="1"/>
  <line id="Line_5996" data-name="Line 5996" x2="0.524" y2="2.497" transform="translate(190.87 230.091)" fill="none" stroke="#565987" stroke-miterlimit="10" stroke-width="1"/>
  <line id="Line_5997" data-name="Line 5997" x2="0.093" y2="2.272" transform="translate(185.776 237.696)" fill="none" stroke="#565987" stroke-miterlimit="10" stroke-width="1"/>
  <path id="Path_18683" data-name="Path 18683" d="M311.624,440.311a2.165,2.165,0,0,1-.71-1.076.944.944,0,0,1,.5-1.089c.451-.179.942.139,1.326.458a1.75,1.75,0,0,0,1.273.618,1.955,1.955,0,0,1-.6-1.82.838.838,0,0,1,.172-.372c.252-.272.71-.153,1.015.06a3.782,3.782,0,0,1,1.233,3.168,5.692,5.692,0,0,0,0-1.328,1.329,1.329,0,0,1,.491-1.156,1.5,1.5,0,0,1,.743-.179,1.55,1.55,0,0,1,1.214.345,1.224,1.224,0,0,1-.046,1.495,4.745,4.745,0,0,1-1.253,1,2.7,2.7,0,0,0-.9.857.624.624,0,0,0-.066.153h-2.719a7.891,7.891,0,0,1-1.671-1.136Z" transform="translate(-152.62 -188.6)" fill="#b5948e"/>
  <path id="Path_18684" data-name="Path 18684" d="M383.323,424.894a2.153,2.153,0,0,1-.71-1.069.95.95,0,0,1,.5-1.1,1.391,1.391,0,0,1,1.326.465,1.717,1.717,0,0,0,1.273.611,1.948,1.948,0,0,1-.6-1.82.745.745,0,0,1,.172-.365c.252-.272.71-.159,1.015.053a3.787,3.787,0,0,1,1.234,3.175,5.742,5.742,0,0,0,0-1.328,1.33,1.33,0,0,1,.491-1.156,1.424,1.424,0,0,1,.743-.173,1.523,1.523,0,0,1,1.214.345,1.21,1.21,0,0,1-.046,1.488,4.744,4.744,0,0,1-1.253,1,2.767,2.767,0,0,0-.9.857.627.627,0,0,0-.066.153h-2.719a7.651,7.651,0,0,1-1.671-1.143Z" transform="translate(-176.77 -183.425)" fill="#b5948e"/>
  <path id="Path_18685" data-name="Path 18685" d="M359.424,440.311a2.166,2.166,0,0,1-.71-1.076.95.95,0,0,1,.5-1.089c.458-.179.942.139,1.326.458a1.756,1.756,0,0,0,1.273.618,1.948,1.948,0,0,1-.6-1.82.757.757,0,0,1,.166-.372c.252-.272.71-.153,1.015.06a3.786,3.786,0,0,1,1.24,3.168,6.1,6.1,0,0,0,0-1.328,1.329,1.329,0,0,1,.491-1.156,1.987,1.987,0,0,1,1.956.166,1.21,1.21,0,0,1-.046,1.494,4.643,4.643,0,0,1-1.253,1,2.827,2.827,0,0,0-.9.857,1.069,1.069,0,0,0-.066.153h-2.712a7.765,7.765,0,0,1-1.684-1.136Z" transform="translate(-168.72 -188.6)" fill="#b5948e"/>
  <path id="Path_18686" data-name="Path 18686" d="M290.844,410.89s-1.015,1.328.471,3.321,2.719,3.713,2.222,4.968c0,0-2.248-3.74-4.072-3.793S288.855,413.135,290.844,410.89Z" transform="translate(-145.104 -179.876)" fill="#b5948e"/>
  <path id="Path_18687" data-name="Path 18687" d="M290.847,410.89a1.567,1.567,0,0,0-.206.418c-1.784,2.092-2.732,4.052-1.021,4.1,1.6.047,3.515,2.909,3.979,3.627a1.225,1.225,0,0,1-.053.166s-2.248-3.74-4.072-3.793S288.857,413.135,290.847,410.89Z" transform="translate(-145.107 -179.876)" opacity="0.1"/>
  <path id="Path_18688" data-name="Path 18688" d="M289.18,413.288c0,.472.053.85.119.85s.113-.379.113-.85-.06-.246-.126-.246S289.18,412.823,289.18,413.288Z" transform="translate(-145.31 -180.581)" fill="#ffd037"/>
  <path id="Path_18689" data-name="Path 18689" d="M288.08,414.128c.411.226.769.359.8.3s-.279-.286-.663-.5-.252-.066-.279,0S287.669,413.936,288.08,414.128Z" transform="translate(-144.86 -180.856)" fill="#ffd037"/>
  <path id="Path_18690" data-name="Path 18690" d="M298.719,410.89s1.021,1.328-.471,3.321-2.712,3.713-2.215,4.968c0,0,2.242-3.74,4.072-3.793S300.728,413.135,298.719,410.89Z" transform="translate(-147.58 -179.876)" fill="#b5948e"/>
  <path id="Path_18691" data-name="Path 18691" d="M298.742,410.89a1.568,1.568,0,0,1,.206.418c1.784,2.092,2.732,4.052,1.021,4.1-1.6.047-3.508,2.909-3.979,3.627a1.223,1.223,0,0,0,.053.166s2.242-3.74,4.072-3.793S300.752,413.135,298.742,410.89Z" transform="translate(-147.604 -179.876)" opacity="0.1"/>
  <path id="Path_18692" data-name="Path 18692" d="M302.882,413.288c0,.472-.046.85-.113.85s-.119-.379-.119-.85.066-.246.133-.246S302.882,412.823,302.882,413.288Z" transform="translate(-149.847 -180.581)" fill="#ffd037"/>
  <path id="Path_18693" data-name="Path 18693" d="M303.595,414.128c-.411.226-.769.359-.8.3s.272-.286.663-.5.252-.066.285,0S303.986,413.936,303.595,414.128Z" transform="translate(-149.897 -180.856)" fill="#ffd037"/>
  <path id="Path_18694" data-name="Path 18694" d="M297.13,422.365s-2.852-.086-3.707-.7-4.377-1.328-4.589-.365-4.278,4.882-1.068,4.909,7.467-.5,8.323-1.023S297.13,422.365,297.13,422.365Z" transform="translate(-144.419 -183.214)" fill="#a8a8a8"/>
  <path id="Path_18695" data-name="Path 18695" d="M287.713,426.637c3.21,0,7.467-.5,8.323-1.023.663-.4.909-1.827.995-2.484h.1s-.186,2.3-1.041,2.823-5.106,1.049-8.323,1.023c-.922,0-1.247-.339-1.227-.83C286.666,426.451,287.024,426.63,287.713,426.637Z" transform="translate(-144.42 -183.986)" opacity="0.2"/>
  <ellipse id="Ellipse_1894" data-name="Ellipse 1894" cx="23.026" cy="3.407" rx="23.026" ry="3.407" transform="translate(106.407 326.302)" fill="#b5948e" opacity="0.1"/>
  <ellipse id="Ellipse_1895" data-name="Ellipse 1895" cx="23.026" cy="3.407" rx="23.026" ry="3.407" transform="translate(170.722 354.518)" fill="#b5948e" opacity="0.1"/>
  <ellipse id="Ellipse_1896" data-name="Ellipse 1896" cx="23.026" cy="3.407" rx="23.026" ry="3.407" transform="translate(76.113 386.62)" fill="#b5948e" opacity="0.1"/>
  <ellipse id="Ellipse_1897" data-name="Ellipse 1897" cx="23.026" cy="3.407" rx="23.026" ry="3.407" transform="translate(563.981 457.133)" fill="#b5948e" opacity="0.1"/>
  <ellipse id="Ellipse_1898" data-name="Ellipse 1898" cx="15.246" cy="1.707" rx="15.246" ry="1.707" transform="translate(310.434 380.429)" fill="#b5948e" opacity="0.1"/>
  <ellipse id="Ellipse_1899" data-name="Ellipse 1899" cx="15.246" cy="1.707" rx="15.246" ry="1.707" transform="translate(528.62 292.753)" fill="#b5948e" opacity="0.1"/>
  <ellipse id="Ellipse_1900" data-name="Ellipse 1900" cx="15.246" cy="1.707" rx="15.246" ry="1.707" transform="translate(409.904 422.275)" fill="#b5948e" opacity="0.1"/>
  <ellipse id="Ellipse_1901" data-name="Ellipse 1901" cx="15.246" cy="1.707" rx="15.246" ry="1.707" transform="translate(278.303 411.01)" fill="#b5948e" opacity="0.1"/>
  <ellipse id="Ellipse_1902" data-name="Ellipse 1902" cx="15.246" cy="1.707" rx="15.246" ry="1.707" transform="translate(154.972 406.579)" fill="#b5948e" opacity="0.1"/>
  <ellipse id="Ellipse_1903" data-name="Ellipse 1903" cx="15.246" cy="1.707" rx="15.246" ry="1.707" transform="translate(122.834 437.16)" fill="#b5948e" opacity="0.1"/>
  <g id="Group_7737" data-name="Group 7737" transform="translate(234.918 113.986)" opacity="0.1">
    <ellipse id="Ellipse_1904" data-name="Ellipse 1904" cx="100.883" cy="45.094" rx="100.883" ry="45.094" transform="translate(1.625)"/>
    <path id="Path_18696" data-name="Path 18696" d="M631.611,326.551c-4.463,23.513-48.565,41.972-102.322,41.972-54.228,0-98.635-18.784-102.441-42.583h-.378v38.319c17.733,18.558,56.994,31.464,102.567,31.464s84.834-12.906,102.574-31.464Z" transform="translate(-426.47 -265.337)"/>
    <path id="Path_18697" data-name="Path 18697" d="M631.611,396.748c-4.463,23.507-48.565,41.972-102.322,41.972-54.228,0-98.635-18.784-102.441-42.589h-.378v38.325c17.733,18.558,56.994,31.457,102.567,31.457s84.834-12.9,102.574-31.457Z" transform="translate(-426.47 -288.906)"/>
    <path id="Path_18698" data-name="Path 18698" d="M631.611,473.961c-4.463,23.513-48.565,41.972-102.322,41.972-54.228,0-98.635-18.777-102.441-42.583h-.378v41.327a6.375,6.375,0,0,0,2.043,4.689c18.569,17.077,56.629,23.766,100.525,23.766s81.936-6.689,100.531-23.766a6.374,6.374,0,0,0,2.043-4.689Z" transform="translate(-426.47 -314.835)"/>
  </g>
  <ellipse id="Ellipse_1905" data-name="Ellipse 1905" cx="100.883" cy="45.094" rx="100.883" ry="45.094" transform="translate(236.543 111.329)" fill="#b5948e"/>
  <path id="Path_18699" data-name="Path 18699" d="M631.611,322.551c-4.463,23.513-48.565,41.972-102.322,41.972-54.228,0-98.635-18.784-102.441-42.583h-.378v38.319c17.733,18.558,56.994,31.464,102.567,31.464s84.834-12.906,102.574-31.464Z" transform="translate(-191.552 -150.008)" fill="#b5948e"/>
  <path id="Path_18700" data-name="Path 18700" d="M631.611,392.748c-4.463,23.507-48.565,41.972-102.322,41.972-54.228,0-98.635-18.784-102.441-42.589h-.378v38.325c17.733,18.558,56.994,31.457,102.567,31.457s84.834-12.9,102.574-31.457Z" transform="translate(-191.552 -173.577)" fill="#b5948e"/>
  <path id="Path_18701" data-name="Path 18701" d="M631.611,469.961c-4.463,23.513-48.565,41.972-102.322,41.972-54.228,0-98.635-18.777-102.441-42.583h-.378v41.327a6.374,6.374,0,0,0,2.043,4.689c18.569,17.077,56.629,23.766,100.525,23.766s81.936-6.689,100.531-23.766a6.374,6.374,0,0,0,2.043-4.689Z" transform="translate(-191.552 -199.506)" fill="#b5948e"/>
  <ellipse id="Ellipse_1906" data-name="Ellipse 1906" cx="37.801" cy="6.815" rx="37.801" ry="6.815" transform="translate(448.329 372.618)" fill="#b5948e" opacity="0.1"/>
  <path id="Path_18702" data-name="Path 18702" d="M772.734,453.956c1.91,1.129,4.908,1.866,8.681-.565l-.033,5.387c.265,3.693,4.828,17.157,4.828,17.157l3.216,11.072a86.525,86.525,0,0,1,3.535,24.1,23.109,23.109,0,0,0,1.028,7.585c1.718,4.65-.663,10.627-1.7,12.833a53.054,53.054,0,0,1-5.305,1.494,3.857,3.857,0,0,0-.471.146v-.033s-4.828,1.92-6.977,1.654c-1.6-.193-2.6,1.807-1.326,3.275a9.853,9.853,0,0,1-3.21.425c-2.149-.266-3.223,3.427.8,4.483s26.832,0,26.832,0a3.236,3.236,0,0,0,1.711-3.573l2.852-.12s4.026-1.847,0-6.861l-.219.159-.856-2.537v-3.421s5.1-24.576,3.488-27.452-2.467-17.715-2.467-17.715l.564-16.074c1.452-3,2.2-7.718,2.573-11.4a23.948,23.948,0,0,0,1.028-5.407c.066-.87.119-1.773.153-2.717a18.141,18.141,0,0,0-.982-6.084,61.136,61.136,0,0,1,6.081-7.639,7.858,7.858,0,0,0,2.421-6.861l-1.326-8.974-3.223-15.277c.4-4.244-.478-6.689-1.459-8.07.232-1.375.451-2.743.617-4.125a52.953,52.953,0,0,0-.942-17.934,12.127,12.127,0,0,0-2.54-5.706c-1.625-1.767-4.264-2.836-4.874-5.141a13.741,13.741,0,0,0-.371-1.74c-.59-1.508-2.447-2.059-4.079-2.258-2.9-.352-7.1-.618-9.895.525a12,12,0,0,0-5.73,5.327,4.582,4.582,0,0,0-.663,3.288,4.387,4.387,0,0,0,.458,1.129,10.227,10.227,0,0,0,5.929,13.085c.066.206.126.405.172.6a10.257,10.257,0,0,1,.265,1.441c-.053.93-.113,1.866-.152,2.8l-.1.379a69.687,69.687,0,0,0-6.745,3.441c1.6,2.378-.272,12.408-.272,12.408-4.026,2.371-8.044,8.442-3.754,14.779a15.834,15.834,0,0,1,1.877,13.191l-.663,10.322h0l-.133,2.066h.047l-.047.784h.113v.844a12.51,12.51,0,0,0-6.28,4.683,16.56,16.56,0,0,1-2.805,3.447,2.074,2.074,0,0,0,.332,3.381Zm32.4-27.419a9.825,9.825,0,0,1,.955-5.194h1.9a12.38,12.38,0,0,0,.232,1.249C808.758,424.949,806.583,426.059,805.13,426.537Z" transform="translate(-307.826 -161.356)" fill="url(#linear-gradient)"/>
  <path id="Path_18703" data-name="Path 18703" d="M812.037,615.3l1.035,3.1-3.356,3.361-11.1,2.617-8-.777.517-2.843h0a3.431,3.431,0,0,1,2.54-2.511c3.316-.771,9.563-2.537,10.883-4.988Z" transform="translate(-314.202 -247.829)" fill="#db8b8b"/>
  <path id="Path_18704" data-name="Path 18704" d="M812.037,615.3l1.035,3.1-3.356,3.361-11.1,2.617-8-.777.517-2.843h0a3.431,3.431,0,0,1,2.54-2.511c3.316-.771,9.563-2.537,10.883-4.988Z" transform="translate(-314.202 -247.829)" opacity="0.1"/>
  <path id="Path_18705" data-name="Path 18705" d="M790.156,625l1.552-2.066-1.552-2.4s-4.642,1.88-6.711,1.621-3.1,3.361.776,4.4,25.818,0,25.818,0,3.873-1.813,0-6.729l-3.356,2.591s-5.683,3.1-8.522,2.584Z" transform="translate(-311.169 -250.035)" fill="#c17174"/>
  <path id="Path_18706" data-name="Path 18706" d="M784,629.012l8,.777,11.1-2.59,3.356-3.361-.272-.817-.385-1.156-.378-1.129-7.5-2.066a4.645,4.645,0,0,1-1.519,1.521c-2.434,1.667-6.8,2.869-9.364,3.467a2.533,2.533,0,0,0-.318.1,3.315,3.315,0,0,0-1.326.8,3.39,3.39,0,0,0-.915,1.607Z" transform="translate(-311.976 -249.645)" fill="#db8b8b"/>
  <path id="Path_18707" data-name="Path 18707" d="M784,631.211l8,.777,11.1-2.59,3.356-3.361-.272-.817-3.084,2.371s-5.683,3.1-8.522,2.584h-8.011l1.552-2.066-1.393-2.152a3.315,3.315,0,0,0-1.326.8,3.389,3.389,0,0,0-.915,1.607Z" transform="translate(-311.976 -251.845)" opacity="0.1"/>
  <path id="Path_18708" data-name="Path 18708" d="M783.536,630.458l1.552-2.066-1.552-2.4s-4.642,1.88-6.711,1.621-3.1,3.361.776,4.4,25.818,0,25.818,0,3.873-1.813,0-6.722l-3.356,2.584s-5.683,3.1-8.522,2.584Z" transform="translate(-308.939 -251.868)" fill="#c17174"/>
  <path id="Path_18709" data-name="Path 18709" d="M797.61,400.343s12.395,1.328,10.611-3.879a9.253,9.253,0,0,1-.385-4.57,12.59,12.59,0,0,1,2.188-5.254l-11.619,1.807a14.534,14.534,0,0,1,1.578,3.739C801.344,397.673,797.61,400.343,797.61,400.343Z" transform="translate(-316.56 -171.733)" fill="#db8b8b"/>
  <path id="Path_18710" data-name="Path 18710" d="M821.921,496s-.259,11.119-2.838,16.552l-.517,15.775s.769,14.48,2.321,17.323-3.356,26.894-3.356,26.894v4.138s-8.263,3.1-10.611-.518l2.321-30.773-1.035-42.663Z" transform="translate(-319.696 -208.455)" fill="#474463"/>
  <path id="Path_18711" data-name="Path 18711" d="M821.921,496s-.259,11.119-2.838,16.552l-.517,15.775s.769,14.48,2.321,17.323-3.356,26.894-3.356,26.894v4.138s-8.263,3.1-10.611-.518l2.321-30.773-1.035-42.663Z" transform="translate(-319.696 -208.455)" opacity="0.1"/>
  <path id="Path_18712" data-name="Path 18712" d="M831.439,442.31l1.552,4.138,1.326,8.788a7.812,7.812,0,0,1-2.328,6.728c-3.1,3.1-7.229,9.565-7.229,9.565l-4.9-14.739s4.9-.777,4.125-4.138-.511-9.565-.511-9.565Z" transform="translate(-324.054 -190.426)" fill="#ff748e"/>
  <path id="Path_18713" data-name="Path 18713" d="M831.509,442.22l1.545,4.138,1.326,8.794a7.779,7.779,0,0,1-2.321,6.722c-3.1,3.1-7.229,9.571-7.229,9.571l-4.941-14.759s4.908-.777,4.132-4.138-.517-9.571-.517-9.571Z" transform="translate(-324.064 -190.396)" opacity="0.05"/>
  <path id="Path_18714" data-name="Path 18714" d="M802.72,620.218c3.316,5.221,8.469,2.258,9.384,1.674l-.378-1.129-7.494-2.092A4.646,4.646,0,0,1,802.72,620.218Z" transform="translate(-318.281 -249.645)" opacity="0.1"/>
  <path id="Path_18715" data-name="Path 18715" d="M787.1,496.711c.259,3.62,4.642,16.8,4.642,16.8l3.1,10.853a86.736,86.736,0,0,1,3.4,23.606,23.086,23.086,0,0,0,.988,7.432c2.069,5.692-2.062,13.444-2.062,13.444,3.614,6.469,9.808,2.072,9.808,2.072v-4.138s4.908-22.5,3.614-26.894-1.8-16.287-1.8-16.287V502.137a24.374,24.374,0,0,0,7.083-15.436c.06-.85.113-1.74.146-2.657.206-5.832-3.78-12.673-5.305-15.111-.371-.591-.61-.923-.61-.923l-22.793,9.06h-.053v2.849Z" transform="translate(-313.02 -199.056)" fill="#474463"/>
  <path id="Path_18716" data-name="Path 18716" d="M798.78,388.447a14.532,14.532,0,0,1,1.578,3.739,10.079,10.079,0,0,0,7.852-.292,12.59,12.59,0,0,1,2.188-5.254Z" transform="translate(-316.954 -171.733)" opacity="0.1"/>
  <ellipse id="Ellipse_1907" data-name="Ellipse 1907" cx="10.067" cy="10.083" rx="10.067" ry="10.083" transform="translate(476.925 200.427)" fill="#db8b8b"/>
  <path id="Path_18717" data-name="Path 18717" d="M787.1,479.886h.113c10.823,2.232,24.418-9.067,24.418-9.067a13.5,13.5,0,0,1-.942-1.926c-.371-.591-.61-.923-.61-.923l-22.793,9.06-.06.9Z" transform="translate(-313.02 -199.043)" opacity="0.1"/>
  <path id="Path_18718" data-name="Path 18718" d="M788.53,403.822s14.457-8.794,19.1-5.174l6.459,8.276s4.132,1.3,3.362,9.6l3.1,15-9.284,2.325s-5.418,5.174-1.028,12.673c0,0-13.688,11.378-24.538,9.047l.776-12.149a15.793,15.793,0,0,0-1.8-12.932c-4.125-6.2-.259-12.155,3.614-14.48C788.272,415.977,790.076,406.147,788.53,403.822Z" transform="translate(-311.605 -175.472)" fill="#ff748e"/>
  <path id="Path_18719" data-name="Path 18719" d="M784.441,486.3s-5.425,1.036-8,5.174a16.136,16.136,0,0,1-2.706,3.381,2.048,2.048,0,0,0,.325,3.268c2.049,1.235,5.385,1.993,9.609-1.481C790.927,490.7,784.441,486.3,784.441,486.3Z" transform="translate(-308.292 -205.197)" fill="#db8b8b"/>
  <path id="Path_18720" data-name="Path 18720" d="M797.831,414.182s5.16-.518,6.453,12.926,3.356,16.552,3.356,16.552,1.293,6.981-1.81,11.119-9.033,12.932-9.033,12.932-6.453,1.807-7.746-4.65l8-15s1.287-5.174-1.81-8.794S789.826,411.591,797.831,414.182Z" transform="translate(-313.677 -180.916)" opacity="0.1"/>
  <path id="Path_18721" data-name="Path 18721" d="M797.067,413.012s5.16-.518,6.453,12.932,3.356,16.546,3.356,16.546,1.326,6.981-1.8,11.119-9.006,12.932-9.006,12.932-6.453,1.807-7.746-4.649l8-15s1.293-5.174-1.81-8.794S789.063,410.428,797.067,413.012Z" transform="translate(-313.431 -180.523)" fill="#ff748e"/>
  <path id="Path_18722" data-name="Path 18722" d="M795.056,427.71s-.511,8.017,1.81,12.414,2.321,10.083,0,13.185" transform="translate(-315.684 -185.524)" opacity="0.1"/>
  <path id="Path_18723" data-name="Path 18723" d="M793.14,410.69s2.063-2.066,8-2.325,8.515-2.066,8.515-2.066" transform="translate(-315.054 -178.335)" opacity="0.1"/>
  <path id="Path_18724" data-name="Path 18724" d="M806.967,360.252c1.572.193,3.362.731,3.926,2.205a14.736,14.736,0,0,1,.365,1.707c.584,2.258,3.124,3.321,4.689,5.035a12.1,12.1,0,0,1,2.44,5.6,52.668,52.668,0,0,1,.909,17.568c-.5,4.284-1.539,8.509-1.824,12.813s.239,8.841,2.586,12.461c1.015,1.554,2.348,2.923,3.064,4.65-1.479,1.2-3.521,1.375-5.431,1.441q-3.316.113-6.665,0a7.067,7.067,0,0,1-3.382-.711,5.217,5.217,0,0,1-1.777-1.906,13.665,13.665,0,0,1-1.539-7.26c.053-2.5.451-4.995.5-7.506a6.531,6.531,0,0,0-.869-3.932,12.661,12.661,0,0,0-2.162-1.993c-2.765-2.458-3.714-6.39-3.807-10.089s.517-7.4.206-11.086c-.119-1.441-.663-3.175-2.076-3.454a7.534,7.534,0,0,1-1.326-.173c-1.134-.438-1.021-2.039-1.326-3.215-.365-1.328-1.492-2.345-1.81-3.673-.743-3.128,3.236-6.868,5.843-7.971S804.175,359.907,806.967,360.252Z" transform="translate(-314.523 -162.775)" opacity="0.1"/>
  <path id="Path_18725" data-name="Path 18725" d="M807.357,359.478c1.572.193,3.362.731,3.926,2.212a14.329,14.329,0,0,1,.365,1.7c.584,2.258,3.124,3.321,4.689,5.035a12.1,12.1,0,0,1,2.44,5.6,52.665,52.665,0,0,1,.9,17.588c-.5,4.284-1.532,8.509-1.817,12.819s.239,8.834,2.586,12.454c1.015,1.561,2.348,2.923,3.064,4.65-1.479,1.209-3.521,1.375-5.431,1.441q-3.316.106-6.665,0a7.061,7.061,0,0,1-3.382-.7,5.238,5.238,0,0,1-1.777-1.913,13.664,13.664,0,0,1-1.539-7.26c.053-2.5.451-4.995.5-7.5a6.705,6.705,0,0,0-.869-3.932,12.43,12.43,0,0,0-2.162-1.993c-2.765-2.458-3.714-6.39-3.807-10.089s.517-7.4.206-11.086c-.119-1.441-.663-3.175-2.076-3.454a7.538,7.538,0,0,1-1.326-.173c-1.134-.438-1.021-2.039-1.326-3.215-.365-1.328-1.492-2.338-1.81-3.673-.743-3.128,3.236-6.868,5.843-7.971S804.585,359.133,807.357,359.478Z" transform="translate(-314.655 -162.518)" fill="#464353"/>
  <path id="Path_18726" data-name="Path 18726" d="M200.28,633.915s7.109-.219,9.245-1.747,10.929-3.354,11.46-.9,10.677,12.182,2.653,12.248S205,642.257,202.86,640.955,200.28,633.915,200.28,633.915Z" transform="translate(-115.367 -253.472)" fill="#a8a8a8"/>
  <path id="Path_18727" data-name="Path 18727" d="M223.783,644.574c-8.018.066-18.635-1.249-20.771-2.551-1.625-1-2.275-4.556-2.494-6.2h-.239s.451,5.739,2.586,7.041,12.753,2.617,20.777,2.557c2.314,0,3.11-.844,3.071-2.066C226.389,644.116,225.507,644.574,223.783,644.574Z" transform="translate(-115.367 -255.404)" opacity="0.2"/>
  <path id="Path_18728" data-name="Path 18728" d="M881.17,493.874s4.874-.153,6.347-1.2,7.5-2.3,7.865-.618,7.335,8.362,1.824,8.409-12.793-.863-14.258-1.754S881.17,493.874,881.17,493.874Z" transform="translate(-344.705 -206.854)" fill="#a8a8a8"/>
  <path id="Path_18729" data-name="Path 18729" d="M897.305,501.211c-5.5.04-12.793-.863-14.258-1.754-1.121-.664-1.565-3.128-1.711-4.258h-.166s.312,3.939,1.777,4.835,8.754,1.793,14.258,1.754c1.592,0,2.142-.578,2.109-1.421C899.1,500.886,898.492,501.2,897.305,501.211Z" transform="translate(-344.705 -208.186)" opacity="0.2"/>
  <ellipse id="Ellipse_1908" data-name="Ellipse 1908" cx="14.345" cy="14.367" rx="14.345" ry="14.367" transform="translate(6.406 0)" fill="#b5948e" opacity="0.1"/>
  <ellipse id="Ellipse_1909" data-name="Ellipse 1909" cx="14.345" cy="14.367" rx="14.345" ry="14.367" transform="translate(623.163 41.181)" fill="#b5948e" opacity="0.1"/>
  <ellipse id="Ellipse_1910" data-name="Ellipse 1910" cx="10.611" cy="10.627" rx="10.611" ry="10.627" transform="translate(0 59.899)" fill="#b5948e" opacity="0.1"/>
  <ellipse id="Ellipse_1911" data-name="Ellipse 1911" cx="10.611" cy="10.627" rx="10.611" ry="10.627" transform="translate(107.435 0.12)" fill="#b5948e" opacity="0.1"/>
  <ellipse id="Ellipse_1912" data-name="Ellipse 1912" cx="10.611" cy="10.627" rx="10.611" ry="10.627" transform="translate(542.48 1.448)" fill="#b5948e" opacity="0.1"/>
  <path id="Path_18730" data-name="Path 18730" d="M958.148,709.49s2.653,3.481-1.227,8.734-7.083,9.684-5.79,12.959c0,0,5.856-9.751,10.611-9.89S963.388,715.362,958.148,709.49Z" transform="translate(-368.171 -280.141)" fill="#fc6681"/>
  <path id="Path_18731" data-name="Path 18731" d="M958.219,709.49a4.263,4.263,0,0,1,.537,1.1c4.642,5.473,7.136,10.581,2.653,10.707-4.165.12-9.158,7.579-10.359,9.465a3.585,3.585,0,0,0,.146.425s5.856-9.751,10.611-9.89S963.458,715.362,958.219,709.49Z" transform="translate(-368.242 -280.141)" opacity="0.1"/>
  <path id="Path_18732" data-name="Path 18732" d="M968.99,715.769c0,1.222-.139,2.219-.305,2.219s-.305-1-.305-2.219.172-.664.338-.664S968.99,714.54,968.99,715.769Z" transform="translate(-374.079 -281.983)" fill="#ffd037"/>
  <path id="Path_18733" data-name="Path 18733" d="M970.791,717.947c-1.074.585-1.99.937-2.1.79s.729-.744,1.8-1.328.663-.159.736,0S971.865,717.362,970.791,717.947Z" transform="translate(-374.182 -282.7)" fill="#ffd037"/>
  <path id="Path_18734" data-name="Path 18734" d="M937.682,709.49s-2.653,3.481,1.227,8.734,7.083,9.684,5.79,12.959c0,0-5.863-9.751-10.611-9.89S932.437,715.362,937.682,709.49Z" transform="translate(-361.738 -280.141)" fill="#fc6681"/>
  <path id="Path_18735" data-name="Path 18735" d="M937.685,709.49a4.4,4.4,0,0,0-.544,1.1c-4.642,5.473-7.129,10.581-2.653,10.707,4.165.12,9.165,7.579,10.359,9.465-.04.14-.086.286-.139.425,0,0-5.863-9.751-10.611-9.89S932.439,715.362,937.685,709.49Z" transform="translate(-361.74 -280.141)" opacity="0.1"/>
  <path id="Path_18736" data-name="Path 18736" d="M933.25,715.769c0,1.222.139,2.219.312,2.219s.305-1,.305-2.219-.172-.664-.345-.664S933.25,714.54,933.25,715.769Z" transform="translate(-362.246 -281.983)" fill="#ffd037"/>
  <path id="Path_18737" data-name="Path 18737" d="M930.371,717.947c1.074.585,1.99.937,2.089.79s-.723-.744-1.8-1.328-.663-.159-.729,0S929.3,717.362,930.371,717.947Z" transform="translate(-361.058 -282.7)" fill="#ffd037"/>
  <path id="Path_18738" data-name="Path 18738" d="M934.53,739.438s7.428-.232,9.663-1.827,11.427-3.5,11.984-.943,11.155,12.733,2.772,12.8-19.484-1.328-21.713-2.657S934.53,739.438,934.53,739.438Z" transform="translate(-362.677 -288.848)" fill="#a8a8a8"/>
  <path id="Path_18739" data-name="Path 18739" d="M959.1,750.61c-8.389.066-19.484-1.328-21.719-2.657-1.7-1.036-2.381-4.762-2.606-6.483h-.245s.471,5.978,2.706,7.359,13.33,2.737,21.713,2.657c2.421,0,3.256-.883,3.21-2.159C961.826,750.111,960.9,750.6,959.1,750.61Z" transform="translate(-362.677 -290.88)" opacity="0.2"/>
  <path id="Path_18740" data-name="Path 18740" d="M381.617,189.06a13.949,13.949,0,1,0,13.927,13.949A13.938,13.938,0,0,0,381.617,189.06Zm0,2.7a11.292,11.292,0,1,1-11.274,11.292,11.283,11.283,0,0,1,11.274-11.292m7.885,7.34-1.267-1.282a.662.662,0,0,0-.955,0l-7.958,7.9-3.356-3.414a.662.662,0,0,0-.955,0l-1.273,1.269a.665.665,0,0,0,0,.956l5.106,5.154a.662.662,0,0,0,.955,0l9.7-9.644a.665.665,0,0,0,0-.956Z" transform="translate(-171.754 -105.389)" fill="#3acc6c" opacity="0.7"/>
  <path id="Path_18741" data-name="Path 18741" d="M150.736,295.2a13.926,13.926,0,1,0,10.532,1.758,13.949,13.949,0,0,0-10.532-1.758Zm.61,2.657a11.3,11.3,0,1,1-8.429,13.51,11.265,11.265,0,0,1,8.429-13.51m9.331,5.38-1.525-.983a.663.663,0,0,0-.928.213l-5.969,9.485-4.039-2.557a.663.663,0,0,0-.928.213l-.962,1.528a.665.665,0,0,0,.212.93l6.128,3.872a.663.663,0,0,0,.935-.213l7.295-11.577a.665.665,0,0,0-.206-.93Z" transform="translate(-95.049 -140.907)" fill="#3acc6c" opacity="0.7"/>
  <path id="Path_18742" data-name="Path 18742" d="M687.687,192.1a13.949,13.949,0,1,0,13.927,13.949A13.938,13.938,0,0,0,687.687,192.1Zm0,2.7A11.292,11.292,0,1,1,676.413,206.1,11.283,11.283,0,0,1,687.687,194.8m7.885,7.34-1.267-1.282a.663.663,0,0,0-.955,0l-7.958,7.9-3.362-3.394a.663.663,0,0,0-.955,0l-1.267,1.282a.665.665,0,0,0,0,.956l5.107,5.154a.662.662,0,0,0,.955,0l9.7-9.644a.665.665,0,0,0,0-.956Z" transform="translate(-274.845 -106.41)" fill="#3acc6c" opacity="0.7"/>
  <path id="Path_18743" data-name="Path 18743" d="M928.069,295.789a13.942,13.942,0,1,0,9.509,4.843A13.934,13.934,0,0,0,928.069,295.789Zm-.212,2.69a11.246,11.246,0,1,1-8.186,2.672,11.277,11.277,0,0,1,8.186-2.672m7.295,7.931-1.167-1.375a.662.662,0,0,0-.948-.08l-8.535,7.26-3.09-3.647a.662.662,0,0,0-.955-.08l-1.373,1.169a.665.665,0,0,0-.073.95l4.689,5.533a.663.663,0,0,0,.948.08l10.425-8.861a.665.665,0,0,0,.08-.95Z" transform="translate(-355.447 -141.212)" fill="#3acc6c" opacity="0.7"/>
</svg>
