<svg width="240" height="146" viewBox="0 0 240 146" fill="none" xmlns="http://www.w3.org/2000/svg">
<g clip-path="url(#clip0_1568_25142)">
<path d="M19.8687 31.6753C26.6994 31.6753 32.2368 26.1153 32.2368 19.2567C32.2368 12.3981 26.6994 6.83813 19.8687 6.83813C13.0379 6.83813 7.50049 12.3981 7.50049 19.2567C7.50049 26.1153 13.0379 31.6753 19.8687 31.6753Z" fill="#D97D21"/>
<path d="M119.381 146C185.313 146 238.761 143.824 238.761 141.14C238.761 138.457 185.313 136.281 119.381 136.281C53.4485 136.281 0 138.457 0 141.14C0 143.824 53.4485 146 119.381 146Z" fill="#E6E6E6"/>
<path d="M30.3827 80.2402C47.1626 80.2402 60.7654 66.5819 60.7654 49.7336C60.7654 32.8853 47.1626 19.2271 30.3827 19.2271C13.6028 19.2271 0 32.8853 0 49.7336C0 66.5819 13.6028 80.2402 30.3827 80.2402Z" fill="#20A1DA"/>
<path d="M33.3112 141.621H27.0881L29.925 45.1392L33.3112 141.621Z" fill="#406C80"/>
<path d="M30.4741 63.4247L37.1548 54.1443L30.3827 65.7219L29.6505 64.4355L30.4741 63.4247Z" fill="#406C80"/>
<path d="M29.7419 72.7973L23.0615 63.5168L29.8336 75.0945L30.5658 73.8081L29.7419 72.7973Z" fill="#406C80"/>
<path d="M222.494 141.722H216.271L219.108 45.2407L222.494 141.722Z" fill="#406C80"/>
<path d="M219.657 63.5263L226.338 54.2458L219.566 65.8235L218.833 64.5371L219.657 63.5263Z" fill="#406C80"/>
<path d="M218.925 72.8989L212.245 63.6184L219.017 75.196L219.749 73.9096L218.925 72.8989Z" fill="#406C80"/>
<path d="M123.428 141.706C154.686 141.706 180.027 116.263 180.027 84.8767C180.027 53.4906 154.686 28.0471 123.428 28.0471C92.1691 28.0471 66.829 53.4906 66.829 84.8767C66.829 116.263 92.1691 141.706 123.428 141.706Z" fill="#406C80"/>
<path d="M123.428 137.002C152.099 137.002 175.341 113.664 175.341 84.8766C175.341 56.0887 152.099 32.7515 123.428 32.7515C94.7567 32.7515 71.5143 56.0887 71.5143 84.8766C71.5143 113.664 94.7567 137.002 123.428 137.002Z" fill="white"/>
<path d="M123.24 92.0274C127.07 92.0274 130.175 88.9102 130.175 85.0649C130.175 81.2195 127.07 78.1023 123.24 78.1023C119.411 78.1023 116.306 81.2195 116.306 85.0649C116.306 88.9102 119.411 92.0274 123.24 92.0274Z" fill="#406C80"/>
<path d="M124.74 35.386H121.741V41.0313H124.74V35.386Z" fill="#406C80"/>
<path d="M124.74 129.098H121.741V134.743H124.74V129.098Z" fill="#406C80"/>
<path d="M79.3857 86.5702V83.5593H73.7634V86.5702H79.3857Z" fill="#406C80"/>
<path d="M172.717 86.5702V83.5593H167.095V86.5702H172.717Z" fill="#406C80"/>
<path d="M121.241 88.0873L123.804 82.2039L155.914 100.06L121.241 88.0873Z" fill="#406C80"/>
<path d="M130.737 14.3101H116.119V31.246H130.737V14.3101Z" fill="#406C80"/>
<path d="M123.428 19.0146C132.743 19.0146 140.295 16.9083 140.295 14.3101C140.295 11.712 132.743 9.60571 123.428 9.60571C114.112 9.60571 106.561 11.712 106.561 14.3101C106.561 16.9083 114.112 19.0146 123.428 19.0146Z" fill="#406C80"/>
<path d="M155.007 94.9439L154.07 96.2612C154.07 96.2612 149.759 101.342 149.572 98.8957C149.384 96.4494 152.758 94.7558 152.758 94.7558L154.632 93.6267L155.007 94.9439Z" fill="#FFB8B8"/>
<path d="M181.684 99.3881L182.469 100.802C182.469 100.802 185.198 106.888 182.915 106.011C180.633 105.135 180.552 101.348 180.552 101.348L180.338 99.1646L181.684 99.3881Z" fill="#FFB8B8"/>
<path d="M177.465 74.3136C180.617 74.3136 183.172 71.7482 183.172 68.5837C183.172 65.4191 180.617 62.8538 177.465 62.8538C174.314 62.8538 171.759 65.4191 171.759 68.5837C171.759 71.7482 174.314 74.3136 177.465 74.3136Z" fill="#667880"/>
<path d="M176.934 115.643L177.684 120.536V122.041H181.994V120.16C181.994 120.16 182.182 116.773 181.432 115.832C180.682 114.891 176.934 115.643 176.934 115.643Z" fill="#FFB8B8"/>
<path d="M169.25 115.643L170 120.536V122.041H174.31V120.16C174.31 120.16 174.498 116.773 173.748 115.832C172.999 114.891 169.25 115.643 169.25 115.643Z" fill="#FFB8B8"/>
<path d="M172.151 76.3433C172.151 76.3433 170.493 77.2207 171.625 79.2165C172.758 81.2124 179.402 101.861 179.402 101.861L183.235 100.768L179.855 87.7095L177.919 79.502L172.151 76.3433Z" fill="#D97D21"/>
<path d="M176.841 74.5268C179.221 74.5268 181.151 72.589 181.151 70.1987C181.151 67.8083 179.221 65.8706 176.841 65.8706C174.46 65.8706 172.53 67.8083 172.53 70.1987C172.53 72.589 174.46 74.5268 176.841 74.5268Z" fill="#FFB8B8"/>
<path d="M178.808 70.8574L178.246 79.7017L174.31 76.8791C174.31 76.8791 175.622 71.6101 175.247 71.2338L178.808 70.8574Z" fill="#FFB8B8"/>
<path d="M178.808 78.9489L174.568 75.7965C174.568 75.7965 172.624 74.9972 172.061 75.9381C171.499 76.8789 168.688 90.8041 170.187 93.4386C170.187 93.4386 178.246 95.1322 179.933 94.1913L180.682 89.2987C180.682 89.2987 181.62 86.2878 180.12 84.4061L178.808 78.9489Z" fill="#D97D21"/>
<path d="M173.186 76.1264C173.186 76.1264 171.687 74.9974 170.375 76.8792C169.063 78.7609 153.32 93.6269 153.32 93.6269L155.944 96.6378L166.252 87.9816L172.811 82.7126L173.186 76.1264Z" fill="#D97D21"/>
<path d="M180.027 94.0972C180.027 94.0972 170.75 92.3096 169.813 93.6268L169.625 95.6968C169.625 95.6968 167.564 99.6485 168.688 106.047C169.813 112.445 169.063 116.396 169.063 116.396C169.063 116.396 174.123 115.832 177.871 116.396C181.62 116.961 182.182 116.396 182.182 116.396L180.027 94.0972Z" fill="#667880"/>
<path d="M182.369 121.289L176.934 121.477L178.808 135.59C178.808 135.59 177.309 141.612 178.996 141.988C180.168 142.226 181.361 142.352 182.557 142.365C182.557 142.365 184.243 144.058 186.117 143.87C187.362 143.71 188.568 143.328 189.678 142.741C189.678 142.741 190.053 141.612 188.741 141.236C187.429 140.859 183.868 139.73 183.119 135.778L182.369 121.289Z" fill="#667880"/>
<path d="M174.685 121.289L169.25 121.477L171.124 135.59C171.124 135.59 169.625 141.612 171.312 141.988C172.484 142.226 173.677 142.352 174.873 142.365C174.873 142.365 176.559 144.058 178.433 143.87C179.678 143.71 180.884 143.328 181.994 142.741C181.994 142.741 182.369 141.612 181.057 141.236C179.745 140.859 176.185 139.73 175.435 135.778L174.685 121.289Z" fill="#667880"/>
<path d="M179.462 64.9241C180.766 64.9241 181.823 63.8626 181.823 62.5531C181.823 61.2437 180.766 60.1821 179.462 60.1821C178.157 60.1821 177.1 61.2437 177.1 62.5531C177.1 63.8626 178.157 64.9241 179.462 64.9241Z" fill="#667880"/>
<path d="M182.61 61.2687C182.61 60.6826 182.394 60.1174 182.003 59.6819C181.613 59.2464 181.075 58.9716 180.495 58.9105C180.576 58.902 180.659 58.8977 180.741 58.8977C181.367 58.8977 181.968 59.1475 182.41 59.5921C182.853 60.0368 183.102 60.6399 183.102 61.2687C183.102 61.8975 182.853 62.5006 182.41 62.9452C181.968 63.3899 181.367 63.6397 180.741 63.6397C180.659 63.6397 180.576 63.6354 180.495 63.6269C181.075 63.5658 181.613 63.291 182.003 62.8555C182.394 62.4201 182.61 61.8548 182.61 61.2687V61.2687Z" fill="#667880"/>
<path d="M176.802 69.7398C178.975 69.7398 180.737 68.6783 180.737 67.3688C180.737 66.0593 178.975 64.9978 176.802 64.9978C174.628 64.9978 172.866 66.0593 172.866 67.3688C172.866 68.6783 174.628 69.7398 176.802 69.7398Z" fill="#667880"/>
<path d="M238.792 11.3796C238.631 8.52571 237.466 5.82191 235.504 3.75025C233.543 1.67859 230.912 0.373735 228.082 0.0683308C225.251 -0.237074 222.405 0.476825 220.05 2.08274C217.695 3.68866 215.984 6.0822 215.223 8.83663C215.078 8.83139 214.932 8.82552 214.785 8.82552C212.19 8.826 209.665 9.67018 207.587 11.2318C205.51 12.7934 203.991 14.9884 203.26 17.4885C201.54 16.7298 199.618 16.5652 197.795 17.0205C195.973 17.4758 194.352 18.5252 193.186 20.0044H230.657C231.75 20.0075 232.833 19.7891 233.84 19.3623C234.847 18.9354 235.758 18.3089 236.518 17.5203C237.279 16.7316 237.872 15.797 238.265 14.7724C238.657 13.7479 238.839 12.6544 238.8 11.5575C238.798 11.4983 238.795 11.439 238.792 11.3796Z" fill="#E6E6E6"/>
<path d="M207.466 36.7639C209.248 36.7639 210.693 35.3135 210.693 33.5243C210.693 31.7351 209.248 30.2847 207.466 30.2847C205.684 30.2847 204.24 31.7351 204.24 33.5243C204.24 35.3135 205.684 36.7639 207.466 36.7639Z" fill="#E6E6E6"/>
<path d="M217.208 28.5837C218.692 28.5837 219.895 27.376 219.895 25.8862C219.895 24.3964 218.692 23.1887 217.208 23.1887C215.725 23.1887 214.522 24.3964 214.522 25.8862C214.522 27.376 215.725 28.5837 217.208 28.5837Z" fill="#E6E6E6"/>
<path d="M230.321 43.783C232.103 43.783 233.547 42.3325 233.547 40.5433C233.547 38.7541 232.103 37.3037 230.321 37.3037C228.539 37.3037 227.094 38.7541 227.094 40.5433C227.094 42.3325 228.539 43.783 230.321 43.783Z" fill="#E6E6E6"/>
<path d="M205.853 58.6314C207.635 58.6314 209.08 57.1809 209.08 55.3917C209.08 53.6025 207.635 52.1521 205.853 52.1521C204.071 52.1521 202.627 53.6025 202.627 55.3917C202.627 57.1809 204.071 58.6314 205.853 58.6314Z" fill="#E6E6E6"/>
<path d="M230.321 77.2593C232.103 77.2593 233.547 75.8089 233.547 74.0197C233.547 72.2305 232.103 70.78 230.321 70.78C228.539 70.78 227.094 72.2305 227.094 74.0197C227.094 75.8089 228.539 77.2593 230.321 77.2593Z" fill="#E6E6E6"/>
<path d="M225.207 136.487C225.208 136.452 225.212 136.418 225.212 136.383C225.213 135.84 225.077 135.305 224.819 134.829C224.56 134.352 224.186 133.949 223.731 133.656C223.276 133.362 222.755 133.189 222.215 133.151C221.676 133.113 221.136 133.212 220.645 133.439C220.184 132.904 219.561 132.537 218.872 132.392C218.183 132.247 217.465 132.333 216.83 132.637C216.194 132.941 215.675 133.445 215.353 134.074C215.03 134.702 214.921 135.419 215.043 136.115C215.027 136.115 215.011 136.113 214.995 136.113C214.481 136.112 213.975 136.234 213.518 136.469C213.061 136.705 212.666 137.046 212.367 137.466C212.068 137.885 211.873 138.37 211.798 138.88C211.723 139.39 211.77 139.911 211.936 140.399C212.102 140.887 212.382 141.328 212.752 141.686C213.122 142.044 213.572 142.308 214.064 142.456C214.556 142.604 215.076 142.632 215.581 142.537C216.086 142.443 216.561 142.228 216.967 141.912C217.223 142.413 217.605 142.839 218.074 143.146C218.544 143.454 219.086 143.633 219.646 143.666C220.205 143.699 220.764 143.585 221.267 143.335C221.769 143.086 222.198 142.708 222.511 142.241C222.895 142.522 223.336 142.713 223.802 142.803C224.269 142.892 224.749 142.877 225.209 142.759C225.669 142.641 226.097 142.422 226.463 142.118C226.829 141.814 227.123 141.433 227.325 141.001C227.527 140.57 227.632 140.099 227.632 139.622C227.632 139.146 227.527 138.675 227.324 138.244C227.122 137.812 226.827 137.431 226.461 137.128C226.095 136.824 225.667 136.606 225.207 136.487V136.487Z" fill="#E6E6E6"/>
<path d="M233.278 62.4109C234.021 62.4109 234.623 61.8065 234.623 61.061C234.623 60.3155 234.021 59.7112 233.278 59.7112C232.536 59.7112 231.934 60.3155 231.934 61.061C231.934 61.8065 232.536 62.4109 233.278 62.4109Z" fill="#E6E6E6"/>
<path d="M224.674 30.0146C225.417 30.0146 226.019 29.4103 226.019 28.6648C226.019 27.9193 225.417 27.3149 224.674 27.3149C223.932 27.3149 223.33 27.9193 223.33 28.6648C223.33 29.4103 223.932 30.0146 224.674 30.0146Z" fill="#E6E6E6"/>
<path d="M220.103 63.491C220.846 63.491 221.448 62.8866 221.448 62.1411C221.448 61.3956 220.846 60.7913 220.103 60.7913C219.361 60.7913 218.759 61.3956 218.759 62.1411C218.759 62.8866 219.361 63.491 220.103 63.491Z" fill="#E6E6E6"/>
<path d="M221.179 62.1411C221.921 62.1411 222.523 61.5368 222.523 60.7913C222.523 60.0458 221.921 59.4414 221.179 59.4414C220.436 59.4414 219.834 60.0458 219.834 60.7913C219.834 61.5368 220.436 62.1411 221.179 62.1411Z" fill="#E6E6E6"/>
<path d="M221.985 60.7912C222.728 60.7912 223.33 60.1869 223.33 59.4414C223.33 58.6959 222.728 58.0916 221.985 58.0916C221.243 58.0916 220.641 58.6959 220.641 59.4414C220.641 60.1869 221.243 60.7912 221.985 60.7912Z" fill="#E6E6E6"/>
<path d="M218.759 72.1299C219.502 72.1299 220.103 71.5255 220.103 70.78C220.103 70.0345 219.502 69.4302 218.759 69.4302C218.017 69.4302 217.415 70.0345 217.415 70.78C217.415 71.5255 218.017 72.1299 218.759 72.1299Z" fill="#E6E6E6"/>
<path d="M238.656 87.2483C239.398 87.2483 240 86.6439 240 85.8984C240 85.1529 239.398 84.5486 238.656 84.5486C237.913 84.5486 237.311 85.1529 237.311 85.8984C237.311 86.6439 237.913 87.2483 238.656 87.2483Z" fill="#E6E6E6"/>
<path d="M209.886 88.0581C210.629 88.0581 211.231 87.4537 211.231 86.7082C211.231 85.9627 210.629 85.3584 209.886 85.3584C209.144 85.3584 208.542 85.9627 208.542 86.7082C208.542 87.4537 209.144 88.0581 209.886 88.0581Z" fill="#E6E6E6"/>
<path d="M211.499 46.4829C212.242 46.4829 212.844 45.8786 212.844 45.1331C212.844 44.3876 212.242 43.7832 211.499 43.7832C210.757 43.7832 210.155 44.3876 210.155 45.1331C210.155 45.8786 210.757 46.4829 211.499 46.4829Z" fill="#E6E6E6"/>
<path d="M217.683 70.78C218.426 70.78 219.028 70.1757 219.028 69.4302C219.028 68.6847 218.426 68.0803 217.683 68.0803C216.941 68.0803 216.339 68.6847 216.339 69.4302C216.339 70.1757 216.941 70.78 217.683 70.78Z" fill="#E6E6E6"/>
<path d="M216.339 68.6203C217.082 68.6203 217.683 68.016 217.683 67.2705C217.683 66.525 217.082 65.9207 216.339 65.9207C215.597 65.9207 214.995 66.525 214.995 67.2705C214.995 68.016 215.597 68.6203 216.339 68.6203Z" fill="#E6E6E6"/>
</g>
<defs>
<clipPath id="clip0_1568_25142">
<rect width="240" height="146" fill="white"/>
</clipPath>
</defs>
</svg>
