<svg xmlns="http://www.w3.org/2000/svg" viewBox="0 0 23 21"><defs><style>.cls-1{fill:#4382ff;}</style></defs><title>Asset 2word</title><g id="Layer_2" data-name="Layer 2"><g id="Layer_1-2" data-name="Layer 1"><path id="Icon_simple-microsoftword" data-name="Icon simple-microsoftword" class="cls-1" d="M23,2.86V18.15a.43.43,0,0,1-.14.32.56.56,0,0,1-.35.13h-8.2V16.48H21v-1H14.3V14.33H21v-1H14.31v-1.2H21v-.95H14.31V10H21v-1H14.31V7.88H21v-1H14.31V5.71H21V4.79H14.31V2.39h8.2a.5.5,0,0,1,.35.14A.45.45,0,0,1,23,2.86ZM13.08,0V21L0,18.82V2.24L13.08,0Zm-2,6.2-1.64.1L8.42,12.57h0c-.05-.3-.24-1.33-.59-3.11l-.62-3-1.53.08L5,9.46c-.36,1.71-.56,2.71-.61,3h0L3.48,6.67l-1.41.07L3.58,14l1.57.1.58-2.84c.35-1.66.55-2.63.59-2.89h0c0,.28.24,1.27.59,3l.58,2.91,1.7.1,1.9-8.17h0Z"/></g></g></svg>