<svg xmlns="http://www.w3.org/2000/svg" xmlns:xlink="http://www.w3.org/1999/xlink" width="350" height="150" viewBox="0 0 320 248">
  <defs>
    <linearGradient id="linear-gradient" x1="0.5" y1="1" x2="0.5" gradientUnits="objectBoundingBox">
      <stop offset="0" stop-color="gray" stop-opacity="0.251"/>
      <stop offset="0.54" stop-color="gray" stop-opacity="0.122"/>
      <stop offset="1" stop-color="gray" stop-opacity="0.102"/>
    </linearGradient>
    <linearGradient id="linear-gradient-2" x1="0.5" y1="1" x2="0.5" y2="0" xlink:href="#linear-gradient"/>
  </defs>
  <g id="undraw_report_mx0a" transform="translate(0 0.021)">
    <path id="Path_20929" data-name="Path 20929" d="M128.914,31.822c-10.29-.379-21.038-.646-30.342,3.77s-16.5,15.116-13.377,24.953c1.018,3.207,3,6,4.674,8.921a51.5,51.5,0,0,1,1,48.406c-5.968,11.5-16.083,20.246-23.365,30.957s-11.42,25.557-4.257,36.349c4.905,7.389,14.008,10.984,22.826,11.855s17.687-.5,26.544-.854a114.215,114.215,0,0,1,50.2,9.505c21.755,9.55,40.5,25.886,63.4,32.19a19.134,19.134,0,0,0,8.437.854c4.988-.91,8.614-5.039,12.519-8.3,12.465-10.335,29.723-12.264,45.9-12.745s33.033-.11,47.659-7.066c12.77-6.073,22.6-17.371,28.714-30.133s8.768-26.944,9.769-41.067c.592-8.405.571-17.084-2.433-24.953-3.378-8.847-10.228-15.892-17.412-22.051-7.507-6.437-15.689-12.27-24.958-15.744-11.071-4.149-23.09-4.742-34.877-5.726A478.566,478.566,0,0,1,227.793,59.41c-22.388-5.359-46.97-11.212-67.36-22.128C150.2,31.8,140.449,32.237,128.914,31.822Z" transform="translate(-59.52 -31.65)" fill="#e6a744" opacity="0.1"/>
    <g id="Group_11746" data-name="Group 11746" transform="translate(205.906 135.222)" opacity="0.1">
      <path id="Path_20930" data-name="Path 20930" d="M773.4,561.449s1.048-14.7,9.313-22.721a22.335,22.335,0,0,0,6.589-12.493,37.8,37.8,0,0,0,.444-6.855" transform="translate(-767.982 -510.061)" fill="#e6a744"/>
      <path id="Path_20931" data-name="Path 20931" d="M831.732,492.174c-.607,1.624-5.3,5.234-5.3,5.234s-1.184-5.806-.571-7.43a3.134,3.134,0,1,1,5.87,2.2Z" transform="translate(-804.79 -487.937)" fill="#e6a744"/>
      <path id="Path_20932" data-name="Path 20932" d="M833.838,525.381c-1.391,1.031-7.288,1.509-7.288,1.509s2.161-5.516,3.552-6.55a3.137,3.137,0,0,1,3.736,5.039Z" transform="translate(-805.398 -510.335)" fill="#e6a744"/>
      <path id="Path_20933" data-name="Path 20933" d="M814.3,575.483c-1.723.19-7.054-2.371-7.054-2.371s4.648-3.669,6.367-3.853a3.136,3.136,0,0,1,.687,6.224Z" transform="translate(-791.812 -545.153)" fill="#e6a744"/>
      <path id="Path_20934" data-name="Path 20934" d="M789.6,611.2c-1.664.477-7.353-1.153-7.353-1.153s3.961-4.4,5.624-4.878A3.138,3.138,0,1,1,789.6,611.2Z" transform="translate(-774.212 -570.32)" fill="#e6a744"/>
      <path id="Path_20935" data-name="Path 20935" d="M804.7,526.62c.74,1.565,5.719,4.763,5.719,4.763s.687-5.883-.056-7.451a3.135,3.135,0,0,0-5.663,2.688Z" transform="translate(-789.829 -512.058)" fill="#e6a744"/>
      <path id="Path_20936" data-name="Path 20936" d="M775.818,566.55c1.184,1.272,6.883,2.833,6.883,2.833s-1.1-5.821-2.279-7.1a3.137,3.137,0,1,0-4.6,4.262Z" transform="translate(-769.098 -539.542)" fill="#e6a744"/>
      <path id="Path_20937" data-name="Path 20937" d="M755.557,612.2c.941,1.452,6.305,3.957,6.305,3.957s-.107-5.928-1.051-7.377a3.136,3.136,0,0,0-5.254,3.42Z" transform="translate(-755.097 -572.014)" fill="#e6a744"/>
      <path id="Path_20938" data-name="Path 20938" d="M831.732,492.174c-.607,1.624-5.3,5.234-5.3,5.234s-1.184-5.806-.571-7.43a3.134,3.134,0,1,1,5.87,2.2Z" transform="translate(-804.79 -487.937)" fill="#e6a744"/>
      <path id="Path_20939" data-name="Path 20939" d="M833.838,525.381c-1.391,1.031-7.288,1.509-7.288,1.509s2.161-5.516,3.552-6.55a3.137,3.137,0,0,1,3.736,5.039Z" transform="translate(-805.398 -510.335)" fill="#e6a744"/>
      <path id="Path_20940" data-name="Path 20940" d="M814.3,575.483c-1.723.19-7.054-2.371-7.054-2.371s4.648-3.669,6.367-3.853a3.136,3.136,0,0,1,.687,6.224Z" transform="translate(-791.812 -545.153)" fill="#e6a744"/>
      <path id="Path_20941" data-name="Path 20941" d="M789.6,611.2c-1.664.477-7.353-1.153-7.353-1.153s3.961-4.4,5.624-4.878A3.138,3.138,0,1,1,789.6,611.2Z" transform="translate(-774.212 -570.32)" fill="#e6a744"/>
      <path id="Path_20942" data-name="Path 20942" d="M804.7,526.62c.74,1.565,5.719,4.763,5.719,4.763s.687-5.883-.056-7.451a3.135,3.135,0,0,0-5.663,2.688Z" transform="translate(-789.829 -512.058)" fill="#e6a744"/>
      <path id="Path_20943" data-name="Path 20943" d="M775.818,566.55c1.184,1.272,6.883,2.833,6.883,2.833s-1.1-5.821-2.279-7.1a3.137,3.137,0,1,0-4.6,4.262Z" transform="translate(-769.098 -539.542)" fill="#e6a744"/>
      <path id="Path_20944" data-name="Path 20944" d="M755.557,612.2c.941,1.452,6.305,3.957,6.305,3.957s-.107-5.928-1.051-7.377a3.136,3.136,0,0,0-5.254,3.42Z" transform="translate(-755.097 -572.014)" fill="#e6a744"/>
    </g>
    <g id="Group_11747" data-name="Group 11747" transform="translate(208.71 79.567)" opacity="0.1">
      <path id="Path_20945" data-name="Path 20945" d="M783.2,373.669s1.048-14.7,9.313-22.721a22.356,22.356,0,0,0,6.589-12.493,37.294,37.294,0,0,0,.444-6.855" transform="translate(-777.686 -322.281)" fill="#e6a744"/>
      <path id="Path_20946" data-name="Path 20946" d="M841.535,304.394c-.592,1.621-5.3,5.231-5.3,5.231s-1.184-5.806-.574-7.427a3.134,3.134,0,1,1,5.87,2.2Z" transform="translate(-814.497 -300.158)" fill="#e6a744"/>
      <path id="Path_20947" data-name="Path 20947" d="M843.668,337.358c-1.388,1.034-7.288,1.509-7.288,1.509s2.161-5.513,3.552-6.547a3.137,3.137,0,1,1,3.736,5.039Z" transform="translate(-815.123 -322.315)" fill="#e6a744"/>
      <path id="Path_20948" data-name="Path 20948" d="M824.111,387.669c-1.72.19-7.051-2.371-7.051-2.371s4.648-3.666,6.367-3.853a3.138,3.138,0,0,1,.684,6.239Z" transform="translate(-801.522 -357.339)" fill="#e6a744"/>
      <path id="Path_20949" data-name="Path 20949" d="M799.4,423.474c-1.664.477-7.353-1.153-7.353-1.153s3.964-4.4,5.624-4.881a3.138,3.138,0,0,1,1.726,6.035Z" transform="translate(-783.916 -382.593)" fill="#e6a744"/>
      <path id="Path_20950" data-name="Path 20950" d="M814.41,338.64c.74,1.568,5.722,4.766,5.722,4.766s.684-5.886-.056-7.451a3.135,3.135,0,1,0-5.666,2.686Z" transform="translate(-799.444 -324.08)" fill="#e6a744"/>
      <path id="Path_20951" data-name="Path 20951" d="M785.748,378.9c1.184,1.274,6.885,2.833,6.885,2.833s-1.107-5.821-2.282-7.092a3.137,3.137,0,0,0-4.6,4.259Z" transform="translate(-778.931 -351.899)" fill="#e6a744"/>
      <path id="Path_20952" data-name="Path 20952" d="M765.128,424.072c.944,1.452,6.305,3.957,6.305,3.957s-.107-5.928-1.051-7.377a3.136,3.136,0,1,0-5.254,3.42Z" transform="translate(-764.572 -383.882)" fill="#e6a744"/>
      <path id="Path_20953" data-name="Path 20953" d="M841.535,304.394c-.592,1.621-5.3,5.231-5.3,5.231s-1.184-5.806-.574-7.427a3.134,3.134,0,1,1,5.87,2.2Z" transform="translate(-814.497 -300.158)" fill="#e6a744"/>
      <path id="Path_20954" data-name="Path 20954" d="M843.668,337.358c-1.388,1.034-7.288,1.509-7.288,1.509s2.161-5.513,3.552-6.547a3.137,3.137,0,1,1,3.736,5.039Z" transform="translate(-815.123 -322.315)" fill="#e6a744"/>
      <path id="Path_20955" data-name="Path 20955" d="M824.111,387.669c-1.72.19-7.051-2.371-7.051-2.371s4.648-3.666,6.367-3.853a3.138,3.138,0,0,1,.684,6.239Z" transform="translate(-801.522 -357.339)" fill="#e6a744"/>
      <path id="Path_20956" data-name="Path 20956" d="M799.4,423.474c-1.664.477-7.353-1.153-7.353-1.153s3.964-4.4,5.624-4.881a3.138,3.138,0,0,1,1.726,6.035Z" transform="translate(-783.916 -382.593)" fill="#e6a744"/>
      <path id="Path_20957" data-name="Path 20957" d="M814.41,338.64c.74,1.568,5.722,4.766,5.722,4.766s.684-5.886-.056-7.451a3.135,3.135,0,1,0-5.666,2.686Z" transform="translate(-799.444 -324.08)" fill="#e6a744"/>
      <path id="Path_20958" data-name="Path 20958" d="M785.748,378.9c1.184,1.274,6.885,2.833,6.885,2.833s-1.107-5.821-2.282-7.092a3.137,3.137,0,0,0-4.6,4.259Z" transform="translate(-778.931 -351.899)" fill="#e6a744"/>
      <path id="Path_20959" data-name="Path 20959" d="M765.128,424.072c.944,1.452,6.305,3.957,6.305,3.957s-.107-5.928-1.051-7.377a3.136,3.136,0,1,0-5.254,3.42Z" transform="translate(-764.572 -383.882)" fill="#e6a744"/>
    </g>
    <g id="Group_11748" data-name="Group 11748" transform="translate(19.42 108.829)" opacity="0.1">
      <path id="Path_20960" data-name="Path 20960" d="M180.918,458.954s-12.643-7.546-16.086-18.536a22.306,22.306,0,0,0-8.182-11.509,37.316,37.316,0,0,0-5.92-3.48" transform="translate(-143.15 -417.564)" fill="#e6a744"/>
      <path id="Path_20961" data-name="Path 20961" d="M130.5,399.831c1.184,1.272,2.288,7.092,2.288,7.092s-5.71-1.556-6.885-2.828a3.137,3.137,0,0,1,4.6-4.265Z" transform="translate(-125.123 -398.889)" fill="#e6a744"/>
      <path id="Path_20962" data-name="Path 20962" d="M163.3,407.644c.3,1.707-1.93,7.2-1.93,7.2s-3.949-4.413-4.245-6.12a3.135,3.135,0,1,1,6.175-1.076Z" transform="translate(-147.609 -403.165)" fill="#e6a744"/>
      <path id="Path_20963" data-name="Path 20963" d="M200.792,444.832c-.592,1.624-5.3,5.237-5.3,5.237s-1.184-5.806-.577-7.427a3.135,3.135,0,1,1,5.873,2.19Z" transform="translate(-174.136 -428.178)" fill="#e6a744"/>
      <path id="Path_20964" data-name="Path 20964" d="M221.459,483.714c-.32,1.7-4.334,6.073-4.334,6.073s-2.146-5.522-1.823-7.223a3.133,3.133,0,1,1,6.157,1.165Z" transform="translate(-188.583 -455.966)" fill="#e6a744"/>
      <path id="Path_20965" data-name="Path 20965" d="M148.791,439.283c1.729.042,6.823-2.964,6.823-2.964s-4.944-3.26-6.675-3.3a3.138,3.138,0,0,0-.148,6.275Z" transform="translate(-139.63 -422.902)" fill="#e6a744"/>
      <path id="Path_20966" data-name="Path 20966" d="M171.859,483.1c1.664-.48,5.624-4.884,5.624-4.884s-5.69-1.627-7.353-1.147a3.139,3.139,0,0,0,1.732,6.031Z" transform="translate(-155.259 -453.836)" fill="#e6a744"/>
      <path id="Path_20967" data-name="Path 20967" d="M202.747,521.719c1.723-.19,6.367-3.853,6.367-3.853s-5.328-2.567-7.054-2.371a3.136,3.136,0,1,0,.687,6.224Z" transform="translate(-177.201 -480.927)" fill="#e6a744"/>
      <path id="Path_20968" data-name="Path 20968" d="M130.5,399.831c1.184,1.272,2.288,7.092,2.288,7.092s-5.71-1.556-6.885-2.828a3.137,3.137,0,0,1,4.6-4.265Z" transform="translate(-125.123 -398.889)" fill="#e6a744"/>
      <path id="Path_20969" data-name="Path 20969" d="M163.3,407.644c.3,1.707-1.93,7.2-1.93,7.2s-3.949-4.413-4.245-6.12a3.135,3.135,0,1,1,6.175-1.076Z" transform="translate(-147.609 -403.165)" fill="#e6a744"/>
      <path id="Path_20970" data-name="Path 20970" d="M200.792,444.832c-.592,1.624-5.3,5.237-5.3,5.237s-1.184-5.806-.577-7.427a3.135,3.135,0,1,1,5.873,2.19Z" transform="translate(-174.136 -428.178)" fill="#e6a744"/>
      <path id="Path_20971" data-name="Path 20971" d="M221.459,483.714c-.32,1.7-4.334,6.073-4.334,6.073s-2.146-5.522-1.823-7.223a3.133,3.133,0,1,1,6.157,1.165Z" transform="translate(-188.583 -455.966)" fill="#e6a744"/>
      <path id="Path_20972" data-name="Path 20972" d="M148.791,439.283c1.729.042,6.823-2.964,6.823-2.964s-4.944-3.26-6.675-3.3a3.138,3.138,0,0,0-.148,6.275Z" transform="translate(-139.63 -422.902)" fill="#e6a744"/>
      <path id="Path_20973" data-name="Path 20973" d="M171.859,483.1c1.664-.48,5.624-4.884,5.624-4.884s-5.69-1.627-7.353-1.147a3.139,3.139,0,0,0,1.732,6.031Z" transform="translate(-155.259 -453.836)" fill="#e6a744"/>
      <path id="Path_20974" data-name="Path 20974" d="M202.747,521.719c1.723-.19,6.367-3.853,6.367-3.853s-5.328-2.567-7.054-2.371a3.136,3.136,0,1,0,.687,6.224Z" transform="translate(-177.201 -480.927)" fill="#e6a744"/>
    </g>
    <path id="Path_20975" data-name="Path 20975" d="M776.25,811.063c8.5,3.7,18.868,1.449,28.513,1.71a7.8,7.8,0,0,1,3.774.785,9.674,9.674,0,0,1,2.306,2.564c2.7,3.3,8.241,4.363,13.081,3.8s9.277-2.416,13.845-3.826c7.895-2.442,16.918-3.557,24.706-.889a5.1,5.1,0,0,0,2.232.427c1.708-.216,2.217-1.989,3.41-3,2.155-1.829,6.838-1.331,7.785-3.74.554-1.411-.722-2.857-2.114-3.82-5.328-3.687-12.936-4.295-19.9-3.725s-13.812,2.137-20.813,2.143c-8.724,0-17.151-2.407-25.789-3.394-5.983-.682-12.513-.593-18.122,1.414C783.082,803.683,781.744,808.57,776.25,811.063Z" transform="translate(-564.083 -572.088)" fill="#e6a744" opacity="0.1"/>
    <path id="Path_20976" data-name="Path 20976" d="M232.93,769.254c14.505,4.182,32.207,1.636,48.666,1.932a19.218,19.218,0,0,1,6.447.889c1.809.726,2.7,1.9,3.937,2.9,4.612,3.732,14.064,4.932,22.323,4.3s15.837-2.73,23.634-4.324c13.475-2.759,28.88-4.016,42.171-1.008a12.588,12.588,0,0,0,3.813.483c2.913-.246,3.78-2.247,5.82-3.391,3.68-2.075,11.669-1.5,13.285-4.223.947-1.595-1.231-3.231-3.606-4.318-9.082-4.164-22.077-4.852-33.968-4.209s-23.578,2.413-35.523,2.421c-14.89,0-29.276-2.718-44.021-3.835-10.213-.771-21.358-.676-30.934,1.6C244.593,760.926,242.3,766.447,232.93,769.254Z" transform="translate(-181.597 -541.633)" fill="#e6a744" opacity="0.1"/>
    <path id="Path_20977" data-name="Path 20977" d="M101.77,816.068c4.144,2.5,9.177.978,13.872,1.153a2.946,2.946,0,0,1,1.838.528,6.246,6.246,0,0,1,1.122,1.731,6.116,6.116,0,0,0,6.361,2.564c2.353-.379,4.514-1.627,6.737-2.582,3.848-1.645,8.232-2.395,12.018-.593a1.887,1.887,0,0,0,1.089.3c.829-.148,1.078-1.343,1.658-2.024,1.048-1.233,3.327-.889,3.786-2.522a2.776,2.776,0,0,0-1.027-2.576c-2.587-2.487-6.293-2.9-9.683-2.513s-6.72,1.42-10.127,1.42c-4.242,0-8.342-1.621-12.545-2.288a14.682,14.682,0,0,0-8.818.954C105.094,811.1,104.443,814.394,101.77,816.068Z" transform="translate(-89.263 -578.198)" fill="#e6a744" opacity="0.1"/>
    <path id="Path_20978" data-name="Path 20978" d="M397.914,67.32H260.376A12.6,12.6,0,0,0,247.76,79.913V270.705a12.6,12.6,0,0,0,12.616,12.585H397.914A12.6,12.6,0,0,0,410.53,270.7V79.913A12.6,12.6,0,0,0,397.914,67.32Z" transform="translate(-192.037 -56.762)" fill="url(#linear-gradient)"/>
    <rect id="Rectangle_5225" data-name="Rectangle 5225" width="158.88" height="211.453" rx="20" transform="translate(57.662 13.145)" fill="#535461"/>
    <rect id="Rectangle_5226" data-name="Rectangle 5226" width="142.735" height="171.45" transform="translate(65.735 33.145)" fill="#f6f7f9"/>
    <ellipse id="Ellipse_2143" data-name="Ellipse 2143" cx="1.939" cy="1.941" rx="1.939" ry="1.941" transform="translate(134.518 20.901)" fill="#f6f7f9"/>
    <ellipse id="Ellipse_2144" data-name="Ellipse 2144" cx="5.814" cy="5.821" rx="5.814" ry="5.821" transform="translate(130.643 208.43)" fill="#f6f7f9"/>
    <g id="Group_11749" data-name="Group 11749" transform="translate(65.735 33.145)" opacity="0.2">
      <rect id="Rectangle_5227" data-name="Rectangle 5227" width="142.735" height="8.545" fill="#e6a744"/>
    </g>
    <ellipse id="Ellipse_2145" data-name="Ellipse 2145" cx="1.821" cy="1.823" rx="1.821" ry="1.823" transform="translate(68.378 35.596)" fill="#f6f7f9"/>
    <ellipse id="Ellipse_2146" data-name="Ellipse 2146" cx="1.821" cy="1.823" rx="1.821" ry="1.823" transform="translate(73.017 35.596)" fill="#f6f7f9"/>
    <ellipse id="Ellipse_2147" data-name="Ellipse 2147" cx="1.821" cy="1.823" rx="1.821" ry="1.823" transform="translate(77.653 35.596)" fill="#f6f7f9"/>
    <rect id="Rectangle_5228" data-name="Rectangle 5228" width="132.916" height="0.445" transform="translate(69.997 83.545)" fill="#dce0ed"/>
    <rect id="Rectangle_5229" data-name="Rectangle 5229" width="132.916" height="0.445" transform="translate(69.997 93.868)" fill="#dce0ed"/>
    <rect id="Rectangle_5230" data-name="Rectangle 5230" width="132.916" height="0.445" transform="translate(69.997 104.194)" fill="#dce0ed"/>
    <rect id="Rectangle_5231" data-name="Rectangle 5231" width="132.916" height="0.445" transform="translate(69.997 114.517)" fill="#dce0ed"/>
    <rect id="Rectangle_5232" data-name="Rectangle 5232" width="132.916" height="0.445" transform="translate(69.997 124.841)" fill="#dce0ed"/>
    <g id="Group_11750" data-name="Group 11750" transform="translate(69.835 89.843)" opacity="0.2">
      <path id="Path_20979" data-name="Path 20979" d="M368.989,338.622H235.91v-20.3l12.2,6.023,12.631,1.716,11.083-3.346L285.2,312.329l6.726-3.889,4.917-.948,4.7.252,7.735,3.826,10.518,6.707,8.253,1.061,6.542-2.258,13.872-11.372,7.081-2.528,7.409,1.147,6.033,3.488Z" transform="translate(-235.91 -303.18)" fill="#e6a744"/>
    </g>
    <path id="Path_20980" data-name="Path 20980" d="M318.619,357.523c-11.986,0-23.06-7.339-23.2-7.433l.332-.492c.172.116,17.217,11.4,31.7,5.75,5.281-2.075,9.04-5.27,12.679-8.373,3.8-3.239,7.383-6.3,12.273-7.626a18.34,18.34,0,0,1,16.391,3.687c3.981,3.275,11.909,8.533,20.283,6.962,4.269-.8,7.865-3.924,11.675-7.229,7.3-6.337,14.857-12.89,27.924-3.488l-.346.48c-12.687-9.129-20.058-2.73-27.19,3.456-3.872,3.358-7.528,6.52-11.953,7.362-8.614,1.618-16.707-3.746-20.769-7.087a17.765,17.765,0,0,0-15.861-3.571c-4.76,1.292-8.289,4.309-12.045,7.5-3.674,3.136-7.472,6.375-12.844,8.474a24.756,24.756,0,0,1-9.049,1.624Z" transform="translate(-225.588 -244.808)" fill="#e6a744"/>
    <ellipse id="Ellipse_2148" data-name="Ellipse 2148" cx="3.295" cy="3.299" rx="3.295" ry="3.299" transform="translate(130.661 90.827)" fill="#e6a744"/>
    <g id="Group_11751" data-name="Group 11751" transform="translate(134.696 50.475)" opacity="0.2">
      <path id="Path_20981" data-name="Path 20981" d="M556.776,202H515.215a.675.675,0,0,0-.675.676v28.142a.675.675,0,0,0,1.166.462l7.2-7.691a.671.671,0,0,1,.491-.213h33.376a.675.675,0,0,0,.675-.676V202.67A.675.675,0,0,0,556.776,202Z" transform="translate(-514.54 -202)" fill="#e6a744"/>
    </g>
    <rect id="Rectangle_5233" data-name="Rectangle 5233" width="23.667" height="2.964" transform="translate(144.316 55.685)" fill="#f6f7f9"/>
    <rect id="Rectangle_5234" data-name="Rectangle 5234" width="6.498" height="2.964" transform="translate(144.316 62.253)" fill="#f6f7f9"/>
    <g id="Group_11752" data-name="Group 11752" transform="translate(81.223 146.494)" opacity="0.2">
      <rect id="Rectangle_5235" data-name="Rectangle 5235" width="6.498" height="2.964" fill="#e6a744"/>
    </g>
    <g id="Group_11753" data-name="Group 11753" transform="translate(81.223 152.224)" opacity="0.2">
      <rect id="Rectangle_5236" data-name="Rectangle 5236" width="6.498" height="2.964" fill="#e6a744"/>
    </g>
    <g id="Group_11754" data-name="Group 11754" transform="translate(81.223 157.953)" opacity="0.2">
      <rect id="Rectangle_5237" data-name="Rectangle 5237" width="6.498" height="2.964" fill="#e6a744"/>
    </g>
    <g id="Group_11755" data-name="Group 11755" transform="translate(81.223 163.685)" opacity="0.2">
      <rect id="Rectangle_5238" data-name="Rectangle 5238" width="6.498" height="2.964" fill="#e6a744"/>
    </g>
    <g id="Group_11756" data-name="Group 11756" transform="translate(81.223 169.414)" opacity="0.2">
      <rect id="Rectangle_5239" data-name="Rectangle 5239" width="6.498" height="2.964" fill="#e6a744"/>
    </g>
    <g id="Group_11757" data-name="Group 11757" transform="translate(81.223 175.143)" opacity="0.2">
      <rect id="Rectangle_5240" data-name="Rectangle 5240" width="6.498" height="2.964" fill="#e6a744"/>
    </g>
    <g id="Group_11758" data-name="Group 11758" transform="translate(81.223 180.875)" opacity="0.2">
      <rect id="Rectangle_5241" data-name="Rectangle 5241" width="6.498" height="2.964" fill="#e6a744"/>
    </g>
    <g id="Group_11759" data-name="Group 11759" transform="translate(81.223 186.604)" opacity="0.2">
      <rect id="Rectangle_5242" data-name="Rectangle 5242" width="6.498" height="2.964" fill="#e6a744"/>
    </g>
    <g id="Group_11760" data-name="Group 11760" transform="translate(93.457 189.568)" opacity="0.2">
      <rect id="Rectangle_5243" data-name="Rectangle 5243" width="6.498" height="2.964" fill="#e6a744"/>
    </g>
    <g id="Group_11761" data-name="Group 11761" transform="translate(104.904 189.568)" opacity="0.2">
      <rect id="Rectangle_5244" data-name="Rectangle 5244" width="6.498" height="2.964" fill="#e6a744"/>
    </g>
    <g id="Group_11762" data-name="Group 11762" transform="translate(116.351 189.568)" opacity="0.2">
      <rect id="Rectangle_5245" data-name="Rectangle 5245" width="6.498" height="2.964" fill="#e6a744"/>
    </g>
    <g id="Group_11763" data-name="Group 11763" transform="translate(127.795 189.568)" opacity="0.2">
      <rect id="Rectangle_5246" data-name="Rectangle 5246" width="6.498" height="2.964" fill="#e6a744"/>
    </g>
    <g id="Group_11764" data-name="Group 11764" transform="translate(139.243 189.568)" opacity="0.2">
      <rect id="Rectangle_5247" data-name="Rectangle 5247" width="6.498" height="2.964" fill="#e6a744"/>
    </g>
    <g id="Group_11765" data-name="Group 11765" transform="translate(150.69 189.568)" opacity="0.2">
      <rect id="Rectangle_5248" data-name="Rectangle 5248" width="6.498" height="2.964" fill="#e6a744"/>
    </g>
    <g id="Group_11766" data-name="Group 11766" transform="translate(162.134 189.568)" opacity="0.2">
      <rect id="Rectangle_5249" data-name="Rectangle 5249" width="6.498" height="2.964" fill="#e6a744"/>
    </g>
    <g id="Group_11767" data-name="Group 11767" transform="translate(173.581 189.568)" opacity="0.2">
      <rect id="Rectangle_5250" data-name="Rectangle 5250" width="6.498" height="2.964" fill="#e6a744"/>
    </g>
    <g id="Group_11768" data-name="Group 11768" transform="translate(185.028 189.568)" opacity="0.2">
      <rect id="Rectangle_5251" data-name="Rectangle 5251" width="6.498" height="2.964" fill="#e6a744"/>
    </g>
    <rect id="Rectangle_5252" data-name="Rectangle 5252" width="9.866" height="2.964" transform="translate(158.117 62.253)" fill="#f6f7f9"/>
    <rect id="Rectangle_5253" data-name="Rectangle 5253" width="6.498" height="18.574" transform="translate(93.457 168.03)" fill="#e6a744"/>
    <rect id="Rectangle_5254" data-name="Rectangle 5254" width="6.498" height="27.17" transform="translate(104.904 159.435)" fill="#e6a744"/>
    <rect id="Rectangle_5255" data-name="Rectangle 5255" width="6.498" height="34.381" transform="translate(116.351 152.224)" fill="#e6a744"/>
    <rect id="Rectangle_5256" data-name="Rectangle 5256" width="6.498" height="30.64" transform="translate(127.795 155.961)" fill="#e6a744"/>
    <rect id="Rectangle_5257" data-name="Rectangle 5257" width="6.498" height="37.146" transform="translate(139.243 149.458)" fill="#e6a744"/>
    <g id="Group_11769" data-name="Group 11769" transform="translate(150.69 163.685)" opacity="0.2">
      <rect id="Rectangle_5258" data-name="Rectangle 5258" width="6.498" height="22.919" fill="#e6a744"/>
    </g>
    <g id="Group_11770" data-name="Group 11770" transform="translate(162.134 163.685)" opacity="0.2">
      <rect id="Rectangle_5259" data-name="Rectangle 5259" width="6.498" height="22.919" fill="#e6a744"/>
    </g>
    <g id="Group_11771" data-name="Group 11771" transform="translate(173.581 163.685)" opacity="0.2">
      <rect id="Rectangle_5260" data-name="Rectangle 5260" width="6.498" height="22.919" fill="#e6a744"/>
    </g>
    <g id="Group_11772" data-name="Group 11772" transform="translate(185.028 163.685)" opacity="0.2">
      <rect id="Rectangle_5261" data-name="Rectangle 5261" width="6.498" height="22.919" fill="#e6a744"/>
    </g>
    <path id="Path_20982" data-name="Path 20982" d="M897.6,215.3a81.229,81.229,0,0,0-9.709-5.062l-.142-.1a5.885,5.885,0,0,1-1.776-2.244c0-.163,0-.323,0-.483v.047c.112-2.146,1.637-4.1,3.085-5.8l3.7-4.357a4.23,4.23,0,0,0,.953-1.512,3.379,3.379,0,0,0,.1-.928v-.379c-.018-1.082-.05-2.167-.089-3.26-.036-.945-.278-2.137-1.223-2.333-.491-.1-1.14.077-1.4-.347a.807.807,0,0,1-.062-.56.252.252,0,0,0,0,.044v-.053a12.574,12.574,0,0,0,.352-2.226,3.1,3.1,0,0,0-.154-1.126c-.548-1.571-2.43-2.214-4.1-2.51s-3.531-.551-4.576-1.855a13.666,13.666,0,0,0-.909-1.254,3.607,3.607,0,0,0-1.7-.842,9.607,9.607,0,0,0-6.193.539,5.569,5.569,0,0,1-2.5.791c-.882-.053-1.7-.691-2.608-.845a3.719,3.719,0,0,0-3.582,2.1,5.129,5.129,0,0,0-.663,2.478v.145h0a3.615,3.615,0,0,0,.95,2.528c.63.655,1.572,1.106,1.832,1.968.107.35.08.729.175,1.085a.42.42,0,0,0,.041.13l-.047.062a10.99,10.99,0,0,0-2.321,6.781,11.231,11.231,0,0,0,7.883,10.652v.332a4.772,4.772,0,0,1-1.53,3.729l-9.964,4.013s-6.006-.714-8.173,8.076a14.874,14.874,0,0,0-.373,4.461,13.09,13.09,0,0,1-1.643,6.681c-2.466,4.831-1.9,15.922,3.135,17.021,4.757,1.037,6.619.593,6.808.554v.193c-.077,2.075-.832,20.033-3.576,22.205-.758.593-.616,1.008,0,1.28,0,0,0,.116-.018.323-.083,1.313-.506,6.313-2.342,9.158-2.128,3.293-1.906,22.294-1.906,22.294l-1.43,11.212s.888,6.918,0,8.127c-.8,1.076-1.865,26.675-2.072,32.22h-.095a2.69,2.69,0,0,0-2.152,1.313c-1.184,1.915-5.3,5.45-5.3,5.45-.888,1.272-4.2,2.487-5.95,3.062a3.608,3.608,0,0,0-.675.3,3.555,3.555,0,0,0-1.5,1.583,1.715,1.715,0,0,0-.163,1.322c.45,1.1,9.745,1.864,12.1.768,1.85-.865,9.177-2,12.217-2.445a2.515,2.515,0,0,0,2.176-2.175,1.439,1.439,0,0,0-.3-1.091h0c-.592-.723-.888-2.694-1.015-3.98a2.625,2.625,0,0,0,.684-.406,29.236,29.236,0,0,1,1.678-11.749c2.241-5.928,2.913-16.915,2.368-24.052,0,0,6.832-29.431,12.208-32.179h0c.083.1,2.691,3.459,3.022,13.835a42.028,42.028,0,0,0,4.144,17.46s-1.681,17.9,0,24.6l-2.2,10.569c-.16-.139-.263-.246-.263-.246s.065.3.157.765l-.047.222.095.024a20.859,20.859,0,0,1,.468,4.976c-.089.768-.3,1.823-.45,2.857-.231,1.627-.3,3.2.56,3.557,1.4.563,9.633,1.334,11.033-.477a2.6,2.6,0,0,0,.409-2.715,2.772,2.772,0,0,0-.409-.691s-2.185-3.577-1.569-6.1a1.845,1.845,0,0,0-.26-1.449,73.854,73.854,0,0,1,1.886-11.835c1.4-5.285,4.357-16.87,2.182-24.49h0c-.083-.3-.178-.593-.278-.889a32.872,32.872,0,0,1-1.232-12.848,26.2,26.2,0,0,1,0-11.2c1.344-6.15,2.282-12.19,2.282-12.19s.743-8.124.095-13.106l-.044-.32.355-.08s-1.9-8.456-2.575-13.835c-.16-1.272-.367-2.881-.592-4.6a11.123,11.123,0,0,0,1.826-.453c6.027-2.1,7.922-20.981,7.922-20.981v-5.987S904.66,219.362,897.6,215.3ZM852.548,361.14c-.187-.095-.3-.157-.3-.157h0Z" transform="translate(-604.695 -134.548)" fill="url(#linear-gradient-2)"/>
    <path id="Path_20983" data-name="Path 20983" d="M932.713,544.489c2.623,7.552-.438,19.807-1.859,25.279A76.619,76.619,0,0,0,929,581.81a25.271,25.271,0,0,1-9.618-.222l2.294-11.263c-1.64-6.675,0-24.514,0-24.514a42.567,42.567,0,0,1-4.044-17.4c-.323-10.344-2.868-13.684-2.96-13.788h0c-5.245,2.736-11.915,32.069-11.915,32.069.548,7.113-.11,18.056-2.294,23.966a29.734,29.734,0,0,0-1.64,11.71,3.6,3.6,0,0,1-2.975.572c-3.111-.519-6.844-3.21-6.844-3.21s1.184-31.953,2.072-33.16,0-8.1,0-8.1l1.418-11.162s-.216-18.936,1.859-22.229c1.794-2.836,2.205-7.819,2.285-9.126a2.369,2.369,0,0,1,.018-.323l3.161-3.794s30.609-2.3,32.9,0a6.56,6.56,0,0,1,1.119,3.462c.63,4.964-.092,13.062-.092,13.062s-.918,6.02-2.229,12.152a26.583,26.583,0,0,0,0,11.162,33.391,33.391,0,0,0,1.2,12.816Z" transform="translate(-643.456 -354.74)" fill="#65617d"/>
    <path id="Path_20984" data-name="Path 20984" d="M1002.783,801.706c-1.368,1.805-9.4,1.037-10.769.477-.835-.347-.77-1.918-.545-3.539.142-1.031.352-2.075.438-2.848a26.173,26.173,0,0,0-.657-5.966s1.806,1.915,2.241,0a2.088,2.088,0,0,1,1.56-1.482,4.1,4.1,0,0,1,2.839.178c1.418.617,3.789,1.932,3.363,3.711-.592,2.513,1.53,6.079,1.53,6.079a2.777,2.777,0,0,1,.4.688A2.634,2.634,0,0,1,1002.783,801.706Z" transform="translate(-715.438 -563.967)" fill="#a27772"/>
    <path id="Path_20985" data-name="Path 20985" d="M1002.955,826.562c-1.368,1.8-9.4,1.037-10.769.477-.835-.347-.77-1.918-.545-3.539a9.28,9.28,0,0,0,4.775.513,13.876,13.876,0,0,1,1.72-.053,39.651,39.651,0,0,0,5.216-.1A2.634,2.634,0,0,1,1002.955,826.562Z" transform="translate(-715.61 -588.822)" opacity="0.1"/>
    <path id="Path_20986" data-name="Path 20986" d="M919.059,598.173c.548,7.113-.11,18.056-2.294,23.966a29.734,29.734,0,0,0-1.64,11.71,3.6,3.6,0,0,1-2.975.572c.66-4.624,3.469-24.505,5.284-40.216A65.715,65.715,0,0,1,929.062,564l1.912,2.107C925.723,568.84,919.059,598.173,919.059,598.173Z" transform="translate(-659.753 -406.234)" opacity="0.1"/>
    <path id="Path_20987" data-name="Path 20987" d="M966.16,260l-1.335,6.565-6.536,11-8.061-3.447s-10.953-11.491-4.07-13.133a6.033,6.033,0,0,0,2.285-1.02,4.7,4.7,0,0,0,1.776-3.957,12.385,12.385,0,0,0-1.119-4.71l14.1-4.446a22.574,22.574,0,0,0-1.012,5.72c-.107,3.853,1.32,5.738,2.49,6.642A4.273,4.273,0,0,0,966.16,260Z" transform="translate(-682.095 -183.082)" fill="#fbbebe"/>
    <path id="Path_20988" data-name="Path 20988" d="M975.629,246.9a22.572,22.572,0,0,0-1.012,5.72,10.341,10.341,0,0,1-.82.871,11.141,11.141,0,0,1-11.148,2.549,12.386,12.386,0,0,0-1.119-4.71Z" transform="translate(-694.516 -183.118)" opacity="0.1"/>
    <path id="Path_20989" data-name="Path 20989" d="M961.6,214.3a11.108,11.108,0,1,1-3.246-7.9A11.155,11.155,0,0,1,961.6,214.3Z" transform="translate(-678.866 -152.327)" fill="#fbbebe"/>
    <path id="Path_20990" data-name="Path 20990" d="M966.16,289.381l-1.335,6.565-6.536,11-8.061-3.447s-10.953-11.491-4.07-13.133a6.033,6.033,0,0,0,2.285-1.02c-1.243,3.423,3.89,10.542,3.89,10.542.592.889,1.969.326,1.969.326,3.3-.5,9.393-10.021,10.384-11.6A4.273,4.273,0,0,0,966.16,289.381Z" transform="translate(-682.095 -212.465)" opacity="0.1"/>
    <path id="Path_20991" data-name="Path 20991" d="M951.981,495.358c-1.939.442-12.679,2.825-16.752,2.229-4.479-.658-13.194-1.094-13.194-1.094s-5.547.3-7.255-.48a2.361,2.361,0,0,1,.018-.323l3.161-3.794s30.609-2.3,32.9,0A6.519,6.519,0,0,1,951.981,495.358Z" transform="translate(-661.605 -354.783)" opacity="0.1"/>
    <path id="Path_20992" data-name="Path 20992" d="M913.72,300.488s-5.766-8-3.594-11.111l-9.742,4s-5.864-.711-7.993,8.05a15.175,15.175,0,0,0-.364,4.446,13.261,13.261,0,0,1-1.6,6.657c-2.407,4.816-1.859,15.868,3.061,16.965s6.666.545,6.666.545-.654,20.03-3.5,22.327,7.244,1.752,7.244,1.752,8.715.439,13.2,1.094,17.051-2.3,17.051-2.3-1.859-8.429-2.513-13.791-2.188-16.781-2.188-16.781L940.6,307.225s1.966-9.138-4.92-13.186A77.636,77.636,0,0,0,926.2,289s-6.909,11.263-10.515,11.817C915.688,300.817,914.318,301.368,913.72,300.488Z" transform="translate(-643.482 -212.74)" fill="#e6a744"/>
    <path id="Path_20993" data-name="Path 20993" d="M924.8,338.47s-.11,3.613.545,5.039,3.061,9.3,3.061,9.3H922.94s2.96-3.174,2.732-4.707S924.8,338.47,924.8,338.47Z" transform="translate(-667.349 -247.548)" opacity="0.1"/>
    <path id="Path_20994" data-name="Path 20994" d="M942.427,394s-12.072-2.964-13.2-5.474-4.23-8.148-4.23-8.148l1.273-1.719,5.873,4.615s6.995,5.581,10.275,6.129S942.427,394,942.427,394Z" transform="translate(-668.799 -275.826)" fill="#fbbebe"/>
    <path id="Path_20995" data-name="Path 20995" d="M942.427,394s-12.072-2.964-13.2-5.474-4.23-8.148-4.23-8.148l1.273-1.719,5.873,4.615s6.995,5.581,10.275,6.129S942.427,394,942.427,394Z" transform="translate(-668.799 -275.826)" opacity="0.05"/>
    <path id="Path_20996" data-name="Path 20996" d="M967.268,382.287v6.556h-1.054a30.615,30.615,0,0,0-14.858,3.85l-1.977,1.1-.53.3-3.389-7.641,3.17-2.845h.163c.776.074,4.13.356,5.55-.124,1.35-.459,3.025-1.915,7-.889,1.96.5,3.632,2.7,5.533,2.012Z" transform="translate(-683.203 -278.339)" fill="#fbbebe"/>
    <path id="Path_20997" data-name="Path 20997" d="M998.157,324.491l2.188,2.46v5.966s-1.859,18.823-7.762,20.9-16.438-1.206-16.438-1.206-2.723-7.223-1.451-7.659,11.249-3.076,11.249-3.076-.139-11.043,2.046-14.327c0,0-1.421-10.285,3.5-10.5S998.157,324.491,998.157,324.491Z" transform="translate(-703.545 -232.472)" opacity="0.1"/>
    <path id="Path_20998" data-name="Path 20998" d="M999.238,324.491l2.188,2.46v5.966s-1.853,18.823-7.774,20.9-16.441-1.206-16.441-1.206-2.72-7.223-1.448-7.659,11.249-3.076,11.249-3.076-.142-11.043,2.046-14.327c0,0-1.421-10.285,3.5-10.5S999.238,324.491,999.238,324.491Z" transform="translate(-704.297 -232.472)" fill="#e6a744"/>
    <path id="Path_20999" data-name="Path 20999" d="M963.959,219.052a4.351,4.351,0,0,0-.249-2.131,1.648,1.648,0,0,0-1.735-1c-.935.219-1.338,1.437-2.256,1.731a1.775,1.775,0,0,1-1.983-1.025,5.254,5.254,0,0,1-.382-2.371v-2.742a4.529,4.529,0,0,0-.645-2.851,5.017,5.017,0,0,0-3.748-1.36,3.171,3.171,0,0,0-2.14.865,2.759,2.759,0,0,1-2.253.8A1.946,1.946,0,0,1,947,207.608v-.036a11.154,11.154,0,1,1,16.577,14.819A29.867,29.867,0,0,0,963.959,219.052Z" transform="translate(-684.287 -152.332)" opacity="0.1"/>
    <path id="Path_21000" data-name="Path 21000" d="M941.7,192.446a1.949,1.949,0,0,1-1.569-1.36c-.092-.353-.068-.729-.172-1.082-.255-.86-1.184-1.307-1.776-1.959a4.406,4.406,0,0,1-.278-5.039,3.626,3.626,0,0,1,3.5-2.092c.888.154,1.649.785,2.546.842a5.181,5.181,0,0,0,2.436-.788,9.166,9.166,0,0,1,6.042-.536,3.512,3.512,0,0,1,1.664.839,14.834,14.834,0,0,1,.888,1.248c1.021,1.3,2.845,1.556,4.47,1.849s3.461.937,4,2.5a6.6,6.6,0,0,1-.192,3.242.938.938,0,0,0,.042.667c.255.421.888.246,1.368.347.924.193,1.16,1.381,1.184,2.324q.059,1.618.089,3.237a3.182,3.182,0,0,1-1.027,2.706l-3.609,4.342c-1.6,1.926-3.3,4.17-2.978,6.654a1.542,1.542,0,0,1-1.906-1.111,4.985,4.985,0,0,1,.118-2.463,30.188,30.188,0,0,0,.571-4.274,4.346,4.346,0,0,0-.249-2.131,1.632,1.632,0,0,0-1.735-1c-.935.219-1.338,1.437-2.256,1.731a1.777,1.777,0,0,1-1.983-1.025,5.254,5.254,0,0,1-.382-2.371v-2.745a4.533,4.533,0,0,0-.645-2.851,5.017,5.017,0,0,0-3.748-1.36,3.177,3.177,0,0,0-2.14.865A2.807,2.807,0,0,1,941.7,192.446Z" transform="translate(-677.429 -136.15)" fill="#7c5c5c"/>
    <path id="Path_21001" data-name="Path 21001" d="M960.79,337.55l3.422,14.078S966.912,351.613,960.79,337.55Z" transform="translate(-693.995 -246.9)" opacity="0.1"/>
    <path id="Path_21002" data-name="Path 21002" d="M992.839,329.61s-4.482,7.35-2.732,14.947l.835.062S989.449,341.1,992.839,329.61Z" transform="translate(-714.348 -241.314)" opacity="0.1"/>
    <path id="Path_21003" data-name="Path 21003" d="M1009.9,469s5.5-1.823,5.9,2.407C1015.8,471.409,1014.764,468.511,1009.9,469Z" transform="translate(-728.567 -339.118)" opacity="0.1"/>
    <path id="Path_21004" data-name="Path 21004" d="M933.819,388s-1.092,7.662.888,10.726a23.972,23.972,0,0,1-9.621,1.313L924.42,388Z" transform="translate(-668.391 -282.398)" opacity="0.1"/>
    <path id="Path_21005" data-name="Path 21005" d="M949.379,397.04l-.53.3L945.46,389.7l3.17-2.845h.163C948.743,387.218,947.861,393.8,949.379,397.04Z" transform="translate(-683.203 -281.589)" opacity="0.1"/>
    <path id="Path_21006" data-name="Path 21006" d="M926.307,386.85s-1.092,7.659.888,10.723a23.973,23.973,0,0,1-9.621,1.313L913.75,386.85Z" transform="translate(-660.88 -281.589)" fill="#e6a744"/>
    <path id="Path_21007" data-name="Path 21007" d="M862.6,796.39a2.473,2.473,0,0,1-2.122,2.167c-2.96.445-10.118,1.577-11.924,2.436-2.294,1.094-11.367.329-11.805-.765a1.739,1.739,0,0,1,.157-1.316,3.529,3.529,0,0,1,1.48-1.58,3.633,3.633,0,0,1,.657-.3c1.708-.572,4.935-1.778,5.808-3.053,0,0,4.023-3.524,5.169-5.43a2.631,2.631,0,0,1,2.1-1.31c.959-.044,2.025.439,2.46,2.54,0,0,5.245,3,6.663.367,0,0,.219,4.037,1.089,5.139h0A1.465,1.465,0,0,1,862.6,796.39Z" transform="translate(-606.627 -563.31)" fill="#a27772"/>
    <path id="Path_21008" data-name="Path 21008" d="M862.6,815.514a2.473,2.473,0,0,1-2.122,2.167c-2.96.445-10.118,1.577-11.924,2.436-2.294,1.094-11.367.329-11.805-.765a1.739,1.739,0,0,1,.157-1.316,3.528,3.528,0,0,1,1.48-1.58c1.48.984,4.763,1.944,11.986.815,6.888-1.076,10.3-2.131,11.962-2.851h0A1.465,1.465,0,0,1,862.6,815.514Z" transform="translate(-606.627 -582.433)" opacity="0.1"/>
    <g id="Group_11773" data-name="Group 11773" transform="translate(259.829 49.197)" opacity="0.1">
      <path id="Path_21009" data-name="Path 21009" d="M1024.926,208.27v-.053a10.141,10.141,0,0,0,.338-2.487,15.938,15.938,0,0,1-.338,1.995A1.213,1.213,0,0,0,1024.926,208.27Z" transform="translate(-998.953 -203.347)"/>
      <path id="Path_21010" data-name="Path 21010" d="M956.85,212.856a3.228,3.228,0,0,1,.269,1.251,3.732,3.732,0,0,0-.269-1.743,1.631,1.631,0,0,0-1.732-1c-.935.219-1.338,1.437-2.256,1.731a1.781,1.781,0,0,1-1.986-1.025,5.213,5.213,0,0,1-.379-2.371v-2.745a4.533,4.533,0,0,0-.645-2.851,5.021,5.021,0,0,0-3.748-1.36,3.171,3.171,0,0,0-2.14.865,2.765,2.765,0,0,1-2.253.8,1.949,1.949,0,0,1-1.569-1.36c-.092-.353-.068-.729-.172-1.082-.258-.86-1.184-1.307-1.776-1.959a3.559,3.559,0,0,1-.921-2.315,3.731,3.731,0,0,0,.921,2.807c.616.652,1.53,1.1,1.776,1.962.1.35.08.726.172,1.079a1.948,1.948,0,0,0,1.569,1.36,2.748,2.748,0,0,0,2.253-.8,3.171,3.171,0,0,1,2.14-.865,5.046,5.046,0,0,1,3.748,1.36,4.561,4.561,0,0,1,.645,2.851v2.745a5.005,5.005,0,0,0,.379,2.371,1.8,1.8,0,0,0,1.986,1.026c.918-.3,1.32-1.512,2.256-1.731A1.635,1.635,0,0,1,956.85,212.856Z" transform="translate(-937.259 -197.69)"/>
      <path id="Path_21011" data-name="Path 21011" d="M1015.824,237.044a4.2,4.2,0,0,1-.93,1.506q-1.8,2.173-3.608,4.342c-1.519,1.829-3.129,3.945-3.011,6.277.11-2.14,1.6-4.087,3.011-5.785l3.608-4.339a4.238,4.238,0,0,0,.93-1.509,4.077,4.077,0,0,0,.095-1.186,2.852,2.852,0,0,1-.095.694Z" transform="translate(-987.249 -224.892)"/>
      <path id="Path_21012" data-name="Path 21012" d="M1001.721,275.713a2.6,2.6,0,0,1-.107-.593,2.967,2.967,0,0,0,.107,1.079,1.543,1.543,0,0,0,1.909,1.108c-.021-.16-.033-.32-.039-.48A1.528,1.528,0,0,1,1001.721,275.713Z" transform="translate(-982.556 -252.171)"/>
    </g>
    <path id="Path_21013" data-name="Path 21013" d="M879.26,795s1.143,2.012,5.281.24" transform="translate(-636.599 -568.769)" opacity="0.1"/>
    <path id="Path_21014" data-name="Path 21014" d="M997.5,796.67s3.57,4.209,8.07,1.378" transform="translate(-719.838 -569.944)" opacity="0.1"/>
    <path id="Path_21015" data-name="Path 21015" d="M1026.407,628.7s-2.525,1.58-2.6,2.484,1.3-.658,1.3-.658Z" transform="translate(-738.352 -451.758)" opacity="0.1"/>
    <path id="Path_21016" data-name="Path 21016" d="M1025.229,669.53a5.269,5.269,0,0,1-3.108,1.215c-1.886.083-1.729,2.546-.5,1.8A31.458,31.458,0,0,0,1025.229,669.53Z" transform="translate(-736.17 -480.487)" opacity="0.1"/>
    <path id="Path_21017" data-name="Path 21017" d="M1032.373,674.86s-1.211,5.957-2.193,4.807" transform="translate(-742.844 -484.237)" opacity="0.1"/>
    <path id="Path_21018" data-name="Path 21018" d="M185.626,768.36s1.625,2.128-.752,5.335-4.337,5.928-3.552,7.931c0,0,3.585-5.969,6.512-6.052S188.838,771.949,185.626,768.36Z" transform="translate(-145.142 -550.025)" fill="#e6a744"/>
    <path id="Path_21019" data-name="Path 21019" d="M185.861,768.36a2.559,2.559,0,0,1,.332.667c2.848,3.349,4.366,6.476,1.628,6.556-2.549.071-5.624,4.638-6.341,5.791a2.684,2.684,0,0,0,.086.261s3.585-5.969,6.512-6.052S189.073,771.949,185.861,768.36Z" transform="translate(-145.377 -550.025)" opacity="0.1"/>
    <path id="Path_21020" data-name="Path 21020" d="M205.6,776.374c0,.75-.083,1.357-.186,1.357s-.189-.608-.189-1.357.107-.394.21-.394S205.6,775.63,205.6,776.374Z" transform="translate(-162.089 -555.327)" fill="#ffd037"/>
    <path id="Path_21021" data-name="Path 21021" d="M206.943,779.314c-.657.359-1.231.575-1.282.486s.444-.456,1.1-.815.4-.1.447,0S207.6,778.955,206.943,779.314Z" transform="translate(-162.398 -557.371)" fill="#ffd037"/>
    <path id="Path_21022" data-name="Path 21022" d="M158.576,768.36s-1.625,2.128.752,5.335,4.337,5.928,3.552,7.931c0,0-3.585-5.969-6.512-6.052S155.367,771.949,158.576,768.36Z" transform="translate(-126.682 -550.025)" fill="#e6a744"/>
    <path id="Path_21023" data-name="Path 21023" d="M158.561,768.36a2.67,2.67,0,0,0-.332.667c-2.848,3.349-4.366,6.476-1.628,6.556,2.552.071,5.624,4.638,6.341,5.791a2.074,2.074,0,0,1-.086.261s-3.585-5.969-6.512-6.052S155.352,771.949,158.561,768.36Z" transform="translate(-126.667 -550.025)" opacity="0.1"/>
    <path id="Path_21024" data-name="Path 21024" d="M157.05,776.374c0,.75.083,1.357.186,1.357s.189-.608.189-1.357-.107-.394-.21-.394S157.05,775.63,157.05,776.374Z" transform="translate(-128.179 -555.327)" fill="#ffd037"/>
    <path id="Path_21025" data-name="Path 21025" d="M152.6,779.314c.657.359,1.228.575,1.279.486s-.444-.456-1.1-.815-.4-.1-.447,0S151.94,778.955,152.6,779.314Z" transform="translate(-124.762 -557.371)" fill="#ffd037"/>
    <path id="Path_21026" data-name="Path 21026" d="M158.8,806.371s4.547-.139,5.92-1.117,6.992-2.143,7.332-.575,6.832,7.792,1.7,7.833-11.927-.8-13.294-1.636S158.8,806.371,158.8,806.371Z" transform="translate(-129.411 -575.039)" fill="#a8a8a8"/>
    <path id="Path_21027" data-name="Path 21027" d="M173.841,817.792c-5.133.042-11.927-.8-13.294-1.636-1.042-.634-1.456-2.914-1.6-3.966H158.8s.3,3.672,1.655,4.505,8.161,1.678,13.294,1.636c1.48,0,2-.539,1.966-1.322C175.51,817.486,174.945,817.783,173.841,817.792Z" transform="translate(-129.411 -580.864)" opacity="0.2"/>
  </g>
</svg>
