<svg xmlns="http://www.w3.org/2000/svg" xmlns:xlink="http://www.w3.org/1999/xlink" width="200" height="150" viewBox="0 0 500 378">
  <defs>
    <linearGradient id="linear-gradient" x1="0.5" y1="1" x2="0.5" gradientUnits="objectBoundingBox">
      <stop offset="0" stop-color="gray" stop-opacity="0.251"/>
      <stop offset="0.54" stop-color="gray" stop-opacity="0.122"/>
      <stop offset="1" stop-color="gray" stop-opacity="0.102"/>
    </linearGradient>
    <linearGradient id="linear-gradient-2" x1="0.5" x2="0.5" y2="0" xlink:href="#linear-gradient"/>
    <linearGradient id="linear-gradient-3" x1="0.5" x2="0.5" y2="0" xlink:href="#linear-gradient"/>
    <linearGradient id="linear-gradient-4" x1="1.096" x2="1.096" y2="0" xlink:href="#linear-gradient"/>
    <linearGradient id="linear-gradient-5" x1="0.5" x2="0.5" y2="0" xlink:href="#linear-gradient"/>
  </defs>
  <g id="undraw_team_spirit_hrr4" transform="translate(0.013 -0.004)">
    <path id="Path_21166" data-name="Path 21166" d="M43.44,426.65c7.911,30.844,24.66,57.506,51.13,70.429,55.032,26.86,179.069,13.006,271.655-2.893,47.9-8.227,89.98-30.91,120.564-62.875Z" transform="translate(-38.05 -247.911)" fill="#e6a744" opacity="0.1"/>
    <path id="Path_21167" data-name="Path 21167" d="M545.282,53.7h-50.8a4.023,4.023,0,1,1,0-8.011h8.79a4.226,4.226,0,0,1-4.395-4.006,4.22,4.22,0,0,1,4.395-4H497a4.226,4.226,0,0,1-4.395-4.006A4.224,4.224,0,0,1,497,29.67h26.514a75.092,75.092,0,0,0-20.682-5.2C430.532,16,404.717,21.6,395.6,27.366a106.376,106.376,0,0,1-37.159,14.857c-44.608,8.394-128.031,18.493-203.645-3.236-37.58-10.794-65.51,7.475-82.254,37.949H554.1a66.325,66.325,0,0,0-5.964-24.213A4.6,4.6,0,0,1,545.282,53.7Z" transform="translate(-54.361 -20.14)" fill="#e6a744" opacity="0.1"/>
    <path id="Path_21168" data-name="Path 21168" d="M32.238,280.23a186.483,186.483,0,0,0,1.973,53.813l446.026,14.879a190.451,190.451,0,0,0,30.988-43.089Zm176.4,38.389h-8.79a4.021,4.021,0,1,1,0,8.007H149.067a4.021,4.021,0,1,1,0-8.007h8.79a4.023,4.023,0,1,1,0-8.011h-6.28a4.021,4.021,0,1,1,0-8.007h50.8a4.021,4.021,0,1,1,0,8.007h6.258a4.023,4.023,0,1,1,0,8.011Z" transform="translate(-31.16 -165.87)" fill="#e6a744" opacity="0.1"/>
    <path id="Path_21169" data-name="Path 21169" d="M532.4,149.94l-486.95,10.8A163.688,163.688,0,0,0,33.78,206.611H523.864a175.5,175.5,0,0,0,7.076-29.235A126.7,126.7,0,0,0,532.4,149.94Zm-399.748,35.4h-8.79a4.023,4.023,0,1,1,0,8.011h-50.8a4.023,4.023,0,1,1,0-8.011h8.79a4.021,4.021,0,1,1,0-8.007h-6.28a4.023,4.023,0,1,1,0-8.011h50.8a4.023,4.023,0,1,1,0,8.011h6.276a4.021,4.021,0,1,1,0,8.007Z" transform="translate(-32.636 -92.867)" fill="#e6a744" opacity="0.1"/>
    <ellipse id="Ellipse_2175" data-name="Ellipse 2175" cx="33.063" cy="7.426" rx="33.063" ry="7.426" transform="translate(258.898 322.313)" fill="#e6a744" opacity="0.1"/>
    <ellipse id="Ellipse_2176" data-name="Ellipse 2176" cx="59.647" cy="4.898" rx="59.647" ry="4.898" transform="translate(309.14 348.426)" fill="#e6a744" opacity="0.1"/>
    <ellipse id="Ellipse_2177" data-name="Ellipse 2177" cx="59.647" cy="7.426" rx="59.647" ry="7.426" transform="translate(69.651 338.472)" fill="#e6a744" opacity="0.1"/>
    <ellipse id="Ellipse_2178" data-name="Ellipse 2178" cx="44.88" cy="7.426" rx="44.88" ry="7.426" transform="translate(175.361 301.296)" fill="#e6a744" opacity="0.1"/>
    <ellipse id="Ellipse_2179" data-name="Ellipse 2179" cx="35.928" cy="7.426" rx="35.928" ry="7.426" transform="translate(196.843 363.151)" fill="#e6a744" opacity="0.1"/>
    <path id="Path_21170" data-name="Path 21170" d="M498.161,218.966c-.949-6.393-6.755-21.312-6.755-21.312h0q-.152-.66-.343-1.319c-4.118-14.158-9.818-15.389-9.818-15.389l-20.419-4.4a1.583,1.583,0,0,1,.44.409,2.835,2.835,0,0,0-.321.048,8,8,0,0,1-1.789-3.869c-.04-.211-.075-.44-.1-.655a14.373,14.373,0,0,0-1.169-21.6c-.215-.167-.44-.33-.655-.484a3.257,3.257,0,0,0,.272-3.874c-1.608-3.342-5.107-5.456-8.7-6.49a14.746,14.746,0,0,0-8.447-.18,30.514,30.514,0,0,0-4.421,2.053c-2.712,1.354-5.713,2.427-7.739,4.656a2.273,2.273,0,0,0-.773,1.869,5.044,5.044,0,0,0,.769,1.359,4.1,4.1,0,0,1,.04,3.4,32.986,32.986,0,0,0-1.261,3.271,3.421,3.421,0,0,0,.681,3.284,14.458,14.458,0,0,0,1.274.879A6.686,6.686,0,0,1,430.142,162q1.213,1.627,2.417,3.267a33.659,33.659,0,0,1,3.028,4.6,22.441,22.441,0,0,0,1.872,3.517,5.216,5.216,0,0,0,.8.844l-.237-.092a3.66,3.66,0,0,0,2.685,1.095h.123a.738.738,0,0,0,.492-.2v.44c.048,1.57.04,3.24-.07,4.81l-.189-.1a1.647,1.647,0,0,0-1.758.185l-18.8,15.09S416.426,201.049,417,210.7l-3.3,14.479s-4.118,12.285-.949,21.057,5.006,13.789,5.006,13.789,1.266,9.968,3.169,10.781,2.725,1.253,2.725,1.253l.378,2.383h0s.127.233.352.624c1.384,2.409,6.513,10.913,9.493,10a38.136,38.136,0,0,1,.483,6.987l2.949,19.808s2.057,5.386,1.929,8.209,2.4,6.846,2.4,6.846a13.086,13.086,0,0,0-1.266,9.211c1.2,5.276,2.725,29.582,2.725,29.582l2.2,5.892-.062,6.908a6.6,6.6,0,0,1-1.362,3.078c-1.424,1.548-1.318,3.337-4.751,5.452s-5.608,2.915-5.608,5.716a7.36,7.36,0,0,1-.105,1.165c-.316,2.058-.932,3.175,5.379,3.772a16.635,16.635,0,0,0,12.358-4.133s1.09-1.979,6.223-2.779c0,0,1.758-.092,1.85-1.645.035-.536.026-1.561,0-2.691-.083-2.15-.29-4.661-.563-4.784-.343-.154-.94-2.317-1.147-3.1h1.428s1.318-9.968,0-16.422a26.654,26.654,0,0,1-.128-11.032l-.255-17.047s-1.758-1.882-.378-5.206,0-19.742,0-19.742.51-5.892,1.964-7.272.07-8.631,0-9.009l2.593,8.7s1.138,17.3,3.551,20.428l.694,7.835s4.94,7.211,3.991,11.093,1.015,17.926,1.015,17.926v14.356s-2.219,5.764.879,7.835l1.318-.053c-.439.409-.778,1.024-1.292,1.556-.593.611-.932,2.937-1.121,4.938-.158,1.693-.211,3.148-.211,3.148a5.181,5.181,0,0,0,3.8,2.256c2.483.145,10.666,6.371,10.666,6.371s8.082,0,10.174-.44l.123-.031a2.747,2.747,0,0,0,1.578-1.288,3.3,3.3,0,0,0,.378-2.37c-.259-1.236-1.239-2.59-3.41-3.742-5.4-2.849-6.206-5.518-6.206-5.518l-3.547-5.325h.505a22.785,22.785,0,0,1,3.547-11.973l-.25-27.889s1.582-9.59-1.138-14.8c0,0-.224-5.514,1.6-7.206s-2.422-18.8-2.422-18.8-.879-9.185-1.912-17.565h0c4.276,4.058,8.711-10.552,9.458-13.151h.11l-.048-.189c.031-.123.048-.185.048-.185h0s-.949-3.377-.255-2.691,2.408-1.882,2.408-1.882-.255-13.978,2.725-21.021S498.161,218.966,498.161,218.966Zm-12.745,8.895.022-.04c.44,8.534-.083,26.746-.083,26.746s-.589,2.335-1.217,5.083l-.44-17.3h0l-.44-16.3Zm-54.545-5.883s2.153,26.948,0,30.835a20.365,20.365,0,0,0-1.551,5.325c-.712-1.869-2.219-6.257-1.679-8.583.7-3.007-1.393-10.909-1.393-11.093a18.752,18.752,0,0,1,1.318-7.615c1.507-3.218.519-4.612.519-4.612S429.351,220.958,430.872,221.978Z" transform="translate(-244.383 -86.913)" fill="url(#linear-gradient)"/>
    <path id="Path_21171" data-name="Path 21171" d="M452.933,448.293c-1.877,8.253-9.339-4.225-11.04-7.22-.22-.391-.343-.62-.343-.62l.809-3.794,4.276-1.759a11.947,11.947,0,0,1,1.916,1.249A11.56,11.56,0,0,1,452.933,448.293Z" transform="translate(-261.197 -252.534)" fill="#d38884"/>
    <path id="Path_21172" data-name="Path 21172" d="M583.495,431.955a.577.577,0,0,1-.048.185.936.936,0,0,1-.057.2c-.734,2.577-5.085,17.082-9.286,13.054-4.6-4.4-2.365-14.562-2.365-14.562h.031l9.669-.989,1.916,1.97h0Z" transform="translate(-333.865 -249.699)" fill="#d38884"/>
    <path id="Path_21173" data-name="Path 21173" d="M511.022,504.761l.246,27.7a22.727,22.727,0,0,0-3.481,11.871l-12.5.492c-3.05-2.053-.879-7.774-.879-7.774V522.788s-1.929-13.934-1-17.794S489.5,494,489.5,494l-.686-7.778c-2.364-3.109-3.485-20.278-3.485-20.278l-2.536-8.671c.07.374,1.389,7.611,0,8.943s-1.929,7.215-1.929,7.215,1.367,16.3,0,19.6.369,5.166.369,5.166l.25,16.923a26.477,26.477,0,0,0,.123,10.948c1.305,6.406,0,16.3,0,16.3H468.194l.062-6.907-2.171-5.848s-1.494-24.139-2.677-29.367a13.125,13.125,0,0,1,1.239-9.145s-2.483-3.979-2.36-6.78-1.916-8.143-1.916-8.143l-2.892-19.658a38.206,38.206,0,0,0-1.433-11.2c-1.679-5.6-4.166-12.944-4.166-12.944l2.808.251,14.169,1.262s34.451-2.317,35.994-.391a6.47,6.47,0,0,1,.65,2.009c1.547,6.951,3.591,28.729,3.591,28.729s4.166,16.985,2.378,18.665-1.569,7.149-1.569,7.149C512.582,495.22,511.022,504.761,511.022,504.761Z" transform="translate(-266.987 -251.122)" fill="#444053"/>
    <path id="Path_21174" data-name="Path 21174" d="M487.65,689.638c-.1,1.543-1.815,1.636-1.815,1.636-5.036.791-6.109,2.752-6.109,2.752a16.173,16.173,0,0,1-12.125,4.107c-6.2-.6-5.595-1.7-5.274-3.746a7.746,7.746,0,0,0,.1-1.152c0-2.8,2.145-3.6,5.5-5.716s3.265-3.874,4.663-5.413,1.543-4.524,1.543-4.524c1.582-2.757,5.595.44,5.595.44.189.976,6.153.84,6.153.84s.791,3.175,1.2,3.359c.268.123.47,2.612.549,4.749C487.676,688.09,487.685,689.106,487.65,689.638Z" transform="translate(-272.74 -387.884)" fill="#b07473"/>
    <path id="Path_21175" data-name="Path 21175" d="M487.65,703.04c-.1,1.543-1.815,1.636-1.815,1.636-5.036.792-6.109,2.753-6.109,2.753a16.173,16.173,0,0,1-12.125,4.107c-6.2-.6-5.595-1.7-5.274-3.746,2.769.686,8.06,1.644,11.15-.035,4.294-2.33,7.375-3.957,7.375-3.957l6.786-3.416C487.676,701.492,487.685,702.508,487.65,703.04Z" transform="translate(-272.74 -401.286)" opacity="0.1"/>
    <path id="Path_21176" data-name="Path 21176" d="M573.609,700.212a2.681,2.681,0,0,1-1.547,1.279l-.119.031c-2.052.44-9.985.44-9.985.44s-8.021-6.2-10.447-6.345a5.1,5.1,0,0,1-3.731-2.242s.048-1.442.2-3.122c.189-1.987.519-4.3,1.1-4.9,1.072-1.121,1.318-2.638,3.731-1.68,0,0,3.446-6.076,7.506-1.381l4.2,6.375s.791,2.638,6.113,5.5c2.127,1.143,3.076,2.489,3.344,3.715A3.276,3.276,0,0,1,573.609,700.212Z" transform="translate(-320.74 -390.153)" fill="#b07473"/>
    <path id="Path_21177" data-name="Path 21177" d="M573.609,712.629c-.475.4-1,.831-1.547,1.28l-.119.031c-2.052.44-9.985.44-9.985.44s-8.021-6.2-10.447-6.345a5.1,5.1,0,0,1-3.731-2.242s.048-1.442.2-3.122c2.47.739,6.21,2.045,7.212,3.451,1.538,2.141,6.21,5.131,6.21,5.131s8.711-.84,12.578-.954A3.276,3.276,0,0,1,573.609,712.629Z" transform="translate(-320.74 -402.57)" opacity="0.1"/>
    <path id="Path_21178" data-name="Path 21178" d="M499.793,212.933l-11.471,12.131s-13.9-1.024-11.475-5.131c1.235-2.093,1.428-6.472,1.318-10.28-.1-3.671-.479-6.8-.479-6.8s19.5-9.708,18.019-.655a14.906,14.906,0,0,0-.053,5.166C496.484,211.939,499.793,212.933,499.793,212.933Z" transform="translate(-280.822 -119.986)" fill="#d38884"/>
    <path id="Path_21179" data-name="Path 21179" d="M497.121,202.2a14.909,14.909,0,0,0-.053,5.166,14.306,14.306,0,0,1-10.2,4.261c-2.637,0-5.489-2.168-7.621-3.421-.1-3.676-.123-5.351-.123-5.351S498.616,193.147,497.121,202.2Z" transform="translate(-282.255 -119.986)" opacity="0.1"/>
    <path id="Path_21180" data-name="Path 21180" d="M492.772,175.86a14.367,14.367,0,1,1-5.406-11.23A14.372,14.372,0,0,1,492.772,175.86Z" transform="translate(-273.801 -99.339)" fill="#d38884"/>
    <path id="Path_21181" data-name="Path 21181" d="M508.276,435.819c-3.577,8.517-26.589,8.693-26.589,8.693v-9.286l-1.393-.092c.6,2.66-.844,9.145-.844,9.145-18.186,2.568-22.62-7.8-22.62-7.8l.633-3.548,14.169,1.262s34.451-2.317,35.994-.391a6.47,6.47,0,0,1,.65,2.018Z" transform="translate(-269.761 -251.43)" opacity="0.1"/>
    <path id="Path_21182" data-name="Path 21182" d="M481.687,328.329v-9.286l-1.393-.088c.6,2.638-.844,9.145-.844,9.145-13.686,1.93-19.583-3.46-21.662-6.248a8.508,8.508,0,0,1-.958-1.548l5.555-31.262,1.318-46.009,1.991-8.073.461-3.874v-.044h.048l1.415.607,8.469,3.663,9.62-7.268.141-.1.479-.365.8.638L489.1,229.8l6.342,40.974s10.987,31.547,13.044,44.281c.084.51.149.985.2,1.429C510.047,328.114,481.687,328.329,481.687,328.329Z" transform="translate(-269.761 -136.37)" fill="#e6a744"/>
    <ellipse id="Ellipse_2180" data-name="Ellipse 2180" cx="0.817" cy="0.818" rx="0.817" ry="0.818" transform="translate(206.538 99.032)" fill="#67647e"/>
    <ellipse id="Ellipse_2181" data-name="Ellipse 2181" cx="0.817" cy="0.818" rx="0.817" ry="0.818" transform="translate(206.916 106.498)" fill="#67647e"/>
    <ellipse id="Ellipse_2182" data-name="Ellipse 2182" cx="0.817" cy="0.818" rx="0.817" ry="0.818" transform="translate(207.733 118.585)" fill="#67647e"/>
    <ellipse id="Ellipse_2183" data-name="Ellipse 2183" cx="0.817" cy="0.818" rx="0.817" ry="0.818" transform="translate(209.083 131.604)" fill="#67647e"/>
    <ellipse id="Ellipse_2184" data-name="Ellipse 2184" cx="0.817" cy="0.818" rx="0.817" ry="0.818" transform="translate(209.9 143.828)" fill="#67647e"/>
    <ellipse id="Ellipse_2185" data-name="Ellipse 2185" cx="0.817" cy="0.818" rx="0.817" ry="0.818" transform="translate(210.717 156.847)" fill="#67647e"/>
    <ellipse id="Ellipse_2186" data-name="Ellipse 2186" cx="0.817" cy="0.818" rx="0.817" ry="0.818" transform="translate(210.392 169.725)" fill="#67647e"/>
    <path id="Path_21183" data-name="Path 21183" d="M466.7,297.841s-.914,11.973-2.593,15.455-2.426,13.252-2.426,13.252l-3.9-.44a8.513,8.513,0,0,1-.958-1.548l5.555-31.262,1.318-46.009,2-8.077.461-3.874.053-.022a1.573,1.573,0,0,1,1.389.022l.185.1q-.084.237-.158.488c-1.521,4.762-2.088,13.538-2.088,13.538s2.2,16.053,2.426,23.519S466.7,297.841,466.7,297.841Z" transform="translate(-269.756 -140.621)" opacity="0.1"/>
    <path id="Path_21184" data-name="Path 21184" d="M448.551,436.162a2.25,2.25,0,0,1-.149.29c-1.512,2.555-5.344,4.177-6.509,4.621-.22-.391-.343-.62-.343-.62l.809-3.794,4.276-1.759a11.945,11.945,0,0,1,1.916,1.262Z" transform="translate(-261.197 -252.534)" opacity="0.1"/>
    <path id="Path_21185" data-name="Path 21185" d="M422.576,298.81l-3.547,2.115L415.8,315.3s-4.043,12.193-.936,20.9,4.913,13.7,4.913,13.7,1.244,9.893,3.112,10.7,2.672,1.244,2.672,1.244l.374,2.366s5.063-1.719,6.852-4.749-1.318-10.552-1.318-10.552-2.672-6.411-1.986-9.4-1.371-10.825-1.371-10.992a18.638,18.638,0,0,1,1.318-7.563c1.5-3.205.5-4.573.5-4.573l-.936-9.146Z" transform="translate(-245.58 -176.281)" fill="#67647e"/>
    <path id="Path_21186" data-name="Path 21186" d="M545.111,318.465s-9.392,3.544-12.376.44-2.677-17.671-2.677-17.671-2.857-26.878-4.663-31.292-.879-36.274-.879-36.274-1.213-4.12-2.272-5.2a1.151,1.151,0,0,0-.224-.18l.365.079,1.274.273,1.978,1.587,6.342,40.974s10.987,31.547,13.044,44.281Z" transform="translate(-306.301 -136.767)" opacity="0.1"/>
    <path id="Path_21187" data-name="Path 21187" d="M584.175,432.317h-.105c-1.182.154-11.616,1.416-11.66-.756a6.379,6.379,0,0,1,.04-.752l9.669-.989,1.916,1.97h0c.035.128.062.237.088.325Z" transform="translate(-334.545 -249.688)" opacity="0.1"/>
    <path id="Path_21188" data-name="Path 21188" d="M574.163,266.07l6.856,3.579s5.713,14.8,6.628,21.144c0,0,4.232,17,1.318,23.989s-2.672,20.867-2.672,20.867-1.679,2.55-2.364,1.869.25,2.673.25,2.673-11.721,1.556-11.769-.747,2.69-13.314,2.69-13.314.747-26.192-.312-30.3S574.163,266.07,574.163,266.07Z" transform="translate(-334.545 -157.936)" fill="#67647e"/>
    <path id="Path_21189" data-name="Path 21189" d="M522.712,329.52s-3.859,9.453-5.1,10.078.25,3.109.25,3.109S524.887,332.879,522.712,329.52Z" transform="translate(-303.552 -193.488)" opacity="0.1"/>
    <path id="Path_21190" data-name="Path 21190" d="M516.933,254.094c.044-.18-4.6,4.56-5.845,5.276S515.628,259.326,516.933,254.094Z" transform="translate(-300.076 -151.223)" opacity="0.1"/>
    <path id="Path_21191" data-name="Path 21191" d="M487.224,327.82s-7.089,4.586-6.153,6.4S487.224,327.82,487.224,327.82Z" transform="translate(-283.301 -192.536)" opacity="0.1"/>
    <path id="Path_21192" data-name="Path 21192" d="M524.47,480.07a37.935,37.935,0,0,0,15.422,4.837Z" transform="translate(-307.674 -277.843)" opacity="0.1"/>
    <path id="Path_21193" data-name="Path 21193" d="M491.5,501.3s5.595,7.035,8.148,7.215S491.5,501.3,491.5,501.3Z" transform="translate(-289.194 -289.739)" opacity="0.1"/>
    <path id="Path_21194" data-name="Path 21194" d="M500.721,564c-.251.123-3.173,6.345-6.153,6.534S500.721,564,500.721,564Z" transform="translate(-290.579 -324.871)" opacity="0.1"/>
    <path id="Path_21195" data-name="Path 21195" d="M568.33,594.765s5.546-1.244,6.781,2.735C575.111,597.487,574.738,596.243,568.33,594.765Z" transform="translate(-332.259 -342.006)" opacity="0.1"/>
    <path id="Path_21196" data-name="Path 21196" d="M559.84,646.141s6.72-1.372,8.148.5S559.84,646.141,559.84,646.141Z" transform="translate(-327.5 -370.624)" opacity="0.1"/>
    <path id="Path_21197" data-name="Path 21197" d="M508.174,654c0,.062-6.838,1.372-6.592,2.242s7.3.747,7.546-.624a1.319,1.319,0,0,0-.954-1.618Z" transform="translate(-294.842 -375.299)" opacity="0.1"/>
    <path id="Path_21198" data-name="Path 21198" d="M554.75,666.916s11.238-1.372,10.548.994S554.75,666.916,554.75,666.916Z" transform="translate(-324.647 -382.314)" opacity="0.1"/>
    <path id="Path_21199" data-name="Path 21199" d="M420.89,352.44c.062.185,7.4,1.183,8.394,3.548,0,0-7.212-3.364-8.35-3.364" transform="translate(-249.616 -206.33)" opacity="0.1"/>
    <path id="Path_21200" data-name="Path 21200" d="M437.132,396.16s-6.1,1.93-5.661,4.837S430.852,399.651,437.132,396.16Z" transform="translate(-255.535 -230.827)" opacity="0.1"/>
    <path id="Path_21201" data-name="Path 21201" d="M437.92,426.582s2.219-3.047,4.333-2.489S437.92,426.582,437.92,426.582Z" transform="translate(-259.162 -246.44)" opacity="0.1"/>
    <path id="Path_21202" data-name="Path 21202" d="M487.394,164.627a3.459,3.459,0,0,1-.712.532c-1.758,1.024-2.241,2.6-3.076,4.423-.778,1.666-1.635,3.43-3.2,4.375-2.026,1.222-4.694.774-6.8,1.838a5.277,5.277,0,0,0-2.813,5.2,15.012,15.012,0,0,0,.6,2.383,17,17,0,0,1,.642,5.175.881.881,0,0,1,0,.154,14.367,14.367,0,1,1,15.382-24.082Z" transform="translate(-273.828 -99.336)" opacity="0.1"/>
    <path id="Path_21203" data-name="Path 21203" d="M477.872,149.674c-1.578-3.315-5.01-5.417-8.539-6.441a14.336,14.336,0,0,0-8.293-.176,30.414,30.414,0,0,0-4.338,2.036c-2.663,1.345-5.59,2.409-7.594,4.621a2.316,2.316,0,0,0-.76,1.855,5.181,5.181,0,0,0,.751,1.345,4.085,4.085,0,0,1,.04,3.381,31.011,31.011,0,0,0-1.239,3.249,3.42,3.42,0,0,0,.668,3.258,12.178,12.178,0,0,0,1.257.879,6.618,6.618,0,0,1,1.191,1.354l2.373,3.245a32.914,32.914,0,0,1,2.971,4.568,21.773,21.773,0,0,0,1.837,3.487,3.977,3.977,0,0,0,3.331,1.781.646.646,0,0,0,.527-.251.7.7,0,0,0,.066-.33,16.883,16.883,0,0,0-.628-5.158,14.889,14.889,0,0,1-.6-2.383,5.3,5.3,0,0,1,2.813-5.2c2.11-1.064,4.777-.616,6.8-1.833,1.573-.95,2.43-2.713,3.2-4.4.848-1.82,1.318-3.4,3.076-4.423S478.747,151.42,477.872,149.674Z" transform="translate(-264.68 -88.71)" fill="#585268"/>
    <path id="Path_21204" data-name="Path 21204" d="M501.63,693.06s2.2,2.8,1.626,4.4S501.63,693.06,501.63,693.06Z" transform="translate(-294.872 -397.185)" opacity="0.1"/>
    <path id="Path_21205" data-name="Path 21205" d="M569.28,704.107s.488-3.755,2.444-3.79,2.052-.2,3.547.374,2.9,1.469,2.448,1.6-2.571-2.146-4.751-.98A15.7,15.7,0,0,0,569.28,704.107Z" transform="translate(-332.791 -401.223)" opacity="0.1"/>
    <path id="Path_21206" data-name="Path 21206" d="M479.4,244.464l6.153-4.313s-9-5.32-10.073-4.573-1.811,7.475-1.811,7.475Z" transform="translate(-279.2 -140.811)" opacity="0.1"/>
    <path id="Path_21207" data-name="Path 21207" d="M479.341,243.728l6.153-4.4s-9-5.32-10.073-4.573-1.811,7.844-1.811,7.844Z" transform="translate(-279.167 -140.351)" fill="#e1e7ef"/>
    <path id="Path_21208" data-name="Path 21208" d="M479.341,243.728l6.153-4.4s-9-5.32-10.073-4.573-1.811,7.844-1.811,7.844Z" transform="translate(-279.167 -140.351)" fill="#e6a744"/>
    <path id="Path_21209" data-name="Path 21209" d="M449.6,234.59l-.185-.092a1.6,1.6,0,0,0-1.727.18l-18.458,14.98s-4.013,5.553-3.454,15.134l10.886,15.429s1.244-5.223,2.734-4.23c0,0,2.114,26.755,0,30.611s-3.046,18.291-3.046,18.291l7.15.809s.747-9.77,2.426-13.252,2.593-15.455,2.593-15.455,1.512-17.394,1.261-24.86-2.426-23.519-2.426-23.519S447.962,239.207,449.6,234.59Z" transform="translate(-252.323 -140.148)" fill="#67647e"/>
    <path id="Path_21210" data-name="Path 21210" d="M512.109,237.7l-7.669-2.84s9.765-10.7,10.987-4.766Z" transform="translate(-296.447 -136.774)" opacity="0.1"/>
    <path id="Path_21211" data-name="Path 21211" d="M512.109,236.851l-7.669-2.84s9.765-10.7,10.987-4.766Z" transform="translate(-296.447 -136.298)" fill="#e1e7ef"/>
    <path id="Path_21212" data-name="Path 21212" d="M512.109,236.851l-7.669-2.84s9.765-10.7,10.987-4.766Z" transform="translate(-296.447 -136.298)" fill="#e6a744"/>
    <path id="Path_21213" data-name="Path 21213" d="M521.32,228.113a.439.439,0,0,1,.316.07Z" transform="translate(-305.909 -136.665)" opacity="0.1"/>
    <path id="Path_21214" data-name="Path 21214" d="M523,226.42l20.348,4.4s5.6,1.244,9.642,15.305-5.537,31.288-5.537,31.288l-2.114-1.8,1.059,41.062s-9.392,3.544-12.376.44-2.672-17.684-2.672-17.684-2.861-26.874-4.667-31.292-.879-36.27-.879-36.27S524.143,226.174,523,226.42Z" transform="translate(-306.85 -135.715)" fill="#67647e"/>
    <path id="Path_21215" data-name="Path 21215" d="M565.02,285.7c-.286.264-.62,12.689.624,22.147A120.735,120.735,0,0,0,569.16,324.9l-1.846-37.888S565.89,284.9,565.02,285.7Z" transform="translate(-330.254 -168.835)" opacity="0.1"/>
    <path id="Path_21216" data-name="Path 21216" d="M559.7,261.6c.5.312,2.676,5.474,1.679,7.589S559.7,261.6,559.7,261.6Z" transform="translate(-327.421 -155.431)" opacity="0.1"/>
    <path id="Path_21217" data-name="Path 21217" d="M491.78,152.817a11.236,11.236,0,0,0-4.474-4.687,10.644,10.644,0,0,1,3.353,3.957c.879,1.759.62,3.517-1.09,4.48s-2.241,2.6-3.076,4.423c-.778,1.666-1.635,3.43-3.208,4.4-2.022,1.222-4.689.769-6.8,1.833a5.312,5.312,0,0,0-2.813,5.206,14.959,14.959,0,0,0,.6,2.379,17.015,17.015,0,0,1,.642,5.175.694.694,0,0,1-.07.33.628.628,0,0,1-.523.251,3.027,3.027,0,0,1-1.534-.286,3.568,3.568,0,0,0,2.637,1.033.519.519,0,0,0,.589-.58,16.878,16.878,0,0,0-.637-5.175,14.448,14.448,0,0,1-.6-2.383,5.3,5.3,0,0,1,2.813-5.2c2.11-1.064,4.777-.616,6.8-1.833,1.573-.95,2.43-2.713,3.2-4.4.848-1.82,1.318-3.4,3.076-4.423S492.659,154.563,491.78,152.817Z" transform="translate(-278.707 -91.853)" opacity="0.1"/>
    <path id="Path_21218" data-name="Path 21218" d="M691.609,220.914c-6.056-.119-11.4-4.4-14.428-9.625a9.676,9.676,0,0,1-1.459-4.12,4.76,4.76,0,0,1,.167-.985,10.225,10.225,0,0,0,.439-1.508,2.638,2.638,0,0,0,0-.616s0,0,0-.035a3.638,3.638,0,0,0-1.318-2.959c-.809-.761-1.824-1.319-2.668-2.075-2.6-2.286-3.393-5.953-3.441-9.444v-.185c.031-1.495.149-2.994.136-4.489a18.881,18.881,0,0,0-.11-2.541,8.4,8.4,0,0,0-2.716-5.619c-4.333-3.518-11.62.145-16.107-3.179-1.09-.813-1.973-2.014-3.3-2.33a5.55,5.55,0,0,0-3.01.409c-3.3,1.09-6.992,2.524-8.284,5.716-.738,1.833-.532,3.926-1.209,5.782a28.87,28.87,0,0,1-1.89,3.491,5.468,5.468,0,0,0-.7,2.915,3.29,3.29,0,0,0,.215,1.552A3.957,3.957,0,0,0,633,192.611a5.124,5.124,0,0,1-.642,1.029c-.844,1.033-2.14,1.759-3.019,2.788-1.626,1.886-1.565,4.45-.765,6.666s2.246,4.234,3.243,6.393a3.433,3.433,0,0,1,.33,2.915,8.359,8.359,0,0,1-1.459,1.7,5.335,5.335,0,0,0-1.318,2.946c-9.893,2.26-9.9,10.214-9.9,10.214h0L614.128,240.7s-.857,2.264-1.863,5.254l-6.324-1.134,4.395,7.36c-.831,3-1.42,5.777-1.226,7.176,0,0-1.965,9.233,1.529,10.847l7.708,3.469a4.568,4.568,0,0,0,1.068.479l.312.141a.826.826,0,0,0,.721,0h.105a1.038,1.038,0,0,0,.44-.066.88.88,0,0,0,.387-.418.133.133,0,0,1,0-.044l2.307-.668,1.956,2.317c.879.62,1.758,1.156,2.589,1.64L625.2,307.14s-.488,40.011-1.964,49.13a25.551,25.551,0,0,0-.343,7.246l-.057.1c.365,2.572,1.318,3.078,1.318,3.078v-.035a.29.29,0,0,0,.057.035A25.9,25.9,0,0,1,625.8,363.3v.66c-.031,3.394-.136,8.147-.488,11.238-.6,5.276,1.529,22.666,1.529,22.666l.734,15.829a14.639,14.639,0,0,1-1.8,7.712c-1.758,3.161-4,7.611-4.166,9.585a1.971,1.971,0,0,0,0,.321h0l-3.771,4.538s-1.472,2.278,1.855,3.2c1.789.5,4.874,0,7.353-.585a4.915,4.915,0,0,0,3.81-4.784,16.931,16.931,0,0,1,3.112-5.975l.62,3.645,4.149,1.029.532-9.99a4.4,4.4,0,0,0,.286-1.759h0c.817-7.105-1.925-6.468-1.925-6.468a.382.382,0,0,1,.132.246l-.132-.242h0c-1.683-3.324-.879-8.794-.879-8.794s2.2-15.829,2.949-20.01c.541-2.955.316-12.628.136-18.027a6.439,6.439,0,0,0-.022-.655c6.434-.084,14.318-.3,19.852-.835v.651l-1.02,37.4a20.535,20.535,0,0,1-1.433,6.956.38.38,0,0,1-.048.127,30.351,30.351,0,0,0-2.026,9.8l-.475,11.871v.33h0c-.826.317-2.131,1.236-2.167,3.9-.057,3.9,6.821,2.6,6.821,2.6,6.874,0,6.931-7.158,6.931-7.158s.215-6.565.545-10.957-1.037-3.425-1.037-3.425l-.105,12.5V419.572l.105-1.587v-.044h0V417.6l.866-12.887s6.333-21.474,7.313-25.594c.7-2.928.409-11.748.18-16.624a3.879,3.879,0,0,0-.035-.646c1.964-.176,3.7-.193,4.395-.193h.321s-.325-34.489-1.147-47.486-2.127-24.891-5.4-28.47c-1.978-2.163-4.733-8.842-6.592-13.788a68.927,68.927,0,0,0,12.117,3.957c10.367,2.172,8.948-6.833,8.948-6.833l-1.05-17.029h.07a86.862,86.862,0,0,0-1.143-13.314,39.187,39.187,0,0,0-2.672-9.673c1.125-.44,2.237-.91,3.327-1.394,2.817-1.244,5.99-3.007,6.395-6.046H691.5a3.927,3.927,0,0,0,.105-.668Zm-64.266,24.622h0c.022,1.759-.044,4.81-.149,8.183l-3.292-4.4,3.3-5.355ZM671.45,254.466Zm1.371,6.652-5.485-1.759a24.617,24.617,0,0,1,3.388-4.195l.475-.44-.171.035.264-.242.158-.035-.251.242.3-.062a9.362,9.362,0,0,0,1.868,3.759c1.969,2.15-.541,2.7-.541,2.7Z" transform="translate(-353.34 -104.734)" fill="url(#linear-gradient-2)"/>
    <path id="Path_21219" data-name="Path 21219" d="M644.015,715.66l-.642,12.17-4.092-1.024-.861-5.061Z" transform="translate(-357.851 -400.993)" fill="#a27772"/>
    <path id="Path_21220" data-name="Path 21220" d="M644.015,715.66l-.642,12.17-4.092-1.024-.861-5.061Z" transform="translate(-357.851 -400.993)" opacity="0.1"/>
    <path id="Path_21221" data-name="Path 21221" d="M716.48,668.2l6.241,1.293,4.628-4.089V653.878l.105-1.574v-.048h0v-.334l.861-12.808s6.245-21.32,7.216-25.414c.686-2.9.4-11.66.171-16.5-.092-1.983-.171-3.311-.171-3.311l-13.778-3.337-.29,10.6-1.006,37.127a20.583,20.583,0,0,1-1.411,6.907l-.048.128a30.23,30.23,0,0,0-2,9.726l-.466,11.806v.325Z" transform="translate(-415.299 -339.747)" fill="#cc818c"/>
    <path id="Path_21222" data-name="Path 21222" d="M741.45,730.139v.325h0v-.334Z" transform="translate(-429.295 -417.956)" opacity="0.1"/>
    <path id="Path_21223" data-name="Path 21223" d="M716.48,762.337l6.241,1.293,4.628-4.089v-.98a1.319,1.319,0,0,1-.664,1.055l-.066.04a12.433,12.433,0,0,1-7.005,1.385l-2.435-.207a2.281,2.281,0,0,0-.646.158v.325Z" transform="translate(-415.299 -433.886)" opacity="0.1"/>
    <path id="Path_21224" data-name="Path 21224" d="M723.939,744.357l.066-.035a1.319,1.319,0,0,0,.672-1.143l.1-12.4s1.345-.963,1.02,3.4-.536,10.878-.536,10.878-.053,7.105-6.834,7.105c0,0-6.781,1.293-6.729-2.585s2.8-4.036,2.8-4.036l2.435.211A12.4,12.4,0,0,0,723.939,744.357Z" transform="translate(-412.619 -418.266)" fill="#b07473"/>
    <path id="Path_21225" data-name="Path 21225" d="M642.52,670.738c.158,2.8,8.394,1.183,8.394,1.183l5.542-10.763s4.628-3.557,2.312-6.679a4.965,4.965,0,0,1-.338-.532l-.022-.026h0c-.048-.079-.092-.163-.136-.251h0c-1.661-3.3-.844-8.706-.844-8.706s2.149-15.723,2.905-19.869c.532-2.928.312-12.535.136-17.908-.07-2.234-.136-3.733-.136-3.733L646.66,599.79v4.08c-.031,3.372-.136,8.09-.483,11.159-.589,5.219,1.507,22.5,1.507,22.5l.725,15.728a14.572,14.572,0,0,1-1.758,7.655c-1.714,3.139-3.955,7.563-4.109,9.519A1.911,1.911,0,0,0,642.52,670.738Z" transform="translate(-373.843 -344.924)" fill="#cc818c"/>
    <path id="Path_21226" data-name="Path 21226" d="M642.515,739.752c.158,2.8,8.394,1.183,8.394,1.183l5.542-10.763s4.628-3.557,2.312-6.679a4.981,4.981,0,0,1-.338-.532c-.075,1.631-1.863,5.716-1.863,5.716s-4.575,9.159-6.03,11.256-7.775-.391-8.012-.479A1.926,1.926,0,0,0,642.515,739.752Z" transform="translate(-373.838 -413.938)" opacity="0.1"/>
    <path id="Path_21227" data-name="Path 21227" d="M653.058,722.282s2.707-.629,1.9,6.424h0a4.542,4.542,0,0,1-2.14,4.032,15.4,15.4,0,0,0-6.438,8.934h0a4.871,4.871,0,0,1-3.758,4.749c-2.444.572-5.489,1.073-7.251.58-3.283-.915-1.828-3.174-1.828-3.174l3.766-4.472s6.566,2.585,8.016.484,6.03-11.252,6.03-11.252S653.862,722.875,653.058,722.282Z" transform="translate(-368.63 -413.55)" fill="#b07473"/>
    <path id="Path_21228" data-name="Path 21228" d="M728.11,593.52l-.29,10.6c3.67-.356,6.3-.853,6.746-1.552.971-1.5,4.5-2.137,7.493-2.4-.092-1.983-.171-3.311-.171-3.311Z" transform="translate(-421.655 -341.411)" opacity="0.1"/>
    <path id="Path_21229" data-name="Path 21229" d="M651.94,606.8a5.03,5.03,0,0,1,1.507-1.82c1.45-.8,1.292,5.171,1.292,5.171s4.834.044,11.009-.035c-.07-2.234-.136-3.737-.136-3.737L651.94,602.72S651.966,604.417,651.94,606.8Z" transform="translate(-379.123 -346.566)" opacity="0.1"/>
    <path id="Path_21230" data-name="Path 21230" d="M646.573,488s1.617-4.4,3.076-5.18,1.292,5.166,1.292,5.166,35.519.325,37.295-2.423,12.108-2.585,12.108-2.585-.321-34.243-1.129-47.161-2.1-24.715-5.327-28.267c-2.088-2.3-5.058-9.739-6.9-14.7-1-2.708-1.661-4.683-1.661-4.683l-33.9,1.935-.277,2.748-3.6,36.019s-.483,39.734-1.938,48.779S646.573,488,646.573,488Z" transform="translate(-375.316 -226.35)" fill="#444053"/>
    <g id="Group_11850" data-name="Group 11850" transform="translate(269.872 161.82)" opacity="0.1">
      <path id="Path_21231" data-name="Path 21231" d="M695.4,485.565c1.758-2.744,12.108-2.585,12.108-2.585s-.321-34.243-1.129-47.161-2.1-24.715-5.327-28.267c-2.1-2.308-5.058-9.739-6.9-14.7-.839-2.278-1.442-4.032-1.608-4.533l2.637-.15s.664,1.974,1.666,4.683c1.837,4.96,4.8,12.4,6.891,14.7,3.23,3.553,4.522,15.345,5.327,28.267s1.134,47.161,1.134,47.161-10.332-.158-12.112,2.585c-1.516,2.344-27.652,2.453-35.238,2.431C672.585,487.974,694.027,487.684,695.4,485.565Z" transform="translate(-655.111 -388.17)"/>
      <path id="Path_21232" data-name="Path 21232" d="M646.941,603.344c.655-.365.98.646,1.143,1.873a25.374,25.374,0,0,0-1.525,3.306s-.936-.506-1.318-3.078A5.984,5.984,0,0,1,646.941,603.344Z" transform="translate(-645.24 -508.693)"/>
    </g>
    <path id="Path_21233" data-name="Path 21233" d="M663.607,193.549c-2.347,3.2.026,7.752-2.492,10.865-.831,1.029-2.109,1.759-2.975,2.77-1.6,1.873-1.543,4.419-.756,6.617s2.2,4.2,3.2,6.349a3.4,3.4,0,0,1,.325,2.893,8.194,8.194,0,0,1-1.442,1.684,6.075,6.075,0,0,0-.791,6.446,20.86,20.86,0,0,0,4.171,5.76,2.846,2.846,0,0,0,4.136.945,16.272,16.272,0,0,0,7.4-21.232c-1.362-3.267-3.635-6.4-3.656-9.849,0-2.739,1.406-5.355,1.657-8.081.3-3.315-1.657-8.578-5.656-10.025C666.991,190.818,664.8,191.9,663.607,193.549Z" transform="translate(-381.873 -114.579)" fill="#585268"/>
    <path id="Path_21234" data-name="Path 21234" d="M663.607,193.549c-2.347,3.2.026,7.752-2.492,10.865-.831,1.029-2.109,1.759-2.975,2.77-1.6,1.873-1.543,4.419-.756,6.617s2.2,4.2,3.2,6.349a3.4,3.4,0,0,1,.325,2.893,8.194,8.194,0,0,1-1.442,1.684,6.075,6.075,0,0,0-.791,6.446,20.86,20.86,0,0,0,4.171,5.76,2.846,2.846,0,0,0,4.136.945,16.272,16.272,0,0,0,7.4-21.232c-1.362-3.267-3.635-6.4-3.656-9.849,0-2.739,1.406-5.355,1.657-8.081.3-3.315-1.657-8.578-5.656-10.025C666.991,190.818,664.8,191.9,663.607,193.549Z" transform="translate(-381.873 -114.579)" opacity="0.1"/>
    <path id="Path_21235" data-name="Path 21235" d="M698.6,464.55c-4.7.246-9.119,2.269-13.233,4.555s-8.1,4.876-12.521,6.5" transform="translate(-390.843 -269.147)" opacity="0.1"/>
    <path id="Path_21236" data-name="Path 21236" d="M696.683,489.74a19.365,19.365,0,0,0-12.2,5.936c-1.143,1.209-2.127,2.563-3.318,3.724a14.739,14.739,0,0,1-6.54,3.707" transform="translate(-391.841 -283.262)" opacity="0.1"/>
    <path id="Path_21237" data-name="Path 21237" d="M693.083,508.91a21.321,21.321,0,0,0-9.809,5.918c-.721.778-1.376,1.609-2.1,2.387-3.889,4.177-9.383,6.393-14.688,8.49" transform="translate(-387.279 -294.003)" opacity="0.1"/>
    <path id="Path_21238" data-name="Path 21238" d="M702.307,242.77a96.513,96.513,0,0,0,.967,11.221c.439,2.638,1.055,5.012,1.938,6.063,2.584,3.078-12.591,7.189-12.591,7.189L683.66,260.3s7.1-6.542,3.793-12.922S702.307,242.77,702.307,242.77Z" transform="translate(-396.902 -144.754)" fill="#cc818c"/>
    <path id="Path_21239" data-name="Path 21239" d="M658.79,392.853h35.84c-1-2.708-1.661-4.683-1.661-4.683l-33.9,1.935Z" transform="translate(-382.963 -226.35)" opacity="0.1"/>
    <path id="Path_21240" data-name="Path 21240" d="M644.617,327.249h38.319a13.307,13.307,0,0,1,1.534-10.166,22.466,22.466,0,0,1,4.013-5.206l.264-.242,13.378-2.963.721-.158s.11-24.337-8.5-27.678a50.357,50.357,0,0,1-13.778-7.857l-11.835,3.658-8.719-4.4c-2.8,3.012-10.227,1.829-10.227,1.829-12.161,1.4-12.161,10.552-12.161,10.552s7.1,16.581,7.643,16.581S644.617,327.249,644.617,327.249Z" transform="translate(-371.097 -161.393)" fill="#e6a744"/>
    <path id="Path_21241" data-name="Path 21241" d="M670.283,356.092s-7.814-1.732-10.473-4.762" transform="translate(-383.534 -205.708)" opacity="0.1"/>
    <path id="Path_21242" data-name="Path 21242" d="M761.732,341.51l-9.062,7.431a15.462,15.462,0,0,0,.3,1.759l.264-.242,13.378-2.963Z" transform="translate(-435.584 -200.206)" opacity="0.1"/>
    <path id="Path_21243" data-name="Path 21243" d="M717.46,378.022s1.982,1.117,5.019,2.585h5.208a13.307,13.307,0,0,1,1.534-10.166l-9.181-2.972C723.164,370.376,717.46,378.022,717.46,378.022Z" transform="translate(-415.848 -214.752)" opacity="0.1"/>
    <path id="Path_21244" data-name="Path 21244" d="M629.266,293.76l-5.379,2.906-5.274,13.353s-5.489,14.641-4.953,18.52c0,0-1.934,9.154,1.507,10.768l8.966,4.063a.835.835,0,0,0,1.077-1.152c-1.279-2.423-2.685-6.213-.439-8.3l-2.584-5.382,9.339-15.292,3.12-5.276Z" transform="translate(-357.363 -173.451)" fill="#e6a744"/>
    <path id="Path_21245" data-name="Path 21245" d="M677,350.483c.466,1.9,2.039,4.837,7.247,5.931l5.713,4.683,6.078,2.757,2.479,1.121,1.05-7.593-2.386-1.319-2.782-1.521s-6.276-11.375-16.213-6.6A2.2,2.2,0,0,0,677,350.483Z" transform="translate(-393.13 -203.155)" opacity="0.1"/>
    <path id="Path_21246" data-name="Path 21246" d="M677.752,349.045c.466,1.9,2.035,4.837,7.243,5.931l5.713,4.683,6.082,2.757,2.474,1.121,1.05-7.593-2.386-1.319-2.76-1.508s-6.28-11.375-16.217-6.573a2.2,2.2,0,0,0-1.2,2.5Z" transform="translate(-393.557 -202.364)" fill="#cc818c"/>
    <ellipse id="Ellipse_2187" data-name="Ellipse 2187" cx="13.883" cy="13.89" rx="13.883" ry="13.89" transform="translate(281.51 80.086)" opacity="0.1"/>
    <ellipse id="Ellipse_2188" data-name="Ellipse 2188" cx="13.883" cy="13.89" rx="13.883" ry="13.89" transform="translate(281.51 79.765)" fill="#cc818c"/>
    <path id="Path_21247" data-name="Path 21247" d="M717.555,282.556l-4.175-8.117s6.109-2.471,6.553-5.333,5.854,3.355,4.685,5.417S717.555,282.556,717.555,282.556Z" transform="translate(-413.561 -159.223)" opacity="0.1"/>
    <path id="Path_21248" data-name="Path 21248" d="M717.555,281.087l-4.175-8.117s6.109-2.471,6.553-5.333,5.854,3.359,4.685,5.417S717.555,281.087,717.555,281.087Z" transform="translate(-413.561 -158.399)" fill="#e6a744"/>
    <path id="Path_21249" data-name="Path 21249" d="M623.9,343.016l23.069,31.029s-8.5,4.63-20.216-3.658l-5.059-6.033L607.25,340Z" transform="translate(-354.074 -199.36)" fill="#f6f8fb"/>
    <path id="Path_21250" data-name="Path 21250" d="M634.111,375.043l2.1-.057s12.833-12.461,15.984-6.156-7.994,12.2-7.994,12.2l-3.389,1.829-4.417,1.319-2.826-3.794Z" transform="translate(-368.826 -214.516)" fill="#cc818c"/>
    <path id="Path_21251" data-name="Path 21251" d="M633.5,390.277a3.138,3.138,0,0,1,.053,2.172.879.879,0,0,1-.382.418.98.98,0,0,1-.439.062,4.416,4.416,0,0,1-2.9-1.433,13.23,13.23,0,0,1-1.877-2.717,5.014,5.014,0,0,1-.963-3.236,4.719,4.719,0,0,1,2.386-2.788c2.127-1.407,2.2.233,2.663,2.045S633.015,388.448,633.5,390.277Z" transform="translate(-365.12 -223.019)" opacity="0.1"/>
    <path id="Path_21252" data-name="Path 21252" d="M632.771,390.277a3.163,3.163,0,0,1,.053,2.172.879.879,0,0,1-.382.418.988.988,0,0,1-.439.062,4.394,4.394,0,0,1-2.9-1.433,13.083,13.083,0,0,1-1.881-2.717,4.984,4.984,0,0,1-.958-3.236,4.712,4.712,0,0,1,2.382-2.788c2.132-1.407,2.2.233,2.668,2.045S632.279,388.448,632.771,390.277Z" transform="translate(-364.709 -223.019)" fill="#e6a744"/>
    <path id="Path_21253" data-name="Path 21253" d="M623.85,315.626l1.072-1.816-.936,3.372Z" transform="translate(-349.684 -175.83)" opacity="0.1"/>
    <path id="Path_21254" data-name="Path 21254" d="M721.19,374.221l2.474,1.121,1.05-7.593-2.386-1.319C723.976,368.321,722.535,371.816,721.19,374.221Z" transform="translate(-417.939 -214.169)" opacity="0.1"/>
    <path id="Path_21255" data-name="Path 21255" d="M729.273,361.943s-7.99.488-11.383-1.693" transform="translate(-416.089 -210.707)" opacity="0.1"/>
    <g id="Group_11851" data-name="Group 11851" transform="translate(278.174 111.48)" opacity="0.1">
      <path id="Path_21256" data-name="Path 21256" d="M736.99,319.495a22.5,22.5,0,0,1,4.013-5.21,10.707,10.707,0,0,1,1.182-.642l12.455-2.559.721-.158s.11-24.337-8.5-27.678a51.73,51.73,0,0,1-13.431-7.567l.945-.29a50.22,50.22,0,0,0,13.778,7.857c8.614,3.337,8.5,27.678,8.5,27.678H755.36l-12.745,2.44s-.549.532-.716.686a24.709,24.709,0,0,0-4.074,5.391,13.521,13.521,0,0,0-1.068,10.218h-1.318A13.446,13.446,0,0,1,736.99,319.495Z" transform="translate(-702.974 -274.638)"/>
      <path id="Path_21257" data-name="Path 21257" d="M664.13,277.894c.207-.031.4-.062.62-.084a22.263,22.263,0,0,0,2.637.215A23.956,23.956,0,0,1,664.13,277.894Z" transform="translate(-664.13 -275.994)"/>
      <path id="Path_21258" data-name="Path 21258" d="M695.644,278.09,687.76,274.1a4.168,4.168,0,0,0,.44-.418l8.227,4.164Z" transform="translate(-677.375 -273.68)"/>
    </g>
    <path id="Path_21259" data-name="Path 21259" d="M742.718,340l5.274,6.463,1.077,17.552s1.4,8.934-8.825,6.78-22.053-8.811-22.053-8.811,5.713-7.646,2.584-10.552l14.639,4.74s2.474-.541.536-2.691-2.281-6.032-2.281-6.032Z" transform="translate(-416.257 -199.36)" fill="#e6a744"/>
    <path id="Path_21260" data-name="Path 21260" d="M779.42,382.17l2.905,3.337A4.19,4.19,0,0,1,779.42,382.17Z" transform="translate(-450.577 -222.989)" opacity="0.1"/>
    <path id="Path_21261" data-name="Path 21261" d="M736.99,360.8l4.522,5.813-2.259.541Z" transform="translate(-413.1 -202.159)" opacity="0.1"/>
    <path id="Path_21262" data-name="Path 21262" d="M665.289,194.206a4.641,4.641,0,0,1,.483-3.786,29.881,29.881,0,0,0,1.868-3.469c.664-1.838.462-3.918,1.187-5.716,1.279-3.188,4.913-4.612,8.17-5.716a5.491,5.491,0,0,1,2.971-.4c1.318.312,2.175,1.508,3.252,2.313,4.421,3.3,11.611-.334,15.887,3.157a8.322,8.322,0,0,1,2.677,5.575,49.245,49.245,0,0,1-.026,6.34c-.07,3.7.624,7.752,3.393,10.205.835.739,1.819,1.293,2.637,2.058a3.6,3.6,0,0,1,1.318,2.941,10.192,10.192,0,0,1-.439,1.495c-.549,1.93.272,3.957,1.275,5.716,2.989,5.175,8.258,9.44,14.231,9.559-.4,3.016-3.516,4.766-6.307,6-3.516,1.578-7.26,3.126-11.132,2.928s-7.911-2.678-8.588-6.494c-.233-1.319-.2-2.906-1.318-3.592-.686-.418-1.573-.312-2.312-.624a4.075,4.075,0,0,1-1.947-2.744,24.707,24.707,0,0,1-1.147-7.035c-.048-2.832.325-5.923-1.279-8.253-1.485-2.159-4.122-3.254-5.836-5.237-1.582-1.838-3.3-4.054-5.893-4.4C674.825,194.523,667.407,199.4,665.289,194.206Z" transform="translate(-386.477 -106.927)" opacity="0.1"/>
    <path id="Path_21263" data-name="Path 21263" d="M665.289,192.736a4.641,4.641,0,0,1,.483-3.786,29.882,29.882,0,0,0,1.868-3.469c.664-1.838.462-3.918,1.187-5.716,1.279-3.192,4.913-4.617,8.17-5.716a5.491,5.491,0,0,1,2.971-.4c1.318.312,2.175,1.508,3.252,2.313,4.421,3.3,11.611-.334,15.887,3.157a8.323,8.323,0,0,1,2.677,5.58,49.174,49.174,0,0,1-.026,6.336c-.07,3.7.624,7.752,3.393,10.205.835.739,1.819,1.293,2.637,2.058a3.6,3.6,0,0,1,1.318,2.942,10.192,10.192,0,0,1-.439,1.495c-.549,1.93.272,3.957,1.275,5.716,3,5.158,8.245,9.436,14.217,9.554-.4,3.016-3.516,4.766-6.307,6.006-3.516,1.574-7.26,3.122-11.132,2.924s-7.911-2.678-8.588-6.494c-.233-1.319-.2-2.906-1.318-3.592-.686-.418-1.573-.312-2.312-.624a4.074,4.074,0,0,1-1.947-2.744,24.672,24.672,0,0,1-1.147-7.035c-.048-2.832.325-5.923-1.279-8.253-1.485-2.159-4.122-3.254-5.836-5.237-1.582-1.838-3.3-4.054-5.894-4.4C674.825,193.053,667.407,197.938,665.289,192.736Z" transform="translate(-386.477 -106.103)" fill="#585268"/>
    <path id="Path_21264" data-name="Path 21264" d="M684.507,282.063l7.959-6.463s-5.45-2.955-6.1-5.474-5.01,1.2-4.566,3.456S684.507,282.063,684.507,282.063Z" transform="translate(-395.842 -159.736)" opacity="0.1"/>
    <path id="Path_21265" data-name="Path 21265" d="M685.251,279.859l7.959-6.459s-5.45-2.955-6.074-5.474-5.01,1.2-4.566,3.456S685.251,279.859,685.251,279.859Z" transform="translate(-396.274 -158.503)" fill="#e6a744"/>
    <ellipse id="Ellipse_2189" data-name="Ellipse 2189" cx="0.633" cy="0.633" rx="0.633" ry="0.633" transform="translate(296.615 119.671)" opacity="0.1"/>
    <ellipse id="Ellipse_2190" data-name="Ellipse 2190" cx="0.633" cy="0.633" rx="0.633" ry="0.633" transform="translate(296.615 123.189)" opacity="0.1"/>
    <ellipse id="Ellipse_2191" data-name="Ellipse 2191" cx="0.633" cy="0.633" rx="0.633" ry="0.633" transform="translate(296.615 126.702)" opacity="0.1"/>
    <g id="Group_11852" data-name="Group 11852" transform="translate(278.683 72.247)" opacity="0.1">
      <path id="Path_21266" data-name="Path 21266" d="M671.836,189.858c.628-1.728.492-3.667,1.081-5.408a5.912,5.912,0,0,0-.672,1.24c-.73,1.816-.523,3.9-1.191,5.716l-.044.106A10.053,10.053,0,0,0,671.836,189.858Z" transform="translate(-668.495 -184.45)"/>
      <path id="Path_21267" data-name="Path 21267" d="M718.84,245.715c-3.516,1.574-7.26,3.122-11.132,2.924s-7.911-2.678-8.588-6.49c-.233-1.319-.2-2.911-1.318-3.6-.686-.418-1.573-.312-2.312-.624a4.074,4.074,0,0,1-1.947-2.744,24.679,24.679,0,0,1-1.147-7.035c-.048-2.827.33-5.918-1.275-8.253-1.49-2.159-4.127-3.249-5.841-5.237-1.582-1.833-3.3-4.054-5.893-4.4-3.555-.484-10.987,4.4-13.088-.8a4.09,4.09,0,0,1,.136-3c-.154.259-.3.519-.439.783a4.659,4.659,0,0,0-.479,3.79c2.114,5.188,9.532.312,13.088.8,2.593.352,4.311,2.572,5.893,4.4,1.714,1.987,4.351,3.078,5.836,5.241,1.609,2.33,1.231,5.421,1.279,8.248a24.679,24.679,0,0,0,1.147,7.035,4.084,4.084,0,0,0,1.947,2.744c.738.312,1.626.211,2.312.624,1.134.686,1.1,2.291,1.318,3.6.686,3.812,4.72,6.292,8.588,6.49s7.594-1.345,11.132-2.924c2.549-1.134,5.388-2.7,6.153-5.276C722.989,243.679,720.827,244.831,718.84,245.715Z" transform="translate(-665.288 -196.782)"/>
    </g>
    <path id="Path_21268" data-name="Path 21268" d="M856.443,289.233c-9.3-5.355-12.82-6.674-12.837-6.674l-.193-.136a7.743,7.743,0,0,1-2.342-2.964,6.2,6.2,0,0,1,0-.638.273.273,0,0,0,0,.062c.145-2.836,2.162-5.417,4.074-7.668l4.892-5.755a5.674,5.674,0,0,0,1.261-2,4.605,4.605,0,0,0,.132-1.227v-.5c-.026-1.429-.066-2.862-.119-4.291-.044-1.249-.365-2.823-1.613-3.078-.65-.132-1.512.1-1.855-.44a1.068,1.068,0,0,1-.083-.743.253.253,0,0,0,0,.062v-.07a16.566,16.566,0,0,0,.461-2.941,4.011,4.011,0,0,0-.2-1.491c-.721-2.071-3.213-2.924-5.414-3.315s-4.672-.725-6.052-2.449a17.915,17.915,0,0,0-1.2-1.658,4.75,4.75,0,0,0-2.25-1.112,12.74,12.74,0,0,0-8.188.712,7.348,7.348,0,0,1-3.3,1.046c-1.169-.07-2.25-.915-3.446-1.117-1.934-.33-3.784,1.09-4.738,2.774a6.787,6.787,0,0,0-.879,3.271v.193h0a4.785,4.785,0,0,0,1.257,3.342c.835.879,2.074,1.46,2.422,2.6.141.462.106.963.233,1.433a1.285,1.285,0,0,0,.053.171l-.062.084a14.514,14.514,0,0,0-3.076,8.943,14.843,14.843,0,0,0,10.425,14.07v.44a6.327,6.327,0,0,1-2.022,4.924l-13.18,5.267s-7.946-.945-10.811,10.671a19.818,19.818,0,0,0-.492,5.892,17.086,17.086,0,0,1-2.2,8.824c-3.257,6.384-2.514,21.039,4.149,22.49,6.289,1.372,8.75.8,9.01.734v.255c-.106,2.752-1.1,26.469-4.729,29.336-1,.8-.817,1.319,0,1.693,0,0,0,.154-.022.44-.11,1.759-.668,8.354-3.076,12.1-2.817,4.353-2.523,29.459-2.523,29.459l-1.92,14.8s1.182,9.141,0,10.737c-1.059,1.42-2.466,35.236-2.76,42.57H793.1a3.568,3.568,0,0,0-2.848,1.759c-1.556,2.528-7.005,7.2-7.005,7.2-1.182,1.68-5.555,3.289-7.867,4.045a4.888,4.888,0,0,0-.879.387,4.69,4.69,0,0,0-1.987,2.093,2.248,2.248,0,0,0-.211,1.759c.589,1.446,12.881,2.467,15.993,1.011,2.444-1.139,12.13-2.638,16.151-3.227a3.314,3.314,0,0,0,2.874-2.876,1.9,1.9,0,0,0-.369-1.438h0c-.769-.954-1.16-3.561-1.318-5.276a3.564,3.564,0,0,0,.905-.536,38.645,38.645,0,0,1,2.2-15.525c2.962-7.835,3.85-22.345,3.112-31.776,0,0,9.031-38.886,16.142-42.513h0c.11.141,3.56,4.568,4,18.282.44,13.929,5.476,23.07,5.476,23.07s-2.224,23.651,0,32.5l-2.905,13.96c-.215-.18-.352-.321-.352-.321s.088.387.206,1.007l-.061.3.127.026a27.489,27.489,0,0,1,.615,6.6c-.114,1.016-.4,2.409-.593,3.777-.308,2.15-.391,4.234.738,4.691,1.855.747,12.745,1.759,14.591-.633a3.426,3.426,0,0,0,.536-3.583,3.631,3.631,0,0,0-.536-.915s-2.892-4.727-2.074-8.059a2.454,2.454,0,0,0-.347-1.913A98.345,98.345,0,0,1,849.9,466.6c1.855-6.982,5.762-22.292,2.887-32.356h0q-.163-.594-.369-1.161a43.477,43.477,0,0,1-1.63-16.976,34.614,34.614,0,0,1,0-14.8c1.78-8.125,3.024-16.106,3.024-16.106s.98-10.737.123-17.319a4.353,4.353,0,0,0-.057-.44l.466-.105s-2.518-11.172-3.406-18.282c-.211-1.68-.483-3.8-.782-6.072a15.488,15.488,0,0,0,2.413-.6c7.994-2.757,10.513-27.7,10.513-27.7v-7.914S865.774,294.6,856.443,289.233ZM796.867,481.921c-.246-.123-.391-.207-.391-.207h0Z" transform="translate(-446.538 -143.238)" fill="url(#linear-gradient-3)"/>
    <path id="Path_21269" data-name="Path 21269" d="M879.132,589.347c3.468,9.976-.58,26.17-2.461,33.416a101.055,101.055,0,0,0-2.457,15.908,33.471,33.471,0,0,1-12.719-.29l3.037-14.892c-2.171-8.82,0-32.392,0-32.392s-4.913-9.11-5.349-22.991c-.439-13.661-3.793-18.08-3.9-18.216h0c-6.935,3.614-15.751,42.368-15.751,42.368.721,9.4-.149,23.857-3.037,31.657a39.15,39.15,0,0,0-2.167,15.468,4.7,4.7,0,0,1-3.955.756c-4.127-.668-9.075-4.225-9.075-4.225s1.587-42.21,2.747-43.81,0-10.7,0-10.7l1.877-14.747s-.29-25.018,2.457-29.353c2.373-3.746,2.918-10.333,3.024-12.061v-.44l4.184-5.012s40.468-3.038,43.509,0c.743.743,1.2,2.44,1.477,4.573.835,6.56-.123,17.258-.123,17.258s-1.213,7.954-2.949,16.048a35.241,35.241,0,0,0,0,14.751A44.176,44.176,0,0,0,879.132,589.347Z" transform="translate(-474.052 -299.342)" fill="#65617d"/>
    <path id="Path_21270" data-name="Path 21270" d="M927.669,801.124c-1.806,2.387-12.429,1.376-14.239.633-1.1-.44-1.02-2.537-.721-4.678.189-1.359.466-2.748.58-3.759.286-2.6-.879-7.884-.879-7.884s2.382,2.533,2.958,0a2.757,2.757,0,0,1,2.066-1.961,5.394,5.394,0,0,1,3.753.233c1.877.818,5.006,2.555,4.448,4.9-.8,3.32,2.022,8.033,2.022,8.033a3.658,3.658,0,0,1,.527.906A3.47,3.47,0,0,1,927.669,801.124Z" transform="translate(-525.12 -447.716)" fill="#a27772"/>
    <path id="Path_21271" data-name="Path 21271" d="M927.8,818.755c-1.806,2.387-12.429,1.376-14.239.633-1.1-.44-1.02-2.537-.721-4.678,1.143.536,3.076.981,6.315.682a17.826,17.826,0,0,1,2.272-.07,52.829,52.829,0,0,0,6.9-.141A3.47,3.47,0,0,1,927.8,818.755Z" transform="translate(-525.254 -465.347)" opacity="0.1"/>
    <path id="Path_21272" data-name="Path 21272" d="M851.1,628.74c.721,9.4-.149,23.857-3.037,31.657a39.149,39.149,0,0,0-2.167,15.468,4.7,4.7,0,0,1-3.955.756c.879-6.1,4.588-32.374,6.966-53.136a86.969,86.969,0,0,1,15.382-39.906l2.527,2.783C859.915,589.986,851.1,628.74,851.1,628.74Z" transform="translate(-485.621 -335.842)" opacity="0.1"/>
    <path id="Path_21273" data-name="Path 21273" d="M899.694,318.54l-1.758,8.675-8.645,14.532-10.657-4.555s-14.5-15.182-5.384-17.35a8.066,8.066,0,0,0,3.024-1.345,6.256,6.256,0,0,0,2.36-5.232,16.046,16.046,0,0,0-1.468-6.217l18.643-5.857a29.948,29.948,0,0,0-1.318,7.554c-.145,5.083,1.758,7.585,3.292,8.794A5.6,5.6,0,0,0,899.694,318.54Z" transform="translate(-501.483 -177.614)" fill="#fbbebe"/>
    <path id="Path_21274" data-name="Path 21274" d="M904.625,301.19a29.948,29.948,0,0,0-1.318,7.554,14.2,14.2,0,0,1-1.085,1.156,14.745,14.745,0,0,1-14.74,3.364A16.044,16.044,0,0,0,886,307.047Z" transform="translate(-510.317 -177.614)" opacity="0.1"/>
    <path id="Path_21275" data-name="Path 21275" d="M895.64,276.967a14.678,14.678,0,1,1-4.3-10.448,14.748,14.748,0,0,1,4.3,10.448Z" transform="translate(-499.191 -155.779)" fill="#fbbebe"/>
    <path id="Path_21276" data-name="Path 21276" d="M899.694,339.356l-1.758,8.675-8.645,14.532-10.657-4.555s-14.5-15.182-5.384-17.35a8.067,8.067,0,0,0,3.024-1.345c-1.644,4.52,5.142,13.925,5.142,13.925.791,1.165,2.6.44,2.6.44,4.373-.664,12.42-13.243,13.734-15.336A5.6,5.6,0,0,0,899.694,339.356Z" transform="translate(-501.483 -198.43)" opacity="0.1"/>
    <path id="Path_21277" data-name="Path 21277" d="M893.517,524.359c-2.567.585-16.766,3.729-22.15,2.942-5.924-.879-17.443-1.442-17.443-1.442s-7.335.4-9.594-.638v-.44l4.184-5.012s40.468-3.038,43.509,0C892.783,520.53,893.245,522.227,893.517,524.359Z" transform="translate(-486.96 -299.331)" opacity="0.1"/>
    <path id="Path_21278" data-name="Path 21278" d="M854.067,353.845s-7.625-10.552-4.751-14.685l-12.881,5.276s-7.753-.941-10.548,10.636a20.152,20.152,0,0,0-.479,5.874,17.385,17.385,0,0,1-2.123,8.794c-3.177,6.362-2.457,20.969,4.048,22.424s8.812.721,8.812.721-.879,26.46-4.623,29.5S841.1,424.7,841.1,424.7s11.519.58,17.448,1.447S881.1,423.1,881.1,423.1s-2.457-11.133-3.327-18.216-2.9-22.173-2.9-22.173l14.74-19.979s2.6-12.074-6.5-17.425-12.53-6.661-12.53-6.661-9.15,14.905-13.919,15.626C856.668,354.276,854.858,355.006,854.067,353.845Z" transform="translate(-474.138 -198.604)" fill="#e6a744"/>
    <path id="Path_21279" data-name="Path 21279" d="M854.047,382.74s-.141,4.775.725,6.652S858.82,401.7,858.82,401.7h-7.23s3.9-4.195,3.617-6.222S854.047,382.74,854.047,382.74Z" transform="translate(-491.03 -223.308)" opacity="0.1"/>
    <path id="Path_21280" data-name="Path 21280" d="M876.483,438.805s-15.962-3.9-17.448-7.228-5.586-10.768-5.586-10.768l1.683-2.269,7.761,6.094s9.229,7.374,13.589,8.1S876.483,438.805,876.483,438.805Z" transform="translate(-492.072 -243.367)" fill="#fbbebe"/>
    <path id="Path_21281" data-name="Path 21281" d="M876.483,438.805s-15.962-3.9-17.448-7.228-5.586-10.768-5.586-10.768l1.683-2.269,7.761,6.094s9.229,7.374,13.589,8.1S876.483,438.805,876.483,438.805Z" transform="translate(-492.072 -243.367)" opacity="0.05"/>
    <path id="Path_21282" data-name="Path 21282" d="M900.485,421.757v8.662H899.1a40.457,40.457,0,0,0-19.661,5.1l-2.6,1.443-.7.391-4.483-10.113,4.193-3.759h.215c1.024.1,5.458.47,7.339-.163,1.784-.607,4-2.528,9.256-1.187,2.589.664,4.8,3.566,7.313,2.66Z" transform="translate(-502.274 -245.116)" fill="#fbbebe"/>
    <path id="Path_21283" data-name="Path 21283" d="M928.862,373.475l2.887,3.254v7.884s-2.457,24.869-10.258,27.617-21.737-1.592-21.737-1.592-3.6-9.541-1.916-10.113,14.877-4.063,14.877-4.063-.185-14.589,2.7-18.928c0,0-1.877-13.591,4.628-13.881S928.862,373.475,928.862,373.475Z" transform="translate(-516.701 -212.609)" opacity="0.1"/>
    <path id="Path_21284" data-name="Path 21284" d="M929.865,373.475l2.892,3.254v7.884s-2.457,24.869-10.262,27.617-21.737-1.592-21.737-1.592-3.6-9.541-1.912-10.113,14.877-4.063,14.877-4.063-.189-14.589,2.7-18.928c0,0-1.881-13.591,4.623-13.881S929.865,373.475,929.865,373.475Z" transform="translate(-517.265 -212.609)" fill="#e6a744"/>
    <path id="Path_21285" data-name="Path 21285" d="M895.441,283.161a5.815,5.815,0,0,0-.33-2.818,2.144,2.144,0,0,0-2.294-1.319c-1.235.29-1.758,1.9-2.98,2.286a2.381,2.381,0,0,1-2.637-1.354,6.749,6.749,0,0,1-.5-3.148v-3.623a6,6,0,0,0-.853-3.768c-1.006-1.284-3.375-1.847-4.957-1.794a4.2,4.2,0,0,0-2.83,1.139,3.642,3.642,0,0,1-2.975,1.06,2.562,2.562,0,0,1-2.074-1.794v-.044a14.743,14.743,0,1,1,21.913,19.575A39.8,39.8,0,0,0,895.441,283.161Z" transform="translate(-503.036 -155.712)" opacity="0.1"/>
    <path id="Path_21286" data-name="Path 21286" d="M870.21,257.992a2.585,2.585,0,0,1-2.079-1.8c-.119-.466-.088-.963-.224-1.425-.338-1.139-1.551-1.728-2.364-2.594-1.626-1.728-1.521-4.568-.369-6.648.932-1.675,2.734-3.078,4.623-2.761,1.169.2,2.2,1.033,3.366,1.112a6.791,6.791,0,0,0,3.221-1.042,12.133,12.133,0,0,1,8.007-.712,4.614,4.614,0,0,1,2.2,1.112,19.226,19.226,0,0,1,1.173,1.649c1.345,1.715,3.758,2.053,5.907,2.44s4.579,1.24,5.274,3.306c.47,1.372,0,2.858-.255,4.283a1.293,1.293,0,0,0,.057.879c.338.554,1.178.321,1.811.44,1.217.259,1.529,1.829,1.578,3.078q.075,2.137.114,4.278a5.453,5.453,0,0,1-.127,1.583,5.589,5.589,0,0,1-1.226,1.992l-4.773,5.738c-2.118,2.541-4.364,5.5-3.955,8.794a2.047,2.047,0,0,1-2.523-1.469,6.572,6.572,0,0,1,.158-3.258,39.961,39.961,0,0,0,.765-5.65,5.8,5.8,0,0,0-.33-2.814,2.145,2.145,0,0,0-2.294-1.319c-1.239.29-1.758,1.9-2.98,2.286a2.381,2.381,0,0,1-2.637-1.354,6.731,6.731,0,0,1-.5-3.144v-3.627a6,6,0,0,0-.853-3.768c-1.006-1.284-3.375-1.847-4.958-1.794a4.2,4.2,0,0,0-2.826,1.139A3.648,3.648,0,0,1,870.21,257.992Z" transform="translate(-498.162 -144.309)" fill="#7c5c5c"/>
    <path id="Path_21287" data-name="Path 21287" d="M885.3,381.92l4.527,18.6S893.4,400.5,885.3,381.92Z" transform="translate(-509.925 -222.848)" opacity="0.1"/>
    <path id="Path_21288" data-name="Path 21288" d="M915.2,374.85s-5.924,9.708-3.613,19.751l1.1.079S910.721,390.032,915.2,374.85Z" transform="translate(-524.359 -218.887)" opacity="0.1"/>
    <path id="Path_21289" data-name="Path 21289" d="M929,499.162s7.278-2.41,7.805,3.179C936.823,502.341,935.452,498.511,929,499.162Z" transform="translate(-534.419 -288.251)" opacity="0.1"/>
    <path id="Path_21290" data-name="Path 21290" d="M865.322,426.81s-1.446,10.113,1.156,14.171a31.686,31.686,0,0,1-12.719,1.737l-.879-15.908Z" transform="translate(-491.753 -248.001)" opacity="0.1"/>
    <path id="Path_21291" data-name="Path 21291" d="M876.831,439.271l-.7.391-4.483-10.113,4.193-3.759h.215C875.992,426.291,874.823,434.984,876.831,439.271Z" transform="translate(-502.274 -247.43)" opacity="0.1"/>
    <path id="Path_21292" data-name="Path 21292" d="M859.991,425.83s-1.446,10.113,1.156,14.167a31.592,31.592,0,0,1-12.719,1.737l-5.059-15.9Z" transform="translate(-486.422 -247.452)" fill="#e6a744"/>
    <path id="Path_21293" data-name="Path 21293" d="M809.04,794.5a3.275,3.275,0,0,1-2.808,2.867c-3.925.585-13.378,2.08-15.764,3.219-3.037,1.447-15.03.44-15.611-1.011a2.3,2.3,0,0,1,.207-1.759A4.632,4.632,0,0,1,777,795.728a5.133,5.133,0,0,1,.879-.387c2.259-.752,6.526-2.352,7.678-4.032,0,0,5.322-4.656,6.838-7.171a3.472,3.472,0,0,1,2.778-1.732c1.266-.057,2.676.58,3.257,3.355,0,0,6.931,3.957,8.79.488,0,0,.29,5.329,1.442,6.789h0A1.935,1.935,0,0,1,809.04,794.5Z" transform="translate(-447.97 -447.245)" fill="#a27772"/>
    <path id="Path_21294" data-name="Path 21294" d="M809.04,808.05a3.275,3.275,0,0,1-2.808,2.867c-3.925.585-13.378,2.08-15.764,3.218-3.037,1.447-15.03.44-15.611-1.011a2.3,2.3,0,0,1,.207-1.759A4.632,4.632,0,0,1,777,809.281c1.956,1.319,6.3,2.568,15.848,1.077,9.11-1.425,13.624-2.818,15.821-3.768h0a1.936,1.936,0,0,1,.369,1.46Z" transform="translate(-447.97 -460.797)" opacity="0.1"/>
    <g id="Group_11853" data-name="Group 11853" transform="translate(366.14 104.278)" opacity="0.1">
      <path id="Path_21295" data-name="Path 21295" d="M942.428,267.875v-.07a12.957,12.957,0,0,0,.44-3.284,21.678,21.678,0,0,1-.439,2.638A1.6,1.6,0,0,0,942.428,267.875Z" transform="translate(-908.063 -261.346)"/>
      <path id="Path_21296" data-name="Path 21296" d="M890.217,277.363a4.184,4.184,0,0,1,.356,1.653,4.988,4.988,0,0,0-.356-2.3,2.136,2.136,0,0,0-2.29-1.319c-1.239.29-1.758,1.9-2.984,2.286a2.386,2.386,0,0,1-2.637-1.354,6.692,6.692,0,0,1-.5-3.148v-3.623a6,6,0,0,0-.853-3.768c-1.011-1.288-3.375-1.847-4.957-1.8a4.209,4.209,0,0,0-2.83,1.143,3.651,3.651,0,0,1-2.98,1.06,2.576,2.576,0,0,1-2.074-1.794c-.119-.466-.088-.967-.224-1.429-.338-1.134-1.551-1.728-2.364-2.59A4.736,4.736,0,0,1,864.3,257.3a4.93,4.93,0,0,0,1.217,3.706c.813.879,2.026,1.455,2.364,2.59.136.44.105.963.224,1.429a2.576,2.576,0,0,0,2.074,1.794,3.651,3.651,0,0,0,2.98-1.06,4.209,4.209,0,0,1,2.83-1.143c1.582-.048,3.955.51,4.957,1.8a6.034,6.034,0,0,1,.853,3.768v3.623a6.657,6.657,0,0,0,.5,3.144,2.392,2.392,0,0,0,2.637,1.359c1.213-.387,1.758-2,2.984-2.286A2.22,2.22,0,0,1,890.217,277.363Z" transform="translate(-864.285 -257.3)"/>
      <path id="Path_21297" data-name="Path 21297" d="M937.606,292.687a5.559,5.559,0,0,1-1.23,1.987l-4.773,5.738c-2.008,2.414-4.131,5.21-3.955,8.292.145-2.827,2.114-5.4,3.955-7.642l4.773-5.738a5.558,5.558,0,0,0,1.231-1.987,5.491,5.491,0,0,0,.128-1.587A4.181,4.181,0,0,1,937.606,292.687Z" transform="translate(-899.795 -276.603)"/>
      <path id="Path_21298" data-name="Path 21298" d="M921.8,327.124a3.383,3.383,0,0,1-.145-.774,3.9,3.9,0,0,0,.145,1.425,2.039,2.039,0,0,0,2.523,1.464,6.174,6.174,0,0,1-.053-.633A2.042,2.042,0,0,1,921.8,327.124Z" transform="translate(-896.433 -295.99)"/>
    </g>
    <path id="Path_21299" data-name="Path 21299" d="M812.69,789.36s1.512,2.638,6.988.317" transform="translate(-469.226 -451.143)" opacity="0.1"/>
    <path id="Path_21300" data-name="Path 21300" d="M918,790.82s4.72,5.562,10.671,1.825" transform="translate(-528.253 -451.961)" opacity="0.1"/>
    <path id="Path_21301" data-name="Path 21301" d="M944.866,641.23s-3.336,2.084-3.441,3.276,1.723-.879,1.723-.879Z" transform="translate(-541.381 -368.144)" opacity="0.1"/>
    <path id="Path_21302" data-name="Path 21302" d="M944.622,677.59a6.972,6.972,0,0,1-4.109,1.6c-2.5.11-2.285,3.364-.655,2.388A40.911,40.911,0,0,0,944.622,677.59Z" transform="translate(-539.819 -388.517)" opacity="0.1"/>
    <path id="Path_21303" data-name="Path 21303" d="M950,682.34s-1.6,7.866-2.9,6.349" transform="translate(-544.564 -391.178)" opacity="0.1"/>
    <path id="Path_21304" data-name="Path 21304" d="M244.339,487.781s10.042,2.757,14.877-.91,6.931-2.489,6.931-2.489,11.528-.638,12.477-3.364-4.421-12.628-4.421-12.628c-.382-.879-.94-2-1.191-2l.053-4.177h0l1.67-17.477c3.854-9.889.07-22.666.07-22.666l-.69-3.17a8.023,8.023,0,0,1,.655-5.276l7-14.07a21.061,21.061,0,0,1,1.318-2.7c.439-.8,1.024-1.8,1.758-2.99.215-.343.439-.7.686-1.073.848-1.319,1.877-2.814,3.12-4.538,3.1-4.3,4.729-9.673,5.573-13.63l.374,1.24h.083l.1.022h.167l.18.031h.066l2.153,27.419c.132,10.693,4.056,16.611,4.056,16.611l-.541,23.607c.738,5.685-.879,13.265-1.622,16.29l-1.7,3.83a4.6,4.6,0,0,0-2.5,3.482c-.334,2.827-3.309,8.921-3.309,8.921-1.151,1.46-3.652,5.4-3.652,5.4s-1.178,3.808-.448,5.232,6.83,1.28,6.83,1.28c6.966,1.543,12.306-2.2,11.967-4.775s1.086-3.232,1.086-3.232c2.769-.879,2.5-2.757,2.5-2.757a17.26,17.26,0,0,0-2.1-11.23l-.439,1.016a15.469,15.469,0,0,1,.835-5.993l-.255.176-.079.048h-.026c.439-3.856,4.487-10.992,4.487-10.992,7.436-13.05,4.733-30.734,4.733-30.734l-1.151-5.514-.066-2.08a69.448,69.448,0,0,1,1.121-14.817c.4-2.163.813-4.775,1.13-7.655a67.682,67.682,0,0,1,3.815-15.024l.294-.053h.035c.4-.07.813-.141,1.226-.22h.079s.237-1.284.439-3.469c.119-1.394.215-3.161.215-5.193a58.446,58.446,0,0,0-2.773-18.075l.224-.321s.532-.721,1.5-1.97h0c1.784-2.269,4.562-5.716,7.985-9.6,6.131-7,4.329-14.07,4.329-14.07s-4.439-16.273-6.417-26.043a29.622,29.622,0,0,0-4.869-11.586,23.067,23.067,0,0,0,.615-4.7c.132-2.893.031-5.909-1.27-8.508s-4.07-4.652-6.961-4.3a2.662,2.662,0,0,1-1.248,0,1.9,1.9,0,0,1-.822-.717c-1.692-2.335-1.8-5.474-1.275-8.306s1.609-5.54,2.092-8.38.264-5.993-1.543-8.244c-2.123-2.638-5.823-3.381-8.583-5.364-1.938-1.394-3.393-3.394-5.436-4.63s-3.955-.765-6.175-.3c-3.731.787-7.278,1.148-10.807,2.752a28.782,28.782,0,0,0-9.418,6.855,8.944,8.944,0,0,0-2.1,3.315c-.879,2.906.839,6,.479,9.009-.255,2.132-1.512,3.988-2.509,5.892s-1.758,4.164-.976,6.156c1.231,3.113,5.243,3.772,8.161,5.43a2.493,2.493,0,0,1,.967.84c.721,1.258-.752,2.563-1.679,3.68a5.545,5.545,0,0,0-1.1,2.234,7.966,7.966,0,0,0-4.777,5.769c-.989,4.428.532,10.016,1.872,13.709-1.464,8.227.439,11.471,1.841,12.716a7.058,7.058,0,0,1,2.444,4.81v.154c.092,1.495.25,2.985.461,4.472h0c-.048-.347-.1-.717-.123-.879-1.147,2.124-3.331,7.549-4.562,16.677a50.146,50.146,0,0,1-1.112,5.808,31.778,31.778,0,0,0-.932,10.385l.22,2.959a.932.932,0,0,1-.6-.2l1.543,2.827v4.771a17.6,17.6,0,0,1-1.169,6.292c-.11.29-.229.58-.356.879a5.12,5.12,0,0,0-.519,2.59c-3.318,5.087-10.926,33.6-10.926,33.6-4.127,9.348.338,15.389.338,15.389s2.162,26.025,2.567,27.37,1.3,17.209,1.3,17.209h0v1.262a2.957,2.957,0,0,0-.752-.215c-3.617-.2-4.6,5.514-4.6,5.514l-7.4,7.07s-3.38-.572-8.35,3.161S244.339,487.781,244.339,487.781Zm73.9-150.412-.022-.079-.2.119h0l-.083.048-.04.026h0l-3.41-12.043a20,20,0,0,1-.251-9.906l2.637-11.555h0V301.2l8.381,22.345C325.785,326.558,320.806,333.852,318.239,337.37Z" transform="translate(-147.959 -137.667)" fill="url(#linear-gradient-4)"/>
    <path id="Path_21305" data-name="Path 21305" d="M392.612,557a69.27,69.27,0,0,0-4.245,16.136c-.312,2.849-.716,5.426-1.112,7.563a69.14,69.14,0,0,0-1.081,14.628l.066,2.053,1.1,5.439s2.637,17.469-4.645,30.338c0,0-4.316,7.708-4.448,11.357l-2.923,1.13-5.907-1.658s2.852-10.231,1.925-17.4l.532-23.3s-3.837-5.83-3.969-16.383l-2.255-28.958Z" transform="translate(-218.654 -320.948)" fill="#fdc2cc"/>
    <path id="Path_21306" data-name="Path 21306" d="M317.054,547.62s-.725,11.291-6.307,19.074-6.768,11.159-6.768,11.159l-6.874,13.9a7.965,7.965,0,0,0-.646,5.2l.677,3.13s3.718,12.619-.066,22.385l-1.793,18.862H284.792s-.879-15.675-1.261-17-2.523-27.032-2.523-27.032-4.395-5.98-.334-15.209c0,0,9.163-34.537,11.616-33.939S317.054,547.62,317.054,547.62Z" transform="translate(-170.058 -315.693)" fill="#fdc2cc"/>
    <g id="Group_11854" data-name="Group 11854" transform="translate(124.156 231.927)" opacity="0.1">
      <path id="Path_21307" data-name="Path 21307" d="M315.539,600.11l-.672-3.131a7.917,7.917,0,0,1,.642-5.223l6.874-13.916s1.191-3.385,6.768-11.159c5.357-7.475,6.241-18.185,6.3-19.008l1.068-.053s-.725,11.291-6.307,19.074-6.768,11.159-6.768,11.159l-6.874,13.9a7.965,7.965,0,0,0-.646,5.2l.677,3.13s3.718,12.619-.066,22.385l-1.793,18.862H313.68l1.793-18.862C319.257,612.707,315.539,600.11,315.539,600.11Z" transform="translate(-313.68 -547.62)"/>
    </g>
    <path id="Path_21308" data-name="Path 21308" d="M388.752,644.528c.132-3.649,4.448-11.357,4.448-11.357,7.3-12.883,4.645-30.338,4.645-30.338l-1.125-5.443-.066-2.053a69.14,69.14,0,0,1,1.081-14.628c.391-2.137.8-4.713,1.108-7.563a69.258,69.258,0,0,1,4.232-16.1l1.09-.044a69.27,69.27,0,0,0-4.245,16.136c-.312,2.849-.716,5.426-1.112,7.563a69.142,69.142,0,0,0-1.081,14.628l.066,2.053,1.1,5.439s2.637,17.469-4.645,30.338c0,0-4.316,7.708-4.448,11.357l-2.923,1.13-.615-.171Z" transform="translate(-230.206 -320.948)" opacity="0.1"/>
    <path id="Path_21309" data-name="Path 21309" d="M375.665,753.59a5.079,5.079,0,0,0,4.834-.6,15.616,15.616,0,0,0-.4,8.767c1.2,4.784-11.154-3.852-11.154-3.852l2.637-6.028S372.611,753.788,375.665,753.59Z" transform="translate(-220.503 -430.143)" fill="#d39999"/>
    <path id="Path_21310" data-name="Path 21310" d="M376.6,753.842a4.934,4.934,0,0,0,3.925-.879,15.616,15.616,0,0,0-.4,8.767c1.2,4.784-11.154-3.852-11.154-3.852l2.637-6.028a3.768,3.768,0,0,0,3.011,1.7C375.3,753.626,375.949,753.719,376.6,753.842Z" transform="translate(-220.514 -430.126)" opacity="0.1"/>
    <path id="Path_21311" data-name="Path 21311" d="M289.32,443.292h5.16V414l-3.872-.695Z" transform="translate(-162.175 -231.582)" fill="#fdc2cc"/>
    <path id="Path_21312" data-name="Path 21312" d="M289.32,443.292h5.16V414l-3.872-.695Z" transform="translate(-162.175 -231.582)" opacity="0.05"/>
    <path id="Path_21313" data-name="Path 21313" d="M361.26,760.241a5.143,5.143,0,0,1,4.711,2.722l1.793,1.394.879-2.058a17.154,17.154,0,0,1,2.03,11.093s.264,1.855-2.457,2.722c0,0-1.393.664-1.064,3.188s-4.909,6.243-11.747,4.713c0,0-5.977.136-6.707-1.262s.466-5.113.466-5.113,2.457-3.9,3.582-5.333c0,0,2.923-6.024,3.257-8.794S359.532,758.71,361.26,760.241Z" transform="translate(-209.02 -434.533)" fill="#7e5659"/>
    <path id="Path_21314" data-name="Path 21314" d="M302.229,760.953l.053-4.129s-5.937,1.71-10.745-.224c0,0,.4,4.151-.264,4.718s2.224,5.909,2.224,5.909l3.23,3.386,5.555-2.023,1.507-4.749S302.624,760.953,302.229,760.953Z" transform="translate(-176.908 -432.787)" fill="#d39999"/>
    <path id="Path_21315" data-name="Path 21315" d="M302.229,760.953l.053-4.129s-5.937,1.71-10.745-.224c0,0,.4,4.151-.264,4.718s2.224,5.909,2.224,5.909l3.23,3.386,5.555-2.023,1.507-4.749S302.624,760.953,302.229,760.953Z" transform="translate(-176.908 -432.787)" opacity="0.1"/>
    <path id="Path_21316" data-name="Path 21316" d="M263.081,763.093s3.156.365,2.756,4.4.167,0,.167,0,3.353,1.359,4.549,3.254,3.353-1.693,3.516-2.722,1.507-1.455,1.507-1.455,5.274,9.783,4.342,12.474-12.253,3.311-12.253,3.311-2.061-1.161-6.808,2.458-14.6.879-14.6.879-8.034-3.355-3.151-7.035,8.2-3.122,8.2-3.122l7.269-7.009S259.53,762.891,263.081,763.093Z" transform="translate(-149.081 -436.423)" fill="#7e5659"/>
    <path id="Path_21317" data-name="Path 21317" d="M336.468,236.083c2.008,1.218,3.437,3.2,5.34,4.573,2.707,1.957,6.342,2.686,8.425,5.3,1.758,2.225,1.986,5.333,1.512,8.139s-1.538,5.483-2.052,8.279-.409,5.9,1.253,8.2a1.859,1.859,0,0,0,.8.708,2.636,2.636,0,0,0,1.226,0c2.839-.343,5.564,1.688,6.838,4.252s1.376,5.544,1.244,8.4a17.372,17.372,0,0,1-1.4,6.846c-1.758,3.588-5.414,5.8-9.023,7.5a69.87,69.87,0,0,1-7.2,2.911,10.836,10.836,0,0,1-5.221.787c-3-.519-5.129-3.249-7.977-4.318-2.334-.879-4.922-.563-7.405-.343-2.118.185-4.54.18-6-1.367-1.872-1.987-1.028-5.193-.07-7.752a5.518,5.518,0,0,1-3.9-9.022c.905-1.1,2.351-2.392,1.644-3.636a2.409,2.409,0,0,0-.949-.827c-2.861-1.636-6.8-2.291-8.007-5.36-.773-1.974-.026-4.208.954-6.085s2.2-3.715,2.466-5.817c.352-2.972-1.318-6.028-.47-8.895a8.917,8.917,0,0,1,2.061-3.28,28.285,28.285,0,0,1,9.229-6.767c3.468-1.587,6.944-1.943,10.609-2.717C332.587,235.327,334.406,234.834,336.468,236.083Z" transform="translate(-184.782 -140.691)" fill="#865a61"/>
    <path id="Path_21318" data-name="Path 21318" d="M319.062,337.753s-8.407-.44-10,6.732,3.45,17.442,3.45,17.442Z" transform="translate(-186.762 -198.098)" fill="#fdc2cc"/>
    <path id="Path_21319" data-name="Path 21319" d="M319.062,337.753s-8.407-.44-10,6.732,3.45,17.442,3.45,17.442Z" transform="translate(-186.762 -198.098)" opacity="0.05"/>
    <path id="Path_21320" data-name="Path 21320" d="M320,336.939l3.186,2.524,14.868.664,9.282-6.375,9.44-16.207a11.674,11.674,0,0,1-8.974-9.189,20.129,20.129,0,0,1-.185-7.677s-15.136-7.84-13.277,4.4a16.626,16.626,0,0,1,.141,4.546c-.879,7.167-7.832,5.817-7.832,5.817l-2.668,4.115-3.054,10.113Z" transform="translate(-193.066 -175.942)" fill="#fdc2cc"/>
    <path id="Path_21321" data-name="Path 21321" d="M352.458,305.054a16.628,16.628,0,0,1,.141,4.546,13.413,13.413,0,0,0,13.321-1.249,20.128,20.128,0,0,1-.185-7.677S350.6,292.835,352.458,305.054Z" transform="translate(-211.171 -175.938)" opacity="0.1"/>
    <ellipse id="Ellipse_2192" data-name="Ellipse 2192" cx="13.409" cy="13.415" rx="13.409" ry="13.415" transform="translate(133.596 107.514)" fill="#fdc2cc"/>
    <path id="Path_21322" data-name="Path 21322" d="M326.387,356.028c.325,0,.646.048.967.079,1.758.176,9.1.572,13.286-4.428,4.68-5.593,10.912-12.5,11.167-12.782l6.342,1.917s-5.019-1.785-8.35,7.554a9.676,9.676,0,0,0,3.265,11.128,10.045,10.045,0,0,0,4.149,1.759.022.022,0,0,1,0,.022v4.1h0l-2.593,11.432a19.826,19.826,0,0,0,.246,9.783l3.955,13.986c-.6.413-25.139,17.113-41.531,5.58h0c.062-.5,2.088-16.915.681-24.948a55.494,55.494,0,0,1-.734-6.208v-.154a7,7,0,0,0-2.4-4.749c-1.477-1.319-3.476-4.837-1.5-14.132a34.156,34.156,0,0,1,2.2-6.7l5.5-12.43h0l5.067.1v.035c-.439.545-6.315,7.888-6.953,12.619C318.52,354.093,317.751,355.474,326.387,356.028Z" transform="translate(-188.866 -197.589)" fill="#e6a744"/>
    <path id="Path_21323" data-name="Path 21323" d="M394.692,347.8s4.957,4.252,6.9,13.9,6.285,25.682,6.285,25.682,1.758,7-4.25,13.9-10,12.311-10,12.311l-3.955,5.83a4.962,4.962,0,0,1-2.848,2.014,9.615,9.615,0,0,1-6.97-.5,4.064,4.064,0,0,1-1.758-5.131l.879-2.036s-8.144,5.135-8.851,2.3,9.471-5.668,9.471-5.668S388,409,389.7,405.016c0,0,9.027-11.6,8.319-15.587L389.3,366.051s-10.9-1.442-7.186-13.7S394.692,347.8,394.692,347.8Z" transform="translate(-221.142 -202.394)" fill="#fdc2cc"/>
    <path id="Path_21324" data-name="Path 21324" d="M307.345,509.471s19.917,3.984,24.611,3.452l.505,1.684s7.559,1.693,24.651-1.02q1.674-.264,3.476-.594l.4-.07s.233-1.266.418-3.425a59.424,59.424,0,0,0-2.9-24.112l-2.874-8.855s-17.764,10.654-29.525,9.673c-1.05-.088-2.092-.172-3.142-.207-2.413-.092-6.153,0-8.583-1.948l-5.1.879v14.51a17.392,17.392,0,0,1-1.151,6.208c-.11.29-.224.576-.352.879A4.619,4.619,0,0,0,307.345,509.471Z" transform="translate(-185.931 -275.86)" fill="#65617d"/>
    <path id="Path_21325" data-name="Path 21325" d="M364.58,552.1v4.516s8.7,1.948,28.527-1.684c0,0,.233-1.266.418-3.425C387.442,552.486,370.667,554.834,364.58,552.1Z" transform="translate(-218.054 -317.872)" opacity="0.1"/>
    <path id="Path_21326" data-name="Path 21326" d="M307.348,546.6s19.917,3.984,24.611,3.451l.505,1.684v-4.516c-2.268.941-18.458-2.964-24.326-4.428-.11.29-.224.576-.352.879a4.619,4.619,0,0,0-.439,2.928Z" transform="translate(-185.934 -312.986)" opacity="0.1"/>
    <path id="Path_21327" data-name="Path 21327" d="M417.31,536.392l1.477,9.163q1.674-.264,3.476-.593c-.461-2.678-1.468-8.794-1.191-9.809l-1.859-1.592Z" transform="translate(-247.61 -307.815)" fill="#65617d"/>
    <path id="Path_21328" data-name="Path 21328" d="M417.78,535.942l1.477,9.167q1.674-.268,3.476-.594c-.461-2.678-1.468-8.794-1.191-9.809l-1.859-1.6Z" transform="translate(-247.873 -307.563)" opacity="0.1"/>
    <g id="Group_11855" data-name="Group 11855" transform="translate(127.598 200.657)" opacity="0.05">
      <path id="Path_21329" data-name="Path 21329" d="M333.025,495.774c-1.046-.088-2.092-.171-3.142-.207-2.347-.088-5.929,0-8.372-1.8l.853-.15c2.444,1.939,6.153,1.855,8.583,1.948,1.05.035,2.092.119,3.142.207.343.031.694.048,1.05.057a19.7,19.7,0,0,1-2.114-.057Z" transform="translate(-321.51 -486.093)"/>
      <path id="Path_21330" data-name="Path 21330" d="M396.743,513.57q1.674-.264,3.476-.589l.4-.075s.233-1.266.413-3.425a59.269,59.269,0,0,0-2.9-24.112l-2.707-8.354c.576-.325.879-.514.879-.514l2.874,8.855a59.424,59.424,0,0,1,2.9,24.112c-.185,2.159-.418,3.425-.418,3.425l-.4.075q-1.8.325-3.476.589A109.428,109.428,0,0,1,379.88,515.1,112.887,112.887,0,0,0,396.743,513.57Z" transform="translate(-354.227 -476.5)"/>
      <path id="Path_21331" data-name="Path 21331" d="M360.271,559.3v.048H359.7Q360.025,559.326,360.271,559.3Z" transform="translate(-342.916 -522.894)"/>
    </g>
    <ellipse id="Ellipse_2193" data-name="Ellipse 2193" cx="0.752" cy="1.548" rx="0.752" ry="1.548" transform="translate(171.423 227.192)" fill="#d39999"/>
    <path id="Path_21332" data-name="Path 21332" d="M311.131,448.106c1.213-9.014,3.353-14.369,4.483-16.466.044.286.158,1.214.211,1.5a43.56,43.56,0,0,1,.1,4.656L314.8,458.179l1.507,6.375c1.415,5.048-3.828,1.06-3.828,1.06a3.12,3.12,0,0,1-3.076,2.128l-.272-3.658a31.611,31.611,0,0,1,.914-10.258,48.9,48.9,0,0,0,1.09-5.72Z" transform="translate(-186.922 -250.707)" fill="#fdc2cc"/>
    <path id="Path_21333" data-name="Path 21333" d="M311.131,448.106c1.213-9.014,3.353-14.369,4.483-16.466.044.286.158,1.214.211,1.5a43.56,43.56,0,0,1,.1,4.656L314.8,458.179l1.507,6.375c1.415,5.048-3.828,1.06-3.828,1.06a3.12,3.12,0,0,1-3.076,2.128l-.272-3.658a31.611,31.611,0,0,1,.914-10.258,48.9,48.9,0,0,0,1.09-5.72Z" transform="translate(-186.922 -250.707)" opacity="0.05"/>
    <path id="Path_21334" data-name="Path 21334" d="M396.675,482.591c-.954,1.236-1.477,1.943-1.477,1.943l-3.955,5.826a4.94,4.94,0,0,1-2.848,2.014,9.593,9.593,0,0,1-6.97-.5,4.055,4.055,0,0,1-1.758-5.127l.879-2.04s-8.144,5.135-8.851,2.3,9.471-5.668,9.471-5.668,8.407-1.416,10.108-5.4c0,0,.734-.941,1.758-2.383" transform="translate(-222.022 -274.196)" fill="#fdc2cc"/>
    <path id="Path_21335" data-name="Path 21335" d="M399.357,508.1s-9.629-.937-12.679-6.446l-1.4,4.551s10.108,6.982,12.416,6.076Z" transform="translate(-229.656 -289.935)" fill="#65617d"/>
    <path id="Path_21336" data-name="Path 21336" d="M398.582,507.99s-9.625-.937-12.679-6.45l-1.393,4.538s10.108,6.982,12.411,6.076Z" transform="translate(-229.225 -289.873)" opacity="0.1"/>
    <path id="Path_21337" data-name="Path 21337" d="M312.434,510.46s-3.371,1.2-4.034.532l1.516,2.792,2.865-2.2Z" transform="translate(-186.564 -294.871)" fill="#65617d"/>
    <path id="Path_21338" data-name="Path 21338" d="M312.434,510.46s-3.371,1.2-4.034.532l1.516,2.792,2.865-2.2Z" transform="translate(-186.564 -294.871)" opacity="0.1"/>
    <path id="Path_21339" data-name="Path 21339" d="M331.654,525.3V519.47l-1.384,5.966Z" transform="translate(-185.128 -291.065)" opacity="0.1"/>
    <path id="Path_21340" data-name="Path 21340" d="M356.855,262.983a5.171,5.171,0,0,1-3.613,1.9,28.468,28.468,0,0,1-4.2,0,10.523,10.523,0,0,0-6.333,1.6,16.106,16.106,0,0,0-2.9,3.078c-2.716,3.32-6.487,6.428-10.767,6.081a2.79,2.79,0,0,1-2-.844,3.211,3.211,0,0,1-.51-1.82,41.627,41.627,0,0,1,.259-8.2,17.3,17.3,0,0,1,1.239-4.894,16.707,16.707,0,0,1,2.98-4.256,18.228,18.228,0,0,1,5.2-4.168,9.322,9.322,0,0,1,6.5-.84c2.562.7,4.557,2.7,7,3.737C352.5,255.526,359.914,258.661,356.855,262.983Z" transform="translate(-196.674 -149.137)" opacity="0.1"/>
    <path id="Path_21341" data-name="Path 21341" d="M356.855,261.767a5.171,5.171,0,0,1-3.613,1.9,28.459,28.459,0,0,1-4.2,0,10.489,10.489,0,0,0-6.333,1.592,16.1,16.1,0,0,0-2.9,3.078c-2.716,3.32-6.487,6.428-10.767,6.081a2.773,2.773,0,0,1-2-.844,3.2,3.2,0,0,1-.51-1.82,41.632,41.632,0,0,1,.259-8.2,17.3,17.3,0,0,1,1.239-4.894,16.594,16.594,0,0,1,2.98-4.252,18.166,18.166,0,0,1,5.2-4.173,9.322,9.322,0,0,1,6.5-.84c2.562.7,4.557,2.7,7,3.737C352.5,254.31,359.914,257.436,356.855,261.767Z" transform="translate(-196.674 -148.454)" fill="#865a61"/>
    <path id="Path_21342" data-name="Path 21342" d="M291.8,473.47l-.035,1.6-.36-1.534Z" transform="translate(-163.341 -265.29)" fill="#fdc2cc"/>
    <path id="Path_21343" data-name="Path 21343" d="M291.8,473.47l-.035,1.6-.36-1.534Z" transform="translate(-163.341 -265.29)" opacity="0.05"/>
    <g id="Group_11856" data-name="Group 11856" transform="translate(159.976 143.397)" opacity="0.05">
      <path id="Path_21344" data-name="Path 21344" d="M397.555,351.995c-3.722,12.254,7.128,13.692,7.128,13.692l8.719,23.378c.708,3.984-8.324,15.587-8.324,15.587a7.725,7.725,0,0,1-3.911,3.452,6.129,6.129,0,0,0,2.32-2.55s9.027-11.6,8.319-15.582l-8.719-23.383s-10.846-1.438-7.128-13.692c1.244-4.093,3.076-5.958,4.931-6.626C399.612,347.3,398.439,349.08,397.555,351.995Z" transform="translate(-395.184 -346.27)"/>
    </g>
    <g id="Group_11857" data-name="Group 11857" transform="translate(123.672 139.246)" opacity="0.1">
      <path id="Path_21345" data-name="Path 21345" d="M401,384.61a9.159,9.159,0,0,0,1.758,1.666,9.986,9.986,0,0,0,4.149,1.759v.462a9.957,9.957,0,0,1-3.762-1.666A9.123,9.123,0,0,1,401,384.61Z" transform="translate(-362.139 -363.602)"/>
      <path id="Path_21346" data-name="Path 21346" d="M322.279,419.566v.154a56.813,56.813,0,0,0,.756,6.23c1.318,7.58-.409,22.631-.655,24.71-.141-.092-.281-.18-.439-.281.066-.5,2.092-16.915.686-24.943a55.729,55.729,0,0,1-.734-6.208v-.154a6.787,6.787,0,0,0-1.182-3.364A6.839,6.839,0,0,1,322.279,419.566Z" transform="translate(-317.136 -381.028)"/>
      <path id="Path_21347" data-name="Path 21347" d="M325.811,337.432l-4.3-.084a.022.022,0,0,0-.022,0L316,349.774a34.268,34.268,0,0,0-2.2,6.7c-1.6,7.519-.593,11.265.628,13.116-1.376-1.622-2.8-5.32-1.024-13.63a33.907,33.907,0,0,1,2.175-6.7l5.533-12.426h0l5.067.1v.031C326.141,337.015,326,337.182,325.811,337.432Z" transform="translate(-312.577 -336.83)"/>
      <path id="Path_21348" data-name="Path 21348" d="M416.39,345.87l.075.022Z" transform="translate(-370.766 -341.895)"/>
      <path id="Path_21349" data-name="Path 21349" d="M365.521,343.379l-4.307-1.3h-.022c-.255.281-6.482,7.189-11.163,12.782-4.184,5-11.519,4.608-13.286,4.432-.321-.035-.646-.062-.967-.084-4.8-.308-6.693-.879-7.326-2.093.9.879,2.883,1.319,6.926,1.565.325,0,.646.048.967.079,1.758.176,9.1.567,13.286-4.428,4.681-5.6,10.912-12.5,11.167-12.786h0l6.267,1.9A3.913,3.913,0,0,0,365.521,343.379Z" transform="translate(-321.474 -339.475)"/>
    </g>
    <path id="Path_21350" data-name="Path 21350" d="M287.538,776.425s-6.065,1.658-7.238-.945" transform="translate(-170.814 -443.366)" opacity="0.1"/>
    <path id="Path_21351" data-name="Path 21351" d="M373.338,773.534s-7.032,1.816-8.658-.994" transform="translate(-218.11 -441.719)" opacity="0.1"/>
    <path id="Path_21352" data-name="Path 21352" d="M554.475,750.128c.1-.879.246-1.759.4-2.638a18.4,18.4,0,0,0-.879-8.917h0c-.163-.462-.281-.721-.281-.721-2.8-.765-13.835,7.8-17.856,11.027-1.393,0-2.905.062-4.557.172-.721.053-1.442.07-2.162.057h-2.637c-3.731-3.008-15.281-12.052-18.155-11.269,0,0-.119.259-.281.721h0a18.075,18.075,0,0,0-.9,8.917c.158.879.3,1.759.4,2.638a12.626,12.626,0,0,0,3.955,8.139c.629,4.573,2.98,10.583,4.79,14.233a10.2,10.2,0,0,0,.615,2.009c-.747,2.884-1.609,6.648-1.362,7.914,0,0-3.9-.945-4.3,3.755v.145c-1.411.646-3.173,2.128-1.191,5.232a2.036,2.036,0,0,0,1.02.831c.352.123.694.123.659-.369l2.439,2.748s4.421.51,4.474-2.058l.259.04c.593.088,1.213.163,1.85.229l.308,1.016s-3.318-.07-2.413,1.974c0,0,.835.774,1.121.492,0,0-.44,1.341,1.292,1.341,0,0,1.859.985,2.584.281s2.228-1.759,2.369-2.2c.04-.119.057-1.161.066-2.6h.286c3.7.088,7.638-.031,11.216-.224h.29c0,1.561.022,2.713.062,2.836.145.44,1.652,1.482,2.373,2.2s2.58-.281,2.58-.281c1.723,0,1.292-1.341,1.292-1.341.29.281,1.125-.492,1.125-.492.905-2.045-2.417-1.974-2.417-1.974l.4-1.319,1.833-.154.29-.026c-.176,2.792,4.47,2.256,4.47,2.256L552.348,792c-.04.492.3.492.655.369a2.018,2.018,0,0,0,.989-.84c2.993-4.683-2.536-5.676-2.536-5.676a2.708,2.708,0,0,0-.523-.084.9.9,0,0,1,.022-.242h0a9.657,9.657,0,0,0,.035-1.856,4.08,4.08,0,0,0-3.292-2.4c-1.125-.141-1.147-5.311-1.033-8.895a10.234,10.234,0,0,0,.176-2.04,10.766,10.766,0,0,0-.439-3.267c2.2-3.729,3.955-7.637,4.153-8.794A12.8,12.8,0,0,0,554.475,750.128Z" transform="translate(-297.848 -422.248)" fill="url(#linear-gradient-5)"/>
    <path id="Path_21353" data-name="Path 21353" d="M556.577,826.342h0c-.176,2.436-.646,6.345-.646,6.345s-1.956.237-4.979.51l-2.052.176c-1.573.128-3.34.251-5.208.356-3.45.189-7.238.308-10.811.22-1.784-.04-3.516-.132-5.12-.29-.716-.07-1.411-.154-2.07-.251-4.1-.611-7.032-1.781-7.282-3.834a11.878,11.878,0,0,1-.092-2.638c.382-4.617,4.14-3.685,4.14-3.685-.242-1.275.668-5.237,1.406-8.1.466-1.807.879-3.179.879-3.179l26.422-1.759h.088a1.292,1.292,0,0,1,1.292,1.359c-.158,3.17-.382,10.429.914,10.592a3.983,3.983,0,0,1,3.177,2.352A9.864,9.864,0,0,1,556.577,826.342Z" transform="translate(-304.205 -462.826)" fill="#e6a744"/>
    <path id="Path_21354" data-name="Path 21354" d="M528.853,752.409s-9.963,12-14.762,8.675c-.114-.079-.224-.158-.33-.242-3.226-2.445-4.074-6.384-4.3-8.385-.1-.879-.237-1.728-.391-2.585a17.961,17.961,0,0,1,.879-8.754h0c.158-.44.268-.708.268-.708C513.537,739.487,528.853,752.409,528.853,752.409Z" transform="translate(-298.922 -423.689)" fill="#e6a744"/>
    <path id="Path_21355" data-name="Path 21355" d="M523.472,754.479s-3.138,2.2-7.564,5.813a15.979,15.979,0,0,1-2.2,1.513c-3.226-2.445-4.074-6.384-4.3-8.385-.1-.879-.237-1.728-.391-2.585a17.961,17.961,0,0,1,.879-8.754h0C516.107,742.511,523.472,754.479,523.472,754.479Z" transform="translate(-298.894 -424.651)" fill="#e6a744"/>
    <path id="Path_21356" data-name="Path 21356" d="M523.472,754.479s-3.138,2.2-7.564,5.813a15.979,15.979,0,0,1-2.2,1.513c-3.226-2.445-4.074-6.384-4.3-8.385-.1-.879-.237-1.728-.391-2.585a17.961,17.961,0,0,1,.879-8.754h0C516.107,742.511,523.472,754.479,523.472,754.479Z" transform="translate(-298.894 -424.651)" fill="#fff" opacity="0.5"/>
    <path id="Path_21357" data-name="Path 21357" d="M524.465,759.157s-1.674,1.183-4.039,3.1a8.5,8.5,0,0,1-1.16.8,6.474,6.474,0,0,1-2.294-4.472c-.048-.466-.123-.923-.207-1.385a9.616,9.616,0,0,1,.488-4.669h0C520.536,752.769,524.465,759.157,524.465,759.157Z" transform="translate(-303.301 -430.512)" opacity="0.1"/>
    <path id="Path_21358" data-name="Path 21358" d="M569.05,752.409s9.963,12,14.762,8.675c.11-.079.224-.158.33-.242,3.226-2.445,4.074-6.384,4.3-8.385.1-.879.237-1.728.387-2.585a17.907,17.907,0,0,0-.879-8.754h0c-.158-.44-.272-.708-.272-.708C584.366,739.487,569.05,752.409,569.05,752.409Z" transform="translate(-332.662 -423.689)" fill="#e6a744"/>
    <path id="Path_21359" data-name="Path 21359" d="M581.22,754.479s3.142,2.2,7.568,5.813a15.975,15.975,0,0,0,2.175,1.513c3.226-2.445,4.074-6.384,4.3-8.385.1-.879.237-1.728.387-2.585a17.907,17.907,0,0,0-.879-8.754h0C588.595,742.511,581.22,754.479,581.22,754.479Z" transform="translate(-339.484 -424.651)" fill="#e6a744"/>
    <path id="Path_21360" data-name="Path 21360" d="M581.22,754.479s3.142,2.2,7.568,5.813a15.975,15.975,0,0,0,2.175,1.513c3.226-2.445,4.074-6.384,4.3-8.385.1-.879.237-1.728.387-2.585a17.907,17.907,0,0,0-.879-8.754h0C588.595,742.511,581.22,754.479,581.22,754.479Z" transform="translate(-339.484 -424.651)" fill="#fff" opacity="0.5"/>
    <path id="Path_21361" data-name="Path 21361" d="M589.05,759.177s1.666,1.178,4.013,3.078a8.043,8.043,0,0,0,1.156.8,6.5,6.5,0,0,0,2.281-4.445c.048-.44.123-.919.206-1.376a9.634,9.634,0,0,0-.461-4.643h0C592.957,752.827,589.05,759.177,589.05,759.177Z" transform="translate(-343.872 -430.54)" opacity="0.1"/>
    <path id="Path_21362" data-name="Path 21362" d="M558.274,810.23a23.877,23.877,0,0,1-3.815,4.863c-3.955,3.517-21.034,2.119-22.141,1.939-.233-.04-.716-.73-1.318-1.851.466-1.807.879-3.179.879-3.179Z" transform="translate(-311.335 -462.837)" opacity="0.1"/>
    <path id="Path_21363" data-name="Path 21363" d="M537.79,765.25c-.694.048-1.389.066-2.088.053-3.564-.062-15.571.1-16.9,4.947-1.569,5.716,5.445,21.021,6.548,21.206s18.177,1.57,22.146-1.939,9.133-14.51,8.856-15.508C556.349,774.008,561.271,763.623,537.79,765.25Z" transform="translate(-304.368 -437.537)" fill="#e6a744"/>
    <path id="Path_21364" data-name="Path 21364" d="M543.593,786.452a12.605,12.605,0,0,0-12.912,7.3,10.557,10.557,0,0,0,.778,10.636c1.371,1.93,3.384,3.368,6.184,2.2C543.866,804.022,543.593,786.452,543.593,786.452Z" transform="translate(-310.55 -449.471)" opacity="0.1"/>
    <path id="Path_21365" data-name="Path 21365" d="M542.963,785.192a12.606,12.606,0,0,0-12.912,7.3,10.557,10.557,0,0,0,.778,10.636c1.371,1.93,3.384,3.368,6.184,2.2C543.236,802.762,542.963,785.192,542.963,785.192Z" transform="translate(-310.197 -448.765)" opacity="0.1"/>
    <path id="Path_21366" data-name="Path 21366" d="M542.963,785.822a12.606,12.606,0,0,0-12.912,7.3,10.557,10.557,0,0,0,.778,10.636c1.371,1.93,3.384,3.368,6.184,2.2C543.236,803.392,542.963,785.822,542.963,785.822Z" transform="translate(-310.197 -449.118)" fill="#e6a744"/>
    <path id="Path_21367" data-name="Path 21367" d="M542.963,785.822a12.606,12.606,0,0,0-12.912,7.3,10.557,10.557,0,0,0,.778,10.636c1.371,1.93,3.384,3.368,6.184,2.2C543.236,803.392,542.963,785.822,542.963,785.822Z" transform="translate(-310.197 -449.118)" fill="#fff" opacity="0.5"/>
    <path id="Path_21368" data-name="Path 21368" d="M538.164,803.13s-1.2,1.108-.738,1.385S538.164,803.13,538.164,803.13Z" transform="translate(-314.877 -458.859)" fill="#3f2b3b"/>
    <path id="Path_21369" data-name="Path 21369" d="M541.726,806.35s-.655,1.447-.189,1.6.743-1.038.743-1.038Z" transform="translate(-317.147 -460.663)" fill="#3f2b3b"/>
    <path id="Path_21370" data-name="Path 21370" d="M535.226,811.32s-.642,1.706,0,1.706S535.226,811.32,535.226,811.32Z" transform="translate(-313.544 -463.448)" fill="#3f2b3b"/>
    <path id="Path_21371" data-name="Path 21371" d="M533.78,821.71s1.283,3.28,4.623,3.047" transform="translate(-312.893 -469.269)" fill="none" stroke="#3f2b3b" stroke-miterlimit="10" stroke-width="1"/>
    <path id="Path_21372" data-name="Path 21372" d="M540.61,823.91a2.312,2.312,0,0,0,2.764.369" transform="translate(-316.721 -470.502)" fill="none" stroke="#3f2b3b" stroke-miterlimit="10" stroke-width="1"/>
    <path id="Path_21373" data-name="Path 21373" d="M564,786.452a12.606,12.606,0,0,1,12.912,7.3,10.557,10.557,0,0,1-.778,10.636c-1.367,1.93-3.384,3.368-6.184,2.2C563.707,804.022,564,786.452,564,786.452Z" transform="translate(-329.829 -449.471)" opacity="0.1"/>
    <path id="Path_21374" data-name="Path 21374" d="M564.588,785.192a12.606,12.606,0,0,1,12.912,7.3,10.557,10.557,0,0,1-.778,10.636c-1.367,1.93-3.384,3.368-6.184,2.2C564.329,802.762,564.588,785.192,564.588,785.192Z" transform="translate(-330.16 -448.765)" opacity="0.1"/>
    <path id="Path_21375" data-name="Path 21375" d="M564.588,785.822a12.606,12.606,0,0,1,12.912,7.3,10.557,10.557,0,0,1-.778,10.636c-1.367,1.93-3.384,3.368-6.184,2.2C564.329,803.392,564.588,785.822,564.588,785.822Z" transform="translate(-330.16 -449.118)" fill="#e6a744"/>
    <path id="Path_21376" data-name="Path 21376" d="M564.588,785.822a12.606,12.606,0,0,1,12.912,7.3,10.557,10.557,0,0,1-.778,10.636c-1.367,1.93-3.384,3.368-6.184,2.2C564.329,803.392,564.588,785.822,564.588,785.822Z" transform="translate(-330.16 -449.118)" fill="#fff" opacity="0.5"/>
    <path id="Path_21377" data-name="Path 21377" d="M586.16,803.13s1.2,1.108.738,1.385S586.16,803.13,586.16,803.13Z" transform="translate(-342.253 -458.859)" fill="#3f2b3b"/>
    <path id="Path_21378" data-name="Path 21378" d="M582.514,806.35s.655,1.447.189,1.6-.743-1.038-.743-1.038Z" transform="translate(-339.898 -460.663)" fill="#3f2b3b"/>
    <path id="Path_21379" data-name="Path 21379" d="M589.459,811.32s.637,1.706,0,1.706S589.459,811.32,589.459,811.32Z" transform="translate(-343.943 -463.448)" fill="#3f2b3b"/>
    <path id="Path_21380" data-name="Path 21380" d="M585.723,821.71s-1.283,3.28-4.623,3.047" transform="translate(-339.416 -469.269)" fill="none" stroke="#3f2b3b" stroke-miterlimit="10" stroke-width="1"/>
    <path id="Path_21381" data-name="Path 21381" d="M581.269,823.91a2.317,2.317,0,0,1-2.769.369" transform="translate(-337.959 -470.502)" fill="none" stroke="#3f2b3b" stroke-miterlimit="10" stroke-width="1"/>
    <path id="Path_21382" data-name="Path 21382" d="M553.2,841.8a12.758,12.758,0,0,1,9.133,0Z" transform="translate(-323.778 -480.037)" fill="#3f2b3b"/>
    <path id="Path_21383" data-name="Path 21383" d="M525.69,853.908c-4.1-.611-7.032-1.781-7.282-3.834a11.877,11.877,0,0,1-.092-2.638,5.907,5.907,0,0,1,1.565-.572c.743-.207,1.661-.066,3.6.488s1.8,2.836,2.2,5.813a2.46,2.46,0,0,1,.013.743Z" transform="translate(-304.205 -483.313)" opacity="0.1"/>
    <path id="Path_21384" data-name="Path 21384" d="M517.082,847.518s-5.327.976-2.444,5.575a1.965,1.965,0,0,0,.984.813c.338.119.664.119.628-.365l2.356,2.7s4.7.554,4.289-2.423-.277-5.276-2.2-5.813S517.834,847.312,517.082,847.518Z" transform="translate(-301.684 -483.681)" fill="#e6a744"/>
    <path id="Path_21385" data-name="Path 21385" d="M524.18,854.67s1.13,2.581,2.7.413" transform="translate(-307.512 -487.737)" fill="none" stroke="#3f2b3b" stroke-miterlimit="10" stroke-width="1"/>
    <path id="Path_21386" data-name="Path 21386" d="M518.28,857s.584,2.445,2.8.624" transform="translate(-304.205 -489.043)" fill="none" stroke="#3f2b3b" stroke-miterlimit="10" stroke-width="1"/>
    <path id="Path_21387" data-name="Path 21387" d="M598.229,846.844h0c-.176,2.436-.646,6.345-.646,6.345s-1.956.237-4.979.51a2.556,2.556,0,0,1,0-.51c.413-2.977.277-5.276,2.2-5.813A8.449,8.449,0,0,1,598.229,846.844Z" transform="translate(-345.857 -483.327)" opacity="0.1"/>
    <path id="Path_21388" data-name="Path 21388" d="M599.077,847.518s5.331.976,2.448,5.575a1.981,1.981,0,0,1-.984.813c-.338.119-.668.119-.633-.365l-2.351,2.7s-4.707.554-4.289-2.423.277-5.276,2.2-5.813S598.338,847.312,599.077,847.518Z" transform="translate(-346.221 -483.681)" fill="#e6a744"/>
    <path id="Path_21389" data-name="Path 21389" d="M600.2,854.67s-1.134,2.581-2.7.413" transform="translate(-348.609 -487.737)" fill="none" stroke="#3f2b3b" stroke-miterlimit="10" stroke-width="1"/>
    <path id="Path_21390" data-name="Path 21390" d="M605.964,857s-.589,2.445-2.8.624" transform="translate(-351.781 -489.043)" fill="none" stroke="#3f2b3b" stroke-miterlimit="10" stroke-width="1"/>
    <path id="Path_21391" data-name="Path 21391" d="M542.75,851.516c-1.784-.04-3.516-.132-5.12-.29l-1.6-5.373a3.487,3.487,0,0,1-.145-.98,3.419,3.419,0,0,1,6.834-.022C542.742,846.943,542.759,849.594,542.75,851.516Z" transform="translate(-314.075 -480.393)" opacity="0.1"/>
    <path id="Path_21392" data-name="Path 21392" d="M534.831,845.706l1.881,6.34s-3.2-.07-2.325,1.939c0,0,.8.761,1.081.484,0,0-.417,1.319,1.244,1.319,0,0,1.793.972,2.487.277s2.149-1.732,2.29-2.146c.088-.273.062-5.575.031-9.233A3.411,3.411,0,0,0,538.1,841.3h0a3.416,3.416,0,0,0-3.274,4.406Z" transform="translate(-313.148 -480.246)" fill="#e6a744"/>
    <path id="Path_21393" data-name="Path 21393" d="M540.255,869.47s-1.4,1.319-.659,2.1" transform="translate(-316.032 -496.03)" fill="none" stroke="#3f2b3b" stroke-miterlimit="10" stroke-width="1"/>
    <path id="Path_21394" data-name="Path 21394" d="M538.352,867.56a1.9,1.9,0,0,0-1.292,1.622" transform="translate(-314.731 -494.96)" fill="none" stroke="#3f2b3b" stroke-miterlimit="10" stroke-width="1"/>
    <path id="Path_21395" data-name="Path 21395" d="M582.988,844.722a3.478,3.478,0,0,1-.141.98l-1.49,5.087c-1.573.127-3.34.251-5.208.356,0-1.9,0-4.428.031-6.446a3.415,3.415,0,1,1,6.83.022Z" transform="translate(-336.642 -480.243)" opacity="0.1"/>
    <path id="Path_21396" data-name="Path 21396" d="M583.437,845.706l-1.881,6.34s3.2-.07,2.329,1.939c0,0-.8.761-1.081.484,0,0,.413,1.319-1.248,1.319,0,0-1.793.972-2.487.277s-2.145-1.732-2.285-2.146c-.088-.273-.062-5.575-.031-9.233a3.411,3.411,0,0,1,3.415-3.386h0a3.416,3.416,0,0,1,3.27,4.406Z" transform="translate(-336.963 -480.246)" fill="#e6a744"/>
    <path id="Path_21397" data-name="Path 21397" d="M586.23,869.47s1.4,1.319.659,2.1" transform="translate(-342.292 -496.03)" fill="none" stroke="#3f2b3b" stroke-miterlimit="10" stroke-width="1"/>
    <path id="Path_21398" data-name="Path 21398" d="M587.63,867.56a1.9,1.9,0,0,1,1.292,1.622" transform="translate(-343.076 -494.96)" fill="none" stroke="#3f2b3b" stroke-miterlimit="10" stroke-width="1"/>
    <path id="Path_21399" data-name="Path 21399" d="M552.251,782.768s-6.509-.207-6.715,4.837,10.17,2.906,10.17,2.906,4.36-.585,3.6-3.649S556.958,783.045,552.251,782.768Z" transform="translate(-319.481 -447.449)" opacity="0.1"/>
    <path id="Path_21400" data-name="Path 21400" d="M552.251,781.509s-6.509-.207-6.715,4.836,10.17,2.906,10.17,2.906,4.36-.585,3.6-3.649S556.958,781.786,552.251,781.509Z" transform="translate(-319.481 -446.743)" opacity="0.1"/>
    <path id="Path_21401" data-name="Path 21401" d="M552.251,782.138s-6.509-.207-6.715,4.836,10.17,2.906,10.17,2.906,4.36-.585,3.6-3.649S556.958,782.415,552.251,782.138Z" transform="translate(-319.481 -447.096)" fill="#3f2b3b"/>
    <path id="Path_21402" data-name="Path 21402" d="M527.78,839.92s2.2.783,2.637,2.282" transform="translate(-309.53 -479.473)" opacity="0.1"/>
    <path id="Path_21403" data-name="Path 21403" d="M596.423,837.4s-1.56.655-1.45,3.39" transform="translate(-347.189 -478.061)" opacity="0.1"/>
    <path id="Path_21407" data-name="Path 21407" d="M1.02,0C1.582,0,2.038.757,2.038,1.69s-.456,1.69-1.019,1.69S0,2.623,0,1.69.457,0,1.02,0Z" transform="translate(217.449 370.92) rotate(-29.887)" fill="#e6a744"/>
    <path id="Path_21408" data-name="Path 21408" d="M1.684,0c.93,0,1.684.454,1.684,1.015S2.614,2.031,1.684,2.031,0,1.577,0,1.016.754,0,1.684,0Z" transform="translate(248.381 371.317) rotate(-60)" fill="#e6a744"/>
    <path id="Path_21409" data-name="Path 21409" d="M1.02,0C1.582,0,2.038.757,2.038,1.69s-.456,1.69-1.019,1.69S0,2.623,0,1.69.457,0,1.02,0Z" transform="translate(217.449 370.92) rotate(-29.887)" fill="#fff" opacity="0.5"/>
    <path id="Path_21410" data-name="Path 21410" d="M1.684,0c.93,0,1.684.454,1.684,1.015S2.614,2.031,1.684,2.031,0,1.577,0,1.016.754,0,1.684,0Z" transform="translate(248.381 371.317) rotate(-60)" fill="#fff" opacity="0.5"/>
    <ellipse id="Ellipse_2198" data-name="Ellipse 2198" cx="11.835" cy="2.001" rx="11.835" ry="2.001" transform="translate(72.802 312.843)" fill="#e6a744" opacity="0.1"/>
    <ellipse id="Ellipse_2199" data-name="Ellipse 2199" cx="11.835" cy="2.001" rx="11.835" ry="2.001" transform="translate(26.177 341.215)" fill="#e6a744" opacity="0.1"/>
    <ellipse id="Ellipse_2200" data-name="Ellipse 2200" cx="17.672" cy="2.99" rx="17.672" ry="2.99" transform="translate(8.018 314.843)" fill="#e6a744"/>
    <path id="Path_21404" data-name="Path 21404" d="M70.778,721.5a5.113,5.113,0,0,1-1.688-2.541,2.266,2.266,0,0,1,1.178-2.59c1.081-.413,2.237.334,3.112,1.09s1.881,1.622,3.028,1.464a4.614,4.614,0,0,1-1.424-4.318,1.759,1.759,0,0,1,.4-.879c.6-.642,1.688-.365,2.408.141,2.281,1.609,2.923,4.713,2.931,7.51a13.857,13.857,0,0,0,.044-3.078,3.167,3.167,0,0,1,1.16-2.735,3.515,3.515,0,0,1,1.758-.44,3.676,3.676,0,0,1,2.874.818,2.829,2.829,0,0,1-.114,3.518,11.492,11.492,0,0,1-2.971,2.383,6.559,6.559,0,0,0-2.127,2.027,2.076,2.076,0,0,0-.158.361H74.764a17.768,17.768,0,0,1-3.986-2.73Z" transform="translate(-52.397 -408.554)" fill="#e6a744"/>
    <ellipse id="Ellipse_2201" data-name="Ellipse 2201" cx="11.835" cy="2.001" rx="11.835" ry="2.001" transform="translate(440.753 329.577)" fill="#e6a744" opacity="0.1"/>
    <path id="Path_21405" data-name="Path 21405" d="M1042.91,748.46s6.75-.207,8.79-1.658,10.381-3.179,10.886-.853,10.148,11.559,2.523,11.621-17.707-1.187-19.737-2.427S1042.91,748.46,1042.91,748.46Z" transform="translate(-598.267 -426.182)" fill="#a8a8a8"/>
    <path id="Path_21406" data-name="Path 21406" d="M1065.24,761.41c-7.621.062-17.707-1.187-19.737-2.427-1.547-.941-2.162-4.322-2.369-5.883h-.224s.439,5.448,2.457,6.683,12.117,2.489,19.737,2.427c2.2,0,2.962-.8,2.918-1.961C1067.719,760.97,1066.879,761.41,1065.24,761.41Z" transform="translate(-598.267 -430.826)" opacity="0.2"/>
  </g>
</svg>
