<svg xmlns="http://www.w3.org/2000/svg" width="500" height="382" viewBox="0 0 500 382">
  <g id="undraw_Done_checking_re_6vyx" transform="translate(0)">
    <path id="Path_20885" data-name="Path 20885" d="M268.437,722.955l-.023.151c-.028-.147-.054-.3-.08-.447-.046-.24-.086-.481-.124-.723a58.889,58.889,0,0,1,2.407-28.2q.889-2.654,2.024-5.21a57.763,57.763,0,0,1,12.1-17.688,24.912,24.912,0,0,1,5.613-4.308c.3-.161.608-.313.92-.454a10.267,10.267,0,0,1,6.158-.893,8.393,8.393,0,0,1,2.193.736c.243.118.477.248.707.387a12.173,12.173,0,0,1,5.326,8.151,19.021,19.021,0,0,1-.268,7.413q-.074.348-.159.693a38.637,38.637,0,0,1-1.533,4.763C297.559,703.134,284.364,717.155,268.437,722.955Z" transform="translate(-222.295 -341.552)" fill="#f2f2f2"/>
    <path id="Path_20886" data-name="Path 20886" d="M299.973,666.437q-7.187,10.331-13.578,21.185t-11.932,22.154q-3.1,6.327-5.936,12.783c-.209.476.5.89.708.408q5.058-11.524,10.979-22.642t12.665-21.743q3.776-5.951,7.8-11.737C300.981,666.413,300.272,666.007,299.973,666.437Z" transform="translate(-222.682 -342.014)" fill="#fff"/>
    <path id="Path_20887" data-name="Path 20887" d="M315.414,692.315a22.435,22.435,0,0,1-14.75,8.551,21.314,21.314,0,0,1-4.924.1c-.525-.05-.528.768-.008.817a23.247,23.247,0,0,0,16.858-5.329,22.147,22.147,0,0,0,3.532-3.729c.315-.419-.4-.825-.708-.408Z" transform="translate(-232.996 -351.951)" fill="#fff"/>
    <path id="Path_20888" data-name="Path 20888" d="M275.828,721.934a18.793,18.793,0,0,1-2.072-3.833,19.826,19.826,0,0,1-1.273-9.732q.889-2.654,2.024-5.21a.468.468,0,0,1,.038.462A17.938,17.938,0,0,0,273.4,707.6a18.949,18.949,0,0,0,3.135,13.927.333.333,0,0,1,.054.32.445.445,0,0,1-.764.085Z" transform="translate(-224.161 -356.181)" fill="#fff"/>
    <path id="Path_20889" data-name="Path 20889" d="M304.461,666.439a19.027,19.027,0,0,0,.838,11.817.411.411,0,0,0,.557.152.419.419,0,0,0,.152-.557,18.107,18.107,0,0,1-.759-11.2.409.409,0,0,0-.788-.215Z" transform="translate(-236.277 -341.974)" fill="#fff"/>
    <path id="Path_20890" data-name="Path 20890" d="M261.136,686.5l.05.145c-.093-.118-.187-.239-.278-.359-.153-.191-.3-.386-.446-.582A58.881,58.881,0,0,1,249.5,659.615q-.445-2.763-.627-5.555a57.776,57.776,0,0,1,2.5-21.287,24.922,24.922,0,0,1,2.97-6.423c.194-.283.393-.56.6-.829a10.269,10.269,0,0,1,5.039-3.652,8.391,8.391,0,0,1,2.283-.367c.27-.008.538,0,.806.014a12.168,12.168,0,0,1,8.5,4.744,19.02,19.02,0,0,1,3.205,6.689q.1.343.181.688a38.654,38.654,0,0,1,.854,4.93C277.722,655.415,272.547,673.963,261.136,686.5Z" transform="translate(-215.095 -324.833)" fill="#f2f2f2"/>
    <path id="Path_20891" data-name="Path 20891" d="M269.083,621.375q-1.567,12.488-2.186,25.07t-.278,25.163q.19,7.045.679,14.078c.036.519.853.558.816.032q-.872-12.555-.792-25.152t1.118-25.14q.58-7.024,1.459-14.019c.065-.522-.751-.552-.816-.033Z" transform="translate(-221.917 -324.642)" fill="#fff"/>
    <path id="Path_20892" data-name="Path 20892" d="M281.583,640.423a22.444,22.444,0,0,1-9.091,14.426,21.316,21.316,0,0,1-4.315,2.374c-.488.2-.111.926.372.728A23.255,23.255,0,0,0,281,645.4a22.153,22.153,0,0,0,1.4-4.943c.084-.518-.733-.547-.816-.032Z" transform="translate(-222.475 -331.955)" fill="#fff"/>
    <path id="Path_20893" data-name="Path 20893" d="M258.849,690.361a18.779,18.779,0,0,1-3.615-2.431,19.822,19.822,0,0,1-5.647-8.027q-.445-2.763-.627-5.554a.467.467,0,0,1,.248.391,17.939,17.939,0,0,0,.837,4.056,18.943,18.943,0,0,0,9.244,10.876.332.332,0,0,1,.2.258.445.445,0,0,1-.637.43Z" transform="translate(-215.182 -345.121)" fill="#fff"/>
    <path id="Path_20894" data-name="Path 20894" d="M257.627,628.236a19.022,19.022,0,0,0,6.229,10.076.411.411,0,0,0,.564-.124.419.419,0,0,0-.124-.564,18.1,18.1,0,0,1-5.872-9.562.409.409,0,0,0-.8.176Z" transform="translate(-218.507 -327.234)" fill="#fff"/>
    <path id="Path_20895" data-name="Path 20895" d="M245.684,723.6l.12.1c-.142-.049-.286-.1-.428-.153-.232-.079-.46-.163-.689-.251A58.855,58.855,0,0,1,221.4,707.219q-1.863-2.088-3.519-4.342a57.768,57.768,0,0,1-9.352-19.285,24.926,24.926,0,0,1-.956-7.012c.011-.343.03-.684.063-1.024a10.273,10.273,0,0,1,2.28-5.792,8.4,8.4,0,0,1,1.727-1.539c.223-.153.452-.291.686-.422a12.166,12.166,0,0,1,9.717-.583,19.012,19.012,0,0,1,6.3,3.909q.266.237.523.482a38.613,38.613,0,0,1,3.374,3.694C242.922,688.476,248.549,706.892,245.684,723.6Z" transform="translate(-199.288 -342.098)" fill="#f2f2f2"/>
    <path id="Path_20896" data-name="Path 20896" d="M214.195,669.025q5.4,11.366,11.656,22.3t13.314,21.352q3.953,5.834,8.152,11.5c.31.418,1.019.011.705-.412q-7.494-10.11-14.209-20.766t-12.593-21.785q-3.293-6.231-6.318-12.6C214.675,668.138,213.97,668.552,214.195,669.025Z" transform="translate(-201.813 -342.839)" fill="#fff"/>
    <path id="Path_20897" data-name="Path 20897" d="M239.368,674.628a22.449,22.449,0,0,1,.107,17.052,21.335,21.335,0,0,1-2.357,4.325c-.3.431.4.84.705.412a23.264,23.264,0,0,0,3.736-17.285,22.154,22.154,0,0,0-1.485-4.917C239.865,673.734,239.161,674.15,239.368,674.628Z" transform="translate(-210.605 -344.988)" fill="#fff"/>
    <path id="Path_20898" data-name="Path 20898" d="M241.267,733.72a18.78,18.78,0,0,1-4.355-.1,19.812,19.812,0,0,1-9.08-3.721q-1.863-2.088-3.519-4.342a.467.467,0,0,1,.419.2,17.93,17.93,0,0,0,2.889,2.967,18.936,18.936,0,0,0,13.644,4.184.332.332,0,0,1,.3.112.445.445,0,0,1-.3.706Z" transform="translate(-205.716 -364.777)" fill="#fff"/>
    <path id="Path_20899" data-name="Path 20899" d="M206.87,681.854a19.013,19.013,0,0,0,10.674,5.134c.221.029.406-.209.409-.409a.419.419,0,0,0-.409-.409,18.094,18.094,0,0,1-10.1-4.894C207.069,680.911,206.49,681.488,206.87,681.854Z" transform="translate(-198.969 -347.736)" fill="#fff"/>
    <path id="Path_20900" data-name="Path 20900" d="M353.466,542.248a6.62,6.62,0,0,0,.974-10.1l2.567-57.311L343.939,476.3l.759,56.058a6.654,6.654,0,0,0,8.767,9.888Z" transform="translate(-251.304 -268.533)" fill="#ffb8b8"/>
    <path id="Path_20901" data-name="Path 20901" d="M204.564,583.83,212,585.137l7.351-28.073-9.745-1.93Z" transform="translate(-78.564 -213.1)" fill="#ffb8b8"/>
    <path id="Path_20902" data-name="Path 20902" d="M0,.007H23.733V9.18H9.17A9.172,9.172,0,0,1,0,.007Z" transform="translate(146.567 381.472) rotate(-170.029)" fill="#2f2e41"/>
    <path id="Path_20903" data-name="Path 20903" d="M171.421,589.6h7.552l3.592-29.135H171.42Z" transform="translate(-65.835 -215.145)" fill="#ffb8b8"/>
    <path id="Path_20904" data-name="Path 20904" d="M0,0H23.733V9.172H9.17A9.171,9.171,0,0,1,0,0H0Z" transform="translate(127.7 381.468) rotate(179.997)" fill="#2f2e41"/>
    <path id="Path_20905" data-name="Path 20905" d="M397.089,672.03a2.959,2.959,0,0,1-.353-.021l-8.888-.732a3.007,3.007,0,0,1-2.613-3.487l8.207-46.013-5.546-29.25a1,1,0,0,0-1.983.1l-6.933,78.019a3.033,3.033,0,0,1-3.209,2.734l-8.374-.312a3.011,3.011,0,0,1-2.794-2.853l-.563-93.508,43.413-5.428,3.033,46.851-.012.049-10.465,51.555A3.01,3.01,0,0,1,397.089,672.03Z" transform="translate(-259.379 -305.555)" fill="#2f2e41"/>
    <ellipse id="Ellipse_2139" data-name="Ellipse 2139" cx="15.128" cy="15.133" rx="15.128" ry="15.133" transform="translate(103.847 138.897)" fill="#ffb8b8"/>
    <path id="Path_20906" data-name="Path 20906" d="M386.347,526.934a12.384,12.384,0,0,1-6.687-1.914c-7.328-4.581-15.652-2.761-19.961-1.267a3,3,0,0,1-2.6-.3,2.964,2.964,0,0,1-1.37-2.188l-7.836-70.008a24.531,24.531,0,0,1,16.8-26.222h0q.623-.2,1.266-.37a24.366,24.366,0,0,1,20.309,3.526,24.772,24.772,0,0,1,10.574,18.085l6.6,70.477a2.963,2.963,0,0,1-.941,2.469C400.18,521.365,393.468,526.933,386.347,526.934Z" transform="translate(-253.117 -248.95)" fill="#e6a744"/>
    <path id="Path_20907" data-name="Path 20907" d="M358.7,472.673l-17.68-1.944a3.523,3.523,0,0,1-3.022-4.4l4.5-17.157a9.78,9.78,0,1,1,19.437,2.2l.668,17.668a3.522,3.522,0,0,1-3.9,3.634Z" transform="translate(-249.333 -255.349)" fill="#e6a744"/>
    <path id="Path_20908" data-name="Path 20908" d="M427.191,538.3a6.62,6.62,0,0,0-.25-10.146l-4.357-57.2-12.8,2.883,7.516,55.707a6.654,6.654,0,0,0,9.895,8.759Z" transform="translate(-276.945 -267.044)" fill="#ffb8b8"/>
    <path id="Path_20909" data-name="Path 20909" d="M401.11,467.412a3.52,3.52,0,0,1-1.12-2.711l.668-17.668a9.78,9.78,0,1,1,19.437-2.2l4.5,17.157a3.523,3.523,0,0,1-3.021,4.4l-17.68,1.944a3.517,3.517,0,0,1-2.784-.923Z" transform="translate(-273.184 -253.684)" fill="#e6a744"/>
    <path id="Path_20910" data-name="Path 20910" d="M374.593,393.152a3.5,3.5,0,0,1-.8-.093l-.077-.019c-13.3-2.036-16.241-9.742-16.886-12.96-.668-3.332.093-6.548,1.811-7.8a9.6,9.6,0,0,1,.448-7.8c2.153-3.869,6.825-5.178,7.452-5.338,3.732-2.754,8.2-.915,9.008-.543,7.218-2.671,9.977-.448,10.476.049,3.226.58,5.193,1.826,5.846,3.706,1.226,3.531-2.652,7.923-2.818,8.109l-.086.1-5.778.275a3.917,3.917,0,0,0-3.684,4.508h0a18.256,18.256,0,0,0,.592,2.067c.987,3.084,1.726,5.72.772,6.721a1.546,1.546,0,0,1-1.617.28c-.9-.241-1.517-.191-1.822.151-.474.529-.33,1.87.408,3.774a3.537,3.537,0,0,1-.644,3.6A3.429,3.429,0,0,1,374.593,393.152Z" transform="translate(-256.518 -223.419)" fill="#2f2e41"/>
    <path id="Path_20911" data-name="Path 20911" d="M622.88,411.149h-74.53a10.484,10.484,0,0,1-10.471-10.474V288.643a10.484,10.484,0,0,1,10.471-10.474h74.53a10.484,10.484,0,0,1,10.471,10.474V400.674A10.485,10.485,0,0,1,622.88,411.149ZM548.351,279.4a9.251,9.251,0,0,0-9.239,9.242V400.674a9.251,9.251,0,0,0,9.239,9.242h74.53a9.251,9.251,0,0,0,9.239-9.242V288.643a9.251,9.251,0,0,0-9.239-9.242Z" transform="translate(-326.143 -193.039)" fill="#aeb3ba"/>
    <path id="Path_20912" data-name="Path 20912" d="M621.855,343.7h-51.74a5.242,5.242,0,0,1-5.236-5.237V313.822a5.242,5.242,0,0,1,5.236-5.237h51.74a5.242,5.242,0,0,1,5.235,5.237v24.645A5.242,5.242,0,0,1,621.855,343.7Z" transform="translate(-336.512 -204.715)" fill="#e6a744"/>
    <path id="Path_20913" data-name="Path 20913" d="M620.656,396.942H576.308a4.929,4.929,0,0,1,0-9.858h44.348a4.929,4.929,0,0,1,0,9.858Z" transform="translate(-339.008 -234.849)" fill="#ccc"/>
    <path id="Path_20914" data-name="Path 20914" d="M620.656,426.942H576.308a4.929,4.929,0,0,1,0-9.858h44.348a4.929,4.929,0,0,1,0,9.858Z" transform="translate(-339.008 -246.365)" fill="#ccc"/>
    <path id="Path_20915" data-name="Path 20915" d="M620.656,456.942H576.308a4.929,4.929,0,0,1,0-9.858h44.348a4.929,4.929,0,0,1,0,9.858Z" transform="translate(-339.008 -257.881)" fill="#ccc"/>
    <path id="Path_20916" data-name="Path 20916" d="M917.88,513.149h-74.53a10.484,10.484,0,0,1-10.471-10.474V390.643a10.484,10.484,0,0,1,10.471-10.474h74.53a10.484,10.484,0,0,1,10.471,10.474V502.674A10.484,10.484,0,0,1,917.88,513.149ZM843.351,381.4a9.251,9.251,0,0,0-9.239,9.242V502.674a9.251,9.251,0,0,0,9.239,9.242h74.53a9.251,9.251,0,0,0,9.239-9.242V390.643a9.251,9.251,0,0,0-9.239-9.242Z" transform="translate(-439.439 -232.194)" fill="#aeb3ba"/>
    <path id="Path_20917" data-name="Path 20917" d="M915.656,418.942H871.307a4.929,4.929,0,0,1,0-9.858h44.348a4.929,4.929,0,0,1,0,9.858Z" transform="translate(-452.304 -243.294)" fill="#ccc"/>
    <path id="Path_20918" data-name="Path 20918" d="M915.656,448.942H871.307a4.929,4.929,0,0,1,0-9.858h44.348a4.929,4.929,0,0,1,0,9.858Z" transform="translate(-452.304 -254.81)" fill="#ccc"/>
    <path id="Path_20919" data-name="Path 20919" d="M916.855,509.7h-51.74a5.243,5.243,0,0,1-5.236-5.237V479.821a5.243,5.243,0,0,1,5.236-5.237h51.74a5.243,5.243,0,0,1,5.235,5.237v24.645A5.243,5.243,0,0,1,916.855,509.7Z" transform="translate(-449.808 -268.437)" fill="#e6e6e6"/>
    <path id="Path_20920" data-name="Path 20920" d="M915.656,560.942H871.307a4.929,4.929,0,0,1,0-9.858h44.348a4.929,4.929,0,0,1,0,9.858Z" transform="translate(-452.304 -297.803)" fill="#ccc"/>
    <path id="Path_20921" data-name="Path 20921" d="M843.88,250.636h-74.53a10.485,10.485,0,0,1-10.471-10.474V170.643a10.484,10.484,0,0,1,10.471-10.474h74.53a10.484,10.484,0,0,1,10.471,10.474v69.519a10.484,10.484,0,0,1-10.471,10.474ZM769.351,161.4a9.251,9.251,0,0,0-9.239,9.242v69.519a9.251,9.251,0,0,0,9.239,9.242h74.53a9.251,9.251,0,0,0,9.239-9.242V170.643a9.251,9.251,0,0,0-9.239-9.242Z" transform="translate(-411.018 -147.742)" fill="#aeb3ba"/>
    <path id="Path_20922" data-name="Path 20922" d="M841.656,265.442H797.308a4.929,4.929,0,0,1,0-9.858h44.348a4.929,4.929,0,0,1,0,9.858Z" transform="translate(-423.884 -184.369)" fill="#ccc"/>
    <path id="Path_20923" data-name="Path 20923" d="M841.656,235.442H797.308a4.929,4.929,0,0,1,0-9.858h44.348a4.929,4.929,0,0,1,0,9.858Z" transform="translate(-423.884 -172.853)" fill="#ccc"/>
    <path id="Path_20924" data-name="Path 20924" d="M841.656,205.442H797.308a4.929,4.929,0,0,1,0-9.858h44.348a4.929,4.929,0,0,1,0,9.858Z" transform="translate(-423.884 -161.337)" fill="#ccc"/>
    <ellipse id="Ellipse_2140" data-name="Ellipse 2140" cx="14.167" cy="14.171" rx="14.167" ry="14.171" transform="translate(286.883 73.935)" fill="#e6a744"/>
    <path id="Path_20925" data-name="Path 20925" d="M677.6,285.059a1.469,1.469,0,0,1-.884-.294l-.016-.012-3.329-2.55a1.479,1.479,0,0,1,1.8-2.349l2.156,1.654,5.1-6.648a1.479,1.479,0,0,1,2.074-.274l-.032.043.032-.042a1.482,1.482,0,0,1,.274,2.074l-5.994,7.819A1.48,1.48,0,0,1,677.6,285.059Z" transform="translate(-377.957 -191.547)" fill="#fff"/>
    <ellipse id="Ellipse_2141" data-name="Ellipse 2141" cx="14.167" cy="14.171" rx="14.167" ry="14.171" transform="translate(471.666 137.397)" fill="#aeb3ba"/>
    <path id="Path_20926" data-name="Path 20926" d="M977.6,388.059a1.468,1.468,0,0,1-.884-.294l-.016-.012-3.329-2.55a1.479,1.479,0,0,1,1.8-2.349l2.156,1.654,5.1-6.648a1.479,1.479,0,0,1,2.074-.274l-.032.043.033-.042a1.482,1.482,0,0,1,.274,2.074l-5.994,7.819A1.48,1.48,0,0,1,977.6,388.059Z" transform="translate(-493.173 -231.086)" fill="#fff"/>
    <ellipse id="Ellipse_2142" data-name="Ellipse 2142" cx="14.167" cy="14.171" rx="14.167" ry="14.171" transform="translate(426.702)" fill="#aeb3ba"/>
    <path id="Path_20927" data-name="Path 20927" d="M904.6,165.059a1.468,1.468,0,0,1-.884-.294l-.016-.012-3.329-2.55a1.479,1.479,0,0,1,1.8-2.349l2.156,1.654,5.1-6.648a1.479,1.479,0,0,1,2.074-.274l-.032.043.032-.042a1.482,1.482,0,0,1,.274,2.074l-5.994,7.82A1.479,1.479,0,0,1,904.6,165.059Z" transform="translate(-465.137 -145.482)" fill="#fff"/>
    <path id="Path_20928" data-name="Path 20928" d="M429.411,759.232H194.736a.616.616,0,0,1,0-1.232H429.411a.616.616,0,0,1,0,1.232Z" transform="translate(-194.12 -377.232)" fill="#3f3d56"/>
  </g>
</svg>
