<svg xmlns="http://www.w3.org/2000/svg" xmlns:xlink="http://www.w3.org/1999/xlink" width="350" height="150" viewBox="0 0 300 236.119">
  <defs>
    <linearGradient id="linear-gradient" x1="0.501" y1="1.001" x2="0.501" gradientUnits="objectBoundingBox">
      <stop offset="0" stop-color="gray" stop-opacity="0.251"/>
      <stop offset="0.54" stop-color="gray" stop-opacity="0.122"/>
      <stop offset="1" stop-color="gray" stop-opacity="0.102"/>
    </linearGradient>
    <linearGradient id="linear-gradient-2" x1="0.5" y1="1" x2="0.5" y2="0" xlink:href="#linear-gradient"/>
  </defs>
  <g id="undraw_data_report_bi6l" transform="translate(0 0.084)">
    <g id="Group_11798" data-name="Group 11798" transform="translate(197.156 0.035)" opacity="0.5">
      <path id="Path_21028" data-name="Path 21028" d="M769.843,67.955a3.755,3.755,0,0,0-3.569,1.936c-1.778,3.2,1.084,6.346-.392,9.756a5.676,5.676,0,0,1-1.914,2.31,19.6,19.6,0,0,1-4.322,1.949,7.923,7.923,0,0,0-4.047,3.613,9.459,9.459,0,0,0-.852,5.735,22.728,22.728,0,0,0,1.507,4.515,28.332,28.332,0,0,1,1.448,5.577,10.309,10.309,0,0,1,.142,2.693,16.966,16.966,0,0,1-.83,3.363l-3.174,9.941a23.223,23.223,0,0,0-1.019,3.984,16.749,16.749,0,0,0,.124,4.246c.346,2.909.732,5.936,2.109,7.755s4.078,1.936,6.054-.642c1.88-2.471,2.365-6.207,4.088-8.894,2.714-4.237,7.055-3.87,9.963-7.838,2.779-3.8,2.735-9.3,4.48-13.978,1.235-3.354,3.4-6.177,4.853-9.435a25.178,25.178,0,0,0,1.852-14.135,20.981,20.981,0,0,0-4.677-9.91,6.853,6.853,0,0,0-3.134-2.471c-1.331-.4-2.658.618-4.029.71C772.918,68.817,771.44,67.98,769.843,67.955Z" transform="translate(-752.739 -67.935)" fill="#e6a744"/>
      <path id="Path_21029" data-name="Path 21029" d="M786.677,68.1s-7.657,44.363-20.377,68.585" transform="translate(-762.113 -68.049)" fill="none" stroke="#535461" stroke-miterlimit="10" stroke-width="2"/>
      <path id="Path_21030" data-name="Path 21030" d="M796.3,74.93s9.342,9.574,5.767,22.8" transform="translate(-782.851 -72.77)" fill="none" stroke="#535461" stroke-miterlimit="10" stroke-width="2"/>
      <path id="Path_21031" data-name="Path 21031" d="M760.63,134.52s16.44,6.553,14.267,14" transform="translate(-758.194 -113.957)" fill="none" stroke="#535461" stroke-miterlimit="10" stroke-width="2"/>
      <path id="Path_21032" data-name="Path 21032" d="M828.324,108s-7.329,2.986-14.924,14.549" transform="translate(-794.672 -95.627)" fill="none" stroke="#535461" stroke-miterlimit="10" stroke-width="2"/>
      <path id="Path_21033" data-name="Path 21033" d="M808.216,210.006s-4.961,1.723-7.5-8.956" transform="translate(-785.906 -159.94)" fill="none" stroke="#535461" stroke-miterlimit="10" stroke-width="2"/>
      <path id="Path_21034" data-name="Path 21034" d="M758.15,226.428s9.546,1.272,10.966-3.088" transform="translate(-756.479 -175.346)" fill="none" stroke="#535461" stroke-miterlimit="10" stroke-width="2"/>
    </g>
    <g id="Group_11799" data-name="Group 11799" transform="translate(30.464 46.294)" opacity="0.5">
      <path id="Path_21035" data-name="Path 21035" d="M213.609,226.394a3.751,3.751,0,0,0-.34,4.046c1.7,3.243,5.9,2.576,7.938,5.679a5.677,5.677,0,0,1,.88,2.869,19.486,19.486,0,0,1-.747,4.688,7.927,7.927,0,0,0,.8,5.358,9.454,9.454,0,0,0,4.322,3.857,22.987,22.987,0,0,0,4.6,1.217,28.308,28.308,0,0,1,5.455,1.853,10.3,10.3,0,0,1,2.328,1.359,16.954,16.954,0,0,1,2.356,2.539l6.567,8.11a23.216,23.216,0,0,0,2.779,3.039,16.736,16.736,0,0,0,3.618,2.227c2.621,1.306,5.363,2.644,7.638,2.492s3.856-2.347,2.779-5.417c-1.019-2.922-3.89-5.383-5.193-8.3-2.053-4.6.636-8.03-1.084-12.631-1.649-4.422-6.27-7.387-9.222-11.427-2.118-2.884-3.3-6.226-5.221-9.237a25.261,25.261,0,0,0-10.806-9.305,20.967,20.967,0,0,0-10.852-1.526,6.954,6.954,0,0,0-3.794,1.26c-1.062.9-.926,2.569-1.618,3.758C216.021,224.294,214.508,225.072,213.609,226.394Z" transform="translate(-212.823 -217.722)" fill="#e6a744"/>
      <path id="Path_21036" data-name="Path 21036" d="M228.72,225.66s32.874,30.744,46.132,54.681" transform="translate(-223.812 -223.209)" fill="none" stroke="#535461" stroke-miterlimit="10" stroke-width="2"/>
      <path id="Path_21037" data-name="Path 21037" d="M214.68,258.867s13.137-2.554,22.229,7.69" transform="translate(-214.107 -245.965)" fill="none" stroke="#535461" stroke-miterlimit="10" stroke-width="2"/>
      <path id="Path_21038" data-name="Path 21038" d="M244.92,308.366s14.511-10.151,19.531-4.246" transform="translate(-235.01 -276.162)" fill="none" stroke="#535461" stroke-miterlimit="10" stroke-width="2"/>
      <path id="Path_21039" data-name="Path 21039" d="M277.8,223s-1.528,7.77,3.97,20.463" transform="translate(-257.607 -221.37)" fill="none" stroke="#535461" stroke-miterlimit="10" stroke-width="2"/>
      <path id="Path_21040" data-name="Path 21040" d="M334.118,320.61s-1.284,5.1-11.609,1.35" transform="translate(-288.646 -288.835)" fill="none" stroke="#535461" stroke-miterlimit="10" stroke-width="2"/>
      <path id="Path_21041" data-name="Path 21041" d="M326.17,354.012s6.3-7.285,3.436-10.862" transform="translate(-291.176 -304.414)" fill="none" stroke="#535461" stroke-miterlimit="10" stroke-width="2"/>
    </g>
    <path id="Path_21042" data-name="Path 21042" d="M190.3,89.077c-1.544,1.825-2.989,4.351-1.852,6.844,2.2,4.883,10.29,2.5,13.177,7.054a6.729,6.729,0,0,1,.781,4.512c-.389,2.906-1.828,5.374-2.822,8.03s-1.51,5.868-.108,8.672a10.5,10.5,0,0,0,6.947,5.111c2.754.683,5.514.528,8.265.618a45.742,45.742,0,0,1,9.679,1.427,13.369,13.369,0,0,1,3.958,1.544,17.552,17.552,0,0,1,3.652,3.514l9.88,11.516a23.549,23.549,0,0,0,4.279,4.222,21.126,21.126,0,0,0,6.116,2.61c4.523,1.384,9.262,2.779,13.584,1.831s7.95-5.08,6.869-9.864c-1.028-4.555-5.665-7.786-7.228-12.248-2.47-7.032,3.628-13.555,1.8-20.71-1.754-6.862-9.528-10.4-13.85-16.21-3.087-4.163-4.3-9.37-7-13.8A28.194,28.194,0,0,0,228.98,71.53c-6.777-1.606-13.591-.831-19.932.769a19.441,19.441,0,0,0-7.5,3.249c-2.263,1.813-2.525,4.561-4.174,6.751C195.46,84.85,192.382,86.6,190.3,89.077Z" transform="translate(-165.229 -69.773)" fill="#e6a744"/>
    <path id="Path_21043" data-name="Path 21043" d="M226.51,92.73s52.383,41.229,70.009,77.072" transform="translate(-191.82 -85.038)" fill="none" stroke="#535461" stroke-miterlimit="10" stroke-width="2"/>
    <path id="Path_21044" data-name="Path 21044" d="M189.9,148.076s25.431-8.24,39.379,6.065" transform="translate(-166.513 -121.659)" fill="none" stroke="#535461" stroke-miterlimit="10" stroke-width="2"/>
    <path id="Path_21045" data-name="Path 21045" d="M227.7,214.9s30.29-21.309,37.947-13" transform="translate(-192.643 -159.167)" fill="none" stroke="#535461" stroke-miterlimit="10" stroke-width="2"/>
    <path id="Path_21046" data-name="Path 21046" d="M315.826,73.21s-5.221,13.4,1.235,32.878" transform="translate(-252.183 -71.546)" fill="none" stroke="#535461" stroke-miterlimit="10" stroke-width="2"/>
    <path id="Path_21047" data-name="Path 21047" d="M394.638,211s-3.955,8.873-22.2,5.769" transform="translate(-292.696 -166.782)" fill="none" stroke="#535461" stroke-miterlimit="10" stroke-width="2"/>
    <path id="Path_21048" data-name="Path 21048" d="M363.13,274.577s14.038-14.046,9.747-19.147" transform="translate(-286.261 -197.491)" fill="none" stroke="#535461" stroke-miterlimit="10" stroke-width="2"/>
    <ellipse id="Ellipse_2149" data-name="Ellipse 2149" cx="150" cy="12.687" rx="150" ry="12.687" transform="translate(0 210.661)" fill="#e6a744" opacity="0.1"/>
    <path id="Path_21049" data-name="Path 21049" d="M865.7,407.247c-.639-1.872-1.562-4.243-2.291-4.8a.684.684,0,0,0-.145-.09h-.09v-2.313l-1.723.275a16.481,16.481,0,0,1-.617-2.56,1.188,1.188,0,0,0,1.294.259c-.028-.046-.052-.1-.077-.145l.077-.034a3.2,3.2,0,0,1-.417-1.569,5.718,5.718,0,0,1,.238-1.482c.309-1.065.831-2.06,1.121-3.132a7.612,7.612,0,0,0,.259-2.116,7.723,7.723,0,0,0-.8-3.49,2.039,2.039,0,0,0-.617-.8,7.863,7.863,0,0,0-.747-.364,4.037,4.037,0,0,1-1.087-1.084,9.744,9.744,0,0,0-4.708-3.144,2.756,2.756,0,0,0-1.507-.12c-1.158.309-1.578,1.745-2.516,2.5a6.911,6.911,0,0,1-3,.954,5.106,5.106,0,0,0-2.8,1.467,3.036,3.036,0,0,0-.75,2.023,2.036,2.036,0,0,0,.827,1.81,2.6,2.6,0,0,0,2.2.309,7.468,7.468,0,0,0,5.653,9.388l.2.361h0a15.468,15.468,0,0,1,1.4,3.66,13.513,13.513,0,0,1-4.365,1.822,7.358,7.358,0,0,1-.229,1.211,6.677,6.677,0,0,1-1.374,2.7c-1.423,1.6-7.823,13.694-7.823,13.694s-.2.482-.531,1.3c-3.973.488-10.46,1.192-12.269.831l-7.1-6.757s-2.3,1.754-2.1,3.885l-1.263-1.217s-6.755,5.157,3.912,8.536l16.23,1.884c-1.544,4.666-2.989,10.1-2.541,13.054h.133a6.139,6.139,0,0,0,.926-.071l-.028.525-1.571,28.008a8.024,8.024,0,0,0,4.446,7.467s5.866,17.248,3.557,19.206c0,0,.275.145.738.346l-4.826,4.277a22.558,22.558,0,0,1-5.511.71,1.411,1.411,0,0,0-1.559,1.05.235.235,0,0,1-.018.111v.343a.265.265,0,0,0,.022.114v.043a.957.957,0,0,0,.04.124l.016.037a1.041,1.041,0,0,0,.056.12v.028c.022.04.046.077.071.117l.022.034q.043.062.1.124l.028.031c.037.043.077.083.117.124l.018.015.133.114.028.022c.049.04.1.077.161.114l.037.025c.059.037.12.074.185.108h.028l.2.1h.028l.235.093.049.019.256.083h.043l.281.074h.022l.309.062h.062l.333.049h.065l.377.037c.732.056,1.717.077,2.856.071h0v.182a.216.216,0,0,0,.022.114v.043a.949.949,0,0,0,.04.124l.015.037a1.04,1.04,0,0,0,.056.12v.028c.022.04.046.077.071.117l.022.034q.043.062.1.124l.028.031c.037.043.077.083.117.124l.019.015.133.114.028.022c.049.04.1.077.161.114l.04.025c.059.037.12.074.185.108h.028l.2.1h.028l.235.093.049.019.256.083h.043l.281.074h.022l.309.062h.062l.333.049h.065l.377.037c4.631.355,19.376-.71,19.376-.71v-.04h0V509h0c.145-.689.855-4.691-1.664-7.65.074-.077.148-.161.216-.247,0,0-1.954-3.379-.889-4.447S853.1,477.1,853.1,477.1s-3.378-5.333-1.423-11.38-.179-12.625-.179-12.625a7.282,7.282,0,0,0,4.758-7.128v-.534a1.885,1.885,0,0,0,.309.019,1.378,1.378,0,0,0,.2,0s-.889-3.2.179-5.513,3.378-.179,5.511-9.6c1.544-6.819,2.9-14.663,3.535-18.48A9.734,9.734,0,0,0,865.7,407.247Zm-40.571,20.006-1.621-1.544c.537.222,1.133.442,1.8.652l6.113.71A31.61,31.61,0,0,1,825.127,427.253Z" transform="translate(-599.249 -283.926)" fill="url(#linear-gradient)"/>
    <path id="Path_21050" data-name="Path 21050" d="M841.554,516.863s-12.575,1.748-15.2,1.235l-7-6.658s-6.638,5.068,3.844,8.385l19.574,2.288Z" transform="translate(-600.202 -374.438)" fill="#fdc2cc"/>
    <path id="Path_21051" data-name="Path 21051" d="M841.554,516.863s-12.575,1.748-15.2,1.235l-7-6.658s-6.638,5.068,3.844,8.385l19.574,2.288Z" transform="translate(-600.202 -374.438)" opacity="0.05"/>
    <path id="Path_21052" data-name="Path 21052" d="M881.291,758.65l-6.113,5.417a22.139,22.139,0,0,1-5.415.7c-1.923-.176-2.794,2.971,1.747,3.32s19.037-.7,19.037-.7,1.4-5.59-2.794-8.737Z" transform="translate(-635.397 -545.302)" fill="#47465a"/>
    <path id="Path_21053" data-name="Path 21053" d="M881.291,758.65l-6.113,5.417a22.139,22.139,0,0,1-5.415.7c-1.923-.176-2.794,2.971,1.747,3.32s19.037-.7,19.037-.7,1.4-5.59-2.794-8.737Z" transform="translate(-635.397 -545.302)" opacity="0.05"/>
    <path id="Path_21054" data-name="Path 21054" d="M890.77,779.11a9.637,9.637,0,0,1-.219,1.893s-14.511,1.047-19.037.7c-2.183-.167-3.112-.982-3.279-1.763-.2.9.593,2.081,3.279,2.288,4.542.349,19.037-.7,19.037-.7A10.1,10.1,0,0,0,890.77,779.11Z" transform="translate(-635.401 -559.443)" fill="#fff" opacity="0.3"/>
    <path id="Path_21055" data-name="Path 21055" d="M933.79,426.952s3.844,5.417,2.445,9.086,7.336-3.845,7.336-3.845-2.794-4.892-1.4-10.133Z" transform="translate(-680.737 -312.661)" fill="#fdc2cc"/>
    <path id="Path_21056" data-name="Path 21056" d="M901.089,765.44l-6.113,5.423a22.141,22.141,0,0,1-5.415.7c-1.923-.176-2.8,2.965,1.747,3.317s19.037-.7,19.037-.7,1.4-5.59-2.794-8.737Z" transform="translate(-649.082 -549.995)" fill="#47465a"/>
    <path id="Path_21057" data-name="Path 21057" d="M896.168,619.154a4.673,4.673,0,0,1-3.538,1.621,14.823,14.823,0,0,1-6.416-1.621c2.269-1.921-3.492-18.869-3.492-18.869a7.886,7.886,0,0,1-4.366-7.338L879.9,565.44l.386-6.909,4.89-2.971,3.856,2.959,3.655,2.807a14.7,14.7,0,0,1,.457,2.727c.423,6.421-4.65,7.931-4.65,7.931s2.1,6.464.176,12.4a14.4,14.4,0,0,0,1.4,11.18s6.289,18.168,5.249,19.218S896.168,619.154,896.168,619.154Z" transform="translate(-642.414 -404.932)" fill="#565171"/>
    <path id="Path_21058" data-name="Path 21058" d="M896.168,619.154a4.673,4.673,0,0,1-3.538,1.621,14.823,14.823,0,0,1-6.416-1.621c2.269-1.921-3.492-18.869-3.492-18.869a7.886,7.886,0,0,1-4.366-7.338L879.9,565.44l.386-6.909,4.89-2.971,3.856,2.959,3.655,2.807a14.7,14.7,0,0,1,.457,2.727c.423,6.421-4.65,7.931-4.65,7.931s2.1,6.464.176,12.4a14.4,14.4,0,0,0,1.4,11.18s6.289,18.168,5.249,19.218S896.168,619.154,896.168,619.154Z" transform="translate(-642.414 -404.932)" opacity="0.05"/>
    <path id="Path_21059" data-name="Path 21059" d="M909.711,625.951c-2.97,3.669-9.954,0-9.954,0a1.112,1.112,0,0,0,.309-.476c1.281-3.484-4.322-20.139-4.322-20.139-4.714-2.27-5.249-7.687-5.249-7.687l-1.235-28-.161-3.626,7.348-2.807,2.257-.862,7.512,5.757a13.63,13.63,0,0,1,.482,3.653,7.153,7.153,0,0,1-4.662,7.01s2.1,6.464.176,12.4a14.4,14.4,0,0,0,1.4,11.18s6.289,18.168,5.249,19.218S909.711,625.951,909.711,625.951Z" transform="translate(-649.844 -409.632)" fill="#565171"/>
    <path id="Path_21060" data-name="Path 21060" d="M902.7,567.1c-1.51-.216-4.566-2.035-6.138-3.023l-.982-.618s-1.572-4.367-5.764-1.047a15.686,15.686,0,0,1-4.554,2.573,10.645,10.645,0,0,1-1.945.488l.386-6.909,4.89-2.971,3.856,2.959,2.257-.862,7.511,5.75a13.629,13.629,0,0,1,.482,3.66Z" transform="translate(-645.849 -404.953)" opacity="0.1"/>
    <path id="Path_21061" data-name="Path 21061" d="M909.7,458.114c-.617,3.749-1.957,11.454-3.473,18.156-2.1,9.265-4.366,7.162-5.415,9.435s-.176,5.417-.176,5.417c-1.747.176-7.512-3.669-7.512-3.669s-1.571-4.367-5.764-1.047-7.512,3.144-7.512,3.144c-.874-5.766,5.588-21.139,5.588-21.139s6.3-11.881,7.678-13.453a6.559,6.559,0,0,0,1.349-2.656,7.225,7.225,0,0,0,.222-1.189c2.269-.176,7.86-4.015,7.86-4.015l4.366-.7v2.27a.665.665,0,0,1,.142.087c.719.55,1.624,2.881,2.251,4.719A9.576,9.576,0,0,1,909.7,458.114Z" transform="translate(-643.392 -329.484)" fill="#f68080"/>
    <path id="Path_21062" data-name="Path 21062" d="M921.284,459.9s-4.542-3.669-11.352,8.212-8.382,9.957-8.382,9.957,1.4,5.25.7,6.291a38.315,38.315,0,0,1,6.462,0c1.747.349,12.575-13.28,12.575-13.28S926.876,463.4,921.284,459.9Z" transform="translate(-658.45 -338.447)" opacity="0.1"/>
    <path id="Path_21063" data-name="Path 21063" d="M920.731,457.642s-4.542-3.653-11.352,8.212-8.379,9.96-8.379,9.96,5.409,5.939,7.156,6.278,12.575-13.28,12.575-13.28S926.316,461.138,920.731,457.642Z" transform="translate(-658.07 -336.887)" opacity="0.1"/>
    <path id="Path_21064" data-name="Path 21064" d="M901.728,525.471a21.133,21.133,0,0,0-.7-4.75c1.062-.139,1.732-.232,1.732-.232L904,525.74Z" transform="translate(-658.091 -380.693)" opacity="0.1"/>
    <path id="Path_21065" data-name="Path 21065" d="M942.742,423.19l-8.382,4.883a17.918,17.918,0,0,1,.976,1.6,7.363,7.363,0,0,0,1.47.148c2.238,0,3.282-2.35,4.631-3.931C941.35,424.629,942.369,424.6,942.742,423.19Z" transform="translate(-681.131 -313.442)" opacity="0.1"/>
    <ellipse id="Ellipse_2150" data-name="Ellipse 2150" cx="7.336" cy="7.338" rx="7.336" ry="7.338" transform="translate(248.166 101.363)" fill="#fdc2cc"/>
    <path id="Path_21066" data-name="Path 21066" d="M910,389.672a5.013,5.013,0,0,1,2.748-1.442,6.993,6.993,0,0,0,2.952-.926c.926-.738,1.334-2.14,2.47-2.452a2.707,2.707,0,0,1,1.479.117,9.571,9.571,0,0,1,4.631,3.088,3.964,3.964,0,0,0,1.065,1.065,7.711,7.711,0,0,1,.735.358,2,2,0,0,1,.6.781,7.6,7.6,0,0,1,.531,5.333c-.284,1.053-.8,2.029-1.1,3.088a4.054,4.054,0,0,0,.176,3.172,1.278,1.278,0,0,1-1.544-.571,6.581,6.581,0,0,1-.617-1.7,6.486,6.486,0,0,0-1.893-2.943c-.55-.488-1.544-.815-1.917-.185-.148.244-.139.553-.266.806a1.058,1.058,0,0,1-1.451.309,2.227,2.227,0,0,1-.908-1.346c-.719-2.434-1.945-3.965-4.548-2.925a3.122,3.122,0,0,1-3.044-.015A2.462,2.462,0,0,1,910,389.672Z" transform="translate(-663.777 -286.906)" opacity="0.1"/>
    <path id="Path_21067" data-name="Path 21067" d="M910,389.092a5.013,5.013,0,0,1,2.748-1.442,6.993,6.993,0,0,0,2.952-.926c.926-.738,1.334-2.14,2.47-2.452a2.707,2.707,0,0,1,1.479.117,9.571,9.571,0,0,1,4.631,3.088,3.964,3.964,0,0,0,1.065,1.065,7.732,7.732,0,0,1,.735.358,2,2,0,0,1,.6.781,7.6,7.6,0,0,1,.531,5.333c-.284,1.053-.8,2.029-1.1,3.088a4.054,4.054,0,0,0,.176,3.172,1.278,1.278,0,0,1-1.544-.571,6.582,6.582,0,0,1-.617-1.7,6.486,6.486,0,0,0-1.893-2.943c-.55-.488-1.544-.815-1.917-.185-.148.244-.139.553-.266.806a1.058,1.058,0,0,1-1.451.309,2.227,2.227,0,0,1-.908-1.346c-.719-2.434-1.945-3.965-4.548-2.925a3.122,3.122,0,0,1-3.044-.015C908.868,391.831,909.118,390.093,910,389.092Z" transform="translate(-663.777 -286.506)" fill="#b96b6b"/>
    <path id="Path_21068" data-name="Path 21068" d="M940,448.733h-3.551s-6.987,3.493-7.16,3.32a5.937,5.937,0,0,0-1.883.229,7.231,7.231,0,0,0,.222-1.189c2.269-.176,7.86-4.015,7.86-4.015l4.365-.7v2.27A.671.671,0,0,1,940,448.733Z" transform="translate(-676.326 -329.47)" opacity="0.05"/>
    <path id="Path_21069" data-name="Path 21069" d="M910.57,785.9a9.644,9.644,0,0,1-.219,1.893s-14.511,1.047-19.037.7c-2.183-.167-3.112-.982-3.279-1.763-.2.9.593,2.082,3.279,2.288,4.542.349,19.037-.7,19.037-.7A10.1,10.1,0,0,0,910.57,785.9Z" transform="translate(-649.088 -564.136)" fill="#fff" opacity="0.3"/>
    <g id="Group_11800" data-name="Group 11800" transform="translate(236.505 119.183)" opacity="0.05">
      <path id="Path_21070" data-name="Path 21070" d="M886,572.583a14.828,14.828,0,0,1-5.807,2.937,2.591,2.591,0,0,0,.043.383s3.319.176,7.512-3.144a5.627,5.627,0,0,1,2.244-1.174C889.085,571.15,887.769,571.178,886,572.583Z" transform="translate(-880.19 -535.02)"/>
      <path id="Path_21071" data-name="Path 21071" d="M951.65,458.545c-.617-1.853-1.544-4.169-2.251-4.719a.672.672,0,0,0-.142-.086s-1.445.049-1.4.086c.719.55,1.417,2.705,2.044,4.543a9.575,9.575,0,0,1,.38,4.632c-.617,3.749-1.957,11.455-3.473,18.156-2.1,9.265-4.365,7.162-5.415,9.435a8.824,8.824,0,0,0-.244,5.13,4.417,4.417,0,0,0,1.815.46s-.874-3.144.176-5.417,3.319-.176,5.415-9.435c1.516-6.7,2.85-14.407,3.473-18.156A9.577,9.577,0,0,0,951.65,458.545Z" transform="translate(-922.141 -453.74)"/>
    </g>
    <path id="Path_21072" data-name="Path 21072" d="M257.142,501.825a7.42,7.42,0,0,1-6.514-4.015,14.428,14.428,0,0,0-1.71-2.431,8.217,8.217,0,0,1-1.2-4.364c.139-3.187-3.186-20.654-3.186-20.654s.417-6.655-2.911-10.809c-2.189-2.736-5.338-10.581-7.237-15.621a1.046,1.046,0,0,0,.448.235l-.077-.435.077.019-.969-5.408a24.608,24.608,0,0,1-3.581-5.432l.222-.046,2.942-.618s4.782-6.794,5.076-10.142l.389.019h.55a114.779,114.779,0,0,1,13.248.695h0c0-.022-.034-.108-.071-.244h0a16.638,16.638,0,0,1-.429-2.048l.275-.019,2.723-.182s9.423-10.534,5.959-12.477-7.067,8.734-7.067,8.734l-1.164.213-.309.059a1.349,1.349,0,0,1,.1-.133c.037-.043-15.384-.692-17.74-4.435,0,0-6.792-5.408-7.067-9.012a4.065,4.065,0,0,0-2.442-3.459,5.327,5.327,0,0,0-2.692-.5l-3.18.219.225.4h-.09a10.7,10.7,0,0,1-.5-1.408h.065c-.022-.1-.043-.2-.062-.309A7.486,7.486,0,0,0,224.749,389a3,3,0,0,0,.926-.025,2.748,2.748,0,0,0,2.028-2.619v-.278a4.015,4.015,0,0,0-1.544-3.088c-.636-.528-1.392-.9-1.97-1.492a14.626,14.626,0,0,1-1.593-2.471,7.314,7.314,0,0,0-3.754-2.925,3.428,3.428,0,0,0-3.433.4c-.454.429-.716,1.044-1.235,1.405-.732.522-1.726.367-2.621.473a5,5,0,0,0-3.767,2.823,6.487,6.487,0,0,0-.617,2.98,7.966,7.966,0,0,0,.25,2.094c.173.683.429,1.34.617,2.017.389,1.408.479,2.891.926,4.283a5.389,5.389,0,0,0,1.735,2.631l-.133.574c-.086.019-2.245.482-3.739,3.743-1.179,2.569-5.168,5.225-6.922,6.3a2.888,2.888,0,0,0-1.306,1.813,9.433,9.433,0,0,0-.222,2.3,15.814,15.814,0,0,0,1.661,6.912,55.832,55.832,0,0,0,5.267,9.574s.17,2.038.179,4.188a12.371,12.371,0,0,1-.457,3.99,15.2,15.2,0,0,0-.37,4.354c0,3.765.37,8.678.37,8.678s1.059.2,2.7.442l1.022,17.971a8.649,8.649,0,0,1-1.954,6,13.276,13.276,0,0,1-2.47,2.341c-2.911,2.078-9.148,23.984-9.148,23.984s.309.019.809.059l-1.917,5.349s7.657,5.868,12.319,4.265a4.512,4.512,0,0,1,1.544-.219c.926,0,2.887-.726,1.791-1.686a70.992,70.992,0,0,1-5.974-6.214,3.179,3.179,0,0,1,.432.253v-.043l.065.043s.015-.216.049-.565l-.068-.022c.142-1.442.587-5.068,1.473-5.513,1.108-.556,9.284-16.773,9.284-16.773l8.175-21.071s6.514,11.229,12.056,13.168v4.685s3.05,13.863,4.159,15.389,0,7.625,0,7.625a3.8,3.8,0,0,0,.747.658l-.886,5.025s6.375-.278,17.184,3.051C256.447,505.846,260.606,504.049,257.142,501.825Zm-25.5-72.513-1.349.337-.266.068c-.028-.167-.046-.266-.046-.266a2.753,2.753,0,0,1-.979.238,18.06,18.06,0,0,1-.821-4.676,31.524,31.524,0,0,1-.827-5.791,4.251,4.251,0,0,1,.55-2.387l.451.037.309.309.022.022.161.145h0l.167.151.028.025.182.158.031.028.185.158.019.015.207.17.046.037.219.176h.019l.216.17.049.037.238.182.049.037.228.167.04.028.259.185.062.043.272.188.025.015.266.176.065.043.287.182.062.037.269.164.049.031.309.179.074.043.309.179h.025l.309.164.077.04.327.164.068.031.309.142.059.028.343.148.083.034.358.142h0C232.776,423.651,231.64,429.312,231.64,429.312Z" transform="translate(-169.396 -280.71)" fill="url(#linear-gradient-2)"/>
    <path id="Path_21073" data-name="Path 21073" d="M199.292,762.12l-2.572,7.174s7.042,5.4,11.618,4.284a12.775,12.775,0,0,1,2.1-.34c.948-.071,2.578-.76,1.571-1.64a86.427,86.427,0,0,1-7.576-8.119Z" transform="translate(-171.228 -547.7)" fill="#4f4d59"/>
    <path id="Path_21074" data-name="Path 21074" d="M340.806,756.233l-1.216,6.9s6.224-.272,16.777,2.977c0,0,4.06-1.76.676-3.925a7.236,7.236,0,0,1-6.36-3.925c-2.436-4.2-3.924-3.654-3.924-3.654Z" transform="translate(-269.988 -542.492)" fill="#4f4d59"/>
    <path id="Path_21075" data-name="Path 21075" d="M212.264,568.937l1.192,21a8.689,8.689,0,0,1-2.072,6.143,12.732,12.732,0,0,1-2.235,2.085c-2.84,2.029-8.929,23.412-8.929,23.412s6.9.4,8.793,1.76c0,0,.4-5.414,1.488-5.954s9.065-16.368,9.065-16.368l7.987-20.583s6.36,10.963,11.772,12.857v4.6s2.976,13.533,4.06,15.021,0,7.443,0,7.443,3.112,3.925,10.281-.272A9.032,9.032,0,0,1,251.5,614.4c.139-3.113-3.112-20.164-3.112-20.164s.4-6.485-2.84-10.556-8.66-19.614-8.66-19.614l-3.723-8.014Z" transform="translate(-173.647 -405.271)" fill="#787c9c"/>
    <g id="Group_11801" data-name="Group 11801" transform="translate(26.65 150.782)" opacity="0.1">
      <path id="Path_21076" data-name="Path 21076" d="M201.68,621.591s6.088-21.383,8.929-23.412a12.89,12.89,0,0,0,2.35-2.221,8.59,8.59,0,0,0,1.954-6l-1.192-21,19.948-12.31-.272-.584-20.9,12.884,1.192,21a8.59,8.59,0,0,1-1.942,6.01,12.892,12.892,0,0,1-2.349,2.22c-2.84,2.029-8.929,23.412-8.929,23.412s6.9.4,8.793,1.76c0,0,.015-.21.049-.553A38.227,38.227,0,0,0,201.68,621.591Z" transform="translate(-200.47 -556.06)"/>
      <path id="Path_21077" data-name="Path 21077" d="M307.684,674.935s1.084-5.954,0-7.443-4.072-15.025-4.072-15.025v-4.6c-5.4-1.893-11.76-12.866-11.76-12.866l-.472,1.235c1.834,2.909,6.727,10.133,11.025,11.637v4.6s2.976,13.533,4.06,15.021,0,7.443,0,7.443a5.654,5.654,0,0,0,4.844,1.643A5.248,5.248,0,0,1,307.684,674.935Z" transform="translate(-263.313 -610.621)"/>
    </g>
    <path id="Path_21078" data-name="Path 21078" d="M380.91,493.721l-2.658.176-1.4.093v-3.4l1.852-.334,1.139-.207s3.517-10.42,6.9-8.527S380.91,493.721,380.91,493.721Z" transform="translate(-295.745 -353.603)" fill="#714b4f"/>
    <path id="Path_21079" data-name="Path 21079" d="M246.754,431.26s-1.76,6.766-2.3,10.964,12.581.812,12.581.812-5-6.09-2.161-9.339Z" transform="translate(-204.213 -319.02)" fill="#714b4f"/>
    <path id="Path_21080" data-name="Path 21080" d="M259.8,470.925l.272,2.573-4.193-.272-4.211-3.663L247.476,457.8l-2.7-4.194-2.031-2.569.812-3.113s.37.309,1,.8c2.059,1.578,6.894,4.855,10.426,3.95a4.2,4.2,0,0,0,.482-.151l5.27,9.064Z" transform="translate(-203.039 -330.534)" fill="#e6e6f0"/>
    <path id="Path_21081" data-name="Path 21081" d="M222.215,445.28s-2.161.4-3.652,3.653c-1.145,2.5-5.008,5.074-6.734,6.133a2.888,2.888,0,0,0-1.309,1.825c-.349,1.544-.482,4.416,1.414,8.555a54.747,54.747,0,0,0,5.14,9.339s.54,6.485-.272,8.391,0,12.316,0,12.316,14.2,2.705,18.941,0,4.06-13.128,4.06-13.128,4.464,9.463,6.088,9.744l-.948-5.278s-5.276-5.686-5.557-12.992c0,0-1.624-6.631-.272-8.391,0,0,22.865,1.9,24.217.272,0,0-15.017-.676-17.317-4.324,0,0-6.629-5.278-6.9-8.8a3.891,3.891,0,0,0-2.028-3.187,5.3,5.3,0,0,0-3.032-.676l-3.056.21s5.276,9.339,5,10.556.272,11.1.272,11.1S230.2,457.46,227.5,455.972s-5.817-7.6-5.817-7.6l.54-3.088" transform="translate(-180.622 -328.71)" opacity="0.1"/>
    <path id="Path_21082" data-name="Path 21082" d="M259.8,470.925l.272,2.573-4.193-.272-4.211-3.663L247.476,457.8l-2.7-4.194-2.031-2.569.812-3.113s.37.309,1,.8l-.185,1.075s3.112,6.112,5.817,7.6,8.793,14.617,8.793,14.617-.54-9.883-.272-11.1c.185-.828-2.186-5.389-3.726-8.24a4.213,4.213,0,0,0,.482-.151l5.27,9.058Z" transform="translate(-203.039 -330.534)" opacity="0.1"/>
    <path id="Path_21083" data-name="Path 21083" d="M378.232,513.968l-1.4.093v-3.4l1.852-.333C378.031,511.192,378.053,512.7,378.232,513.968Z" transform="translate(-295.731 -373.67)" opacity="0.1"/>
    <path id="Path_21084" data-name="Path 21084" d="M222.215,444s-2.161.4-3.652,3.653c-1.145,2.5-5.008,5.074-6.734,6.133a2.888,2.888,0,0,0-1.309,1.825c-.349,1.544-.482,4.416,1.414,8.555a54.749,54.749,0,0,0,5.14,9.339s.54,6.485-.272,8.391,0,12.316,0,12.316,14.2,2.705,18.941,0,4.06-13.153,4.06-13.153,4.464,9.475,6.088,9.744l-.948-5.278s-5.276-5.686-5.557-12.993c0,0-1.624-6.631-.272-8.391,0,0,5.276,5.686,11.229,5.559a114.282,114.282,0,0,1,12.989.676s-1.352-4.324,0-5.954c0,0-15.017-.676-17.317-4.324,0,0-6.629-5.278-6.9-8.8a3.891,3.891,0,0,0-2.028-3.187,5.3,5.3,0,0,0-3.032-.676l-3.056.21s5.289,9.32,5.017,10.556.272,11.1.272,11.1-6.088-13.131-8.784-14.62-5.829-7.594-5.829-7.594l.54-3.088" transform="translate(-180.622 -327.825)" fill="#787c9c"/>
    <path id="Path_21085" data-name="Path 21085" d="M230.755,490s3.248,10.964,5.14,12.316,13.393,8.255,16.777,6.631c0,0,.812,4.061-.4,5.006,0,0-12.615-.494-12.717-.54,0,0-8.253-1.084-9.6-5.142s-2.976-10.963-2.976-10.963Z" transform="translate(-192.138 -359.619)" opacity="0.1"/>
    <ellipse id="Ellipse_2151" data-name="Ellipse 2151" cx="0.472" cy="0.676" rx="0.472" ry="0.676" transform="translate(55.465 141.406)" fill="#ba7855"/>
    <ellipse id="Ellipse_2152" data-name="Ellipse 2152" cx="0.472" cy="0.676" rx="0.472" ry="0.676" transform="translate(56.817 146.144)" fill="#ba7855"/>
    <g id="Group_11802" data-name="Group 11802" transform="translate(29.691 116.15)" opacity="0.1">
      <path id="Path_21086" data-name="Path 21086" d="M217.758,494.009s-.812-10.42,0-12.316.272-8.391.272-8.391a54.349,54.349,0,0,1-5.14-9.339c-1.9-4.138-1.76-7.01-1.414-8.555a2.888,2.888,0,0,1,1.312-1.825c1.726-1.059,5.588-3.635,6.73-6.133a7.03,7.03,0,0,1,2.655-3.221l.052-.309s-2.161.4-3.652,3.653c-1.145,2.5-5.008,5.074-6.73,6.133a2.888,2.888,0,0,0-1.312,1.825c-.349,1.544-.482,4.416,1.414,8.555a54.748,54.748,0,0,0,5.14,9.339s.54,6.485-.272,8.391,0,12.316,0,12.316,10.148,1.933,16.15.9C226.894,495.751,217.758,494.009,217.758,494.009Z" transform="translate(-210.321 -443.92)"/>
      <path id="Path_21087" data-name="Path 21087" d="M282.358,466.2a82.285,82.285,0,0,0,.151,8.74c.655,1.337,1.065,2.221,1.065,2.221s-.54-9.883-.272-11.1c.256-1.158-4.5-9.651-4.968-10.5l-.985.068S282.629,464.961,282.358,466.2Z" transform="translate(-256.656 -451.965)"/>
      <path id="Path_21088" data-name="Path 21088" d="M317.181,514.349c-5.952.136-11.229-5.559-11.229-5.559a2.163,2.163,0,0,0-.343.735c1.544,1.455,5.866,5.059,10.624,4.941a111.911,111.911,0,0,1,12.989.676s-.028-.09-.071-.244a107.664,107.664,0,0,0-11.97-.55Z" transform="translate(-276.191 -488.756)"/>
      <path id="Path_21089" data-name="Path 21089" d="M308.91,563.6s.056.846.025,2.115c1.408,2.779,3.97,7.573,5.116,7.764l-.2-1.112C311.874,569.9,308.91,563.6,308.91,563.6Z" transform="translate(-278.472 -526.639)"/>
    </g>
    <path id="Path_21090" data-name="Path 21090" d="M309.67,533.1l-2.874.618-2.266.479,1.216-3.4.846-.213,1.318-.327s1.9-9.475,5.684-8.8S309.67,533.1,309.67,533.1Z" transform="translate(-245.753 -381.34)" fill="#714b4f"/>
    <path id="Path_21091" data-name="Path 21091" d="M306.8,554.172l-2.266.479,1.216-3.4.846-.213A13.521,13.521,0,0,1,306.8,554.172Z" transform="translate(-245.753 -401.808)" opacity="0.1"/>
    <path id="Path_21092" data-name="Path 21092" d="M230.755,489.1s3.248,10.963,5.14,12.316,13.393,8.255,16.777,6.631c0,0,.812,4.061-.4,5.006,0,0-12.615-.494-12.717-.54,0,0-8.253-1.084-9.6-5.142s-2.976-10.963-2.976-10.963Z" transform="translate(-192.138 -358.997)" fill="#787c9c"/>
    <path id="Path_21093" data-name="Path 21093" d="M250.942,432.14s-.275,1.059-.642,2.6a7.3,7.3,0,0,0,8.064,3.706,4.216,4.216,0,0,1,.7-3.882Z" transform="translate(-208.265 -319.628)" opacity="0.1"/>
    <ellipse id="Ellipse_2153" data-name="Ellipse 2153" cx="7.305" cy="7.307" rx="7.305" ry="7.307" transform="translate(41.056 104.121)" fill="#714b4f"/>
    <path id="Path_21094" data-name="Path 21094" d="M254.53,394.247a3.91,3.91,0,0,0,1.63.1,2.678,2.678,0,0,0,1.979-2.557,3.929,3.929,0,0,0-1.507-3.017c-.617-.516-1.358-.883-1.923-1.458a13.643,13.643,0,0,1-1.544-2.406,7.141,7.141,0,0,0-3.677-2.854,3.347,3.347,0,0,0-3.353.392c-.442.417-.7,1.019-1.195,1.371a5.331,5.331,0,0,1-2.559.46,4.878,4.878,0,0,0-3.677,2.755,6.9,6.9,0,0,0-.358,4.682c.17.664.417,1.309.6,1.97.38,1.377.469,2.823.908,4.182a4.48,4.48,0,0,0,2.711,3.088,8.575,8.575,0,0,1,.871-4.416,1.266,1.266,0,0,1,.617-.686,1.5,1.5,0,0,1,.744,0,7.408,7.408,0,0,0,4.94-1c.519-.309,1.328-1.393,1.883-1.5C252.329,393.224,253.789,394.08,254.53,394.247Z" transform="translate(-199.828 -284.829)" opacity="0.1"/>
    <path id="Path_21095" data-name="Path 21095" d="M254.535,393.367a3.911,3.911,0,0,0,1.63.1,2.678,2.678,0,0,0,1.979-2.557,3.929,3.929,0,0,0-1.507-3.017c-.617-.516-1.358-.883-1.923-1.458a13.643,13.643,0,0,1-1.544-2.406,7.141,7.141,0,0,0-3.677-2.854,3.347,3.347,0,0,0-3.353.392c-.441.417-.7,1.019-1.195,1.371a5.331,5.331,0,0,1-2.559.46,4.878,4.878,0,0,0-3.677,2.755,6.9,6.9,0,0,0-.358,4.669c.17.664.417,1.309.6,1.97.38,1.377.469,2.823.908,4.182a4.48,4.48,0,0,0,2.711,3.088,8.575,8.575,0,0,1,.871-4.416,1.266,1.266,0,0,1,.617-.686,1.5,1.5,0,0,1,.744,0,7.408,7.408,0,0,0,4.94-1c.519-.309,1.328-1.393,1.883-1.5C252.334,392.344,253.794,393.2,254.535,393.367Z" transform="translate(-199.833 -284.221)" fill="#503f43"/>
    <rect id="Rectangle_5264" data-name="Rectangle 5264" width="159.54" height="190.857" transform="translate(69.876 33.328)" fill="#fafbfc"/>
    <rect id="Rectangle_5265" data-name="Rectangle 5265" width="159.54" height="6.47" transform="translate(69.876 33.328)" fill="#7983a6"/>
    <line id="Line_6107" data-name="Line 6107" x2="116.422" transform="translate(91.436 111.101)" fill="none" stroke="#7983a6" stroke-miterlimit="10" stroke-width="1"/>
    <g id="Group_11803" data-name="Group 11803" transform="translate(91.436 98.43)" opacity="0.5">
      <line id="Line_6108" data-name="Line 6108" x2="1.852" fill="none" stroke="#7983a6" stroke-miterlimit="10" stroke-width="1"/>
      <line id="Line_6109" data-name="Line 6109" x2="107.262" transform="translate(5.489)" fill="none" stroke="#7983a6" stroke-miterlimit="10" stroke-width="1" stroke-dasharray="11.78 11.78"/>
      <line id="Line_6110" data-name="Line 6110" x2="1.852" transform="translate(114.569)" fill="none" stroke="#7983a6" stroke-miterlimit="10" stroke-width="1"/>
    </g>
    <g id="Group_11804" data-name="Group 11804" transform="translate(91.436 85.761)" opacity="0.5">
      <line id="Line_6111" data-name="Line 6111" x2="1.852" fill="none" stroke="#7983a6" stroke-miterlimit="10" stroke-width="1"/>
      <line id="Line_6112" data-name="Line 6112" x2="107.262" transform="translate(5.489)" fill="none" stroke="#7983a6" stroke-miterlimit="10" stroke-width="1" stroke-dasharray="11.78 11.78"/>
      <line id="Line_6113" data-name="Line 6113" x2="1.852" transform="translate(114.569)" fill="none" stroke="#7983a6" stroke-miterlimit="10" stroke-width="1"/>
    </g>
    <g id="Group_11805" data-name="Group 11805" transform="translate(91.436 73.09)" opacity="0.5">
      <line id="Line_6114" data-name="Line 6114" x2="1.852" fill="none" stroke="#7983a6" stroke-miterlimit="10" stroke-width="1"/>
      <line id="Line_6115" data-name="Line 6115" x2="107.262" transform="translate(5.489)" fill="none" stroke="#7983a6" stroke-miterlimit="10" stroke-width="1" stroke-dasharray="11.78 11.78"/>
      <line id="Line_6116" data-name="Line 6116" x2="1.852" transform="translate(114.569)" fill="none" stroke="#7983a6" stroke-miterlimit="10" stroke-width="1"/>
    </g>
    <g id="Group_11806" data-name="Group 11806" transform="translate(91.436 60.422)" opacity="0.5">
      <line id="Line_6117" data-name="Line 6117" x2="1.852" fill="none" stroke="#7983a6" stroke-miterlimit="10" stroke-width="1"/>
      <line id="Line_6118" data-name="Line 6118" x2="107.262" transform="translate(5.489)" fill="none" stroke="#7983a6" stroke-miterlimit="10" stroke-width="1" stroke-dasharray="11.78 11.78"/>
      <line id="Line_6119" data-name="Line 6119" x2="1.852" transform="translate(114.569)" fill="none" stroke="#7983a6" stroke-miterlimit="10" stroke-width="1"/>
    </g>
    <g id="Group_11807" data-name="Group 11807" transform="translate(97.231 85.761)" opacity="0.3">
      <rect id="Rectangle_5266" data-name="Rectangle 5266" width="8.354" height="25.339" fill="#e6a744"/>
    </g>
    <rect id="Rectangle_5267" data-name="Rectangle 5267" width="8.354" height="38.279" transform="translate(120.54 72.954)" fill="#e6a744"/>
    <g id="Group_11808" data-name="Group 11808" transform="translate(143.853 98.294)" opacity="0.3">
      <rect id="Rectangle_5268" data-name="Rectangle 5268" width="8.354" height="13.073" fill="#e6a744"/>
    </g>
    <rect id="Rectangle_5269" data-name="Rectangle 5269" width="8.354" height="51.219" transform="translate(167.163 60.017)" fill="#e6a744"/>
    <g id="Group_11809" data-name="Group 11809" transform="translate(190.472 72.417)" opacity="0.3">
      <rect id="Rectangle_5270" data-name="Rectangle 5270" width="8.354" height="38.684" fill="#e6a744"/>
    </g>
    <ellipse id="Ellipse_2154" data-name="Ellipse 2154" cx="2.155" cy="2.156" rx="2.155" ry="2.156" transform="translate(99.253 114.739)" fill="#e6a744"/>
    <ellipse id="Ellipse_2155" data-name="Ellipse 2155" cx="2.155" cy="2.156" rx="2.155" ry="2.156" transform="translate(122.698 114.739)" fill="#e6a744"/>
    <ellipse id="Ellipse_2156" data-name="Ellipse 2156" cx="2.155" cy="2.156" rx="2.155" ry="2.156" transform="translate(146.144 114.739)" fill="#e6a744"/>
    <ellipse id="Ellipse_2157" data-name="Ellipse 2157" cx="2.155" cy="2.156" rx="2.155" ry="2.156" transform="translate(169.589 114.739)" fill="#e6a744"/>
    <ellipse id="Ellipse_2158" data-name="Ellipse 2158" cx="2.155" cy="2.156" rx="2.155" ry="2.156" transform="translate(193.035 114.739)" fill="#e6a744"/>
    <line id="Line_6120" data-name="Line 6120" x2="116.422" transform="translate(91.436 192.512)" fill="none" stroke="#7983a6" stroke-miterlimit="10" stroke-width="1"/>
    <g id="Group_11810" data-name="Group 11810" transform="translate(91.436 179.84)" opacity="0.5">
      <line id="Line_6121" data-name="Line 6121" x2="1.852" fill="none" stroke="#7983a6" stroke-miterlimit="10" stroke-width="1"/>
      <line id="Line_6122" data-name="Line 6122" x2="107.262" transform="translate(5.489)" fill="none" stroke="#7983a6" stroke-miterlimit="10" stroke-width="1" stroke-dasharray="11.78 11.78"/>
      <line id="Line_6123" data-name="Line 6123" x2="1.852" transform="translate(114.569)" fill="none" stroke="#7983a6" stroke-miterlimit="10" stroke-width="1"/>
    </g>
    <g id="Group_11811" data-name="Group 11811" transform="translate(91.436 167.172)" opacity="0.5">
      <line id="Line_6124" data-name="Line 6124" x2="1.852" fill="none" stroke="#7983a6" stroke-miterlimit="10" stroke-width="1"/>
      <line id="Line_6125" data-name="Line 6125" x2="107.262" transform="translate(5.489)" fill="none" stroke="#7983a6" stroke-miterlimit="10" stroke-width="1" stroke-dasharray="11.78 11.78"/>
      <line id="Line_6126" data-name="Line 6126" x2="1.852" transform="translate(114.569)" fill="none" stroke="#7983a6" stroke-miterlimit="10" stroke-width="1"/>
    </g>
    <g id="Group_11812" data-name="Group 11812" transform="translate(91.436 154.501)" opacity="0.5">
      <line id="Line_6127" data-name="Line 6127" x2="1.852" fill="none" stroke="#7983a6" stroke-miterlimit="10" stroke-width="1"/>
      <line id="Line_6128" data-name="Line 6128" x2="107.262" transform="translate(5.489)" fill="none" stroke="#7983a6" stroke-miterlimit="10" stroke-width="1" stroke-dasharray="11.78 11.78"/>
      <line id="Line_6129" data-name="Line 6129" x2="1.852" transform="translate(114.569)" fill="none" stroke="#7983a6" stroke-miterlimit="10" stroke-width="1"/>
    </g>
    <g id="Group_11813" data-name="Group 11813" transform="translate(91.436 141.833)" opacity="0.5">
      <line id="Line_6130" data-name="Line 6130" x2="1.852" fill="none" stroke="#7983a6" stroke-miterlimit="10" stroke-width="1"/>
      <line id="Line_6131" data-name="Line 6131" x2="107.262" transform="translate(5.489)" fill="none" stroke="#7983a6" stroke-miterlimit="10" stroke-width="1" stroke-dasharray="11.78 11.78"/>
      <line id="Line_6132" data-name="Line 6132" x2="1.852" transform="translate(114.569)" fill="none" stroke="#7983a6" stroke-miterlimit="10" stroke-width="1"/>
    </g>
    <rect id="Rectangle_5271" data-name="Rectangle 5271" width="8.354" height="25.339" transform="translate(97.231 167.172)" fill="#e6a744"/>
    <rect id="Rectangle_5272" data-name="Rectangle 5272" width="8.354" height="25.608" transform="translate(120.54 167.036)" fill="#e6a744"/>
    <rect id="Rectangle_5273" data-name="Rectangle 5273" width="8.354" height="13.073" transform="translate(143.853 179.707)" fill="#e6a744"/>
    <rect id="Rectangle_5274" data-name="Rectangle 5274" width="8.354" height="51.219" transform="translate(167.163 141.428)" fill="#e6a744"/>
    <rect id="Rectangle_5275" data-name="Rectangle 5275" width="8.354" height="38.684" transform="translate(222.272 111.209)" fill="#e6a744"/>
    <g id="Group_11814" data-name="Group 11814" transform="translate(99.253 196.15)" opacity="0.7">
      <ellipse id="Ellipse_2159" data-name="Ellipse 2159" cx="2.155" cy="2.156" rx="2.155" ry="2.156" fill="#e6a744"/>
    </g>
    <g id="Group_11815" data-name="Group 11815" transform="translate(122.698 196.15)" opacity="0.7">
      <ellipse id="Ellipse_2160" data-name="Ellipse 2160" cx="2.155" cy="2.156" rx="2.155" ry="2.156" fill="#e6a744"/>
    </g>
    <g id="Group_11816" data-name="Group 11816" transform="translate(146.144 196.15)" opacity="0.7">
      <ellipse id="Ellipse_2161" data-name="Ellipse 2161" cx="2.155" cy="2.156" rx="2.155" ry="2.156" fill="#e6a744"/>
    </g>
    <g id="Group_11817" data-name="Group 11817" transform="translate(169.589 196.15)" opacity="0.7">
      <ellipse id="Ellipse_2162" data-name="Ellipse 2162" cx="2.155" cy="2.156" rx="2.155" ry="2.156" fill="#e6a744"/>
    </g>
    <g id="Group_11818" data-name="Group 11818" transform="translate(193.035 196.15)" opacity="0.7">
      <ellipse id="Ellipse_2163" data-name="Ellipse 2163" cx="2.155" cy="2.156" rx="2.155" ry="2.156" fill="#e6a744"/>
    </g>
    <path id="Path_21096" data-name="Path 21096" d="M276.482,778.679a3.6,3.6,0,0,0,1.182-1.785,1.585,1.585,0,0,0-.827-1.819,2.318,2.318,0,0,0-2.186.769,2.907,2.907,0,0,1-2.127,1.025,3.237,3.237,0,0,0,1-3.03,1.267,1.267,0,0,0-.278-.618c-.423-.451-1.186-.256-1.692.1-1.605,1.13-2.053,3.311-2.062,5.275a10.117,10.117,0,0,1-.031-2.162,2.232,2.232,0,0,0-.815-1.921,2.469,2.469,0,0,0-1.235-.293,2.57,2.57,0,0,0-2.019.574,1.987,1.987,0,0,0,.08,2.471,8.035,8.035,0,0,0,2.09,1.674,4.633,4.633,0,0,1,1.494,1.424,1.41,1.41,0,0,1,.111.253h4.523a12.607,12.607,0,0,0,2.791-1.936Z" transform="translate(-218.424 -555.192)" fill="#e6a744"/>
    <path id="Path_21097" data-name="Path 21097" d="M988.482,766.679a3.6,3.6,0,0,0,1.182-1.785,1.585,1.585,0,0,0-.827-1.819,2.318,2.318,0,0,0-2.186.769,2.908,2.908,0,0,1-2.127,1.025,3.237,3.237,0,0,0,1-3.03,1.266,1.266,0,0,0-.278-.618c-.423-.451-1.186-.256-1.692.1-1.605,1.13-2.053,3.311-2.062,5.275a10.115,10.115,0,0,1-.031-2.162,2.232,2.232,0,0,0-.815-1.921,2.469,2.469,0,0,0-1.235-.293,2.571,2.571,0,0,0-2.019.574,1.987,1.987,0,0,0,.08,2.471,8.035,8.035,0,0,0,2.09,1.674,4.632,4.632,0,0,1,1.494,1.424,1.416,1.416,0,0,1,.111.253h4.523A12.6,12.6,0,0,0,988.482,766.679Z" transform="translate(-710.603 -546.898)" fill="#e6a744"/>
    <path id="Path_21098" data-name="Path 21098" d="M853.566,513.642l-2.257-.263-17.289-2.01c-10.494-3.317-3.856-8.369-3.856-8.369l6.987,6.64c2.016.4,9.92-.537,13.461-.991,1.062-.139,1.732-.232,1.732-.232Z" transform="translate(-607.672 -368.604)" fill="#fdc2cc"/>
    <path id="Path_21099" data-name="Path 21099" d="M921.284,458.8s-4.542-3.669-11.352,8.212-8.382,9.957-8.382,9.957,1.4,5.25.7,6.291a38.315,38.315,0,0,1,6.462,0c1.747.349,12.575-13.28,12.575-13.28S926.876,462.287,921.284,458.8Z" transform="translate(-658.45 -337.687)" fill="#f68080"/>
  </g>
</svg>
