<svg xmlns="http://www.w3.org/2000/svg" width="250" height="150" viewBox="0 0 320 168">
  <g id="undraw_Operating_system_re_iqsc" transform="translate(0 0)">
    <path id="Path_21127" data-name="Path 21127" d="M894.125,470.69a195.578,195.578,0,0,1-24.971-1.82c-.29-.04-.581-.083-.872-.123l.438-77.717c.289-.228.581-.453.877-.671.978-.725,1.984-1.405,3.024-2.03,5.014-3,10.884-4.374,14.935-3l.063.025a7.121,7.121,0,0,1,2.41,1.378c3.557,3.138,2.964,9.484.093,15.243,5.691-5.165,12.875-9.278,19.285-9.591,6.253-.306,10.72,2.942,14.517,6.465.125.115.247.231.369.347.063.056.122.115.185.171,2.894,2.749,5.745,5.953,5.4,10.591-.379,5.087-4.669,10.726-9.667,14.681s-10.668,6.582-16.206,9.246-11.209,5.552-15.939,9.832c7.381-5.8,15.778-10.47,23.946-12.2s16.011-.207,19.858,4.959a12.041,12.041,0,0,1,2.149,5.293c.037.223.067.449.094.679.548,4.782-1.116,10.492-5.1,15.35a35.6,35.6,0,0,1-17.046,10.905C905.8,470.553,899.865,470.749,894.125,470.69Z" transform="translate(-614.273 -323.492)" fill="#e6a744"/>
    <path id="Path_21128" data-name="Path 21128" d="M869.067,421.635l.008-1.486q.447-.708.881-1.422c.188-.295.368-.593.552-.892q4.545-7.394,8.722-14.881T887.2,387.92a.627.627,0,0,1,.717-.358.176.176,0,0,1,.052.025c.133.071.188.227.075.457-.312.618-.624,1.239-.943,1.857q-3.857,7.576-8.1,15.086t-8.857,14.926c-.064.1-.131.208-.2.312C869.654,420.7,869.36,421.164,869.067,421.635Z" transform="translate(-614.783 -325.284)" fill="#fff"/>
    <path id="Path_21129" data-name="Path 21129" d="M868.76,465.3l0-.919c.292-.207.584-.411.876-.618q10.313-7.3,20.623-14.606,16.884-11.957,33.765-23.907a.6.6,0,0,1,.2-.1c.249-.068.4.114.369.347a.7.7,0,0,1-.311.486q-9.469,6.7-18.929,13.4l-33.591,23.786c-.711.5-1.426,1.009-2.136,1.513C869.344,464.89,869.052,465.1,868.76,465.3Z" transform="translate(-614.584 -349.789)" fill="#fff"/>
    <path id="Path_21130" data-name="Path 21130" d="M873.923,566.186c-1.56-.047-3.094-.15-4.614-.284l-.872-.078.006-.964c.29.029.582.058.872.085,2.2.2,4.417.349,6.7.368a94.034,94.034,0,0,0,18.834-1.827,117.931,117.931,0,0,0,19.568-5.659,134.8,134.8,0,0,0,19.359-9.259.522.522,0,0,1,.344-.086c.277.04.358.406.095.68a.8.8,0,0,1-.176.138q-1.156.667-2.317,1.31a134.615,134.615,0,0,1-19.428,8.863,117.358,117.358,0,0,1-19.6,5.276A92.833,92.833,0,0,1,873.923,566.186Z" transform="translate(-614.374 -430.201)" fill="#fff"/>
    <path id="Path_21131" data-name="Path 21131" d="M462.132,208.674h-212.7a3.048,3.048,0,0,0-3.055,3.035V354.88a3.048,3.048,0,0,0,3.055,3.035h212.7a3.061,3.061,0,0,0,2.323-1.065.682.682,0,0,0,.066-.083,2.824,2.824,0,0,0,.438-.734,2.941,2.941,0,0,0,.231-1.152V211.709A3.049,3.049,0,0,0,462.132,208.674Zm2.187,146.206a2.137,2.137,0,0,1-.361,1.191,2.252,2.252,0,0,1-.827.738,2.184,2.184,0,0,1-1,.24h-212.7a2.179,2.179,0,0,1-2.183-2.168V211.709a2.178,2.178,0,0,1,2.183-2.168h212.7a2.179,2.179,0,0,1,2.187,2.169Z" transform="translate(-210.29 -208.674)" fill="#727b89"/>
    <rect id="Rectangle_5350" data-name="Rectangle 5350" width="217.94" height="0.868" transform="translate(36.522 12.165)" fill="#727b89"/>
    <ellipse id="Ellipse_2165" data-name="Ellipse 2165" cx="2.621" cy="2.603" rx="2.621" ry="2.603" transform="translate(41.326 3.905)" fill="#727b89"/>
    <ellipse id="Ellipse_2166" data-name="Ellipse 2166" cx="2.621" cy="2.603" rx="2.621" ry="2.603" transform="translate(48.86 3.905)" fill="#727b89"/>
    <ellipse id="Ellipse_2167" data-name="Ellipse 2167" cx="2.621" cy="2.603" rx="2.621" ry="2.603" transform="translate(56.394 3.905)" fill="#727b89"/>
    <path id="Path_21132" data-name="Path 21132" d="M503.58,284.376H394.251a4.525,4.525,0,1,1,0-9.05H503.58a4.525,4.525,0,1,1,0,9.05Zm-109.328-8.354a3.829,3.829,0,1,0,0,7.658H503.58a3.829,3.829,0,1,0,0-7.658Z" transform="translate(-303.389 -252.126)" fill="#727b89"/>
    <path id="Path_21133" data-name="Path 21133" d="M381.917,370.4h-9.812a2.785,2.785,0,1,1,0-5.569h9.812a2.785,2.785,0,1,1,0,5.569Z" transform="translate(-290.141 -310.473)" fill="#ccc"/>
    <path id="Path_21134" data-name="Path 21134" d="M393.481,397.4H372.106a2.785,2.785,0,1,1,0-5.569h21.375a2.785,2.785,0,1,1,0,5.569Z" transform="translate(-290.141 -328.075)" fill="#ccc"/>
    <path id="Path_21135" data-name="Path 21135" d="M386.917,488.395h-9.812a2.785,2.785,0,1,1,0-5.569h9.812a2.785,2.785,0,1,1,0,5.569Z" transform="translate(-293.389 -387.4)" fill="#ccc"/>
    <path id="Path_21136" data-name="Path 21136" d="M398.48,515.395H377.105a2.785,2.785,0,1,1,0-5.569H398.48a2.785,2.785,0,1,1,0,5.569Z" transform="translate(-293.389 -405.001)" fill="#ccc"/>
    <path id="Path_21137" data-name="Path 21137" d="M570.917,485.395h-9.812a2.785,2.785,0,1,1,0-5.569h9.812a2.785,2.785,0,1,1,0,5.569Z" transform="translate(-412.913 -385.444)" fill="#ccc"/>
    <path id="Path_21138" data-name="Path 21138" d="M582.48,512.395H561.105a2.785,2.785,0,1,1,0-5.569H582.48a2.785,2.785,0,1,1,0,5.569Z" transform="translate(-412.913 -403.046)" fill="#ccc"/>
    <path id="Path_21139" data-name="Path 21139" d="M567.917,375.4h-9.812a2.785,2.785,0,1,1,0-5.57h9.812a2.785,2.785,0,1,1,0,5.57Z" transform="translate(-410.964 -313.732)" fill="#ccc"/>
    <path id="Path_21140" data-name="Path 21140" d="M579.48,402.4H558.105a2.785,2.785,0,1,1,0-5.569H579.48a2.785,2.785,0,1,1,0,5.569Z" transform="translate(-410.964 -331.335)" fill="#ccc"/>
    <path id="Path_21141" data-name="Path 21141" d="M754.917,369.4h-9.812a2.785,2.785,0,1,1,0-5.569h9.812a2.785,2.785,0,1,1,0,5.569Z" transform="translate(-532.438 -309.821)" fill="#ccc"/>
    <path id="Path_21142" data-name="Path 21142" d="M766.481,396.4H745.106a2.785,2.785,0,1,1,0-5.569h21.375a2.785,2.785,0,1,1,0,5.569Z" transform="translate(-532.438 -327.423)" fill="#ccc"/>
    <ellipse id="Ellipse_2168" data-name="Ellipse 2168" cx="10.512" cy="10.442" rx="10.512" ry="10.442" transform="translate(54.141 51.394)" fill="#e6a744"/>
    <path id="Path_21143" data-name="Path 21143" d="M321.764,382.224h-9.812a1.049,1.049,0,0,1-1.051-1.045V373.87a1.048,1.048,0,0,1,1.051-1.044h2.762a1.045,1.045,0,0,1,.9.5l.77,1.244h5.384a1.049,1.049,0,0,1,1.051,1.044v5.569A1.049,1.049,0,0,1,321.764,382.224Zm-9.812-8.7a.35.35,0,0,0-.35.348v7.309a.35.35,0,0,0,.35.349h9.812a.35.35,0,0,0,.35-.349v-5.569a.35.35,0,0,0-.35-.348h-5.775l-.976-1.575a.349.349,0,0,0-.3-.165Z" transform="translate(-252.204 -315.689)" fill="#fff"/>
    <ellipse id="Ellipse_2169" data-name="Ellipse 2169" cx="10.512" cy="10.442" rx="10.512" ry="10.442" transform="translate(118.617 53.135)" fill="#e6a744"/>
    <path id="Path_21144" data-name="Path 21144" d="M506.063,385.553h-9.111a1.049,1.049,0,0,1-1.051-1.044V373.37a1.049,1.049,0,0,1,1.051-1.044h6.6a1.06,1.06,0,0,1,.659.23l2.509,2a1.036,1.036,0,0,1,.393.814v9.136A1.049,1.049,0,0,1,506.063,385.553Zm-9.111-12.531a.349.349,0,0,0-.35.348v11.139a.349.349,0,0,0,.35.348h9.111a.349.349,0,0,0,.35-.348v-9.136a.345.345,0,0,0-.131-.271l-2.509-2a.351.351,0,0,0-.219-.077Z" transform="translate(-372.378 -315.363)" fill="#fff"/>
    <path id="Path_21145" data-name="Path 21145" d="M508.858,385.022h-5.606a.348.348,0,1,1,0-.7h5.606a.348.348,0,1,1,0,.7Z" transform="translate(-376.925 -323.186)" fill="#fff"/>
    <path id="Path_21146" data-name="Path 21146" d="M508.858,391.022h-5.606a.348.348,0,1,1,0-.7h5.606a.348.348,0,1,1,0,.7Z" transform="translate(-376.925 -327.097)" fill="#fff"/>
    <path id="Path_21147" data-name="Path 21147" d="M508.858,397.022h-5.606a.348.348,0,1,1,0-.7h5.606a.348.348,0,1,1,0,.7Z" transform="translate(-376.925 -331.009)" fill="#fff"/>
    <ellipse id="Ellipse_2170" data-name="Ellipse 2170" cx="10.512" cy="10.442" rx="10.512" ry="10.442" transform="translate(183.443 51.046)" fill="#e6a744"/>
    <path id="Path_21148" data-name="Path 21148" d="M690.763,381.984h-9.812a1.048,1.048,0,0,1-1.051-1.044V375.37a1.048,1.048,0,0,1,1.051-1.044h9.812a1.049,1.049,0,0,1,1.051,1.044v5.569A1.049,1.049,0,0,1,690.763,381.984Zm-9.812-6.962a.349.349,0,0,0-.35.348v5.569a.349.349,0,0,0,.35.348h9.812a.349.349,0,0,0,.35-.348V375.37a.349.349,0,0,0-.35-.348Z" transform="translate(-491.902 -316.666)" fill="#fff"/>
    <path id="Path_21149" data-name="Path 21149" d="M685.857,380.377a1.056,1.056,0,0,1-.557-.158l-5.235-3.25a.346.346,0,0,1-.112-.48.353.353,0,0,1,.483-.111l5.235,3.25a.356.356,0,0,0,.372,0l5.234-3.25a.352.352,0,0,1,.483.111.347.347,0,0,1-.111.48l-5.235,3.25A1.055,1.055,0,0,1,685.857,380.377Z" transform="translate(-491.902 -317.97)" fill="#fff"/>
    <ellipse id="Ellipse_2171" data-name="Ellipse 2171" cx="10.512" cy="10.442" rx="10.512" ry="10.442" transform="translate(54.141 92.467)" fill="#e6a744"/>
    <path id="Path_21150" data-name="Path 21150" d="M321.764,500.984h-9.812a1.049,1.049,0,0,1-1.051-1.044V494.37a1.048,1.048,0,0,1,1.051-1.044h9.812a1.049,1.049,0,0,1,1.051,1.044v5.569A1.049,1.049,0,0,1,321.764,500.984Zm-9.812-6.961a.35.35,0,0,0-.35.348v5.569a.349.349,0,0,0,.35.348h9.812a.349.349,0,0,0,.35-.348V494.37a.349.349,0,0,0-.35-.348Z" transform="translate(-252.204 -394.245)" fill="#fff"/>
    <path id="Path_21151" data-name="Path 21151" d="M323.091,505.874H316.04a.7.7,0,0,1-.607-.348.693.693,0,0,1,0-.7l2.124-3.655a.7.7,0,0,1,1.214,0l1.372,2.361.795-1.368a.7.7,0,0,1,1.214,0l1.547,2.662a.693.693,0,0,1,0,.7A.7.7,0,0,1,323.091,505.874Zm0-.7h0l-1.547-2.662-1.1,1.89a.351.351,0,0,1-.3.174h0a.351.351,0,0,1-.3-.174l-1.676-2.882-2.124,3.655Z" transform="translate(-255.087 -399.135)" fill="#fff"/>
    <ellipse id="Ellipse_2172" data-name="Ellipse 2172" cx="0.701" cy="0.696" rx="0.701" ry="0.696" transform="translate(67.807 100.473)" fill="#fff"/>
    <ellipse id="Ellipse_2173" data-name="Ellipse 2173" cx="10.512" cy="10.442" rx="10.512" ry="10.442" transform="translate(119.318 91.423)" fill="#e6a744"/>
    <path id="Path_21152" data-name="Path 21152" d="M508.055,490.091a3.133,3.133,0,1,1,3.154-3.133A3.143,3.143,0,0,1,508.055,490.091Zm0-5.569a2.436,2.436,0,1,0,2.453,2.436,2.444,2.444,0,0,0-2.453-2.436Z" transform="translate(-378.224 -388.052)" fill="#fff"/>
    <path id="Path_21153" data-name="Path 21153" d="M509.234,509.047h-5.606a1.224,1.224,0,0,1-1.227-1.218,4.03,4.03,0,0,1,8.06,0A1.224,1.224,0,0,1,509.234,509.047Zm-2.8-4.525a3.323,3.323,0,0,0-3.329,3.307.525.525,0,0,0,.526.522h5.606a.525.525,0,0,0,.526-.522A3.322,3.322,0,0,0,506.431,504.522Z" transform="translate(-376.601 -401.091)" fill="#fff"/>
    <path id="Path_21154" data-name="Path 21154" d="M80.936,440.37h4.3l2.044-16.46h-6.34Z" transform="translate(-52.574 -276.357)" fill="#ffb8b8"/>
    <path id="Path_21155" data-name="Path 21155" d="M0,0H13.5V5.182H5.217A5.2,5.2,0,0,1,0,0Z" transform="translate(40.941 167.976) rotate(179.997)" fill="#575f6c"/>
    <path id="Path_21156" data-name="Path 21156" d="M34.936,440.37h4.3l2.044-16.46h-6.34Z" transform="translate(-22.693 -276.357)" fill="#ffb8b8"/>
    <path id="Path_21157" data-name="Path 21157" d="M0,0H13.5V5.182H5.217A5.2,5.2,0,0,1,0,0Z" transform="translate(24.822 167.976) rotate(179.997)" fill="#575f6c"/>
    <path id="Path_21158" data-name="Path 21158" d="M168.977,453.7a3.724,3.724,0,0,0,.723-5.688l2.829-39.875-8.148.785-.224,39.05a3.741,3.741,0,0,0-.151,4.991A3.8,3.8,0,0,0,168.977,453.7Z" transform="translate(-156.21 -338.706)" fill="#ffb8b8"/>
    <path id="Path_21159" data-name="Path 21159" d="M191.566,560.744a1.579,1.579,0,0,1-1.566-1.38l-2.5-20.747a1.228,1.228,0,0,0-2.429-.044l-3.146,19.864a1.566,1.566,0,0,1-1.558,1.323h-5.1a1.582,1.582,0,0,1-1.119-.463,1.56,1.56,0,0,1-.458-1.115l2.433-44.044a1.561,1.561,0,0,1,1.35-1.539l18.92-2.728a1.586,1.586,0,0,1,1.262.369,1.564,1.564,0,0,1,.541,1.192l-.33,47.532a1.57,1.57,0,0,1-1.5,1.553l-4.729.224C191.616,560.743,191.591,560.744,191.566,560.744Z" transform="translate(-163.077 -405.02)" fill="#575f6c"/>
    <path id="Path_21160" data-name="Path 21160" d="M177.084,433.32a15.9,15.9,0,0,1-5.335-.944,1.556,1.556,0,0,1-1.022-1.394c-.163-3.6-1.118-22.118-3.9-33.415a11.508,11.508,0,0,1,4.428-12.034q.224-.16.457-.315a11.387,11.387,0,0,1,11-.857A11.572,11.572,0,0,1,189.5,393.4l4.534,33.433a1.564,1.564,0,0,1-1.4,1.766,23.915,23.915,0,0,0-9,3.062A13.431,13.431,0,0,1,177.084,433.32Z" transform="translate(-158.403 -322.539)" fill="#9ba2af"/>
    <path id="Path_21161" data-name="Path 21161" d="M164.9,415.993l-7.46-2.009a1.567,1.567,0,0,1-1.109-1.922l2.623-9.608a4.347,4.347,0,0,1,8.531,1.367l-.6,10.747a1.564,1.564,0,0,1-.651,1.184A1.585,1.585,0,0,1,164.9,415.993Z" transform="translate(-151.76 -332.926)" fill="#9ba2af"/>
    <ellipse id="Ellipse_2174" data-name="Ellipse 2174" cx="8.606" cy="8.549" rx="8.606" ry="8.549" transform="translate(12.836 40.185)" fill="#ffb8b8"/>
    <path id="Path_21162" data-name="Path 21162" d="M251.516,391.659a3.67,3.67,0,0,0-.084.571l-15.053,8.626-3.659-2.092-3.9,5.072,7.827,5.542,17.173-13.458a3.694,3.694,0,0,0,4.051-1.028,3.634,3.634,0,0,0,.466-4.127,3.686,3.686,0,0,0-6.821.894Z" transform="translate(-198.886 -326.129)" fill="#ffb8b8"/>
    <path id="Path_21163" data-name="Path 21163" d="M219.357,403.4l-6.484,4.18a1.585,1.585,0,0,1-2.181-.461l-5.456-8.351a4.3,4.3,0,0,1,.911-5.7,4.366,4.366,0,0,1,5.806.3l7.661,7.612a1.56,1.56,0,0,1-.257,2.421Z" transform="translate(-183.11 -328.253)" fill="#9ba2af"/>
    <path id="Path_21164" data-name="Path 21164" d="M179.584,332.35a2.736,2.736,0,0,0,4.793-2.075c-.108-1.028-.706-1.961-.563-3.047a1.591,1.591,0,0,1,.294-.748c1.279-1.7,4.283.761,5.49-.78.74-.945-.13-2.432.438-3.488.75-1.394,2.971-.706,4.364-1.469,1.55-.849,1.457-3.211.437-4.648a7.377,7.377,0,0,0-5.58-2.822,15.054,15.054,0,0,0-6.3,1.222A12.6,12.6,0,0,0,177,318.6a9.96,9.96,0,0,0-1.019,8.528C176.5,328.854,178.273,330.963,179.584,332.35Z" transform="translate(-164.232 -276.852)" fill="#575f6c"/>
    <path id="Path_21165" data-name="Path 21165" d="M192.8,690.022H143.743a.348.348,0,1,1,0-.7H192.8a.348.348,0,1,1,0,.7Z" transform="translate(-143.393 -522.022)" fill="#3f3d56"/>
  </g>
</svg>
