<svg xmlns="http://www.w3.org/2000/svg" xmlns:xlink="http://www.w3.org/1999/xlink" width="200" height="80" viewBox="0 0 600.46 430">
  <defs>
    <linearGradient id="linear-gradient" x1="0.5" y1="1" x2="0.5" gradientUnits="objectBoundingBox">
      <stop offset="0" stop-color="gray" stop-opacity="0.251"/>
      <stop offset="0.54" stop-color="gray" stop-opacity="0.122"/>
      <stop offset="1" stop-color="gray" stop-opacity="0.102"/>
    </linearGradient>
    <linearGradient id="linear-gradient-2" x1="0.5" y1="1" x2="0.5" xlink:href="#linear-gradient"/>
  </defs>
  <g id="undraw_security_o890" transform="translate(0.02 -0.003)">
    <path id="Path_18925" data-name="Path 18925" d="M652.548,329.129c-13.922,28.745-42.189,47.966-71.483,60.642-39.438,17.071-82.869,23.842-125.7,20.978q-11.26-.75-22.451-2.4a282.964,282.964,0,0,1-75.067-21.88q-10.343-4.662-20.267-10.18A259.239,259.239,0,0,1,305.9,355.556q-3.788-2.895-7.472-5.937c-1.7-1.406-3.39-2.842-5.1-4.238a64.4,64.4,0,0,0-11.485-7.83,41.02,41.02,0,0,0-3.846-1.7c-13.141-5-28.294-3.115-41.974.787-10.406,2.968-20.549,7.033-30.945,9.933a102.61,102.61,0,0,1-14.1,3,74.968,74.968,0,0,1-31.678-2.785l-.875-.273q-2.2-.692-4.365-1.516l-.875-.336q-2.1-.808-4.1-1.736l-.875-.4q-2.1-.975-4.1-2.061c-.482-.252-.959-.524-1.43-.781a85.767,85.767,0,0,1-20.518-15.99c-.173-.173-.335-.351-.524-.524-.833-.9-1.65-1.82-2.442-2.759-.293-.346-.587-.692-.875-1.049q-1.409-1.72-2.719-3.519c-.131-.173-.257-.351-.382-.524a75.853,75.853,0,0,1-8.834-15.99c-.073-.173-.141-.351-.2-.524q-1.048-2.7-1.912-5.491c-.236-.776-.461-1.573-.66-2.35-.068-.231-.131-.467-.189-.7-2.892-11.4-3.222-23.244-3.222-35.023v-4.117c.084-19.053.377-38.432,3.186-57.223a2.39,2.39,0,0,1,.058-.388,178.861,178.861,0,0,1,3.83-18.786,138.675,138.675,0,0,1,6.45-19.038c6.46-15.209,15.855-29.049,26.287-41.877,26.276-32.28,60.737-59.378,101.071-69.521,43.462-10.924,91.765-.456,126.823,27.481,10.689,8.517,20.293,18.6,32.3,25.132,10.479,5.685,22.745,8.04,33.968,3.566,9.274-3.7,15.31-5.533,25.726-4.972a215.462,215.462,0,0,1,63.063,13.221c.817.3,1.635.608,2.447.918,52.768,20.207,98.126,60.354,121.7,111.944q.938,2.045,1.818,4.122C662.975,258.574,668.057,297.1,652.548,329.129Z" transform="translate(-61.617 -40.04)" fill="#9f6e65" opacity="0.1"/>
    <ellipse id="Ellipse_1929" data-name="Ellipse 1929" cx="46.255" cy="7.437" rx="46.255" ry="7.437" transform="translate(16.986 374.789)" fill="#9f6e65" opacity="0.1"/>
    <ellipse id="Ellipse_1930" data-name="Ellipse 1930" cx="82.015" cy="7.972" rx="82.015" ry="7.972" transform="translate(396.178 414.06)" fill="#9f6e65" opacity="0.1"/>
    <rect id="Rectangle_3896" data-name="Rectangle 3896" width="497.93" height="282.327" rx="12.49" transform="translate(61.062 56.511)" fill="url(#linear-gradient)"/>
    <rect id="Rectangle_3897" data-name="Rectangle 3897" width="496.405" height="277.418" rx="12.49" transform="translate(61.853 60.481)" fill="#fff"/>
    <rect id="Rectangle_3898" data-name="Rectangle 3898" width="496.405" height="277.418" rx="12.49" transform="translate(61.853 60.481)" fill="#fff"/>
    <rect id="Rectangle_3899" data-name="Rectangle 3899" width="496.405" height="277.418" rx="12.49" transform="translate(61.853 60.481)" fill="#fff" opacity="0.04"/>
    <path id="Path_18926" data-name="Path 18926" d="M638.5,149.29H147.14a2.521,2.521,0,0,0-2.52,2.523v10.662H641V151.813a2.521,2.521,0,0,0-2.5-2.523Z" transform="translate(-82.767 -91.992)" fill="#5a5773"/>
    <g id="buttons" transform="translate(68.36 60.481)">
      <ellipse id="Ellipse_1931" data-name="Ellipse 1931" cx="3.406" cy="3.409" rx="3.406" ry="3.409" fill="#fff"/>
      <ellipse id="Ellipse_1932" data-name="Ellipse 1932" cx="3.406" cy="3.409" rx="3.406" ry="3.409" transform="translate(9.169)" fill="#fff"/>
      <ellipse id="Ellipse_1933" data-name="Ellipse 1933" cx="3.406" cy="3.409" rx="3.406" ry="3.409" transform="translate(18.338)" fill="#fff"/>
    </g>
    <rect id="Rectangle_3900" data-name="Rectangle 3900" width="133.215" height="11.318" transform="translate(102.737 95.278)" fill="#9f6e65" opacity="0.2"/>
    <rect id="Rectangle_3901" data-name="Rectangle 3901" width="414.637" height="174.096" transform="translate(102.737 140.659)" fill="#5a5773" opacity="0.1"/>
    <path id="Path_18927" data-name="Path 18927" d="M610.856,291.293h-7.1v-13.8a28.355,28.355,0,1,0-56.708-.383v14.186h-7.084a11.858,11.858,0,0,0-11.815,11.826v56.756A11.858,11.858,0,0,0,539.965,371.7h70.891a11.852,11.852,0,0,0,11.81-11.826V303.119a11.852,11.852,0,0,0-11.81-11.826Zm-31.306,36.9v20.328a4.241,4.241,0,0,1-3.93,4.259,4.146,4.146,0,0,1-4.338-4.143V328.177a9.433,9.433,0,1,1,8.268,0Zm15.949-36.9H555.317V277.107a20.083,20.083,0,1,1,40.166,0Z" transform="translate(-265.345 -139.28)" opacity="0.1"/>
    <path id="Path_18928" data-name="Path 18928" d="M610.856,289.293h-7.1v-13.8a28.355,28.355,0,1,0-56.708-.383v14.186h-7.084a11.857,11.857,0,0,0-11.815,11.826v56.756A11.858,11.858,0,0,0,539.965,369.7h70.891a11.852,11.852,0,0,0,11.81-11.826V301.119a11.852,11.852,0,0,0-11.81-11.826Zm-31.306,36.9v20.328a4.241,4.241,0,0,1-3.93,4.259,4.146,4.146,0,0,1-4.338-4.143V326.177a9.433,9.433,0,1,1,8.268,0Zm15.949-36.9H555.317V275.107a20.083,20.083,0,1,1,40.166,0Z" transform="translate(-265.345 -138.329)" fill="#9f6e65"/>
    <rect id="Rectangle_3902" data-name="Rectangle 3902" width="41.969" height="9.917" transform="translate(475.405 123.903)" fill="#5a5773" opacity="0.1"/>
    <path id="Path_18929" data-name="Path 18929" d="M948.948,583a14.94,14.94,0,0,0-1.4-3.991l-6.287-9.4h.037s-.99-4.72,0-7.038-3.531-8.019-3.531-8.019a3.384,3.384,0,0,1,.885-3.194c1.436-1.762-.885-6.923-.885-6.923s-1.1-10.777-1.21-12.424-1-10.772-1-10.772l-2.1-19.347-3.731-51.275-.068-.96c.461-.225.707-.367.707-.367l-.744-28.352.644-.582c5.627-5.1,18.606-16.9,18.475-17.155s-1.572-19.7-1.74-24.57a29.305,29.305,0,0,0-2.232-10.059c-.325-.645-1.263-4.9-1.65-6.7-.1-.493-.173-.8-.173-.8s-3.8-7.258-3.474-10.557.99-5.769-7.121-6.923c0,0-6.811-1.017-10.867-3.792a30.9,30.9,0,0,0-7.786-3.9s-2.274-4.2-3.856-2.774a22.044,22.044,0,0,1-1.493-4.673l-.047-.294a15.456,15.456,0,0,0,6.1-8.737c.052-.2.094-.4.141-.6a1.7,1.7,0,0,0,.487.089c1.378,0,2.227-1.537,3.516-2.024.524-.2,1.168-.236,1.572-.65a1.538,1.538,0,0,0,.346-1.159,2.376,2.376,0,0,0,0-.43q0-.076,0-.152v.052c-.351-1.909-1.829-3.6-1.666-5.543.157-1.825,1.76-3.43,1.629-5.208a2.842,2.842,0,0,0-.037-.42v.063a4.491,4.491,0,0,0-1.048-1.857,5.953,5.953,0,0,0-2.159-1.815c-.728-.32-1.572-.393-2.253-.776-2-1.091-2-3.933-3.186-5.874a5.191,5.191,0,0,0-4.857-2.407c-1.488.147-2.835.939-4.307,1.2a11.252,11.252,0,0,1-5.968-1.049,16.417,16.417,0,0,0-5.889-1.573c-2.049,0-4.265,1.049-4.883,2.984-.33,1.049-.168,2.176-.419,3.241-.451,1.878-2.1,3.22-3.8,4.154-1.048.582-2.295,1.248-2.62,2.35v-.084a2.016,2.016,0,0,0-.052.268,1.964,1.964,0,0,0,0,.351,6.617,6.617,0,0,0,.665,2.192,6.052,6.052,0,0,1-.031,4.227c-.388,1-1.048,1.872-1.425,2.863a5.638,5.638,0,0,0-.346,1.437v-.084a5.782,5.782,0,0,0,0,.671,4.724,4.724,0,0,0,.524,2.2,3.952,3.952,0,0,0,2.353,1.977c1.048.241,1.7-.787,2.808-.524a4.417,4.417,0,0,1,.582.184c.037.236.073.472.115.7a15.417,15.417,0,0,0,5.313,9,3.38,3.38,0,0,0,.058.383h0A35.245,35.245,0,0,1,890,334.1s-1.65-2.418-3.914,2.25c0,0-5.905,3.409-7.943,3.8s-9.274,2.911-9.274,2.911a6.378,6.378,0,0,1-3.752,1.211c-2.258,0-4.134,4.946-3.862,7.636s-.162,4.673-2.264,4.783-.954,4.374-.938,4.447l-.194.918c-.409,1.878-1.3,5.905-1.614,6.535a29.4,29.4,0,0,0-2.237,10.059c-.162,4.867-1.572,24.24-1.734,24.57-.11.215,8.781,8.349,15.032,14.034l.906.818-2.877,26.894a7.182,7.182,0,0,0,2.955,5.244c0,.315,0,.635-.031.965-.126,3.147-.377,6.954-.88,7.951-.88,1.762-.66,11.213-.66,11.213s-.885,19.237-1.986,21.329a14.565,14.565,0,0,0-1,7.342c.33.86-1.106,23.962-1.106,23.962l-1.1,10.337s.33,9.891-.665,10.111-1.546,7.038-1.546,7.038-3.526,4.835-1.986,6.592-.225,2.533-.388,2.968-3.364,2.1-1.048,8.244a1.821,1.821,0,0,0,.073.178c-2.169,3.016-9.044,12.744-8.624,14.223a3.9,3.9,0,0,0,1.834,2.2c1.619.97,4.4,1.421,8.813,0,7.335-2.365,6.811-4.07,6.811-4.07a3.114,3.114,0,0,1,3.091-2.968c3.034-.22,5.3-3.021,5.3-3.021l-.356-1.327-.487-1.836c.058-.524.43-1.442,2.1-1.951,2.541-.771,1.876-5.606,1.876-5.606s-.22-5.056.88-5.716.665-9.015.665-9.015a62,62,0,0,1,2.976-10.117c1.76-4.07,3.867-28.247,3.867-28.247s1.43-11.874,2.756-15.282,2.541-12.97,2.541-12.97,8.168-15.833,8.273-19.352c0,0,1.048-3.3,2.1.33s3.993,12.314,3.993,12.314l2.866,10.662,3.421,15.938,2.211,13.415s-.335,5.056.524,6.818,2.1,5.821,1.436,6.592,1.32,4.4,1.876,5.166,0,17.039,0,17.039,2.536,13.851,6.177,16.258a4.457,4.457,0,0,0,.807.42c-.052,1.5-.1,3.509-.037,4.557a1.748,1.748,0,0,0,.115.687c.33.441,4.082,3.409,4.857,3.409s3.526,1.925,3.641,2.858,8.064,4.888,9.19,5,6.586,1.1,7.335-.441A2.546,2.546,0,0,0,948.948,583ZM929.42,384.9l.566.488s.582,4.537,1,5.895a11.4,11.4,0,0,1-.084,4,9.214,9.214,0,0,0,.582,2.884c.492.991-1,3.147-1,3.147h-1.326l-.414-16.982ZM890,334.2v-.1a.329.329,0,0,0-.016.1Zm-20.356,65.373a1.916,1.916,0,0,1-.084-1.4,4.2,4.2,0,0,0,.278-.776,12.034,12.034,0,0,0,.3-2.1.151.151,0,0,0,0-.026,11.105,11.105,0,0,1-.079-3.975c.393-1.29.99-5.895.99-5.895l.377-.32.875-.76a6.234,6.234,0,0,1,.063-.75c.183,3.986.33,8.391.094,8.611-.44.435-2.043,4.72-1.656,4.888a20.08,20.08,0,0,1-.341,4.08,8.366,8.366,0,0,1-.823-1.579Z" transform="translate(-417.291 -158.565)" fill="url(#linear-gradient-2)"/>
    <path id="Path_18930" data-name="Path 18930" d="M948.812,367.66v6.524l-13.371,6.729s-13.277-8.04-10-11.239c2.1-2.024,1.692-7.584,1.126-11.407h0c-.33-2.224-.713-3.855-.713-3.855s23.85-6.818,20.246-1.642a8.148,8.148,0,0,0-.9,6.188A28.124,28.124,0,0,0,948.812,367.66Z" transform="translate(-454.225 -187.835)" fill="#fbbebe"/>
    <path id="Path_18931" data-name="Path 18931" d="M880.125,467.206,878.4,488.457s-2.583-2.344-5.926-5.4c-6.2-5.659-15-13.751-14.9-13.966.162-.33,1.572-19.609,1.724-24.455a29.289,29.289,0,0,1,2.211-10.007,62.251,62.251,0,0,0,1.572-6.508c.126-.582.2-.96.2-.96L866.182,426s12.051,13.457,12.051,13.7-.823,10.583-.823,10.583l-.854.745-.372.32s-.576,4.516-.985,5.869a10.546,10.546,0,0,0,.079,3.954h0a12.2,12.2,0,0,1-.3,2.1,4.4,4.4,0,0,1-.278.771,1.926,1.926,0,0,0,.084,1.4,8.43,8.43,0,0,0,.9,1.725Z" transform="translate(-422.168 -223.582)" fill="#3f3d56"/>
    <path id="Path_18932" data-name="Path 18932" d="M1019.53,469.108c.126.257-12.727,12-18.3,17.071l-2.525,2.292L997,467.22h4.427s1.478-2.135.985-3.12a9.127,9.127,0,0,1-.571-2.869,11.444,11.444,0,0,0,.079-3.981c-.409-1.358-.985-5.869-.985-5.869l-.561-.482-.665-.582s-.823-10.337-.823-10.583,12.051-13.7,12.051-13.7l2.871,1.149s.063.309.168.8c.388,1.788,1.315,6.021,1.635,6.666a29.286,29.286,0,0,1,2.211,10.006C1017.958,449.5,1019.362,468.778,1019.53,469.108Z" transform="translate(-488.539 -223.596)" fill="#3f3d56"/>
    <path id="Path_18933" data-name="Path 18933" d="M1017.425,835.889c-.77,1.531-6.177.524-7.293.441s-9-4.054-9.106-4.982-2.84-2.843-3.6-2.843-4.48-2.958-4.81-3.393a1.674,1.674,0,0,1-.11-.682c-.115-1.8.11-6.43.11-6.43l15.85.876,7.7,11.6a14.963,14.963,0,0,1,1.394,3.97,2.625,2.625,0,0,1-.131,1.447Z" transform="translate(-486.381 -409.998)" fill="#3f3d56"/>
    <path id="Path_18934" data-name="Path 18934" d="M1017.425,835.889c-.77,1.531-6.177.524-7.293.441s-9-4.054-9.106-4.982-2.84-2.843-3.6-2.843-4.48-2.958-4.81-3.393a1.674,1.674,0,0,1-.11-.682c-.115-1.8.11-6.43.11-6.43l15.85.876,7.7,11.6a14.963,14.963,0,0,1,1.394,3.97,2.625,2.625,0,0,1-.131,1.447Z" transform="translate(-486.381 -409.998)" opacity="0.1"/>
    <path id="Path_18935" data-name="Path 18935" d="M1017.453,841.719c-.77,1.531-6.177.524-7.293.441s-9-4.054-9.106-4.982-2.84-2.843-3.6-2.843-4.48-2.958-4.81-3.393a1.674,1.674,0,0,1-.11-.682l5.135,3.252s3.28,2.1,4.155,3.341,7.77,3.828,8.341,3.881c.424.042,4.951-.829,7.424-.462a2.624,2.624,0,0,1-.131,1.447Z" transform="translate(-486.409 -415.828)" opacity="0.1"/>
    <path id="Path_18936" data-name="Path 18936" d="M873.852,826.836s-2.242,2.79-5.24,3.005a3.087,3.087,0,0,0-3.06,2.953s.524,1.7-6.722,4.054c-4.375,1.411-7.126.965-8.729,0a3.9,3.9,0,0,1-1.818-2.192c-.492-1.746,9.18-15.041,9.18-15.041l8.8-.524,6.287,2.843.964,3.6Z" transform="translate(-417.734 -410.516)" fill="#3f3d56"/>
    <path id="Path_18937" data-name="Path 18937" d="M873.852,826.836s-2.242,2.79-5.24,3.005a3.087,3.087,0,0,0-3.06,2.953s.524,1.7-6.722,4.054c-4.375,1.411-7.126.965-8.729,0a3.9,3.9,0,0,1-1.818-2.192c-.492-1.746,9.18-15.041,9.18-15.041l8.8-.524,6.287,2.843.964,3.6Z" transform="translate(-417.734 -410.516)" opacity="0.1"/>
    <path id="Path_18938" data-name="Path 18938" d="M875.521,832.662s-2.243,2.79-5.24,3.005a3.087,3.087,0,0,0-3.06,2.953s.524,1.7-6.722,4.054c-4.375,1.411-7.126.965-8.729,0,4.124-.43,13.235-3.037,14.147-3.939,1.1-1.1,2.463-4.107,3.39-4.159.644-.042,3.919-2.014,5.884-3.236Z" transform="translate(-419.403 -416.341)" fill="none"/>
    <path id="Path_18939" data-name="Path 18939" d="M875.521,832.662s-2.243,2.79-5.24,3.005a3.087,3.087,0,0,0-3.06,2.953s.524,1.7-6.722,4.054c-4.375,1.411-7.126.965-8.729,0,4.124-.43,13.235-3.037,14.147-3.939,1.1-1.1,2.463-4.107,3.39-4.159.644-.042,3.919-2.014,5.884-3.236Z" transform="translate(-419.403 -416.341)" opacity="0.1"/>
    <path id="Path_18940" data-name="Path 18940" d="M948.255,697.4c-.985,2.3,0,7,0,7s-14.671.766-18.255-1.642-6.12-16.195-6.12-16.195.524-16.19,0-16.956-2.515-4.374-1.86-5.14-.524-4.815-1.42-6.566-.524-6.781-.524-6.781l-2.19-13.352L914.5,621.906l-2.877-10.615s-2.95-8.643-3.951-12.251-2.059-.33-2.059-.33c-.1,3.5-8.195,19.258-8.195,19.258s-1.205,9.519-2.515,12.907-2.735,15.209-2.735,15.209-2.1,24.067-3.825,28.116a62.071,62.071,0,0,0-2.918,10.064s.44,8.318-.655,8.973-.917,5.69-.917,5.69.655,4.809-1.86,5.58-2.1,2.407-2.1,2.407-13.99,2.3-16.284-3.834.875-7.762,1.048-8.2,1.918-1.2.388-2.958,1.965-6.561,1.965-6.561.55-6.781,1.53-7,.66-10.064.66-10.064l1.09-10.284s1.425-22.976,1.1-23.852a14.583,14.583,0,0,1,.985-7.342c1.1-2.1,1.965-21.23,1.965-21.23s-.22-9.4.655-11.155c.524-.991.744-4.8.87-7.914.094-2.376.115-4.342.115-4.342l12.24-4.594,15.719-5.029,13.225,6.346,19.35,3.718.241,3.341,3.694,51.034,2.1,19.253s.875,9.078.985,10.72,1.2,12.367,1.2,12.367,2.295,5.14.875,6.891a3.325,3.325,0,0,0-.875,3.147S949.24,695.1,948.255,697.4Z" transform="translate(-424.646 -293.274)" fill="#3f3d56"/>
    <path id="Path_18941" data-name="Path 18941" d="M946.966,352.772a8.148,8.148,0,0,0-.9,6.189,15.361,15.361,0,0,1-18.637-.7h0c-.33-2.224-.713-3.855-.713-3.855S950.57,347.6,946.966,352.772Z" transform="translate(-455.082 -187.836)" opacity="0.1"/>
    <path id="Path_18942" data-name="Path 18942" d="M948.1,327.836a15.286,15.286,0,1,1-4.475-10.887A15.359,15.359,0,0,1,948.1,327.836Z" transform="translate(-450.646 -169.593)" fill="#fbbebe"/>
    <path id="Path_18943" data-name="Path 18943" d="M920.817,350.168l-5.03,89.655-27.324-5.743-5.412-35.941,5.36-48.249,4.034.519,7.115.907,7.047.435,7.639-.85Z" transform="translate(-420.162 -166.389)" opacity="0.1"/>
    <path id="Path_18944" data-name="Path 18944" d="M920.817,351.423l-5.03,89.655-27.324-5.743-5.412-35.941,5.36-48.244,4.034.514,7.115.907,7.047.435,7.639-.85Z" transform="translate(-420.162 -166.988)" fill="#9f6e65"/>
    <path id="Path_18945" data-name="Path 18945" d="M939.23,396.3l9.84.33-2.766,3.876s.194,7.83,1.509,10.075.927,36.921.927,36.921l-2.62,4.977-4.48-5.58.058-45.784Z" transform="translate(-461.038 -209.458)" fill="#3f3d56"/>
    <path id="Path_18946" data-name="Path 18946" d="M939.23,396.3l9.84.33-2.766,3.876s.194,7.83,1.509,10.075.927,36.921.927,36.921l-2.62,4.977-4.48-5.58.058-45.784Z" transform="translate(-461.038 -209.458)" opacity="0.1"/>
    <path id="Path_18947" data-name="Path 18947" d="M933.33,336.86l-9.18,10.174,5.245,5.47,8.692-8.48Z" transform="translate(-439.728 -160.192)" opacity="0.1"/>
    <path id="Path_18948" data-name="Path 18948" d="M933.33,335.61l-9.18,10.174,5.245,5.47,8.692-8.48Z" transform="translate(-439.728 -159.598)" fill="#9f6e65"/>
    <path id="Path_18949" data-name="Path 18949" d="M907.51,346.888l-9.295-9.3-.875,4.867,4.265,10.667Z" transform="translate(-426.965 -160.54)" opacity="0.1"/>
    <path id="Path_18950" data-name="Path 18950" d="M908.135,345.638l-9.29-9.3-.875,4.867,4.265,10.667Z" transform="translate(-427.265 -159.945)" fill="#9f6e65"/>
    <path id="Path_18951" data-name="Path 18951" d="M948.691,585.985a45.327,45.327,0,0,1-14.147,4.1c-9.017,1.149-14.917-10.337-14.917-10.337l-3.442,4.484c-1.1,4.762-17.762,5.963-24.537,4.159a10.837,10.837,0,0,1-3.888-1.841c.094-2.376.115-4.342.115-4.342l12.24-4.594,15.719-5.029,13.225,6.346,19.35,3.718Z" transform="translate(-436.536 -293.288)" opacity="0.1"/>
    <path id="Path_18952" data-name="Path 18952" d="M947.777,391.468l-5.025,89.649-27.329-5.743L910,439.439l5.355-48.249,4.034.524a49.067,49.067,0,0,1-.592,5.244c-.655,3.068,3.39,24.838,3.39,24.838s7.686,24.413,11.145,20.894,8.383-22.1,8.383-22.1c3.338-6.891.058-26.222-.189-26.611a7.816,7.816,0,0,1-.314-1.757Z" transform="translate(-447.123 -207.028)" opacity="0.1"/>
    <path id="Path_18953" data-name="Path 18953" d="M1001,514.76l.231,8.784-2.525,2.292L997,504.57h3.773Z" transform="translate(-488.539 -260.946)" opacity="0.1"/>
    <path id="Path_18954" data-name="Path 18954" d="M891.009,493.1h0a12.21,12.21,0,0,1-.3,2.1c0-.194,0-.3-.042-.32C890.511,494.836,890.7,494.034,891.009,493.1Z" transform="translate(-437.893 -255.491)" opacity="0.1"/>
    <path id="Path_18955" data-name="Path 18955" d="M893.66,503.005l-1.724,21.251s-2.583-2.344-5.926-5.4l.4-3.766s1.409-9.251,1.923-13.814a8.435,8.435,0,0,0,.9,1.725Z" transform="translate(-435.703 -259.381)" opacity="0.1"/>
    <path id="Path_18956" data-name="Path 18956" d="M899.886,375.882s-1.635-2.407-3.877,2.239c0,0-5.847,3.393-7.859,3.776s-9.169,2.9-9.169,2.9a6.325,6.325,0,0,1-3.715,1.2c-2.243,0-4.1,4.925-3.83,7.6s-.162,4.652-2.237,4.762-.933,4.426-.933,4.426l13.827,15.865s.875,14.606.44,15.046-2.022,4.72-1.64,4.867-2.1,16.3-2.1,16.3l-3.332,31.346s0,5.245,6.78,7.054,23.457.614,24.532-4.148l3.442-4.489s5.9,11.491,14.917,10.342a43.335,43.335,0,0,0,14.76-4.432l-.985-37.566-.655-27.077,14.079-23.154s-3.772-7.222-3.442-10.489.98-5.743-7.052-6.891c0,0-6.775-1.012-10.767-3.776a30.765,30.765,0,0,0-7.7-3.881s-2.253-4.2-3.82-2.759c0,0,1.572,5.931,1.441,6.818a22.587,22.587,0,0,0,.492,5.307c.246.414,3.526,19.719.189,26.611,0,0-4.9,18.581-8.383,22.1s-11.144-20.894-11.144-20.894-4.045-21.775-3.39-24.838S899.886,375.882,899.886,375.882Z" transform="translate(-427.106 -199.162)" fill="#3f3d56"/>
    <ellipse id="Ellipse_1934" data-name="Ellipse 1934" cx="2.405" cy="2.407" rx="2.405" ry="2.407" transform="translate(482.07 243.624)" fill="#3f3d56"/>
    <ellipse id="Ellipse_1935" data-name="Ellipse 1935" cx="2.405" cy="2.407" rx="2.405" ry="2.407" transform="translate(482.07 254.973)" fill="#3f3d56"/>
    <ellipse id="Ellipse_1936" data-name="Ellipse 1936" cx="2.405" cy="2.407" rx="2.405" ry="2.407" transform="translate(482.07 243.624)" opacity="0.1"/>
    <ellipse id="Ellipse_1937" data-name="Ellipse 1937" cx="2.405" cy="2.407" rx="2.405" ry="2.407" transform="translate(482.07 254.973)" opacity="0.1"/>
    <path id="Path_18957" data-name="Path 18957" d="M992.47,804.34s9.871.766,10.851,1.531S992.47,804.34,992.47,804.34Z" transform="translate(-486.382 -403.502)" stroke="#9f6e65" stroke-miterlimit="10" stroke-width="1" opacity="0.1"/>
    <path id="Path_18958" data-name="Path 18958" d="M880.3,789.53s2.1,2.622,1.205,3.829S880.3,789.53,880.3,789.53Z" transform="translate(-432.984 -396.459)" stroke="#9f6e65" stroke-miterlimit="10" stroke-width="1" opacity="0.1"/>
    <path id="Path_18959" data-name="Path 18959" d="M885.1,806.274s3.825-2.517,5.355-.844S885.1,806.274,885.1,806.274Z" transform="translate(-435.269 -403.747)" stroke="#9f6e65" stroke-miterlimit="10" stroke-width="1" opacity="0.1"/>
    <path id="Path_18960" data-name="Path 18960" d="M948.113,327.841a15.309,15.309,0,0,1-.492,3.886,1.747,1.747,0,0,1-1.017-1.71c.068-.624.482-1.2.393-1.815-.131-.955-1.284-1.343-1.891-2.1-.749-.913-.587-2.239-.524-3.419s-.236-2.622-1.341-3.026c-.33-.121-.692-.131-1.011-.267-.87-.367-1.137-1.447-1.719-2.192-1.163-1.5-3.474-1.469-5.24-.755a24.891,24.891,0,0,1-2.358.986,3.078,3.078,0,0,1-2.468-.184c-.346-.22-.623-.524-.98-.745-1.184-.713-2.735,0-3.762.918s-1.85,2.15-3.144,2.711c-.582.262-1.3.42-1.572.986a2.068,2.068,0,0,0-.168.981,29.354,29.354,0,0,1-.183,6.11c-.272,1.285-1.174,2.743-2.478,2.586a2.443,2.443,0,0,1-.477-.121,15.353,15.353,0,1,1,30.442-2.842Z" transform="translate(-450.655 -169.597)" opacity="0.1"/>
    <path id="Path_18961" data-name="Path 18961" d="M911.433,320.073c.393.089.765.294,1.168.346,1.3.157,2.206-1.3,2.478-2.586a28.312,28.312,0,0,0,.189-6.11,2,2,0,0,1,.162-.981c.3-.566,1.016-.724,1.572-.986,1.268-.566,2.1-1.773,3.144-2.711s2.573-1.631,3.757-.918c.351.21.634.524.98.745a3.141,3.141,0,0,0,2.473.184c.812-.241,1.572-.666,2.352-.986,1.75-.713,4.066-.739,5.24.75.582.75.849,1.825,1.719,2.192.32.136.681.152,1.011.273,1.106.414,1.388,1.846,1.341,3.026s-.2,2.507.524,3.419c.608.745,1.76,1.133,1.891,2.1.084.619-.325,1.2-.393,1.815a1.74,1.74,0,0,0,1.64,1.857c1.362,0,2.206-1.526,3.479-2.014.524-.2,1.158-.236,1.572-.65a1.737,1.737,0,0,0,.325-1.421c-.257-2.009-1.865-3.755-1.692-5.769.162-1.93,1.949-3.613,1.572-5.512a4.469,4.469,0,0,0-1.048-1.872,6.057,6.057,0,0,0-2.138-1.809,21.974,21.974,0,0,1-2.237-.771c-1.981-1.086-1.975-3.918-3.144-5.848a5.128,5.128,0,0,0-4.779-2.381c-1.472.147-2.808.928-4.265,1.19a11.047,11.047,0,0,1-5.91-1.049,16.153,16.153,0,0,0-5.832-1.573c-2.028,0-4.223,1.049-4.841,2.968-.325,1.049-.162,2.171-.414,3.225-.44,1.872-2.1,3.2-3.762,4.133-1.147.64-2.525,1.374-2.662,2.68a5.53,5.53,0,0,0,.655,2.376,6.052,6.052,0,0,1-.031,4.2c-.382.991-1.022,1.862-1.409,2.848a5.118,5.118,0,0,0,.136,4.2,3.909,3.909,0,0,0,2.394,1.967C909.683,320.854,910.333,319.832,911.433,320.073Z" transform="translate(-445.093 -159.868)" fill="#3f3d56"/>
    <g id="Group_7789" data-name="Group 7789" transform="translate(460.641 144.586)" opacity="0.1">
      <path id="Path_18962" data-name="Path 18962" d="M915.079,336.83c-.272,1.285-1.179,2.743-2.484,2.586-.4-.052-.77-.257-1.168-.346-1.1-.241-1.745.787-2.777.524a3.92,3.92,0,0,1-2.4-1.967,4.545,4.545,0,0,1-.487-1.715,4.792,4.792,0,0,0,.487,2.7,3.92,3.92,0,0,0,2.4,1.967c1.048.241,1.682-.787,2.777-.524a11.841,11.841,0,0,0,1.168.341c1.3.163,2.211-1.3,2.484-2.58a15.172,15.172,0,0,0,.251-3.446A12.927,12.927,0,0,1,915.079,336.83Z" transform="translate(-905.733 -324.593)"/>
      <path id="Path_18963" data-name="Path 18963" d="M908.951,320.2a6.041,6.041,0,0,0-.346-2.533,13.412,13.412,0,0,1-.6-1.657,2.388,2.388,0,0,0-.052.267,5.624,5.624,0,0,0,.655,2.376,6.016,6.016,0,0,1,.346,1.547Z" transform="translate(-906.783 -315.862)"/>
      <path id="Path_18964" data-name="Path 18964" d="M984.822,318.73c-.246,1.489-1.451,2.89-1.572,4.458a3.745,3.745,0,0,0,0,.808C983.512,322.165,985.131,320.545,984.822,318.73Z" transform="translate(-942.624 -317.155)"/>
      <path id="Path_18965" data-name="Path 18965" d="M980.081,339.83a1.233,1.233,0,0,1-.3.587c-.388.414-1.048.446-1.572.65-1.273.488-2.1,2.03-3.479,2.014a1.755,1.755,0,0,1-1.572-1.217,2.724,2.724,0,0,0-.073.346,1.741,1.741,0,0,0,1.64,1.851c1.367,0,2.206-1.526,3.479-2.009.524-.2,1.163-.236,1.572-.65a1.737,1.737,0,0,0,.325-1.421C980.1,339.919,980.087,339.877,980.081,339.83Z" transform="translate(-937.795 -327.189)"/>
      <path id="Path_18966" data-name="Path 18966" d="M971.645,335.538c-.131-.954-1.284-1.343-1.891-2.1a2.876,2.876,0,0,1-.576-1.72,3.874,3.874,0,0,0,.576,2.706c.6.734,1.519,1.049,1.813,1.8A1.683,1.683,0,0,0,971.645,335.538Z" transform="translate(-935.929 -323.333)"/>
      <path id="Path_18967" data-name="Path 18967" d="M947.636,322.442c.042-1.18-.241-2.622-1.347-3.026-.325-.121-.686-.136-1.006-.267-.87-.367-1.142-1.447-1.719-2.192-1.168-1.495-3.479-1.468-5.24-.755-.786.32-1.535.745-2.353.986a3.078,3.078,0,0,1-2.468-.184c-.346-.22-.629-.525-.98-.745-1.189-.713-2.74,0-3.762.918s-1.85,2.145-3.144,2.711c-.587.262-1.3.42-1.6.986a2.063,2.063,0,0,0-.162.981q0,.307,0,.614a1.492,1.492,0,0,1,.152-.608c.3-.566,1.016-.724,1.6-.986,1.268-.566,2.1-1.773,3.144-2.711s2.573-1.631,3.762-.918c.351.21.634.524.98.739a3.057,3.057,0,0,0,2.468.184,24.2,24.2,0,0,0,2.353-.981c1.755-.713,4.066-.745,5.24.75.576.745.849,1.825,1.719,2.192.32.136.681.152,1.006.273a2.517,2.517,0,0,1,1.331,2.339Z" transform="translate(-914.356 -315.727)"/>
    </g>
    <g id="Group_7790" data-name="Group 7790" transform="translate(468.115 152.671)" opacity="0.1">
      <path id="Path_18968" data-name="Path 18968" d="M920,335.264a4.022,4.022,0,0,1,3.028-3.76,12.564,12.564,0,0,1,7.063.32c4.972,1.647-.629,7.573-.629,7.573s-3.725,3.671-7.2,1.107a5.449,5.449,0,0,1-2.028-3.147,8.032,8.032,0,0,1-.236-2.093Z" transform="translate(-919.997 -331.144)"/>
      <path id="Path_18969" data-name="Path 18969" d="M961.132,335.265a4.022,4.022,0,0,0-3.034-3.76,12.563,12.563,0,0,0-7.058.32c-4.972,1.647.629,7.573.629,7.573s3.72,3.671,7.2,1.107a5.449,5.449,0,0,0,2.028-3.147,8.035,8.035,0,0,0,.236-2.093Z" transform="translate(-933.795 -331.144)"/>
      <path id="Path_18970" data-name="Path 18970" d="M910.5,291.437v.246h9.08v-.294Z" transform="translate(-901.345 -291.24)"/>
      <path id="Path_18971" data-name="Path 18971" d="M942.771,335.22h.288v-.834a2.384,2.384,0,0,1,2.452,0v.745h.524v-.488h-.257s.1-1.012-1.6-.85c0,0-1.373-.131-1.341.739h-.314Z" transform="translate(-930.719 -332.396)"/>
    </g>
    <path id="Path_18972" data-name="Path 18972" d="M920,334.616a4.022,4.022,0,0,1,3.029-3.76,12.632,12.632,0,0,1,7.063.32c4.972,1.652-.629,7.573-.629,7.573s-3.725,3.671-7.2,1.107a5.418,5.418,0,0,1-2.028-3.147A7.982,7.982,0,0,1,920,334.616Z" transform="translate(-451.882 -178.166)" fill="#9f6e65"/>
    <path id="Path_18973" data-name="Path 18973" d="M961.132,334.616a4.022,4.022,0,0,0-3.034-3.76,12.61,12.61,0,0,0-7.058.32c-4.972,1.652.629,7.573.629,7.573s3.72,3.671,7.2,1.107a5.418,5.418,0,0,0,2.028-3.147A7.982,7.982,0,0,0,961.132,334.616Z" transform="translate(-465.68 -178.166)" fill="#9f6e65"/>
    <path id="Path_18974" data-name="Path 18974" d="M910.5,290.807v.252h9.08v-.3Z" transform="translate(-433.23 -138.27)" fill="#9f6e65"/>
    <path id="Path_18975" data-name="Path 18975" d="M942.771,334.591h.288v-.834a2.4,2.4,0,0,1,2.452,0v.75h.524v-.493h-.257s.1-1.007-1.6-.85c0,0-1.373-.126-1.341.739h-.314Z" transform="translate(-462.604 -179.426)" fill="#9f6e65"/>
    <rect id="Rectangle_3903" data-name="Rectangle 3903" width="2.976" height="67.077" transform="translate(61.753 239.775)" fill="#535461"/>
    <path id="Path_18976" data-name="Path 18976" d="M149.109,620.636l-.189,3.021-.262,4.264-.11,1.778-.262,4.269-.115,1.778-.262,4.264-3,48.5a8.208,8.208,0,0,1-8.189,7.709h-15.6a8.2,8.2,0,0,1-8.184-7.709l-3.018-48.5-.262-4.264-.11-1.778-.257-4.279-.11-1.778-.262-4.264-.189-3.021a4.252,4.252,0,0,1,4.244-4.516h31.9a4.246,4.246,0,0,1,4.239,4.526Z" transform="translate(-65.675 -313.989)" fill="#3f3d56"/>
    <path id="Path_18977" data-name="Path 18977" d="M122.124,590.46l-.262,4.264H82.372l-.262-4.264Z" transform="translate(-38.879 -280.792)" fill="#9d9cb5"/>
    <path id="Path_18978" data-name="Path 18978" d="M122.09,601.98l-.262,4.269H83.087l-.267-4.269Z" transform="translate(-39.217 -286.27)" fill="#9d9cb5"/>
    <path id="Path_18979" data-name="Path 18979" d="M122.056,613.51l-.262,4.264H83.807l-.267-4.264Z" transform="translate(-39.559 -291.753)" fill="#9d9cb5"/>
    <path id="Path_18980" data-name="Path 18980" d="M65.659,533.139c17.332,12.55,24.553,32.185,24.553,32.185s-20.89-.718-38.249-13.269S27.41,519.87,27.41,519.87,48.321,520.589,65.659,533.139Z" transform="translate(-26.97 -268.222)" fill="#9f6e65"/>
    <path id="Path_18981" data-name="Path 18981" d="M27.46,519.87S49.141,531.932,56.094,541.9s34.141,23.432,34.141,23.432" transform="translate(-26.994 -268.222)" fill="none" stroke="#535461" stroke-miterlimit="10" stroke-width="2"/>
    <path id="Path_18982" data-name="Path 18982" d="M102.861,490.452c9.431,6.818,13.366,17.517,13.366,17.517s-11.37-.388-20.806-7.222S82.06,483.23,82.06,483.23,93.43,483.592,102.861,490.452Z" transform="translate(-52.986 -250.798)" fill="#9f6e65"/>
    <path id="Path_18983" data-name="Path 18983" d="M82.06,483.18s11.8,6.556,15.582,11.984,18.585,12.755,18.585,12.755" transform="translate(-52.986 -250.774)" fill="none" stroke="#535461" stroke-miterlimit="10" stroke-width="2"/>
    <path id="Path_18984" data-name="Path 18984" d="M161.51,515.106c-10.841,11.921-13.13,27.5-13.13,27.5s15.279-3.75,26.114-15.671,13.13-27.5,13.13-27.5S172.346,503.18,161.51,515.106Z" transform="translate(-84.557 -258.502)" fill="#9f6e65"/>
    <path id="Path_18985" data-name="Path 18985" d="M187.624,499.43s-14.115,12.22-17.7,20.642-21.54,22.551-21.54,22.551" transform="translate(-84.557 -258.502)" fill="none" stroke="#535461" stroke-miterlimit="10" stroke-width="2"/>
  </g>
</svg>
