<svg xmlns="http://www.w3.org/2000/svg" viewBox="0 0 20 24"><defs><style>.cls-1{fill:#0068c3;}</style></defs><title>Asset 6zip</title><g id="Layer_2" data-name="Layer 2"><g id="Layer_1-2" data-name="Layer 1"><g id="files-and-folders"><path id="Path_689" data-name="Path 689" class="cls-1" d="M17.77,4.47h1.6L15.54.63v1.6A2.25,2.25,0,0,0,17.77,4.47Z"/><path id="Path_690" data-name="Path 690" class="cls-1" d="M0,21.77A2.25,2.25,0,0,0,2.27,24H17.73A2.25,2.25,0,0,0,20,21.77v-4H0Zm12.27-2.68a.46.46,0,0,1,.46-.45h.91a1.34,1.34,0,0,1,.07,2.68h-.53v1.34a.46.46,0,0,1-.47.44.47.47,0,0,1-.44-.44Zm-3.18.45a.45.45,0,0,1-.47-.43.45.45,0,0,1,.43-.47h1.86a.45.45,0,0,1,0,.9h-.5v2.68h.46a.44.44,0,0,1,.47.42.45.45,0,0,1-.43.47H9.09a.45.45,0,0,1-.47-.43.45.45,0,0,1,.43-.46h.5V19.54Zm-3.64-.9H7.27a.44.44,0,0,1,.39.22.44.44,0,0,1,0,.43L6.19,22.22H7.27a.43.43,0,0,1,.47.42.45.45,0,0,1-.42.47H5.45a.45.45,0,0,1-.38-.21.46.46,0,0,1,0-.44l1.49-2.92H5.45a.45.45,0,0,1,0-.9Z"/><path id="Path_691" data-name="Path 691" class="cls-1" d="M14.55,2.11V0H6.36V.84h.91a.45.45,0,0,1,.46.43.44.44,0,0,1-.46.42H6.36v.84h.91a.42.42,0,1,1,.07.84h-1v.85h.91a.42.42,0,0,1,.46.38.43.43,0,0,1-.39.46h-1V5.9h.91a.42.42,0,1,1,.07.84h-1v.85h.91a.42.42,0,1,1,.07.84h-1v.84h.91a.43.43,0,1,1,.07.85h-1V11a.43.43,0,0,1,.44.32l.34,1.24a1.22,1.22,0,0,1-.38,1.54,1.47,1.47,0,0,1-1.7,0,1.21,1.21,0,0,1-.38-1.54L5,11.28A.45.45,0,0,1,5.45,11v-.84h-.9a.43.43,0,0,1-.46-.39.42.42,0,0,1,.38-.46h1V8.43H4.55A.42.42,0,0,1,4.09,8a.42.42,0,0,1,.38-.45h1V6.74H4.55a.42.42,0,0,1-.46-.38.42.42,0,0,1,.38-.46h1V5.06H4.55a.42.42,0,0,1-.46-.39.41.41,0,0,1,.38-.45h1V3.37H4.55a.42.42,0,0,1-.08-.84h1V1.69H4.55a.44.44,0,0,1-.46-.42A.45.45,0,0,1,4.55.84h.91V0H2.27A2.2,2.2,0,0,0,0,2.11V16.86H20V5.06H17.73A3.07,3.07,0,0,1,14.55,2.11Z"/><path id="Path_692" data-name="Path 692" class="cls-1" d="M5.91,13.75a.45.45,0,0,0,.44-.45.54.54,0,0,0,0-.21.3.3,0,0,1,0-.1L6,12H5.8l-.25,1a1,1,0,0,1,0,.1.33.33,0,0,0,0,.21.44.44,0,0,0,.44.45Z"/><path id="Path_693" data-name="Path 693" class="cls-1" d="M14.08,20a.44.44,0,0,0-.44-.44h-.45v.89h.45a.45.45,0,0,0,.44-.45Z"/></g></g></g></svg>